G04 #@! TF.GenerationSoftware,KiCad,Pcbnew,(5.0.0-rc2-dev-130-g0bdae22af-dirty)*
G04 #@! TF.CreationDate,2018-05-29T16:10:37+03:00*
G04 #@! TF.ProjectId,display,646973706C61792E6B696361645F7063,1*
G04 #@! TF.SameCoordinates,Original*
G04 #@! TF.FileFunction,Paste,Top*
G04 #@! TF.FilePolarity,Positive*
%FSLAX46Y46*%
G04 Gerber Fmt 4.6, Leading zero omitted, Abs format (unit mm)*
G04 Created by KiCad (PCBNEW (5.0.0-rc2-dev-130-g0bdae22af-dirty)) date Tue May 29 16:10:37 2018*
%MOMM*%
%LPD*%
G01*
G04 APERTURE LIST*
%ADD10R,0.600000X1.524000*%
%ADD11R,0.635000X1.524000*%
%ADD12R,1.500000X1.500000*%
%ADD13R,0.300000X1.200000*%
%ADD14R,1.524000X0.600000*%
%ADD15R,1.524000X0.635000*%
%ADD16R,5.900000X5.900000*%
%ADD17R,1.200000X0.300000*%
%ADD18R,0.762000X0.939800*%
%ADD19R,0.939800X0.762000*%
%ADD20R,1.498600X0.398780*%
%ADD21R,1.498600X0.279400*%
%ADD22R,0.398780X1.498600*%
%ADD23R,0.279400X1.498600*%
%ADD24R,1.699260X2.397760*%
%ADD25R,2.400000X2.700000*%
%ADD26R,1.900000X2.179320*%
%ADD27R,1.297940X1.399540*%
%ADD28R,0.700000X1.350000*%
%ADD29R,3.500000X2.799080*%
%ADD30R,1.200000X0.500000*%
%ADD31R,1.600000X2.600000*%
%ADD32R,3.997960X0.998220*%
%ADD33R,0.635000X1.905000*%
%ADD34R,1.000000X2.800000*%
%ADD35R,3.599180X2.598420*%
%ADD36R,2.598420X3.599180*%
%ADD37R,1.300000X1.000000*%
G04 APERTURE END LIST*
D10*
X139455000Y-81371000D03*
X138185000Y-81371000D03*
X136915000Y-81371000D03*
X135645000Y-81371000D03*
X135645000Y-75529000D03*
X136915000Y-75529000D03*
D11*
X138150000Y-75529000D03*
D10*
X139455000Y-75529000D03*
D12*
X176151734Y-108900000D03*
X201151734Y-108900000D03*
D13*
X198400000Y-105201426D03*
X197900000Y-105201426D03*
X197400000Y-105201426D03*
X196900000Y-105201426D03*
X196400000Y-105201426D03*
X195900000Y-105201426D03*
X195400000Y-105201426D03*
X194900000Y-105201426D03*
X194400000Y-105201426D03*
X193900000Y-105201426D03*
X193400000Y-105201426D03*
X192900000Y-105201426D03*
X192400000Y-105201426D03*
X191900000Y-105201426D03*
X191400000Y-105201426D03*
X190900000Y-105201426D03*
X190400000Y-105201426D03*
X189900000Y-105201426D03*
X189400000Y-105201426D03*
X188900000Y-105201426D03*
X188400000Y-105201426D03*
X187900000Y-105201426D03*
X187400000Y-105201426D03*
X186900000Y-105201426D03*
X186400000Y-105201426D03*
X185900000Y-105201426D03*
X185400000Y-105201426D03*
X184900000Y-105201426D03*
X184400000Y-105201426D03*
X183900000Y-105201426D03*
X183400000Y-105201426D03*
X182900000Y-105201426D03*
X182400000Y-105201426D03*
X181900000Y-105201426D03*
X181400000Y-105201426D03*
X180900000Y-105201426D03*
X180400000Y-105201426D03*
X179900000Y-105201426D03*
X179400000Y-105201426D03*
X178900000Y-105201426D03*
D14*
X132458000Y-101240000D03*
X132458000Y-99970000D03*
X132458000Y-98700000D03*
X132458000Y-97430000D03*
X138300000Y-97430000D03*
X138300000Y-98700000D03*
D15*
X138300000Y-99935000D03*
D14*
X138300000Y-101240000D03*
D16*
X183200000Y-96350000D03*
D13*
X186450000Y-92150000D03*
X185950000Y-92150000D03*
X185450000Y-92150000D03*
X184950000Y-92150000D03*
X184450000Y-92150000D03*
X183950000Y-92150000D03*
X183450000Y-92150000D03*
X182950000Y-92150000D03*
X182450000Y-92150000D03*
X181950000Y-92150000D03*
X181450000Y-92150000D03*
X180950000Y-92150000D03*
X180450000Y-92150000D03*
X179950000Y-92150000D03*
D17*
X179000000Y-93100000D03*
X179000000Y-93600000D03*
X179000000Y-94100000D03*
X179000000Y-94600000D03*
X179000000Y-95100000D03*
X179000000Y-95600000D03*
X179000000Y-96100000D03*
X179000000Y-96600000D03*
X179000000Y-97100000D03*
X179000000Y-97600000D03*
X179000000Y-98100000D03*
X179000000Y-98600000D03*
X179000000Y-99100000D03*
X179000000Y-99600000D03*
D13*
X179950000Y-100550000D03*
X180450000Y-100550000D03*
X180950000Y-100550000D03*
X181450000Y-100550000D03*
X181950000Y-100550000D03*
X182450000Y-100550000D03*
X182950000Y-100550000D03*
X183450000Y-100550000D03*
X183950000Y-100550000D03*
X184450000Y-100550000D03*
X184950000Y-100550000D03*
X185450000Y-100550000D03*
X185950000Y-100550000D03*
X186450000Y-100550000D03*
D17*
X187400000Y-99600000D03*
X187400000Y-99100000D03*
X187400000Y-98600000D03*
X187400000Y-98100000D03*
X187400000Y-97600000D03*
X187400000Y-97100000D03*
X187400000Y-96600000D03*
X187400000Y-96100000D03*
X187400000Y-95600000D03*
X187400000Y-95100000D03*
X187400000Y-94600000D03*
X187400000Y-94100000D03*
X187400000Y-93600000D03*
X187400000Y-93100000D03*
D18*
X136661800Y-73500000D03*
X138338200Y-73500000D03*
D19*
X176900000Y-94761800D03*
X176900000Y-96438200D03*
X181400000Y-90338200D03*
X181400000Y-88661800D03*
D18*
X180638200Y-86000000D03*
X178961800Y-86000000D03*
X185823600Y-71900000D03*
X187500000Y-71900000D03*
X185238200Y-87850000D03*
X183561800Y-87850000D03*
X189861800Y-71900000D03*
X191538200Y-71900000D03*
X176661800Y-78300000D03*
X178338200Y-78300000D03*
D19*
X179800000Y-88661800D03*
X179800000Y-90338200D03*
X171800000Y-106111800D03*
X171800000Y-107788200D03*
D20*
X192197880Y-83810000D03*
D21*
X192197880Y-83248660D03*
X192197880Y-82748280D03*
X192197880Y-82247900D03*
X192197880Y-81747520D03*
X192197880Y-81249680D03*
X192197880Y-80749300D03*
X192197880Y-80248920D03*
X192197880Y-79751080D03*
X192197880Y-79250700D03*
X192197880Y-78750320D03*
X192197880Y-78252480D03*
X192197880Y-77752100D03*
X192197880Y-77251720D03*
X192197880Y-76751340D03*
D20*
X192197880Y-76190000D03*
D22*
X190110000Y-74102120D03*
D23*
X189548660Y-74102120D03*
X189048280Y-74102120D03*
X188547900Y-74102120D03*
X188047520Y-74102120D03*
X187549680Y-74102120D03*
X187049300Y-74102120D03*
X186548920Y-74102120D03*
X186051080Y-74102120D03*
X185550700Y-74102120D03*
X185050320Y-74102120D03*
X184552480Y-74102120D03*
X184052100Y-74102120D03*
X183551720Y-74102120D03*
X183051340Y-74102120D03*
D22*
X182490000Y-74102120D03*
D20*
X180402120Y-76190000D03*
D21*
X180402120Y-76751340D03*
X180402120Y-77251720D03*
X180402120Y-77752100D03*
X180402120Y-78252480D03*
X180402120Y-78750320D03*
X180402120Y-79250700D03*
X180402120Y-79751080D03*
X180402120Y-80248920D03*
X180402120Y-80749300D03*
X180402120Y-81249680D03*
X180402120Y-81747520D03*
X180402120Y-82247900D03*
X180402120Y-82748280D03*
X180402120Y-83248660D03*
D20*
X180402120Y-83810000D03*
D22*
X182490000Y-85897880D03*
D23*
X183051340Y-85897880D03*
X183551720Y-85897880D03*
X184052100Y-85897880D03*
X184552480Y-85897880D03*
X185050320Y-85897880D03*
X185550700Y-85897880D03*
X186051080Y-85897880D03*
X186548920Y-85897880D03*
X187049300Y-85897880D03*
X187549680Y-85897880D03*
X188047520Y-85897880D03*
X188547900Y-85897880D03*
X189048280Y-85897880D03*
X189548660Y-85897880D03*
D22*
X190110000Y-85897880D03*
D18*
X176738200Y-72100000D03*
X175061800Y-72100000D03*
X172538200Y-72100000D03*
X170861800Y-72100000D03*
D24*
X176340000Y-75000000D03*
X171260000Y-75000000D03*
D19*
X168200000Y-83938200D03*
X168200000Y-82261800D03*
X168100000Y-85861800D03*
X168100000Y-87538200D03*
D18*
X197138200Y-73150000D03*
X195461800Y-73150000D03*
D10*
X196396270Y-82670300D03*
X197663730Y-82670300D03*
X198933730Y-82670300D03*
X200203730Y-82670300D03*
X200203730Y-75329700D03*
X198933730Y-75329700D03*
X197663730Y-75329700D03*
X196396270Y-75329700D03*
D25*
X157500000Y-106000000D03*
X150700000Y-106000000D03*
D26*
X119700000Y-98100000D03*
X124700000Y-98100000D03*
D27*
X140065300Y-105200000D03*
X136534700Y-105200000D03*
D28*
X148100000Y-88600000D03*
X146100000Y-88600000D03*
X147100000Y-91200000D03*
D29*
X146100000Y-97400000D03*
X157100000Y-97400000D03*
D19*
X130250000Y-100088200D03*
X130250000Y-98411800D03*
D18*
X138238200Y-103100000D03*
X136561800Y-103100000D03*
X147938200Y-86500000D03*
X146261800Y-86500000D03*
D19*
X169400000Y-106161800D03*
X169400000Y-107838200D03*
D27*
X169784700Y-103300000D03*
X173315300Y-103300000D03*
D30*
X164100000Y-106050000D03*
X164100000Y-107000000D03*
X164100000Y-107950000D03*
X166900000Y-107950000D03*
X166900000Y-106050000D03*
D31*
X163200000Y-103200000D03*
X167200000Y-103200000D03*
D32*
X110251620Y-104300000D03*
X117348380Y-104300000D03*
X164100000Y-96400000D03*
X171196760Y-96400000D03*
D19*
X150900000Y-90138200D03*
X150900000Y-88461800D03*
X161500000Y-89161800D03*
X161500000Y-90838200D03*
X161500000Y-87595979D03*
X161500000Y-85919579D03*
D14*
X153193903Y-90566127D03*
X153193903Y-89296127D03*
X153193903Y-88026127D03*
X153193903Y-86756127D03*
X159035903Y-86756127D03*
X159035903Y-88026127D03*
D15*
X159035903Y-89261127D03*
D14*
X159035903Y-90566127D03*
D33*
X169850000Y-87300000D03*
X169850000Y-82220000D03*
X171120000Y-87300000D03*
X171120000Y-82220000D03*
X172390000Y-87300000D03*
X172390000Y-82220000D03*
X173660000Y-82220000D03*
X174930000Y-87300000D03*
X174930000Y-82220000D03*
D34*
X130500000Y-95100000D03*
X127500000Y-95100000D03*
X130500000Y-91300000D03*
X127500000Y-91300000D03*
D35*
X110800000Y-94798560D03*
D36*
X110800000Y-73300000D03*
D19*
X118500000Y-92361800D03*
X118500000Y-94038200D03*
D18*
X130961800Y-78300000D03*
X132638200Y-78300000D03*
X132938200Y-76500000D03*
X131261800Y-76500000D03*
D14*
X130567900Y-80099266D03*
X130567900Y-81369266D03*
X130567900Y-82639266D03*
X130567900Y-83909266D03*
X124725900Y-83909266D03*
X124725900Y-82639266D03*
D15*
X124725900Y-81404266D03*
D14*
X124725900Y-80099266D03*
D37*
X120500000Y-88450450D03*
X120500000Y-93949550D03*
X124500000Y-93949550D03*
X124500000Y-88450450D03*
M02*
