G75*
%MOIN*%
%OFA0B0*%
%FSLAX25Y25*%
%IPPOS*%
%LPD*%
%AMOC8*
5,1,8,0,0,1.08239X$1,22.5*
%
%ADD10C,0.00000*%
%ADD11C,0.00512*%
%ADD12C,0.00600*%
%ADD13C,0.00800*%
%ADD14C,0.00400*%
%ADD15C,0.00300*%
%ADD16C,0.01000*%
%ADD17C,0.00500*%
%ADD18C,0.00787*%
D10*
X0001500Y0026933D02*
X0001500Y0398634D01*
X0353421Y0398634D01*
X0353421Y0026933D01*
X0001500Y0026933D01*
D11*
X0001500Y0001256D01*
X0001756Y0008933D02*
X0011736Y0007909D01*
X0011736Y0007676D02*
X0001756Y0008933D01*
X0011736Y0009957D01*
X0011736Y0010190D02*
X0011736Y0007676D01*
X0011736Y0008421D02*
X0001756Y0008933D01*
X0011736Y0009445D01*
X0011736Y0010190D02*
X0001756Y0008933D01*
X0353165Y0008933D01*
X0343185Y0007909D01*
X0343185Y0007676D02*
X0353165Y0008933D01*
X0343185Y0009957D01*
X0343185Y0010190D02*
X0343185Y0007676D01*
X0343185Y0008421D02*
X0353165Y0008933D01*
X0343185Y0009445D01*
X0343185Y0010190D02*
X0353165Y0008933D01*
X0353421Y0001256D02*
X0353421Y0026933D01*
X0381177Y0026933D01*
X0373500Y0027189D02*
X0374524Y0037169D01*
X0374757Y0037169D02*
X0373500Y0027189D01*
X0372476Y0037169D01*
X0372243Y0037169D02*
X0374757Y0037169D01*
X0374012Y0037169D02*
X0373500Y0027189D01*
X0372988Y0037169D01*
X0372243Y0037169D02*
X0373500Y0027189D01*
X0373500Y0398378D01*
X0374524Y0388398D01*
X0374757Y0388398D02*
X0373500Y0398378D01*
X0372476Y0388398D01*
X0372243Y0388398D02*
X0374757Y0388398D01*
X0374012Y0388398D02*
X0373500Y0398378D01*
X0372988Y0388398D01*
X0372243Y0388398D02*
X0373500Y0398378D01*
X0381177Y0398634D02*
X0353421Y0398634D01*
D12*
X0367735Y0231930D02*
X0366668Y0230863D01*
X0367735Y0229795D01*
X0370938Y0229795D01*
X0370938Y0231930D02*
X0367735Y0231930D01*
X0367735Y0229795D02*
X0366668Y0228727D01*
X0366668Y0227660D01*
X0370938Y0227660D01*
X0370938Y0225485D02*
X0367735Y0225485D01*
X0366668Y0224417D01*
X0367735Y0223349D01*
X0370938Y0223349D01*
X0370938Y0221214D02*
X0366668Y0221214D01*
X0366668Y0222282D01*
X0367735Y0223349D01*
X0370938Y0219039D02*
X0370938Y0214769D01*
X0370938Y0216904D02*
X0364533Y0216904D01*
X0366668Y0214769D01*
X0367735Y0212594D02*
X0367735Y0208323D01*
X0364533Y0211526D01*
X0370938Y0211526D01*
X0370938Y0206168D02*
X0370938Y0205101D01*
X0369871Y0205101D01*
X0369871Y0206168D01*
X0370938Y0206168D01*
X0370938Y0201858D02*
X0364533Y0201858D01*
X0367735Y0198655D01*
X0367735Y0202925D01*
X0367735Y0196480D02*
X0367735Y0193277D01*
X0366668Y0192210D01*
X0365600Y0192210D01*
X0364533Y0193277D01*
X0364533Y0195412D01*
X0365600Y0196480D01*
X0369871Y0196480D01*
X0370938Y0195412D01*
X0370938Y0193277D01*
X0369871Y0192210D01*
X0195540Y0015765D02*
X0196607Y0014698D01*
X0196607Y0011495D01*
X0194472Y0011495D02*
X0194472Y0014698D01*
X0195540Y0015765D01*
X0194472Y0014698D02*
X0193405Y0015765D01*
X0192337Y0015765D01*
X0192337Y0011495D01*
X0190162Y0011495D02*
X0190162Y0014698D01*
X0189094Y0015765D01*
X0188027Y0014698D01*
X0188027Y0011495D01*
X0185891Y0011495D02*
X0185891Y0015765D01*
X0186959Y0015765D01*
X0188027Y0014698D01*
X0183716Y0014698D02*
X0180514Y0014698D01*
X0179446Y0015765D01*
X0179446Y0016833D01*
X0180514Y0017900D01*
X0182649Y0017900D01*
X0183716Y0016833D01*
X0183716Y0012562D01*
X0182649Y0011495D01*
X0180514Y0011495D01*
X0179446Y0012562D01*
X0177271Y0012562D02*
X0176203Y0011495D01*
X0174068Y0011495D01*
X0173000Y0012562D01*
X0170845Y0012562D02*
X0170845Y0011495D01*
X0169778Y0011495D01*
X0169778Y0012562D01*
X0170845Y0012562D01*
X0167603Y0012562D02*
X0166535Y0011495D01*
X0164400Y0011495D01*
X0163332Y0012562D01*
X0161157Y0012562D02*
X0160089Y0011495D01*
X0157954Y0011495D01*
X0156887Y0012562D01*
X0156887Y0013630D01*
X0157954Y0014698D01*
X0160089Y0014698D01*
X0161157Y0013630D01*
X0161157Y0012562D01*
X0160089Y0014698D02*
X0161157Y0015765D01*
X0161157Y0016833D01*
X0160089Y0017900D01*
X0157954Y0017900D01*
X0156887Y0016833D01*
X0156887Y0015765D01*
X0157954Y0014698D01*
X0163332Y0015765D02*
X0163332Y0016833D01*
X0164400Y0017900D01*
X0166535Y0017900D01*
X0167603Y0016833D01*
X0167603Y0012562D01*
X0167603Y0014698D02*
X0164400Y0014698D01*
X0163332Y0015765D01*
X0173000Y0016833D02*
X0174068Y0017900D01*
X0176203Y0017900D01*
X0177271Y0016833D01*
X0177271Y0015765D01*
X0176203Y0014698D01*
X0177271Y0013630D01*
X0177271Y0012562D01*
X0176203Y0014698D02*
X0175136Y0014698D01*
X0034535Y0136966D02*
X0034535Y0138033D01*
X0033468Y0139101D01*
X0028130Y0139101D01*
X0032400Y0139101D02*
X0032400Y0135898D01*
X0031332Y0134831D01*
X0028130Y0134831D01*
X0027062Y0132655D02*
X0025995Y0131588D01*
X0025995Y0129453D01*
X0027062Y0128385D01*
X0031332Y0128385D01*
X0032400Y0129453D01*
X0032400Y0131588D01*
X0031332Y0132655D01*
X0027062Y0132655D01*
X0021900Y0132682D02*
X0021900Y0133750D01*
X0020832Y0133750D01*
X0020832Y0132682D01*
X0021900Y0132682D01*
X0021900Y0130507D02*
X0021900Y0126237D01*
X0021900Y0128372D02*
X0015495Y0128372D01*
X0017630Y0126237D01*
X0017630Y0117616D02*
X0022968Y0117616D01*
X0024035Y0116548D01*
X0024035Y0115481D01*
X0025995Y0114413D02*
X0032400Y0114413D01*
X0032400Y0113346D02*
X0032400Y0115481D01*
X0031332Y0118710D02*
X0027062Y0118710D01*
X0028130Y0117643D02*
X0028130Y0119778D01*
X0031332Y0118710D02*
X0032400Y0119778D01*
X0025995Y0114413D02*
X0025995Y0113346D01*
X0029197Y0111170D02*
X0028130Y0110103D01*
X0028130Y0107968D01*
X0029197Y0106900D01*
X0031332Y0106900D01*
X0032400Y0107968D01*
X0032400Y0110103D01*
X0031332Y0111170D01*
X0029197Y0111170D01*
X0028130Y0104725D02*
X0032400Y0102590D01*
X0028130Y0100455D01*
X0029197Y0098279D02*
X0030265Y0098279D01*
X0030265Y0094009D01*
X0031332Y0094009D02*
X0029197Y0094009D01*
X0028130Y0095077D01*
X0028130Y0097212D01*
X0029197Y0098279D01*
X0032400Y0097212D02*
X0032400Y0095077D01*
X0031332Y0094009D01*
X0031332Y0091834D02*
X0030265Y0090766D01*
X0030265Y0088631D01*
X0029197Y0087564D01*
X0028130Y0088631D01*
X0028130Y0091834D01*
X0031332Y0091834D02*
X0032400Y0090766D01*
X0032400Y0087564D01*
X0031332Y0085388D02*
X0025995Y0085388D01*
X0021900Y0085415D02*
X0021900Y0087550D01*
X0021900Y0086483D02*
X0017630Y0086483D01*
X0017630Y0085415D01*
X0015495Y0086483D02*
X0014427Y0086483D01*
X0016562Y0083240D02*
X0015495Y0082172D01*
X0015495Y0078970D01*
X0021900Y0078970D01*
X0021900Y0082172D01*
X0020832Y0083240D01*
X0016562Y0083240D01*
X0018697Y0089712D02*
X0017630Y0090780D01*
X0017630Y0093982D01*
X0017630Y0096158D02*
X0017630Y0099360D01*
X0018697Y0100428D01*
X0020832Y0100428D01*
X0021900Y0099360D01*
X0021900Y0096158D01*
X0024035Y0096158D02*
X0017630Y0096158D01*
X0020832Y0093982D02*
X0019765Y0092915D01*
X0019765Y0090780D01*
X0018697Y0089712D01*
X0021900Y0089712D02*
X0021900Y0092915D01*
X0020832Y0093982D01*
X0021900Y0102603D02*
X0021900Y0104738D01*
X0021900Y0103671D02*
X0015495Y0103671D01*
X0015495Y0102603D01*
X0017630Y0107968D02*
X0017630Y0110103D01*
X0018697Y0111170D01*
X0021900Y0111170D01*
X0021900Y0107968D01*
X0020832Y0106900D01*
X0019765Y0107968D01*
X0019765Y0111170D01*
X0020832Y0113346D02*
X0017630Y0113346D01*
X0020832Y0113346D02*
X0021900Y0114413D01*
X0021900Y0117616D01*
X0020832Y0135905D02*
X0016562Y0135905D01*
X0015495Y0136972D01*
X0015495Y0139108D01*
X0016562Y0140175D01*
X0020832Y0135905D01*
X0021900Y0136972D01*
X0021900Y0139108D01*
X0020832Y0140175D01*
X0016562Y0140175D01*
X0031332Y0085388D02*
X0032400Y0084321D01*
X0032400Y0082186D01*
X0031332Y0081118D01*
X0025995Y0081118D01*
X0028130Y0072511D02*
X0025995Y0070376D01*
X0028130Y0072511D02*
X0030265Y0072511D01*
X0032400Y0070376D01*
X0032400Y0068200D02*
X0032400Y0064998D01*
X0031332Y0063930D01*
X0029197Y0063930D01*
X0028130Y0064998D01*
X0028130Y0068200D01*
X0021900Y0066079D02*
X0019765Y0068214D01*
X0021900Y0070349D01*
X0015495Y0070349D01*
X0015495Y0066079D02*
X0021900Y0066079D01*
X0020832Y0063903D02*
X0015495Y0063903D01*
X0015495Y0059633D02*
X0020832Y0059633D01*
X0021900Y0060701D01*
X0021900Y0062836D01*
X0020832Y0063903D01*
X0025995Y0061768D02*
X0028130Y0059633D01*
X0030265Y0059633D01*
X0032400Y0061768D01*
D13*
X0052413Y0071563D02*
X0041390Y0087311D01*
X0041183Y0087601D01*
X0040984Y0087896D01*
X0040791Y0088196D01*
X0040606Y0088500D01*
X0040428Y0088809D01*
X0040258Y0089122D01*
X0040096Y0089439D01*
X0039941Y0089760D01*
X0039794Y0090085D01*
X0039655Y0090413D01*
X0039524Y0090744D01*
X0039401Y0091079D01*
X0039286Y0091416D01*
X0039180Y0091756D01*
X0039081Y0092099D01*
X0038992Y0092444D01*
X0038910Y0092790D01*
X0038837Y0093139D01*
X0038773Y0093490D01*
X0038716Y0093842D01*
X0038669Y0094195D01*
X0038630Y0094549D01*
X0038600Y0094904D01*
X0038578Y0095260D01*
X0038565Y0095616D01*
X0038561Y0095972D01*
X0038565Y0096328D01*
X0038578Y0096684D01*
X0038600Y0097040D01*
X0038630Y0097395D01*
X0038669Y0097749D01*
X0038716Y0098102D01*
X0038773Y0098454D01*
X0038837Y0098805D01*
X0038910Y0099154D01*
X0038992Y0099500D01*
X0039081Y0099845D01*
X0039180Y0100188D01*
X0039286Y0100528D01*
X0039401Y0100865D01*
X0039524Y0101200D01*
X0039655Y0101531D01*
X0039794Y0101859D01*
X0039941Y0102184D01*
X0040096Y0102505D01*
X0040258Y0102822D01*
X0040428Y0103135D01*
X0040606Y0103444D01*
X0040791Y0103748D01*
X0040984Y0104048D01*
X0041183Y0104343D01*
X0041390Y0104633D01*
X0041390Y0104634D02*
X0052413Y0120382D01*
X0060894Y0126846D02*
X0060894Y0127240D01*
X0060894Y0126846D02*
X0070343Y0126846D01*
X0070343Y0127240D01*
X0066587Y0120382D02*
X0077610Y0104634D01*
X0083900Y0107333D02*
X0094500Y0107333D01*
X0095300Y0107333D01*
X0095300Y0112533D01*
X0094500Y0112533D01*
X0083900Y0112533D01*
X0083900Y0107333D01*
X0094500Y0107333D02*
X0094500Y0112533D01*
X0100500Y0104933D02*
X0113500Y0104933D01*
X0113500Y0081933D01*
X0100500Y0081933D01*
X0100500Y0104933D01*
X0105687Y0106571D02*
X0105687Y0111295D01*
X0109230Y0108933D01*
X0105687Y0106571D01*
X0109230Y0106571D02*
X0109230Y0111295D01*
X0103086Y0100933D02*
X0103088Y0101008D01*
X0103094Y0101082D01*
X0103104Y0101156D01*
X0103117Y0101229D01*
X0103135Y0101302D01*
X0103156Y0101373D01*
X0103181Y0101444D01*
X0103210Y0101513D01*
X0103243Y0101580D01*
X0103279Y0101645D01*
X0103318Y0101709D01*
X0103360Y0101770D01*
X0103406Y0101829D01*
X0103455Y0101886D01*
X0103507Y0101939D01*
X0103561Y0101990D01*
X0103618Y0102039D01*
X0103678Y0102083D01*
X0103740Y0102125D01*
X0103804Y0102164D01*
X0103870Y0102199D01*
X0103937Y0102230D01*
X0104007Y0102258D01*
X0104077Y0102282D01*
X0104149Y0102303D01*
X0104222Y0102319D01*
X0104295Y0102332D01*
X0104370Y0102341D01*
X0104444Y0102346D01*
X0104519Y0102347D01*
X0104593Y0102344D01*
X0104668Y0102337D01*
X0104741Y0102326D01*
X0104815Y0102312D01*
X0104887Y0102293D01*
X0104958Y0102271D01*
X0105028Y0102245D01*
X0105097Y0102215D01*
X0105163Y0102182D01*
X0105228Y0102145D01*
X0105291Y0102105D01*
X0105352Y0102061D01*
X0105410Y0102015D01*
X0105466Y0101965D01*
X0105519Y0101913D01*
X0105570Y0101858D01*
X0105617Y0101800D01*
X0105661Y0101740D01*
X0105702Y0101677D01*
X0105740Y0101613D01*
X0105774Y0101547D01*
X0105805Y0101478D01*
X0105832Y0101409D01*
X0105855Y0101338D01*
X0105874Y0101266D01*
X0105890Y0101193D01*
X0105902Y0101119D01*
X0105910Y0101045D01*
X0105914Y0100970D01*
X0105914Y0100896D01*
X0105910Y0100821D01*
X0105902Y0100747D01*
X0105890Y0100673D01*
X0105874Y0100600D01*
X0105855Y0100528D01*
X0105832Y0100457D01*
X0105805Y0100388D01*
X0105774Y0100319D01*
X0105740Y0100253D01*
X0105702Y0100189D01*
X0105661Y0100126D01*
X0105617Y0100066D01*
X0105570Y0100008D01*
X0105519Y0099953D01*
X0105466Y0099901D01*
X0105410Y0099851D01*
X0105352Y0099805D01*
X0105291Y0099761D01*
X0105228Y0099721D01*
X0105163Y0099684D01*
X0105097Y0099651D01*
X0105028Y0099621D01*
X0104958Y0099595D01*
X0104887Y0099573D01*
X0104815Y0099554D01*
X0104741Y0099540D01*
X0104668Y0099529D01*
X0104593Y0099522D01*
X0104519Y0099519D01*
X0104444Y0099520D01*
X0104370Y0099525D01*
X0104295Y0099534D01*
X0104222Y0099547D01*
X0104149Y0099563D01*
X0104077Y0099584D01*
X0104007Y0099608D01*
X0103937Y0099636D01*
X0103870Y0099667D01*
X0103804Y0099702D01*
X0103740Y0099741D01*
X0103678Y0099783D01*
X0103618Y0099827D01*
X0103561Y0099876D01*
X0103507Y0099927D01*
X0103455Y0099980D01*
X0103406Y0100037D01*
X0103360Y0100096D01*
X0103318Y0100157D01*
X0103279Y0100221D01*
X0103243Y0100286D01*
X0103210Y0100353D01*
X0103181Y0100422D01*
X0103156Y0100493D01*
X0103135Y0100564D01*
X0103117Y0100637D01*
X0103104Y0100710D01*
X0103094Y0100784D01*
X0103088Y0100858D01*
X0103086Y0100933D01*
X0126020Y0095650D02*
X0126020Y0077933D01*
X0127594Y0077933D01*
X0129563Y0083051D02*
X0133500Y0089350D01*
X0137437Y0083051D01*
X0129563Y0083051D01*
X0129563Y0089350D02*
X0129563Y0090138D01*
X0137437Y0090138D01*
X0137437Y0090925D01*
X0139406Y0095650D02*
X0140980Y0095650D01*
X0140980Y0077933D01*
X0139406Y0077933D01*
X0142900Y0075033D02*
X0142900Y0085633D01*
X0142900Y0086433D01*
X0148100Y0086433D01*
X0148100Y0085633D01*
X0148100Y0075033D01*
X0142900Y0075033D01*
X0150957Y0078177D02*
X0150957Y0083689D01*
X0148100Y0085633D02*
X0142900Y0085633D01*
X0154720Y0090933D02*
X0146846Y0098807D01*
X0146846Y0132272D01*
X0162594Y0132272D01*
X0157700Y0143733D02*
X0157700Y0151733D01*
X0164400Y0154333D02*
X0164400Y0164933D01*
X0164400Y0165733D01*
X0169600Y0165733D01*
X0169600Y0164933D01*
X0169600Y0154333D01*
X0164400Y0154333D01*
X0164400Y0164933D02*
X0169600Y0164933D01*
X0175100Y0164933D02*
X0175100Y0165733D01*
X0180300Y0165733D01*
X0180300Y0164933D01*
X0180300Y0154333D01*
X0175100Y0154333D01*
X0175100Y0164933D01*
X0180300Y0164933D01*
X0185900Y0164933D02*
X0185900Y0165733D01*
X0191100Y0165733D01*
X0191100Y0164933D01*
X0191100Y0154333D01*
X0185900Y0154333D01*
X0185900Y0164933D01*
X0191100Y0164933D01*
X0208900Y0161233D02*
X0208900Y0160433D01*
X0208900Y0149833D01*
X0214100Y0149833D01*
X0214100Y0160433D01*
X0214100Y0161233D01*
X0208900Y0161233D01*
X0208900Y0160433D02*
X0214100Y0160433D01*
X0221000Y0160733D02*
X0221000Y0155533D01*
X0221800Y0155533D01*
X0232400Y0155533D01*
X0232400Y0160733D01*
X0221800Y0160733D01*
X0221000Y0160733D01*
X0221800Y0160733D02*
X0221800Y0155533D01*
X0214100Y0148033D02*
X0214100Y0137433D01*
X0214100Y0136633D01*
X0208900Y0136633D01*
X0208900Y0137433D01*
X0208900Y0148033D01*
X0214100Y0148033D01*
X0214100Y0137433D02*
X0208900Y0137433D01*
X0204500Y0133933D02*
X0204500Y0130933D01*
X0204500Y0133933D02*
X0217000Y0133933D01*
X0217000Y0130933D01*
X0217000Y0122433D02*
X0217000Y0103433D01*
X0218600Y0107633D02*
X0218600Y0118233D01*
X0218600Y0119033D01*
X0223800Y0119033D01*
X0223800Y0118233D01*
X0223800Y0107633D01*
X0218600Y0107633D01*
X0218600Y0118233D02*
X0223800Y0118233D01*
X0229917Y0118776D02*
X0229917Y0134524D01*
X0247634Y0134524D01*
X0253539Y0140429D01*
X0255508Y0142398D01*
X0253539Y0140429D02*
X0316531Y0140429D01*
X0314563Y0142398D01*
X0307500Y0159933D02*
X0332500Y0159933D01*
X0332500Y0229933D01*
X0307500Y0229933D01*
X0307500Y0159933D01*
X0332770Y0180571D02*
X0332770Y0185295D01*
X0332770Y0182933D02*
X0336313Y0185295D01*
X0336313Y0180571D01*
X0332770Y0182933D01*
X0305900Y0212333D02*
X0305900Y0213133D01*
X0305900Y0223733D01*
X0300700Y0223733D01*
X0300700Y0213133D01*
X0300700Y0212333D01*
X0305900Y0212333D01*
X0305900Y0213133D02*
X0300700Y0213133D01*
X0298900Y0213133D02*
X0298900Y0212333D01*
X0293700Y0212333D01*
X0293700Y0213133D01*
X0293700Y0223733D01*
X0298900Y0223733D01*
X0298900Y0213133D01*
X0293700Y0213133D01*
X0266600Y0212333D02*
X0256000Y0212333D01*
X0255200Y0212333D01*
X0255200Y0217533D01*
X0256000Y0217533D01*
X0266600Y0217533D01*
X0266600Y0212333D01*
X0256000Y0212333D02*
X0256000Y0217533D01*
X0256000Y0196033D02*
X0255200Y0196033D01*
X0255200Y0190833D01*
X0256000Y0190833D01*
X0266600Y0190833D01*
X0266600Y0196033D01*
X0256000Y0196033D01*
X0256000Y0190833D01*
X0244800Y0177933D02*
X0244800Y0174633D01*
X0241500Y0174633D01*
X0243500Y0175933D02*
X0135500Y0175933D01*
X0135500Y0283933D01*
X0243500Y0283933D01*
X0243500Y0175933D01*
X0245800Y0160733D02*
X0235200Y0160733D01*
X0235200Y0155533D01*
X0245800Y0155533D01*
X0246600Y0155533D01*
X0246600Y0160733D01*
X0245800Y0160733D01*
X0245800Y0155533D01*
X0311017Y0145561D02*
X0311754Y0144961D01*
X0312478Y0144344D01*
X0313188Y0143711D01*
X0313882Y0143062D01*
X0314562Y0142397D01*
X0318500Y0138461D02*
X0319141Y0137696D01*
X0319763Y0136916D01*
X0320366Y0136122D01*
X0320950Y0135313D01*
X0321513Y0134490D01*
X0322057Y0133654D01*
X0322580Y0132804D01*
X0323083Y0131943D01*
X0323564Y0131069D01*
X0324024Y0130184D01*
X0324462Y0129288D01*
X0324879Y0128382D01*
X0325274Y0127466D01*
X0325646Y0126540D01*
X0325995Y0125606D01*
X0326322Y0124664D01*
X0326626Y0123714D01*
X0326907Y0122757D01*
X0327165Y0121793D01*
X0327399Y0120823D01*
X0327609Y0119848D01*
X0327796Y0118869D01*
X0327959Y0117884D01*
X0328098Y0116897D01*
X0328213Y0115906D01*
X0328304Y0114913D01*
X0328371Y0113917D01*
X0328414Y0112921D01*
X0328432Y0111924D01*
X0328427Y0110926D01*
X0328397Y0109929D01*
X0328343Y0108933D01*
X0318500Y0079406D02*
X0316531Y0077437D01*
X0314563Y0075469D01*
X0316531Y0077437D02*
X0253539Y0077437D01*
X0255508Y0075469D01*
X0253539Y0077437D02*
X0247634Y0083343D01*
X0229917Y0083343D01*
X0229917Y0099091D01*
X0217000Y0095433D02*
X0217000Y0092433D01*
X0204500Y0092433D01*
X0204500Y0095433D01*
X0204500Y0103433D02*
X0204500Y0122433D01*
X0202100Y0118533D02*
X0202100Y0117733D01*
X0202100Y0107133D01*
X0196900Y0107133D01*
X0196900Y0117733D01*
X0196900Y0118533D01*
X0202100Y0118533D01*
X0202100Y0117733D02*
X0196900Y0117733D01*
X0190154Y0132272D02*
X0190154Y0098807D01*
X0182280Y0090933D01*
X0174406Y0090933D01*
X0162594Y0090933D02*
X0154720Y0090933D01*
X0158043Y0083689D02*
X0158043Y0078177D01*
X0127594Y0095650D02*
X0126020Y0095650D01*
X0110839Y0075587D02*
X0110839Y0059839D01*
X0110839Y0048028D02*
X0110839Y0032280D01*
X0077374Y0032280D01*
X0069500Y0040154D01*
X0069500Y0048028D01*
X0069500Y0059839D02*
X0069500Y0067713D01*
X0077374Y0075587D01*
X0110839Y0075587D01*
X0077610Y0087311D02*
X0066587Y0071563D01*
X0077610Y0087311D02*
X0077817Y0087601D01*
X0078016Y0087896D01*
X0078209Y0088196D01*
X0078394Y0088500D01*
X0078572Y0088809D01*
X0078742Y0089122D01*
X0078904Y0089439D01*
X0079059Y0089760D01*
X0079206Y0090085D01*
X0079345Y0090413D01*
X0079476Y0090744D01*
X0079599Y0091079D01*
X0079714Y0091416D01*
X0079820Y0091756D01*
X0079919Y0092099D01*
X0080008Y0092444D01*
X0080090Y0092790D01*
X0080163Y0093139D01*
X0080227Y0093490D01*
X0080284Y0093842D01*
X0080331Y0094195D01*
X0080370Y0094549D01*
X0080400Y0094904D01*
X0080422Y0095260D01*
X0080435Y0095616D01*
X0080439Y0095972D01*
X0080435Y0096328D01*
X0080422Y0096684D01*
X0080400Y0097040D01*
X0080370Y0097395D01*
X0080331Y0097749D01*
X0080284Y0098102D01*
X0080227Y0098454D01*
X0080163Y0098805D01*
X0080090Y0099154D01*
X0080008Y0099500D01*
X0079919Y0099845D01*
X0079820Y0100188D01*
X0079714Y0100528D01*
X0079599Y0100865D01*
X0079476Y0101200D01*
X0079345Y0101531D01*
X0079206Y0101859D01*
X0079059Y0102184D01*
X0078904Y0102505D01*
X0078742Y0102822D01*
X0078572Y0103135D01*
X0078394Y0103444D01*
X0078209Y0103748D01*
X0078016Y0104048D01*
X0077817Y0104343D01*
X0077610Y0104633D01*
X0070343Y0132752D02*
X0070343Y0135114D01*
X0070343Y0140626D02*
X0070343Y0141020D01*
X0060894Y0141020D01*
X0060894Y0140626D01*
X0059900Y0142833D02*
X0070500Y0142833D01*
X0071300Y0142833D01*
X0071300Y0148033D01*
X0070500Y0148033D01*
X0059900Y0148033D01*
X0059900Y0142833D01*
X0070500Y0142833D02*
X0070500Y0148033D01*
X0079200Y0176133D02*
X0038900Y0176133D01*
X0038900Y0262933D01*
X0079200Y0262933D01*
X0079200Y0176133D01*
X0069900Y0182333D02*
X0069902Y0182444D01*
X0069908Y0182555D01*
X0069918Y0182666D01*
X0069932Y0182777D01*
X0069950Y0182887D01*
X0069972Y0182996D01*
X0069997Y0183104D01*
X0070027Y0183211D01*
X0070060Y0183317D01*
X0070098Y0183422D01*
X0070139Y0183526D01*
X0070183Y0183628D01*
X0070232Y0183728D01*
X0070283Y0183826D01*
X0070339Y0183923D01*
X0070398Y0184017D01*
X0070460Y0184110D01*
X0070525Y0184200D01*
X0070594Y0184287D01*
X0070665Y0184373D01*
X0070740Y0184455D01*
X0070818Y0184535D01*
X0070898Y0184612D01*
X0070981Y0184686D01*
X0071067Y0184757D01*
X0071155Y0184824D01*
X0071246Y0184889D01*
X0071339Y0184950D01*
X0071434Y0185008D01*
X0071531Y0185063D01*
X0071630Y0185114D01*
X0071731Y0185161D01*
X0071833Y0185205D01*
X0071937Y0185245D01*
X0072042Y0185281D01*
X0072148Y0185314D01*
X0072256Y0185342D01*
X0072365Y0185367D01*
X0072474Y0185388D01*
X0072584Y0185405D01*
X0072694Y0185418D01*
X0072805Y0185427D01*
X0072917Y0185432D01*
X0073028Y0185433D01*
X0073139Y0185430D01*
X0073250Y0185423D01*
X0073361Y0185412D01*
X0073471Y0185397D01*
X0073581Y0185378D01*
X0073690Y0185355D01*
X0073798Y0185329D01*
X0073905Y0185298D01*
X0074011Y0185264D01*
X0074115Y0185225D01*
X0074218Y0185184D01*
X0074320Y0185138D01*
X0074420Y0185089D01*
X0074518Y0185036D01*
X0074614Y0184980D01*
X0074708Y0184920D01*
X0074800Y0184857D01*
X0074889Y0184791D01*
X0074976Y0184722D01*
X0075060Y0184649D01*
X0075142Y0184574D01*
X0075221Y0184495D01*
X0075298Y0184414D01*
X0075371Y0184330D01*
X0075441Y0184244D01*
X0075508Y0184155D01*
X0075572Y0184064D01*
X0075632Y0183971D01*
X0075689Y0183875D01*
X0075743Y0183777D01*
X0075793Y0183678D01*
X0075839Y0183577D01*
X0075882Y0183474D01*
X0075921Y0183370D01*
X0075957Y0183264D01*
X0075988Y0183158D01*
X0076016Y0183050D01*
X0076040Y0182941D01*
X0076060Y0182832D01*
X0076076Y0182722D01*
X0076088Y0182611D01*
X0076096Y0182500D01*
X0076100Y0182389D01*
X0076100Y0182277D01*
X0076096Y0182166D01*
X0076088Y0182055D01*
X0076076Y0181944D01*
X0076060Y0181834D01*
X0076040Y0181725D01*
X0076016Y0181616D01*
X0075988Y0181508D01*
X0075957Y0181402D01*
X0075921Y0181296D01*
X0075882Y0181192D01*
X0075839Y0181089D01*
X0075793Y0180988D01*
X0075743Y0180889D01*
X0075689Y0180791D01*
X0075632Y0180695D01*
X0075572Y0180602D01*
X0075508Y0180511D01*
X0075441Y0180422D01*
X0075371Y0180336D01*
X0075298Y0180252D01*
X0075221Y0180171D01*
X0075142Y0180092D01*
X0075060Y0180017D01*
X0074976Y0179944D01*
X0074889Y0179875D01*
X0074800Y0179809D01*
X0074708Y0179746D01*
X0074614Y0179686D01*
X0074518Y0179630D01*
X0074420Y0179577D01*
X0074320Y0179528D01*
X0074218Y0179482D01*
X0074115Y0179441D01*
X0074011Y0179402D01*
X0073905Y0179368D01*
X0073798Y0179337D01*
X0073690Y0179311D01*
X0073581Y0179288D01*
X0073471Y0179269D01*
X0073361Y0179254D01*
X0073250Y0179243D01*
X0073139Y0179236D01*
X0073028Y0179233D01*
X0072917Y0179234D01*
X0072805Y0179239D01*
X0072694Y0179248D01*
X0072584Y0179261D01*
X0072474Y0179278D01*
X0072365Y0179299D01*
X0072256Y0179324D01*
X0072148Y0179352D01*
X0072042Y0179385D01*
X0071937Y0179421D01*
X0071833Y0179461D01*
X0071731Y0179505D01*
X0071630Y0179552D01*
X0071531Y0179603D01*
X0071434Y0179658D01*
X0071339Y0179716D01*
X0071246Y0179777D01*
X0071155Y0179842D01*
X0071067Y0179909D01*
X0070981Y0179980D01*
X0070898Y0180054D01*
X0070818Y0180131D01*
X0070740Y0180211D01*
X0070665Y0180293D01*
X0070594Y0180379D01*
X0070525Y0180466D01*
X0070460Y0180556D01*
X0070398Y0180649D01*
X0070339Y0180743D01*
X0070283Y0180840D01*
X0070232Y0180938D01*
X0070183Y0181038D01*
X0070139Y0181140D01*
X0070098Y0181244D01*
X0070060Y0181349D01*
X0070027Y0181455D01*
X0069997Y0181562D01*
X0069972Y0181670D01*
X0069950Y0181779D01*
X0069932Y0181889D01*
X0069918Y0182000D01*
X0069908Y0182111D01*
X0069902Y0182222D01*
X0069900Y0182333D01*
X0113400Y0196833D02*
X0124000Y0196833D01*
X0124800Y0196833D01*
X0124800Y0202033D01*
X0124000Y0202033D01*
X0113400Y0202033D01*
X0113400Y0196833D01*
X0124000Y0196833D02*
X0124000Y0202033D01*
X0142086Y0183933D02*
X0142088Y0184008D01*
X0142094Y0184082D01*
X0142104Y0184156D01*
X0142117Y0184229D01*
X0142135Y0184302D01*
X0142156Y0184373D01*
X0142181Y0184444D01*
X0142210Y0184513D01*
X0142243Y0184580D01*
X0142279Y0184645D01*
X0142318Y0184709D01*
X0142360Y0184770D01*
X0142406Y0184829D01*
X0142455Y0184886D01*
X0142507Y0184939D01*
X0142561Y0184990D01*
X0142618Y0185039D01*
X0142678Y0185083D01*
X0142740Y0185125D01*
X0142804Y0185164D01*
X0142870Y0185199D01*
X0142937Y0185230D01*
X0143007Y0185258D01*
X0143077Y0185282D01*
X0143149Y0185303D01*
X0143222Y0185319D01*
X0143295Y0185332D01*
X0143370Y0185341D01*
X0143444Y0185346D01*
X0143519Y0185347D01*
X0143593Y0185344D01*
X0143668Y0185337D01*
X0143741Y0185326D01*
X0143815Y0185312D01*
X0143887Y0185293D01*
X0143958Y0185271D01*
X0144028Y0185245D01*
X0144097Y0185215D01*
X0144163Y0185182D01*
X0144228Y0185145D01*
X0144291Y0185105D01*
X0144352Y0185061D01*
X0144410Y0185015D01*
X0144466Y0184965D01*
X0144519Y0184913D01*
X0144570Y0184858D01*
X0144617Y0184800D01*
X0144661Y0184740D01*
X0144702Y0184677D01*
X0144740Y0184613D01*
X0144774Y0184547D01*
X0144805Y0184478D01*
X0144832Y0184409D01*
X0144855Y0184338D01*
X0144874Y0184266D01*
X0144890Y0184193D01*
X0144902Y0184119D01*
X0144910Y0184045D01*
X0144914Y0183970D01*
X0144914Y0183896D01*
X0144910Y0183821D01*
X0144902Y0183747D01*
X0144890Y0183673D01*
X0144874Y0183600D01*
X0144855Y0183528D01*
X0144832Y0183457D01*
X0144805Y0183388D01*
X0144774Y0183319D01*
X0144740Y0183253D01*
X0144702Y0183189D01*
X0144661Y0183126D01*
X0144617Y0183066D01*
X0144570Y0183008D01*
X0144519Y0182953D01*
X0144466Y0182901D01*
X0144410Y0182851D01*
X0144352Y0182805D01*
X0144291Y0182761D01*
X0144228Y0182721D01*
X0144163Y0182684D01*
X0144097Y0182651D01*
X0144028Y0182621D01*
X0143958Y0182595D01*
X0143887Y0182573D01*
X0143815Y0182554D01*
X0143741Y0182540D01*
X0143668Y0182529D01*
X0143593Y0182522D01*
X0143519Y0182519D01*
X0143444Y0182520D01*
X0143370Y0182525D01*
X0143295Y0182534D01*
X0143222Y0182547D01*
X0143149Y0182563D01*
X0143077Y0182584D01*
X0143007Y0182608D01*
X0142937Y0182636D01*
X0142870Y0182667D01*
X0142804Y0182702D01*
X0142740Y0182741D01*
X0142678Y0182783D01*
X0142618Y0182827D01*
X0142561Y0182876D01*
X0142507Y0182927D01*
X0142455Y0182980D01*
X0142406Y0183037D01*
X0142360Y0183096D01*
X0142318Y0183157D01*
X0142279Y0183221D01*
X0142243Y0183286D01*
X0142210Y0183353D01*
X0142181Y0183422D01*
X0142156Y0183493D01*
X0142135Y0183564D01*
X0142117Y0183637D01*
X0142104Y0183710D01*
X0142094Y0183784D01*
X0142088Y0183858D01*
X0142086Y0183933D01*
X0134200Y0177933D02*
X0134200Y0174633D01*
X0137500Y0174633D01*
X0130500Y0154133D02*
X0119900Y0154133D01*
X0119100Y0154133D01*
X0119100Y0148933D01*
X0119900Y0148933D01*
X0130500Y0148933D01*
X0130500Y0154133D01*
X0133700Y0151733D02*
X0133700Y0143733D01*
X0130400Y0142133D02*
X0119800Y0142133D01*
X0119000Y0142133D01*
X0119000Y0147333D01*
X0119800Y0147333D01*
X0130400Y0147333D01*
X0130400Y0142133D01*
X0130400Y0140533D02*
X0119800Y0140533D01*
X0119000Y0140533D01*
X0119000Y0135333D01*
X0119800Y0135333D01*
X0130400Y0135333D01*
X0130400Y0140533D01*
X0132700Y0132633D02*
X0127500Y0132633D01*
X0127500Y0122033D01*
X0127500Y0121233D01*
X0132700Y0121233D01*
X0132700Y0122033D01*
X0132700Y0132633D01*
X0134500Y0132633D02*
X0134500Y0122033D01*
X0134500Y0121233D01*
X0139700Y0121233D01*
X0139700Y0122033D01*
X0139700Y0132633D01*
X0134500Y0132633D01*
X0134500Y0122033D02*
X0139700Y0122033D01*
X0132700Y0122033D02*
X0127500Y0122033D01*
X0119800Y0135333D02*
X0119800Y0140533D01*
X0119800Y0142133D02*
X0119800Y0147333D01*
X0119900Y0148933D02*
X0119900Y0154133D01*
X0162900Y0204833D02*
X0167838Y0204833D01*
X0170450Y0204833D02*
X0170450Y0212239D01*
X0174154Y0212239D01*
X0175388Y0211005D01*
X0175388Y0208536D01*
X0174154Y0207302D01*
X0170450Y0207302D01*
X0178001Y0206067D02*
X0179235Y0204833D01*
X0181704Y0204833D01*
X0182938Y0206067D01*
X0185551Y0204833D02*
X0190489Y0204833D01*
X0188020Y0204833D02*
X0188020Y0212239D01*
X0185551Y0209771D01*
X0182938Y0211005D02*
X0181704Y0212239D01*
X0179235Y0212239D01*
X0178001Y0211005D01*
X0178001Y0206067D01*
X0193102Y0206067D02*
X0193102Y0204833D01*
X0193102Y0206067D02*
X0198039Y0211005D01*
X0198039Y0212239D01*
X0193102Y0212239D01*
X0200652Y0211005D02*
X0200652Y0209771D01*
X0201887Y0208536D01*
X0204355Y0208536D01*
X0205590Y0207302D01*
X0205590Y0206067D01*
X0204355Y0204833D01*
X0201887Y0204833D01*
X0200652Y0206067D01*
X0200652Y0207302D01*
X0201887Y0208536D01*
X0204355Y0208536D02*
X0205590Y0209771D01*
X0205590Y0211005D01*
X0204355Y0212239D01*
X0201887Y0212239D01*
X0200652Y0211005D01*
X0208203Y0212239D02*
X0208203Y0208536D01*
X0210671Y0209771D01*
X0211906Y0209771D01*
X0213140Y0208536D01*
X0213140Y0206067D01*
X0211906Y0204833D01*
X0209437Y0204833D01*
X0208203Y0206067D01*
X0208203Y0212239D02*
X0213140Y0212239D01*
X0251600Y0248333D02*
X0251600Y0253533D01*
X0252400Y0253533D01*
X0263000Y0253533D01*
X0263000Y0248333D01*
X0252400Y0248333D01*
X0251600Y0248333D01*
X0252400Y0248333D02*
X0252400Y0253533D01*
X0252800Y0247033D02*
X0253600Y0247033D01*
X0264200Y0247033D01*
X0264200Y0241833D01*
X0253600Y0241833D01*
X0252800Y0241833D01*
X0252800Y0247033D01*
X0253600Y0247033D02*
X0253600Y0241833D01*
X0244800Y0281933D02*
X0244800Y0285233D01*
X0241500Y0285233D01*
X0237100Y0296233D02*
X0226500Y0296233D01*
X0225700Y0296233D01*
X0225700Y0301433D01*
X0226500Y0301433D01*
X0237100Y0301433D01*
X0237100Y0296233D01*
X0226500Y0296233D02*
X0226500Y0301433D01*
X0223000Y0301333D02*
X0222200Y0301333D01*
X0211600Y0301333D01*
X0211600Y0296133D01*
X0222200Y0296133D01*
X0223000Y0296133D01*
X0223000Y0301333D01*
X0222200Y0301333D02*
X0222200Y0296133D01*
X0230700Y0304433D02*
X0230700Y0305233D01*
X0230700Y0315833D01*
X0235900Y0315833D01*
X0235900Y0305233D01*
X0235900Y0304433D01*
X0230700Y0304433D01*
X0230700Y0305233D02*
X0235900Y0305233D01*
X0228300Y0310633D02*
X0228300Y0323633D01*
X0205300Y0323633D01*
X0205300Y0310633D01*
X0228300Y0310633D01*
X0230700Y0319433D02*
X0230700Y0320233D01*
X0230700Y0330833D01*
X0235900Y0330833D01*
X0235900Y0320233D01*
X0235900Y0319433D01*
X0230700Y0319433D01*
X0230700Y0320233D02*
X0235900Y0320233D01*
X0222886Y0319633D02*
X0222888Y0319708D01*
X0222894Y0319782D01*
X0222904Y0319856D01*
X0222917Y0319929D01*
X0222935Y0320002D01*
X0222956Y0320073D01*
X0222981Y0320144D01*
X0223010Y0320213D01*
X0223043Y0320280D01*
X0223079Y0320345D01*
X0223118Y0320409D01*
X0223160Y0320470D01*
X0223206Y0320529D01*
X0223255Y0320586D01*
X0223307Y0320639D01*
X0223361Y0320690D01*
X0223418Y0320739D01*
X0223478Y0320783D01*
X0223540Y0320825D01*
X0223604Y0320864D01*
X0223670Y0320899D01*
X0223737Y0320930D01*
X0223807Y0320958D01*
X0223877Y0320982D01*
X0223949Y0321003D01*
X0224022Y0321019D01*
X0224095Y0321032D01*
X0224170Y0321041D01*
X0224244Y0321046D01*
X0224319Y0321047D01*
X0224393Y0321044D01*
X0224468Y0321037D01*
X0224541Y0321026D01*
X0224615Y0321012D01*
X0224687Y0320993D01*
X0224758Y0320971D01*
X0224828Y0320945D01*
X0224897Y0320915D01*
X0224963Y0320882D01*
X0225028Y0320845D01*
X0225091Y0320805D01*
X0225152Y0320761D01*
X0225210Y0320715D01*
X0225266Y0320665D01*
X0225319Y0320613D01*
X0225370Y0320558D01*
X0225417Y0320500D01*
X0225461Y0320440D01*
X0225502Y0320377D01*
X0225540Y0320313D01*
X0225574Y0320247D01*
X0225605Y0320178D01*
X0225632Y0320109D01*
X0225655Y0320038D01*
X0225674Y0319966D01*
X0225690Y0319893D01*
X0225702Y0319819D01*
X0225710Y0319745D01*
X0225714Y0319670D01*
X0225714Y0319596D01*
X0225710Y0319521D01*
X0225702Y0319447D01*
X0225690Y0319373D01*
X0225674Y0319300D01*
X0225655Y0319228D01*
X0225632Y0319157D01*
X0225605Y0319088D01*
X0225574Y0319019D01*
X0225540Y0318953D01*
X0225502Y0318889D01*
X0225461Y0318826D01*
X0225417Y0318766D01*
X0225370Y0318708D01*
X0225319Y0318653D01*
X0225266Y0318601D01*
X0225210Y0318551D01*
X0225152Y0318505D01*
X0225091Y0318461D01*
X0225028Y0318421D01*
X0224963Y0318384D01*
X0224897Y0318351D01*
X0224828Y0318321D01*
X0224758Y0318295D01*
X0224687Y0318273D01*
X0224615Y0318254D01*
X0224541Y0318240D01*
X0224468Y0318229D01*
X0224393Y0318222D01*
X0224319Y0318219D01*
X0224244Y0318220D01*
X0224170Y0318225D01*
X0224095Y0318234D01*
X0224022Y0318247D01*
X0223949Y0318263D01*
X0223877Y0318284D01*
X0223807Y0318308D01*
X0223737Y0318336D01*
X0223670Y0318367D01*
X0223604Y0318402D01*
X0223540Y0318441D01*
X0223478Y0318483D01*
X0223418Y0318527D01*
X0223361Y0318576D01*
X0223307Y0318627D01*
X0223255Y0318680D01*
X0223206Y0318737D01*
X0223160Y0318796D01*
X0223118Y0318857D01*
X0223079Y0318921D01*
X0223043Y0318986D01*
X0223010Y0319053D01*
X0222981Y0319122D01*
X0222956Y0319193D01*
X0222935Y0319264D01*
X0222917Y0319337D01*
X0222904Y0319410D01*
X0222894Y0319484D01*
X0222888Y0319558D01*
X0222886Y0319633D01*
X0203100Y0306533D02*
X0203100Y0295933D01*
X0203100Y0295133D01*
X0197900Y0295133D01*
X0197900Y0295933D01*
X0197900Y0306533D01*
X0203100Y0306533D01*
X0203100Y0295933D02*
X0197900Y0295933D01*
X0161600Y0296733D02*
X0161600Y0297533D01*
X0161600Y0308133D01*
X0156400Y0308133D01*
X0156400Y0297533D01*
X0156400Y0296733D01*
X0161600Y0296733D01*
X0161600Y0297533D02*
X0156400Y0297533D01*
X0137500Y0285233D02*
X0134200Y0285233D01*
X0134200Y0281933D01*
X0120400Y0271433D02*
X0120400Y0266233D01*
X0119600Y0266233D01*
X0109000Y0266233D01*
X0109000Y0271433D01*
X0119600Y0271433D01*
X0120400Y0271433D01*
X0119600Y0271433D02*
X0119600Y0266233D01*
X0124400Y0249333D02*
X0113800Y0249333D01*
X0113800Y0244133D01*
X0124400Y0244133D01*
X0125200Y0244133D01*
X0125200Y0249333D01*
X0124400Y0249333D01*
X0124400Y0244133D01*
X0124000Y0235533D02*
X0124800Y0235533D01*
X0124800Y0230333D01*
X0124000Y0230333D01*
X0113400Y0230333D01*
X0113400Y0235533D01*
X0124000Y0235533D01*
X0124000Y0230333D01*
X0162900Y0212239D02*
X0162900Y0204833D01*
X0174406Y0132272D02*
X0190154Y0132272D01*
X0316531Y0140429D02*
X0317524Y0139453D01*
X0318500Y0138460D01*
X0328343Y0108933D02*
X0328411Y0107966D01*
X0328456Y0106997D01*
X0328477Y0106028D01*
X0328475Y0105059D01*
X0328448Y0104090D01*
X0328398Y0103122D01*
X0328324Y0102155D01*
X0328226Y0101191D01*
X0328105Y0100229D01*
X0327960Y0099270D01*
X0327792Y0098315D01*
X0327600Y0097365D01*
X0327385Y0096420D01*
X0327147Y0095480D01*
X0326886Y0094547D01*
X0326602Y0093620D01*
X0326296Y0092700D01*
X0325966Y0091788D01*
X0325615Y0090884D01*
X0325242Y0089990D01*
X0324847Y0089105D01*
X0324430Y0088229D01*
X0323992Y0087365D01*
X0323532Y0086511D01*
X0323052Y0085669D01*
X0322552Y0084838D01*
X0322031Y0084021D01*
X0321490Y0083216D01*
X0320930Y0082425D01*
X0320350Y0081648D01*
X0319752Y0080885D01*
X0319135Y0080137D01*
X0318500Y0079405D01*
X0300101Y0066051D02*
X0299211Y0065718D01*
X0298313Y0065405D01*
X0297408Y0065113D01*
X0296497Y0064842D01*
X0295579Y0064591D01*
X0259053Y0072305D02*
X0258316Y0072905D01*
X0257592Y0073522D01*
X0256882Y0074155D01*
X0256188Y0074804D01*
X0255508Y0075469D01*
X0269969Y0066051D02*
X0270859Y0065718D01*
X0271757Y0065405D01*
X0272662Y0065113D01*
X0273573Y0064842D01*
X0274491Y0064591D01*
X0311017Y0072305D02*
X0311754Y0072905D01*
X0312478Y0073522D01*
X0313188Y0074155D01*
X0313882Y0074804D01*
X0314562Y0075469D01*
X0283067Y0063284D02*
X0282118Y0063340D01*
X0281170Y0063417D01*
X0280225Y0063516D01*
X0279281Y0063636D01*
X0278341Y0063778D01*
X0287003Y0063284D02*
X0287952Y0063340D01*
X0288900Y0063417D01*
X0289845Y0063516D01*
X0290789Y0063636D01*
X0291729Y0063778D01*
X0303702Y0067642D02*
X0304547Y0068077D01*
X0305383Y0068531D01*
X0306208Y0069003D01*
X0307022Y0069495D01*
X0307825Y0070004D01*
X0266369Y0067642D02*
X0265524Y0068077D01*
X0264688Y0068531D01*
X0263863Y0069003D01*
X0263049Y0069495D01*
X0262246Y0070004D01*
X0262246Y0147862D02*
X0263049Y0148371D01*
X0263863Y0148863D01*
X0264688Y0149335D01*
X0265524Y0149789D01*
X0266369Y0150224D01*
X0269969Y0151815D02*
X0270859Y0152148D01*
X0271757Y0152461D01*
X0272662Y0152753D01*
X0273573Y0153024D01*
X0274491Y0153275D01*
X0295579Y0153275D02*
X0296497Y0153024D01*
X0297408Y0152753D01*
X0298313Y0152461D01*
X0299211Y0152148D01*
X0300101Y0151815D01*
X0259053Y0145561D02*
X0258316Y0144961D01*
X0257592Y0144344D01*
X0256882Y0143711D01*
X0256188Y0143062D01*
X0255508Y0142397D01*
X0287003Y0154582D02*
X0287952Y0154526D01*
X0288900Y0154449D01*
X0289845Y0154350D01*
X0290789Y0154230D01*
X0291729Y0154088D01*
X0283067Y0154582D02*
X0282118Y0154526D01*
X0281170Y0154449D01*
X0280225Y0154350D01*
X0279281Y0154230D01*
X0278341Y0154088D01*
X0303702Y0150224D02*
X0304547Y0149789D01*
X0305383Y0149335D01*
X0306208Y0148863D01*
X0307022Y0148371D01*
X0307825Y0147862D01*
X0305900Y0249933D02*
X0305900Y0272933D01*
X0318900Y0272933D01*
X0318900Y0249933D01*
X0305900Y0249933D01*
X0308486Y0268933D02*
X0308488Y0269008D01*
X0308494Y0269082D01*
X0308504Y0269156D01*
X0308517Y0269229D01*
X0308535Y0269302D01*
X0308556Y0269373D01*
X0308581Y0269444D01*
X0308610Y0269513D01*
X0308643Y0269580D01*
X0308679Y0269645D01*
X0308718Y0269709D01*
X0308760Y0269770D01*
X0308806Y0269829D01*
X0308855Y0269886D01*
X0308907Y0269939D01*
X0308961Y0269990D01*
X0309018Y0270039D01*
X0309078Y0270083D01*
X0309140Y0270125D01*
X0309204Y0270164D01*
X0309270Y0270199D01*
X0309337Y0270230D01*
X0309407Y0270258D01*
X0309477Y0270282D01*
X0309549Y0270303D01*
X0309622Y0270319D01*
X0309695Y0270332D01*
X0309770Y0270341D01*
X0309844Y0270346D01*
X0309919Y0270347D01*
X0309993Y0270344D01*
X0310068Y0270337D01*
X0310141Y0270326D01*
X0310215Y0270312D01*
X0310287Y0270293D01*
X0310358Y0270271D01*
X0310428Y0270245D01*
X0310497Y0270215D01*
X0310563Y0270182D01*
X0310628Y0270145D01*
X0310691Y0270105D01*
X0310752Y0270061D01*
X0310810Y0270015D01*
X0310866Y0269965D01*
X0310919Y0269913D01*
X0310970Y0269858D01*
X0311017Y0269800D01*
X0311061Y0269740D01*
X0311102Y0269677D01*
X0311140Y0269613D01*
X0311174Y0269547D01*
X0311205Y0269478D01*
X0311232Y0269409D01*
X0311255Y0269338D01*
X0311274Y0269266D01*
X0311290Y0269193D01*
X0311302Y0269119D01*
X0311310Y0269045D01*
X0311314Y0268970D01*
X0311314Y0268896D01*
X0311310Y0268821D01*
X0311302Y0268747D01*
X0311290Y0268673D01*
X0311274Y0268600D01*
X0311255Y0268528D01*
X0311232Y0268457D01*
X0311205Y0268388D01*
X0311174Y0268319D01*
X0311140Y0268253D01*
X0311102Y0268189D01*
X0311061Y0268126D01*
X0311017Y0268066D01*
X0310970Y0268008D01*
X0310919Y0267953D01*
X0310866Y0267901D01*
X0310810Y0267851D01*
X0310752Y0267805D01*
X0310691Y0267761D01*
X0310628Y0267721D01*
X0310563Y0267684D01*
X0310497Y0267651D01*
X0310428Y0267621D01*
X0310358Y0267595D01*
X0310287Y0267573D01*
X0310215Y0267554D01*
X0310141Y0267540D01*
X0310068Y0267529D01*
X0309993Y0267522D01*
X0309919Y0267519D01*
X0309844Y0267520D01*
X0309770Y0267525D01*
X0309695Y0267534D01*
X0309622Y0267547D01*
X0309549Y0267563D01*
X0309477Y0267584D01*
X0309407Y0267608D01*
X0309337Y0267636D01*
X0309270Y0267667D01*
X0309204Y0267702D01*
X0309140Y0267741D01*
X0309078Y0267783D01*
X0309018Y0267827D01*
X0308961Y0267876D01*
X0308907Y0267927D01*
X0308855Y0267980D01*
X0308806Y0268037D01*
X0308760Y0268096D01*
X0308718Y0268157D01*
X0308679Y0268221D01*
X0308643Y0268286D01*
X0308610Y0268353D01*
X0308581Y0268422D01*
X0308556Y0268493D01*
X0308535Y0268564D01*
X0308517Y0268637D01*
X0308504Y0268710D01*
X0308494Y0268784D01*
X0308488Y0268858D01*
X0308486Y0268933D01*
X0310500Y0274533D02*
X0321100Y0274533D01*
X0321900Y0274533D01*
X0321900Y0279733D01*
X0321100Y0279733D01*
X0310500Y0279733D01*
X0310500Y0274533D01*
X0310500Y0281533D02*
X0321100Y0281533D01*
X0321900Y0281533D01*
X0321900Y0286733D01*
X0321100Y0286733D01*
X0310500Y0286733D01*
X0310500Y0281533D01*
X0321100Y0281533D02*
X0321100Y0286733D01*
X0321100Y0279733D02*
X0321100Y0274533D01*
X0316300Y0298433D02*
X0311100Y0298433D01*
X0311100Y0309033D01*
X0311100Y0309833D01*
X0316300Y0309833D01*
X0316300Y0309033D01*
X0316300Y0298433D01*
X0316300Y0309033D02*
X0311100Y0309033D01*
X0307826Y0316665D02*
X0321212Y0316665D01*
X0322590Y0318043D01*
X0322590Y0331429D01*
X0321212Y0332807D01*
X0307826Y0332807D01*
X0306645Y0331626D01*
X0306645Y0317846D01*
X0307826Y0316665D01*
X0298300Y0328233D02*
X0298300Y0329033D01*
X0298300Y0339633D01*
X0293100Y0339633D01*
X0293100Y0329033D01*
X0293100Y0328233D01*
X0298300Y0328233D01*
X0298300Y0329033D02*
X0293100Y0329033D01*
X0291900Y0329033D02*
X0291900Y0328233D01*
X0286700Y0328233D01*
X0286700Y0329033D01*
X0286700Y0339633D01*
X0291900Y0339633D01*
X0291900Y0329033D01*
X0286700Y0329033D01*
X0299400Y0340733D02*
X0299400Y0345933D01*
X0310000Y0345933D01*
X0310800Y0345933D01*
X0310800Y0340733D01*
X0310000Y0340733D01*
X0299400Y0340733D01*
X0300300Y0351433D02*
X0300300Y0362033D01*
X0300300Y0362833D01*
X0305500Y0362833D01*
X0305500Y0362033D01*
X0305500Y0351433D01*
X0300300Y0351433D01*
X0295062Y0352920D02*
X0292700Y0356463D01*
X0290338Y0352920D01*
X0295062Y0352920D01*
X0295062Y0356463D02*
X0290338Y0356463D01*
X0288262Y0356346D02*
X0285900Y0352803D01*
X0283538Y0356346D01*
X0288262Y0356346D01*
X0288262Y0352803D02*
X0283538Y0352803D01*
X0300300Y0362033D02*
X0305500Y0362033D01*
X0307226Y0357514D02*
X0307226Y0357120D01*
X0312738Y0352396D02*
X0314313Y0352396D01*
X0319824Y0357120D02*
X0319824Y0357514D01*
X0321500Y0362233D02*
X0321500Y0363033D01*
X0326700Y0363033D01*
X0326700Y0362233D01*
X0326700Y0351633D01*
X0321500Y0351633D01*
X0321500Y0362233D01*
X0326700Y0362233D01*
X0330100Y0362133D02*
X0330100Y0361333D01*
X0330100Y0350733D01*
X0335300Y0350733D01*
X0335300Y0361333D01*
X0335300Y0362133D01*
X0330100Y0362133D01*
X0330100Y0361333D02*
X0335300Y0361333D01*
X0336700Y0361333D02*
X0336700Y0362133D01*
X0341900Y0362133D01*
X0341900Y0361333D01*
X0341900Y0350733D01*
X0336700Y0350733D01*
X0336700Y0361333D01*
X0341900Y0361333D01*
X0335300Y0349433D02*
X0330100Y0349433D01*
X0330100Y0338833D01*
X0330100Y0338033D01*
X0335300Y0338033D01*
X0335300Y0338833D01*
X0335300Y0349433D01*
X0335300Y0338833D02*
X0330100Y0338833D01*
X0330900Y0333033D02*
X0330900Y0332233D01*
X0330900Y0321633D01*
X0336100Y0321633D01*
X0336100Y0332233D01*
X0336100Y0333033D01*
X0330900Y0333033D01*
X0330900Y0332233D02*
X0336100Y0332233D01*
X0337600Y0333133D02*
X0337600Y0327933D01*
X0348200Y0327933D01*
X0349000Y0327933D01*
X0349000Y0333133D01*
X0348200Y0333133D01*
X0337600Y0333133D01*
X0337600Y0326733D02*
X0348200Y0326733D01*
X0349000Y0326733D01*
X0349000Y0321533D01*
X0348200Y0321533D01*
X0337600Y0321533D01*
X0337600Y0326733D01*
X0348200Y0326733D02*
X0348200Y0321533D01*
X0348200Y0327933D02*
X0348200Y0333133D01*
X0325000Y0340733D02*
X0314400Y0340733D01*
X0313600Y0340733D01*
X0313600Y0345933D01*
X0314400Y0345933D01*
X0325000Y0345933D01*
X0325000Y0340733D01*
X0314400Y0340733D02*
X0314400Y0345933D01*
X0310000Y0345933D02*
X0310000Y0340733D01*
X0318020Y0329854D02*
X0318022Y0329929D01*
X0318028Y0330004D01*
X0318038Y0330078D01*
X0318052Y0330152D01*
X0318069Y0330225D01*
X0318091Y0330296D01*
X0318116Y0330367D01*
X0318145Y0330436D01*
X0318177Y0330504D01*
X0318213Y0330569D01*
X0318253Y0330633D01*
X0318296Y0330695D01*
X0318342Y0330754D01*
X0318391Y0330811D01*
X0318443Y0330865D01*
X0318497Y0330916D01*
X0318555Y0330964D01*
X0318614Y0331009D01*
X0318677Y0331051D01*
X0318741Y0331090D01*
X0318807Y0331125D01*
X0318875Y0331157D01*
X0318945Y0331185D01*
X0319015Y0331209D01*
X0319088Y0331230D01*
X0319161Y0331246D01*
X0319235Y0331259D01*
X0319309Y0331268D01*
X0319384Y0331273D01*
X0319459Y0331274D01*
X0319534Y0331271D01*
X0319608Y0331264D01*
X0319682Y0331253D01*
X0319756Y0331238D01*
X0319829Y0331220D01*
X0319900Y0331197D01*
X0319970Y0331171D01*
X0320039Y0331141D01*
X0320106Y0331108D01*
X0320172Y0331071D01*
X0320235Y0331031D01*
X0320296Y0330987D01*
X0320354Y0330940D01*
X0320410Y0330891D01*
X0320464Y0330838D01*
X0320514Y0330783D01*
X0320562Y0330725D01*
X0320606Y0330664D01*
X0320647Y0330602D01*
X0320685Y0330537D01*
X0320719Y0330470D01*
X0320750Y0330402D01*
X0320777Y0330332D01*
X0320801Y0330261D01*
X0320820Y0330188D01*
X0320836Y0330115D01*
X0320848Y0330041D01*
X0320856Y0329966D01*
X0320860Y0329891D01*
X0320860Y0329817D01*
X0320856Y0329742D01*
X0320848Y0329667D01*
X0320836Y0329593D01*
X0320820Y0329520D01*
X0320801Y0329447D01*
X0320777Y0329376D01*
X0320750Y0329306D01*
X0320719Y0329238D01*
X0320685Y0329171D01*
X0320647Y0329106D01*
X0320606Y0329044D01*
X0320562Y0328983D01*
X0320514Y0328925D01*
X0320464Y0328870D01*
X0320410Y0328817D01*
X0320354Y0328768D01*
X0320296Y0328721D01*
X0320235Y0328677D01*
X0320172Y0328637D01*
X0320106Y0328600D01*
X0320039Y0328567D01*
X0319970Y0328537D01*
X0319900Y0328511D01*
X0319829Y0328488D01*
X0319756Y0328470D01*
X0319682Y0328455D01*
X0319608Y0328444D01*
X0319534Y0328437D01*
X0319459Y0328434D01*
X0319384Y0328435D01*
X0319309Y0328440D01*
X0319235Y0328449D01*
X0319161Y0328462D01*
X0319088Y0328478D01*
X0319015Y0328499D01*
X0318945Y0328523D01*
X0318875Y0328551D01*
X0318807Y0328583D01*
X0318741Y0328618D01*
X0318677Y0328657D01*
X0318614Y0328699D01*
X0318555Y0328744D01*
X0318497Y0328792D01*
X0318443Y0328843D01*
X0318391Y0328897D01*
X0318342Y0328954D01*
X0318296Y0329013D01*
X0318253Y0329075D01*
X0318213Y0329139D01*
X0318177Y0329204D01*
X0318145Y0329272D01*
X0318116Y0329341D01*
X0318091Y0329412D01*
X0318069Y0329483D01*
X0318052Y0329556D01*
X0318038Y0329630D01*
X0318028Y0329704D01*
X0318022Y0329779D01*
X0318020Y0329854D01*
X0314313Y0362239D02*
X0312738Y0362239D01*
X0256900Y0359433D02*
X0256900Y0348833D01*
X0256900Y0348033D01*
X0251700Y0348033D01*
X0251700Y0348833D01*
X0251700Y0359433D01*
X0256900Y0359433D01*
X0256900Y0348833D02*
X0251700Y0348833D01*
X0236744Y0365902D02*
X0236744Y0370626D01*
X0236744Y0365902D02*
X0142256Y0365902D01*
X0142256Y0370626D01*
X0142256Y0379287D02*
X0139894Y0379287D01*
X0139894Y0385587D01*
X0239500Y0385587D01*
X0239500Y0379287D01*
X0236744Y0379287D01*
X0107500Y0350733D02*
X0107500Y0349933D01*
X0107500Y0339333D01*
X0102300Y0339333D01*
X0102300Y0349933D01*
X0102300Y0350733D01*
X0107500Y0350733D01*
X0107500Y0349933D02*
X0102300Y0349933D01*
X0101000Y0349733D02*
X0101000Y0348933D01*
X0101000Y0338333D01*
X0095800Y0338333D01*
X0095800Y0348933D01*
X0095800Y0349733D01*
X0101000Y0349733D01*
X0101000Y0348933D02*
X0095800Y0348933D01*
X0089155Y0345840D02*
X0089155Y0359620D01*
X0087974Y0360801D01*
X0074588Y0360801D01*
X0073210Y0359423D01*
X0073210Y0346037D01*
X0074588Y0344659D01*
X0087974Y0344659D01*
X0089155Y0345840D01*
X0082800Y0336133D02*
X0082000Y0336133D01*
X0071400Y0336133D01*
X0071400Y0330933D01*
X0082000Y0330933D01*
X0082800Y0330933D01*
X0082800Y0336133D01*
X0082000Y0336133D02*
X0082000Y0330933D01*
X0082487Y0329470D02*
X0084062Y0329470D01*
X0076976Y0324746D02*
X0076976Y0324352D01*
X0075100Y0329033D02*
X0075100Y0329833D01*
X0069900Y0329833D01*
X0069900Y0329033D01*
X0069900Y0318433D01*
X0075100Y0318433D01*
X0075100Y0329033D01*
X0069900Y0329033D01*
X0082487Y0319628D02*
X0084062Y0319628D01*
X0089574Y0324352D02*
X0089574Y0324746D01*
X0091500Y0329033D02*
X0091500Y0329833D01*
X0096700Y0329833D01*
X0096700Y0329033D01*
X0096700Y0318433D01*
X0091500Y0318433D01*
X0091500Y0329033D01*
X0096700Y0329033D01*
X0074940Y0347612D02*
X0074942Y0347687D01*
X0074948Y0347762D01*
X0074958Y0347836D01*
X0074972Y0347910D01*
X0074989Y0347983D01*
X0075011Y0348054D01*
X0075036Y0348125D01*
X0075065Y0348194D01*
X0075097Y0348262D01*
X0075133Y0348327D01*
X0075173Y0348391D01*
X0075216Y0348453D01*
X0075262Y0348512D01*
X0075311Y0348569D01*
X0075363Y0348623D01*
X0075417Y0348674D01*
X0075475Y0348722D01*
X0075534Y0348767D01*
X0075597Y0348809D01*
X0075661Y0348848D01*
X0075727Y0348883D01*
X0075795Y0348915D01*
X0075865Y0348943D01*
X0075935Y0348967D01*
X0076008Y0348988D01*
X0076081Y0349004D01*
X0076155Y0349017D01*
X0076229Y0349026D01*
X0076304Y0349031D01*
X0076379Y0349032D01*
X0076454Y0349029D01*
X0076528Y0349022D01*
X0076602Y0349011D01*
X0076676Y0348996D01*
X0076749Y0348978D01*
X0076820Y0348955D01*
X0076890Y0348929D01*
X0076959Y0348899D01*
X0077026Y0348866D01*
X0077092Y0348829D01*
X0077155Y0348789D01*
X0077216Y0348745D01*
X0077274Y0348698D01*
X0077330Y0348649D01*
X0077384Y0348596D01*
X0077434Y0348541D01*
X0077482Y0348483D01*
X0077526Y0348422D01*
X0077567Y0348360D01*
X0077605Y0348295D01*
X0077639Y0348228D01*
X0077670Y0348160D01*
X0077697Y0348090D01*
X0077721Y0348019D01*
X0077740Y0347946D01*
X0077756Y0347873D01*
X0077768Y0347799D01*
X0077776Y0347724D01*
X0077780Y0347649D01*
X0077780Y0347575D01*
X0077776Y0347500D01*
X0077768Y0347425D01*
X0077756Y0347351D01*
X0077740Y0347278D01*
X0077721Y0347205D01*
X0077697Y0347134D01*
X0077670Y0347064D01*
X0077639Y0346996D01*
X0077605Y0346929D01*
X0077567Y0346864D01*
X0077526Y0346802D01*
X0077482Y0346741D01*
X0077434Y0346683D01*
X0077384Y0346628D01*
X0077330Y0346575D01*
X0077274Y0346526D01*
X0077216Y0346479D01*
X0077155Y0346435D01*
X0077092Y0346395D01*
X0077026Y0346358D01*
X0076959Y0346325D01*
X0076890Y0346295D01*
X0076820Y0346269D01*
X0076749Y0346246D01*
X0076676Y0346228D01*
X0076602Y0346213D01*
X0076528Y0346202D01*
X0076454Y0346195D01*
X0076379Y0346192D01*
X0076304Y0346193D01*
X0076229Y0346198D01*
X0076155Y0346207D01*
X0076081Y0346220D01*
X0076008Y0346236D01*
X0075935Y0346257D01*
X0075865Y0346281D01*
X0075795Y0346309D01*
X0075727Y0346341D01*
X0075661Y0346376D01*
X0075597Y0346415D01*
X0075534Y0346457D01*
X0075475Y0346502D01*
X0075417Y0346550D01*
X0075363Y0346601D01*
X0075311Y0346655D01*
X0075262Y0346712D01*
X0075216Y0346771D01*
X0075173Y0346833D01*
X0075133Y0346897D01*
X0075097Y0346962D01*
X0075065Y0347030D01*
X0075036Y0347099D01*
X0075011Y0347170D01*
X0074989Y0347241D01*
X0074972Y0347314D01*
X0074958Y0347388D01*
X0074948Y0347462D01*
X0074942Y0347537D01*
X0074940Y0347612D01*
X0064700Y0350033D02*
X0064700Y0350833D01*
X0064700Y0361433D01*
X0059500Y0361433D01*
X0059500Y0350833D01*
X0059500Y0350033D01*
X0064700Y0350033D01*
X0064700Y0350833D02*
X0059500Y0350833D01*
X0056600Y0348133D02*
X0055800Y0348133D01*
X0045200Y0348133D01*
X0045200Y0342933D01*
X0055800Y0342933D01*
X0056600Y0342933D01*
X0056600Y0348133D01*
X0055800Y0348133D02*
X0055800Y0342933D01*
X0055800Y0341933D02*
X0056600Y0341933D01*
X0056600Y0336733D01*
X0055800Y0336733D01*
X0045200Y0336733D01*
X0045200Y0341933D01*
X0055800Y0341933D01*
X0055800Y0336733D01*
X0055800Y0335333D02*
X0056600Y0335333D01*
X0056600Y0330133D01*
X0055800Y0330133D01*
X0045200Y0330133D01*
X0045200Y0335333D01*
X0055800Y0335333D01*
X0055800Y0330133D01*
X0054355Y0328495D02*
X0054355Y0328102D01*
X0054355Y0328495D02*
X0046875Y0328495D01*
X0046875Y0328102D01*
X0043800Y0330333D02*
X0043000Y0330333D01*
X0032400Y0330333D01*
X0032400Y0335533D01*
X0043000Y0335533D01*
X0043800Y0335533D01*
X0043800Y0330333D01*
X0043000Y0330333D02*
X0043000Y0335533D01*
X0043000Y0336733D02*
X0043800Y0336733D01*
X0043800Y0341933D01*
X0043000Y0341933D01*
X0032400Y0341933D01*
X0032400Y0336733D01*
X0043000Y0336733D01*
X0043000Y0341933D01*
X0039000Y0350133D02*
X0038200Y0350133D01*
X0038200Y0355333D01*
X0039000Y0355333D01*
X0049600Y0355333D01*
X0049600Y0350133D01*
X0039000Y0350133D01*
X0039000Y0355333D01*
X0039000Y0356933D02*
X0038200Y0356933D01*
X0038200Y0362133D01*
X0039000Y0362133D01*
X0049600Y0362133D01*
X0049600Y0356933D01*
X0039000Y0356933D01*
X0039000Y0362133D01*
X0036862Y0353546D02*
X0032138Y0353546D01*
X0034500Y0350003D01*
X0036862Y0353546D01*
X0036862Y0350003D02*
X0032138Y0350003D01*
X0030062Y0350003D02*
X0025338Y0350003D01*
X0027700Y0350003D02*
X0025338Y0353546D01*
X0030062Y0353546D01*
X0027700Y0350003D01*
X0054355Y0324165D02*
X0054355Y0320621D01*
X0054355Y0316684D02*
X0054355Y0316291D01*
X0046875Y0316291D01*
X0046875Y0316684D01*
X0019994Y0293133D02*
X0020001Y0293737D01*
X0020024Y0294340D01*
X0020061Y0294943D01*
X0020112Y0295545D01*
X0020179Y0296145D01*
X0020260Y0296743D01*
X0020356Y0297340D01*
X0020467Y0297933D01*
X0020592Y0298524D01*
X0020731Y0299112D01*
X0020885Y0299696D01*
X0021054Y0300276D01*
X0021236Y0300851D01*
X0021432Y0301423D01*
X0021643Y0301989D01*
X0021867Y0302549D01*
X0022105Y0303104D01*
X0022356Y0303653D01*
X0022621Y0304196D01*
X0022899Y0304732D01*
X0023191Y0305261D01*
X0023495Y0305783D01*
X0023812Y0306297D01*
X0024141Y0306803D01*
X0024483Y0307301D01*
X0024836Y0307791D01*
X0025202Y0308271D01*
X0025579Y0308743D01*
X0025968Y0309205D01*
X0026368Y0309657D01*
X0026779Y0310100D01*
X0027201Y0310532D01*
X0027633Y0310954D01*
X0028076Y0311365D01*
X0028528Y0311765D01*
X0028990Y0312154D01*
X0029462Y0312531D01*
X0029942Y0312897D01*
X0030432Y0313250D01*
X0030930Y0313592D01*
X0031436Y0313921D01*
X0031950Y0314238D01*
X0032472Y0314542D01*
X0033001Y0314834D01*
X0033537Y0315112D01*
X0034080Y0315377D01*
X0034629Y0315628D01*
X0035184Y0315866D01*
X0035744Y0316090D01*
X0036310Y0316301D01*
X0036882Y0316497D01*
X0037457Y0316679D01*
X0038037Y0316848D01*
X0038621Y0317002D01*
X0039209Y0317141D01*
X0039800Y0317266D01*
X0040393Y0317377D01*
X0040990Y0317473D01*
X0041588Y0317554D01*
X0042188Y0317621D01*
X0042790Y0317672D01*
X0043393Y0317709D01*
X0043996Y0317732D01*
X0044600Y0317739D01*
X0045204Y0317732D01*
X0045807Y0317709D01*
X0046410Y0317672D01*
X0047012Y0317621D01*
X0047612Y0317554D01*
X0048210Y0317473D01*
X0048807Y0317377D01*
X0049400Y0317266D01*
X0049991Y0317141D01*
X0050579Y0317002D01*
X0051163Y0316848D01*
X0051743Y0316679D01*
X0052318Y0316497D01*
X0052890Y0316301D01*
X0053456Y0316090D01*
X0054016Y0315866D01*
X0054571Y0315628D01*
X0055120Y0315377D01*
X0055663Y0315112D01*
X0056199Y0314834D01*
X0056728Y0314542D01*
X0057250Y0314238D01*
X0057764Y0313921D01*
X0058270Y0313592D01*
X0058768Y0313250D01*
X0059258Y0312897D01*
X0059738Y0312531D01*
X0060210Y0312154D01*
X0060672Y0311765D01*
X0061124Y0311365D01*
X0061567Y0310954D01*
X0061999Y0310532D01*
X0062421Y0310100D01*
X0062832Y0309657D01*
X0063232Y0309205D01*
X0063621Y0308743D01*
X0063998Y0308271D01*
X0064364Y0307791D01*
X0064717Y0307301D01*
X0065059Y0306803D01*
X0065388Y0306297D01*
X0065705Y0305783D01*
X0066009Y0305261D01*
X0066301Y0304732D01*
X0066579Y0304196D01*
X0066844Y0303653D01*
X0067095Y0303104D01*
X0067333Y0302549D01*
X0067557Y0301989D01*
X0067768Y0301423D01*
X0067964Y0300851D01*
X0068146Y0300276D01*
X0068315Y0299696D01*
X0068469Y0299112D01*
X0068608Y0298524D01*
X0068733Y0297933D01*
X0068844Y0297340D01*
X0068940Y0296743D01*
X0069021Y0296145D01*
X0069088Y0295545D01*
X0069139Y0294943D01*
X0069176Y0294340D01*
X0069199Y0293737D01*
X0069206Y0293133D01*
X0069199Y0292529D01*
X0069176Y0291926D01*
X0069139Y0291323D01*
X0069088Y0290721D01*
X0069021Y0290121D01*
X0068940Y0289523D01*
X0068844Y0288926D01*
X0068733Y0288333D01*
X0068608Y0287742D01*
X0068469Y0287154D01*
X0068315Y0286570D01*
X0068146Y0285990D01*
X0067964Y0285415D01*
X0067768Y0284843D01*
X0067557Y0284277D01*
X0067333Y0283717D01*
X0067095Y0283162D01*
X0066844Y0282613D01*
X0066579Y0282070D01*
X0066301Y0281534D01*
X0066009Y0281005D01*
X0065705Y0280483D01*
X0065388Y0279969D01*
X0065059Y0279463D01*
X0064717Y0278965D01*
X0064364Y0278475D01*
X0063998Y0277995D01*
X0063621Y0277523D01*
X0063232Y0277061D01*
X0062832Y0276609D01*
X0062421Y0276166D01*
X0061999Y0275734D01*
X0061567Y0275312D01*
X0061124Y0274901D01*
X0060672Y0274501D01*
X0060210Y0274112D01*
X0059738Y0273735D01*
X0059258Y0273369D01*
X0058768Y0273016D01*
X0058270Y0272674D01*
X0057764Y0272345D01*
X0057250Y0272028D01*
X0056728Y0271724D01*
X0056199Y0271432D01*
X0055663Y0271154D01*
X0055120Y0270889D01*
X0054571Y0270638D01*
X0054016Y0270400D01*
X0053456Y0270176D01*
X0052890Y0269965D01*
X0052318Y0269769D01*
X0051743Y0269587D01*
X0051163Y0269418D01*
X0050579Y0269264D01*
X0049991Y0269125D01*
X0049400Y0269000D01*
X0048807Y0268889D01*
X0048210Y0268793D01*
X0047612Y0268712D01*
X0047012Y0268645D01*
X0046410Y0268594D01*
X0045807Y0268557D01*
X0045204Y0268534D01*
X0044600Y0268527D01*
X0043996Y0268534D01*
X0043393Y0268557D01*
X0042790Y0268594D01*
X0042188Y0268645D01*
X0041588Y0268712D01*
X0040990Y0268793D01*
X0040393Y0268889D01*
X0039800Y0269000D01*
X0039209Y0269125D01*
X0038621Y0269264D01*
X0038037Y0269418D01*
X0037457Y0269587D01*
X0036882Y0269769D01*
X0036310Y0269965D01*
X0035744Y0270176D01*
X0035184Y0270400D01*
X0034629Y0270638D01*
X0034080Y0270889D01*
X0033537Y0271154D01*
X0033001Y0271432D01*
X0032472Y0271724D01*
X0031950Y0272028D01*
X0031436Y0272345D01*
X0030930Y0272674D01*
X0030432Y0273016D01*
X0029942Y0273369D01*
X0029462Y0273735D01*
X0028990Y0274112D01*
X0028528Y0274501D01*
X0028076Y0274901D01*
X0027633Y0275312D01*
X0027201Y0275734D01*
X0026779Y0276166D01*
X0026368Y0276609D01*
X0025968Y0277061D01*
X0025579Y0277523D01*
X0025202Y0277995D01*
X0024836Y0278475D01*
X0024483Y0278965D01*
X0024141Y0279463D01*
X0023812Y0279969D01*
X0023495Y0280483D01*
X0023191Y0281005D01*
X0022899Y0281534D01*
X0022621Y0282070D01*
X0022356Y0282613D01*
X0022105Y0283162D01*
X0021867Y0283717D01*
X0021643Y0284277D01*
X0021432Y0284843D01*
X0021236Y0285415D01*
X0021054Y0285990D01*
X0020885Y0286570D01*
X0020731Y0287154D01*
X0020592Y0287742D01*
X0020467Y0288333D01*
X0020356Y0288926D01*
X0020260Y0289523D01*
X0020179Y0290121D01*
X0020112Y0290721D01*
X0020061Y0291323D01*
X0020024Y0291926D01*
X0020001Y0292529D01*
X0019994Y0293133D01*
X0021800Y0279433D02*
X0011200Y0279433D01*
X0010400Y0279433D01*
X0010400Y0274233D01*
X0011200Y0274233D01*
X0021800Y0274233D01*
X0021800Y0279433D01*
X0011200Y0279433D02*
X0011200Y0274233D01*
X0071400Y0285933D02*
X0082000Y0285933D01*
X0082800Y0285933D01*
X0082800Y0291133D01*
X0082000Y0291133D01*
X0071400Y0291133D01*
X0071400Y0285933D01*
X0082000Y0285933D02*
X0082000Y0291133D01*
X0079900Y0369133D02*
X0079100Y0369133D01*
X0079100Y0374333D01*
X0079900Y0374333D01*
X0090500Y0374333D01*
X0090500Y0369133D01*
X0079900Y0369133D01*
X0079900Y0374333D01*
X0078000Y0374333D02*
X0067400Y0374333D01*
X0066600Y0374333D01*
X0066600Y0369133D01*
X0067400Y0369133D01*
X0078000Y0369133D01*
X0078000Y0374333D01*
X0067400Y0374333D02*
X0067400Y0369133D01*
D14*
X0171699Y0373713D02*
X0174001Y0373713D01*
X0174769Y0374480D01*
X0174769Y0377549D01*
X0174001Y0378317D01*
X0171699Y0378317D01*
X0171699Y0373713D01*
X0176303Y0374480D02*
X0177070Y0373713D01*
X0178605Y0373713D01*
X0179372Y0374480D01*
X0179372Y0375247D01*
X0178605Y0376015D01*
X0177070Y0376015D01*
X0176303Y0376782D01*
X0176303Y0377549D01*
X0177070Y0378317D01*
X0178605Y0378317D01*
X0179372Y0377549D01*
X0180907Y0376782D02*
X0182442Y0378317D01*
X0182442Y0373713D01*
X0183976Y0373713D02*
X0180907Y0373713D01*
X0106865Y0173837D02*
X0103796Y0173837D01*
X0105331Y0173837D02*
X0105331Y0169233D01*
X0102261Y0169233D02*
X0100727Y0170768D01*
X0101494Y0170768D02*
X0099192Y0170768D01*
X0099192Y0169233D02*
X0099192Y0173837D01*
X0101494Y0173837D01*
X0102261Y0173070D01*
X0102261Y0171535D01*
X0101494Y0170768D01*
X0097657Y0171535D02*
X0094588Y0171535D01*
X0094588Y0172302D02*
X0094588Y0169233D01*
X0093054Y0170000D02*
X0093054Y0173837D01*
X0094588Y0172302D02*
X0096123Y0173837D01*
X0097657Y0172302D01*
X0097657Y0169233D01*
X0093054Y0170000D02*
X0092286Y0169233D01*
X0090752Y0169233D01*
X0089984Y0170000D01*
X0089984Y0173837D01*
X0154298Y0109917D02*
X0152763Y0108382D01*
X0154298Y0109917D02*
X0154298Y0105313D01*
X0155832Y0105313D02*
X0152763Y0105313D01*
X0157367Y0106080D02*
X0160436Y0109149D01*
X0160436Y0106080D01*
X0159669Y0105313D01*
X0158134Y0105313D01*
X0157367Y0106080D01*
X0157367Y0109149D01*
X0158134Y0109917D01*
X0159669Y0109917D01*
X0160436Y0109149D01*
X0161971Y0109149D02*
X0161971Y0106080D01*
X0165040Y0109149D01*
X0165040Y0106080D01*
X0164273Y0105313D01*
X0162738Y0105313D01*
X0161971Y0106080D01*
X0161971Y0109149D02*
X0162738Y0109917D01*
X0164273Y0109917D01*
X0165040Y0109149D01*
X0165130Y0115055D02*
X0164363Y0115822D01*
X0164363Y0118892D01*
X0165130Y0119659D01*
X0166665Y0119659D01*
X0167432Y0118892D01*
X0168967Y0118892D02*
X0169734Y0119659D01*
X0171269Y0119659D01*
X0172036Y0118892D01*
X0172036Y0118124D01*
X0168967Y0115055D01*
X0172036Y0115055D01*
X0167432Y0115822D02*
X0166665Y0115055D01*
X0165130Y0115055D01*
X0171179Y0108382D02*
X0171179Y0106080D01*
X0171946Y0105313D01*
X0174248Y0105313D01*
X0174248Y0108382D01*
X0175783Y0107615D02*
X0177317Y0107615D01*
X0175783Y0109917D02*
X0178852Y0109917D01*
X0175783Y0109917D02*
X0175783Y0105313D01*
X0104452Y0055517D02*
X0101383Y0055517D01*
X0101383Y0050913D01*
X0099848Y0050913D02*
X0099848Y0053982D01*
X0101383Y0053215D02*
X0102917Y0053215D01*
X0099848Y0050913D02*
X0097546Y0050913D01*
X0096779Y0051680D01*
X0096779Y0053982D01*
X0090640Y0054749D02*
X0090640Y0051680D01*
X0089873Y0050913D01*
X0088338Y0050913D01*
X0087571Y0051680D01*
X0090640Y0054749D01*
X0089873Y0055517D01*
X0088338Y0055517D01*
X0087571Y0054749D01*
X0087571Y0051680D01*
X0086036Y0051680D02*
X0085269Y0050913D01*
X0083734Y0050913D01*
X0082967Y0051680D01*
X0086036Y0054749D01*
X0086036Y0051680D01*
X0082967Y0051680D02*
X0082967Y0054749D01*
X0083734Y0055517D01*
X0085269Y0055517D01*
X0086036Y0054749D01*
X0086436Y0057455D02*
X0083367Y0057455D01*
X0086436Y0060524D01*
X0086436Y0061292D01*
X0085669Y0062059D01*
X0084134Y0062059D01*
X0083367Y0061292D01*
X0081832Y0061292D02*
X0081065Y0062059D01*
X0079530Y0062059D01*
X0078763Y0061292D01*
X0078763Y0058222D01*
X0079530Y0057455D01*
X0081065Y0057455D01*
X0081832Y0058222D01*
X0079898Y0055517D02*
X0079898Y0050913D01*
X0081432Y0050913D02*
X0078363Y0050913D01*
X0078363Y0053982D02*
X0079898Y0055517D01*
X0087971Y0057455D02*
X0091040Y0060524D01*
X0091040Y0061292D01*
X0090273Y0062059D01*
X0088738Y0062059D01*
X0087971Y0061292D01*
X0087971Y0057455D02*
X0091040Y0057455D01*
X0072476Y0090409D02*
X0072476Y0095013D01*
X0072476Y0092711D02*
X0069406Y0092711D01*
X0067872Y0093478D02*
X0067872Y0090409D01*
X0065570Y0090409D01*
X0064802Y0091176D01*
X0064802Y0093478D01*
X0065260Y0098220D02*
X0062191Y0098220D01*
X0063725Y0098220D02*
X0063725Y0102824D01*
X0062191Y0101289D01*
X0060656Y0098220D02*
X0057587Y0098220D01*
X0057587Y0102824D01*
X0057896Y0095013D02*
X0056362Y0095013D01*
X0055594Y0094245D01*
X0055594Y0091176D01*
X0058664Y0094245D01*
X0058664Y0091176D01*
X0057896Y0090409D01*
X0056362Y0090409D01*
X0055594Y0091176D01*
X0054060Y0091176D02*
X0053292Y0090409D01*
X0051758Y0090409D01*
X0050991Y0091176D01*
X0054060Y0094245D01*
X0054060Y0091176D01*
X0054060Y0094245D02*
X0053292Y0095013D01*
X0051758Y0095013D01*
X0050991Y0094245D01*
X0050991Y0091176D01*
X0049456Y0090409D02*
X0046387Y0090409D01*
X0047921Y0090409D02*
X0047921Y0095013D01*
X0046387Y0093478D01*
X0057896Y0095013D02*
X0058664Y0094245D01*
X0069406Y0095013D02*
X0069406Y0090409D01*
X0275361Y0108070D02*
X0277663Y0108070D01*
X0278430Y0108837D01*
X0278430Y0109605D01*
X0277663Y0110372D01*
X0275361Y0110372D01*
X0277663Y0110372D02*
X0278430Y0111139D01*
X0278430Y0111907D01*
X0277663Y0112674D01*
X0275361Y0112674D01*
X0275361Y0108070D01*
X0279965Y0108070D02*
X0279965Y0111139D01*
X0281499Y0112674D01*
X0283034Y0111139D01*
X0283034Y0108070D01*
X0283034Y0110372D02*
X0279965Y0110372D01*
X0284568Y0112674D02*
X0287638Y0112674D01*
X0286103Y0112674D02*
X0286103Y0108070D01*
D15*
X0240738Y0136583D02*
X0238803Y0136583D01*
X0240738Y0138518D01*
X0238803Y0138518D01*
X0237792Y0138034D02*
X0235857Y0138034D01*
X0235857Y0136583D02*
X0235857Y0139486D01*
X0234845Y0139486D02*
X0234845Y0136583D01*
X0232910Y0136583D02*
X0232910Y0139486D01*
X0233878Y0138518D01*
X0234845Y0139486D01*
X0237792Y0139486D02*
X0237792Y0136583D01*
X0231899Y0137067D02*
X0231415Y0136583D01*
X0230448Y0136583D01*
X0229964Y0137067D01*
X0231899Y0139002D01*
X0231899Y0137067D01*
X0231899Y0139002D02*
X0231415Y0139486D01*
X0230448Y0139486D01*
X0229964Y0139002D01*
X0229964Y0137067D01*
X0228952Y0136583D02*
X0227017Y0136583D01*
X0228952Y0138518D01*
X0228952Y0139002D01*
X0228469Y0139486D01*
X0227501Y0139486D01*
X0227017Y0139002D01*
X0207450Y0138583D02*
X0207450Y0140518D01*
X0207450Y0141530D02*
X0207450Y0143465D01*
X0207450Y0144476D02*
X0204548Y0144476D01*
X0204548Y0145927D01*
X0205031Y0146411D01*
X0206966Y0146411D01*
X0207450Y0145927D01*
X0207450Y0144476D01*
X0205999Y0142497D02*
X0205999Y0141530D01*
X0204548Y0141530D02*
X0207450Y0141530D01*
X0204548Y0141530D02*
X0204548Y0143465D01*
X0204548Y0138583D02*
X0207450Y0138583D01*
X0206199Y0151144D02*
X0206199Y0153078D01*
X0207166Y0154090D02*
X0205231Y0156025D01*
X0204748Y0156025D01*
X0204748Y0154090D01*
X0204748Y0152595D02*
X0206199Y0151144D01*
X0207650Y0152595D02*
X0204748Y0152595D01*
X0207166Y0154090D02*
X0207650Y0154090D01*
X0207166Y0157037D02*
X0205231Y0158972D01*
X0207166Y0158972D01*
X0207650Y0158488D01*
X0207650Y0157520D01*
X0207166Y0157037D01*
X0205231Y0157037D01*
X0204748Y0157520D01*
X0204748Y0158488D01*
X0205231Y0158972D01*
X0221364Y0162383D02*
X0223299Y0162383D01*
X0222331Y0162383D02*
X0222331Y0165286D01*
X0221364Y0164318D01*
X0224310Y0163834D02*
X0225278Y0164318D01*
X0225762Y0164318D01*
X0226245Y0163834D01*
X0226245Y0162867D01*
X0225762Y0162383D01*
X0224794Y0162383D01*
X0224310Y0162867D01*
X0224310Y0163834D02*
X0224310Y0165286D01*
X0226245Y0165286D01*
X0227257Y0164318D02*
X0228708Y0164318D01*
X0229192Y0163834D01*
X0229192Y0162867D01*
X0228708Y0162383D01*
X0227257Y0162383D01*
X0227257Y0161416D02*
X0227257Y0164318D01*
X0230203Y0163834D02*
X0231171Y0163834D01*
X0230203Y0162383D02*
X0230203Y0165286D01*
X0232138Y0165286D01*
X0235150Y0164518D02*
X0236117Y0165486D01*
X0236117Y0162583D01*
X0235150Y0162583D02*
X0237085Y0162583D01*
X0238097Y0163067D02*
X0238580Y0162583D01*
X0239548Y0162583D01*
X0240031Y0163067D01*
X0240031Y0164034D01*
X0239548Y0164518D01*
X0239064Y0164518D01*
X0238097Y0164034D01*
X0238097Y0165486D01*
X0240031Y0165486D01*
X0241043Y0164518D02*
X0241043Y0161616D01*
X0241043Y0162583D02*
X0242494Y0162583D01*
X0242978Y0163067D01*
X0242978Y0164034D01*
X0242494Y0164518D01*
X0241043Y0164518D01*
X0243990Y0164034D02*
X0244957Y0164034D01*
X0243990Y0162583D02*
X0243990Y0165486D01*
X0245925Y0165486D01*
X0254217Y0186883D02*
X0256152Y0186883D01*
X0255185Y0186883D02*
X0255185Y0189786D01*
X0254217Y0188818D01*
X0257164Y0189302D02*
X0257164Y0187367D01*
X0259099Y0189302D01*
X0259099Y0187367D01*
X0258615Y0186883D01*
X0257648Y0186883D01*
X0257164Y0187367D01*
X0257164Y0189302D02*
X0257648Y0189786D01*
X0258615Y0189786D01*
X0259099Y0189302D01*
X0260110Y0189302D02*
X0260110Y0187367D01*
X0262045Y0189302D01*
X0262045Y0187367D01*
X0261562Y0186883D01*
X0260594Y0186883D01*
X0260110Y0187367D01*
X0260110Y0189302D02*
X0260594Y0189786D01*
X0261562Y0189786D01*
X0262045Y0189302D01*
X0263057Y0188818D02*
X0264508Y0188818D01*
X0264992Y0188334D01*
X0264992Y0186883D01*
X0266003Y0186883D02*
X0266003Y0189786D01*
X0267938Y0189786D01*
X0266971Y0188334D02*
X0266003Y0188334D01*
X0263057Y0188818D02*
X0263057Y0186883D01*
X0263057Y0208383D02*
X0263057Y0210318D01*
X0264508Y0210318D01*
X0264992Y0209834D01*
X0264992Y0208383D01*
X0266003Y0208383D02*
X0266003Y0211286D01*
X0267938Y0211286D01*
X0266971Y0209834D02*
X0266003Y0209834D01*
X0262045Y0208867D02*
X0261562Y0208383D01*
X0260594Y0208383D01*
X0260110Y0208867D01*
X0262045Y0210802D01*
X0262045Y0208867D01*
X0260110Y0208867D02*
X0260110Y0210802D01*
X0260594Y0211286D01*
X0261562Y0211286D01*
X0262045Y0210802D01*
X0259099Y0210802D02*
X0257164Y0208867D01*
X0257648Y0208383D01*
X0258615Y0208383D01*
X0259099Y0208867D01*
X0259099Y0210802D01*
X0258615Y0211286D01*
X0257648Y0211286D01*
X0257164Y0210802D01*
X0257164Y0208867D01*
X0256152Y0208383D02*
X0254217Y0208383D01*
X0255185Y0208383D02*
X0255185Y0211286D01*
X0254217Y0210318D01*
X0267017Y0242683D02*
X0268952Y0242683D01*
X0267985Y0242683D02*
X0267985Y0245586D01*
X0267017Y0244618D01*
X0269964Y0245102D02*
X0269964Y0243167D01*
X0271899Y0245102D01*
X0271899Y0243167D01*
X0271415Y0242683D01*
X0270448Y0242683D01*
X0269964Y0243167D01*
X0269964Y0245102D02*
X0270448Y0245586D01*
X0271415Y0245586D01*
X0271899Y0245102D01*
X0272910Y0245102D02*
X0273394Y0245586D01*
X0274362Y0245586D01*
X0274845Y0245102D01*
X0272910Y0243167D01*
X0273394Y0242683D01*
X0274362Y0242683D01*
X0274845Y0243167D01*
X0274845Y0245102D01*
X0275857Y0244618D02*
X0275857Y0242683D01*
X0277792Y0242683D02*
X0277792Y0244134D01*
X0277308Y0244618D01*
X0275857Y0244618D01*
X0278803Y0244134D02*
X0279771Y0244134D01*
X0278803Y0242683D02*
X0278803Y0245586D01*
X0280738Y0245586D01*
X0277203Y0249583D02*
X0277203Y0252486D01*
X0279138Y0252486D01*
X0278171Y0251034D02*
X0277203Y0251034D01*
X0276192Y0251034D02*
X0276192Y0249583D01*
X0276192Y0251034D02*
X0275708Y0251518D01*
X0274257Y0251518D01*
X0274257Y0249583D01*
X0273245Y0250067D02*
X0272762Y0249583D01*
X0271794Y0249583D01*
X0271310Y0250067D01*
X0273245Y0252002D01*
X0273245Y0250067D01*
X0271310Y0250067D02*
X0271310Y0252002D01*
X0271794Y0252486D01*
X0272762Y0252486D01*
X0273245Y0252002D01*
X0270299Y0252002D02*
X0269815Y0252486D01*
X0268848Y0252486D01*
X0268364Y0252002D01*
X0268364Y0250067D01*
X0270299Y0252002D01*
X0270299Y0250067D01*
X0269815Y0249583D01*
X0268848Y0249583D01*
X0268364Y0250067D01*
X0267352Y0249583D02*
X0265417Y0249583D01*
X0266385Y0249583D02*
X0266385Y0252486D01*
X0265417Y0251518D01*
X0272910Y0245102D02*
X0272910Y0243167D01*
X0294748Y0229872D02*
X0297650Y0229872D01*
X0297650Y0227937D02*
X0294748Y0227937D01*
X0295715Y0228904D01*
X0294748Y0229872D01*
X0294748Y0225958D02*
X0297650Y0225958D01*
X0297650Y0226925D02*
X0297650Y0224990D01*
X0295715Y0224990D02*
X0294748Y0225958D01*
X0301748Y0225664D02*
X0304650Y0225664D01*
X0304650Y0224697D02*
X0304650Y0226632D01*
X0304166Y0227644D02*
X0302231Y0229578D01*
X0304166Y0229578D01*
X0304650Y0229095D01*
X0304650Y0228127D01*
X0304166Y0227644D01*
X0302231Y0227644D01*
X0301748Y0228127D01*
X0301748Y0229095D01*
X0302231Y0229578D01*
X0302231Y0230590D02*
X0301748Y0231074D01*
X0301748Y0232041D01*
X0302231Y0232525D01*
X0304166Y0230590D01*
X0304650Y0231074D01*
X0304650Y0232041D01*
X0304166Y0232525D01*
X0302231Y0232525D01*
X0302715Y0233537D02*
X0302715Y0234988D01*
X0303199Y0235472D01*
X0304650Y0235472D01*
X0304650Y0233537D02*
X0302715Y0233537D01*
X0302231Y0230590D02*
X0304166Y0230590D01*
X0301748Y0225664D02*
X0302715Y0224697D01*
X0302350Y0245783D02*
X0302350Y0248686D01*
X0303317Y0247718D01*
X0304285Y0248686D01*
X0304285Y0245783D01*
X0305297Y0246267D02*
X0305780Y0245783D01*
X0306748Y0245783D01*
X0307231Y0246267D01*
X0308243Y0246751D02*
X0309694Y0246751D01*
X0310178Y0247234D01*
X0310178Y0248202D01*
X0309694Y0248686D01*
X0308243Y0248686D01*
X0308243Y0245783D01*
X0307231Y0248202D02*
X0306748Y0248686D01*
X0305780Y0248686D01*
X0305297Y0248202D01*
X0305297Y0246267D01*
X0311190Y0245783D02*
X0313125Y0247718D01*
X0313125Y0248202D01*
X0312641Y0248686D01*
X0311673Y0248686D01*
X0311190Y0248202D01*
X0311190Y0245783D02*
X0313125Y0245783D01*
X0314136Y0246267D02*
X0314620Y0245783D01*
X0315587Y0245783D01*
X0316071Y0246267D01*
X0316071Y0247234D01*
X0315587Y0247718D01*
X0315104Y0247718D01*
X0314136Y0247234D01*
X0314136Y0248686D01*
X0316071Y0248686D01*
X0317083Y0248686D02*
X0317083Y0247234D01*
X0318050Y0247718D01*
X0318534Y0247718D01*
X0319018Y0247234D01*
X0319018Y0246267D01*
X0318534Y0245783D01*
X0317566Y0245783D01*
X0317083Y0246267D01*
X0317083Y0248686D02*
X0319018Y0248686D01*
X0320029Y0247718D02*
X0320997Y0248686D01*
X0320997Y0245783D01*
X0321964Y0245783D02*
X0320029Y0245783D01*
X0307163Y0275983D02*
X0307163Y0278886D01*
X0309098Y0278886D01*
X0308130Y0277434D02*
X0307163Y0277434D01*
X0306151Y0277918D02*
X0306151Y0275983D01*
X0304700Y0275983D01*
X0304216Y0276467D01*
X0304216Y0277918D01*
X0303205Y0278402D02*
X0301270Y0276467D01*
X0301270Y0275983D01*
X0300280Y0275983D02*
X0299797Y0275983D01*
X0299797Y0276467D01*
X0300280Y0276467D01*
X0300280Y0275983D01*
X0298301Y0275983D02*
X0298301Y0278886D01*
X0296850Y0277434D01*
X0298785Y0277434D01*
X0301270Y0278886D02*
X0303205Y0278886D01*
X0303205Y0278402D01*
X0303394Y0282583D02*
X0302427Y0282583D01*
X0301943Y0283067D01*
X0303878Y0285002D01*
X0303878Y0283067D01*
X0303394Y0282583D01*
X0304890Y0282583D02*
X0304890Y0284518D01*
X0306341Y0284518D01*
X0306825Y0284034D01*
X0306825Y0282583D01*
X0307836Y0282583D02*
X0307836Y0285486D01*
X0309771Y0285486D01*
X0308804Y0284034D02*
X0307836Y0284034D01*
X0303878Y0285002D02*
X0303394Y0285486D01*
X0302427Y0285486D01*
X0301943Y0285002D01*
X0301943Y0283067D01*
X0300931Y0283067D02*
X0300448Y0282583D01*
X0299480Y0282583D01*
X0298997Y0283067D01*
X0300931Y0285002D01*
X0300931Y0283067D01*
X0298997Y0283067D02*
X0298997Y0285002D01*
X0299480Y0285486D01*
X0300448Y0285486D01*
X0300931Y0285002D01*
X0297985Y0282583D02*
X0296050Y0282583D01*
X0297017Y0282583D02*
X0297017Y0285486D01*
X0296050Y0284518D01*
X0308115Y0297983D02*
X0307148Y0298951D01*
X0310050Y0298951D01*
X0310050Y0299918D02*
X0310050Y0297983D01*
X0309566Y0300930D02*
X0307631Y0302865D01*
X0309566Y0302865D01*
X0310050Y0302381D01*
X0310050Y0301413D01*
X0309566Y0300930D01*
X0307631Y0300930D01*
X0307148Y0301413D01*
X0307148Y0302381D01*
X0307631Y0302865D01*
X0307631Y0303876D02*
X0307148Y0304360D01*
X0307148Y0305327D01*
X0307631Y0305811D01*
X0309566Y0303876D01*
X0310050Y0304360D01*
X0310050Y0305327D01*
X0309566Y0305811D01*
X0307631Y0305811D01*
X0308115Y0306823D02*
X0308115Y0308274D01*
X0308599Y0308758D01*
X0310050Y0308758D01*
X0310050Y0306823D02*
X0308115Y0306823D01*
X0307631Y0303876D02*
X0309566Y0303876D01*
X0306198Y0312378D02*
X0304263Y0312378D01*
X0305231Y0312378D02*
X0305231Y0315280D01*
X0304263Y0314313D01*
X0303252Y0315280D02*
X0303252Y0312378D01*
X0301317Y0312378D02*
X0301317Y0315280D01*
X0302284Y0314313D01*
X0303252Y0315280D01*
X0300305Y0314313D02*
X0300305Y0312378D01*
X0300305Y0313829D02*
X0298370Y0313829D01*
X0298370Y0314313D02*
X0299338Y0315280D01*
X0300305Y0314313D01*
X0298370Y0314313D02*
X0298370Y0312378D01*
X0297359Y0312861D02*
X0296875Y0312378D01*
X0295907Y0312378D01*
X0295424Y0312861D01*
X0297359Y0314796D01*
X0297359Y0312861D01*
X0297359Y0314796D02*
X0296875Y0315280D01*
X0295907Y0315280D01*
X0295424Y0314796D01*
X0295424Y0312861D01*
X0294412Y0312861D02*
X0293928Y0312378D01*
X0292961Y0312378D01*
X0292477Y0312861D01*
X0292477Y0313829D02*
X0293445Y0314313D01*
X0293928Y0314313D01*
X0294412Y0313829D01*
X0294412Y0312861D01*
X0292477Y0313829D02*
X0292477Y0315280D01*
X0294412Y0315280D01*
X0294715Y0316597D02*
X0293748Y0317564D01*
X0296650Y0317564D01*
X0296650Y0316597D02*
X0296650Y0318532D01*
X0296166Y0319544D02*
X0294231Y0321478D01*
X0296166Y0321478D01*
X0296650Y0320995D01*
X0296650Y0320027D01*
X0296166Y0319544D01*
X0294231Y0319544D01*
X0293748Y0320027D01*
X0293748Y0320995D01*
X0294231Y0321478D01*
X0294231Y0322490D02*
X0293748Y0322974D01*
X0293748Y0323941D01*
X0294231Y0324425D01*
X0296166Y0322490D01*
X0296650Y0322974D01*
X0296650Y0323941D01*
X0296166Y0324425D01*
X0294231Y0324425D01*
X0294715Y0325437D02*
X0294715Y0326888D01*
X0295199Y0327372D01*
X0296650Y0327372D01*
X0296650Y0325437D02*
X0294715Y0325437D01*
X0294231Y0322490D02*
X0296166Y0322490D01*
X0290450Y0322813D02*
X0289966Y0322330D01*
X0288031Y0324265D01*
X0289966Y0324265D01*
X0290450Y0323781D01*
X0290450Y0322813D01*
X0289966Y0322330D02*
X0288031Y0322330D01*
X0287548Y0322813D01*
X0287548Y0323781D01*
X0288031Y0324265D01*
X0287548Y0325276D02*
X0290450Y0325276D01*
X0289483Y0325276D02*
X0288515Y0326727D01*
X0289483Y0325276D02*
X0290450Y0326727D01*
X0290450Y0321318D02*
X0290450Y0319383D01*
X0290450Y0320351D02*
X0287548Y0320351D01*
X0288515Y0319383D01*
X0288519Y0315280D02*
X0286584Y0315280D01*
X0286584Y0313829D01*
X0287552Y0314313D01*
X0288035Y0314313D01*
X0288519Y0313829D01*
X0288519Y0312861D01*
X0288035Y0312378D01*
X0287068Y0312378D01*
X0286584Y0312861D01*
X0285573Y0313829D02*
X0285089Y0313345D01*
X0283638Y0313345D01*
X0283638Y0312378D02*
X0283638Y0315280D01*
X0285089Y0315280D01*
X0285573Y0314796D01*
X0285573Y0313829D01*
X0282626Y0313345D02*
X0282626Y0315280D01*
X0282626Y0313345D02*
X0281658Y0312378D01*
X0280691Y0313345D01*
X0280691Y0315280D01*
X0279679Y0315280D02*
X0277744Y0315280D01*
X0278712Y0315280D02*
X0278712Y0312378D01*
X0289531Y0312378D02*
X0291466Y0312378D01*
X0290498Y0312378D02*
X0290498Y0315280D01*
X0289531Y0314313D01*
X0290188Y0341546D02*
X0291640Y0341546D01*
X0292123Y0342030D01*
X0292123Y0343965D01*
X0291640Y0344449D01*
X0290188Y0344449D01*
X0290188Y0341546D01*
X0288300Y0343839D02*
X0286365Y0341904D01*
X0286365Y0341420D01*
X0285353Y0341904D02*
X0285353Y0343839D01*
X0284870Y0344323D01*
X0283419Y0344323D01*
X0283419Y0341420D01*
X0284870Y0341420D01*
X0285353Y0341904D01*
X0286365Y0344323D02*
X0288300Y0344323D01*
X0288300Y0343839D01*
X0293135Y0343965D02*
X0293619Y0344449D01*
X0294586Y0344449D01*
X0295070Y0343965D01*
X0295070Y0343481D01*
X0294586Y0342997D01*
X0293619Y0342997D01*
X0293135Y0343481D01*
X0293135Y0343965D01*
X0293619Y0342997D02*
X0293135Y0342514D01*
X0293135Y0342030D01*
X0293619Y0341546D01*
X0294586Y0341546D01*
X0295070Y0342030D01*
X0295070Y0342514D01*
X0294586Y0342997D01*
X0301750Y0346783D02*
X0303685Y0346783D01*
X0302717Y0346783D02*
X0302717Y0349686D01*
X0301750Y0348718D01*
X0304697Y0349202D02*
X0304697Y0347267D01*
X0306631Y0349202D01*
X0306631Y0347267D01*
X0306148Y0346783D01*
X0305180Y0346783D01*
X0304697Y0347267D01*
X0304697Y0349202D02*
X0305180Y0349686D01*
X0306148Y0349686D01*
X0306631Y0349202D01*
X0307643Y0349202D02*
X0308127Y0349686D01*
X0309094Y0349686D01*
X0309578Y0349202D01*
X0307643Y0347267D01*
X0308127Y0346783D01*
X0309094Y0346783D01*
X0309578Y0347267D01*
X0309578Y0349202D01*
X0310590Y0348718D02*
X0310590Y0346783D01*
X0312525Y0346783D02*
X0312525Y0348234D01*
X0312041Y0348718D01*
X0310590Y0348718D01*
X0307643Y0349202D02*
X0307643Y0347267D01*
X0315164Y0346783D02*
X0317099Y0346783D01*
X0316131Y0346783D02*
X0316131Y0349686D01*
X0315164Y0348718D01*
X0318110Y0349202D02*
X0318110Y0347267D01*
X0320045Y0349202D01*
X0320045Y0347267D01*
X0319562Y0346783D01*
X0318594Y0346783D01*
X0318110Y0347267D01*
X0318110Y0349202D02*
X0318594Y0349686D01*
X0319562Y0349686D01*
X0320045Y0349202D01*
X0321057Y0349202D02*
X0321541Y0349686D01*
X0322508Y0349686D01*
X0322992Y0349202D01*
X0321057Y0347267D01*
X0321541Y0346783D01*
X0322508Y0346783D01*
X0322992Y0347267D01*
X0322992Y0349202D01*
X0324003Y0348718D02*
X0325455Y0348718D01*
X0325938Y0348234D01*
X0325938Y0346783D01*
X0324003Y0346783D02*
X0324003Y0348718D01*
X0321057Y0349202D02*
X0321057Y0347267D01*
X0336348Y0345341D02*
X0336831Y0345825D01*
X0338766Y0343890D01*
X0339250Y0344374D01*
X0339250Y0345341D01*
X0338766Y0345825D01*
X0336831Y0345825D01*
X0336348Y0345341D02*
X0336348Y0344374D01*
X0336831Y0343890D01*
X0338766Y0343890D01*
X0338766Y0342878D02*
X0339250Y0342395D01*
X0339250Y0341427D01*
X0338766Y0340944D01*
X0336831Y0342878D01*
X0338766Y0342878D01*
X0338766Y0340944D02*
X0336831Y0340944D01*
X0336348Y0341427D01*
X0336348Y0342395D01*
X0336831Y0342878D01*
X0339250Y0339932D02*
X0339250Y0337997D01*
X0339250Y0338964D02*
X0336348Y0338964D01*
X0337315Y0337997D01*
X0339950Y0336118D02*
X0340917Y0337086D01*
X0340917Y0334183D01*
X0339950Y0334183D02*
X0341885Y0334183D01*
X0342897Y0334667D02*
X0343380Y0334183D01*
X0344831Y0334183D01*
X0344831Y0336118D01*
X0342897Y0336118D02*
X0342897Y0334667D01*
X0339250Y0346837D02*
X0337315Y0346837D01*
X0337315Y0348288D01*
X0337799Y0348772D01*
X0339250Y0348772D01*
X0338431Y0364283D02*
X0337948Y0364767D01*
X0337948Y0365734D01*
X0338431Y0366218D01*
X0338915Y0366218D01*
X0339399Y0365734D01*
X0339883Y0366218D01*
X0340366Y0366218D01*
X0340850Y0365734D01*
X0340850Y0364767D01*
X0340366Y0364283D01*
X0339399Y0365251D02*
X0339399Y0365734D01*
X0340366Y0367230D02*
X0338431Y0369165D01*
X0337948Y0369165D01*
X0337948Y0367230D01*
X0340366Y0367230D02*
X0340850Y0367230D01*
X0340850Y0370176D02*
X0340850Y0370660D01*
X0340366Y0370660D01*
X0340366Y0370176D01*
X0340850Y0370176D01*
X0339399Y0371649D02*
X0339399Y0373584D01*
X0340850Y0373101D02*
X0337948Y0373101D01*
X0339399Y0371649D01*
X0334250Y0370660D02*
X0334250Y0370176D01*
X0333766Y0370176D01*
X0333766Y0370660D01*
X0334250Y0370660D01*
X0332799Y0371649D02*
X0332799Y0373584D01*
X0334250Y0373101D02*
X0331348Y0373101D01*
X0332799Y0371649D01*
X0331831Y0369165D02*
X0333766Y0367230D01*
X0334250Y0367230D01*
X0333766Y0366218D02*
X0334250Y0365734D01*
X0334250Y0364767D01*
X0333766Y0364283D01*
X0332799Y0365251D02*
X0332799Y0365734D01*
X0333283Y0366218D01*
X0333766Y0366218D01*
X0332799Y0365734D02*
X0332315Y0366218D01*
X0331831Y0366218D01*
X0331348Y0365734D01*
X0331348Y0364767D01*
X0331831Y0364283D01*
X0331348Y0367230D02*
X0331348Y0369165D01*
X0331831Y0369165D01*
X0326217Y0370276D02*
X0323315Y0370276D01*
X0323315Y0371727D01*
X0323799Y0372211D01*
X0324766Y0372211D01*
X0325250Y0371727D01*
X0325250Y0370276D01*
X0324766Y0369265D02*
X0325250Y0368781D01*
X0325250Y0367813D01*
X0324766Y0367330D01*
X0323799Y0367330D02*
X0323315Y0368297D01*
X0323315Y0368781D01*
X0323799Y0369265D01*
X0324766Y0369265D01*
X0323799Y0367330D02*
X0322348Y0367330D01*
X0322348Y0369265D01*
X0322348Y0365351D02*
X0325250Y0365351D01*
X0325250Y0366318D02*
X0325250Y0364383D01*
X0323315Y0364383D02*
X0322348Y0365351D01*
X0316550Y0365005D02*
X0313648Y0365005D01*
X0314615Y0364038D01*
X0316550Y0364038D02*
X0316550Y0365973D01*
X0315099Y0366984D02*
X0315099Y0368919D01*
X0316066Y0369931D02*
X0316066Y0370414D01*
X0316550Y0370414D01*
X0316550Y0369931D01*
X0316066Y0369931D01*
X0316066Y0371404D02*
X0316550Y0371888D01*
X0316550Y0372855D01*
X0316066Y0373339D01*
X0315583Y0373339D01*
X0315099Y0372855D01*
X0315099Y0372371D01*
X0315099Y0372855D02*
X0314615Y0373339D01*
X0314131Y0373339D01*
X0313648Y0372855D01*
X0313648Y0371888D01*
X0314131Y0371404D01*
X0314615Y0374350D02*
X0313648Y0375318D01*
X0316550Y0375318D01*
X0316550Y0376285D02*
X0316550Y0374350D01*
X0316550Y0380244D02*
X0313648Y0380244D01*
X0314615Y0381211D01*
X0313648Y0382178D01*
X0316550Y0382178D01*
X0316550Y0383190D02*
X0313648Y0383190D01*
X0315099Y0383190D02*
X0315099Y0385125D01*
X0314615Y0386137D02*
X0314615Y0388072D01*
X0316550Y0386137D01*
X0316550Y0388072D01*
X0316550Y0385125D02*
X0313648Y0385125D01*
X0322348Y0375158D02*
X0322348Y0373223D01*
X0325250Y0373223D01*
X0323799Y0373223D02*
X0323799Y0374190D01*
X0316550Y0368435D02*
X0313648Y0368435D01*
X0315099Y0366984D01*
X0305017Y0370876D02*
X0302115Y0370876D01*
X0302115Y0372327D01*
X0302599Y0372811D01*
X0303566Y0372811D01*
X0304050Y0372327D01*
X0304050Y0370876D01*
X0303566Y0369865D02*
X0304050Y0369381D01*
X0304050Y0368413D01*
X0303566Y0367930D01*
X0302599Y0367930D02*
X0302115Y0368897D01*
X0302115Y0369381D01*
X0302599Y0369865D01*
X0303566Y0369865D01*
X0302599Y0367930D02*
X0301148Y0367930D01*
X0301148Y0369865D01*
X0301148Y0365951D02*
X0304050Y0365951D01*
X0304050Y0366918D02*
X0304050Y0364983D01*
X0302115Y0364983D02*
X0301148Y0365951D01*
X0301148Y0373823D02*
X0301148Y0375758D01*
X0302599Y0374790D02*
X0302599Y0373823D01*
X0304050Y0373823D02*
X0301148Y0373823D01*
X0257748Y0362518D02*
X0256297Y0361551D01*
X0257748Y0360583D01*
X0256297Y0360583D02*
X0256297Y0363486D01*
X0254317Y0363486D02*
X0254317Y0360583D01*
X0253350Y0360583D02*
X0255285Y0360583D01*
X0253350Y0362518D02*
X0254317Y0363486D01*
X0246597Y0354312D02*
X0246597Y0351409D01*
X0247564Y0351409D02*
X0245629Y0351409D01*
X0244618Y0351409D02*
X0243650Y0352377D01*
X0243167Y0351409D02*
X0242683Y0351893D01*
X0242683Y0353828D01*
X0243167Y0354312D01*
X0244134Y0354312D01*
X0244618Y0353828D01*
X0244618Y0351893D01*
X0244134Y0351409D01*
X0243167Y0351409D01*
X0245629Y0353344D02*
X0246597Y0354312D01*
X0229411Y0335486D02*
X0229411Y0333551D01*
X0228443Y0332583D01*
X0227476Y0333551D01*
X0227476Y0335486D01*
X0226464Y0335486D02*
X0224529Y0335486D01*
X0224529Y0332583D01*
X0223518Y0332583D02*
X0221583Y0332583D01*
X0223518Y0334518D01*
X0223518Y0335002D01*
X0223034Y0335486D01*
X0222066Y0335486D01*
X0221583Y0335002D01*
X0220571Y0335002D02*
X0220571Y0334518D01*
X0220087Y0334034D01*
X0220571Y0333551D01*
X0220571Y0333067D01*
X0220087Y0332583D01*
X0219120Y0332583D01*
X0218636Y0333067D01*
X0217625Y0333067D02*
X0217141Y0332583D01*
X0216173Y0332583D01*
X0215690Y0333067D01*
X0215690Y0335002D01*
X0216173Y0335486D01*
X0217141Y0335486D01*
X0217625Y0335002D01*
X0217625Y0333067D01*
X0217625Y0332583D02*
X0216657Y0333551D01*
X0214678Y0334034D02*
X0214678Y0333067D01*
X0214194Y0332583D01*
X0213227Y0332583D01*
X0212743Y0333067D01*
X0212743Y0334034D02*
X0213711Y0334518D01*
X0214194Y0334518D01*
X0214678Y0334034D01*
X0214678Y0335486D02*
X0212743Y0335486D01*
X0212743Y0334034D01*
X0211731Y0334518D02*
X0211731Y0335002D01*
X0211248Y0335486D01*
X0210280Y0335486D01*
X0209797Y0335002D01*
X0208785Y0335486D02*
X0208785Y0332583D01*
X0207817Y0333551D01*
X0206850Y0332583D01*
X0206850Y0335486D01*
X0209797Y0332583D02*
X0211731Y0334518D01*
X0211731Y0332583D02*
X0209797Y0332583D01*
X0218636Y0335002D02*
X0219120Y0335486D01*
X0220087Y0335486D01*
X0220571Y0335002D01*
X0220087Y0334034D02*
X0219604Y0334034D01*
X0224529Y0334034D02*
X0225497Y0334034D01*
X0236948Y0325928D02*
X0239850Y0325928D01*
X0238883Y0325928D02*
X0237915Y0327379D01*
X0238883Y0325928D02*
X0239850Y0327379D01*
X0239850Y0324916D02*
X0239850Y0322981D01*
X0239850Y0323949D02*
X0236948Y0323949D01*
X0237915Y0322981D01*
X0236948Y0316772D02*
X0236948Y0314837D01*
X0239850Y0314837D01*
X0239850Y0313825D02*
X0238399Y0313825D01*
X0237915Y0313341D01*
X0237915Y0311890D01*
X0239850Y0311890D01*
X0239366Y0310878D02*
X0239850Y0310395D01*
X0239850Y0309427D01*
X0239366Y0308944D01*
X0237431Y0310878D01*
X0239366Y0310878D01*
X0239366Y0308944D02*
X0237431Y0308944D01*
X0236948Y0309427D01*
X0236948Y0310395D01*
X0237431Y0310878D01*
X0237431Y0307932D02*
X0236948Y0307448D01*
X0236948Y0306481D01*
X0237431Y0305997D01*
X0239366Y0305997D01*
X0237431Y0307932D01*
X0239366Y0307932D01*
X0239850Y0307448D01*
X0239850Y0306481D01*
X0239366Y0305997D01*
X0239850Y0304985D02*
X0239850Y0303050D01*
X0239850Y0304018D02*
X0236948Y0304018D01*
X0237915Y0303050D01*
X0237703Y0294786D02*
X0239638Y0294786D01*
X0238671Y0293334D02*
X0237703Y0293334D01*
X0236692Y0293334D02*
X0236692Y0291883D01*
X0237703Y0291883D02*
X0237703Y0294786D01*
X0236692Y0293334D02*
X0236208Y0293818D01*
X0234757Y0293818D01*
X0234757Y0291883D01*
X0233745Y0292367D02*
X0233262Y0291883D01*
X0232294Y0291883D01*
X0231810Y0292367D01*
X0233745Y0294302D01*
X0233745Y0292367D01*
X0231810Y0292367D02*
X0231810Y0294302D01*
X0232294Y0294786D01*
X0233262Y0294786D01*
X0233745Y0294302D01*
X0230799Y0294302D02*
X0228864Y0292367D01*
X0229348Y0291883D01*
X0230315Y0291883D01*
X0230799Y0292367D01*
X0230799Y0294302D01*
X0230315Y0294786D01*
X0229348Y0294786D01*
X0228864Y0294302D01*
X0228864Y0292367D01*
X0227852Y0291883D02*
X0225917Y0291883D01*
X0226885Y0291883D02*
X0226885Y0294786D01*
X0225917Y0293818D01*
X0221294Y0294318D02*
X0219843Y0293351D01*
X0221294Y0292383D01*
X0219843Y0292383D02*
X0219843Y0295286D01*
X0218831Y0294802D02*
X0216897Y0292867D01*
X0217380Y0292383D01*
X0218348Y0292383D01*
X0218831Y0292867D01*
X0218831Y0294802D01*
X0218348Y0295286D01*
X0217380Y0295286D01*
X0216897Y0294802D01*
X0216897Y0292867D01*
X0215885Y0292383D02*
X0213950Y0292383D01*
X0214917Y0292383D02*
X0214917Y0295286D01*
X0213950Y0294318D01*
X0196650Y0295350D02*
X0196650Y0297285D01*
X0196650Y0296318D02*
X0193748Y0296318D01*
X0194715Y0295350D01*
X0194231Y0298297D02*
X0193748Y0298781D01*
X0193748Y0299748D01*
X0194231Y0300232D01*
X0196166Y0298297D01*
X0196650Y0298781D01*
X0196650Y0299748D01*
X0196166Y0300232D01*
X0194231Y0300232D01*
X0194231Y0301244D02*
X0193748Y0301727D01*
X0193748Y0302695D01*
X0194231Y0303178D01*
X0196166Y0301244D01*
X0196650Y0301727D01*
X0196650Y0302695D01*
X0196166Y0303178D01*
X0194231Y0303178D01*
X0194715Y0304190D02*
X0194715Y0305641D01*
X0195199Y0306125D01*
X0196650Y0306125D01*
X0196650Y0307137D02*
X0193748Y0307137D01*
X0193748Y0309072D01*
X0195199Y0308104D02*
X0195199Y0307137D01*
X0194715Y0304190D02*
X0196650Y0304190D01*
X0196166Y0301244D02*
X0194231Y0301244D01*
X0194231Y0298297D02*
X0196166Y0298297D01*
X0165650Y0298748D02*
X0165650Y0297781D01*
X0165166Y0297297D01*
X0163231Y0299232D01*
X0165166Y0299232D01*
X0165650Y0298748D01*
X0165166Y0297297D02*
X0163231Y0297297D01*
X0162748Y0297781D01*
X0162748Y0298748D01*
X0163231Y0299232D01*
X0163231Y0300244D02*
X0162748Y0300727D01*
X0162748Y0301695D01*
X0163231Y0302178D01*
X0165166Y0300244D01*
X0165650Y0300727D01*
X0165650Y0301695D01*
X0165166Y0302178D01*
X0163231Y0302178D01*
X0163715Y0303190D02*
X0163715Y0304641D01*
X0164199Y0305125D01*
X0165650Y0305125D01*
X0165650Y0306137D02*
X0162748Y0306137D01*
X0162748Y0308072D01*
X0164199Y0307104D02*
X0164199Y0306137D01*
X0163715Y0303190D02*
X0165650Y0303190D01*
X0165166Y0300244D02*
X0163231Y0300244D01*
X0165650Y0296285D02*
X0165650Y0294350D01*
X0165650Y0295318D02*
X0162748Y0295318D01*
X0163715Y0294350D01*
X0122671Y0275386D02*
X0120736Y0275386D01*
X0120736Y0272483D01*
X0119725Y0272483D02*
X0119725Y0273934D01*
X0119241Y0274418D01*
X0117790Y0274418D01*
X0117790Y0272483D01*
X0116778Y0272967D02*
X0116294Y0272483D01*
X0115327Y0272483D01*
X0114843Y0272967D01*
X0116778Y0274902D01*
X0116778Y0272967D01*
X0116778Y0274902D02*
X0116294Y0275386D01*
X0115327Y0275386D01*
X0114843Y0274902D01*
X0114843Y0272967D01*
X0113831Y0272967D02*
X0113348Y0272483D01*
X0112380Y0272483D01*
X0111897Y0272967D01*
X0113831Y0274902D01*
X0113831Y0272967D01*
X0111897Y0272967D02*
X0111897Y0274902D01*
X0112380Y0275386D01*
X0113348Y0275386D01*
X0113831Y0274902D01*
X0110885Y0272483D02*
X0108950Y0272483D01*
X0109917Y0272483D02*
X0109917Y0275386D01*
X0108950Y0274418D01*
X0120736Y0273934D02*
X0121704Y0273934D01*
X0121094Y0253286D02*
X0121578Y0252802D01*
X0119643Y0250867D01*
X0120127Y0250383D01*
X0121094Y0250383D01*
X0121578Y0250867D01*
X0121578Y0252802D01*
X0121094Y0253286D02*
X0120127Y0253286D01*
X0119643Y0252802D01*
X0119643Y0250867D01*
X0118631Y0250867D02*
X0118148Y0250383D01*
X0117180Y0250383D01*
X0116697Y0250867D01*
X0118631Y0252802D01*
X0118631Y0250867D01*
X0116697Y0250867D02*
X0116697Y0252802D01*
X0117180Y0253286D01*
X0118148Y0253286D01*
X0118631Y0252802D01*
X0115685Y0250383D02*
X0113750Y0250383D01*
X0114717Y0250383D02*
X0114717Y0253286D01*
X0113750Y0252318D01*
X0122590Y0252318D02*
X0122590Y0250383D01*
X0124525Y0250383D02*
X0124525Y0251834D01*
X0124041Y0252318D01*
X0122590Y0252318D01*
X0125536Y0251834D02*
X0126504Y0251834D01*
X0125536Y0250383D02*
X0125536Y0253286D01*
X0127471Y0253286D01*
X0127071Y0239486D02*
X0125136Y0239486D01*
X0125136Y0236583D01*
X0124125Y0236583D02*
X0124125Y0238034D01*
X0123641Y0238518D01*
X0122190Y0238518D01*
X0122190Y0236583D01*
X0121178Y0237067D02*
X0120694Y0236583D01*
X0119727Y0236583D01*
X0119243Y0237067D01*
X0121178Y0239002D01*
X0121178Y0237067D01*
X0121178Y0239002D02*
X0120694Y0239486D01*
X0119727Y0239486D01*
X0119243Y0239002D01*
X0119243Y0237067D01*
X0118231Y0237067D02*
X0117748Y0236583D01*
X0116780Y0236583D01*
X0116297Y0237067D01*
X0118231Y0239002D01*
X0118231Y0237067D01*
X0116297Y0237067D02*
X0116297Y0239002D01*
X0116780Y0239486D01*
X0117748Y0239486D01*
X0118231Y0239002D01*
X0115285Y0236583D02*
X0113350Y0236583D01*
X0114317Y0236583D02*
X0114317Y0239486D01*
X0113350Y0238518D01*
X0125136Y0238034D02*
X0126104Y0238034D01*
X0125136Y0205986D02*
X0127071Y0205986D01*
X0126104Y0204534D02*
X0125136Y0204534D01*
X0124125Y0204534D02*
X0124125Y0203083D01*
X0125136Y0203083D02*
X0125136Y0205986D01*
X0124125Y0204534D02*
X0123641Y0205018D01*
X0122190Y0205018D01*
X0122190Y0203083D01*
X0121178Y0203567D02*
X0120694Y0203083D01*
X0119727Y0203083D01*
X0119243Y0203567D01*
X0121178Y0205502D01*
X0121178Y0203567D01*
X0121178Y0205502D02*
X0120694Y0205986D01*
X0119727Y0205986D01*
X0119243Y0205502D01*
X0119243Y0203567D01*
X0118231Y0203567D02*
X0118231Y0205502D01*
X0116297Y0203567D01*
X0116780Y0203083D01*
X0117748Y0203083D01*
X0118231Y0203567D01*
X0116297Y0203567D02*
X0116297Y0205502D01*
X0116780Y0205986D01*
X0117748Y0205986D01*
X0118231Y0205502D01*
X0115285Y0203083D02*
X0113350Y0203083D01*
X0114317Y0203083D02*
X0114317Y0205986D01*
X0113350Y0205018D01*
X0141694Y0165986D02*
X0141210Y0165502D01*
X0141210Y0165018D01*
X0141694Y0164534D01*
X0142662Y0164534D01*
X0143145Y0164051D01*
X0143145Y0163567D01*
X0142662Y0163083D01*
X0141694Y0163083D01*
X0141210Y0163567D01*
X0141694Y0165986D02*
X0142662Y0165986D01*
X0143145Y0165502D01*
X0144157Y0165986D02*
X0144157Y0163083D01*
X0145124Y0164051D01*
X0146092Y0163083D01*
X0146092Y0165986D01*
X0147103Y0165986D02*
X0148555Y0165986D01*
X0149038Y0165502D01*
X0149038Y0163567D01*
X0148555Y0163083D01*
X0147103Y0163083D01*
X0147103Y0165986D01*
X0160448Y0166469D02*
X0160448Y0168404D01*
X0161899Y0167437D02*
X0161899Y0166469D01*
X0161899Y0165458D02*
X0163350Y0165458D01*
X0163350Y0166469D02*
X0160448Y0166469D01*
X0161899Y0165458D02*
X0161415Y0164974D01*
X0161415Y0163523D01*
X0163350Y0163523D01*
X0162866Y0162511D02*
X0163350Y0162027D01*
X0163350Y0161060D01*
X0162866Y0160576D01*
X0160931Y0162511D01*
X0162866Y0162511D01*
X0160931Y0162511D02*
X0160448Y0162027D01*
X0160448Y0161060D01*
X0160931Y0160576D01*
X0162866Y0160576D01*
X0162866Y0159565D02*
X0163350Y0159081D01*
X0163350Y0158113D01*
X0162866Y0157630D01*
X0160931Y0159565D01*
X0162866Y0159565D01*
X0160931Y0159565D02*
X0160448Y0159081D01*
X0160448Y0158113D01*
X0160931Y0157630D01*
X0162866Y0157630D01*
X0163350Y0156618D02*
X0163350Y0154683D01*
X0163350Y0155651D02*
X0160448Y0155651D01*
X0161415Y0154683D01*
X0171148Y0155251D02*
X0174050Y0155251D01*
X0174050Y0156218D02*
X0174050Y0154283D01*
X0172115Y0154283D02*
X0171148Y0155251D01*
X0171631Y0157230D02*
X0171148Y0157713D01*
X0171148Y0158681D01*
X0171631Y0159165D01*
X0173566Y0157230D01*
X0174050Y0157713D01*
X0174050Y0158681D01*
X0173566Y0159165D01*
X0171631Y0159165D01*
X0171631Y0160176D02*
X0171148Y0160660D01*
X0171148Y0161627D01*
X0171631Y0162111D01*
X0173566Y0160176D01*
X0174050Y0160660D01*
X0174050Y0161627D01*
X0173566Y0162111D01*
X0171631Y0162111D01*
X0172115Y0163123D02*
X0172115Y0164574D01*
X0172599Y0165058D01*
X0174050Y0165058D01*
X0174050Y0166069D02*
X0171148Y0166069D01*
X0171148Y0168004D01*
X0172599Y0167037D02*
X0172599Y0166069D01*
X0172115Y0163123D02*
X0174050Y0163123D01*
X0173566Y0160176D02*
X0171631Y0160176D01*
X0171631Y0157230D02*
X0173566Y0157230D01*
X0181948Y0157713D02*
X0181948Y0158681D01*
X0182431Y0159165D01*
X0184366Y0157230D01*
X0184850Y0157713D01*
X0184850Y0158681D01*
X0184366Y0159165D01*
X0182431Y0159165D01*
X0182431Y0160176D02*
X0181948Y0160660D01*
X0181948Y0161627D01*
X0182431Y0162111D01*
X0184366Y0160176D01*
X0184850Y0160660D01*
X0184850Y0161627D01*
X0184366Y0162111D01*
X0182431Y0162111D01*
X0182915Y0163123D02*
X0182915Y0164574D01*
X0183399Y0165058D01*
X0184850Y0165058D01*
X0184850Y0166069D02*
X0181948Y0166069D01*
X0181948Y0168004D01*
X0183399Y0167037D02*
X0183399Y0166069D01*
X0182915Y0163123D02*
X0184850Y0163123D01*
X0184366Y0160176D02*
X0182431Y0160176D01*
X0181948Y0157713D02*
X0182431Y0157230D01*
X0184366Y0157230D01*
X0184850Y0156218D02*
X0184850Y0154283D01*
X0184850Y0155251D02*
X0181948Y0155251D01*
X0182915Y0154283D01*
X0192348Y0118072D02*
X0192348Y0116137D01*
X0195250Y0116137D01*
X0194766Y0115125D02*
X0195250Y0114641D01*
X0195250Y0113190D01*
X0196217Y0113190D02*
X0193315Y0113190D01*
X0193315Y0114641D01*
X0193799Y0115125D01*
X0194766Y0115125D01*
X0193799Y0116137D02*
X0193799Y0117104D01*
X0193315Y0112178D02*
X0192831Y0112178D01*
X0192348Y0111695D01*
X0192348Y0110727D01*
X0192831Y0110244D01*
X0193315Y0112178D02*
X0195250Y0110244D01*
X0195250Y0112178D01*
X0195250Y0109232D02*
X0195250Y0107297D01*
X0195250Y0108264D02*
X0192348Y0108264D01*
X0193315Y0107297D01*
X0200434Y0090686D02*
X0201401Y0090686D01*
X0201885Y0090202D01*
X0201885Y0089718D01*
X0201401Y0089234D01*
X0201885Y0088751D01*
X0201885Y0088267D01*
X0201401Y0087783D01*
X0200434Y0087783D01*
X0199950Y0088267D01*
X0200917Y0089234D02*
X0201401Y0089234D01*
X0202897Y0089234D02*
X0204831Y0089234D01*
X0205843Y0088267D02*
X0206327Y0088267D01*
X0206327Y0087783D01*
X0205843Y0087783D01*
X0205843Y0088267D01*
X0207316Y0088267D02*
X0207316Y0087783D01*
X0207316Y0088267D02*
X0209251Y0090202D01*
X0209251Y0090686D01*
X0207316Y0090686D01*
X0204348Y0090686D02*
X0204348Y0087783D01*
X0202897Y0089234D02*
X0204348Y0090686D01*
X0200434Y0090686D02*
X0199950Y0090202D01*
X0210263Y0089234D02*
X0211714Y0089234D01*
X0212198Y0088751D01*
X0212198Y0088267D01*
X0211714Y0087783D01*
X0210747Y0087783D01*
X0210263Y0088267D01*
X0210263Y0089234D01*
X0211230Y0090202D01*
X0212198Y0090686D01*
X0213209Y0090202D02*
X0213209Y0089718D01*
X0213693Y0089234D01*
X0214661Y0089234D01*
X0215144Y0088751D01*
X0215144Y0088267D01*
X0214661Y0087783D01*
X0213693Y0087783D01*
X0213209Y0088267D01*
X0213209Y0088751D01*
X0213693Y0089234D01*
X0214661Y0089234D02*
X0215144Y0089718D01*
X0215144Y0090202D01*
X0214661Y0090686D01*
X0213693Y0090686D01*
X0213209Y0090202D01*
X0216156Y0090686D02*
X0216156Y0087783D01*
X0216156Y0088751D02*
X0217607Y0087783D01*
X0218611Y0087783D02*
X0218611Y0090686D01*
X0217607Y0089718D02*
X0216156Y0088751D01*
X0218611Y0089234D02*
X0220546Y0089234D01*
X0221558Y0089718D02*
X0223493Y0089718D01*
X0221558Y0087783D01*
X0223493Y0087783D01*
X0220546Y0087783D02*
X0220546Y0090686D01*
X0226015Y0106397D02*
X0225048Y0107364D01*
X0227950Y0107364D01*
X0227950Y0106397D02*
X0227950Y0108332D01*
X0227950Y0109344D02*
X0226015Y0111278D01*
X0225531Y0111278D01*
X0225048Y0110795D01*
X0225048Y0109827D01*
X0225531Y0109344D01*
X0227950Y0109344D02*
X0227950Y0111278D01*
X0227950Y0112290D02*
X0227950Y0113741D01*
X0227466Y0114225D01*
X0226499Y0114225D01*
X0226015Y0113741D01*
X0226015Y0112290D01*
X0228917Y0112290D01*
X0227950Y0115237D02*
X0225048Y0115237D01*
X0225048Y0117172D01*
X0226499Y0116204D02*
X0226499Y0115237D01*
X0156988Y0079658D02*
X0155053Y0079658D01*
X0156021Y0079658D02*
X0156021Y0082560D01*
X0155053Y0081593D01*
X0154042Y0082560D02*
X0152107Y0082560D01*
X0152107Y0079658D01*
X0152107Y0081109D02*
X0153074Y0081109D01*
X0150255Y0073118D02*
X0148803Y0073118D01*
X0148803Y0071183D01*
X0147792Y0071667D02*
X0147308Y0071183D01*
X0146341Y0071183D01*
X0145857Y0071667D01*
X0147792Y0073602D01*
X0147792Y0071667D01*
X0147792Y0073602D02*
X0147308Y0074086D01*
X0146341Y0074086D01*
X0145857Y0073602D01*
X0145857Y0071667D01*
X0144845Y0071667D02*
X0144845Y0073602D01*
X0142910Y0071667D01*
X0143394Y0071183D01*
X0144362Y0071183D01*
X0144845Y0071667D01*
X0142910Y0071667D02*
X0142910Y0073602D01*
X0143394Y0074086D01*
X0144362Y0074086D01*
X0144845Y0073602D01*
X0141899Y0071183D02*
X0139964Y0071183D01*
X0140931Y0071183D02*
X0140931Y0074086D01*
X0139964Y0073118D01*
X0150255Y0073118D02*
X0150738Y0072634D01*
X0150738Y0071183D01*
X0136451Y0100422D02*
X0134516Y0100422D01*
X0135484Y0100422D02*
X0135484Y0103324D01*
X0134516Y0102357D01*
X0133505Y0102840D02*
X0133021Y0103324D01*
X0131570Y0103324D01*
X0131570Y0100422D01*
X0133021Y0100422D01*
X0133505Y0100905D01*
X0133505Y0102840D01*
X0130399Y0111744D02*
X0130399Y0113678D01*
X0131366Y0114690D02*
X0131850Y0115174D01*
X0131850Y0116141D01*
X0131366Y0116625D01*
X0130883Y0116625D01*
X0130399Y0116141D01*
X0130399Y0115658D01*
X0130399Y0116141D02*
X0129915Y0116625D01*
X0129431Y0116625D01*
X0128948Y0116141D01*
X0128948Y0115174D01*
X0129431Y0114690D01*
X0128948Y0113195D02*
X0130399Y0111744D01*
X0131850Y0113195D02*
X0128948Y0113195D01*
X0129431Y0117637D02*
X0128948Y0118120D01*
X0128948Y0119088D01*
X0129431Y0119572D01*
X0131366Y0117637D01*
X0131850Y0118120D01*
X0131850Y0119088D01*
X0131366Y0119572D01*
X0129431Y0119572D01*
X0129431Y0117637D02*
X0131366Y0117637D01*
X0135548Y0118037D02*
X0135548Y0119488D01*
X0136031Y0119972D01*
X0137966Y0119972D01*
X0138450Y0119488D01*
X0138450Y0118037D01*
X0135548Y0118037D01*
X0135548Y0117025D02*
X0135548Y0115090D01*
X0138450Y0115090D01*
X0138450Y0117025D01*
X0136999Y0116058D02*
X0136999Y0115090D01*
X0138450Y0114078D02*
X0138450Y0112144D01*
X0135548Y0112144D01*
X0117346Y0135783D02*
X0115895Y0136751D01*
X0117346Y0137718D01*
X0115895Y0138686D02*
X0115895Y0135783D01*
X0114883Y0136267D02*
X0114399Y0135783D01*
X0113432Y0135783D01*
X0112948Y0136267D01*
X0114883Y0138202D01*
X0114883Y0136267D01*
X0114883Y0138202D02*
X0114399Y0138686D01*
X0113432Y0138686D01*
X0112948Y0138202D01*
X0112948Y0136267D01*
X0111937Y0135783D02*
X0110002Y0135783D01*
X0110969Y0135783D02*
X0110969Y0138686D01*
X0110002Y0137718D01*
X0110402Y0142983D02*
X0112337Y0142983D01*
X0111369Y0142983D02*
X0111369Y0145886D01*
X0110402Y0144918D01*
X0113348Y0145402D02*
X0113348Y0143467D01*
X0115283Y0145402D01*
X0115283Y0143467D01*
X0114799Y0142983D01*
X0113832Y0142983D01*
X0113348Y0143467D01*
X0113348Y0145402D02*
X0113832Y0145886D01*
X0114799Y0145886D01*
X0115283Y0145402D01*
X0116295Y0145886D02*
X0116295Y0142983D01*
X0116295Y0143951D02*
X0117746Y0144918D01*
X0116295Y0143951D02*
X0117746Y0142983D01*
X0122102Y0154983D02*
X0124037Y0154983D01*
X0123069Y0154983D02*
X0123069Y0157886D01*
X0122102Y0156918D01*
X0125048Y0157402D02*
X0125048Y0155467D01*
X0126983Y0157402D01*
X0126983Y0155467D01*
X0126499Y0154983D01*
X0125532Y0154983D01*
X0125048Y0155467D01*
X0125048Y0157402D02*
X0125532Y0157886D01*
X0126499Y0157886D01*
X0126983Y0157402D01*
X0127995Y0157886D02*
X0127995Y0154983D01*
X0127995Y0155951D02*
X0129446Y0156918D01*
X0127995Y0155951D02*
X0129446Y0154983D01*
X0104731Y0129881D02*
X0104731Y0129398D01*
X0104247Y0128914D01*
X0104731Y0128430D01*
X0104731Y0127946D01*
X0104247Y0127463D01*
X0103280Y0127463D01*
X0102796Y0127946D01*
X0101784Y0128430D02*
X0100817Y0127463D01*
X0099849Y0128430D01*
X0099849Y0130365D01*
X0098838Y0129881D02*
X0098838Y0129398D01*
X0098354Y0128914D01*
X0098838Y0128430D01*
X0098838Y0127946D01*
X0098354Y0127463D01*
X0097387Y0127463D01*
X0096903Y0127946D01*
X0097870Y0128914D02*
X0098354Y0128914D01*
X0098838Y0129881D02*
X0098354Y0130365D01*
X0097387Y0130365D01*
X0096903Y0129881D01*
X0095891Y0126979D02*
X0093956Y0126979D01*
X0092945Y0127946D02*
X0092945Y0128914D01*
X0091977Y0128914D01*
X0091010Y0129881D02*
X0091010Y0127946D01*
X0091494Y0127463D01*
X0092461Y0127463D01*
X0092945Y0127946D01*
X0092945Y0129881D02*
X0092461Y0130365D01*
X0091494Y0130365D01*
X0091010Y0129881D01*
X0089998Y0130365D02*
X0088063Y0130365D01*
X0088063Y0127463D01*
X0089998Y0127463D01*
X0089031Y0128914D02*
X0088063Y0128914D01*
X0087052Y0128914D02*
X0086568Y0128430D01*
X0085117Y0128430D01*
X0086084Y0128430D02*
X0087052Y0127463D01*
X0087052Y0128914D02*
X0087052Y0129881D01*
X0086568Y0130365D01*
X0085117Y0130365D01*
X0085117Y0127463D01*
X0084105Y0126979D02*
X0082170Y0126979D01*
X0081159Y0127463D02*
X0081159Y0130365D01*
X0079224Y0130365D02*
X0079224Y0127463D01*
X0078227Y0127463D02*
X0077260Y0127463D01*
X0077743Y0127463D02*
X0077743Y0130365D01*
X0077260Y0130365D02*
X0078227Y0130365D01*
X0079224Y0130365D02*
X0081159Y0127463D01*
X0076248Y0127463D02*
X0074313Y0127463D01*
X0074313Y0130365D01*
X0086017Y0116486D02*
X0086017Y0113583D01*
X0085050Y0113583D02*
X0086985Y0113583D01*
X0087997Y0114067D02*
X0089931Y0116002D01*
X0089931Y0114067D01*
X0089448Y0113583D01*
X0088480Y0113583D01*
X0087997Y0114067D01*
X0087997Y0116002D01*
X0088480Y0116486D01*
X0089448Y0116486D01*
X0089931Y0116002D01*
X0090943Y0115518D02*
X0092394Y0115518D01*
X0092878Y0115034D01*
X0092878Y0113583D01*
X0093890Y0113583D02*
X0093890Y0116486D01*
X0095825Y0116486D01*
X0094857Y0115034D02*
X0093890Y0115034D01*
X0090943Y0115518D02*
X0090943Y0113583D01*
X0086017Y0116486D02*
X0085050Y0115518D01*
X0101784Y0128430D02*
X0101784Y0130365D01*
X0102796Y0129881D02*
X0103280Y0130365D01*
X0104247Y0130365D01*
X0104731Y0129881D01*
X0104247Y0128914D02*
X0103763Y0128914D01*
X0103819Y0115923D02*
X0105270Y0115923D01*
X0105753Y0115439D01*
X0105753Y0113504D01*
X0105270Y0113020D01*
X0103819Y0113020D01*
X0103819Y0115923D01*
X0106765Y0115439D02*
X0107249Y0115923D01*
X0108216Y0115923D01*
X0108700Y0115439D01*
X0108700Y0114955D01*
X0106765Y0113020D01*
X0108700Y0113020D01*
X0109712Y0113504D02*
X0110195Y0113020D01*
X0111163Y0113020D01*
X0111647Y0113504D01*
X0111647Y0113988D01*
X0111163Y0114471D01*
X0110679Y0114471D01*
X0111163Y0114471D02*
X0111647Y0114955D01*
X0111647Y0115439D01*
X0111163Y0115923D01*
X0110195Y0115923D01*
X0109712Y0115439D01*
X0110211Y0096486D02*
X0110211Y0093583D01*
X0111178Y0093583D02*
X0109243Y0093583D01*
X0108231Y0093583D02*
X0107264Y0094551D01*
X0107748Y0094551D02*
X0106297Y0094551D01*
X0106297Y0093583D02*
X0106297Y0096486D01*
X0107748Y0096486D01*
X0108231Y0096002D01*
X0108231Y0095034D01*
X0107748Y0094551D01*
X0109243Y0095518D02*
X0110211Y0096486D01*
X0105285Y0096486D02*
X0105285Y0094551D01*
X0104317Y0093583D01*
X0103350Y0094551D01*
X0103350Y0096486D01*
X0067531Y0149083D02*
X0067531Y0151018D01*
X0065597Y0151018D02*
X0065597Y0149567D01*
X0066080Y0149083D01*
X0067531Y0149083D01*
X0064585Y0149083D02*
X0062650Y0149083D01*
X0063617Y0149083D02*
X0063617Y0151986D01*
X0062650Y0151018D01*
X0063064Y0233483D02*
X0064999Y0233483D01*
X0064031Y0233483D02*
X0064031Y0236386D01*
X0063064Y0235418D01*
X0062052Y0236386D02*
X0062052Y0233483D01*
X0060117Y0233483D02*
X0060117Y0236386D01*
X0061085Y0235418D01*
X0062052Y0236386D01*
X0059106Y0234934D02*
X0057171Y0234934D01*
X0058622Y0236386D01*
X0058622Y0233483D01*
X0056159Y0233967D02*
X0055676Y0233483D01*
X0054708Y0233483D01*
X0054224Y0233967D01*
X0054224Y0235902D01*
X0054708Y0236386D01*
X0055676Y0236386D01*
X0056159Y0235902D01*
X0053213Y0234934D02*
X0051278Y0234934D01*
X0052729Y0236386D01*
X0052729Y0233483D01*
X0050266Y0233967D02*
X0049783Y0233483D01*
X0048815Y0233483D01*
X0048331Y0233967D01*
X0048815Y0234934D02*
X0049783Y0234934D01*
X0050266Y0234451D01*
X0050266Y0233967D01*
X0048815Y0234934D02*
X0048331Y0235418D01*
X0048331Y0235902D01*
X0048815Y0236386D01*
X0049783Y0236386D01*
X0050266Y0235902D01*
X0047320Y0235418D02*
X0046352Y0236386D01*
X0045385Y0235418D01*
X0045385Y0233483D01*
X0045385Y0234934D02*
X0047320Y0234934D01*
X0047320Y0235418D02*
X0047320Y0233483D01*
X0066010Y0233967D02*
X0066494Y0233483D01*
X0067462Y0233483D01*
X0067945Y0233967D01*
X0067945Y0234451D01*
X0067462Y0234934D01*
X0066010Y0234934D01*
X0066010Y0233967D01*
X0066010Y0234934D02*
X0066978Y0235902D01*
X0067945Y0236386D01*
X0068957Y0235902D02*
X0068957Y0235418D01*
X0069441Y0234934D01*
X0070408Y0234934D01*
X0070892Y0234451D01*
X0070892Y0233967D01*
X0070408Y0233483D01*
X0069441Y0233483D01*
X0068957Y0233967D01*
X0068957Y0235902D02*
X0069441Y0236386D01*
X0070408Y0236386D01*
X0070892Y0235902D01*
X0071903Y0235418D02*
X0072871Y0236386D01*
X0073838Y0235418D01*
X0073838Y0233483D01*
X0073838Y0234934D02*
X0071903Y0234934D01*
X0071903Y0235418D02*
X0071903Y0233483D01*
X0084150Y0287783D02*
X0086085Y0287783D01*
X0085117Y0287783D02*
X0085117Y0290686D01*
X0084150Y0289718D01*
X0087097Y0288751D02*
X0088548Y0289718D01*
X0087097Y0288751D02*
X0088548Y0287783D01*
X0087097Y0287783D02*
X0087097Y0290686D01*
X0086806Y0296957D02*
X0084871Y0296957D01*
X0086806Y0298892D01*
X0086806Y0299376D01*
X0086322Y0299860D01*
X0085354Y0299860D01*
X0084871Y0299376D01*
X0083859Y0299376D02*
X0083859Y0297441D01*
X0083375Y0296957D01*
X0082408Y0296957D01*
X0081924Y0297441D01*
X0081924Y0299376D01*
X0082408Y0299860D01*
X0083375Y0299860D01*
X0083859Y0299376D01*
X0082891Y0297925D02*
X0083859Y0296957D01*
X0083810Y0314683D02*
X0083810Y0317586D01*
X0084778Y0316618D01*
X0085745Y0317586D01*
X0085745Y0314683D01*
X0086757Y0314683D02*
X0086757Y0317586D01*
X0086757Y0316134D02*
X0088692Y0316134D01*
X0089703Y0316618D02*
X0091638Y0316618D01*
X0089703Y0314683D01*
X0091638Y0314683D01*
X0088692Y0314683D02*
X0088692Y0317586D01*
X0082799Y0314683D02*
X0080864Y0314683D01*
X0081831Y0314683D02*
X0081831Y0317586D01*
X0080864Y0316618D01*
X0079852Y0316618D02*
X0079369Y0316134D01*
X0079852Y0315651D01*
X0079852Y0315167D01*
X0079369Y0314683D01*
X0078401Y0314683D01*
X0077917Y0315167D01*
X0076928Y0315167D02*
X0076928Y0314683D01*
X0076444Y0314683D01*
X0076444Y0315167D01*
X0076928Y0315167D01*
X0075433Y0316134D02*
X0073498Y0316134D01*
X0074949Y0317586D01*
X0074949Y0314683D01*
X0072486Y0314683D02*
X0070551Y0314683D01*
X0071519Y0314683D02*
X0071519Y0317586D01*
X0070551Y0316618D01*
X0068050Y0318783D02*
X0068050Y0320718D01*
X0068050Y0319751D02*
X0065148Y0319751D01*
X0066115Y0318783D01*
X0066599Y0321730D02*
X0066115Y0322697D01*
X0066115Y0323181D01*
X0066599Y0323665D01*
X0067566Y0323665D01*
X0068050Y0323181D01*
X0068050Y0322213D01*
X0067566Y0321730D01*
X0066599Y0321730D02*
X0065148Y0321730D01*
X0065148Y0323665D01*
X0066115Y0324676D02*
X0066115Y0326127D01*
X0066599Y0326611D01*
X0067566Y0326611D01*
X0068050Y0326127D01*
X0068050Y0324676D01*
X0069017Y0324676D02*
X0066115Y0324676D01*
X0066599Y0327623D02*
X0066599Y0328590D01*
X0068050Y0327623D02*
X0065148Y0327623D01*
X0065148Y0329558D01*
X0064727Y0331583D02*
X0065694Y0331583D01*
X0066178Y0332067D01*
X0066178Y0334002D01*
X0064243Y0332067D01*
X0064727Y0331583D01*
X0064243Y0332067D02*
X0064243Y0334002D01*
X0064727Y0334486D01*
X0065694Y0334486D01*
X0066178Y0334002D01*
X0067190Y0333518D02*
X0068641Y0333518D01*
X0069125Y0333034D01*
X0069125Y0331583D01*
X0067190Y0331583D02*
X0067190Y0333518D01*
X0063231Y0334002D02*
X0061297Y0332067D01*
X0061780Y0331583D01*
X0062748Y0331583D01*
X0063231Y0332067D01*
X0063231Y0334002D01*
X0062748Y0334486D01*
X0061780Y0334486D01*
X0061297Y0334002D01*
X0061297Y0332067D01*
X0060285Y0331583D02*
X0058350Y0331583D01*
X0059317Y0331583D02*
X0059317Y0334486D01*
X0058350Y0333518D01*
X0058517Y0338183D02*
X0058517Y0341086D01*
X0057550Y0340118D01*
X0057550Y0338183D02*
X0059485Y0338183D01*
X0060497Y0338667D02*
X0062431Y0340602D01*
X0062431Y0338667D01*
X0061948Y0338183D01*
X0060980Y0338183D01*
X0060497Y0338667D01*
X0060497Y0340602D01*
X0060980Y0341086D01*
X0061948Y0341086D01*
X0062431Y0340602D01*
X0063443Y0340602D02*
X0063927Y0341086D01*
X0064894Y0341086D01*
X0065378Y0340602D01*
X0063443Y0338667D01*
X0063927Y0338183D01*
X0064894Y0338183D01*
X0065378Y0338667D01*
X0065378Y0340602D01*
X0066390Y0340118D02*
X0067841Y0340118D01*
X0068325Y0339634D01*
X0068325Y0338183D01*
X0066390Y0338183D02*
X0066390Y0340118D01*
X0063443Y0340602D02*
X0063443Y0338667D01*
X0063927Y0343983D02*
X0063443Y0344467D01*
X0065378Y0346402D01*
X0065378Y0344467D01*
X0064894Y0343983D01*
X0063927Y0343983D01*
X0063443Y0344467D02*
X0063443Y0346402D01*
X0063927Y0346886D01*
X0064894Y0346886D01*
X0065378Y0346402D01*
X0066390Y0345918D02*
X0067841Y0345918D01*
X0068325Y0345434D01*
X0068325Y0343983D01*
X0066390Y0343983D02*
X0066390Y0345918D01*
X0062431Y0346402D02*
X0060497Y0344467D01*
X0060980Y0343983D01*
X0061948Y0343983D01*
X0062431Y0344467D01*
X0062431Y0346402D01*
X0061948Y0346886D01*
X0060980Y0346886D01*
X0060497Y0346402D01*
X0060497Y0344467D01*
X0059485Y0343983D02*
X0057550Y0343983D01*
X0058517Y0343983D02*
X0058517Y0346886D01*
X0057550Y0345918D01*
X0055738Y0351383D02*
X0055738Y0353318D01*
X0053803Y0353318D02*
X0053803Y0351867D01*
X0054287Y0351383D01*
X0055738Y0351383D01*
X0052792Y0351383D02*
X0050857Y0351383D01*
X0051824Y0351383D02*
X0051824Y0354286D01*
X0050857Y0353318D01*
X0050457Y0358183D02*
X0052392Y0358183D01*
X0051424Y0358183D02*
X0051424Y0361086D01*
X0050457Y0360118D01*
X0053403Y0360118D02*
X0053403Y0358667D01*
X0053887Y0358183D01*
X0055338Y0358183D01*
X0055338Y0360118D01*
X0059750Y0362783D02*
X0061685Y0362783D01*
X0060717Y0362783D02*
X0060717Y0365686D01*
X0059750Y0364718D01*
X0062697Y0364718D02*
X0062697Y0363267D01*
X0063180Y0362783D01*
X0064631Y0362783D01*
X0064631Y0364718D01*
X0069202Y0375583D02*
X0071137Y0375583D01*
X0070169Y0375583D02*
X0070169Y0378486D01*
X0069202Y0377518D01*
X0072148Y0378002D02*
X0072632Y0378486D01*
X0073599Y0378486D01*
X0074083Y0378002D01*
X0072148Y0376067D01*
X0072632Y0375583D01*
X0073599Y0375583D01*
X0074083Y0376067D01*
X0074083Y0378002D01*
X0075095Y0378486D02*
X0075095Y0375583D01*
X0075095Y0376551D02*
X0076546Y0377518D01*
X0075095Y0376551D02*
X0076546Y0375583D01*
X0079464Y0375583D02*
X0081399Y0375583D01*
X0080431Y0375583D02*
X0080431Y0378486D01*
X0079464Y0377518D01*
X0082410Y0378002D02*
X0082410Y0376067D01*
X0084345Y0378002D01*
X0084345Y0376067D01*
X0083862Y0375583D01*
X0082894Y0375583D01*
X0082410Y0376067D01*
X0082410Y0378002D02*
X0082894Y0378486D01*
X0083862Y0378486D01*
X0084345Y0378002D01*
X0085357Y0378002D02*
X0085841Y0378486D01*
X0086808Y0378486D01*
X0087292Y0378002D01*
X0085357Y0376067D01*
X0085841Y0375583D01*
X0086808Y0375583D01*
X0087292Y0376067D01*
X0087292Y0378002D01*
X0088303Y0377518D02*
X0088303Y0375583D01*
X0088303Y0377518D02*
X0089755Y0377518D01*
X0090238Y0377034D01*
X0090238Y0375583D01*
X0085357Y0376067D02*
X0085357Y0378002D01*
X0090090Y0365091D02*
X0092025Y0365091D01*
X0091058Y0365091D02*
X0091058Y0362189D01*
X0093037Y0363156D02*
X0093037Y0365091D01*
X0094972Y0365091D02*
X0094972Y0363156D01*
X0094004Y0362189D01*
X0093037Y0363156D01*
X0095983Y0363156D02*
X0097435Y0363156D01*
X0097918Y0363640D01*
X0097918Y0364607D01*
X0097435Y0365091D01*
X0095983Y0365091D01*
X0095983Y0362189D01*
X0097615Y0360974D02*
X0098099Y0361458D01*
X0099550Y0361458D01*
X0099414Y0362189D02*
X0100381Y0362189D01*
X0100865Y0362672D01*
X0100865Y0363640D01*
X0100381Y0364124D01*
X0099897Y0364124D01*
X0098930Y0363640D01*
X0098930Y0365091D01*
X0100865Y0365091D01*
X0101876Y0364124D02*
X0102844Y0365091D01*
X0102844Y0362189D01*
X0103811Y0362189D02*
X0101876Y0362189D01*
X0099414Y0362189D02*
X0098930Y0362672D01*
X0097615Y0360974D02*
X0097615Y0359523D01*
X0099550Y0359523D01*
X0099066Y0358511D02*
X0099550Y0358027D01*
X0099550Y0357060D01*
X0099066Y0356576D01*
X0097131Y0358511D01*
X0099066Y0358511D01*
X0097131Y0358511D02*
X0096648Y0358027D01*
X0096648Y0357060D01*
X0097131Y0356576D01*
X0099066Y0356576D01*
X0099066Y0355565D02*
X0099550Y0355081D01*
X0099550Y0354113D01*
X0099066Y0353630D01*
X0097131Y0355565D01*
X0099066Y0355565D01*
X0097131Y0355565D02*
X0096648Y0355081D01*
X0096648Y0354113D01*
X0097131Y0353630D01*
X0099066Y0353630D01*
X0099550Y0352618D02*
X0099550Y0350683D01*
X0099550Y0351651D02*
X0096648Y0351651D01*
X0097615Y0350683D01*
X0103148Y0353051D02*
X0106050Y0353051D01*
X0106050Y0354018D02*
X0106050Y0352083D01*
X0104115Y0352083D02*
X0103148Y0353051D01*
X0103631Y0355030D02*
X0103148Y0355513D01*
X0103148Y0356481D01*
X0103631Y0356965D01*
X0105566Y0355030D01*
X0106050Y0355513D01*
X0106050Y0356481D01*
X0105566Y0356965D01*
X0103631Y0356965D01*
X0103148Y0357976D02*
X0106050Y0357976D01*
X0105083Y0357976D02*
X0104115Y0359427D01*
X0105083Y0357976D02*
X0106050Y0359427D01*
X0106274Y0362189D02*
X0105307Y0362189D01*
X0104823Y0362672D01*
X0104823Y0363640D02*
X0105790Y0364124D01*
X0106274Y0364124D01*
X0106758Y0363640D01*
X0106758Y0362672D01*
X0106274Y0362189D01*
X0107769Y0362672D02*
X0109704Y0364607D01*
X0109704Y0362672D01*
X0109221Y0362189D01*
X0108253Y0362189D01*
X0107769Y0362672D01*
X0107769Y0364607D01*
X0108253Y0365091D01*
X0109221Y0365091D01*
X0109704Y0364607D01*
X0110716Y0364124D02*
X0111683Y0365091D01*
X0112651Y0364124D01*
X0112651Y0362189D01*
X0113662Y0362189D02*
X0113662Y0365091D01*
X0114630Y0364124D01*
X0115597Y0365091D01*
X0115597Y0362189D01*
X0116609Y0362189D02*
X0118544Y0362189D01*
X0117576Y0362189D02*
X0117576Y0365091D01*
X0116609Y0364124D01*
X0112651Y0363640D02*
X0110716Y0363640D01*
X0110716Y0364124D02*
X0110716Y0362189D01*
X0106758Y0365091D02*
X0104823Y0365091D01*
X0104823Y0363640D01*
X0105566Y0355030D02*
X0103631Y0355030D01*
X0094441Y0333918D02*
X0094925Y0333434D01*
X0094925Y0331983D01*
X0092990Y0331983D02*
X0092990Y0333918D01*
X0094441Y0333918D01*
X0091978Y0334402D02*
X0090043Y0332467D01*
X0090527Y0331983D01*
X0091494Y0331983D01*
X0091978Y0332467D01*
X0091978Y0334402D01*
X0091494Y0334886D01*
X0090527Y0334886D01*
X0090043Y0334402D01*
X0090043Y0332467D01*
X0089031Y0332467D02*
X0088548Y0331983D01*
X0087580Y0331983D01*
X0087097Y0332467D01*
X0089031Y0334402D01*
X0089031Y0332467D01*
X0087097Y0332467D02*
X0087097Y0334402D01*
X0087580Y0334886D01*
X0088548Y0334886D01*
X0089031Y0334402D01*
X0086085Y0331983D02*
X0084150Y0331983D01*
X0085117Y0331983D02*
X0085117Y0334886D01*
X0084150Y0333918D01*
X0097948Y0329558D02*
X0097948Y0327623D01*
X0100850Y0327623D01*
X0100366Y0326611D02*
X0100850Y0326127D01*
X0100850Y0324676D01*
X0101817Y0324676D02*
X0098915Y0324676D01*
X0098915Y0326127D01*
X0099399Y0326611D01*
X0100366Y0326611D01*
X0099399Y0327623D02*
X0099399Y0328590D01*
X0099399Y0323665D02*
X0100366Y0323665D01*
X0100850Y0323181D01*
X0100850Y0322213D01*
X0100366Y0321730D01*
X0099399Y0321730D02*
X0098915Y0322697D01*
X0098915Y0323181D01*
X0099399Y0323665D01*
X0097948Y0323665D02*
X0097948Y0321730D01*
X0099399Y0321730D01*
X0100850Y0320718D02*
X0100850Y0318783D01*
X0100850Y0319751D02*
X0097948Y0319751D01*
X0098915Y0318783D01*
X0079852Y0317102D02*
X0079852Y0316618D01*
X0079852Y0317102D02*
X0079369Y0317586D01*
X0078401Y0317586D01*
X0077917Y0317102D01*
X0078885Y0316134D02*
X0079369Y0316134D01*
X0055878Y0314365D02*
X0053943Y0314365D01*
X0053943Y0312914D01*
X0054911Y0313398D01*
X0055395Y0313398D01*
X0055878Y0312914D01*
X0055878Y0311946D01*
X0055395Y0311463D01*
X0054427Y0311463D01*
X0053943Y0311946D01*
X0052932Y0311463D02*
X0052932Y0314365D01*
X0051964Y0313398D01*
X0050997Y0314365D01*
X0050997Y0311463D01*
X0049018Y0311463D02*
X0049018Y0312914D01*
X0049985Y0313881D01*
X0049985Y0314365D01*
X0049018Y0312914D02*
X0048050Y0313881D01*
X0048050Y0314365D01*
X0047039Y0313881D02*
X0047039Y0313398D01*
X0046555Y0312914D01*
X0045588Y0312914D01*
X0045104Y0313398D01*
X0045104Y0313881D01*
X0045588Y0314365D01*
X0046555Y0314365D01*
X0047039Y0313881D01*
X0046555Y0312914D02*
X0047039Y0312430D01*
X0047039Y0311946D01*
X0046555Y0311463D01*
X0045588Y0311463D01*
X0045104Y0311946D01*
X0045104Y0312430D01*
X0045588Y0312914D01*
X0044114Y0311946D02*
X0044114Y0311463D01*
X0043631Y0311463D01*
X0043631Y0311946D01*
X0044114Y0311946D01*
X0042619Y0311463D02*
X0040684Y0311463D01*
X0041652Y0311463D02*
X0041652Y0314365D01*
X0040684Y0313398D01*
X0039673Y0312914D02*
X0037738Y0312914D01*
X0036726Y0313881D02*
X0034791Y0311946D01*
X0034791Y0311463D01*
X0033296Y0311463D02*
X0033296Y0314365D01*
X0031845Y0312914D01*
X0033779Y0312914D01*
X0034791Y0314365D02*
X0036726Y0314365D01*
X0036726Y0313881D01*
X0030833Y0313881D02*
X0030349Y0314365D01*
X0029382Y0314365D01*
X0028898Y0313881D01*
X0027886Y0314365D02*
X0025951Y0314365D01*
X0025951Y0312914D01*
X0026919Y0313398D01*
X0027403Y0313398D01*
X0027886Y0312914D01*
X0027886Y0311946D01*
X0027403Y0311463D01*
X0026435Y0311463D01*
X0025951Y0311946D01*
X0024940Y0311946D02*
X0024456Y0311463D01*
X0023489Y0311463D01*
X0023005Y0311946D01*
X0023005Y0313881D01*
X0023489Y0314365D01*
X0024456Y0314365D01*
X0024940Y0313881D01*
X0022008Y0314365D02*
X0021041Y0314365D01*
X0021524Y0314365D02*
X0021524Y0311463D01*
X0021041Y0311463D02*
X0022008Y0311463D01*
X0020029Y0311463D02*
X0020029Y0314365D01*
X0019062Y0313398D01*
X0018094Y0314365D01*
X0018094Y0311463D01*
X0028898Y0311463D02*
X0030833Y0313398D01*
X0030833Y0313881D01*
X0030833Y0311463D02*
X0028898Y0311463D01*
X0036524Y0291275D02*
X0037975Y0291275D01*
X0038459Y0290791D01*
X0038459Y0290307D01*
X0037975Y0289823D01*
X0036524Y0289823D01*
X0036524Y0288372D02*
X0037975Y0288372D01*
X0038459Y0288856D01*
X0038459Y0289340D01*
X0037975Y0289823D01*
X0039471Y0288856D02*
X0039954Y0288372D01*
X0040922Y0288372D01*
X0041406Y0288856D01*
X0041406Y0291275D01*
X0042417Y0291275D02*
X0044352Y0291275D01*
X0044352Y0290791D01*
X0042417Y0288856D01*
X0042417Y0288372D01*
X0044352Y0288372D01*
X0045364Y0288372D02*
X0047299Y0288372D01*
X0048310Y0288372D02*
X0050245Y0288372D01*
X0051257Y0288372D02*
X0051257Y0291275D01*
X0052708Y0291275D01*
X0053192Y0290791D01*
X0053192Y0289823D01*
X0052708Y0289340D01*
X0051257Y0289340D01*
X0052224Y0289340D02*
X0053192Y0288372D01*
X0050245Y0291275D02*
X0048310Y0291275D01*
X0048310Y0288372D01*
X0048310Y0289823D02*
X0049278Y0289823D01*
X0047299Y0290791D02*
X0045364Y0288856D01*
X0045364Y0288372D01*
X0045364Y0291275D02*
X0047299Y0291275D01*
X0047299Y0290791D01*
X0039471Y0291275D02*
X0039471Y0288856D01*
X0036524Y0288372D02*
X0036524Y0291275D01*
X0017988Y0272786D02*
X0017021Y0272302D01*
X0016053Y0271334D01*
X0017505Y0271334D01*
X0017988Y0270851D01*
X0017988Y0270367D01*
X0017505Y0269883D01*
X0016537Y0269883D01*
X0016053Y0270367D01*
X0016053Y0271334D01*
X0015042Y0271334D02*
X0015042Y0272302D01*
X0014558Y0272786D01*
X0013107Y0272786D01*
X0013107Y0269883D01*
X0013107Y0270851D02*
X0014558Y0270851D01*
X0015042Y0271334D01*
X0014074Y0270851D02*
X0015042Y0269883D01*
X0022834Y0332583D02*
X0022350Y0333067D01*
X0022834Y0332583D02*
X0023801Y0332583D01*
X0024285Y0333067D01*
X0024285Y0333551D01*
X0023801Y0334034D01*
X0023317Y0334034D01*
X0023801Y0334034D02*
X0024285Y0334518D01*
X0024285Y0335002D01*
X0023801Y0335486D01*
X0022834Y0335486D01*
X0022350Y0335002D01*
X0025297Y0335486D02*
X0027231Y0335486D01*
X0027231Y0335002D01*
X0025297Y0333067D01*
X0025297Y0332583D01*
X0028243Y0332583D02*
X0028727Y0332583D01*
X0028727Y0333067D01*
X0028243Y0333067D01*
X0028243Y0332583D01*
X0029716Y0334034D02*
X0031651Y0334034D01*
X0031168Y0332583D02*
X0031168Y0335486D01*
X0029716Y0334034D01*
X0030768Y0338183D02*
X0030768Y0341086D01*
X0029316Y0339634D01*
X0031251Y0339634D01*
X0028327Y0338667D02*
X0028327Y0338183D01*
X0027843Y0338183D01*
X0027843Y0338667D01*
X0028327Y0338667D01*
X0026831Y0340602D02*
X0024897Y0338667D01*
X0024897Y0338183D01*
X0023885Y0338667D02*
X0023401Y0338183D01*
X0022434Y0338183D01*
X0021950Y0338667D01*
X0022917Y0339634D02*
X0023401Y0339634D01*
X0023885Y0339151D01*
X0023885Y0338667D01*
X0023401Y0339634D02*
X0023885Y0340118D01*
X0023885Y0340602D01*
X0023401Y0341086D01*
X0022434Y0341086D01*
X0021950Y0340602D01*
X0024897Y0341086D02*
X0026831Y0341086D01*
X0026831Y0340602D01*
X0027019Y0362820D02*
X0028470Y0362820D01*
X0028953Y0363304D01*
X0028953Y0365239D01*
X0028470Y0365723D01*
X0027019Y0365723D01*
X0027019Y0362820D01*
X0029965Y0363304D02*
X0030449Y0362820D01*
X0031416Y0362820D01*
X0031900Y0363304D01*
X0031900Y0364271D01*
X0031416Y0364755D01*
X0030933Y0364755D01*
X0029965Y0364271D01*
X0029965Y0365723D01*
X0031900Y0365723D01*
X0033019Y0365723D02*
X0034470Y0365723D01*
X0034953Y0365239D01*
X0034953Y0363304D01*
X0034470Y0362820D01*
X0033019Y0362820D01*
X0033019Y0365723D01*
X0035965Y0364271D02*
X0037416Y0364271D01*
X0037900Y0363788D01*
X0037900Y0363304D01*
X0037416Y0362820D01*
X0036449Y0362820D01*
X0035965Y0363304D01*
X0035965Y0364271D01*
X0036933Y0365239D01*
X0037900Y0365723D01*
X0072148Y0376067D02*
X0072148Y0378002D01*
X0238399Y0315804D02*
X0238399Y0314837D01*
X0330857Y0317583D02*
X0332792Y0317583D01*
X0331824Y0317583D02*
X0331824Y0320486D01*
X0330857Y0319518D01*
X0333803Y0319518D02*
X0333803Y0318067D01*
X0334287Y0317583D01*
X0335738Y0317583D01*
X0335738Y0319518D01*
X0339950Y0319718D02*
X0340917Y0320686D01*
X0340917Y0317783D01*
X0339950Y0317783D02*
X0341885Y0317783D01*
X0342897Y0318267D02*
X0343380Y0317783D01*
X0344831Y0317783D01*
X0344831Y0319718D01*
X0342897Y0319718D02*
X0342897Y0318267D01*
X0327818Y0201186D02*
X0328436Y0200569D01*
X0328436Y0199952D01*
X0327818Y0199335D01*
X0325967Y0199335D01*
X0324752Y0198717D02*
X0324752Y0198100D01*
X0324135Y0197483D01*
X0322901Y0197483D01*
X0322284Y0198100D01*
X0321069Y0198100D02*
X0321069Y0201186D01*
X0322284Y0200569D02*
X0322284Y0199952D01*
X0322901Y0199335D01*
X0324135Y0199335D01*
X0324752Y0198717D01*
X0325967Y0197483D02*
X0325967Y0201186D01*
X0327818Y0201186D01*
X0327818Y0199335D02*
X0328436Y0198717D01*
X0328436Y0198100D01*
X0327818Y0197483D01*
X0325967Y0197483D01*
X0324752Y0200569D02*
X0324135Y0201186D01*
X0322901Y0201186D01*
X0322284Y0200569D01*
X0321069Y0198100D02*
X0320452Y0197483D01*
X0319218Y0197483D01*
X0318601Y0198100D01*
X0318601Y0201186D01*
X0334588Y0190049D02*
X0334588Y0187146D01*
X0336040Y0187146D01*
X0336523Y0187630D01*
X0336523Y0189565D01*
X0336040Y0190049D01*
X0334588Y0190049D01*
X0337535Y0189565D02*
X0338019Y0190049D01*
X0338986Y0190049D01*
X0339470Y0189565D01*
X0339470Y0189081D01*
X0338986Y0188597D01*
X0339470Y0188114D01*
X0339470Y0187630D01*
X0338986Y0187146D01*
X0338019Y0187146D01*
X0337535Y0187630D01*
X0338502Y0188597D02*
X0338986Y0188597D01*
D16*
X0116700Y0157133D02*
X0116700Y0147133D01*
X0076700Y0147333D02*
X0076700Y0157333D01*
D17*
X0080272Y0296102D02*
X0071492Y0296102D01*
X0071492Y0300078D01*
X0080272Y0300078D01*
X0080272Y0296102D01*
X0223670Y0153039D02*
X0224457Y0153826D01*
X0243749Y0153826D01*
X0244536Y0153039D01*
X0244536Y0141228D02*
X0243749Y0140440D01*
X0224851Y0140440D01*
X0224064Y0141228D01*
X0242955Y0355325D02*
X0246931Y0355325D01*
X0246931Y0364105D01*
X0242955Y0364105D01*
X0242955Y0355325D01*
D18*
X0251075Y0064106D02*
X0229028Y0042059D01*
X0169972Y0042059D01*
X0147925Y0064106D01*
X0123122Y0064106D01*
X0123122Y0026311D01*
X0136508Y0026311D01*
X0136508Y0018437D01*
X0123122Y0018437D01*
X0123122Y0012531D01*
X0276665Y0012531D01*
X0276665Y0018437D01*
X0262492Y0018437D01*
X0262492Y0026311D01*
X0276665Y0026311D01*
X0276665Y0064106D01*
X0251075Y0064106D01*
M02*
