%
M48
M72
T01C0.01200
T02C0.04000
T03C0.05709
T04C0.09000
T05C0.15748
T06C0.16000
%
T01
X41100Y32933
X60300Y47733
X80300Y32933
X99000Y47933
X108000Y47933
X117000Y47933
X120700Y33333
X117000Y60433
X108000Y60433
X99000Y60433
X107100Y89733
X100500Y114433
X86700Y134533
X81900Y148533
X81700Y155933
X76300Y167733
X87500Y185433
X91900Y183733
X96300Y180533
X101100Y190133
X100300Y198933
X105100Y201733
X101500Y204533
X105100Y207333
X101100Y213333
X95500Y210133
X93100Y213333
X87100Y213333
X87900Y220133
X92300Y226533
X96900Y227533
X101100Y224933
X100300Y231733
X97500Y234533
X99900Y237733
X94700Y240533
X89500Y237733
X87500Y247333
X91100Y247733
X93900Y250133
X101500Y250933
X108700Y245233
X112200Y246733
X124700Y256533
X119100Y264533
X113800Y262833
X103300Y262733
X95400Y260133
X87000Y259833
X86300Y264533
X75100Y254933
X76300Y249733
X66300Y244133
X63500Y248533
X60900Y245833
X58300Y248533
X55700Y245833
X53100Y248533
X50500Y245933
X47900Y248533
X47100Y242533
X48300Y226933
X68300Y216533
X71900Y217333
X74700Y220133
X77900Y222533
X76700Y227333
X73500Y207733
X65900Y200933
X63100Y198133
X49900Y200933
X49900Y191333
X41500Y191333
X31300Y185333
X31300Y179333
X41500Y179333
X55900Y178933
X76300Y188933
X87100Y194733
X89500Y197733
X91900Y191633
X109500Y180533
X112300Y193333
X111000Y199033
X119900Y191733
X125900Y189333
X123500Y180533
X137500Y185333
X137500Y191333
X137900Y204133
X152700Y206933
X155900Y208933
X159100Y211533
X155500Y214533
X147900Y219733
X137900Y219733
X122700Y217033
X121900Y228933
X115700Y228533
X108700Y231733
X104700Y231833
X137100Y248533
X147100Y246933
X161900Y246533
X169100Y253733
X171700Y251133
X171700Y256333
X169100Y258933
X171700Y261533
X169100Y264133
X171700Y266733
X169100Y269333
X171900Y272133
X169100Y274933
X165100Y276133
X161100Y276933
X158300Y272533
X155500Y276133
X152700Y272533
X149900Y276133
X147100Y272533
X145900Y268533
X136800Y276233
X144800Y282633
X135900Y287333
X135900Y291533
X128700Y285933
X123900Y293633
X119100Y302933
X115900Y307033
X117800Y317533
X113800Y317533
X117800Y321533
X121800Y321533
X119900Y328133
X125400Y329133
X128600Y331033
X122000Y333533
X126800Y323933
X129900Y317333
X135500Y322933
X138300Y325733
X141500Y339333
X132300Y338733
X130300Y341833
X133100Y344533
X132300Y351333
X134700Y355333
X137900Y350133
X140700Y354133
X143500Y350133
X146300Y354133
X149100Y350133
X151900Y353733
X154700Y350133
X157500Y353733
X154500Y358533
X159100Y346933
X166600Y336033
X172700Y342233
X172700Y350533
X182900Y351133
X182900Y347333
X189500Y350533
X186400Y358433
X191100Y369733
X197900Y370933
X201000Y372933
X204700Y372933
X208700Y372933
X209200Y368933
X212300Y370933
X205200Y367333
X207200Y358533
X215100Y357333
X221100Y358533
X225000Y358533
X222700Y370533
X219900Y374533
X229100Y374933
X238700Y370133
X251500Y372933
X251100Y376933
X252700Y362333
X268700Y362933
X280700Y362933
X292700Y366933
X298700Y374933
X302900Y364133
X311500Y368133
X307900Y348533
X303900Y348133
X296900Y342333
X303100Y336133
X317100Y348533
X327500Y344033
X347100Y335733
X347900Y305333
X328700Y305333
X323100Y297333
X325800Y294433
X319900Y294533
X317100Y297333
X314300Y294533
X311500Y291333
X308700Y294533
X305900Y291333
X303100Y294533
X300300Y291333
X297500Y294533
X294700Y291333
X281300Y298433
X258700Y298933
X241500Y298933
X235100Y294533
X234900Y303033
X224500Y297933
X219300Y312133
X228700Y322533
X233500Y317733
X240700Y325333
X231900Y332533
X254700Y344933
X282300Y336133
X309500Y306333
X318300Y304133
X317700Y318633
X325900Y283333
X347900Y283333
X315200Y263333
X306300Y264133
X294700Y265333
X294700Y268933
X281300Y271133
X281300Y259333
X281300Y247733
X281300Y236133
X295500Y235733
X295500Y243733
X313500Y243733
X320700Y236133
X326700Y247733
X299500Y210133
X294789Y206483
X295011Y202583
X293900Y191333
X280900Y201333
X276700Y197733
X269000Y193433
X262611Y202583
X262389Y206483
X253900Y202533
X240700Y194533
X229900Y185333
X216700Y178133
X206300Y177733
X196300Y185333
X190500Y179833
X186500Y177933
X182600Y179733
X172600Y187133
X170800Y179633
X162900Y179833
X150800Y187133
X150700Y193333
X168300Y193733
X182300Y198133
X182300Y217733
X172300Y224933
X166700Y231333
X164700Y234533
X167100Y237333
X169900Y240133
X172700Y242933
X176700Y236533
X179500Y233733
X185500Y233333
X209900Y233333
X215100Y217733
X215100Y198133
X240300Y216533
X255000Y226933
X256200Y240133
X265900Y239733
X265800Y244433
X264400Y251033
X261100Y254933
X254200Y258433
X259500Y263733
X258000Y267333
X254300Y267333
X254300Y273333
X258600Y277133
X254300Y280333
X261100Y270133
X240600Y270333
X234000Y273433
X231900Y281733
X227900Y281333
X220500Y277333
X216400Y281633
X204300Y281333
X192500Y281433
X184600Y281333
X175900Y281333
X174300Y295333
X183100Y294933
X188700Y297733
X195800Y294033
X209900Y296133
X205800Y307433
X200500Y308933
X198300Y319433
X204100Y321733
X206700Y318533
X196900Y328133
X194300Y324933
X191100Y322533
X187900Y320133
X184500Y318033
X173500Y315733
X170300Y318533
X166600Y312133
X161100Y312033
X157400Y310133
X153500Y310533
X153800Y314533
X154300Y305733
X153900Y300933
X148300Y302133
X153900Y294933
X159000Y282633
X193100Y265333
X215500Y265733
X237900Y262933
X238700Y281733
X236300Y241733
X269300Y215233
X275100Y215733
X281300Y219633
X280900Y210933
X273500Y170933
X249100Y170533
X233900Y158133
X219100Y165333
X201800Y164333
X201100Y159733
X196700Y150533
X191900Y150133
X188500Y152433
X179900Y149733
X176500Y152433
X170300Y149733
X167000Y152433
X161500Y137933
X175000Y137933
X184300Y137833
X200300Y143733
X216500Y139733
X221900Y132533
X238300Y119733
X248300Y108933
X242700Y104933
X247500Y100933
X251900Y90533
X255900Y86533
X257100Y90533
X262300Y90533
X261100Y86533
X266300Y86533
X273100Y90133
X280300Y79733
X287100Y74133
X287100Y60533
X274700Y44533
X270700Y70133
X247500Y71733
X242700Y74533
X247100Y44533
X211500Y43733
X175100Y43733
X161100Y32933
X145500Y69933
X133500Y69933
X154700Y96933
X159100Y96933
X165500Y112133
X171100Y112133
X175000Y120333
X184700Y120333
X179500Y106933
X161500Y120333
X144300Y148133
X132300Y164933
X111700Y152533
X106300Y155733
X106500Y148633
X106700Y162933
X116700Y138133
X134100Y118533
X180700Y166133
X199500Y104733
X221200Y104733
X256700Y142133
X301100Y116933
X308600Y108433
X327100Y88933
X308300Y74133
X308300Y60533
X307100Y32933
X347100Y72933
X327500Y127733
X327100Y143733
X324300Y189333
X325100Y207333
X203900Y332933
X186600Y331333
X183100Y336133
X186700Y336533
X159100Y321733
X128700Y358933
X115400Y354133
X117100Y348533
X104800Y336933
X96300Y333333
X93100Y336933
X94300Y340533
X89700Y332833
X94100Y316633
X104700Y320133
X104700Y312133
X103200Y287833
X98300Y286133
X88700Y286533
X83500Y294133
X69100Y280133
X56700Y265033
X53900Y262133
X60700Y261533
X51500Y268933
X27900Y268533
X19900Y282533
X7500Y296933
X7500Y326133
X24300Y326933
X30300Y332933
X43500Y345733
X34700Y352933
X27900Y363733
X18300Y369333
X7500Y354533
X39500Y364533
X48300Y383333
X39500Y392533
X67500Y377333
X82300Y383733
X92700Y371733
X100300Y375333
X115500Y383733
X117500Y387733
X120700Y390533
X128300Y382933
X134300Y382533
X157100Y382533
X160300Y369733
X166300Y368133
X171800Y367733
X191100Y380133
X268700Y381333
X280700Y382133
X298700Y390933
X315900Y390533
X339900Y364933
X156600Y228033
X113500Y288133
X69700Y333533
X60700Y328133
X60700Y323333
X50800Y322433
X58400Y332733
X76100Y353733
X79300Y350933
X79300Y356533
X76100Y359333
X102700Y351333
X27500Y217133
X29500Y203933
X29500Y197733
X25900Y191333
X7500Y156933
X8300Y128133
X8300Y98133
X7900Y64533
X41900Y66133
X41900Y102933
X65500Y130733
X65500Y137733
X58000Y145433
X51900Y134533
X42300Y142133
T02
X44600Y282897
X31805Y293133
X44600Y302582
X57395Y293133
X312500Y206933
X312500Y198933
X312500Y190933
X312500Y182933
T03
X233949Y72374
X233949Y58594
X220169Y58594
X206390Y58594
X192610Y58594
X178831Y58594
X165051Y58594
X165051Y72374
X178831Y72374
X192610Y72374
X206390Y72374
X220169Y72374
T04
X323500Y168433
X323500Y221433
T05
X261508Y49933
X137492Y49933
T06
X15500Y40933
X339300Y40933
X339100Y384533
X15500Y384533
M30
