G04 #@! TF.FileFunction,Legend,Top*
%FSLAX46Y46*%
G04 Gerber Fmt 4.6, Leading zero omitted, Abs format (unit mm)*
G04 Created by KiCad (PCBNEW (2016-07-28 BZR 6996, Git e15ad93)-product) date Mon Oct 17 19:01:38 2016*
%MOMM*%
%LPD*%
G01*
G04 APERTURE LIST*
%ADD10C,0.100000*%
%ADD11C,0.152400*%
%ADD12C,0.203200*%
%ADD13C,0.101600*%
%ADD14C,0.200000*%
%ADD15C,0.198120*%
%ADD16C,0.254000*%
%ADD17C,0.127000*%
%ADD18C,0.099060*%
%ADD19C,0.076200*%
%ADD20C,0.150000*%
G04 APERTURE END LIST*
D10*
D11*
X140499577Y-70323973D02*
X140499577Y-101718373D01*
X140499577Y-101718373D02*
X109105177Y-101718373D01*
X109105177Y-101718373D02*
X109105177Y-70323973D01*
X109105177Y-70323973D02*
X140499577Y-70323973D01*
D12*
X110756177Y-99229173D02*
X110756177Y-100067373D01*
X111594377Y-71974973D02*
X110756177Y-71974973D01*
X138848577Y-72813173D02*
X138848577Y-71974973D01*
X138848577Y-100067373D02*
X138848577Y-99229173D01*
X138848577Y-71974973D02*
X138010377Y-71974973D01*
X110756177Y-71974973D02*
X110756177Y-72813173D01*
X110756177Y-100067373D02*
X111594377Y-100067373D01*
X138010377Y-100067373D02*
X138848577Y-100067373D01*
D11*
X110756177Y-73397373D02*
X110756177Y-73143373D01*
X110756177Y-73143373D02*
X109714777Y-73143373D01*
X109714777Y-73143373D02*
X109714777Y-73397373D01*
X109714777Y-73397373D02*
X110756177Y-73397373D01*
X110756177Y-73905373D02*
X110756177Y-73625973D01*
X110756177Y-73625973D02*
X109714777Y-73625973D01*
X109714777Y-73625973D02*
X109714777Y-73905373D01*
X109714777Y-73905373D02*
X110756177Y-73905373D01*
X110756177Y-74413373D02*
X110756177Y-74133973D01*
X110756177Y-74133973D02*
X109714777Y-74133973D01*
X109714777Y-74133973D02*
X109714777Y-74413373D01*
X109714777Y-74413373D02*
X110756177Y-74413373D01*
X110756177Y-74895973D02*
X110756177Y-74641973D01*
X110756177Y-74641973D02*
X109714777Y-74641973D01*
X109714777Y-74641973D02*
X109714777Y-74895973D01*
X109714777Y-74895973D02*
X110756177Y-74895973D01*
X110756177Y-75403973D02*
X110756177Y-75124573D01*
X110756177Y-75124573D02*
X109714777Y-75124573D01*
X109714777Y-75124573D02*
X109714777Y-75403973D01*
X109714777Y-75403973D02*
X110756177Y-75403973D01*
X110756177Y-75911973D02*
X110756177Y-75635113D01*
X110756177Y-75635113D02*
X109714777Y-75635113D01*
X109714777Y-75635113D02*
X109714777Y-75911973D01*
X109714777Y-75911973D02*
X110756177Y-75911973D01*
X110756177Y-76394573D02*
X110756177Y-76140573D01*
X110756177Y-76140573D02*
X109714777Y-76140573D01*
X109714777Y-76140573D02*
X109714777Y-76394573D01*
X109714777Y-76394573D02*
X110756177Y-76394573D01*
X110756177Y-76902573D02*
X110756177Y-76648573D01*
X110756177Y-76648573D02*
X109714777Y-76648573D01*
X109714777Y-76648573D02*
X109714777Y-76902573D01*
X109714777Y-76902573D02*
X110756177Y-76902573D01*
X110756177Y-77410573D02*
X110756177Y-77131173D01*
X110756177Y-77131173D02*
X109714777Y-77131173D01*
X109714777Y-77131173D02*
X109714777Y-77410573D01*
X109714777Y-77410573D02*
X110756177Y-77410573D01*
X110756177Y-77918573D02*
X110756177Y-77639173D01*
X110756177Y-77639173D02*
X109714777Y-77639173D01*
X109714777Y-77639173D02*
X109714777Y-77918573D01*
X109714777Y-77918573D02*
X110756177Y-77918573D01*
X110756177Y-78401173D02*
X110756177Y-78147173D01*
X110756177Y-78147173D02*
X109714777Y-78147173D01*
X109714777Y-78147173D02*
X109714777Y-78401173D01*
X109714777Y-78401173D02*
X110756177Y-78401173D01*
X110756177Y-78909173D02*
X110756177Y-78629773D01*
X110756177Y-78629773D02*
X109714777Y-78629773D01*
X109714777Y-78629773D02*
X109714777Y-78909173D01*
X109714777Y-78909173D02*
X110756177Y-78909173D01*
X110756177Y-79417173D02*
X110756177Y-79137773D01*
X110756177Y-79137773D02*
X109714777Y-79137773D01*
X109714777Y-79137773D02*
X109714777Y-79417173D01*
X109714777Y-79417173D02*
X110756177Y-79417173D01*
X110756177Y-79899773D02*
X110756177Y-79645773D01*
X110756177Y-79645773D02*
X109714777Y-79645773D01*
X109714777Y-79645773D02*
X109714777Y-79899773D01*
X109714777Y-79899773D02*
X110756177Y-79899773D01*
X110756177Y-80407773D02*
X110756177Y-80128373D01*
X110756177Y-80128373D02*
X109714777Y-80128373D01*
X109714777Y-80128373D02*
X109714777Y-80407773D01*
X109714777Y-80407773D02*
X110756177Y-80407773D01*
X110756177Y-80915773D02*
X110756177Y-80636373D01*
X110756177Y-80636373D02*
X109714777Y-80636373D01*
X109714777Y-80636373D02*
X109714777Y-80915773D01*
X109714777Y-80915773D02*
X110756177Y-80915773D01*
X110756177Y-81398373D02*
X110756177Y-81144373D01*
X110756177Y-81144373D02*
X109714777Y-81144373D01*
X109714777Y-81144373D02*
X109714777Y-81398373D01*
X109714777Y-81398373D02*
X110756177Y-81398373D01*
X110756177Y-81906373D02*
X110756177Y-81629513D01*
X110756177Y-81629513D02*
X109714777Y-81629513D01*
X109714777Y-81629513D02*
X109714777Y-81906373D01*
X109714777Y-81906373D02*
X110756177Y-81906373D01*
X110756177Y-82416913D02*
X110756177Y-82134973D01*
X110756177Y-82134973D02*
X109714777Y-82134973D01*
X109714777Y-82134973D02*
X109714777Y-82416913D01*
X109714777Y-82416913D02*
X110756177Y-82416913D01*
X110756177Y-82896973D02*
X110756177Y-82642973D01*
X110756177Y-82642973D02*
X109714777Y-82642973D01*
X109714777Y-82642973D02*
X109714777Y-82896973D01*
X109714777Y-82896973D02*
X110756177Y-82896973D01*
X110756177Y-83404973D02*
X110756177Y-83125573D01*
X110756177Y-83125573D02*
X109714777Y-83125573D01*
X109714777Y-83125573D02*
X109714777Y-83404973D01*
X109714777Y-83404973D02*
X110756177Y-83404973D01*
X110756177Y-83912973D02*
X110756177Y-83633573D01*
X110756177Y-83633573D02*
X109714777Y-83633573D01*
X109714777Y-83633573D02*
X109714777Y-83912973D01*
X109714777Y-83912973D02*
X110756177Y-83912973D01*
X110756177Y-84395573D02*
X110756177Y-84141573D01*
X110756177Y-84141573D02*
X109714777Y-84141573D01*
X109714777Y-84141573D02*
X109714777Y-84395573D01*
X109714777Y-84395573D02*
X110756177Y-84395573D01*
X110756177Y-84903573D02*
X110756177Y-84624173D01*
X110756177Y-84624173D02*
X109714777Y-84624173D01*
X109714777Y-84624173D02*
X109714777Y-84903573D01*
X109714777Y-84903573D02*
X110756177Y-84903573D01*
X110756177Y-85411573D02*
X110756177Y-85132173D01*
X110756177Y-85132173D02*
X109714777Y-85132173D01*
X109714777Y-85132173D02*
X109714777Y-85411573D01*
X109714777Y-85411573D02*
X110756177Y-85411573D01*
X110756177Y-85894173D02*
X110756177Y-85640173D01*
X110756177Y-85640173D02*
X109714777Y-85640173D01*
X109714777Y-85640173D02*
X109714777Y-85894173D01*
X109714777Y-85894173D02*
X110756177Y-85894173D01*
X110756177Y-86402173D02*
X110756177Y-86148173D01*
X110756177Y-86148173D02*
X109714777Y-86148173D01*
X109714777Y-86148173D02*
X109714777Y-86402173D01*
X109714777Y-86402173D02*
X110756177Y-86402173D01*
X110756177Y-86910173D02*
X110756177Y-86630773D01*
X110756177Y-86630773D02*
X109714777Y-86630773D01*
X109714777Y-86630773D02*
X109714777Y-86910173D01*
X109714777Y-86910173D02*
X110756177Y-86910173D01*
X110756177Y-87418173D02*
X110756177Y-87138773D01*
X110756177Y-87138773D02*
X109714777Y-87138773D01*
X109714777Y-87138773D02*
X109714777Y-87418173D01*
X109714777Y-87418173D02*
X110756177Y-87418173D01*
X110756177Y-87900773D02*
X110756177Y-87646773D01*
X110756177Y-87646773D02*
X109714777Y-87646773D01*
X109714777Y-87646773D02*
X109714777Y-87900773D01*
X109714777Y-87900773D02*
X110756177Y-87900773D01*
X110756177Y-88408773D02*
X110756177Y-88129373D01*
X110756177Y-88129373D02*
X109714777Y-88129373D01*
X109714777Y-88129373D02*
X109714777Y-88408773D01*
X109714777Y-88408773D02*
X110756177Y-88408773D01*
X110756177Y-88916773D02*
X110756177Y-88637373D01*
X110756177Y-88637373D02*
X109714777Y-88637373D01*
X109714777Y-88637373D02*
X109714777Y-88916773D01*
X109714777Y-88916773D02*
X110756177Y-88916773D01*
X110756177Y-89399373D02*
X110756177Y-89145373D01*
X110756177Y-89145373D02*
X109714777Y-89145373D01*
X109714777Y-89145373D02*
X109714777Y-89399373D01*
X109714777Y-89399373D02*
X110756177Y-89399373D01*
X110756177Y-89907373D02*
X110756177Y-89625433D01*
X110756177Y-89625433D02*
X109714777Y-89625433D01*
X109714777Y-89625433D02*
X109714777Y-89907373D01*
X109714777Y-89907373D02*
X110756177Y-89907373D01*
X110756177Y-90412833D02*
X110756177Y-90135973D01*
X110756177Y-90135973D02*
X109714777Y-90135973D01*
X109714777Y-90135973D02*
X109714777Y-90412833D01*
X109714777Y-90412833D02*
X110756177Y-90412833D01*
X110756177Y-90897973D02*
X110756177Y-90643973D01*
X110756177Y-90643973D02*
X109714777Y-90643973D01*
X109714777Y-90643973D02*
X109714777Y-90897973D01*
X109714777Y-90897973D02*
X110756177Y-90897973D01*
X110756177Y-91405973D02*
X110756177Y-91126573D01*
X110756177Y-91126573D02*
X109714777Y-91126573D01*
X109714777Y-91126573D02*
X109714777Y-91405973D01*
X109714777Y-91405973D02*
X110756177Y-91405973D01*
X110756177Y-91913973D02*
X110756177Y-91634573D01*
X110756177Y-91634573D02*
X109714777Y-91634573D01*
X109714777Y-91634573D02*
X109714777Y-91913973D01*
X109714777Y-91913973D02*
X110756177Y-91913973D01*
X110756177Y-92396573D02*
X110756177Y-92142573D01*
X110756177Y-92142573D02*
X109714777Y-92142573D01*
X109714777Y-92142573D02*
X109714777Y-92396573D01*
X109714777Y-92396573D02*
X110756177Y-92396573D01*
X110756177Y-92904573D02*
X110756177Y-92625173D01*
X110756177Y-92625173D02*
X109714777Y-92625173D01*
X109714777Y-92625173D02*
X109714777Y-92904573D01*
X109714777Y-92904573D02*
X110756177Y-92904573D01*
X110756177Y-93412573D02*
X110756177Y-93133173D01*
X110756177Y-93133173D02*
X109714777Y-93133173D01*
X109714777Y-93133173D02*
X109714777Y-93412573D01*
X109714777Y-93412573D02*
X110756177Y-93412573D01*
X110756177Y-93895173D02*
X110756177Y-93641173D01*
X110756177Y-93641173D02*
X109714777Y-93641173D01*
X109714777Y-93641173D02*
X109714777Y-93895173D01*
X109714777Y-93895173D02*
X110756177Y-93895173D01*
X110756177Y-94403173D02*
X110756177Y-94123773D01*
X110756177Y-94123773D02*
X109714777Y-94123773D01*
X109714777Y-94123773D02*
X109714777Y-94403173D01*
X109714777Y-94403173D02*
X110756177Y-94403173D01*
X110756177Y-94911173D02*
X110756177Y-94631773D01*
X110756177Y-94631773D02*
X109714777Y-94631773D01*
X109714777Y-94631773D02*
X109714777Y-94911173D01*
X109714777Y-94911173D02*
X110756177Y-94911173D01*
X110756177Y-95393773D02*
X110756177Y-95139773D01*
X110756177Y-95139773D02*
X109714777Y-95139773D01*
X109714777Y-95139773D02*
X109714777Y-95393773D01*
X109714777Y-95393773D02*
X110756177Y-95393773D01*
X110756177Y-95901773D02*
X110756177Y-95647773D01*
X110756177Y-95647773D02*
X109714777Y-95647773D01*
X109714777Y-95647773D02*
X109714777Y-95901773D01*
X109714777Y-95901773D02*
X110756177Y-95901773D01*
X110756177Y-96407233D02*
X110756177Y-96130373D01*
X110756177Y-96130373D02*
X109714777Y-96130373D01*
X109714777Y-96130373D02*
X109714777Y-96407233D01*
X109714777Y-96407233D02*
X110756177Y-96407233D01*
X110756177Y-96917773D02*
X110756177Y-96638373D01*
X110756177Y-96638373D02*
X109714777Y-96638373D01*
X109714777Y-96638373D02*
X109714777Y-96917773D01*
X109714777Y-96917773D02*
X110756177Y-96917773D01*
X110756177Y-97400373D02*
X110756177Y-97146373D01*
X110756177Y-97146373D02*
X109714777Y-97146373D01*
X109714777Y-97146373D02*
X109714777Y-97400373D01*
X109714777Y-97400373D02*
X110756177Y-97400373D01*
X110756177Y-97908373D02*
X110756177Y-97628973D01*
X110756177Y-97628973D02*
X109714777Y-97628973D01*
X109714777Y-97628973D02*
X109714777Y-97908373D01*
X109714777Y-97908373D02*
X110756177Y-97908373D01*
X110756177Y-98416373D02*
X110756177Y-98136973D01*
X110756177Y-98136973D02*
X109714777Y-98136973D01*
X109714777Y-98136973D02*
X109714777Y-98416373D01*
X109714777Y-98416373D02*
X110756177Y-98416373D01*
X110756177Y-98898973D02*
X110756177Y-98644973D01*
X110756177Y-98644973D02*
X109714777Y-98644973D01*
X109714777Y-98644973D02*
X109714777Y-98898973D01*
X109714777Y-98898973D02*
X110756177Y-98898973D01*
X112178577Y-100067373D02*
X111924577Y-100067373D01*
X111924577Y-100067373D02*
X111924577Y-101108773D01*
X111924577Y-101108773D02*
X112178577Y-101108773D01*
X112178577Y-101108773D02*
X112178577Y-100067373D01*
X112686577Y-100067373D02*
X112407177Y-100067373D01*
X112407177Y-100067373D02*
X112407177Y-101108773D01*
X112407177Y-101108773D02*
X112686577Y-101108773D01*
X112686577Y-101108773D02*
X112686577Y-100067373D01*
X113194577Y-100067373D02*
X112915177Y-100067373D01*
X112915177Y-100067373D02*
X112915177Y-101108773D01*
X112915177Y-101108773D02*
X113194577Y-101108773D01*
X113194577Y-101108773D02*
X113194577Y-100067373D01*
X113677177Y-100067373D02*
X113423177Y-100067373D01*
X113423177Y-100067373D02*
X113423177Y-101108773D01*
X113423177Y-101108773D02*
X113677177Y-101108773D01*
X113677177Y-101108773D02*
X113677177Y-100067373D01*
X114185177Y-100067373D02*
X113905777Y-100067373D01*
X113905777Y-100067373D02*
X113905777Y-101108773D01*
X113905777Y-101108773D02*
X114185177Y-101108773D01*
X114185177Y-101108773D02*
X114185177Y-100067373D01*
X114693177Y-100067373D02*
X114416317Y-100067373D01*
X114416317Y-100067373D02*
X114416317Y-101108773D01*
X114416317Y-101108773D02*
X114693177Y-101108773D01*
X114693177Y-101108773D02*
X114693177Y-100067373D01*
X115175777Y-100067373D02*
X114921777Y-100067373D01*
X114921777Y-100067373D02*
X114921777Y-101108773D01*
X114921777Y-101108773D02*
X115175777Y-101108773D01*
X115175777Y-101108773D02*
X115175777Y-100067373D01*
X115683777Y-100067373D02*
X115429777Y-100067373D01*
X115429777Y-100067373D02*
X115429777Y-101108773D01*
X115429777Y-101108773D02*
X115683777Y-101108773D01*
X115683777Y-101108773D02*
X115683777Y-100067373D01*
X116191777Y-100067373D02*
X115912377Y-100067373D01*
X115912377Y-100067373D02*
X115912377Y-101108773D01*
X115912377Y-101108773D02*
X116191777Y-101108773D01*
X116191777Y-101108773D02*
X116191777Y-100067373D01*
X116699777Y-100067373D02*
X116420377Y-100067373D01*
X116420377Y-100067373D02*
X116420377Y-101108773D01*
X116420377Y-101108773D02*
X116699777Y-101108773D01*
X116699777Y-101108773D02*
X116699777Y-100067373D01*
X117182377Y-100067373D02*
X116928377Y-100067373D01*
X116928377Y-100067373D02*
X116928377Y-101108773D01*
X116928377Y-101108773D02*
X117182377Y-101108773D01*
X117182377Y-101108773D02*
X117182377Y-100067373D01*
X117690377Y-100067373D02*
X117410977Y-100067373D01*
X117410977Y-100067373D02*
X117410977Y-101108773D01*
X117410977Y-101108773D02*
X117690377Y-101108773D01*
X117690377Y-101108773D02*
X117690377Y-100067373D01*
X118198377Y-100067373D02*
X117918977Y-100067373D01*
X117918977Y-100067373D02*
X117918977Y-101108773D01*
X117918977Y-101108773D02*
X118198377Y-101108773D01*
X118198377Y-101108773D02*
X118198377Y-100067373D01*
X118680977Y-100067373D02*
X118426977Y-100067373D01*
X118426977Y-100067373D02*
X118426977Y-101108773D01*
X118426977Y-101108773D02*
X118680977Y-101108773D01*
X118680977Y-101108773D02*
X118680977Y-100067373D01*
X119188977Y-100067373D02*
X118909577Y-100067373D01*
X118909577Y-100067373D02*
X118909577Y-101108773D01*
X118909577Y-101108773D02*
X119188977Y-101108773D01*
X119188977Y-101108773D02*
X119188977Y-100067373D01*
X119696977Y-100067373D02*
X119417577Y-100067373D01*
X119417577Y-100067373D02*
X119417577Y-101108773D01*
X119417577Y-101108773D02*
X119696977Y-101108773D01*
X119696977Y-101108773D02*
X119696977Y-100067373D01*
X120179577Y-100067373D02*
X119925577Y-100067373D01*
X119925577Y-100067373D02*
X119925577Y-101108773D01*
X119925577Y-101108773D02*
X120179577Y-101108773D01*
X120179577Y-101108773D02*
X120179577Y-100067373D01*
X120687577Y-100067373D02*
X120410717Y-100067373D01*
X120410717Y-100067373D02*
X120410717Y-101108773D01*
X120410717Y-101108773D02*
X120687577Y-101108773D01*
X120687577Y-101108773D02*
X120687577Y-100067373D01*
X121198117Y-100067373D02*
X120916177Y-100067373D01*
X120916177Y-100067373D02*
X120916177Y-101108773D01*
X120916177Y-101108773D02*
X121198117Y-101108773D01*
X121198117Y-101108773D02*
X121198117Y-100067373D01*
X121678177Y-100067373D02*
X121424177Y-100067373D01*
X121424177Y-100067373D02*
X121424177Y-101108773D01*
X121424177Y-101108773D02*
X121678177Y-101108773D01*
X121678177Y-101108773D02*
X121678177Y-100067373D01*
X122186177Y-100067373D02*
X121906777Y-100067373D01*
X121906777Y-100067373D02*
X121906777Y-101108773D01*
X121906777Y-101108773D02*
X122186177Y-101108773D01*
X122186177Y-101108773D02*
X122186177Y-100067373D01*
X122694177Y-100067373D02*
X122414777Y-100067373D01*
X122414777Y-100067373D02*
X122414777Y-101108773D01*
X122414777Y-101108773D02*
X122694177Y-101108773D01*
X122694177Y-101108773D02*
X122694177Y-100067373D01*
X123176777Y-100067373D02*
X122922777Y-100067373D01*
X122922777Y-100067373D02*
X122922777Y-101108773D01*
X122922777Y-101108773D02*
X123176777Y-101108773D01*
X123176777Y-101108773D02*
X123176777Y-100067373D01*
X123684777Y-100067373D02*
X123405377Y-100067373D01*
X123405377Y-100067373D02*
X123405377Y-101108773D01*
X123405377Y-101108773D02*
X123684777Y-101108773D01*
X123684777Y-101108773D02*
X123684777Y-100067373D01*
X124192777Y-100067373D02*
X123913377Y-100067373D01*
X123913377Y-100067373D02*
X123913377Y-101108773D01*
X123913377Y-101108773D02*
X124192777Y-101108773D01*
X124192777Y-101108773D02*
X124192777Y-100067373D01*
X124675377Y-100067373D02*
X124421377Y-100067373D01*
X124421377Y-100067373D02*
X124421377Y-101108773D01*
X124421377Y-101108773D02*
X124675377Y-101108773D01*
X124675377Y-101108773D02*
X124675377Y-100067373D01*
X125183377Y-100067373D02*
X124929377Y-100067373D01*
X124929377Y-100067373D02*
X124929377Y-101108773D01*
X124929377Y-101108773D02*
X125183377Y-101108773D01*
X125183377Y-101108773D02*
X125183377Y-100067373D01*
X125691377Y-100067373D02*
X125411977Y-100067373D01*
X125411977Y-100067373D02*
X125411977Y-101108773D01*
X125411977Y-101108773D02*
X125691377Y-101108773D01*
X125691377Y-101108773D02*
X125691377Y-100067373D01*
X126199377Y-100067373D02*
X125919977Y-100067373D01*
X125919977Y-100067373D02*
X125919977Y-101108773D01*
X125919977Y-101108773D02*
X126199377Y-101108773D01*
X126199377Y-101108773D02*
X126199377Y-100067373D01*
X126681977Y-100067373D02*
X126427977Y-100067373D01*
X126427977Y-100067373D02*
X126427977Y-101108773D01*
X126427977Y-101108773D02*
X126681977Y-101108773D01*
X126681977Y-101108773D02*
X126681977Y-100067373D01*
X127189977Y-100067373D02*
X126910577Y-100067373D01*
X126910577Y-100067373D02*
X126910577Y-101108773D01*
X126910577Y-101108773D02*
X127189977Y-101108773D01*
X127189977Y-101108773D02*
X127189977Y-100067373D01*
X127697977Y-100067373D02*
X127418577Y-100067373D01*
X127418577Y-100067373D02*
X127418577Y-101108773D01*
X127418577Y-101108773D02*
X127697977Y-101108773D01*
X127697977Y-101108773D02*
X127697977Y-100067373D01*
X128180577Y-100067373D02*
X127926577Y-100067373D01*
X127926577Y-100067373D02*
X127926577Y-101108773D01*
X127926577Y-101108773D02*
X128180577Y-101108773D01*
X128180577Y-101108773D02*
X128180577Y-100067373D01*
X128688577Y-100067373D02*
X128406637Y-100067373D01*
X128406637Y-100067373D02*
X128406637Y-101108773D01*
X128406637Y-101108773D02*
X128688577Y-101108773D01*
X128688577Y-101108773D02*
X128688577Y-100067373D01*
X129194037Y-100067373D02*
X128917177Y-100067373D01*
X128917177Y-100067373D02*
X128917177Y-101108773D01*
X128917177Y-101108773D02*
X129194037Y-101108773D01*
X129194037Y-101108773D02*
X129194037Y-100067373D01*
X129679177Y-100067373D02*
X129425177Y-100067373D01*
X129425177Y-100067373D02*
X129425177Y-101108773D01*
X129425177Y-101108773D02*
X129679177Y-101108773D01*
X129679177Y-101108773D02*
X129679177Y-100067373D01*
X130187177Y-100067373D02*
X129907777Y-100067373D01*
X129907777Y-100067373D02*
X129907777Y-101108773D01*
X129907777Y-101108773D02*
X130187177Y-101108773D01*
X130187177Y-101108773D02*
X130187177Y-100067373D01*
X130695177Y-100067373D02*
X130415777Y-100067373D01*
X130415777Y-100067373D02*
X130415777Y-101108773D01*
X130415777Y-101108773D02*
X130695177Y-101108773D01*
X130695177Y-101108773D02*
X130695177Y-100067373D01*
X131177777Y-100067373D02*
X130923777Y-100067373D01*
X130923777Y-100067373D02*
X130923777Y-101108773D01*
X130923777Y-101108773D02*
X131177777Y-101108773D01*
X131177777Y-101108773D02*
X131177777Y-100067373D01*
X131685777Y-100067373D02*
X131406377Y-100067373D01*
X131406377Y-100067373D02*
X131406377Y-101108773D01*
X131406377Y-101108773D02*
X131685777Y-101108773D01*
X131685777Y-101108773D02*
X131685777Y-100067373D01*
X132193777Y-100067373D02*
X131914377Y-100067373D01*
X131914377Y-100067373D02*
X131914377Y-101108773D01*
X131914377Y-101108773D02*
X132193777Y-101108773D01*
X132193777Y-101108773D02*
X132193777Y-100067373D01*
X132676377Y-100067373D02*
X132422377Y-100067373D01*
X132422377Y-100067373D02*
X132422377Y-101108773D01*
X132422377Y-101108773D02*
X132676377Y-101108773D01*
X132676377Y-101108773D02*
X132676377Y-100067373D01*
X133184377Y-100067373D02*
X132904977Y-100067373D01*
X132904977Y-100067373D02*
X132904977Y-101108773D01*
X132904977Y-101108773D02*
X133184377Y-101108773D01*
X133184377Y-101108773D02*
X133184377Y-100067373D01*
X133692377Y-100067373D02*
X133412977Y-100067373D01*
X133412977Y-100067373D02*
X133412977Y-101108773D01*
X133412977Y-101108773D02*
X133692377Y-101108773D01*
X133692377Y-101108773D02*
X133692377Y-100067373D01*
X134174977Y-100067373D02*
X133920977Y-100067373D01*
X133920977Y-100067373D02*
X133920977Y-101108773D01*
X133920977Y-101108773D02*
X134174977Y-101108773D01*
X134174977Y-101108773D02*
X134174977Y-100067373D01*
X134682977Y-100067373D02*
X134428977Y-100067373D01*
X134428977Y-100067373D02*
X134428977Y-101108773D01*
X134428977Y-101108773D02*
X134682977Y-101108773D01*
X134682977Y-101108773D02*
X134682977Y-100067373D01*
X135188437Y-100067373D02*
X134911577Y-100067373D01*
X134911577Y-100067373D02*
X134911577Y-101108773D01*
X134911577Y-101108773D02*
X135188437Y-101108773D01*
X135188437Y-101108773D02*
X135188437Y-100067373D01*
X135698977Y-100067373D02*
X135419577Y-100067373D01*
X135419577Y-100067373D02*
X135419577Y-101108773D01*
X135419577Y-101108773D02*
X135698977Y-101108773D01*
X135698977Y-101108773D02*
X135698977Y-100067373D01*
X136181577Y-100067373D02*
X135927577Y-100067373D01*
X135927577Y-100067373D02*
X135927577Y-101108773D01*
X135927577Y-101108773D02*
X136181577Y-101108773D01*
X136181577Y-101108773D02*
X136181577Y-100067373D01*
X136689577Y-100067373D02*
X136410177Y-100067373D01*
X136410177Y-100067373D02*
X136410177Y-101108773D01*
X136410177Y-101108773D02*
X136689577Y-101108773D01*
X136689577Y-101108773D02*
X136689577Y-100067373D01*
X137197577Y-100067373D02*
X136918177Y-100067373D01*
X136918177Y-100067373D02*
X136918177Y-101108773D01*
X136918177Y-101108773D02*
X137197577Y-101108773D01*
X137197577Y-101108773D02*
X137197577Y-100067373D01*
X137680177Y-100067373D02*
X137426177Y-100067373D01*
X137426177Y-100067373D02*
X137426177Y-101108773D01*
X137426177Y-101108773D02*
X137680177Y-101108773D01*
X137680177Y-101108773D02*
X137680177Y-100067373D01*
X138848577Y-98644973D02*
X138848577Y-98898973D01*
X138848577Y-98898973D02*
X139889977Y-98898973D01*
X139889977Y-98898973D02*
X139889977Y-98644973D01*
X139889977Y-98644973D02*
X138848577Y-98644973D01*
X138848577Y-98136973D02*
X138848577Y-98416373D01*
X138848577Y-98416373D02*
X139889977Y-98416373D01*
X139889977Y-98416373D02*
X139889977Y-98136973D01*
X139889977Y-98136973D02*
X138848577Y-98136973D01*
X138848577Y-97628973D02*
X138848577Y-97908373D01*
X138848577Y-97908373D02*
X139889977Y-97908373D01*
X139889977Y-97908373D02*
X139889977Y-97628973D01*
X139889977Y-97628973D02*
X138848577Y-97628973D01*
X138848577Y-97146373D02*
X138848577Y-97400373D01*
X138848577Y-97400373D02*
X139889977Y-97400373D01*
X139889977Y-97400373D02*
X139889977Y-97146373D01*
X139889977Y-97146373D02*
X138848577Y-97146373D01*
X138848577Y-96638373D02*
X138848577Y-96917773D01*
X138848577Y-96917773D02*
X139889977Y-96917773D01*
X139889977Y-96917773D02*
X139889977Y-96638373D01*
X139889977Y-96638373D02*
X138848577Y-96638373D01*
X138848577Y-96130373D02*
X138848577Y-96407233D01*
X138848577Y-96407233D02*
X139889977Y-96407233D01*
X139889977Y-96407233D02*
X139889977Y-96130373D01*
X139889977Y-96130373D02*
X138848577Y-96130373D01*
X138848577Y-95647773D02*
X138848577Y-95901773D01*
X138848577Y-95901773D02*
X139889977Y-95901773D01*
X139889977Y-95901773D02*
X139889977Y-95647773D01*
X139889977Y-95647773D02*
X138848577Y-95647773D01*
X138848577Y-95139773D02*
X138848577Y-95393773D01*
X138848577Y-95393773D02*
X139889977Y-95393773D01*
X139889977Y-95393773D02*
X139889977Y-95139773D01*
X139889977Y-95139773D02*
X138848577Y-95139773D01*
X138848577Y-94631773D02*
X138848577Y-94911173D01*
X138848577Y-94911173D02*
X139889977Y-94911173D01*
X139889977Y-94911173D02*
X139889977Y-94631773D01*
X139889977Y-94631773D02*
X138848577Y-94631773D01*
X138848577Y-94123773D02*
X138848577Y-94403173D01*
X138848577Y-94403173D02*
X139889977Y-94403173D01*
X139889977Y-94403173D02*
X139889977Y-94123773D01*
X139889977Y-94123773D02*
X138848577Y-94123773D01*
X138848577Y-93641173D02*
X138848577Y-93895173D01*
X138848577Y-93895173D02*
X139889977Y-93895173D01*
X139889977Y-93895173D02*
X139889977Y-93641173D01*
X139889977Y-93641173D02*
X138848577Y-93641173D01*
X138848577Y-93133173D02*
X138848577Y-93412573D01*
X138848577Y-93412573D02*
X139889977Y-93412573D01*
X139889977Y-93412573D02*
X139889977Y-93133173D01*
X139889977Y-93133173D02*
X138848577Y-93133173D01*
X138848577Y-92625173D02*
X138848577Y-92904573D01*
X138848577Y-92904573D02*
X139889977Y-92904573D01*
X139889977Y-92904573D02*
X139889977Y-92625173D01*
X139889977Y-92625173D02*
X138848577Y-92625173D01*
X138848577Y-92142573D02*
X138848577Y-92396573D01*
X138848577Y-92396573D02*
X139889977Y-92396573D01*
X139889977Y-92396573D02*
X139889977Y-92142573D01*
X139889977Y-92142573D02*
X138848577Y-92142573D01*
X138848577Y-91634573D02*
X138848577Y-91913973D01*
X138848577Y-91913973D02*
X139889977Y-91913973D01*
X139889977Y-91913973D02*
X139889977Y-91634573D01*
X139889977Y-91634573D02*
X138848577Y-91634573D01*
X138848577Y-91126573D02*
X138848577Y-91405973D01*
X138848577Y-91405973D02*
X139889977Y-91405973D01*
X139889977Y-91405973D02*
X139889977Y-91126573D01*
X139889977Y-91126573D02*
X138848577Y-91126573D01*
X138848577Y-90643973D02*
X138848577Y-90897973D01*
X138848577Y-90897973D02*
X139889977Y-90897973D01*
X139889977Y-90897973D02*
X139889977Y-90643973D01*
X139889977Y-90643973D02*
X138848577Y-90643973D01*
X138848577Y-90135973D02*
X138848577Y-90412833D01*
X138848577Y-90412833D02*
X139889977Y-90412833D01*
X139889977Y-90412833D02*
X139889977Y-90135973D01*
X139889977Y-90135973D02*
X138848577Y-90135973D01*
X138848577Y-89625433D02*
X138848577Y-89907373D01*
X138848577Y-89907373D02*
X139889977Y-89907373D01*
X139889977Y-89907373D02*
X139889977Y-89625433D01*
X139889977Y-89625433D02*
X138848577Y-89625433D01*
X138848577Y-89145373D02*
X138848577Y-89399373D01*
X138848577Y-89399373D02*
X139889977Y-89399373D01*
X139889977Y-89399373D02*
X139889977Y-89145373D01*
X139889977Y-89145373D02*
X138848577Y-89145373D01*
X138848577Y-88637373D02*
X138848577Y-88916773D01*
X138848577Y-88916773D02*
X139889977Y-88916773D01*
X139889977Y-88916773D02*
X139889977Y-88637373D01*
X139889977Y-88637373D02*
X138848577Y-88637373D01*
X138848577Y-88129373D02*
X138848577Y-88408773D01*
X138848577Y-88408773D02*
X139889977Y-88408773D01*
X139889977Y-88408773D02*
X139889977Y-88129373D01*
X139889977Y-88129373D02*
X138848577Y-88129373D01*
X138848577Y-87646773D02*
X138848577Y-87900773D01*
X138848577Y-87900773D02*
X139889977Y-87900773D01*
X139889977Y-87900773D02*
X139889977Y-87646773D01*
X139889977Y-87646773D02*
X138848577Y-87646773D01*
X138848577Y-87138773D02*
X138848577Y-87418173D01*
X138848577Y-87418173D02*
X139889977Y-87418173D01*
X139889977Y-87418173D02*
X139889977Y-87138773D01*
X139889977Y-87138773D02*
X138848577Y-87138773D01*
X138848577Y-86630773D02*
X138848577Y-86910173D01*
X138848577Y-86910173D02*
X139889977Y-86910173D01*
X139889977Y-86910173D02*
X139889977Y-86630773D01*
X139889977Y-86630773D02*
X138848577Y-86630773D01*
X138848577Y-86148173D02*
X138848577Y-86402173D01*
X138848577Y-86402173D02*
X139889977Y-86402173D01*
X139889977Y-86402173D02*
X139889977Y-86148173D01*
X139889977Y-86148173D02*
X138848577Y-86148173D01*
X138848577Y-85640173D02*
X138848577Y-85894173D01*
X138848577Y-85894173D02*
X139889977Y-85894173D01*
X139889977Y-85894173D02*
X139889977Y-85640173D01*
X139889977Y-85640173D02*
X138848577Y-85640173D01*
X138848577Y-85132173D02*
X138848577Y-85411573D01*
X138848577Y-85411573D02*
X139889977Y-85411573D01*
X139889977Y-85411573D02*
X139889977Y-85132173D01*
X139889977Y-85132173D02*
X138848577Y-85132173D01*
X138848577Y-84624173D02*
X138848577Y-84903573D01*
X138848577Y-84903573D02*
X139889977Y-84903573D01*
X139889977Y-84903573D02*
X139889977Y-84624173D01*
X139889977Y-84624173D02*
X138848577Y-84624173D01*
X138848577Y-84141573D02*
X138848577Y-84395573D01*
X138848577Y-84395573D02*
X139889977Y-84395573D01*
X139889977Y-84395573D02*
X139889977Y-84141573D01*
X139889977Y-84141573D02*
X138848577Y-84141573D01*
X138848577Y-83633573D02*
X138848577Y-83912973D01*
X138848577Y-83912973D02*
X139889977Y-83912973D01*
X139889977Y-83912973D02*
X139889977Y-83633573D01*
X139889977Y-83633573D02*
X138848577Y-83633573D01*
X138848577Y-83125573D02*
X138848577Y-83404973D01*
X138848577Y-83404973D02*
X139889977Y-83404973D01*
X139889977Y-83404973D02*
X139889977Y-83125573D01*
X139889977Y-83125573D02*
X138848577Y-83125573D01*
X138848577Y-82642973D02*
X138848577Y-82896973D01*
X138848577Y-82896973D02*
X139889977Y-82896973D01*
X139889977Y-82896973D02*
X139889977Y-82642973D01*
X139889977Y-82642973D02*
X138848577Y-82642973D01*
X138848577Y-82134973D02*
X138848577Y-82416913D01*
X138848577Y-82416913D02*
X139889977Y-82416913D01*
X139889977Y-82416913D02*
X139889977Y-82134973D01*
X139889977Y-82134973D02*
X138848577Y-82134973D01*
X138848577Y-81629513D02*
X138848577Y-81906373D01*
X138848577Y-81906373D02*
X139889977Y-81906373D01*
X139889977Y-81906373D02*
X139889977Y-81629513D01*
X139889977Y-81629513D02*
X138848577Y-81629513D01*
X138848577Y-81144373D02*
X138848577Y-81398373D01*
X138848577Y-81398373D02*
X139889977Y-81398373D01*
X139889977Y-81398373D02*
X139889977Y-81144373D01*
X139889977Y-81144373D02*
X138848577Y-81144373D01*
X138848577Y-80636373D02*
X138848577Y-80915773D01*
X138848577Y-80915773D02*
X139889977Y-80915773D01*
X139889977Y-80915773D02*
X139889977Y-80636373D01*
X139889977Y-80636373D02*
X138848577Y-80636373D01*
X138848577Y-80128373D02*
X138848577Y-80407773D01*
X138848577Y-80407773D02*
X139889977Y-80407773D01*
X139889977Y-80407773D02*
X139889977Y-80128373D01*
X139889977Y-80128373D02*
X138848577Y-80128373D01*
X138848577Y-79645773D02*
X138848577Y-79899773D01*
X138848577Y-79899773D02*
X139889977Y-79899773D01*
X139889977Y-79899773D02*
X139889977Y-79645773D01*
X139889977Y-79645773D02*
X138848577Y-79645773D01*
X138848577Y-79137773D02*
X138848577Y-79417173D01*
X138848577Y-79417173D02*
X139889977Y-79417173D01*
X139889977Y-79417173D02*
X139889977Y-79137773D01*
X139889977Y-79137773D02*
X138848577Y-79137773D01*
X138848577Y-78629773D02*
X138848577Y-78909173D01*
X138848577Y-78909173D02*
X139889977Y-78909173D01*
X139889977Y-78909173D02*
X139889977Y-78629773D01*
X139889977Y-78629773D02*
X138848577Y-78629773D01*
X138848577Y-78147173D02*
X138848577Y-78401173D01*
X138848577Y-78401173D02*
X139889977Y-78401173D01*
X139889977Y-78401173D02*
X139889977Y-78147173D01*
X139889977Y-78147173D02*
X138848577Y-78147173D01*
X138848577Y-77639173D02*
X138848577Y-77918573D01*
X138848577Y-77918573D02*
X139889977Y-77918573D01*
X139889977Y-77918573D02*
X139889977Y-77639173D01*
X139889977Y-77639173D02*
X138848577Y-77639173D01*
X138848577Y-77131173D02*
X138848577Y-77410573D01*
X138848577Y-77410573D02*
X139889977Y-77410573D01*
X139889977Y-77410573D02*
X139889977Y-77131173D01*
X139889977Y-77131173D02*
X138848577Y-77131173D01*
X138848577Y-76648573D02*
X138848577Y-76902573D01*
X138848577Y-76902573D02*
X139889977Y-76902573D01*
X139889977Y-76902573D02*
X139889977Y-76648573D01*
X139889977Y-76648573D02*
X138848577Y-76648573D01*
X138848577Y-76140573D02*
X138848577Y-76394573D01*
X138848577Y-76394573D02*
X139889977Y-76394573D01*
X139889977Y-76394573D02*
X139889977Y-76140573D01*
X139889977Y-76140573D02*
X138848577Y-76140573D01*
X138848577Y-75635113D02*
X138848577Y-75911973D01*
X138848577Y-75911973D02*
X139889977Y-75911973D01*
X139889977Y-75911973D02*
X139889977Y-75635113D01*
X139889977Y-75635113D02*
X138848577Y-75635113D01*
X138848577Y-75124573D02*
X138848577Y-75403973D01*
X138848577Y-75403973D02*
X139889977Y-75403973D01*
X139889977Y-75403973D02*
X139889977Y-75124573D01*
X139889977Y-75124573D02*
X138848577Y-75124573D01*
X138848577Y-74641973D02*
X138848577Y-74895973D01*
X138848577Y-74895973D02*
X139889977Y-74895973D01*
X139889977Y-74895973D02*
X139889977Y-74641973D01*
X139889977Y-74641973D02*
X138848577Y-74641973D01*
X138848577Y-74133973D02*
X138848577Y-74413373D01*
X138848577Y-74413373D02*
X139889977Y-74413373D01*
X139889977Y-74413373D02*
X139889977Y-74133973D01*
X139889977Y-74133973D02*
X138848577Y-74133973D01*
X138848577Y-73625973D02*
X138848577Y-73905373D01*
X138848577Y-73905373D02*
X139889977Y-73905373D01*
X139889977Y-73905373D02*
X139889977Y-73625973D01*
X139889977Y-73625973D02*
X138848577Y-73625973D01*
X138848577Y-73143373D02*
X138848577Y-73397373D01*
X138848577Y-73397373D02*
X139889977Y-73397373D01*
X139889977Y-73397373D02*
X139889977Y-73143373D01*
X139889977Y-73143373D02*
X138848577Y-73143373D01*
X137426177Y-71974973D02*
X137680177Y-71974973D01*
X137680177Y-71974973D02*
X137680177Y-70933573D01*
X137680177Y-70933573D02*
X137426177Y-70933573D01*
X137426177Y-70933573D02*
X137426177Y-71974973D01*
X136918177Y-71974973D02*
X137197577Y-71974973D01*
X137197577Y-71974973D02*
X137197577Y-70933573D01*
X137197577Y-70933573D02*
X136918177Y-70933573D01*
X136918177Y-70933573D02*
X136918177Y-71974973D01*
X136410177Y-71974973D02*
X136689577Y-71974973D01*
X136689577Y-71974973D02*
X136689577Y-70933573D01*
X136689577Y-70933573D02*
X136410177Y-70933573D01*
X136410177Y-70933573D02*
X136410177Y-71974973D01*
X135927577Y-71974973D02*
X136181577Y-71974973D01*
X136181577Y-71974973D02*
X136181577Y-70933573D01*
X136181577Y-70933573D02*
X135927577Y-70933573D01*
X135927577Y-70933573D02*
X135927577Y-71974973D01*
X135419577Y-71974973D02*
X135698977Y-71974973D01*
X135698977Y-71974973D02*
X135698977Y-70933573D01*
X135698977Y-70933573D02*
X135419577Y-70933573D01*
X135419577Y-70933573D02*
X135419577Y-71974973D01*
X134911577Y-71974973D02*
X135188437Y-71974973D01*
X135188437Y-71974973D02*
X135188437Y-70933573D01*
X135188437Y-70933573D02*
X134911577Y-70933573D01*
X134911577Y-70933573D02*
X134911577Y-71974973D01*
X134428977Y-71974973D02*
X134682977Y-71974973D01*
X134682977Y-71974973D02*
X134682977Y-70933573D01*
X134682977Y-70933573D02*
X134428977Y-70933573D01*
X134428977Y-70933573D02*
X134428977Y-71974973D01*
X133920977Y-71974973D02*
X134174977Y-71974973D01*
X134174977Y-71974973D02*
X134174977Y-70933573D01*
X134174977Y-70933573D02*
X133920977Y-70933573D01*
X133920977Y-70933573D02*
X133920977Y-71974973D01*
X133412977Y-71974973D02*
X133692377Y-71974973D01*
X133692377Y-71974973D02*
X133692377Y-70933573D01*
X133692377Y-70933573D02*
X133412977Y-70933573D01*
X133412977Y-70933573D02*
X133412977Y-71974973D01*
X132904977Y-71974973D02*
X133184377Y-71974973D01*
X133184377Y-71974973D02*
X133184377Y-70933573D01*
X133184377Y-70933573D02*
X132904977Y-70933573D01*
X132904977Y-70933573D02*
X132904977Y-71974973D01*
X132422377Y-71974973D02*
X132676377Y-71974973D01*
X132676377Y-71974973D02*
X132676377Y-70933573D01*
X132676377Y-70933573D02*
X132422377Y-70933573D01*
X132422377Y-70933573D02*
X132422377Y-71974973D01*
X131914377Y-71974973D02*
X132193777Y-71974973D01*
X132193777Y-71974973D02*
X132193777Y-70933573D01*
X132193777Y-70933573D02*
X131914377Y-70933573D01*
X131914377Y-70933573D02*
X131914377Y-71974973D01*
X131406377Y-71974973D02*
X131685777Y-71974973D01*
X131685777Y-71974973D02*
X131685777Y-70933573D01*
X131685777Y-70933573D02*
X131406377Y-70933573D01*
X131406377Y-70933573D02*
X131406377Y-71974973D01*
X130923777Y-71974973D02*
X131177777Y-71974973D01*
X131177777Y-71974973D02*
X131177777Y-70933573D01*
X131177777Y-70933573D02*
X130923777Y-70933573D01*
X130923777Y-70933573D02*
X130923777Y-71974973D01*
X130415777Y-71974973D02*
X130695177Y-71974973D01*
X130695177Y-71974973D02*
X130695177Y-70933573D01*
X130695177Y-70933573D02*
X130415777Y-70933573D01*
X130415777Y-70933573D02*
X130415777Y-71974973D01*
X129907777Y-71974973D02*
X130187177Y-71974973D01*
X130187177Y-71974973D02*
X130187177Y-70933573D01*
X130187177Y-70933573D02*
X129907777Y-70933573D01*
X129907777Y-70933573D02*
X129907777Y-71974973D01*
X129425177Y-71974973D02*
X129679177Y-71974973D01*
X129679177Y-71974973D02*
X129679177Y-70933573D01*
X129679177Y-70933573D02*
X129425177Y-70933573D01*
X129425177Y-70933573D02*
X129425177Y-71974973D01*
X128917177Y-71974973D02*
X129194037Y-71974973D01*
X129194037Y-71974973D02*
X129194037Y-70933573D01*
X129194037Y-70933573D02*
X128917177Y-70933573D01*
X128917177Y-70933573D02*
X128917177Y-71974973D01*
X128406637Y-71974973D02*
X128688577Y-71974973D01*
X128688577Y-71974973D02*
X128688577Y-70933573D01*
X128688577Y-70933573D02*
X128406637Y-70933573D01*
X128406637Y-70933573D02*
X128406637Y-71974973D01*
X127926577Y-71974973D02*
X128180577Y-71974973D01*
X128180577Y-71974973D02*
X128180577Y-70933573D01*
X128180577Y-70933573D02*
X127926577Y-70933573D01*
X127926577Y-70933573D02*
X127926577Y-71974973D01*
X127418577Y-71974973D02*
X127697977Y-71974973D01*
X127697977Y-71974973D02*
X127697977Y-70933573D01*
X127697977Y-70933573D02*
X127418577Y-70933573D01*
X127418577Y-70933573D02*
X127418577Y-71974973D01*
X126910577Y-71974973D02*
X127189977Y-71974973D01*
X127189977Y-71974973D02*
X127189977Y-70933573D01*
X127189977Y-70933573D02*
X126910577Y-70933573D01*
X126910577Y-70933573D02*
X126910577Y-71974973D01*
X126427977Y-71974973D02*
X126681977Y-71974973D01*
X126681977Y-71974973D02*
X126681977Y-70933573D01*
X126681977Y-70933573D02*
X126427977Y-70933573D01*
X126427977Y-70933573D02*
X126427977Y-71974973D01*
X125919977Y-71974973D02*
X126199377Y-71974973D01*
X126199377Y-71974973D02*
X126199377Y-70933573D01*
X126199377Y-70933573D02*
X125919977Y-70933573D01*
X125919977Y-70933573D02*
X125919977Y-71974973D01*
X125411977Y-71974973D02*
X125691377Y-71974973D01*
X125691377Y-71974973D02*
X125691377Y-70933573D01*
X125691377Y-70933573D02*
X125411977Y-70933573D01*
X125411977Y-70933573D02*
X125411977Y-71974973D01*
X124929377Y-71974973D02*
X125183377Y-71974973D01*
X125183377Y-71974973D02*
X125183377Y-70933573D01*
X125183377Y-70933573D02*
X124929377Y-70933573D01*
X124929377Y-70933573D02*
X124929377Y-71974973D01*
X124421377Y-71974973D02*
X124675377Y-71974973D01*
X124675377Y-71974973D02*
X124675377Y-70933573D01*
X124675377Y-70933573D02*
X124421377Y-70933573D01*
X124421377Y-70933573D02*
X124421377Y-71974973D01*
X123913377Y-71974973D02*
X124192777Y-71974973D01*
X124192777Y-71974973D02*
X124192777Y-70933573D01*
X124192777Y-70933573D02*
X123913377Y-70933573D01*
X123913377Y-70933573D02*
X123913377Y-71974973D01*
X123405377Y-71974973D02*
X123684777Y-71974973D01*
X123684777Y-71974973D02*
X123684777Y-70933573D01*
X123684777Y-70933573D02*
X123405377Y-70933573D01*
X123405377Y-70933573D02*
X123405377Y-71974973D01*
X122922777Y-71974973D02*
X123176777Y-71974973D01*
X123176777Y-71974973D02*
X123176777Y-70933573D01*
X123176777Y-70933573D02*
X122922777Y-70933573D01*
X122922777Y-70933573D02*
X122922777Y-71974973D01*
X122414777Y-71974973D02*
X122694177Y-71974973D01*
X122694177Y-71974973D02*
X122694177Y-70933573D01*
X122694177Y-70933573D02*
X122414777Y-70933573D01*
X122414777Y-70933573D02*
X122414777Y-71974973D01*
X121906777Y-71974973D02*
X122186177Y-71974973D01*
X122186177Y-71974973D02*
X122186177Y-70933573D01*
X122186177Y-70933573D02*
X121906777Y-70933573D01*
X121906777Y-70933573D02*
X121906777Y-71974973D01*
X121424177Y-71974973D02*
X121678177Y-71974973D01*
X121678177Y-71974973D02*
X121678177Y-70933573D01*
X121678177Y-70933573D02*
X121424177Y-70933573D01*
X121424177Y-70933573D02*
X121424177Y-71974973D01*
X120916177Y-71974973D02*
X121198117Y-71974973D01*
X121198117Y-71974973D02*
X121198117Y-70933573D01*
X121198117Y-70933573D02*
X120916177Y-70933573D01*
X120916177Y-70933573D02*
X120916177Y-71974973D01*
X120410717Y-71974973D02*
X120687577Y-71974973D01*
X120687577Y-71974973D02*
X120687577Y-70933573D01*
X120687577Y-70933573D02*
X120410717Y-70933573D01*
X120410717Y-70933573D02*
X120410717Y-71974973D01*
X119925577Y-71974973D02*
X120179577Y-71974973D01*
X120179577Y-71974973D02*
X120179577Y-70933573D01*
X120179577Y-70933573D02*
X119925577Y-70933573D01*
X119925577Y-70933573D02*
X119925577Y-71974973D01*
X119417577Y-71974973D02*
X119696977Y-71974973D01*
X119696977Y-71974973D02*
X119696977Y-70933573D01*
X119696977Y-70933573D02*
X119417577Y-70933573D01*
X119417577Y-70933573D02*
X119417577Y-71974973D01*
X118909577Y-71974973D02*
X119188977Y-71974973D01*
X119188977Y-71974973D02*
X119188977Y-70933573D01*
X119188977Y-70933573D02*
X118909577Y-70933573D01*
X118909577Y-70933573D02*
X118909577Y-71974973D01*
X118426977Y-71974973D02*
X118680977Y-71974973D01*
X118680977Y-71974973D02*
X118680977Y-70933573D01*
X118680977Y-70933573D02*
X118426977Y-70933573D01*
X118426977Y-70933573D02*
X118426977Y-71974973D01*
X117918977Y-71974973D02*
X118198377Y-71974973D01*
X118198377Y-71974973D02*
X118198377Y-70933573D01*
X118198377Y-70933573D02*
X117918977Y-70933573D01*
X117918977Y-70933573D02*
X117918977Y-71974973D01*
X117410977Y-71974973D02*
X117690377Y-71974973D01*
X117690377Y-71974973D02*
X117690377Y-70933573D01*
X117690377Y-70933573D02*
X117410977Y-70933573D01*
X117410977Y-70933573D02*
X117410977Y-71974973D01*
X116928377Y-71974973D02*
X117182377Y-71974973D01*
X117182377Y-71974973D02*
X117182377Y-70933573D01*
X117182377Y-70933573D02*
X116928377Y-70933573D01*
X116928377Y-70933573D02*
X116928377Y-71974973D01*
X116420377Y-71974973D02*
X116699777Y-71974973D01*
X116699777Y-71974973D02*
X116699777Y-70933573D01*
X116699777Y-70933573D02*
X116420377Y-70933573D01*
X116420377Y-70933573D02*
X116420377Y-71974973D01*
X115912377Y-71974973D02*
X116191777Y-71974973D01*
X116191777Y-71974973D02*
X116191777Y-70933573D01*
X116191777Y-70933573D02*
X115912377Y-70933573D01*
X115912377Y-70933573D02*
X115912377Y-71974973D01*
X115429777Y-71974973D02*
X115683777Y-71974973D01*
X115683777Y-71974973D02*
X115683777Y-70933573D01*
X115683777Y-70933573D02*
X115429777Y-70933573D01*
X115429777Y-70933573D02*
X115429777Y-71974973D01*
X114921777Y-71974973D02*
X115175777Y-71974973D01*
X115175777Y-71974973D02*
X115175777Y-70933573D01*
X115175777Y-70933573D02*
X114921777Y-70933573D01*
X114921777Y-70933573D02*
X114921777Y-71974973D01*
X114416317Y-71974973D02*
X114693177Y-71974973D01*
X114693177Y-71974973D02*
X114693177Y-70933573D01*
X114693177Y-70933573D02*
X114416317Y-70933573D01*
X114416317Y-70933573D02*
X114416317Y-71974973D01*
X113905777Y-71974973D02*
X114185177Y-71974973D01*
X114185177Y-71974973D02*
X114185177Y-70933573D01*
X114185177Y-70933573D02*
X113905777Y-70933573D01*
X113905777Y-70933573D02*
X113905777Y-71974973D01*
X113423177Y-71974973D02*
X113677177Y-71974973D01*
X113677177Y-71974973D02*
X113677177Y-70933573D01*
X113677177Y-70933573D02*
X113423177Y-70933573D01*
X113423177Y-70933573D02*
X113423177Y-71974973D01*
X112915177Y-71974973D02*
X113194577Y-71974973D01*
X113194577Y-71974973D02*
X113194577Y-70933573D01*
X113194577Y-70933573D02*
X112915177Y-70933573D01*
X112915177Y-70933573D02*
X112915177Y-71974973D01*
X112407177Y-71974973D02*
X112686577Y-71974973D01*
X112686577Y-71974973D02*
X112686577Y-70933573D01*
X112686577Y-70933573D02*
X112407177Y-70933573D01*
X112407177Y-70933573D02*
X112407177Y-71974973D01*
X111924577Y-71974973D02*
X112178577Y-71974973D01*
X112178577Y-71974973D02*
X112178577Y-70933573D01*
X112178577Y-70933573D02*
X111924577Y-70933573D01*
X111924577Y-70933573D02*
X111924577Y-71974973D01*
X138848577Y-100067373D02*
X138848577Y-71974973D01*
X138848577Y-71974973D02*
X110756177Y-71974973D01*
X110756177Y-71974973D02*
X110756177Y-100067373D01*
X110756177Y-100067373D02*
X138848577Y-100067373D01*
D12*
X111086377Y-99737173D02*
X111086377Y-72305173D01*
X111086377Y-72305173D02*
X138518377Y-72305173D01*
X138518377Y-72305173D02*
X138518377Y-99737173D01*
X138518377Y-99737173D02*
X111086377Y-99737173D01*
D13*
X113369824Y-97705173D02*
G75*
G03X113369824Y-97705173I-251447J0D01*
G01*
D12*
X103085900Y-68244720D02*
X103085900Y-90799920D01*
X103085900Y-90799920D02*
X92849700Y-90799920D01*
X92849700Y-90799920D02*
X92849700Y-68244720D01*
X92849700Y-68244720D02*
X103085900Y-68244720D01*
D13*
X102067876Y-88971120D02*
G75*
G03X102067876Y-88971120I-556776J0D01*
G01*
D14*
X105684320Y-81122520D02*
X105684320Y-82468720D01*
X108183680Y-81122520D02*
X105684320Y-81122520D01*
X108183680Y-82468720D02*
X108183680Y-81122520D01*
X105689400Y-82468720D02*
X108183680Y-82468720D01*
D10*
X107315000Y-81305400D02*
X107315000Y-82270600D01*
X107315000Y-82270600D02*
X107797600Y-82270600D01*
X107797600Y-81305400D02*
X107315000Y-81305400D01*
X106553000Y-82270600D02*
X106553000Y-81305400D01*
X106553000Y-81305400D02*
X106070400Y-81305400D01*
X106070400Y-82270600D02*
X106553000Y-82270600D01*
X107315000Y-81305400D02*
X106553000Y-81305400D01*
X106070400Y-81305400D02*
X106070400Y-82270600D01*
X106553000Y-82270600D02*
X107315000Y-82270600D01*
X107797600Y-82270600D02*
X107797600Y-81305400D01*
D14*
X105557320Y-76093320D02*
X105557320Y-77439520D01*
X108056680Y-76093320D02*
X105557320Y-76093320D01*
X108056680Y-77439520D02*
X108056680Y-76093320D01*
X105562400Y-77439520D02*
X108056680Y-77439520D01*
D10*
X107188000Y-76276200D02*
X107188000Y-77241400D01*
X107188000Y-77241400D02*
X107670600Y-77241400D01*
X107670600Y-76276200D02*
X107188000Y-76276200D01*
X106426000Y-77241400D02*
X106426000Y-76276200D01*
X106426000Y-76276200D02*
X105943400Y-76276200D01*
X105943400Y-77241400D02*
X106426000Y-77241400D01*
X107188000Y-76276200D02*
X106426000Y-76276200D01*
X105943400Y-76276200D02*
X105943400Y-77241400D01*
X106426000Y-77241400D02*
X107188000Y-77241400D01*
X107670600Y-77241400D02*
X107670600Y-76276200D01*
D14*
X108069380Y-80040480D02*
X108069380Y-78694280D01*
X105570020Y-80040480D02*
X108069380Y-80040480D01*
X105570020Y-78694280D02*
X105570020Y-80040480D01*
X108064300Y-78694280D02*
X105570020Y-78694280D01*
D10*
X106438700Y-79857600D02*
X106438700Y-78892400D01*
X106438700Y-78892400D02*
X105956100Y-78892400D01*
X105956100Y-79857600D02*
X106438700Y-79857600D01*
X107200700Y-78892400D02*
X107200700Y-79857600D01*
X107200700Y-79857600D02*
X107683300Y-79857600D01*
X107683300Y-78892400D02*
X107200700Y-78892400D01*
X106438700Y-79857600D02*
X107200700Y-79857600D01*
X107683300Y-79857600D02*
X107683300Y-78892400D01*
X107200700Y-78892400D02*
X106438700Y-78892400D01*
X105956100Y-78892400D02*
X105956100Y-79857600D01*
D12*
X129070100Y-59526170D02*
X129070100Y-65365630D01*
X129070100Y-65365630D02*
X124269500Y-65365630D01*
X124269500Y-65365630D02*
X124269500Y-59526170D01*
X124269500Y-59526170D02*
X129070100Y-59526170D01*
D13*
X125536947Y-60542170D02*
G75*
G03X125536947Y-60542170I-251447J0D01*
G01*
D12*
X167937180Y-84028280D02*
X167937180Y-86024720D01*
X167937180Y-86024720D02*
X169534840Y-85026500D01*
X169534840Y-85026500D02*
X167937180Y-84028280D01*
X169534840Y-84028280D02*
X169732960Y-84028280D01*
X169732960Y-84028280D02*
X169732960Y-86024720D01*
X169732960Y-86024720D02*
X169933620Y-86024720D01*
X166636700Y-86926420D02*
X171135040Y-86926420D01*
X171135040Y-86926420D02*
X171135040Y-86525100D01*
X166636700Y-86926420D02*
X166636700Y-86525100D01*
X166636700Y-83527900D02*
X166636700Y-83126580D01*
X166636700Y-83126580D02*
X171135040Y-83126580D01*
X171135040Y-83126580D02*
X171135040Y-83527900D01*
X166969977Y-91646320D02*
X172049977Y-91646320D01*
X172049977Y-91646320D02*
X172049977Y-95456320D01*
X172049977Y-95456320D02*
X166969977Y-95456320D01*
X166969977Y-95456320D02*
X166969977Y-91646320D01*
D13*
X167856424Y-94186320D02*
G75*
G03X167856424Y-94186320I-251447J0D01*
G01*
D14*
X170756580Y-89311480D02*
X170756580Y-87965280D01*
X168257220Y-89311480D02*
X170756580Y-89311480D01*
X168257220Y-87965280D02*
X168257220Y-89311480D01*
X170751500Y-87965280D02*
X168257220Y-87965280D01*
D10*
X169125900Y-89128600D02*
X169125900Y-88163400D01*
X169125900Y-88163400D02*
X168643300Y-88163400D01*
X168643300Y-89128600D02*
X169125900Y-89128600D01*
X169887900Y-88163400D02*
X169887900Y-89128600D01*
X169887900Y-89128600D02*
X170370500Y-89128600D01*
X170370500Y-88163400D02*
X169887900Y-88163400D01*
X169125900Y-89128600D02*
X169887900Y-89128600D01*
X170370500Y-89128600D02*
X170370500Y-88163400D01*
X169887900Y-88163400D02*
X169125900Y-88163400D01*
X168643300Y-88163400D02*
X168643300Y-89128600D01*
D12*
X106550460Y-94173040D02*
X106050080Y-93675200D01*
X105051860Y-116174520D02*
X101051360Y-116174520D01*
X96052640Y-116174520D02*
X92052140Y-116174520D01*
X105051860Y-116174520D02*
X105051860Y-111673640D01*
X92052140Y-116174520D02*
X92052140Y-111673640D01*
X90553540Y-94173040D02*
X90553540Y-110175040D01*
X90553540Y-110175040D02*
X92052140Y-111673640D01*
X106550460Y-94173040D02*
X106550460Y-110175040D01*
X106550460Y-110175040D02*
X105051860Y-111673640D01*
X106550460Y-94173040D02*
X107050840Y-94673420D01*
X107050840Y-109674660D02*
X106550460Y-110175040D01*
X90553540Y-110175040D02*
X90053160Y-109674660D01*
X90053160Y-94673420D02*
X90553540Y-94173040D01*
X106037353Y-93663906D02*
G75*
G03X98552000Y-91175840I-6652233J-7509374D01*
G01*
X98540476Y-91174473D02*
G75*
G03X91053920Y-93675200I-679356J-10422987D01*
G01*
X91044960Y-93681493D02*
G75*
G03X90553540Y-94173040I14575860J-15063527D01*
G01*
X107050840Y-109674660D02*
G75*
G03X107050840Y-94673420I-7500620J7500620D01*
G01*
X90053160Y-94673420D02*
G75*
G03X90053160Y-109674660I7500620J-7500620D01*
G01*
D14*
X119899200Y-58882400D02*
X119899200Y-60132400D01*
X120649200Y-58882400D02*
X119899200Y-58882400D01*
X120649200Y-57882400D02*
X120649200Y-58882400D01*
X95899200Y-58882400D02*
X95899200Y-60132400D01*
X95149200Y-58882400D02*
X95899200Y-58882400D01*
X95149200Y-57882400D02*
X95149200Y-58882400D01*
X120649200Y-57882400D02*
X95149200Y-57882400D01*
X119899200Y-64582400D02*
X119899200Y-63782400D01*
X118299200Y-64582400D02*
X119899200Y-64582400D01*
X95699200Y-64582400D02*
X95699200Y-63782400D01*
X97499200Y-64582400D02*
X95699200Y-64582400D01*
D12*
X120567442Y-111753177D02*
X120567442Y-109721177D01*
X126663442Y-111753177D02*
X126663442Y-109721177D01*
D14*
X89695020Y-87863680D02*
X91041220Y-87863680D01*
X89695020Y-85364320D02*
X89695020Y-87863680D01*
X91041220Y-85364320D02*
X89695020Y-85364320D01*
X91041220Y-87858600D02*
X91041220Y-85364320D01*
D10*
X89877900Y-86233000D02*
X90843100Y-86233000D01*
X90843100Y-86233000D02*
X90843100Y-85750400D01*
X89877900Y-85750400D02*
X89877900Y-86233000D01*
X90843100Y-86995000D02*
X89877900Y-86995000D01*
X89877900Y-86995000D02*
X89877900Y-87477600D01*
X90843100Y-87477600D02*
X90843100Y-86995000D01*
X89877900Y-86233000D02*
X89877900Y-86995000D01*
X89877900Y-87477600D02*
X90843100Y-87477600D01*
X90843100Y-86995000D02*
X90843100Y-86233000D01*
X90843100Y-85750400D02*
X89877900Y-85750400D01*
D14*
X105620820Y-87472520D02*
X105620820Y-88818720D01*
X108120180Y-87472520D02*
X105620820Y-87472520D01*
X108120180Y-88818720D02*
X108120180Y-87472520D01*
X105625900Y-88818720D02*
X108120180Y-88818720D01*
D10*
X107251500Y-87655400D02*
X107251500Y-88620600D01*
X107251500Y-88620600D02*
X107734100Y-88620600D01*
X107734100Y-87655400D02*
X107251500Y-87655400D01*
X106489500Y-88620600D02*
X106489500Y-87655400D01*
X106489500Y-87655400D02*
X106006900Y-87655400D01*
X106006900Y-88620600D02*
X106489500Y-88620600D01*
X107251500Y-87655400D02*
X106489500Y-87655400D01*
X106006900Y-87655400D02*
X106006900Y-88620600D01*
X106489500Y-88620600D02*
X107251500Y-88620600D01*
X107734100Y-88620600D02*
X107734100Y-87655400D01*
D14*
X91089480Y-80538320D02*
X89743280Y-80538320D01*
X91089480Y-83037680D02*
X91089480Y-80538320D01*
X89743280Y-83037680D02*
X91089480Y-83037680D01*
X89743280Y-80543400D02*
X89743280Y-83037680D01*
D10*
X90906600Y-82169000D02*
X89941400Y-82169000D01*
X89941400Y-82169000D02*
X89941400Y-82651600D01*
X90906600Y-82651600D02*
X90906600Y-82169000D01*
X89941400Y-81407000D02*
X90906600Y-81407000D01*
X90906600Y-81407000D02*
X90906600Y-80924400D01*
X89941400Y-80924400D02*
X89941400Y-81407000D01*
X90906600Y-82169000D02*
X90906600Y-81407000D01*
X90906600Y-80924400D02*
X89941400Y-80924400D01*
X89941400Y-81407000D02*
X89941400Y-82169000D01*
X89941400Y-82651600D02*
X90906600Y-82651600D01*
D14*
X105684320Y-89187020D02*
X105684320Y-90533220D01*
X108183680Y-89187020D02*
X105684320Y-89187020D01*
X108183680Y-90533220D02*
X108183680Y-89187020D01*
X105689400Y-90533220D02*
X108183680Y-90533220D01*
D10*
X107315000Y-89369900D02*
X107315000Y-90335100D01*
X107315000Y-90335100D02*
X107797600Y-90335100D01*
X107797600Y-89369900D02*
X107315000Y-89369900D01*
X106553000Y-90335100D02*
X106553000Y-89369900D01*
X106553000Y-89369900D02*
X106070400Y-89369900D01*
X106070400Y-90335100D02*
X106553000Y-90335100D01*
X107315000Y-89369900D02*
X106553000Y-89369900D01*
X106070400Y-89369900D02*
X106070400Y-90335100D01*
X106553000Y-90335100D02*
X107315000Y-90335100D01*
X107797600Y-90335100D02*
X107797600Y-89369900D01*
D14*
X105557320Y-82773520D02*
X105557320Y-84119720D01*
X108056680Y-82773520D02*
X105557320Y-82773520D01*
X108056680Y-84119720D02*
X108056680Y-82773520D01*
X105562400Y-84119720D02*
X108056680Y-84119720D01*
D10*
X107188000Y-82956400D02*
X107188000Y-83921600D01*
X107188000Y-83921600D02*
X107670600Y-83921600D01*
X107670600Y-82956400D02*
X107188000Y-82956400D01*
X106426000Y-83921600D02*
X106426000Y-82956400D01*
X106426000Y-82956400D02*
X105943400Y-82956400D01*
X105943400Y-83921600D02*
X106426000Y-83921600D01*
X107188000Y-82956400D02*
X106426000Y-82956400D01*
X105943400Y-82956400D02*
X105943400Y-83921600D01*
X106426000Y-83921600D02*
X107188000Y-83921600D01*
X107670600Y-83921600D02*
X107670600Y-82956400D01*
D14*
X106227880Y-68803520D02*
X104881680Y-68803520D01*
X106227880Y-71302880D02*
X106227880Y-68803520D01*
X104881680Y-71302880D02*
X106227880Y-71302880D01*
X104881680Y-68808600D02*
X104881680Y-71302880D01*
D10*
X106045000Y-70434200D02*
X105079800Y-70434200D01*
X105079800Y-70434200D02*
X105079800Y-70916800D01*
X106045000Y-70916800D02*
X106045000Y-70434200D01*
X105079800Y-69672200D02*
X106045000Y-69672200D01*
X106045000Y-69672200D02*
X106045000Y-69189600D01*
X105079800Y-69189600D02*
X105079800Y-69672200D01*
X106045000Y-70434200D02*
X106045000Y-69672200D01*
X106045000Y-69189600D02*
X105079800Y-69189600D01*
X105079800Y-69672200D02*
X105079800Y-70434200D01*
X105079800Y-70916800D02*
X106045000Y-70916800D01*
D14*
X129570480Y-58920380D02*
X129570480Y-57574180D01*
X127071120Y-58920380D02*
X129570480Y-58920380D01*
X127071120Y-57574180D02*
X127071120Y-58920380D01*
X129565400Y-57574180D02*
X127071120Y-57574180D01*
D10*
X127939800Y-58737500D02*
X127939800Y-57772300D01*
X127939800Y-57772300D02*
X127457200Y-57772300D01*
X127457200Y-58737500D02*
X127939800Y-58737500D01*
X128701800Y-57772300D02*
X128701800Y-58737500D01*
X128701800Y-58737500D02*
X129184400Y-58737500D01*
X129184400Y-57772300D02*
X128701800Y-57772300D01*
X127939800Y-58737500D02*
X128701800Y-58737500D01*
X129184400Y-58737500D02*
X129184400Y-57772300D01*
X128701800Y-57772300D02*
X127939800Y-57772300D01*
X127457200Y-57772300D02*
X127457200Y-58737500D01*
D14*
X166425880Y-92412820D02*
X165079680Y-92412820D01*
X166425880Y-94912180D02*
X166425880Y-92412820D01*
X165079680Y-94912180D02*
X166425880Y-94912180D01*
X165079680Y-92417900D02*
X165079680Y-94912180D01*
D10*
X166243000Y-94043500D02*
X165277800Y-94043500D01*
X165277800Y-94043500D02*
X165277800Y-94526100D01*
X166243000Y-94526100D02*
X166243000Y-94043500D01*
X165277800Y-93281500D02*
X166243000Y-93281500D01*
X166243000Y-93281500D02*
X166243000Y-92798900D01*
X165277800Y-92798900D02*
X165277800Y-93281500D01*
X166243000Y-94043500D02*
X166243000Y-93281500D01*
X166243000Y-92798900D02*
X165277800Y-92798900D01*
X165277800Y-93281500D02*
X165277800Y-94043500D01*
X165277800Y-94526100D02*
X166243000Y-94526100D01*
D14*
X144505680Y-71582280D02*
X144505680Y-70236080D01*
X142006320Y-71582280D02*
X144505680Y-71582280D01*
X142006320Y-70236080D02*
X142006320Y-71582280D01*
X144500600Y-70236080D02*
X142006320Y-70236080D01*
D10*
X142875000Y-71399400D02*
X142875000Y-70434200D01*
X142875000Y-70434200D02*
X142392400Y-70434200D01*
X142392400Y-71399400D02*
X142875000Y-71399400D01*
X143637000Y-70434200D02*
X143637000Y-71399400D01*
X143637000Y-71399400D02*
X144119600Y-71399400D01*
X144119600Y-70434200D02*
X143637000Y-70434200D01*
X142875000Y-71399400D02*
X143637000Y-71399400D01*
X144119600Y-71399400D02*
X144119600Y-70434200D01*
X143637000Y-70434200D02*
X142875000Y-70434200D01*
X142392400Y-70434200D02*
X142392400Y-71399400D01*
D14*
X141991080Y-78811120D02*
X140644880Y-78811120D01*
X141991080Y-81310480D02*
X141991080Y-78811120D01*
X140644880Y-81310480D02*
X141991080Y-81310480D01*
X140644880Y-78816200D02*
X140644880Y-81310480D01*
D10*
X141808200Y-80441800D02*
X140843000Y-80441800D01*
X140843000Y-80441800D02*
X140843000Y-80924400D01*
X141808200Y-80924400D02*
X141808200Y-80441800D01*
X140843000Y-79679800D02*
X141808200Y-79679800D01*
X141808200Y-79679800D02*
X141808200Y-79197200D01*
X140843000Y-79197200D02*
X140843000Y-79679800D01*
X141808200Y-80441800D02*
X141808200Y-79679800D01*
X141808200Y-79197200D02*
X140843000Y-79197200D01*
X140843000Y-79679800D02*
X140843000Y-80441800D01*
X140843000Y-80924400D02*
X141808200Y-80924400D01*
D14*
X136072880Y-69956680D02*
X136072880Y-68610480D01*
X133573520Y-69956680D02*
X136072880Y-69956680D01*
X133573520Y-68610480D02*
X133573520Y-69956680D01*
X136067800Y-68610480D02*
X133573520Y-68610480D01*
D10*
X134442200Y-69773800D02*
X134442200Y-68808600D01*
X134442200Y-68808600D02*
X133959600Y-68808600D01*
X133959600Y-69773800D02*
X134442200Y-69773800D01*
X135204200Y-68808600D02*
X135204200Y-69773800D01*
X135204200Y-69773800D02*
X135686800Y-69773800D01*
X135686800Y-68808600D02*
X135204200Y-68808600D01*
X134442200Y-69773800D02*
X135204200Y-69773800D01*
X135686800Y-69773800D02*
X135686800Y-68808600D01*
X135204200Y-68808600D02*
X134442200Y-68808600D01*
X133959600Y-68808600D02*
X133959600Y-69773800D01*
D14*
X120937020Y-104551480D02*
X122283220Y-104551480D01*
X120937020Y-102052120D02*
X120937020Y-104551480D01*
X122283220Y-102052120D02*
X120937020Y-102052120D01*
X122283220Y-104546400D02*
X122283220Y-102052120D01*
D10*
X121119900Y-102920800D02*
X122085100Y-102920800D01*
X122085100Y-102920800D02*
X122085100Y-102438200D01*
X121119900Y-102438200D02*
X121119900Y-102920800D01*
X122085100Y-103682800D02*
X121119900Y-103682800D01*
X121119900Y-103682800D02*
X121119900Y-104165400D01*
X122085100Y-104165400D02*
X122085100Y-103682800D01*
X121119900Y-102920800D02*
X121119900Y-103682800D01*
X121119900Y-104165400D02*
X122085100Y-104165400D01*
X122085100Y-103682800D02*
X122085100Y-102920800D01*
X122085100Y-102438200D02*
X121119900Y-102438200D01*
D14*
X125597920Y-65526920D02*
X125597920Y-66873120D01*
X128097280Y-65526920D02*
X125597920Y-65526920D01*
X128097280Y-66873120D02*
X128097280Y-65526920D01*
X125603000Y-66873120D02*
X128097280Y-66873120D01*
D10*
X127228600Y-65709800D02*
X127228600Y-66675000D01*
X127228600Y-66675000D02*
X127711200Y-66675000D01*
X127711200Y-65709800D02*
X127228600Y-65709800D01*
X126466600Y-66675000D02*
X126466600Y-65709800D01*
X126466600Y-65709800D02*
X125984000Y-65709800D01*
X125984000Y-66675000D02*
X126466600Y-66675000D01*
X127228600Y-65709800D02*
X126466600Y-65709800D01*
X125984000Y-65709800D02*
X125984000Y-66675000D01*
X126466600Y-66675000D02*
X127228600Y-66675000D01*
X127711200Y-66675000D02*
X127711200Y-65709800D01*
D14*
X118460520Y-104551480D02*
X119806720Y-104551480D01*
X118460520Y-102052120D02*
X118460520Y-104551480D01*
X119806720Y-102052120D02*
X118460520Y-102052120D01*
X119806720Y-104546400D02*
X119806720Y-102052120D01*
D10*
X118643400Y-102920800D02*
X119608600Y-102920800D01*
X119608600Y-102920800D02*
X119608600Y-102438200D01*
X118643400Y-102438200D02*
X118643400Y-102920800D01*
X119608600Y-103682800D02*
X118643400Y-103682800D01*
X118643400Y-103682800D02*
X118643400Y-104165400D01*
X119608600Y-104165400D02*
X119608600Y-103682800D01*
X118643400Y-102920800D02*
X118643400Y-103682800D01*
X118643400Y-104165400D02*
X119608600Y-104165400D01*
X119608600Y-103682800D02*
X119608600Y-102920800D01*
X119608600Y-102438200D02*
X118643400Y-102438200D01*
D14*
X117695980Y-67457320D02*
X116349780Y-67457320D01*
X117695980Y-69956680D02*
X117695980Y-67457320D01*
X116349780Y-69956680D02*
X117695980Y-69956680D01*
X116349780Y-67462400D02*
X116349780Y-69956680D01*
D10*
X117513100Y-69088000D02*
X116547900Y-69088000D01*
X116547900Y-69088000D02*
X116547900Y-69570600D01*
X117513100Y-69570600D02*
X117513100Y-69088000D01*
X116547900Y-68326000D02*
X117513100Y-68326000D01*
X117513100Y-68326000D02*
X117513100Y-67843400D01*
X116547900Y-67843400D02*
X116547900Y-68326000D01*
X117513100Y-69088000D02*
X117513100Y-68326000D01*
X117513100Y-67843400D02*
X116547900Y-67843400D01*
X116547900Y-68326000D02*
X116547900Y-69088000D01*
X116547900Y-69570600D02*
X117513100Y-69570600D01*
D14*
X123985020Y-104564180D02*
X125331220Y-104564180D01*
X123985020Y-102064820D02*
X123985020Y-104564180D01*
X125331220Y-102064820D02*
X123985020Y-102064820D01*
X125331220Y-104559100D02*
X125331220Y-102064820D01*
D10*
X124167900Y-102933500D02*
X125133100Y-102933500D01*
X125133100Y-102933500D02*
X125133100Y-102450900D01*
X124167900Y-102450900D02*
X124167900Y-102933500D01*
X125133100Y-103695500D02*
X124167900Y-103695500D01*
X124167900Y-103695500D02*
X124167900Y-104178100D01*
X125133100Y-104178100D02*
X125133100Y-103695500D01*
X124167900Y-102933500D02*
X124167900Y-103695500D01*
X124167900Y-104178100D02*
X125133100Y-104178100D01*
X125133100Y-103695500D02*
X125133100Y-102933500D01*
X125133100Y-102450900D02*
X124167900Y-102450900D01*
D14*
X142041880Y-93238320D02*
X140695680Y-93238320D01*
X142041880Y-95737680D02*
X142041880Y-93238320D01*
X140695680Y-95737680D02*
X142041880Y-95737680D01*
X140695680Y-93243400D02*
X140695680Y-95737680D01*
D10*
X141859000Y-94869000D02*
X140893800Y-94869000D01*
X140893800Y-94869000D02*
X140893800Y-95351600D01*
X141859000Y-95351600D02*
X141859000Y-94869000D01*
X140893800Y-94107000D02*
X141859000Y-94107000D01*
X141859000Y-94107000D02*
X141859000Y-93624400D01*
X140893800Y-93624400D02*
X140893800Y-94107000D01*
X141859000Y-94869000D02*
X141859000Y-94107000D01*
X141859000Y-93624400D02*
X140893800Y-93624400D01*
X140893800Y-94107000D02*
X140893800Y-94869000D01*
X140893800Y-95351600D02*
X141859000Y-95351600D01*
D14*
X105620820Y-84551520D02*
X105620820Y-85897720D01*
X108120180Y-84551520D02*
X105620820Y-84551520D01*
X108120180Y-85897720D02*
X108120180Y-84551520D01*
X105625900Y-85897720D02*
X108120180Y-85897720D01*
D10*
X107251500Y-84734400D02*
X107251500Y-85699600D01*
X107251500Y-85699600D02*
X107734100Y-85699600D01*
X107734100Y-84734400D02*
X107251500Y-84734400D01*
X106489500Y-85699600D02*
X106489500Y-84734400D01*
X106489500Y-84734400D02*
X106006900Y-84734400D01*
X106006900Y-85699600D02*
X106489500Y-85699600D01*
X107251500Y-84734400D02*
X106489500Y-84734400D01*
X106006900Y-84734400D02*
X106006900Y-85699600D01*
X106489500Y-85699600D02*
X107251500Y-85699600D01*
X107734100Y-85699600D02*
X107734100Y-84734400D01*
D14*
X140710920Y-84206080D02*
X142057120Y-84206080D01*
X140710920Y-81706720D02*
X140710920Y-84206080D01*
X142057120Y-81706720D02*
X140710920Y-81706720D01*
X142057120Y-84201000D02*
X142057120Y-81706720D01*
D10*
X140893800Y-82575400D02*
X141859000Y-82575400D01*
X141859000Y-82575400D02*
X141859000Y-82092800D01*
X140893800Y-82092800D02*
X140893800Y-82575400D01*
X141859000Y-83337400D02*
X140893800Y-83337400D01*
X140893800Y-83337400D02*
X140893800Y-83820000D01*
X141859000Y-83820000D02*
X141859000Y-83337400D01*
X140893800Y-82575400D02*
X140893800Y-83337400D01*
X140893800Y-83820000D02*
X141859000Y-83820000D01*
X141859000Y-83337400D02*
X141859000Y-82575400D01*
X141859000Y-82092800D02*
X140893800Y-82092800D01*
D14*
X108564680Y-91612720D02*
X107218480Y-91612720D01*
X108564680Y-94112080D02*
X108564680Y-91612720D01*
X107218480Y-94112080D02*
X108564680Y-94112080D01*
X107218480Y-91617800D02*
X107218480Y-94112080D01*
D10*
X108381800Y-93243400D02*
X107416600Y-93243400D01*
X107416600Y-93243400D02*
X107416600Y-93726000D01*
X108381800Y-93726000D02*
X108381800Y-93243400D01*
X107416600Y-92481400D02*
X108381800Y-92481400D01*
X108381800Y-92481400D02*
X108381800Y-91998800D01*
X107416600Y-91998800D02*
X107416600Y-92481400D01*
X108381800Y-93243400D02*
X108381800Y-92481400D01*
X108381800Y-91998800D02*
X107416600Y-91998800D01*
X107416600Y-92481400D02*
X107416600Y-93243400D01*
X107416600Y-93726000D02*
X108381800Y-93726000D01*
D14*
X142092680Y-87751920D02*
X140746480Y-87751920D01*
X142092680Y-90251280D02*
X142092680Y-87751920D01*
X140746480Y-90251280D02*
X142092680Y-90251280D01*
X140746480Y-87757000D02*
X140746480Y-90251280D01*
D10*
X141909800Y-89382600D02*
X140944600Y-89382600D01*
X140944600Y-89382600D02*
X140944600Y-89865200D01*
X141909800Y-89865200D02*
X141909800Y-89382600D01*
X140944600Y-88620600D02*
X141909800Y-88620600D01*
X141909800Y-88620600D02*
X141909800Y-88138000D01*
X140944600Y-88138000D02*
X140944600Y-88620600D01*
X141909800Y-89382600D02*
X141909800Y-88620600D01*
X141909800Y-88138000D02*
X140944600Y-88138000D01*
X140944600Y-88620600D02*
X140944600Y-89382600D01*
X140944600Y-89865200D02*
X141909800Y-89865200D01*
D14*
X138361420Y-110065820D02*
X138361420Y-111412020D01*
X140860780Y-110065820D02*
X138361420Y-110065820D01*
X140860780Y-111412020D02*
X140860780Y-110065820D01*
X138366500Y-111412020D02*
X140860780Y-111412020D01*
D10*
X139992100Y-110248700D02*
X139992100Y-111213900D01*
X139992100Y-111213900D02*
X140474700Y-111213900D01*
X140474700Y-110248700D02*
X139992100Y-110248700D01*
X139230100Y-111213900D02*
X139230100Y-110248700D01*
X139230100Y-110248700D02*
X138747500Y-110248700D01*
X138747500Y-111213900D02*
X139230100Y-111213900D01*
X139992100Y-110248700D02*
X139230100Y-110248700D01*
X138747500Y-110248700D02*
X138747500Y-111213900D01*
X139230100Y-111213900D02*
X139992100Y-111213900D01*
X140474700Y-111213900D02*
X140474700Y-110248700D01*
D14*
X144543780Y-111396780D02*
X144543780Y-110050580D01*
X142044420Y-111396780D02*
X144543780Y-111396780D01*
X142044420Y-110050580D02*
X142044420Y-111396780D01*
X144538700Y-110050580D02*
X142044420Y-110050580D01*
D10*
X142913100Y-111213900D02*
X142913100Y-110248700D01*
X142913100Y-110248700D02*
X142430500Y-110248700D01*
X142430500Y-111213900D02*
X142913100Y-111213900D01*
X143675100Y-110248700D02*
X143675100Y-111213900D01*
X143675100Y-111213900D02*
X144157700Y-111213900D01*
X144157700Y-110248700D02*
X143675100Y-110248700D01*
X142913100Y-111213900D02*
X143675100Y-111213900D01*
X144157700Y-111213900D02*
X144157700Y-110248700D01*
X143675100Y-110248700D02*
X142913100Y-110248700D01*
X142430500Y-110248700D02*
X142430500Y-111213900D01*
D14*
X126682500Y-58915300D02*
X126682500Y-57594500D01*
X123837700Y-58915300D02*
X126682500Y-58915300D01*
X123837700Y-57594500D02*
X123837700Y-58915300D01*
X126682500Y-57594500D02*
X123837700Y-57594500D01*
D10*
X124802900Y-58737500D02*
X124802900Y-57772300D01*
X124802900Y-57772300D02*
X124421900Y-57772300D01*
X124421900Y-58737500D02*
X124802900Y-58737500D01*
X125717300Y-57772300D02*
X125717300Y-58737500D01*
X125717300Y-58737500D02*
X126098300Y-58737500D01*
X126098300Y-57772300D02*
X125717300Y-57772300D01*
X124802900Y-58737500D02*
X125717300Y-58737500D01*
X126098300Y-58737500D02*
X126098300Y-57772300D01*
X125717300Y-57772300D02*
X124802900Y-57772300D01*
X124421900Y-57772300D02*
X124421900Y-58737500D01*
D14*
X154303002Y-69271500D02*
X154303002Y-67950700D01*
X151458202Y-69271500D02*
X154303002Y-69271500D01*
X151458202Y-67950700D02*
X151458202Y-69271500D01*
X154303002Y-67950700D02*
X151458202Y-67950700D01*
D10*
X152423402Y-69093700D02*
X152423402Y-68128500D01*
X152423402Y-68128500D02*
X152042402Y-68128500D01*
X152042402Y-69093700D02*
X152423402Y-69093700D01*
X153337802Y-68128500D02*
X153337802Y-69093700D01*
X153337802Y-69093700D02*
X153718802Y-69093700D01*
X153718802Y-68128500D02*
X153337802Y-68128500D01*
X152423402Y-69093700D02*
X153337802Y-69093700D01*
X153718802Y-69093700D02*
X153718802Y-68128500D01*
X153337802Y-68128500D02*
X152423402Y-68128500D01*
X152042402Y-68128500D02*
X152042402Y-69093700D01*
D14*
X150863002Y-69271500D02*
X150863002Y-67950700D01*
X148018202Y-69271500D02*
X150863002Y-69271500D01*
X148018202Y-67950700D02*
X148018202Y-69271500D01*
X150863002Y-67950700D02*
X148018202Y-67950700D01*
D10*
X148983402Y-69093700D02*
X148983402Y-68128500D01*
X148983402Y-68128500D02*
X148602402Y-68128500D01*
X148602402Y-69093700D02*
X148983402Y-69093700D01*
X149897802Y-68128500D02*
X149897802Y-69093700D01*
X149897802Y-69093700D02*
X150278802Y-69093700D01*
X150278802Y-68128500D02*
X149897802Y-68128500D01*
X148983402Y-69093700D02*
X149897802Y-69093700D01*
X150278802Y-69093700D02*
X150278802Y-68128500D01*
X149897802Y-68128500D02*
X148983402Y-68128500D01*
X148602402Y-68128500D02*
X148602402Y-69093700D01*
D14*
X150723600Y-59486800D02*
X149402800Y-59486800D01*
X150723600Y-62331600D02*
X150723600Y-59486800D01*
X149402800Y-62331600D02*
X150723600Y-62331600D01*
X149402800Y-59486800D02*
X149402800Y-62331600D01*
D10*
X150545800Y-61366400D02*
X149580600Y-61366400D01*
X149580600Y-61366400D02*
X149580600Y-61747400D01*
X150545800Y-61747400D02*
X150545800Y-61366400D01*
X149580600Y-60452000D02*
X150545800Y-60452000D01*
X150545800Y-60452000D02*
X150545800Y-60071000D01*
X149580600Y-60071000D02*
X149580600Y-60452000D01*
X150545800Y-61366400D02*
X150545800Y-60452000D01*
X150545800Y-60071000D02*
X149580600Y-60071000D01*
X149580600Y-60452000D02*
X149580600Y-61366400D01*
X149580600Y-61747400D02*
X150545800Y-61747400D01*
D14*
X118706900Y-109943900D02*
X120027700Y-109943900D01*
X118706900Y-107099100D02*
X118706900Y-109943900D01*
X120027700Y-107099100D02*
X118706900Y-107099100D01*
X120027700Y-109943900D02*
X120027700Y-107099100D01*
D10*
X118884700Y-108064300D02*
X119849900Y-108064300D01*
X119849900Y-108064300D02*
X119849900Y-107683300D01*
X118884700Y-107683300D02*
X118884700Y-108064300D01*
X119849900Y-108978700D02*
X118884700Y-108978700D01*
X118884700Y-108978700D02*
X118884700Y-109359700D01*
X119849900Y-109359700D02*
X119849900Y-108978700D01*
X118884700Y-108064300D02*
X118884700Y-108978700D01*
X118884700Y-109359700D02*
X119849900Y-109359700D01*
X119849900Y-108978700D02*
X119849900Y-108064300D01*
X119849900Y-107683300D02*
X118884700Y-107683300D01*
D14*
X118706900Y-114325400D02*
X120027700Y-114325400D01*
X118706900Y-111480600D02*
X118706900Y-114325400D01*
X120027700Y-111480600D02*
X118706900Y-111480600D01*
X120027700Y-114325400D02*
X120027700Y-111480600D01*
D10*
X118884700Y-112445800D02*
X119849900Y-112445800D01*
X119849900Y-112445800D02*
X119849900Y-112064800D01*
X118884700Y-112064800D02*
X118884700Y-112445800D01*
X119849900Y-113360200D02*
X118884700Y-113360200D01*
X118884700Y-113360200D02*
X118884700Y-113741200D01*
X119849900Y-113741200D02*
X119849900Y-113360200D01*
X118884700Y-112445800D02*
X118884700Y-113360200D01*
X118884700Y-113741200D02*
X119849900Y-113741200D01*
X119849900Y-113360200D02*
X119849900Y-112445800D01*
X119849900Y-112064800D02*
X118884700Y-112064800D01*
D14*
X127152400Y-110070900D02*
X128473200Y-110070900D01*
X127152400Y-107226100D02*
X127152400Y-110070900D01*
X128473200Y-107226100D02*
X127152400Y-107226100D01*
X128473200Y-110070900D02*
X128473200Y-107226100D01*
D10*
X127330200Y-108191300D02*
X128295400Y-108191300D01*
X128295400Y-108191300D02*
X128295400Y-107810300D01*
X127330200Y-107810300D02*
X127330200Y-108191300D01*
X128295400Y-109105700D02*
X127330200Y-109105700D01*
X127330200Y-109105700D02*
X127330200Y-109486700D01*
X128295400Y-109486700D02*
X128295400Y-109105700D01*
X127330200Y-108191300D02*
X127330200Y-109105700D01*
X127330200Y-109486700D02*
X128295400Y-109486700D01*
X128295400Y-109105700D02*
X128295400Y-108191300D01*
X128295400Y-107810300D02*
X127330200Y-107810300D01*
D14*
X136817100Y-105206800D02*
X135496300Y-105206800D01*
X136817100Y-108051600D02*
X136817100Y-105206800D01*
X135496300Y-108051600D02*
X136817100Y-108051600D01*
X135496300Y-105206800D02*
X135496300Y-108051600D01*
D10*
X136639300Y-107086400D02*
X135674100Y-107086400D01*
X135674100Y-107086400D02*
X135674100Y-107467400D01*
X136639300Y-107467400D02*
X136639300Y-107086400D01*
X135674100Y-106172000D02*
X136639300Y-106172000D01*
X136639300Y-106172000D02*
X136639300Y-105791000D01*
X135674100Y-105791000D02*
X135674100Y-106172000D01*
X136639300Y-107086400D02*
X136639300Y-106172000D01*
X136639300Y-105791000D02*
X135674100Y-105791000D01*
X135674100Y-106172000D02*
X135674100Y-107086400D01*
X135674100Y-107467400D02*
X136639300Y-107467400D01*
D14*
X150676057Y-62991369D02*
X149456857Y-62991369D01*
X150676057Y-65810769D02*
X150676057Y-62991369D01*
X149456857Y-65810769D02*
X150676057Y-65810769D01*
X149456857Y-62991369D02*
X149456857Y-65810769D01*
X136766300Y-108620560D02*
X135547100Y-108620560D01*
X136766300Y-111439960D02*
X136766300Y-108620560D01*
X135547100Y-111439960D02*
X136766300Y-111439960D01*
X135547100Y-108620560D02*
X135547100Y-111439960D01*
X171762400Y-59150000D02*
X169012400Y-59150000D01*
X171762400Y-58200000D02*
X171762400Y-59150000D01*
X173262400Y-58200000D02*
X171762400Y-58200000D01*
X173262400Y-68800000D02*
X173262400Y-58200000D01*
X171762400Y-68800000D02*
X173262400Y-68800000D01*
X171762400Y-67850000D02*
X171762400Y-68800000D01*
X170262400Y-67850000D02*
X171762400Y-67850000D01*
X169012400Y-67850000D02*
X170262400Y-67850000D01*
X165962400Y-61250000D02*
X165962400Y-60250000D01*
X165962400Y-66750000D02*
X165962400Y-65750000D01*
X143451580Y-99423220D02*
X142105380Y-99423220D01*
X143451580Y-101922580D02*
X143451580Y-99423220D01*
X142105380Y-101922580D02*
X143451580Y-101922580D01*
X142105380Y-99428300D02*
X142105380Y-101922580D01*
D10*
X143268700Y-101053900D02*
X142303500Y-101053900D01*
X142303500Y-101053900D02*
X142303500Y-101536500D01*
X143268700Y-101536500D02*
X143268700Y-101053900D01*
X142303500Y-100291900D02*
X143268700Y-100291900D01*
X143268700Y-100291900D02*
X143268700Y-99809300D01*
X142303500Y-99809300D02*
X142303500Y-100291900D01*
X143268700Y-101053900D02*
X143268700Y-100291900D01*
X143268700Y-99809300D02*
X142303500Y-99809300D01*
X142303500Y-100291900D02*
X142303500Y-101053900D01*
X142303500Y-101536500D02*
X143268700Y-101536500D01*
D14*
X130093720Y-106215180D02*
X131439920Y-106215180D01*
X130093720Y-103715820D02*
X130093720Y-106215180D01*
X131439920Y-103715820D02*
X130093720Y-103715820D01*
X131439920Y-106210100D02*
X131439920Y-103715820D01*
D10*
X130276600Y-104584500D02*
X131241800Y-104584500D01*
X131241800Y-104584500D02*
X131241800Y-104101900D01*
X130276600Y-104101900D02*
X130276600Y-104584500D01*
X131241800Y-105346500D02*
X130276600Y-105346500D01*
X130276600Y-105346500D02*
X130276600Y-105829100D01*
X131241800Y-105829100D02*
X131241800Y-105346500D01*
X130276600Y-104584500D02*
X130276600Y-105346500D01*
X130276600Y-105829100D02*
X131241800Y-105829100D01*
X131241800Y-105346500D02*
X131241800Y-104584500D01*
X131241800Y-104101900D02*
X130276600Y-104101900D01*
D14*
X132176520Y-106215180D02*
X133522720Y-106215180D01*
X132176520Y-103715820D02*
X132176520Y-106215180D01*
X133522720Y-103715820D02*
X132176520Y-103715820D01*
X133522720Y-106210100D02*
X133522720Y-103715820D01*
D10*
X132359400Y-104584500D02*
X133324600Y-104584500D01*
X133324600Y-104584500D02*
X133324600Y-104101900D01*
X132359400Y-104101900D02*
X132359400Y-104584500D01*
X133324600Y-105346500D02*
X132359400Y-105346500D01*
X132359400Y-105346500D02*
X132359400Y-105829100D01*
X133324600Y-105829100D02*
X133324600Y-105346500D01*
X132359400Y-104584500D02*
X132359400Y-105346500D01*
X132359400Y-105829100D02*
X133324600Y-105829100D01*
X133324600Y-105346500D02*
X133324600Y-104584500D01*
X133324600Y-104101900D02*
X132359400Y-104101900D01*
D15*
X154297380Y-59055000D02*
X162593020Y-59055000D01*
X162593020Y-59055000D02*
X162593020Y-66352420D01*
X162593020Y-66352420D02*
X161594800Y-67350640D01*
X161594800Y-67350640D02*
X155295600Y-67350640D01*
X155295600Y-67350640D02*
X154297380Y-66352420D01*
X154297380Y-66352420D02*
X154297380Y-59055000D01*
X142410180Y-84396580D02*
X150705820Y-84396580D01*
X150705820Y-84396580D02*
X150705820Y-91694000D01*
X150705820Y-91694000D02*
X149707600Y-92692220D01*
X149707600Y-92692220D02*
X143408400Y-92692220D01*
X143408400Y-92692220D02*
X142410180Y-91694000D01*
X142410180Y-91694000D02*
X142410180Y-84396580D01*
D12*
X170985180Y-113019840D02*
X170985180Y-111820960D01*
X170985180Y-111820960D02*
X170086020Y-112420400D01*
X170086020Y-112420400D02*
X170985180Y-113019840D01*
X170086020Y-113019840D02*
X170086020Y-111820960D01*
X168363900Y-79999840D02*
X169760900Y-79999840D01*
X168363900Y-81798160D02*
X169760900Y-81798160D01*
D16*
X112090200Y-104698800D02*
X114627660Y-104698800D01*
X112041940Y-114858800D02*
X114579400Y-114858800D01*
D12*
X166067740Y-113304320D02*
X162069780Y-116105940D01*
X157670500Y-116105940D02*
X153670000Y-113304320D01*
X153670000Y-109707680D02*
X157670500Y-106906060D01*
X162069780Y-106906060D02*
X166067740Y-109707680D01*
X157671487Y-116106662D02*
G75*
G03X162069780Y-116105940I2198653J3010622D01*
G01*
X162068793Y-106905338D02*
G75*
G03X157670500Y-106906060I-2198653J-3010622D01*
G01*
X149348837Y-98344177D02*
X149348837Y-103424177D01*
X149348837Y-103424177D02*
X145538837Y-103424177D01*
X145538837Y-103424177D02*
X145538837Y-98344177D01*
X145538837Y-98344177D02*
X149348837Y-98344177D01*
D13*
X147060284Y-98979177D02*
G75*
G03X147060284Y-98979177I-251447J0D01*
G01*
D17*
X91981020Y-66079040D02*
X94150180Y-66079040D01*
X94150180Y-66079040D02*
X94150180Y-64873200D01*
X94150180Y-64873200D02*
X91981020Y-64873200D01*
X91981020Y-64873200D02*
X91981020Y-66079040D01*
D15*
X141859000Y-74312780D02*
X144754600Y-74312780D01*
X144754600Y-74312780D02*
X144754600Y-73464420D01*
X141859000Y-74312780D02*
X141859000Y-73464420D01*
X141859000Y-73464420D02*
X144754600Y-73464420D01*
D17*
X138875912Y-106432342D02*
X139076572Y-106231682D01*
X139076572Y-106231682D02*
X143872092Y-106231682D01*
X143872092Y-106231682D02*
X144072752Y-106432342D01*
X144171812Y-109429542D02*
X143973692Y-109630202D01*
X143973692Y-109630202D02*
X139076572Y-109630202D01*
X139076572Y-109630202D02*
X138875912Y-109429542D01*
D12*
X133741440Y-106870500D02*
X133741440Y-106710480D01*
X133741440Y-106710480D02*
X129966440Y-106710480D01*
X129966440Y-106710480D02*
X129966440Y-106870500D01*
X129966440Y-109029500D02*
X129966440Y-112453420D01*
X133741440Y-109029500D02*
X133741440Y-112453420D01*
X133741440Y-114686080D02*
X133741440Y-114848640D01*
X133741440Y-114848640D02*
X129966440Y-114848640D01*
X129966440Y-114848640D02*
X129966440Y-114686080D01*
D15*
X169072560Y-70027800D02*
X147076160Y-70027800D01*
X142074900Y-75026520D02*
X142074900Y-106024680D01*
X147076160Y-111023400D02*
X169072560Y-111023400D01*
X174073820Y-106024680D02*
X174073820Y-75026520D01*
D18*
X153533135Y-105724960D02*
G75*
G03X153533135Y-105724960I-2758735J0D01*
G01*
X171630635Y-104223820D02*
G75*
G03X171630635Y-104223820I-2758735J0D01*
G01*
X171630635Y-76827380D02*
G75*
G03X171630635Y-76827380I-2758735J0D01*
G01*
X153533135Y-75326240D02*
G75*
G03X153533135Y-75326240I-2758735J0D01*
G01*
D15*
X174071280Y-75026520D02*
G75*
G03X169072560Y-70027800I-4998720J0D01*
G01*
X147076160Y-70025260D02*
G75*
G03X142074900Y-75026520I0J-5001260D01*
G01*
X142077440Y-106024680D02*
G75*
G03X147076160Y-111023400I4998720J0D01*
G01*
X169072560Y-111025940D02*
G75*
G03X174073820Y-106024680I0J5001260D01*
G01*
D14*
X146965200Y-63561600D02*
G75*
G03X146965200Y-63561600I-6300000J0D01*
G01*
D12*
X123990704Y-85321019D02*
X123990704Y-87007095D01*
X124089885Y-87205457D01*
X124189066Y-87304638D01*
X124387428Y-87403819D01*
X124784152Y-87403819D01*
X124982514Y-87304638D01*
X125081695Y-87205457D01*
X125180876Y-87007095D01*
X125180876Y-85321019D01*
X127065314Y-86015285D02*
X127065314Y-87403819D01*
X126569409Y-85221838D02*
X126073504Y-86709552D01*
X127362857Y-86709552D01*
D19*
X97678723Y-68998495D02*
X97678723Y-69656476D01*
X97717428Y-69733885D01*
X97756133Y-69772590D01*
X97833542Y-69811295D01*
X97988361Y-69811295D01*
X98065771Y-69772590D01*
X98104476Y-69733885D01*
X98143180Y-69656476D01*
X98143180Y-68998495D01*
X98491523Y-69075904D02*
X98530228Y-69037200D01*
X98607638Y-68998495D01*
X98801161Y-68998495D01*
X98878571Y-69037200D01*
X98917276Y-69075904D01*
X98955980Y-69153314D01*
X98955980Y-69230723D01*
X98917276Y-69346838D01*
X98452819Y-69811295D01*
X98955980Y-69811295D01*
X105395485Y-81904114D02*
X105434190Y-81942819D01*
X105472895Y-82058933D01*
X105472895Y-82136342D01*
X105434190Y-82252457D01*
X105356780Y-82329866D01*
X105279371Y-82368571D01*
X105124552Y-82407276D01*
X105008438Y-82407276D01*
X104853619Y-82368571D01*
X104776209Y-82329866D01*
X104698800Y-82252457D01*
X104660095Y-82136342D01*
X104660095Y-82058933D01*
X104698800Y-81942819D01*
X104737504Y-81904114D01*
X104737504Y-81594476D02*
X104698800Y-81555771D01*
X104660095Y-81478361D01*
X104660095Y-81284838D01*
X104698800Y-81207428D01*
X104737504Y-81168723D01*
X104814914Y-81130019D01*
X104892323Y-81130019D01*
X105008438Y-81168723D01*
X105472895Y-81633180D01*
X105472895Y-81130019D01*
X104931028Y-80433333D02*
X105472895Y-80433333D01*
X104621390Y-80626857D02*
X105201961Y-80820380D01*
X105201961Y-80317219D01*
X106208285Y-75779085D02*
X106169580Y-75817790D01*
X106053466Y-75856495D01*
X105976057Y-75856495D01*
X105859942Y-75817790D01*
X105782533Y-75740380D01*
X105743828Y-75662971D01*
X105705123Y-75508152D01*
X105705123Y-75392038D01*
X105743828Y-75237219D01*
X105782533Y-75159809D01*
X105859942Y-75082400D01*
X105976057Y-75043695D01*
X106053466Y-75043695D01*
X106169580Y-75082400D01*
X106208285Y-75121104D01*
X106517923Y-75121104D02*
X106556628Y-75082400D01*
X106634038Y-75043695D01*
X106827561Y-75043695D01*
X106904971Y-75082400D01*
X106943676Y-75121104D01*
X106982380Y-75198514D01*
X106982380Y-75275923D01*
X106943676Y-75392038D01*
X106479219Y-75856495D01*
X106982380Y-75856495D01*
X107253314Y-75043695D02*
X107756476Y-75043695D01*
X107485542Y-75353333D01*
X107601657Y-75353333D01*
X107679066Y-75392038D01*
X107717771Y-75430742D01*
X107756476Y-75508152D01*
X107756476Y-75701676D01*
X107717771Y-75779085D01*
X107679066Y-75817790D01*
X107601657Y-75856495D01*
X107369428Y-75856495D01*
X107292019Y-75817790D01*
X107253314Y-75779085D01*
X106087333Y-78420685D02*
X106048628Y-78459390D01*
X105932514Y-78498095D01*
X105855104Y-78498095D01*
X105738990Y-78459390D01*
X105661580Y-78381980D01*
X105622876Y-78304571D01*
X105584171Y-78149752D01*
X105584171Y-78033638D01*
X105622876Y-77878819D01*
X105661580Y-77801409D01*
X105738990Y-77724000D01*
X105855104Y-77685295D01*
X105932514Y-77685295D01*
X106048628Y-77724000D01*
X106087333Y-77762704D01*
X106861428Y-78498095D02*
X106396971Y-78498095D01*
X106629200Y-78498095D02*
X106629200Y-77685295D01*
X106551790Y-77801409D01*
X106474380Y-77878819D01*
X106396971Y-77917523D01*
X126063223Y-61593125D02*
X126063223Y-62251106D01*
X126101928Y-62328515D01*
X126140633Y-62367220D01*
X126218042Y-62405925D01*
X126372861Y-62405925D01*
X126450271Y-62367220D01*
X126488976Y-62328515D01*
X126527680Y-62251106D01*
X126527680Y-61593125D01*
X126837319Y-61593125D02*
X127340480Y-61593125D01*
X127069547Y-61902763D01*
X127185661Y-61902763D01*
X127263071Y-61941468D01*
X127301776Y-61980172D01*
X127340480Y-62057582D01*
X127340480Y-62251106D01*
X127301776Y-62328515D01*
X127263071Y-62367220D01*
X127185661Y-62405925D01*
X126953433Y-62405925D01*
X126876023Y-62367220D01*
X126837319Y-62328515D01*
X172526476Y-85559295D02*
X172526476Y-84746495D01*
X172720000Y-84746495D01*
X172836114Y-84785200D01*
X172913523Y-84862609D01*
X172952228Y-84940019D01*
X172990933Y-85094838D01*
X172990933Y-85210952D01*
X172952228Y-85365771D01*
X172913523Y-85443180D01*
X172836114Y-85520590D01*
X172720000Y-85559295D01*
X172526476Y-85559295D01*
X173765028Y-85559295D02*
X173300571Y-85559295D01*
X173532800Y-85559295D02*
X173532800Y-84746495D01*
X173455390Y-84862609D01*
X173377980Y-84940019D01*
X173300571Y-84978723D01*
X168506019Y-93230095D02*
X168776952Y-94042895D01*
X169047885Y-93230095D01*
X169783276Y-94042895D02*
X169512342Y-93655847D01*
X169318819Y-94042895D02*
X169318819Y-93230095D01*
X169628457Y-93230095D01*
X169705866Y-93268800D01*
X169744571Y-93307504D01*
X169783276Y-93384914D01*
X169783276Y-93501028D01*
X169744571Y-93578438D01*
X169705866Y-93617142D01*
X169628457Y-93655847D01*
X169318819Y-93655847D01*
X170557371Y-94042895D02*
X170092914Y-94042895D01*
X170325142Y-94042895D02*
X170325142Y-93230095D01*
X170247733Y-93346209D01*
X170170323Y-93423619D01*
X170092914Y-93462323D01*
X167250533Y-88377485D02*
X167211828Y-88416190D01*
X167095714Y-88454895D01*
X167018304Y-88454895D01*
X166902190Y-88416190D01*
X166824780Y-88338780D01*
X166786076Y-88261371D01*
X166747371Y-88106552D01*
X166747371Y-87990438D01*
X166786076Y-87835619D01*
X166824780Y-87758209D01*
X166902190Y-87680800D01*
X167018304Y-87642095D01*
X167095714Y-87642095D01*
X167211828Y-87680800D01*
X167250533Y-87719504D01*
X167637580Y-88454895D02*
X167792400Y-88454895D01*
X167869809Y-88416190D01*
X167908514Y-88377485D01*
X167985923Y-88261371D01*
X168024628Y-88106552D01*
X168024628Y-87796914D01*
X167985923Y-87719504D01*
X167947219Y-87680800D01*
X167869809Y-87642095D01*
X167714990Y-87642095D01*
X167637580Y-87680800D01*
X167598876Y-87719504D01*
X167560171Y-87796914D01*
X167560171Y-87990438D01*
X167598876Y-88067847D01*
X167637580Y-88106552D01*
X167714990Y-88145257D01*
X167869809Y-88145257D01*
X167947219Y-88106552D01*
X167985923Y-88067847D01*
X168024628Y-87990438D01*
X165061295Y-89470895D02*
X164596838Y-89470895D01*
X164829066Y-89470895D02*
X164829066Y-88658095D01*
X164751657Y-88774209D01*
X164674247Y-88851619D01*
X164596838Y-88890323D01*
X165564457Y-88658095D02*
X165641866Y-88658095D01*
X165719276Y-88696800D01*
X165757980Y-88735504D01*
X165796685Y-88812914D01*
X165835390Y-88967733D01*
X165835390Y-89161257D01*
X165796685Y-89316076D01*
X165757980Y-89393485D01*
X165719276Y-89432190D01*
X165641866Y-89470895D01*
X165564457Y-89470895D01*
X165487047Y-89432190D01*
X165448342Y-89393485D01*
X165409638Y-89316076D01*
X165370933Y-89161257D01*
X165370933Y-88967733D01*
X165409638Y-88812914D01*
X165448342Y-88735504D01*
X165487047Y-88696800D01*
X165564457Y-88658095D01*
X166338552Y-88658095D02*
X166415961Y-88658095D01*
X166493371Y-88696800D01*
X166532076Y-88735504D01*
X166570780Y-88812914D01*
X166609485Y-88967733D01*
X166609485Y-89161257D01*
X166570780Y-89316076D01*
X166532076Y-89393485D01*
X166493371Y-89432190D01*
X166415961Y-89470895D01*
X166338552Y-89470895D01*
X166261142Y-89432190D01*
X166222438Y-89393485D01*
X166183733Y-89316076D01*
X166145028Y-89161257D01*
X166145028Y-88967733D01*
X166183733Y-88812914D01*
X166222438Y-88735504D01*
X166261142Y-88696800D01*
X166338552Y-88658095D01*
X166957828Y-88929028D02*
X166957828Y-89470895D01*
X166957828Y-89006438D02*
X166996533Y-88967733D01*
X167073942Y-88929028D01*
X167190057Y-88929028D01*
X167267466Y-88967733D01*
X167306171Y-89045142D01*
X167306171Y-89470895D01*
X167964152Y-89045142D02*
X167693219Y-89045142D01*
X167693219Y-89470895D02*
X167693219Y-88658095D01*
X168080266Y-88658095D01*
D13*
X97401742Y-103185685D02*
X97583171Y-103246161D01*
X97643647Y-103306638D01*
X97704123Y-103427590D01*
X97704123Y-103609019D01*
X97643647Y-103729971D01*
X97583171Y-103790447D01*
X97462219Y-103850923D01*
X96978409Y-103850923D01*
X96978409Y-102580923D01*
X97401742Y-102580923D01*
X97522695Y-102641400D01*
X97583171Y-102701876D01*
X97643647Y-102822828D01*
X97643647Y-102943780D01*
X97583171Y-103064733D01*
X97522695Y-103125209D01*
X97401742Y-103185685D01*
X96978409Y-103185685D01*
X98066980Y-102580923D02*
X98792695Y-102580923D01*
X98429838Y-103850923D02*
X98429838Y-102580923D01*
X99881266Y-103850923D02*
X99155552Y-103850923D01*
X99518409Y-103850923D02*
X99518409Y-102580923D01*
X99397457Y-102762352D01*
X99276504Y-102883304D01*
X99155552Y-102943780D01*
D20*
X107616666Y-60513980D02*
X107616666Y-61228266D01*
X107569047Y-61371123D01*
X107473809Y-61466361D01*
X107330952Y-61513980D01*
X107235714Y-61513980D01*
X108569047Y-60513980D02*
X108092857Y-60513980D01*
X108045238Y-60990171D01*
X108092857Y-60942552D01*
X108188095Y-60894933D01*
X108426190Y-60894933D01*
X108521428Y-60942552D01*
X108569047Y-60990171D01*
X108616666Y-61085409D01*
X108616666Y-61323504D01*
X108569047Y-61418742D01*
X108521428Y-61466361D01*
X108426190Y-61513980D01*
X108188095Y-61513980D01*
X108092857Y-61466361D01*
X108045238Y-61418742D01*
D19*
X122411066Y-110298895D02*
X122411066Y-110879466D01*
X122372361Y-110995580D01*
X122294952Y-111072990D01*
X122178838Y-111111695D01*
X122101428Y-111111695D01*
X122759409Y-110376304D02*
X122798114Y-110337600D01*
X122875523Y-110298895D01*
X123069047Y-110298895D01*
X123146457Y-110337600D01*
X123185161Y-110376304D01*
X123223866Y-110453714D01*
X123223866Y-110531123D01*
X123185161Y-110647238D01*
X122720704Y-111111695D01*
X123223866Y-111111695D01*
X88713733Y-86904285D02*
X88675028Y-86942990D01*
X88558914Y-86981695D01*
X88481504Y-86981695D01*
X88365390Y-86942990D01*
X88287980Y-86865580D01*
X88249276Y-86788171D01*
X88210571Y-86633352D01*
X88210571Y-86517238D01*
X88249276Y-86362419D01*
X88287980Y-86285009D01*
X88365390Y-86207600D01*
X88481504Y-86168895D01*
X88558914Y-86168895D01*
X88675028Y-86207600D01*
X88713733Y-86246304D01*
X89023371Y-86246304D02*
X89062076Y-86207600D01*
X89139485Y-86168895D01*
X89333009Y-86168895D01*
X89410419Y-86207600D01*
X89449123Y-86246304D01*
X89487828Y-86323714D01*
X89487828Y-86401123D01*
X89449123Y-86517238D01*
X88984666Y-86981695D01*
X89487828Y-86981695D01*
X88505695Y-89115295D02*
X88041238Y-89115295D01*
X88273466Y-89115295D02*
X88273466Y-88302495D01*
X88196057Y-88418609D01*
X88118647Y-88496019D01*
X88041238Y-88534723D01*
X89008857Y-88302495D02*
X89086266Y-88302495D01*
X89163676Y-88341200D01*
X89202380Y-88379904D01*
X89241085Y-88457314D01*
X89279790Y-88612133D01*
X89279790Y-88805657D01*
X89241085Y-88960476D01*
X89202380Y-89037885D01*
X89163676Y-89076590D01*
X89086266Y-89115295D01*
X89008857Y-89115295D01*
X88931447Y-89076590D01*
X88892742Y-89037885D01*
X88854038Y-88960476D01*
X88815333Y-88805657D01*
X88815333Y-88612133D01*
X88854038Y-88457314D01*
X88892742Y-88379904D01*
X88931447Y-88341200D01*
X89008857Y-88302495D01*
X89782952Y-88302495D02*
X89860361Y-88302495D01*
X89937771Y-88341200D01*
X89976476Y-88379904D01*
X90015180Y-88457314D01*
X90053885Y-88612133D01*
X90053885Y-88805657D01*
X90015180Y-88960476D01*
X89976476Y-89037885D01*
X89937771Y-89076590D01*
X89860361Y-89115295D01*
X89782952Y-89115295D01*
X89705542Y-89076590D01*
X89666838Y-89037885D01*
X89628133Y-88960476D01*
X89589428Y-88805657D01*
X89589428Y-88612133D01*
X89628133Y-88457314D01*
X89666838Y-88379904D01*
X89705542Y-88341200D01*
X89782952Y-88302495D01*
X90402228Y-88573428D02*
X90402228Y-89115295D01*
X90402228Y-88650838D02*
X90440933Y-88612133D01*
X90518342Y-88573428D01*
X90634457Y-88573428D01*
X90711866Y-88612133D01*
X90750571Y-88689542D01*
X90750571Y-89115295D01*
X91408552Y-88689542D02*
X91137619Y-88689542D01*
X91137619Y-89115295D02*
X91137619Y-88302495D01*
X91524666Y-88302495D01*
X105344685Y-88273466D02*
X105383390Y-88312171D01*
X105422095Y-88428285D01*
X105422095Y-88505695D01*
X105383390Y-88621809D01*
X105305980Y-88699219D01*
X105228571Y-88737923D01*
X105073752Y-88776628D01*
X104957638Y-88776628D01*
X104802819Y-88737923D01*
X104725409Y-88699219D01*
X104648000Y-88621809D01*
X104609295Y-88505695D01*
X104609295Y-88428285D01*
X104648000Y-88312171D01*
X104686704Y-88273466D01*
X104609295Y-88002533D02*
X104609295Y-87499371D01*
X104918933Y-87770304D01*
X104918933Y-87654190D01*
X104957638Y-87576780D01*
X104996342Y-87538076D01*
X105073752Y-87499371D01*
X105267276Y-87499371D01*
X105344685Y-87538076D01*
X105383390Y-87576780D01*
X105422095Y-87654190D01*
X105422095Y-87886419D01*
X105383390Y-87963828D01*
X105344685Y-88002533D01*
X88815333Y-82230685D02*
X88776628Y-82269390D01*
X88660514Y-82308095D01*
X88583104Y-82308095D01*
X88466990Y-82269390D01*
X88389580Y-82191980D01*
X88350876Y-82114571D01*
X88312171Y-81959752D01*
X88312171Y-81843638D01*
X88350876Y-81688819D01*
X88389580Y-81611409D01*
X88466990Y-81534000D01*
X88583104Y-81495295D01*
X88660514Y-81495295D01*
X88776628Y-81534000D01*
X88815333Y-81572704D01*
X89512019Y-81766228D02*
X89512019Y-82308095D01*
X89318495Y-81456590D02*
X89124971Y-82037161D01*
X89628133Y-82037161D01*
X88505695Y-84035295D02*
X88041238Y-84035295D01*
X88273466Y-84035295D02*
X88273466Y-83222495D01*
X88196057Y-83338609D01*
X88118647Y-83416019D01*
X88041238Y-83454723D01*
X89008857Y-83222495D02*
X89086266Y-83222495D01*
X89163676Y-83261200D01*
X89202380Y-83299904D01*
X89241085Y-83377314D01*
X89279790Y-83532133D01*
X89279790Y-83725657D01*
X89241085Y-83880476D01*
X89202380Y-83957885D01*
X89163676Y-83996590D01*
X89086266Y-84035295D01*
X89008857Y-84035295D01*
X88931447Y-83996590D01*
X88892742Y-83957885D01*
X88854038Y-83880476D01*
X88815333Y-83725657D01*
X88815333Y-83532133D01*
X88854038Y-83377314D01*
X88892742Y-83299904D01*
X88931447Y-83261200D01*
X89008857Y-83222495D01*
X89782952Y-83222495D02*
X89860361Y-83222495D01*
X89937771Y-83261200D01*
X89976476Y-83299904D01*
X90015180Y-83377314D01*
X90053885Y-83532133D01*
X90053885Y-83725657D01*
X90015180Y-83880476D01*
X89976476Y-83957885D01*
X89937771Y-83996590D01*
X89860361Y-84035295D01*
X89782952Y-84035295D01*
X89705542Y-83996590D01*
X89666838Y-83957885D01*
X89628133Y-83880476D01*
X89589428Y-83725657D01*
X89589428Y-83532133D01*
X89628133Y-83377314D01*
X89666838Y-83299904D01*
X89705542Y-83261200D01*
X89782952Y-83222495D01*
X90402228Y-83493428D02*
X90402228Y-84035295D01*
X90402228Y-83570838D02*
X90440933Y-83532133D01*
X90518342Y-83493428D01*
X90634457Y-83493428D01*
X90711866Y-83532133D01*
X90750571Y-83609542D01*
X90750571Y-84035295D01*
X91408552Y-83609542D02*
X91137619Y-83609542D01*
X91137619Y-84035295D02*
X91137619Y-83222495D01*
X91524666Y-83222495D01*
X105395485Y-89899066D02*
X105434190Y-89937771D01*
X105472895Y-90053885D01*
X105472895Y-90131295D01*
X105434190Y-90247409D01*
X105356780Y-90324819D01*
X105279371Y-90363523D01*
X105124552Y-90402228D01*
X105008438Y-90402228D01*
X104853619Y-90363523D01*
X104776209Y-90324819D01*
X104698800Y-90247409D01*
X104660095Y-90131295D01*
X104660095Y-90053885D01*
X104698800Y-89937771D01*
X104737504Y-89899066D01*
X104660095Y-89163676D02*
X104660095Y-89550723D01*
X105047142Y-89589428D01*
X105008438Y-89550723D01*
X104969733Y-89473314D01*
X104969733Y-89279790D01*
X105008438Y-89202380D01*
X105047142Y-89163676D01*
X105124552Y-89124971D01*
X105318076Y-89124971D01*
X105395485Y-89163676D01*
X105434190Y-89202380D01*
X105472895Y-89279790D01*
X105472895Y-89473314D01*
X105434190Y-89550723D01*
X105395485Y-89589428D01*
X105344685Y-83599866D02*
X105383390Y-83638571D01*
X105422095Y-83754685D01*
X105422095Y-83832095D01*
X105383390Y-83948209D01*
X105305980Y-84025619D01*
X105228571Y-84064323D01*
X105073752Y-84103028D01*
X104957638Y-84103028D01*
X104802819Y-84064323D01*
X104725409Y-84025619D01*
X104648000Y-83948209D01*
X104609295Y-83832095D01*
X104609295Y-83754685D01*
X104648000Y-83638571D01*
X104686704Y-83599866D01*
X104609295Y-82903180D02*
X104609295Y-83058000D01*
X104648000Y-83135409D01*
X104686704Y-83174114D01*
X104802819Y-83251523D01*
X104957638Y-83290228D01*
X105267276Y-83290228D01*
X105344685Y-83251523D01*
X105383390Y-83212819D01*
X105422095Y-83135409D01*
X105422095Y-82980590D01*
X105383390Y-82903180D01*
X105344685Y-82864476D01*
X105267276Y-82825771D01*
X105073752Y-82825771D01*
X104996342Y-82864476D01*
X104957638Y-82903180D01*
X104918933Y-82980590D01*
X104918933Y-83135409D01*
X104957638Y-83212819D01*
X104996342Y-83251523D01*
X105073752Y-83290228D01*
X107154133Y-69683085D02*
X107115428Y-69721790D01*
X106999314Y-69760495D01*
X106921904Y-69760495D01*
X106805790Y-69721790D01*
X106728380Y-69644380D01*
X106689676Y-69566971D01*
X106650971Y-69412152D01*
X106650971Y-69296038D01*
X106689676Y-69141219D01*
X106728380Y-69063809D01*
X106805790Y-68986400D01*
X106921904Y-68947695D01*
X106999314Y-68947695D01*
X107115428Y-68986400D01*
X107154133Y-69025104D01*
X107425066Y-68947695D02*
X107966933Y-68947695D01*
X107618590Y-69760495D01*
X106742895Y-70827295D02*
X106278438Y-70827295D01*
X106510666Y-70827295D02*
X106510666Y-70014495D01*
X106433257Y-70130609D01*
X106355847Y-70208019D01*
X106278438Y-70246723D01*
X107246057Y-70014495D02*
X107323466Y-70014495D01*
X107400876Y-70053200D01*
X107439580Y-70091904D01*
X107478285Y-70169314D01*
X107516990Y-70324133D01*
X107516990Y-70517657D01*
X107478285Y-70672476D01*
X107439580Y-70749885D01*
X107400876Y-70788590D01*
X107323466Y-70827295D01*
X107246057Y-70827295D01*
X107168647Y-70788590D01*
X107129942Y-70749885D01*
X107091238Y-70672476D01*
X107052533Y-70517657D01*
X107052533Y-70324133D01*
X107091238Y-70169314D01*
X107129942Y-70091904D01*
X107168647Y-70053200D01*
X107246057Y-70014495D01*
X108020152Y-70014495D02*
X108097561Y-70014495D01*
X108174971Y-70053200D01*
X108213676Y-70091904D01*
X108252380Y-70169314D01*
X108291085Y-70324133D01*
X108291085Y-70517657D01*
X108252380Y-70672476D01*
X108213676Y-70749885D01*
X108174971Y-70788590D01*
X108097561Y-70827295D01*
X108020152Y-70827295D01*
X107942742Y-70788590D01*
X107904038Y-70749885D01*
X107865333Y-70672476D01*
X107826628Y-70517657D01*
X107826628Y-70324133D01*
X107865333Y-70169314D01*
X107904038Y-70091904D01*
X107942742Y-70053200D01*
X108020152Y-70014495D01*
X108639428Y-70285428D02*
X108639428Y-70827295D01*
X108639428Y-70362838D02*
X108678133Y-70324133D01*
X108755542Y-70285428D01*
X108871657Y-70285428D01*
X108949066Y-70324133D01*
X108987771Y-70401542D01*
X108987771Y-70827295D01*
X109645752Y-70401542D02*
X109374819Y-70401542D01*
X109374819Y-70827295D02*
X109374819Y-70014495D01*
X109761866Y-70014495D01*
X130318933Y-57846685D02*
X130280228Y-57885390D01*
X130164114Y-57924095D01*
X130086704Y-57924095D01*
X129970590Y-57885390D01*
X129893180Y-57807980D01*
X129854476Y-57730571D01*
X129815771Y-57575752D01*
X129815771Y-57459638D01*
X129854476Y-57304819D01*
X129893180Y-57227409D01*
X129970590Y-57150000D01*
X130086704Y-57111295D01*
X130164114Y-57111295D01*
X130280228Y-57150000D01*
X130318933Y-57188704D01*
X130783390Y-57459638D02*
X130705980Y-57420933D01*
X130667276Y-57382228D01*
X130628571Y-57304819D01*
X130628571Y-57266114D01*
X130667276Y-57188704D01*
X130705980Y-57150000D01*
X130783390Y-57111295D01*
X130938209Y-57111295D01*
X131015619Y-57150000D01*
X131054323Y-57188704D01*
X131093028Y-57266114D01*
X131093028Y-57304819D01*
X131054323Y-57382228D01*
X131015619Y-57420933D01*
X130938209Y-57459638D01*
X130783390Y-57459638D01*
X130705980Y-57498342D01*
X130667276Y-57537047D01*
X130628571Y-57614457D01*
X130628571Y-57769276D01*
X130667276Y-57846685D01*
X130705980Y-57885390D01*
X130783390Y-57924095D01*
X130938209Y-57924095D01*
X131015619Y-57885390D01*
X131054323Y-57846685D01*
X131093028Y-57769276D01*
X131093028Y-57614457D01*
X131054323Y-57537047D01*
X131015619Y-57498342D01*
X130938209Y-57459638D01*
X130161695Y-59092495D02*
X129697238Y-59092495D01*
X129929466Y-59092495D02*
X129929466Y-58279695D01*
X129852057Y-58395809D01*
X129774647Y-58473219D01*
X129697238Y-58511923D01*
X130664857Y-58279695D02*
X130742266Y-58279695D01*
X130819676Y-58318400D01*
X130858380Y-58357104D01*
X130897085Y-58434514D01*
X130935790Y-58589333D01*
X130935790Y-58782857D01*
X130897085Y-58937676D01*
X130858380Y-59015085D01*
X130819676Y-59053790D01*
X130742266Y-59092495D01*
X130664857Y-59092495D01*
X130587447Y-59053790D01*
X130548742Y-59015085D01*
X130510038Y-58937676D01*
X130471333Y-58782857D01*
X130471333Y-58589333D01*
X130510038Y-58434514D01*
X130548742Y-58357104D01*
X130587447Y-58318400D01*
X130664857Y-58279695D01*
X131438952Y-58279695D02*
X131516361Y-58279695D01*
X131593771Y-58318400D01*
X131632476Y-58357104D01*
X131671180Y-58434514D01*
X131709885Y-58589333D01*
X131709885Y-58782857D01*
X131671180Y-58937676D01*
X131632476Y-59015085D01*
X131593771Y-59053790D01*
X131516361Y-59092495D01*
X131438952Y-59092495D01*
X131361542Y-59053790D01*
X131322838Y-59015085D01*
X131284133Y-58937676D01*
X131245428Y-58782857D01*
X131245428Y-58589333D01*
X131284133Y-58434514D01*
X131322838Y-58357104D01*
X131361542Y-58318400D01*
X131438952Y-58279695D01*
X132058228Y-58550628D02*
X132058228Y-59092495D01*
X132058228Y-58628038D02*
X132096933Y-58589333D01*
X132174342Y-58550628D01*
X132290457Y-58550628D01*
X132367866Y-58589333D01*
X132406571Y-58666742D01*
X132406571Y-59092495D01*
X133064552Y-58666742D02*
X132793619Y-58666742D01*
X132793619Y-59092495D02*
X132793619Y-58279695D01*
X133180666Y-58279695D01*
X164628285Y-95895885D02*
X164589580Y-95934590D01*
X164473466Y-95973295D01*
X164396057Y-95973295D01*
X164279942Y-95934590D01*
X164202533Y-95857180D01*
X164163828Y-95779771D01*
X164125123Y-95624952D01*
X164125123Y-95508838D01*
X164163828Y-95354019D01*
X164202533Y-95276609D01*
X164279942Y-95199200D01*
X164396057Y-95160495D01*
X164473466Y-95160495D01*
X164589580Y-95199200D01*
X164628285Y-95237904D01*
X165402380Y-95973295D02*
X164937923Y-95973295D01*
X165170152Y-95973295D02*
X165170152Y-95160495D01*
X165092742Y-95276609D01*
X165015333Y-95354019D01*
X164937923Y-95392723D01*
X166176476Y-95973295D02*
X165712019Y-95973295D01*
X165944247Y-95973295D02*
X165944247Y-95160495D01*
X165866838Y-95276609D01*
X165789428Y-95354019D01*
X165712019Y-95392723D01*
X164330742Y-97090895D02*
X163866285Y-97090895D01*
X164098514Y-97090895D02*
X164098514Y-96278095D01*
X164021104Y-96394209D01*
X163943695Y-96471619D01*
X163866285Y-96510323D01*
X164833904Y-96278095D02*
X164911314Y-96278095D01*
X164988723Y-96316800D01*
X165027428Y-96355504D01*
X165066133Y-96432914D01*
X165104838Y-96587733D01*
X165104838Y-96781257D01*
X165066133Y-96936076D01*
X165027428Y-97013485D01*
X164988723Y-97052190D01*
X164911314Y-97090895D01*
X164833904Y-97090895D01*
X164756495Y-97052190D01*
X164717790Y-97013485D01*
X164679085Y-96936076D01*
X164640380Y-96781257D01*
X164640380Y-96587733D01*
X164679085Y-96432914D01*
X164717790Y-96355504D01*
X164756495Y-96316800D01*
X164833904Y-96278095D01*
X165453180Y-96549028D02*
X165453180Y-97090895D01*
X165453180Y-96626438D02*
X165491885Y-96587733D01*
X165569295Y-96549028D01*
X165685409Y-96549028D01*
X165762819Y-96587733D01*
X165801523Y-96665142D01*
X165801523Y-97090895D01*
X166459504Y-96665142D02*
X166188571Y-96665142D01*
X166188571Y-97090895D02*
X166188571Y-96278095D01*
X166575619Y-96278095D01*
X144155885Y-69937085D02*
X144117180Y-69975790D01*
X144001066Y-70014495D01*
X143923657Y-70014495D01*
X143807542Y-69975790D01*
X143730133Y-69898380D01*
X143691428Y-69820971D01*
X143652723Y-69666152D01*
X143652723Y-69550038D01*
X143691428Y-69395219D01*
X143730133Y-69317809D01*
X143807542Y-69240400D01*
X143923657Y-69201695D01*
X144001066Y-69201695D01*
X144117180Y-69240400D01*
X144155885Y-69279104D01*
X144929980Y-70014495D02*
X144465523Y-70014495D01*
X144697752Y-70014495D02*
X144697752Y-69201695D01*
X144620342Y-69317809D01*
X144542933Y-69395219D01*
X144465523Y-69433923D01*
X145200914Y-69201695D02*
X145704076Y-69201695D01*
X145433142Y-69511333D01*
X145549257Y-69511333D01*
X145626666Y-69550038D01*
X145665371Y-69588742D01*
X145704076Y-69666152D01*
X145704076Y-69859676D01*
X145665371Y-69937085D01*
X145626666Y-69975790D01*
X145549257Y-70014495D01*
X145317028Y-70014495D01*
X145239619Y-69975790D01*
X145200914Y-69937085D01*
X143444685Y-79589085D02*
X143405980Y-79627790D01*
X143289866Y-79666495D01*
X143212457Y-79666495D01*
X143096342Y-79627790D01*
X143018933Y-79550380D01*
X142980228Y-79472971D01*
X142941523Y-79318152D01*
X142941523Y-79202038D01*
X142980228Y-79047219D01*
X143018933Y-78969809D01*
X143096342Y-78892400D01*
X143212457Y-78853695D01*
X143289866Y-78853695D01*
X143405980Y-78892400D01*
X143444685Y-78931104D01*
X144218780Y-79666495D02*
X143754323Y-79666495D01*
X143986552Y-79666495D02*
X143986552Y-78853695D01*
X143909142Y-78969809D01*
X143831733Y-79047219D01*
X143754323Y-79085923D01*
X144915466Y-79124628D02*
X144915466Y-79666495D01*
X144721942Y-78814990D02*
X144528419Y-79395561D01*
X145031580Y-79395561D01*
X142912495Y-81241295D02*
X142448038Y-81241295D01*
X142680266Y-81241295D02*
X142680266Y-80428495D01*
X142602857Y-80544609D01*
X142525447Y-80622019D01*
X142448038Y-80660723D01*
X143415657Y-80428495D02*
X143493066Y-80428495D01*
X143570476Y-80467200D01*
X143609180Y-80505904D01*
X143647885Y-80583314D01*
X143686590Y-80738133D01*
X143686590Y-80931657D01*
X143647885Y-81086476D01*
X143609180Y-81163885D01*
X143570476Y-81202590D01*
X143493066Y-81241295D01*
X143415657Y-81241295D01*
X143338247Y-81202590D01*
X143299542Y-81163885D01*
X143260838Y-81086476D01*
X143222133Y-80931657D01*
X143222133Y-80738133D01*
X143260838Y-80583314D01*
X143299542Y-80505904D01*
X143338247Y-80467200D01*
X143415657Y-80428495D01*
X144189752Y-80428495D02*
X144267161Y-80428495D01*
X144344571Y-80467200D01*
X144383276Y-80505904D01*
X144421980Y-80583314D01*
X144460685Y-80738133D01*
X144460685Y-80931657D01*
X144421980Y-81086476D01*
X144383276Y-81163885D01*
X144344571Y-81202590D01*
X144267161Y-81241295D01*
X144189752Y-81241295D01*
X144112342Y-81202590D01*
X144073638Y-81163885D01*
X144034933Y-81086476D01*
X143996228Y-80931657D01*
X143996228Y-80738133D01*
X144034933Y-80583314D01*
X144073638Y-80505904D01*
X144112342Y-80467200D01*
X144189752Y-80428495D01*
X144809028Y-80699428D02*
X144809028Y-81241295D01*
X144809028Y-80776838D02*
X144847733Y-80738133D01*
X144925142Y-80699428D01*
X145041257Y-80699428D01*
X145118666Y-80738133D01*
X145157371Y-80815542D01*
X145157371Y-81241295D01*
X145815352Y-80815542D02*
X145544419Y-80815542D01*
X145544419Y-81241295D02*
X145544419Y-80428495D01*
X145931466Y-80428495D01*
X133233885Y-67244685D02*
X133195180Y-67283390D01*
X133079066Y-67322095D01*
X133001657Y-67322095D01*
X132885542Y-67283390D01*
X132808133Y-67205980D01*
X132769428Y-67128571D01*
X132730723Y-66973752D01*
X132730723Y-66857638D01*
X132769428Y-66702819D01*
X132808133Y-66625409D01*
X132885542Y-66548000D01*
X133001657Y-66509295D01*
X133079066Y-66509295D01*
X133195180Y-66548000D01*
X133233885Y-66586704D01*
X134007980Y-67322095D02*
X133543523Y-67322095D01*
X133775752Y-67322095D02*
X133775752Y-66509295D01*
X133698342Y-66625409D01*
X133620933Y-66702819D01*
X133543523Y-66741523D01*
X134743371Y-66509295D02*
X134356323Y-66509295D01*
X134317619Y-66896342D01*
X134356323Y-66857638D01*
X134433733Y-66818933D01*
X134627257Y-66818933D01*
X134704666Y-66857638D01*
X134743371Y-66896342D01*
X134782076Y-66973752D01*
X134782076Y-67167276D01*
X134743371Y-67244685D01*
X134704666Y-67283390D01*
X134627257Y-67322095D01*
X134433733Y-67322095D01*
X134356323Y-67283390D01*
X134317619Y-67244685D01*
X131888895Y-68287295D02*
X131424438Y-68287295D01*
X131656666Y-68287295D02*
X131656666Y-67474495D01*
X131579257Y-67590609D01*
X131501847Y-67668019D01*
X131424438Y-67706723D01*
X132392057Y-67474495D02*
X132469466Y-67474495D01*
X132546876Y-67513200D01*
X132585580Y-67551904D01*
X132624285Y-67629314D01*
X132662990Y-67784133D01*
X132662990Y-67977657D01*
X132624285Y-68132476D01*
X132585580Y-68209885D01*
X132546876Y-68248590D01*
X132469466Y-68287295D01*
X132392057Y-68287295D01*
X132314647Y-68248590D01*
X132275942Y-68209885D01*
X132237238Y-68132476D01*
X132198533Y-67977657D01*
X132198533Y-67784133D01*
X132237238Y-67629314D01*
X132275942Y-67551904D01*
X132314647Y-67513200D01*
X132392057Y-67474495D01*
X133166152Y-67474495D02*
X133243561Y-67474495D01*
X133320971Y-67513200D01*
X133359676Y-67551904D01*
X133398380Y-67629314D01*
X133437085Y-67784133D01*
X133437085Y-67977657D01*
X133398380Y-68132476D01*
X133359676Y-68209885D01*
X133320971Y-68248590D01*
X133243561Y-68287295D01*
X133166152Y-68287295D01*
X133088742Y-68248590D01*
X133050038Y-68209885D01*
X133011333Y-68132476D01*
X132972628Y-67977657D01*
X132972628Y-67784133D01*
X133011333Y-67629314D01*
X133050038Y-67551904D01*
X133088742Y-67513200D01*
X133166152Y-67474495D01*
X133785428Y-67745428D02*
X133785428Y-68287295D01*
X133785428Y-67822838D02*
X133824133Y-67784133D01*
X133901542Y-67745428D01*
X134017657Y-67745428D01*
X134095066Y-67784133D01*
X134133771Y-67861542D01*
X134133771Y-68287295D01*
X134791752Y-67861542D02*
X134520819Y-67861542D01*
X134520819Y-68287295D02*
X134520819Y-67474495D01*
X134907866Y-67474495D01*
X121092685Y-105547885D02*
X121053980Y-105586590D01*
X120937866Y-105625295D01*
X120860457Y-105625295D01*
X120744342Y-105586590D01*
X120666933Y-105509180D01*
X120628228Y-105431771D01*
X120589523Y-105276952D01*
X120589523Y-105160838D01*
X120628228Y-105006019D01*
X120666933Y-104928609D01*
X120744342Y-104851200D01*
X120860457Y-104812495D01*
X120937866Y-104812495D01*
X121053980Y-104851200D01*
X121092685Y-104889904D01*
X121866780Y-105625295D02*
X121402323Y-105625295D01*
X121634552Y-105625295D02*
X121634552Y-104812495D01*
X121557142Y-104928609D01*
X121479733Y-105006019D01*
X121402323Y-105044723D01*
X122563466Y-104812495D02*
X122408647Y-104812495D01*
X122331238Y-104851200D01*
X122292533Y-104889904D01*
X122215123Y-105006019D01*
X122176419Y-105160838D01*
X122176419Y-105470476D01*
X122215123Y-105547885D01*
X122253828Y-105586590D01*
X122331238Y-105625295D01*
X122486057Y-105625295D01*
X122563466Y-105586590D01*
X122602171Y-105547885D01*
X122640876Y-105470476D01*
X122640876Y-105276952D01*
X122602171Y-105199542D01*
X122563466Y-105160838D01*
X122486057Y-105122133D01*
X122331238Y-105122133D01*
X122253828Y-105160838D01*
X122215123Y-105199542D01*
X122176419Y-105276952D01*
X121068495Y-106641295D02*
X120604038Y-106641295D01*
X120836266Y-106641295D02*
X120836266Y-105828495D01*
X120758857Y-105944609D01*
X120681447Y-106022019D01*
X120604038Y-106060723D01*
X121571657Y-105828495D02*
X121649066Y-105828495D01*
X121726476Y-105867200D01*
X121765180Y-105905904D01*
X121803885Y-105983314D01*
X121842590Y-106138133D01*
X121842590Y-106331657D01*
X121803885Y-106486476D01*
X121765180Y-106563885D01*
X121726476Y-106602590D01*
X121649066Y-106641295D01*
X121571657Y-106641295D01*
X121494247Y-106602590D01*
X121455542Y-106563885D01*
X121416838Y-106486476D01*
X121378133Y-106331657D01*
X121378133Y-106138133D01*
X121416838Y-105983314D01*
X121455542Y-105905904D01*
X121494247Y-105867200D01*
X121571657Y-105828495D01*
X122345752Y-105828495D02*
X122423161Y-105828495D01*
X122500571Y-105867200D01*
X122539276Y-105905904D01*
X122577980Y-105983314D01*
X122616685Y-106138133D01*
X122616685Y-106331657D01*
X122577980Y-106486476D01*
X122539276Y-106563885D01*
X122500571Y-106602590D01*
X122423161Y-106641295D01*
X122345752Y-106641295D01*
X122268342Y-106602590D01*
X122229638Y-106563885D01*
X122190933Y-106486476D01*
X122152228Y-106331657D01*
X122152228Y-106138133D01*
X122190933Y-105983314D01*
X122229638Y-105905904D01*
X122268342Y-105867200D01*
X122345752Y-105828495D01*
X122965028Y-106099428D02*
X122965028Y-106641295D01*
X122965028Y-106176838D02*
X123003733Y-106138133D01*
X123081142Y-106099428D01*
X123197257Y-106099428D01*
X123274666Y-106138133D01*
X123313371Y-106215542D01*
X123313371Y-106641295D01*
X123971352Y-106215542D02*
X123700419Y-106215542D01*
X123700419Y-106641295D02*
X123700419Y-105828495D01*
X124087466Y-105828495D01*
X127239485Y-67854285D02*
X127200780Y-67892990D01*
X127084666Y-67931695D01*
X127007257Y-67931695D01*
X126891142Y-67892990D01*
X126813733Y-67815580D01*
X126775028Y-67738171D01*
X126736323Y-67583352D01*
X126736323Y-67467238D01*
X126775028Y-67312419D01*
X126813733Y-67235009D01*
X126891142Y-67157600D01*
X127007257Y-67118895D01*
X127084666Y-67118895D01*
X127200780Y-67157600D01*
X127239485Y-67196304D01*
X128013580Y-67931695D02*
X127549123Y-67931695D01*
X127781352Y-67931695D02*
X127781352Y-67118895D01*
X127703942Y-67235009D01*
X127626533Y-67312419D01*
X127549123Y-67351123D01*
X128284514Y-67118895D02*
X128826380Y-67118895D01*
X128478038Y-67931695D01*
X126758095Y-69049295D02*
X126293638Y-69049295D01*
X126525866Y-69049295D02*
X126525866Y-68236495D01*
X126448457Y-68352609D01*
X126371047Y-68430019D01*
X126293638Y-68468723D01*
X127261257Y-68236495D02*
X127338666Y-68236495D01*
X127416076Y-68275200D01*
X127454780Y-68313904D01*
X127493485Y-68391314D01*
X127532190Y-68546133D01*
X127532190Y-68739657D01*
X127493485Y-68894476D01*
X127454780Y-68971885D01*
X127416076Y-69010590D01*
X127338666Y-69049295D01*
X127261257Y-69049295D01*
X127183847Y-69010590D01*
X127145142Y-68971885D01*
X127106438Y-68894476D01*
X127067733Y-68739657D01*
X127067733Y-68546133D01*
X127106438Y-68391314D01*
X127145142Y-68313904D01*
X127183847Y-68275200D01*
X127261257Y-68236495D01*
X128035352Y-68236495D02*
X128112761Y-68236495D01*
X128190171Y-68275200D01*
X128228876Y-68313904D01*
X128267580Y-68391314D01*
X128306285Y-68546133D01*
X128306285Y-68739657D01*
X128267580Y-68894476D01*
X128228876Y-68971885D01*
X128190171Y-69010590D01*
X128112761Y-69049295D01*
X128035352Y-69049295D01*
X127957942Y-69010590D01*
X127919238Y-68971885D01*
X127880533Y-68894476D01*
X127841828Y-68739657D01*
X127841828Y-68546133D01*
X127880533Y-68391314D01*
X127919238Y-68313904D01*
X127957942Y-68275200D01*
X128035352Y-68236495D01*
X128654628Y-68507428D02*
X128654628Y-69049295D01*
X128654628Y-68584838D02*
X128693333Y-68546133D01*
X128770742Y-68507428D01*
X128886857Y-68507428D01*
X128964266Y-68546133D01*
X129002971Y-68623542D01*
X129002971Y-69049295D01*
X129660952Y-68623542D02*
X129390019Y-68623542D01*
X129390019Y-69049295D02*
X129390019Y-68236495D01*
X129777066Y-68236495D01*
X116266685Y-103312685D02*
X116227980Y-103351390D01*
X116111866Y-103390095D01*
X116034457Y-103390095D01*
X115918342Y-103351390D01*
X115840933Y-103273980D01*
X115802228Y-103196571D01*
X115763523Y-103041752D01*
X115763523Y-102925638D01*
X115802228Y-102770819D01*
X115840933Y-102693409D01*
X115918342Y-102616000D01*
X116034457Y-102577295D01*
X116111866Y-102577295D01*
X116227980Y-102616000D01*
X116266685Y-102654704D01*
X117040780Y-103390095D02*
X116576323Y-103390095D01*
X116808552Y-103390095D02*
X116808552Y-102577295D01*
X116731142Y-102693409D01*
X116653733Y-102770819D01*
X116576323Y-102809523D01*
X117505238Y-102925638D02*
X117427828Y-102886933D01*
X117389123Y-102848228D01*
X117350419Y-102770819D01*
X117350419Y-102732114D01*
X117389123Y-102654704D01*
X117427828Y-102616000D01*
X117505238Y-102577295D01*
X117660057Y-102577295D01*
X117737466Y-102616000D01*
X117776171Y-102654704D01*
X117814876Y-102732114D01*
X117814876Y-102770819D01*
X117776171Y-102848228D01*
X117737466Y-102886933D01*
X117660057Y-102925638D01*
X117505238Y-102925638D01*
X117427828Y-102964342D01*
X117389123Y-103003047D01*
X117350419Y-103080457D01*
X117350419Y-103235276D01*
X117389123Y-103312685D01*
X117427828Y-103351390D01*
X117505238Y-103390095D01*
X117660057Y-103390095D01*
X117737466Y-103351390D01*
X117776171Y-103312685D01*
X117814876Y-103235276D01*
X117814876Y-103080457D01*
X117776171Y-103003047D01*
X117737466Y-102964342D01*
X117660057Y-102925638D01*
X115328095Y-104253695D02*
X114863638Y-104253695D01*
X115095866Y-104253695D02*
X115095866Y-103440895D01*
X115018457Y-103557009D01*
X114941047Y-103634419D01*
X114863638Y-103673123D01*
X115831257Y-103440895D02*
X115908666Y-103440895D01*
X115986076Y-103479600D01*
X116024780Y-103518304D01*
X116063485Y-103595714D01*
X116102190Y-103750533D01*
X116102190Y-103944057D01*
X116063485Y-104098876D01*
X116024780Y-104176285D01*
X115986076Y-104214990D01*
X115908666Y-104253695D01*
X115831257Y-104253695D01*
X115753847Y-104214990D01*
X115715142Y-104176285D01*
X115676438Y-104098876D01*
X115637733Y-103944057D01*
X115637733Y-103750533D01*
X115676438Y-103595714D01*
X115715142Y-103518304D01*
X115753847Y-103479600D01*
X115831257Y-103440895D01*
X116605352Y-103440895D02*
X116682761Y-103440895D01*
X116760171Y-103479600D01*
X116798876Y-103518304D01*
X116837580Y-103595714D01*
X116876285Y-103750533D01*
X116876285Y-103944057D01*
X116837580Y-104098876D01*
X116798876Y-104176285D01*
X116760171Y-104214990D01*
X116682761Y-104253695D01*
X116605352Y-104253695D01*
X116527942Y-104214990D01*
X116489238Y-104176285D01*
X116450533Y-104098876D01*
X116411828Y-103944057D01*
X116411828Y-103750533D01*
X116450533Y-103595714D01*
X116489238Y-103518304D01*
X116527942Y-103479600D01*
X116605352Y-103440895D01*
X117224628Y-103711828D02*
X117224628Y-104253695D01*
X117224628Y-103789238D02*
X117263333Y-103750533D01*
X117340742Y-103711828D01*
X117456857Y-103711828D01*
X117534266Y-103750533D01*
X117572971Y-103827942D01*
X117572971Y-104253695D01*
X118230952Y-103827942D02*
X117960019Y-103827942D01*
X117960019Y-104253695D02*
X117960019Y-103440895D01*
X118347066Y-103440895D01*
X118400285Y-67295485D02*
X118361580Y-67334190D01*
X118245466Y-67372895D01*
X118168057Y-67372895D01*
X118051942Y-67334190D01*
X117974533Y-67256780D01*
X117935828Y-67179371D01*
X117897123Y-67024552D01*
X117897123Y-66908438D01*
X117935828Y-66753619D01*
X117974533Y-66676209D01*
X118051942Y-66598800D01*
X118168057Y-66560095D01*
X118245466Y-66560095D01*
X118361580Y-66598800D01*
X118400285Y-66637504D01*
X119174380Y-67372895D02*
X118709923Y-67372895D01*
X118942152Y-67372895D02*
X118942152Y-66560095D01*
X118864742Y-66676209D01*
X118787333Y-66753619D01*
X118709923Y-66792323D01*
X119561428Y-67372895D02*
X119716247Y-67372895D01*
X119793657Y-67334190D01*
X119832361Y-67295485D01*
X119909771Y-67179371D01*
X119948476Y-67024552D01*
X119948476Y-66714914D01*
X119909771Y-66637504D01*
X119871066Y-66598800D01*
X119793657Y-66560095D01*
X119638838Y-66560095D01*
X119561428Y-66598800D01*
X119522723Y-66637504D01*
X119484019Y-66714914D01*
X119484019Y-66908438D01*
X119522723Y-66985847D01*
X119561428Y-67024552D01*
X119638838Y-67063257D01*
X119793657Y-67063257D01*
X119871066Y-67024552D01*
X119909771Y-66985847D01*
X119948476Y-66908438D01*
X118325295Y-68490495D02*
X117860838Y-68490495D01*
X118093066Y-68490495D02*
X118093066Y-67677695D01*
X118015657Y-67793809D01*
X117938247Y-67871219D01*
X117860838Y-67909923D01*
X118828457Y-67677695D02*
X118905866Y-67677695D01*
X118983276Y-67716400D01*
X119021980Y-67755104D01*
X119060685Y-67832514D01*
X119099390Y-67987333D01*
X119099390Y-68180857D01*
X119060685Y-68335676D01*
X119021980Y-68413085D01*
X118983276Y-68451790D01*
X118905866Y-68490495D01*
X118828457Y-68490495D01*
X118751047Y-68451790D01*
X118712342Y-68413085D01*
X118673638Y-68335676D01*
X118634933Y-68180857D01*
X118634933Y-67987333D01*
X118673638Y-67832514D01*
X118712342Y-67755104D01*
X118751047Y-67716400D01*
X118828457Y-67677695D01*
X119602552Y-67677695D02*
X119679961Y-67677695D01*
X119757371Y-67716400D01*
X119796076Y-67755104D01*
X119834780Y-67832514D01*
X119873485Y-67987333D01*
X119873485Y-68180857D01*
X119834780Y-68335676D01*
X119796076Y-68413085D01*
X119757371Y-68451790D01*
X119679961Y-68490495D01*
X119602552Y-68490495D01*
X119525142Y-68451790D01*
X119486438Y-68413085D01*
X119447733Y-68335676D01*
X119409028Y-68180857D01*
X119409028Y-67987333D01*
X119447733Y-67832514D01*
X119486438Y-67755104D01*
X119525142Y-67716400D01*
X119602552Y-67677695D01*
X120221828Y-67948628D02*
X120221828Y-68490495D01*
X120221828Y-68026038D02*
X120260533Y-67987333D01*
X120337942Y-67948628D01*
X120454057Y-67948628D01*
X120531466Y-67987333D01*
X120570171Y-68064742D01*
X120570171Y-68490495D01*
X121228152Y-68064742D02*
X120957219Y-68064742D01*
X120957219Y-68490495D02*
X120957219Y-67677695D01*
X121344266Y-67677695D01*
X126096485Y-102906285D02*
X126057780Y-102944990D01*
X125941666Y-102983695D01*
X125864257Y-102983695D01*
X125748142Y-102944990D01*
X125670733Y-102867580D01*
X125632028Y-102790171D01*
X125593323Y-102635352D01*
X125593323Y-102519238D01*
X125632028Y-102364419D01*
X125670733Y-102287009D01*
X125748142Y-102209600D01*
X125864257Y-102170895D01*
X125941666Y-102170895D01*
X126057780Y-102209600D01*
X126096485Y-102248304D01*
X126406123Y-102248304D02*
X126444828Y-102209600D01*
X126522238Y-102170895D01*
X126715761Y-102170895D01*
X126793171Y-102209600D01*
X126831876Y-102248304D01*
X126870580Y-102325714D01*
X126870580Y-102403123D01*
X126831876Y-102519238D01*
X126367419Y-102983695D01*
X126870580Y-102983695D01*
X127373742Y-102170895D02*
X127451152Y-102170895D01*
X127528561Y-102209600D01*
X127567266Y-102248304D01*
X127605971Y-102325714D01*
X127644676Y-102480533D01*
X127644676Y-102674057D01*
X127605971Y-102828876D01*
X127567266Y-102906285D01*
X127528561Y-102944990D01*
X127451152Y-102983695D01*
X127373742Y-102983695D01*
X127296333Y-102944990D01*
X127257628Y-102906285D01*
X127218923Y-102828876D01*
X127180219Y-102674057D01*
X127180219Y-102480533D01*
X127218923Y-102325714D01*
X127257628Y-102248304D01*
X127296333Y-102209600D01*
X127373742Y-102170895D01*
X125996095Y-104380695D02*
X125531638Y-104380695D01*
X125763866Y-104380695D02*
X125763866Y-103567895D01*
X125686457Y-103684009D01*
X125609047Y-103761419D01*
X125531638Y-103800123D01*
X126499257Y-103567895D02*
X126576666Y-103567895D01*
X126654076Y-103606600D01*
X126692780Y-103645304D01*
X126731485Y-103722714D01*
X126770190Y-103877533D01*
X126770190Y-104071057D01*
X126731485Y-104225876D01*
X126692780Y-104303285D01*
X126654076Y-104341990D01*
X126576666Y-104380695D01*
X126499257Y-104380695D01*
X126421847Y-104341990D01*
X126383142Y-104303285D01*
X126344438Y-104225876D01*
X126305733Y-104071057D01*
X126305733Y-103877533D01*
X126344438Y-103722714D01*
X126383142Y-103645304D01*
X126421847Y-103606600D01*
X126499257Y-103567895D01*
X127273352Y-103567895D02*
X127350761Y-103567895D01*
X127428171Y-103606600D01*
X127466876Y-103645304D01*
X127505580Y-103722714D01*
X127544285Y-103877533D01*
X127544285Y-104071057D01*
X127505580Y-104225876D01*
X127466876Y-104303285D01*
X127428171Y-104341990D01*
X127350761Y-104380695D01*
X127273352Y-104380695D01*
X127195942Y-104341990D01*
X127157238Y-104303285D01*
X127118533Y-104225876D01*
X127079828Y-104071057D01*
X127079828Y-103877533D01*
X127118533Y-103722714D01*
X127157238Y-103645304D01*
X127195942Y-103606600D01*
X127273352Y-103567895D01*
X127892628Y-103838828D02*
X127892628Y-104380695D01*
X127892628Y-103916238D02*
X127931333Y-103877533D01*
X128008742Y-103838828D01*
X128124857Y-103838828D01*
X128202266Y-103877533D01*
X128240971Y-103954942D01*
X128240971Y-104380695D01*
X128898952Y-103954942D02*
X128628019Y-103954942D01*
X128628019Y-104380695D02*
X128628019Y-103567895D01*
X129015066Y-103567895D01*
X142784285Y-94524285D02*
X142745580Y-94562990D01*
X142629466Y-94601695D01*
X142552057Y-94601695D01*
X142435942Y-94562990D01*
X142358533Y-94485580D01*
X142319828Y-94408171D01*
X142281123Y-94253352D01*
X142281123Y-94137238D01*
X142319828Y-93982419D01*
X142358533Y-93905009D01*
X142435942Y-93827600D01*
X142552057Y-93788895D01*
X142629466Y-93788895D01*
X142745580Y-93827600D01*
X142784285Y-93866304D01*
X143093923Y-93866304D02*
X143132628Y-93827600D01*
X143210038Y-93788895D01*
X143403561Y-93788895D01*
X143480971Y-93827600D01*
X143519676Y-93866304D01*
X143558380Y-93943714D01*
X143558380Y-94021123D01*
X143519676Y-94137238D01*
X143055219Y-94601695D01*
X143558380Y-94601695D01*
X144332476Y-94601695D02*
X143868019Y-94601695D01*
X144100247Y-94601695D02*
X144100247Y-93788895D01*
X144022838Y-93905009D01*
X143945428Y-93982419D01*
X143868019Y-94021123D01*
X142861695Y-95719295D02*
X142397238Y-95719295D01*
X142629466Y-95719295D02*
X142629466Y-94906495D01*
X142552057Y-95022609D01*
X142474647Y-95100019D01*
X142397238Y-95138723D01*
X143364857Y-94906495D02*
X143442266Y-94906495D01*
X143519676Y-94945200D01*
X143558380Y-94983904D01*
X143597085Y-95061314D01*
X143635790Y-95216133D01*
X143635790Y-95409657D01*
X143597085Y-95564476D01*
X143558380Y-95641885D01*
X143519676Y-95680590D01*
X143442266Y-95719295D01*
X143364857Y-95719295D01*
X143287447Y-95680590D01*
X143248742Y-95641885D01*
X143210038Y-95564476D01*
X143171333Y-95409657D01*
X143171333Y-95216133D01*
X143210038Y-95061314D01*
X143248742Y-94983904D01*
X143287447Y-94945200D01*
X143364857Y-94906495D01*
X144138952Y-94906495D02*
X144216361Y-94906495D01*
X144293771Y-94945200D01*
X144332476Y-94983904D01*
X144371180Y-95061314D01*
X144409885Y-95216133D01*
X144409885Y-95409657D01*
X144371180Y-95564476D01*
X144332476Y-95641885D01*
X144293771Y-95680590D01*
X144216361Y-95719295D01*
X144138952Y-95719295D01*
X144061542Y-95680590D01*
X144022838Y-95641885D01*
X143984133Y-95564476D01*
X143945428Y-95409657D01*
X143945428Y-95216133D01*
X143984133Y-95061314D01*
X144022838Y-94983904D01*
X144061542Y-94945200D01*
X144138952Y-94906495D01*
X144758228Y-95177428D02*
X144758228Y-95719295D01*
X144758228Y-95254838D02*
X144796933Y-95216133D01*
X144874342Y-95177428D01*
X144990457Y-95177428D01*
X145067866Y-95216133D01*
X145106571Y-95293542D01*
X145106571Y-95719295D01*
X145764552Y-95293542D02*
X145493619Y-95293542D01*
X145493619Y-95719295D02*
X145493619Y-94906495D01*
X145880666Y-94906495D01*
X105344685Y-85968114D02*
X105383390Y-86006819D01*
X105422095Y-86122933D01*
X105422095Y-86200342D01*
X105383390Y-86316457D01*
X105305980Y-86393866D01*
X105228571Y-86432571D01*
X105073752Y-86471276D01*
X104957638Y-86471276D01*
X104802819Y-86432571D01*
X104725409Y-86393866D01*
X104648000Y-86316457D01*
X104609295Y-86200342D01*
X104609295Y-86122933D01*
X104648000Y-86006819D01*
X104686704Y-85968114D01*
X104686704Y-85658476D02*
X104648000Y-85619771D01*
X104609295Y-85542361D01*
X104609295Y-85348838D01*
X104648000Y-85271428D01*
X104686704Y-85232723D01*
X104764114Y-85194019D01*
X104841523Y-85194019D01*
X104957638Y-85232723D01*
X105422095Y-85697180D01*
X105422095Y-85194019D01*
X104609295Y-84458628D02*
X104609295Y-84845676D01*
X104996342Y-84884380D01*
X104957638Y-84845676D01*
X104918933Y-84768266D01*
X104918933Y-84574742D01*
X104957638Y-84497333D01*
X104996342Y-84458628D01*
X105073752Y-84419923D01*
X105267276Y-84419923D01*
X105344685Y-84458628D01*
X105383390Y-84497333D01*
X105422095Y-84574742D01*
X105422095Y-84768266D01*
X105383390Y-84845676D01*
X105344685Y-84884380D01*
X142835085Y-82687885D02*
X142796380Y-82726590D01*
X142680266Y-82765295D01*
X142602857Y-82765295D01*
X142486742Y-82726590D01*
X142409333Y-82649180D01*
X142370628Y-82571771D01*
X142331923Y-82416952D01*
X142331923Y-82300838D01*
X142370628Y-82146019D01*
X142409333Y-82068609D01*
X142486742Y-81991200D01*
X142602857Y-81952495D01*
X142680266Y-81952495D01*
X142796380Y-81991200D01*
X142835085Y-82029904D01*
X143144723Y-82029904D02*
X143183428Y-81991200D01*
X143260838Y-81952495D01*
X143454361Y-81952495D01*
X143531771Y-81991200D01*
X143570476Y-82029904D01*
X143609180Y-82107314D01*
X143609180Y-82184723D01*
X143570476Y-82300838D01*
X143106019Y-82765295D01*
X143609180Y-82765295D01*
X144305866Y-81952495D02*
X144151047Y-81952495D01*
X144073638Y-81991200D01*
X144034933Y-82029904D01*
X143957523Y-82146019D01*
X143918819Y-82300838D01*
X143918819Y-82610476D01*
X143957523Y-82687885D01*
X143996228Y-82726590D01*
X144073638Y-82765295D01*
X144228457Y-82765295D01*
X144305866Y-82726590D01*
X144344571Y-82687885D01*
X144383276Y-82610476D01*
X144383276Y-82416952D01*
X144344571Y-82339542D01*
X144305866Y-82300838D01*
X144228457Y-82262133D01*
X144073638Y-82262133D01*
X143996228Y-82300838D01*
X143957523Y-82339542D01*
X143918819Y-82416952D01*
X143115695Y-84086095D02*
X142651238Y-84086095D01*
X142883466Y-84086095D02*
X142883466Y-83273295D01*
X142806057Y-83389409D01*
X142728647Y-83466819D01*
X142651238Y-83505523D01*
X143618857Y-83273295D02*
X143696266Y-83273295D01*
X143773676Y-83312000D01*
X143812380Y-83350704D01*
X143851085Y-83428114D01*
X143889790Y-83582933D01*
X143889790Y-83776457D01*
X143851085Y-83931276D01*
X143812380Y-84008685D01*
X143773676Y-84047390D01*
X143696266Y-84086095D01*
X143618857Y-84086095D01*
X143541447Y-84047390D01*
X143502742Y-84008685D01*
X143464038Y-83931276D01*
X143425333Y-83776457D01*
X143425333Y-83582933D01*
X143464038Y-83428114D01*
X143502742Y-83350704D01*
X143541447Y-83312000D01*
X143618857Y-83273295D01*
X144392952Y-83273295D02*
X144470361Y-83273295D01*
X144547771Y-83312000D01*
X144586476Y-83350704D01*
X144625180Y-83428114D01*
X144663885Y-83582933D01*
X144663885Y-83776457D01*
X144625180Y-83931276D01*
X144586476Y-84008685D01*
X144547771Y-84047390D01*
X144470361Y-84086095D01*
X144392952Y-84086095D01*
X144315542Y-84047390D01*
X144276838Y-84008685D01*
X144238133Y-83931276D01*
X144199428Y-83776457D01*
X144199428Y-83582933D01*
X144238133Y-83428114D01*
X144276838Y-83350704D01*
X144315542Y-83312000D01*
X144392952Y-83273295D01*
X145012228Y-83544228D02*
X145012228Y-84086095D01*
X145012228Y-83621638D02*
X145050933Y-83582933D01*
X145128342Y-83544228D01*
X145244457Y-83544228D01*
X145321866Y-83582933D01*
X145360571Y-83660342D01*
X145360571Y-84086095D01*
X146018552Y-83660342D02*
X145747619Y-83660342D01*
X145747619Y-84086095D02*
X145747619Y-83273295D01*
X146134666Y-83273295D01*
X105344685Y-92136685D02*
X105305980Y-92175390D01*
X105189866Y-92214095D01*
X105112457Y-92214095D01*
X104996342Y-92175390D01*
X104918933Y-92097980D01*
X104880228Y-92020571D01*
X104841523Y-91865752D01*
X104841523Y-91749638D01*
X104880228Y-91594819D01*
X104918933Y-91517409D01*
X104996342Y-91440000D01*
X105112457Y-91401295D01*
X105189866Y-91401295D01*
X105305980Y-91440000D01*
X105344685Y-91478704D01*
X105654323Y-91478704D02*
X105693028Y-91440000D01*
X105770438Y-91401295D01*
X105963961Y-91401295D01*
X106041371Y-91440000D01*
X106080076Y-91478704D01*
X106118780Y-91556114D01*
X106118780Y-91633523D01*
X106080076Y-91749638D01*
X105615619Y-92214095D01*
X106118780Y-92214095D01*
X106389714Y-91401295D02*
X106931580Y-91401295D01*
X106583238Y-92214095D01*
X143241485Y-88682285D02*
X143202780Y-88720990D01*
X143086666Y-88759695D01*
X143009257Y-88759695D01*
X142893142Y-88720990D01*
X142815733Y-88643580D01*
X142777028Y-88566171D01*
X142738323Y-88411352D01*
X142738323Y-88295238D01*
X142777028Y-88140419D01*
X142815733Y-88063009D01*
X142893142Y-87985600D01*
X143009257Y-87946895D01*
X143086666Y-87946895D01*
X143202780Y-87985600D01*
X143241485Y-88024304D01*
X143551123Y-88024304D02*
X143589828Y-87985600D01*
X143667238Y-87946895D01*
X143860761Y-87946895D01*
X143938171Y-87985600D01*
X143976876Y-88024304D01*
X144015580Y-88101714D01*
X144015580Y-88179123D01*
X143976876Y-88295238D01*
X143512419Y-88759695D01*
X144015580Y-88759695D01*
X144480038Y-88295238D02*
X144402628Y-88256533D01*
X144363923Y-88217828D01*
X144325219Y-88140419D01*
X144325219Y-88101714D01*
X144363923Y-88024304D01*
X144402628Y-87985600D01*
X144480038Y-87946895D01*
X144634857Y-87946895D01*
X144712266Y-87985600D01*
X144750971Y-88024304D01*
X144789676Y-88101714D01*
X144789676Y-88140419D01*
X144750971Y-88217828D01*
X144712266Y-88256533D01*
X144634857Y-88295238D01*
X144480038Y-88295238D01*
X144402628Y-88333942D01*
X144363923Y-88372647D01*
X144325219Y-88450057D01*
X144325219Y-88604876D01*
X144363923Y-88682285D01*
X144402628Y-88720990D01*
X144480038Y-88759695D01*
X144634857Y-88759695D01*
X144712266Y-88720990D01*
X144750971Y-88682285D01*
X144789676Y-88604876D01*
X144789676Y-88450057D01*
X144750971Y-88372647D01*
X144712266Y-88333942D01*
X144634857Y-88295238D01*
X143217295Y-89928095D02*
X142752838Y-89928095D01*
X142985066Y-89928095D02*
X142985066Y-89115295D01*
X142907657Y-89231409D01*
X142830247Y-89308819D01*
X142752838Y-89347523D01*
X143720457Y-89115295D02*
X143797866Y-89115295D01*
X143875276Y-89154000D01*
X143913980Y-89192704D01*
X143952685Y-89270114D01*
X143991390Y-89424933D01*
X143991390Y-89618457D01*
X143952685Y-89773276D01*
X143913980Y-89850685D01*
X143875276Y-89889390D01*
X143797866Y-89928095D01*
X143720457Y-89928095D01*
X143643047Y-89889390D01*
X143604342Y-89850685D01*
X143565638Y-89773276D01*
X143526933Y-89618457D01*
X143526933Y-89424933D01*
X143565638Y-89270114D01*
X143604342Y-89192704D01*
X143643047Y-89154000D01*
X143720457Y-89115295D01*
X144494552Y-89115295D02*
X144571961Y-89115295D01*
X144649371Y-89154000D01*
X144688076Y-89192704D01*
X144726780Y-89270114D01*
X144765485Y-89424933D01*
X144765485Y-89618457D01*
X144726780Y-89773276D01*
X144688076Y-89850685D01*
X144649371Y-89889390D01*
X144571961Y-89928095D01*
X144494552Y-89928095D01*
X144417142Y-89889390D01*
X144378438Y-89850685D01*
X144339733Y-89773276D01*
X144301028Y-89618457D01*
X144301028Y-89424933D01*
X144339733Y-89270114D01*
X144378438Y-89192704D01*
X144417142Y-89154000D01*
X144494552Y-89115295D01*
X145113828Y-89386228D02*
X145113828Y-89928095D01*
X145113828Y-89463638D02*
X145152533Y-89424933D01*
X145229942Y-89386228D01*
X145346057Y-89386228D01*
X145423466Y-89424933D01*
X145462171Y-89502342D01*
X145462171Y-89928095D01*
X146120152Y-89502342D02*
X145849219Y-89502342D01*
X145849219Y-89928095D02*
X145849219Y-89115295D01*
X146236266Y-89115295D01*
X138567885Y-112355085D02*
X138529180Y-112393790D01*
X138413066Y-112432495D01*
X138335657Y-112432495D01*
X138219542Y-112393790D01*
X138142133Y-112316380D01*
X138103428Y-112238971D01*
X138064723Y-112084152D01*
X138064723Y-111968038D01*
X138103428Y-111813219D01*
X138142133Y-111735809D01*
X138219542Y-111658400D01*
X138335657Y-111619695D01*
X138413066Y-111619695D01*
X138529180Y-111658400D01*
X138567885Y-111697104D01*
X138838819Y-111619695D02*
X139341980Y-111619695D01*
X139071047Y-111929333D01*
X139187161Y-111929333D01*
X139264571Y-111968038D01*
X139303276Y-112006742D01*
X139341980Y-112084152D01*
X139341980Y-112277676D01*
X139303276Y-112355085D01*
X139264571Y-112393790D01*
X139187161Y-112432495D01*
X138954933Y-112432495D01*
X138877523Y-112393790D01*
X138838819Y-112355085D01*
X139845142Y-111619695D02*
X139922552Y-111619695D01*
X139999961Y-111658400D01*
X140038666Y-111697104D01*
X140077371Y-111774514D01*
X140116076Y-111929333D01*
X140116076Y-112122857D01*
X140077371Y-112277676D01*
X140038666Y-112355085D01*
X139999961Y-112393790D01*
X139922552Y-112432495D01*
X139845142Y-112432495D01*
X139767733Y-112393790D01*
X139729028Y-112355085D01*
X139690323Y-112277676D01*
X139651619Y-112122857D01*
X139651619Y-111929333D01*
X139690323Y-111774514D01*
X139729028Y-111697104D01*
X139767733Y-111658400D01*
X139845142Y-111619695D01*
X138600542Y-113448495D02*
X138136085Y-113448495D01*
X138368314Y-113448495D02*
X138368314Y-112635695D01*
X138290904Y-112751809D01*
X138213495Y-112829219D01*
X138136085Y-112867923D01*
X139065000Y-112984038D02*
X138987590Y-112945333D01*
X138948885Y-112906628D01*
X138910180Y-112829219D01*
X138910180Y-112790514D01*
X138948885Y-112713104D01*
X138987590Y-112674400D01*
X139065000Y-112635695D01*
X139219819Y-112635695D01*
X139297228Y-112674400D01*
X139335933Y-112713104D01*
X139374638Y-112790514D01*
X139374638Y-112829219D01*
X139335933Y-112906628D01*
X139297228Y-112945333D01*
X139219819Y-112984038D01*
X139065000Y-112984038D01*
X138987590Y-113022742D01*
X138948885Y-113061447D01*
X138910180Y-113138857D01*
X138910180Y-113293676D01*
X138948885Y-113371085D01*
X138987590Y-113409790D01*
X139065000Y-113448495D01*
X139219819Y-113448495D01*
X139297228Y-113409790D01*
X139335933Y-113371085D01*
X139374638Y-113293676D01*
X139374638Y-113138857D01*
X139335933Y-113061447D01*
X139297228Y-113022742D01*
X139219819Y-112984038D01*
X139722980Y-112906628D02*
X139722980Y-113719428D01*
X139722980Y-112945333D02*
X139800390Y-112906628D01*
X139955209Y-112906628D01*
X140032619Y-112945333D01*
X140071323Y-112984038D01*
X140110028Y-113061447D01*
X140110028Y-113293676D01*
X140071323Y-113371085D01*
X140032619Y-113409790D01*
X139955209Y-113448495D01*
X139800390Y-113448495D01*
X139722980Y-113409790D01*
X140729304Y-113022742D02*
X140458371Y-113022742D01*
X140458371Y-113448495D02*
X140458371Y-112635695D01*
X140845419Y-112635695D01*
X142504885Y-112355085D02*
X142466180Y-112393790D01*
X142350066Y-112432495D01*
X142272657Y-112432495D01*
X142156542Y-112393790D01*
X142079133Y-112316380D01*
X142040428Y-112238971D01*
X142001723Y-112084152D01*
X142001723Y-111968038D01*
X142040428Y-111813219D01*
X142079133Y-111735809D01*
X142156542Y-111658400D01*
X142272657Y-111619695D01*
X142350066Y-111619695D01*
X142466180Y-111658400D01*
X142504885Y-111697104D01*
X142775819Y-111619695D02*
X143278980Y-111619695D01*
X143008047Y-111929333D01*
X143124161Y-111929333D01*
X143201571Y-111968038D01*
X143240276Y-112006742D01*
X143278980Y-112084152D01*
X143278980Y-112277676D01*
X143240276Y-112355085D01*
X143201571Y-112393790D01*
X143124161Y-112432495D01*
X142891933Y-112432495D01*
X142814523Y-112393790D01*
X142775819Y-112355085D01*
X144053076Y-112432495D02*
X143588619Y-112432495D01*
X143820847Y-112432495D02*
X143820847Y-111619695D01*
X143743438Y-111735809D01*
X143666028Y-111813219D01*
X143588619Y-111851923D01*
X142410542Y-113448495D02*
X141946085Y-113448495D01*
X142178314Y-113448495D02*
X142178314Y-112635695D01*
X142100904Y-112751809D01*
X142023495Y-112829219D01*
X141946085Y-112867923D01*
X142875000Y-112984038D02*
X142797590Y-112945333D01*
X142758885Y-112906628D01*
X142720180Y-112829219D01*
X142720180Y-112790514D01*
X142758885Y-112713104D01*
X142797590Y-112674400D01*
X142875000Y-112635695D01*
X143029819Y-112635695D01*
X143107228Y-112674400D01*
X143145933Y-112713104D01*
X143184638Y-112790514D01*
X143184638Y-112829219D01*
X143145933Y-112906628D01*
X143107228Y-112945333D01*
X143029819Y-112984038D01*
X142875000Y-112984038D01*
X142797590Y-113022742D01*
X142758885Y-113061447D01*
X142720180Y-113138857D01*
X142720180Y-113293676D01*
X142758885Y-113371085D01*
X142797590Y-113409790D01*
X142875000Y-113448495D01*
X143029819Y-113448495D01*
X143107228Y-113409790D01*
X143145933Y-113371085D01*
X143184638Y-113293676D01*
X143184638Y-113138857D01*
X143145933Y-113061447D01*
X143107228Y-113022742D01*
X143029819Y-112984038D01*
X143532980Y-112906628D02*
X143532980Y-113719428D01*
X143532980Y-112945333D02*
X143610390Y-112906628D01*
X143765209Y-112906628D01*
X143842619Y-112945333D01*
X143881323Y-112984038D01*
X143920028Y-113061447D01*
X143920028Y-113293676D01*
X143881323Y-113371085D01*
X143842619Y-113409790D01*
X143765209Y-113448495D01*
X143610390Y-113448495D01*
X143532980Y-113409790D01*
X144539304Y-113022742D02*
X144268371Y-113022742D01*
X144268371Y-113448495D02*
X144268371Y-112635695D01*
X144655419Y-112635695D01*
X122902133Y-58330495D02*
X122631200Y-57943447D01*
X122437676Y-58330495D02*
X122437676Y-57517695D01*
X122747314Y-57517695D01*
X122824723Y-57556400D01*
X122863428Y-57595104D01*
X122902133Y-57672514D01*
X122902133Y-57788628D01*
X122863428Y-57866038D01*
X122824723Y-57904742D01*
X122747314Y-57943447D01*
X122437676Y-57943447D01*
X123676228Y-58330495D02*
X123211771Y-58330495D01*
X123444000Y-58330495D02*
X123444000Y-57517695D01*
X123366590Y-57633809D01*
X123289180Y-57711219D01*
X123211771Y-57749923D01*
X122120780Y-59448095D02*
X121656323Y-59448095D01*
X121888552Y-59448095D02*
X121888552Y-58635295D01*
X121811142Y-58751409D01*
X121733733Y-58828819D01*
X121656323Y-58867523D01*
X122623942Y-58635295D02*
X122701352Y-58635295D01*
X122778761Y-58674000D01*
X122817466Y-58712704D01*
X122856171Y-58790114D01*
X122894876Y-58944933D01*
X122894876Y-59138457D01*
X122856171Y-59293276D01*
X122817466Y-59370685D01*
X122778761Y-59409390D01*
X122701352Y-59448095D01*
X122623942Y-59448095D01*
X122546533Y-59409390D01*
X122507828Y-59370685D01*
X122469123Y-59293276D01*
X122430419Y-59138457D01*
X122430419Y-58944933D01*
X122469123Y-58790114D01*
X122507828Y-58712704D01*
X122546533Y-58674000D01*
X122623942Y-58635295D01*
X123243219Y-59448095D02*
X123243219Y-58635295D01*
X123707676Y-59448095D02*
X123359333Y-58983638D01*
X123707676Y-58635295D02*
X123243219Y-59099752D01*
X155109333Y-68541295D02*
X154838400Y-68154247D01*
X154644876Y-68541295D02*
X154644876Y-67728495D01*
X154954514Y-67728495D01*
X155031923Y-67767200D01*
X155070628Y-67805904D01*
X155109333Y-67883314D01*
X155109333Y-67999428D01*
X155070628Y-68076838D01*
X155031923Y-68115542D01*
X154954514Y-68154247D01*
X154644876Y-68154247D01*
X155418971Y-67805904D02*
X155457676Y-67767200D01*
X155535085Y-67728495D01*
X155728609Y-67728495D01*
X155806019Y-67767200D01*
X155844723Y-67805904D01*
X155883428Y-67883314D01*
X155883428Y-67960723D01*
X155844723Y-68076838D01*
X155380266Y-68541295D01*
X155883428Y-68541295D01*
X154988380Y-69658895D02*
X154523923Y-69658895D01*
X154756152Y-69658895D02*
X154756152Y-68846095D01*
X154678742Y-68962209D01*
X154601333Y-69039619D01*
X154523923Y-69078323D01*
X155491542Y-68846095D02*
X155568952Y-68846095D01*
X155646361Y-68884800D01*
X155685066Y-68923504D01*
X155723771Y-69000914D01*
X155762476Y-69155733D01*
X155762476Y-69349257D01*
X155723771Y-69504076D01*
X155685066Y-69581485D01*
X155646361Y-69620190D01*
X155568952Y-69658895D01*
X155491542Y-69658895D01*
X155414133Y-69620190D01*
X155375428Y-69581485D01*
X155336723Y-69504076D01*
X155298019Y-69349257D01*
X155298019Y-69155733D01*
X155336723Y-69000914D01*
X155375428Y-68923504D01*
X155414133Y-68884800D01*
X155491542Y-68846095D01*
X156110819Y-69658895D02*
X156110819Y-68846095D01*
X156575276Y-69658895D02*
X156226933Y-69194438D01*
X156575276Y-68846095D02*
X156110819Y-69310552D01*
X146930533Y-68338095D02*
X146659600Y-67951047D01*
X146466076Y-68338095D02*
X146466076Y-67525295D01*
X146775714Y-67525295D01*
X146853123Y-67564000D01*
X146891828Y-67602704D01*
X146930533Y-67680114D01*
X146930533Y-67796228D01*
X146891828Y-67873638D01*
X146853123Y-67912342D01*
X146775714Y-67951047D01*
X146466076Y-67951047D01*
X147201466Y-67525295D02*
X147704628Y-67525295D01*
X147433695Y-67834933D01*
X147549809Y-67834933D01*
X147627219Y-67873638D01*
X147665923Y-67912342D01*
X147704628Y-67989752D01*
X147704628Y-68183276D01*
X147665923Y-68260685D01*
X147627219Y-68299390D01*
X147549809Y-68338095D01*
X147317580Y-68338095D01*
X147240171Y-68299390D01*
X147201466Y-68260685D01*
X146942628Y-69455695D02*
X146478171Y-69455695D01*
X146710400Y-69455695D02*
X146710400Y-68642895D01*
X146632990Y-68759009D01*
X146555580Y-68836419D01*
X146478171Y-68875123D01*
X147290971Y-69455695D02*
X147290971Y-68642895D01*
X147755428Y-69455695D02*
X147407085Y-68991238D01*
X147755428Y-68642895D02*
X147290971Y-69107352D01*
X148340233Y-60895895D02*
X148069300Y-60508847D01*
X147875776Y-60895895D02*
X147875776Y-60083095D01*
X148185414Y-60083095D01*
X148262823Y-60121800D01*
X148301528Y-60160504D01*
X148340233Y-60237914D01*
X148340233Y-60354028D01*
X148301528Y-60431438D01*
X148262823Y-60470142D01*
X148185414Y-60508847D01*
X147875776Y-60508847D01*
X149036919Y-60354028D02*
X149036919Y-60895895D01*
X148843395Y-60044390D02*
X148649871Y-60624961D01*
X149153033Y-60624961D01*
X147475423Y-61497028D02*
X147475423Y-62038895D01*
X147281900Y-61187390D02*
X147088376Y-61767961D01*
X147591538Y-61767961D01*
X147823766Y-61226095D02*
X148365633Y-61226095D01*
X148017290Y-62038895D01*
X148830090Y-61226095D02*
X148907500Y-61226095D01*
X148984909Y-61264800D01*
X149023614Y-61303504D01*
X149062319Y-61380914D01*
X149101023Y-61535733D01*
X149101023Y-61729257D01*
X149062319Y-61884076D01*
X149023614Y-61961485D01*
X148984909Y-62000190D01*
X148907500Y-62038895D01*
X148830090Y-62038895D01*
X148752680Y-62000190D01*
X148713976Y-61961485D01*
X148675271Y-61884076D01*
X148636566Y-61729257D01*
X148636566Y-61535733D01*
X148675271Y-61380914D01*
X148713976Y-61303504D01*
X148752680Y-61264800D01*
X148830090Y-61226095D01*
X119142933Y-106844495D02*
X118872000Y-106457447D01*
X118678476Y-106844495D02*
X118678476Y-106031695D01*
X118988114Y-106031695D01*
X119065523Y-106070400D01*
X119104228Y-106109104D01*
X119142933Y-106186514D01*
X119142933Y-106302628D01*
X119104228Y-106380038D01*
X119065523Y-106418742D01*
X118988114Y-106457447D01*
X118678476Y-106457447D01*
X119878323Y-106031695D02*
X119491276Y-106031695D01*
X119452571Y-106418742D01*
X119491276Y-106380038D01*
X119568685Y-106341333D01*
X119762209Y-106341333D01*
X119839619Y-106380038D01*
X119878323Y-106418742D01*
X119917028Y-106496152D01*
X119917028Y-106689676D01*
X119878323Y-106767085D01*
X119839619Y-106805790D01*
X119762209Y-106844495D01*
X119568685Y-106844495D01*
X119491276Y-106805790D01*
X119452571Y-106767085D01*
X119295333Y-111314895D02*
X119024400Y-110927847D01*
X118830876Y-111314895D02*
X118830876Y-110502095D01*
X119140514Y-110502095D01*
X119217923Y-110540800D01*
X119256628Y-110579504D01*
X119295333Y-110656914D01*
X119295333Y-110773028D01*
X119256628Y-110850438D01*
X119217923Y-110889142D01*
X119140514Y-110927847D01*
X118830876Y-110927847D01*
X119992019Y-110502095D02*
X119837200Y-110502095D01*
X119759790Y-110540800D01*
X119721085Y-110579504D01*
X119643676Y-110695619D01*
X119604971Y-110850438D01*
X119604971Y-111160076D01*
X119643676Y-111237485D01*
X119682380Y-111276190D01*
X119759790Y-111314895D01*
X119914609Y-111314895D01*
X119992019Y-111276190D01*
X120030723Y-111237485D01*
X120069428Y-111160076D01*
X120069428Y-110966552D01*
X120030723Y-110889142D01*
X119992019Y-110850438D01*
X119914609Y-110811733D01*
X119759790Y-110811733D01*
X119682380Y-110850438D01*
X119643676Y-110889142D01*
X119604971Y-110966552D01*
X127677333Y-111162495D02*
X127406400Y-110775447D01*
X127212876Y-111162495D02*
X127212876Y-110349695D01*
X127522514Y-110349695D01*
X127599923Y-110388400D01*
X127638628Y-110427104D01*
X127677333Y-110504514D01*
X127677333Y-110620628D01*
X127638628Y-110698038D01*
X127599923Y-110736742D01*
X127522514Y-110775447D01*
X127212876Y-110775447D01*
X127948266Y-110349695D02*
X128490133Y-110349695D01*
X128141790Y-111162495D01*
X127607180Y-112280095D02*
X127142723Y-112280095D01*
X127374952Y-112280095D02*
X127374952Y-111467295D01*
X127297542Y-111583409D01*
X127220133Y-111660819D01*
X127142723Y-111699523D01*
X128110342Y-111467295D02*
X128187752Y-111467295D01*
X128265161Y-111506000D01*
X128303866Y-111544704D01*
X128342571Y-111622114D01*
X128381276Y-111776933D01*
X128381276Y-111970457D01*
X128342571Y-112125276D01*
X128303866Y-112202685D01*
X128265161Y-112241390D01*
X128187752Y-112280095D01*
X128110342Y-112280095D01*
X128032933Y-112241390D01*
X127994228Y-112202685D01*
X127955523Y-112125276D01*
X127916819Y-111970457D01*
X127916819Y-111776933D01*
X127955523Y-111622114D01*
X127994228Y-111544704D01*
X128032933Y-111506000D01*
X128110342Y-111467295D01*
X128729619Y-112280095D02*
X128729619Y-111467295D01*
X129194076Y-112280095D02*
X128845733Y-111815638D01*
X129194076Y-111467295D02*
X128729619Y-111931752D01*
X136008533Y-103999695D02*
X135737600Y-103612647D01*
X135544076Y-103999695D02*
X135544076Y-103186895D01*
X135853714Y-103186895D01*
X135931123Y-103225600D01*
X135969828Y-103264304D01*
X136008533Y-103341714D01*
X136008533Y-103457828D01*
X135969828Y-103535238D01*
X135931123Y-103573942D01*
X135853714Y-103612647D01*
X135544076Y-103612647D01*
X136472990Y-103535238D02*
X136395580Y-103496533D01*
X136356876Y-103457828D01*
X136318171Y-103380419D01*
X136318171Y-103341714D01*
X136356876Y-103264304D01*
X136395580Y-103225600D01*
X136472990Y-103186895D01*
X136627809Y-103186895D01*
X136705219Y-103225600D01*
X136743923Y-103264304D01*
X136782628Y-103341714D01*
X136782628Y-103380419D01*
X136743923Y-103457828D01*
X136705219Y-103496533D01*
X136627809Y-103535238D01*
X136472990Y-103535238D01*
X136395580Y-103573942D01*
X136356876Y-103612647D01*
X136318171Y-103690057D01*
X136318171Y-103844876D01*
X136356876Y-103922285D01*
X136395580Y-103960990D01*
X136472990Y-103999695D01*
X136627809Y-103999695D01*
X136705219Y-103960990D01*
X136743923Y-103922285D01*
X136782628Y-103844876D01*
X136782628Y-103690057D01*
X136743923Y-103612647D01*
X136705219Y-103573942D01*
X136627809Y-103535238D01*
X135880323Y-104524628D02*
X135880323Y-105066495D01*
X135686800Y-104214990D02*
X135493276Y-104795561D01*
X135996438Y-104795561D01*
X136228666Y-104253695D02*
X136770533Y-104253695D01*
X136422190Y-105066495D01*
X137234990Y-104253695D02*
X137312400Y-104253695D01*
X137389809Y-104292400D01*
X137428514Y-104331104D01*
X137467219Y-104408514D01*
X137505923Y-104563333D01*
X137505923Y-104756857D01*
X137467219Y-104911676D01*
X137428514Y-104989085D01*
X137389809Y-105027790D01*
X137312400Y-105066495D01*
X137234990Y-105066495D01*
X137157580Y-105027790D01*
X137118876Y-104989085D01*
X137080171Y-104911676D01*
X137041466Y-104756857D01*
X137041466Y-104563333D01*
X137080171Y-104408514D01*
X137118876Y-104331104D01*
X137157580Y-104292400D01*
X137234990Y-104253695D01*
X147875776Y-64959895D02*
X147875776Y-64147095D01*
X148069300Y-64147095D01*
X148185414Y-64185800D01*
X148262823Y-64263209D01*
X148301528Y-64340619D01*
X148340233Y-64495438D01*
X148340233Y-64611552D01*
X148301528Y-64766371D01*
X148262823Y-64843780D01*
X148185414Y-64921190D01*
X148069300Y-64959895D01*
X147875776Y-64959895D01*
X148611166Y-64147095D02*
X149114328Y-64147095D01*
X148843395Y-64456733D01*
X148959509Y-64456733D01*
X149036919Y-64495438D01*
X149075623Y-64534142D01*
X149114328Y-64611552D01*
X149114328Y-64805076D01*
X149075623Y-64882485D01*
X149036919Y-64921190D01*
X148959509Y-64959895D01*
X148727280Y-64959895D01*
X148649871Y-64921190D01*
X148611166Y-64882485D01*
X135442476Y-112737295D02*
X135442476Y-111924495D01*
X135636000Y-111924495D01*
X135752114Y-111963200D01*
X135829523Y-112040609D01*
X135868228Y-112118019D01*
X135906933Y-112272838D01*
X135906933Y-112388952D01*
X135868228Y-112543771D01*
X135829523Y-112621180D01*
X135752114Y-112698590D01*
X135636000Y-112737295D01*
X135442476Y-112737295D01*
X136603619Y-112195428D02*
X136603619Y-112737295D01*
X136410095Y-111885790D02*
X136216571Y-112466361D01*
X136719733Y-112466361D01*
D20*
X170761066Y-56856380D02*
X170761066Y-57570666D01*
X170713447Y-57713523D01*
X170618209Y-57808761D01*
X170475352Y-57856380D01*
X170380114Y-57856380D01*
X171665828Y-57189714D02*
X171665828Y-57856380D01*
X171427733Y-56808761D02*
X171189638Y-57523047D01*
X171808685Y-57523047D01*
D19*
X143190685Y-98617314D02*
X143229390Y-98656019D01*
X143268095Y-98772133D01*
X143268095Y-98849542D01*
X143229390Y-98965657D01*
X143151980Y-99043066D01*
X143074571Y-99081771D01*
X142919752Y-99120476D01*
X142803638Y-99120476D01*
X142648819Y-99081771D01*
X142571409Y-99043066D01*
X142494000Y-98965657D01*
X142455295Y-98849542D01*
X142455295Y-98772133D01*
X142494000Y-98656019D01*
X142532704Y-98617314D01*
X142455295Y-98346380D02*
X142455295Y-97843219D01*
X142764933Y-98114152D01*
X142764933Y-97998038D01*
X142803638Y-97920628D01*
X142842342Y-97881923D01*
X142919752Y-97843219D01*
X143113276Y-97843219D01*
X143190685Y-97881923D01*
X143229390Y-97920628D01*
X143268095Y-97998038D01*
X143268095Y-98230266D01*
X143229390Y-98307676D01*
X143190685Y-98346380D01*
X142532704Y-97533580D02*
X142494000Y-97494876D01*
X142455295Y-97417466D01*
X142455295Y-97223942D01*
X142494000Y-97146533D01*
X142532704Y-97107828D01*
X142610114Y-97069123D01*
X142687523Y-97069123D01*
X142803638Y-97107828D01*
X143268095Y-97572285D01*
X143268095Y-97069123D01*
X130046185Y-103350785D02*
X130007480Y-103389490D01*
X129891366Y-103428195D01*
X129813957Y-103428195D01*
X129697842Y-103389490D01*
X129620433Y-103312080D01*
X129581728Y-103234671D01*
X129543023Y-103079852D01*
X129543023Y-102963738D01*
X129581728Y-102808919D01*
X129620433Y-102731509D01*
X129697842Y-102654100D01*
X129813957Y-102615395D01*
X129891366Y-102615395D01*
X130007480Y-102654100D01*
X130046185Y-102692804D01*
X130355823Y-102692804D02*
X130394528Y-102654100D01*
X130471938Y-102615395D01*
X130665461Y-102615395D01*
X130742871Y-102654100D01*
X130781576Y-102692804D01*
X130820280Y-102770214D01*
X130820280Y-102847623D01*
X130781576Y-102963738D01*
X130317119Y-103428195D01*
X130820280Y-103428195D01*
X131129919Y-102692804D02*
X131168623Y-102654100D01*
X131246033Y-102615395D01*
X131439557Y-102615395D01*
X131516966Y-102654100D01*
X131555671Y-102692804D01*
X131594376Y-102770214D01*
X131594376Y-102847623D01*
X131555671Y-102963738D01*
X131091214Y-103428195D01*
X131594376Y-103428195D01*
X132890985Y-103350785D02*
X132852280Y-103389490D01*
X132736166Y-103428195D01*
X132658757Y-103428195D01*
X132542642Y-103389490D01*
X132465233Y-103312080D01*
X132426528Y-103234671D01*
X132387823Y-103079852D01*
X132387823Y-102963738D01*
X132426528Y-102808919D01*
X132465233Y-102731509D01*
X132542642Y-102654100D01*
X132658757Y-102615395D01*
X132736166Y-102615395D01*
X132852280Y-102654100D01*
X132890985Y-102692804D01*
X133200623Y-102692804D02*
X133239328Y-102654100D01*
X133316738Y-102615395D01*
X133510261Y-102615395D01*
X133587671Y-102654100D01*
X133626376Y-102692804D01*
X133665080Y-102770214D01*
X133665080Y-102847623D01*
X133626376Y-102963738D01*
X133161919Y-103428195D01*
X133665080Y-103428195D01*
X134052128Y-103428195D02*
X134206947Y-103428195D01*
X134284357Y-103389490D01*
X134323061Y-103350785D01*
X134400471Y-103234671D01*
X134439176Y-103079852D01*
X134439176Y-102770214D01*
X134400471Y-102692804D01*
X134361766Y-102654100D01*
X134284357Y-102615395D01*
X134129538Y-102615395D01*
X134052128Y-102654100D01*
X134013423Y-102692804D01*
X133974719Y-102770214D01*
X133974719Y-102963738D01*
X134013423Y-103041147D01*
X134052128Y-103079852D01*
X134129538Y-103118557D01*
X134284357Y-103118557D01*
X134361766Y-103079852D01*
X134400471Y-103041147D01*
X134439176Y-102963738D01*
X157770285Y-63891885D02*
X157731580Y-63930590D01*
X157615466Y-63969295D01*
X157538057Y-63969295D01*
X157421942Y-63930590D01*
X157344533Y-63853180D01*
X157305828Y-63775771D01*
X157267123Y-63620952D01*
X157267123Y-63504838D01*
X157305828Y-63350019D01*
X157344533Y-63272609D01*
X157421942Y-63195200D01*
X157538057Y-63156495D01*
X157615466Y-63156495D01*
X157731580Y-63195200D01*
X157770285Y-63233904D01*
X158544380Y-63969295D02*
X158079923Y-63969295D01*
X158312152Y-63969295D02*
X158312152Y-63156495D01*
X158234742Y-63272609D01*
X158157333Y-63350019D01*
X158079923Y-63388723D01*
X159047542Y-63156495D02*
X159124952Y-63156495D01*
X159202361Y-63195200D01*
X159241066Y-63233904D01*
X159279771Y-63311314D01*
X159318476Y-63466133D01*
X159318476Y-63659657D01*
X159279771Y-63814476D01*
X159241066Y-63891885D01*
X159202361Y-63930590D01*
X159124952Y-63969295D01*
X159047542Y-63969295D01*
X158970133Y-63930590D01*
X158931428Y-63891885D01*
X158892723Y-63814476D01*
X158854019Y-63659657D01*
X158854019Y-63466133D01*
X158892723Y-63311314D01*
X158931428Y-63233904D01*
X158970133Y-63195200D01*
X159047542Y-63156495D01*
X146492685Y-88733085D02*
X146453980Y-88771790D01*
X146337866Y-88810495D01*
X146260457Y-88810495D01*
X146144342Y-88771790D01*
X146066933Y-88694380D01*
X146028228Y-88616971D01*
X145989523Y-88462152D01*
X145989523Y-88346038D01*
X146028228Y-88191219D01*
X146066933Y-88113809D01*
X146144342Y-88036400D01*
X146260457Y-87997695D01*
X146337866Y-87997695D01*
X146453980Y-88036400D01*
X146492685Y-88075104D01*
X147266780Y-88810495D02*
X146802323Y-88810495D01*
X147034552Y-88810495D02*
X147034552Y-87997695D01*
X146957142Y-88113809D01*
X146879733Y-88191219D01*
X146802323Y-88229923D01*
X147576419Y-88075104D02*
X147615123Y-88036400D01*
X147692533Y-87997695D01*
X147886057Y-87997695D01*
X147963466Y-88036400D01*
X148002171Y-88075104D01*
X148040876Y-88152514D01*
X148040876Y-88229923D01*
X148002171Y-88346038D01*
X147537714Y-88810495D01*
X148040876Y-88810495D01*
X169935676Y-114312095D02*
X169935676Y-113499295D01*
X170129200Y-113499295D01*
X170245314Y-113538000D01*
X170322723Y-113615409D01*
X170361428Y-113692819D01*
X170400133Y-113847638D01*
X170400133Y-113963752D01*
X170361428Y-114118571D01*
X170322723Y-114195980D01*
X170245314Y-114273390D01*
X170129200Y-114312095D01*
X169935676Y-114312095D01*
X170709771Y-113576704D02*
X170748476Y-113538000D01*
X170825885Y-113499295D01*
X171019409Y-113499295D01*
X171096819Y-113538000D01*
X171135523Y-113576704D01*
X171174228Y-113654114D01*
X171174228Y-113731523D01*
X171135523Y-113847638D01*
X170671066Y-114312095D01*
X171174228Y-114312095D01*
X168943866Y-80917142D02*
X168672933Y-80917142D01*
X168672933Y-81342895D02*
X168672933Y-80530095D01*
X169059980Y-80530095D01*
X169795371Y-81342895D02*
X169330914Y-81342895D01*
X169563142Y-81342895D02*
X169563142Y-80530095D01*
X169485733Y-80646209D01*
X169408323Y-80723619D01*
X169330914Y-80762323D01*
D13*
X112911466Y-107254523D02*
X112911466Y-108161666D01*
X112850990Y-108343095D01*
X112730038Y-108464047D01*
X112548609Y-108524523D01*
X112427657Y-108524523D01*
X113395276Y-107254523D02*
X114181466Y-107254523D01*
X113758133Y-107738333D01*
X113939561Y-107738333D01*
X114060514Y-107798809D01*
X114120990Y-107859285D01*
X114181466Y-107980238D01*
X114181466Y-108282619D01*
X114120990Y-108403571D01*
X114060514Y-108464047D01*
X113939561Y-108524523D01*
X113576704Y-108524523D01*
X113455752Y-108464047D01*
X113395276Y-108403571D01*
D19*
X159884533Y-112483295D02*
X159497485Y-112483295D01*
X159497485Y-111670495D01*
X160581219Y-112483295D02*
X160116761Y-112483295D01*
X160348990Y-112483295D02*
X160348990Y-111670495D01*
X160271580Y-111786609D01*
X160194171Y-111864019D01*
X160116761Y-111902723D01*
X146853123Y-100291295D02*
X146853123Y-100949276D01*
X146891828Y-101026685D01*
X146930533Y-101065390D01*
X147007942Y-101104095D01*
X147162761Y-101104095D01*
X147240171Y-101065390D01*
X147278876Y-101026685D01*
X147317580Y-100949276D01*
X147317580Y-100291295D01*
X148130380Y-101104095D02*
X147665923Y-101104095D01*
X147898152Y-101104095D02*
X147898152Y-100291295D01*
X147820742Y-100407409D01*
X147743333Y-100484819D01*
X147665923Y-100523523D01*
X91074723Y-63816895D02*
X91074723Y-64474876D01*
X91113428Y-64552285D01*
X91152133Y-64590990D01*
X91229542Y-64629695D01*
X91384361Y-64629695D01*
X91461771Y-64590990D01*
X91500476Y-64552285D01*
X91539180Y-64474876D01*
X91539180Y-63816895D01*
X92274571Y-63816895D02*
X92119752Y-63816895D01*
X92042342Y-63855600D01*
X92003638Y-63894304D01*
X91926228Y-64010419D01*
X91887523Y-64165238D01*
X91887523Y-64474876D01*
X91926228Y-64552285D01*
X91964933Y-64590990D01*
X92042342Y-64629695D01*
X92197161Y-64629695D01*
X92274571Y-64590990D01*
X92313276Y-64552285D01*
X92351980Y-64474876D01*
X92351980Y-64281352D01*
X92313276Y-64203942D01*
X92274571Y-64165238D01*
X92197161Y-64126533D01*
X92042342Y-64126533D01*
X91964933Y-64165238D01*
X91926228Y-64203942D01*
X91887523Y-64281352D01*
X145087219Y-73468895D02*
X145358152Y-74281695D01*
X145629085Y-73468895D01*
X146364476Y-74281695D02*
X146093542Y-73894647D01*
X145900019Y-74281695D02*
X145900019Y-73468895D01*
X146209657Y-73468895D01*
X146287066Y-73507600D01*
X146325771Y-73546304D01*
X146364476Y-73623714D01*
X146364476Y-73739828D01*
X146325771Y-73817238D01*
X146287066Y-73855942D01*
X146209657Y-73894647D01*
X145900019Y-73894647D01*
X146674114Y-73546304D02*
X146712819Y-73507600D01*
X146790228Y-73468895D01*
X146983752Y-73468895D01*
X147061161Y-73507600D01*
X147099866Y-73546304D01*
X147138571Y-73623714D01*
X147138571Y-73701123D01*
X147099866Y-73817238D01*
X146635409Y-74281695D01*
X147138571Y-74281695D01*
X141079099Y-107642055D02*
X141620965Y-108454855D01*
X141620965Y-107642055D02*
X141079099Y-108454855D01*
X142356356Y-108454855D02*
X141891899Y-108454855D01*
X142124127Y-108454855D02*
X142124127Y-107642055D01*
X142046718Y-107758169D01*
X141969308Y-107835579D01*
X141891899Y-107874283D01*
X131168019Y-110298895D02*
X131709885Y-111111695D01*
X131709885Y-110298895D02*
X131168019Y-111111695D01*
X131980819Y-110376304D02*
X132019523Y-110337600D01*
X132096933Y-110298895D01*
X132290457Y-110298895D01*
X132367866Y-110337600D01*
X132406571Y-110376304D01*
X132445276Y-110453714D01*
X132445276Y-110531123D01*
X132406571Y-110647238D01*
X131942114Y-111111695D01*
X132445276Y-111111695D01*
D13*
X157666266Y-85054923D02*
X157666266Y-85962066D01*
X157605790Y-86143495D01*
X157484838Y-86264447D01*
X157303409Y-86324923D01*
X157182457Y-86324923D01*
X158936266Y-86324923D02*
X158210552Y-86324923D01*
X158573409Y-86324923D02*
X158573409Y-85054923D01*
X158452457Y-85236352D01*
X158331504Y-85357304D01*
X158210552Y-85417780D01*
D20*
X139982676Y-63140980D02*
X140649342Y-64140980D01*
X140649342Y-63140980D02*
X139982676Y-64140980D01*
X140935057Y-63140980D02*
X141554104Y-63140980D01*
X141220771Y-63521933D01*
X141363628Y-63521933D01*
X141458866Y-63569552D01*
X141506485Y-63617171D01*
X141554104Y-63712409D01*
X141554104Y-63950504D01*
X141506485Y-64045742D01*
X141458866Y-64093361D01*
X141363628Y-64140980D01*
X141077914Y-64140980D01*
X140982676Y-64093361D01*
X140935057Y-64045742D01*
M02*
