M48
;DRILL file {KiCad (2016-07-28 BZR 6996, Git e15ad93)-product} date Mon Oct 17 19:01:46 2016
;FORMAT={-:-/ absolute / inch / decimal}
FMAT,2
INCH,TZ
T1C0.016
T2C0.030
T3C0.069
T4C0.079
%
G90
G05
M72
T1
X3.494Y-2.908
X3.5Y-2.318
X3.504Y-3.456
X3.508Y-3.98
X3.518Y-4.542
X3.556Y-2.992
X3.564Y-3.13
X3.572Y-2.72
X3.68Y-3.13
X3.68Y-3.288
X3.682Y-3.476
X3.684Y-3.54
X3.698Y-2.958
X3.7Y-2.696
X3.71Y-3.352
X3.718Y-2.8819
X3.732Y-2.618
X3.7467Y-2.9606
X3.7487Y-2.9213
X3.7547Y-2.821
X3.7554Y-2.8603
X3.766Y-3.342
X3.7703Y-3.1267
X3.772Y-3.688
X3.7912Y-2.884
X3.7912Y-2.9706
X3.7928Y-2.8089
X3.7942Y-3.1831
X3.798Y-2.316
X3.804Y-3.028
X3.8093Y-3.1213
X3.816Y-3.34
X3.818Y-2.766
X3.846Y-3.066
X3.846Y-3.528
X3.8487Y-3.3077
X3.8621Y-2.9704
X3.874Y-2.632
X3.882Y-2.868
X3.884Y-2.292
X3.888Y-3.376
X3.8994Y-2.9546
X3.9052Y-2.9981
X3.9256Y-3.1791
X3.928Y-2.618
X3.932Y-2.486
X3.9334Y-3.0483
X3.9428Y-3.01
X3.9501Y-3.1215
X3.959Y-3.435
X3.9744Y-3.0433
X3.9892Y-3.1171
X3.994Y-2.7556
X3.9958Y-3.421
X3.998Y-2.35
X4.Y-3.708
X4.008Y-2.612
X4.0117Y-2.9664
X4.012Y-2.468
X4.014Y-3.4757
X4.016Y-2.864
X4.018Y-2.682
X4.0331Y-2.9994
X4.0342Y-3.1771
X4.0442Y-3.2152
X4.052Y-2.438
X4.054Y-3.908
X4.0612Y-3.5102
X4.076Y-3.82
X4.078Y-2.632
X4.088Y-2.422
X4.0926Y-3.7826
X4.1035Y-3.7447
X4.1135Y-3.2564
X4.1241Y-2.6165
X4.128Y-2.418
X4.13Y-3.576
X4.1364Y-3.1824
X4.1384Y-3.3268
X4.1409Y-3.1253
X4.142Y-3.3819
X4.148Y-3.2375
X4.15Y-2.8126
X4.15Y-4.482
X4.1639Y-2.6578
X4.176Y-2.94
X4.1792Y-2.6144
X4.1803Y-2.8376
X4.1871Y-3.4024
X4.1987Y-3.6477
X4.199Y-3.7228
X4.2024Y-3.1872
X4.2049Y-2.8069
X4.2057Y-3.852
X4.2112Y-2.6885
X4.2174Y-3.9416
X4.2247Y-2.6515
X4.2292Y-3.8191
X4.2335Y-3.1387
X4.2454Y-3.855
X4.248Y-3.628
X4.2542Y-3.7467
X4.2578Y-3.5147
X4.2633Y-2.8358
X4.27Y-3.2762
X4.2708Y-2.6607
X4.2731Y-3.5916
X4.2733Y-2.6205
X4.2789Y-2.8741
X4.3038Y-2.8216
X4.3263Y-2.6703
X4.3302Y-2.6308
X4.332Y-3.98
X4.3389Y-2.8396
X4.3697Y-2.6339
X4.394Y-3.242
X4.402Y-3.73
X4.404Y-4.034
X4.4107Y-2.6482
X4.413Y-3.4382
X4.414Y-2.404
X4.414Y-3.5248
X4.4218Y-3.3516
X4.4232Y-2.6109
X4.4254Y-2.8886
X4.432Y-4.084
X4.438Y-4.472
X4.444Y-3.612
X4.45Y-3.1273
X4.452Y-2.506
X4.4613Y-3.3333
X4.464Y-2.9287
X4.4662Y-3.2454
X4.4746Y-2.8736
X4.4779Y-2.6649
X4.4794Y-2.6098
X4.48Y-3.82
X4.486Y-4.172
X4.4951Y-3.3782
X4.496Y-4.32
X4.496Y-3.913
X4.5163Y-3.4392
X4.5181Y-2.8719
X4.5213Y-3.1259
X4.5261Y-3.2441
X4.5268Y-3.8407
X4.533Y-2.6924
X4.5438Y-3.3477
X4.5535Y-3.4264
X4.554Y-4.112
X4.5544Y-2.6032
X4.5548Y-2.6583
X4.5584Y-2.4941
X4.5647Y-2.8804
X4.5663Y-2.7134
X4.5743Y-2.9291
X4.5813Y-3.3349
X4.584Y-3.52
X4.608Y-3.894
X4.608Y-4.05
X4.6135Y-2.8886
X4.614Y-2.354
X4.623Y-3.3452
X4.6235Y-3.1496
X4.6452Y-2.938
X4.6469Y-4.0322
X4.6511Y-2.7499
X4.6657Y-4.2725
X4.674Y-3.604
X4.6778Y-2.7211
X4.678Y-2.554
X4.678Y-3.362
X4.682Y-3.0972
X4.6865Y-2.8732
X4.6916Y-4.1276
X4.7021Y-3.4231
X4.706Y-3.906
X4.716Y-2.594
X4.7176Y-2.7456
X4.718Y-3.1878
X4.7202Y-3.3374
X4.7253Y-2.8798
X4.736Y-2.944
X4.7463Y-2.7186
X4.758Y-3.88
X4.7634Y-2.8702
X4.77Y-3.6
X4.7831Y-3.4011
X4.7836Y-2.731
X4.7863Y-2.5186
X4.788Y-4.136
X4.798Y-3.818
X4.8027Y-2.8736
X4.8153Y-2.9109
X4.8169Y-3.89
X4.82Y-2.716
X4.828Y-3.5385
X4.8333Y-2.983
X4.8339Y-3.4518
X4.844Y-4.034
X4.866Y-2.7
X4.866Y-2.74
X4.866Y-4.358
X4.87Y-3.79
X4.872Y-2.958
X4.9059Y-3.0793
X4.906Y-4.136
X4.9367Y-3.1553
X4.94Y-2.466
X4.946Y-3.85
X4.954Y-3.314
X4.962Y-3.786
X4.968Y-2.668
X4.9797Y-2.5502
X4.986Y-4.1361
X4.9963Y-3.0748
X5.0124Y-2.5283
X5.022Y-2.606
X5.022Y-3.882
X5.022Y-4.052
X5.0298Y-2.4572
X5.0335Y-3.2284
X5.038Y-3.2675
X5.042Y-3.068
X5.044Y-2.956
X5.044Y-3.478
X5.066Y-2.3836
X5.0695Y-2.522
X5.084Y-2.582
X5.0986Y-4.0954
X5.1046Y-3.0484
X5.1079Y-4.0572
X5.114Y-3.6131
X5.126Y-2.622
X5.134Y-2.684
X5.1513Y-3.3715
X5.152Y-2.952
X5.152Y-3.064
X5.156Y-3.206
X5.16Y-2.3432
X5.1736Y-3.6722
X5.188Y-2.62
X5.194Y-2.888
X5.2074Y-4.0765
X5.222Y-3.068
X5.228Y-3.852
X5.234Y-4.38
X5.238Y-2.73
X5.238Y-2.938
X5.2727Y-3.0356
X5.31Y-3.734
X5.312Y-2.946
X5.3328Y-3.4453
X5.3352Y-3.5004
X5.336Y-2.674
X5.336Y-3.37
X5.342Y-3.542
X5.36Y-4.416
X5.368Y-2.8771
X5.374Y-4.484
X5.3912Y-3.2984
X5.392Y-3.764
X5.394Y-3.006
X5.4Y-3.062
X5.402Y-3.216
X5.4046Y-3.3736
X5.4145Y-3.4287
X5.418Y-3.588
X5.42Y-3.2716
X5.422Y-3.692
X5.424Y-3.102
X5.56Y-3.416
X5.564Y-3.008
X5.57Y-4.36
X5.6125Y-3.294
X5.6125Y-3.4758
X5.6125Y-3.69
X5.614Y-3.124
X5.6187Y-3.936
X5.638Y-3.156
X5.656Y-3.032
X5.69Y-2.374
X5.698Y-3.086
X5.716Y-2.792
X5.768Y-3.224
X5.776Y-4.462
X5.796Y-2.954
X5.842Y-2.656
X5.852Y-3.896
X5.86Y-3.59
X5.908Y-2.612
X5.928Y-3.356
X5.97Y-2.362
X5.974Y-2.77
X5.996Y-4.052
X6.066Y-3.28
X6.076Y-2.8
X6.094Y-4.272
X6.238Y-2.468
X6.29Y-3.802
X6.316Y-4.454
X6.45Y-3.088
X6.482Y-2.902
X6.492Y-3.348
X6.542Y-4.17
X6.584Y-2.48
X6.62Y-2.516
X6.6273Y-2.56
X6.654Y-2.44
X6.698Y-3.638
X6.732Y-3.99
X6.748Y-2.378
X6.75Y-3.49
X6.752Y-3.186
X6.756Y-2.99
X6.7784Y-4.3512
X6.78Y-3.136
T2
X5.538Y-2.404
X5.538Y-2.6009
T3
X6.066Y-3.4066
X6.066Y-3.564
X6.066Y-3.7214
X6.2234Y-3.4853
X6.2234Y-3.6427
X6.3808Y-3.4066
X6.3808Y-3.564
X6.3808Y-3.7214
T4
X5.936Y-2.9656
X5.936Y-4.1624
X6.6485Y-3.0247
X6.6485Y-4.1033
T0
M30
