G04 #@! TF.GenerationSoftware,KiCad,Pcbnew,(2017-01-11 revision e99b79cb2)-master*
G04 #@! TF.CreationDate,2017-12-19T18:36:39+02:00*
G04 #@! TF.ProjectId,display,646973706C61792E6B696361645F7063,1*
G04 #@! TF.FileFunction,Copper,L2,Bot,Signal*
G04 #@! TF.FilePolarity,Positive*
%FSLAX46Y46*%
G04 Gerber Fmt 4.6, Leading zero omitted, Abs format (unit mm)*
G04 Created by KiCad (PCBNEW (2017-01-11 revision e99b79cb2)-master) date Tue Dec 19 18:36:39 2017*
%MOMM*%
%LPD*%
G01*
G04 APERTURE LIST*
%ADD10C,0.100000*%
%ADD11R,2.623820X2.623820*%
%ADD12C,2.623820*%
%ADD13C,2.999740*%
%ADD14R,2.800000X2.100000*%
%ADD15R,1.900000X0.600000*%
%ADD16C,1.524000*%
%ADD17C,0.800000*%
%ADD18C,0.200000*%
%ADD19C,0.400000*%
G04 APERTURE END LIST*
D10*
D11*
X133999580Y-93999740D03*
D12*
X133999580Y-90001780D03*
X133999580Y-86003820D03*
X137997540Y-92000760D03*
X137997540Y-88002800D03*
X141995500Y-93999740D03*
X141995500Y-90001780D03*
X141995500Y-86003820D03*
D13*
X127200000Y-103700000D03*
X127200000Y-76303560D03*
X145297500Y-74802420D03*
X145297500Y-105201140D03*
D14*
X105450000Y-108450000D03*
X105450000Y-99150000D03*
D15*
X107950000Y-105300000D03*
X107950000Y-104300000D03*
X107950000Y-103300000D03*
X107950000Y-102300000D03*
D16*
X152300000Y-79200000D03*
X157300000Y-79200000D03*
D17*
X139100000Y-77100000D03*
X180917666Y-72500010D03*
X160450952Y-72800010D03*
X147100000Y-85600000D03*
X140200000Y-83500000D03*
X152000000Y-72300000D03*
X146600000Y-80400000D03*
X144200000Y-81900000D03*
X144600000Y-92900000D03*
X151100000Y-95700000D03*
X176800000Y-83300000D03*
X166600000Y-82000000D03*
X165600000Y-74500000D03*
X173700000Y-74300000D03*
X178500000Y-74400000D03*
X199900000Y-79500000D03*
X194400000Y-83200000D03*
X188400000Y-80100000D03*
X184900000Y-82300000D03*
X188400000Y-89900000D03*
X201200000Y-87800000D03*
X201400000Y-100800000D03*
X196500000Y-97400000D03*
X194700000Y-106700000D03*
X177300000Y-99799998D03*
X197599959Y-106608499D03*
X195500000Y-71700000D03*
X188700000Y-72300000D03*
X185100000Y-76100000D03*
X184400000Y-71900000D03*
X177800000Y-86000000D03*
X182400000Y-87900000D03*
X186300000Y-87600000D03*
X185202669Y-90687295D03*
X175300000Y-78300000D03*
X197200000Y-103300000D03*
X187700000Y-101300000D03*
X180743528Y-104033492D03*
X184400000Y-106600000D03*
X180900000Y-106500000D03*
X168100000Y-106899990D03*
X162400000Y-106900000D03*
X111600000Y-90700000D03*
X117400000Y-98100000D03*
X194000000Y-76800000D03*
X174900000Y-93700000D03*
X154500000Y-95000000D03*
X168300000Y-89400000D03*
X171300000Y-89400000D03*
X127400000Y-81600000D03*
X159700000Y-84600000D03*
X158100000Y-92900000D03*
X138600000Y-94800000D03*
X126800000Y-98800000D03*
X129200000Y-96600000D03*
X124700000Y-95600000D03*
X134100000Y-78100000D03*
X131300000Y-72400000D03*
X116800000Y-74200000D03*
X103900000Y-71900000D03*
X103400000Y-80700000D03*
X103400000Y-106000000D03*
X103500000Y-96400000D03*
X111000000Y-102200000D03*
X117300000Y-106500000D03*
X122000000Y-100200000D03*
X134500000Y-103800000D03*
X136500000Y-100900000D03*
X141000000Y-99400000D03*
X143000000Y-102000000D03*
X155600000Y-103700000D03*
X160100000Y-99500000D03*
X171300000Y-94900000D03*
X176200000Y-101500013D03*
X176200000Y-102500026D03*
X176200000Y-103500039D03*
X176200000Y-100500000D03*
X185800000Y-79700000D03*
X139600000Y-73500000D03*
X185000000Y-78699990D03*
X135500000Y-73700000D03*
X175700000Y-105299979D03*
X162600000Y-107900000D03*
X178400000Y-73300000D03*
X158300000Y-72100000D03*
D18*
X181317665Y-72100011D02*
X180917666Y-72500010D01*
X184400000Y-71900000D02*
X181517676Y-71900000D01*
X181517676Y-71900000D02*
X181317665Y-72100011D01*
X152500010Y-72800010D02*
X159885267Y-72800010D01*
X152000000Y-72300000D02*
X152500010Y-72800010D01*
X161016637Y-72800010D02*
X160450952Y-72800010D01*
X163900010Y-72800010D02*
X161016637Y-72800010D01*
X165600000Y-74500000D02*
X163900010Y-72800010D01*
X159885267Y-72800010D02*
X160450952Y-72800010D01*
X146600000Y-80400000D02*
X146600000Y-77700000D01*
X146600000Y-77700000D02*
X152000000Y-72300000D01*
X144200000Y-81900000D02*
X145700000Y-80400000D01*
X145700000Y-80400000D02*
X146600000Y-80400000D01*
X145400000Y-92100000D02*
X145400000Y-83100000D01*
X145400000Y-83100000D02*
X144200000Y-81900000D01*
X144600000Y-92900000D02*
X145400000Y-92100000D01*
X151100000Y-95700000D02*
X147400000Y-95700000D01*
X147400000Y-95700000D02*
X144600000Y-92900000D01*
X153800000Y-95700000D02*
X151100000Y-95700000D01*
X177800000Y-86000000D02*
X177800000Y-90800000D01*
X176800000Y-83300000D02*
X177800000Y-84300000D01*
X177800000Y-84300000D02*
X177800000Y-86000000D01*
X166600000Y-82000000D02*
X175500000Y-82000000D01*
X175500000Y-82000000D02*
X176800000Y-83300000D01*
X165600000Y-74500000D02*
X166600000Y-75500000D01*
X166600000Y-75500000D02*
X166600000Y-82000000D01*
X175300000Y-78300000D02*
X169400000Y-78300000D01*
X169400000Y-78300000D02*
X165600000Y-74500000D01*
X173700000Y-74300000D02*
X175300000Y-75900000D01*
X175300000Y-75900000D02*
X175300000Y-78300000D01*
X178500000Y-74400000D02*
X173800000Y-74400000D01*
X173800000Y-74400000D02*
X173700000Y-74300000D01*
X195500000Y-71700000D02*
X189300000Y-71700000D01*
X189300000Y-71700000D02*
X188700000Y-72300000D01*
X199900000Y-72800000D02*
X198800000Y-71700000D01*
X198800000Y-71700000D02*
X195500000Y-71700000D01*
X199900000Y-79500000D02*
X199900000Y-72800000D01*
X194400000Y-83200000D02*
X198100000Y-79500000D01*
X198100000Y-79500000D02*
X199900000Y-79500000D01*
X188400000Y-80100000D02*
X191300000Y-80100000D01*
X191300000Y-80100000D02*
X194400000Y-83200000D01*
X184900000Y-82300000D02*
X187100000Y-80100000D01*
X187100000Y-80100000D02*
X188400000Y-80100000D01*
X182400000Y-87900000D02*
X182400000Y-84800000D01*
X182400000Y-84800000D02*
X184900000Y-82300000D01*
X186300000Y-87600000D02*
X182700000Y-87600000D01*
X182700000Y-87600000D02*
X182400000Y-87900000D01*
X188400000Y-89900000D02*
X186300000Y-87800000D01*
X186300000Y-87800000D02*
X186300000Y-87600000D01*
X201200000Y-87800000D02*
X199100000Y-89900000D01*
X199100000Y-89900000D02*
X188400000Y-89900000D01*
X201400000Y-100800000D02*
X201400000Y-88000000D01*
X201400000Y-88000000D02*
X201200000Y-87800000D01*
X196500000Y-97400000D02*
X199900000Y-100800000D01*
X199900000Y-100800000D02*
X201400000Y-100800000D01*
X187700000Y-101300000D02*
X192600000Y-101300000D01*
X192600000Y-101300000D02*
X196500000Y-97400000D01*
X194700000Y-106700000D02*
X189300000Y-101300000D01*
X189300000Y-101300000D02*
X187700000Y-101300000D01*
X197599959Y-106608499D02*
X194791501Y-106608499D01*
X194791501Y-106608499D02*
X194700000Y-106700000D01*
X154500000Y-95000000D02*
X153800000Y-95700000D01*
X174900000Y-93700000D02*
X171300000Y-90100000D01*
X177800000Y-90800000D02*
X174900000Y-93700000D01*
X154500000Y-95000000D02*
X156000000Y-95000000D01*
X168300000Y-89400000D02*
X168300000Y-91900000D01*
X171300000Y-89400000D02*
X168300000Y-89400000D01*
X171300000Y-90100000D02*
X171300000Y-89400000D01*
X119500000Y-100200000D02*
X117400000Y-98100000D01*
X122000000Y-100200000D02*
X119500000Y-100200000D01*
X127965685Y-81600000D02*
X127400000Y-81600000D01*
X127000001Y-81999999D02*
X127400000Y-81600000D01*
X134100000Y-78100000D02*
X130600000Y-81600000D01*
X130600000Y-81600000D02*
X127965685Y-81600000D01*
X124700000Y-84300000D02*
X127000001Y-81999999D01*
X124700000Y-95600000D02*
X124700000Y-84300000D01*
X159700000Y-85165685D02*
X159700000Y-84600000D01*
X159700000Y-86165685D02*
X159700000Y-85165685D01*
X158700000Y-87165685D02*
X159700000Y-86165685D01*
X158700000Y-98100000D02*
X158700000Y-87165685D01*
X160100000Y-99500000D02*
X158700000Y-98100000D01*
X158700000Y-92300000D02*
X158700000Y-87165685D01*
X158100000Y-92900000D02*
X158700000Y-92300000D01*
X158499999Y-93299999D02*
X158100000Y-92900000D01*
X160100000Y-94900000D02*
X158499999Y-93299999D01*
X171300000Y-94900000D02*
X160100000Y-94900000D01*
X157700001Y-93299999D02*
X158100000Y-92900000D01*
X156000000Y-95000000D02*
X157700001Y-93299999D01*
X138600000Y-94800000D02*
X141000000Y-97200000D01*
X141000000Y-97200000D02*
X141000000Y-99400000D01*
X136500000Y-100900000D02*
X136500000Y-96900000D01*
X136500000Y-96900000D02*
X138600000Y-94800000D01*
X134500000Y-98800000D02*
X134500000Y-98900000D01*
X134500000Y-98900000D02*
X136500000Y-100900000D01*
X126800000Y-98800000D02*
X134500000Y-98800000D01*
X129200000Y-96600000D02*
X127000000Y-98800000D01*
X127000000Y-98800000D02*
X126800000Y-98800000D01*
X124700000Y-95600000D02*
X128200000Y-95600000D01*
X128200000Y-95600000D02*
X129200000Y-96600000D01*
X131300000Y-72400000D02*
X134100000Y-75200000D01*
X134100000Y-75200000D02*
X134100000Y-78100000D01*
X116800000Y-74200000D02*
X129500000Y-74200000D01*
X129500000Y-74200000D02*
X131300000Y-72400000D01*
X103900000Y-71900000D02*
X106200000Y-74200000D01*
X106200000Y-74200000D02*
X116800000Y-74200000D01*
X103400000Y-80700000D02*
X103400000Y-72400000D01*
X103400000Y-72400000D02*
X103900000Y-71900000D01*
X103400000Y-106000000D02*
X103400000Y-80700000D01*
X103500000Y-96400000D02*
X103500000Y-105900000D01*
X103500000Y-105900000D02*
X103400000Y-106000000D01*
X111000000Y-100000000D02*
X107400000Y-96400000D01*
X107400000Y-96400000D02*
X103500000Y-96400000D01*
X111000000Y-102200000D02*
X111000000Y-100000000D01*
X117300000Y-106500000D02*
X113000000Y-102200000D01*
X113000000Y-102200000D02*
X111000000Y-102200000D01*
X122000000Y-100200000D02*
X122000000Y-101800000D01*
X122000000Y-101800000D02*
X117300000Y-106500000D01*
X129900129Y-101900129D02*
X128200000Y-100200000D01*
X128200000Y-100200000D02*
X122000000Y-100200000D01*
X134500000Y-103800000D02*
X132600129Y-101900129D01*
X132600129Y-101900129D02*
X129900129Y-101900129D01*
X136500000Y-100900000D02*
X136500000Y-101800000D01*
X136500000Y-101800000D02*
X134500000Y-103800000D01*
X141000000Y-99400000D02*
X139500000Y-100900000D01*
X139500000Y-100900000D02*
X136500000Y-100900000D01*
X143000000Y-102000000D02*
X143000000Y-101400000D01*
X143000000Y-101400000D02*
X141000000Y-99400000D01*
X155600000Y-103700000D02*
X153900000Y-102000000D01*
X153900000Y-102000000D02*
X143000000Y-102000000D01*
X160100000Y-99500000D02*
X155900000Y-103700000D01*
X155900000Y-103700000D02*
X155600000Y-103700000D01*
X168300000Y-91900000D02*
X171300000Y-94900000D01*
D19*
X175634315Y-101500013D02*
X176200000Y-101500013D01*
X175502901Y-101500013D02*
X175634315Y-101500013D01*
X114251468Y-108500011D02*
X156648532Y-108500011D01*
X109051458Y-103300000D02*
X109802927Y-104051468D01*
X156648532Y-108500011D02*
X162448531Y-102700011D01*
X107950000Y-103300000D02*
X109051458Y-103300000D01*
X109802927Y-104051468D02*
X114251468Y-108500011D01*
X174302903Y-102700011D02*
X175502901Y-101500013D01*
X162448531Y-102700011D02*
X174302903Y-102700011D01*
X109202916Y-104300000D02*
X114002936Y-109100022D01*
X175351432Y-102500026D02*
X175634315Y-102500026D01*
X174551436Y-103300022D02*
X175351432Y-102500026D01*
X156897064Y-109100022D02*
X162697063Y-103300022D01*
X107950000Y-104300000D02*
X109202916Y-104300000D01*
X162697063Y-103300022D02*
X174551436Y-103300022D01*
X114002936Y-109100022D02*
X156897064Y-109100022D01*
X175634315Y-102500026D02*
X176200000Y-102500026D01*
X176199961Y-103500000D02*
X176200000Y-103500039D01*
X107950000Y-105300000D02*
X109300000Y-105300000D01*
X109300000Y-105300000D02*
X113700033Y-109700033D01*
X113700033Y-109700033D02*
X157145596Y-109700033D01*
X157145596Y-109700033D02*
X162945591Y-103900038D01*
X162945591Y-103900038D02*
X174799962Y-103900038D01*
X174799962Y-103900038D02*
X175200000Y-103500000D01*
X175200000Y-103500000D02*
X176199961Y-103500000D01*
X156400000Y-107900000D02*
X114500000Y-107900000D01*
X108900000Y-102300000D02*
X107950000Y-102300000D01*
X176200000Y-100500000D02*
X175634315Y-100500000D01*
X175634315Y-100500000D02*
X174034315Y-102100000D01*
X174034315Y-102100000D02*
X162200000Y-102100000D01*
X162200000Y-102100000D02*
X156400000Y-107900000D01*
X114500000Y-107900000D02*
X108900000Y-102300000D01*
D18*
X185800000Y-79700000D02*
X184900000Y-79700000D01*
X184900000Y-79700000D02*
X184200000Y-79000000D01*
X184200000Y-78000000D02*
X177500000Y-71300000D01*
X184200000Y-79000000D02*
X184200000Y-78000000D01*
X139600000Y-72600000D02*
X139600000Y-73500000D01*
X177500000Y-71300000D02*
X140900000Y-71300000D01*
X140900000Y-71300000D02*
X139600000Y-72600000D01*
X135500000Y-73700000D02*
X135500000Y-72300000D01*
X135500000Y-72300000D02*
X136900011Y-70899989D01*
X136900011Y-70899989D02*
X177765684Y-70899989D01*
X177765684Y-70899989D02*
X185000000Y-78134305D01*
X185000000Y-78134305D02*
X185000000Y-78699990D01*
X175300001Y-105699978D02*
X175700000Y-105299979D01*
X173099979Y-107900000D02*
X175300001Y-105699978D01*
X162600000Y-107900000D02*
X173099979Y-107900000D01*
X158300000Y-72100000D02*
X158600000Y-71800000D01*
X158600000Y-71800000D02*
X177300000Y-71800000D01*
X177300000Y-71800000D02*
X178400000Y-72900000D01*
X178400000Y-72900000D02*
X178400000Y-73300000D01*
G36*
X135075736Y-71875736D02*
X134945672Y-72070390D01*
X134900000Y-72300000D01*
X134900000Y-73027271D01*
X134737462Y-73189525D01*
X134600157Y-73520194D01*
X134599844Y-73878236D01*
X134736572Y-74209143D01*
X134989525Y-74462538D01*
X135320194Y-74599843D01*
X135678236Y-74600156D01*
X136009143Y-74463428D01*
X136262538Y-74210475D01*
X136399843Y-73879806D01*
X136400156Y-73521764D01*
X136263428Y-73190857D01*
X136100000Y-73027143D01*
X136100000Y-72548528D01*
X137148539Y-71499989D01*
X139851483Y-71499989D01*
X139175736Y-72175736D01*
X139045672Y-72370390D01*
X139000000Y-72600000D01*
X139000000Y-72827271D01*
X138837462Y-72989525D01*
X138700157Y-73320194D01*
X138699844Y-73678236D01*
X138836572Y-74009143D01*
X139089525Y-74262538D01*
X139420194Y-74399843D01*
X139778236Y-74400156D01*
X140109143Y-74263428D01*
X140362538Y-74010475D01*
X140499843Y-73679806D01*
X140500156Y-73321764D01*
X140363428Y-72990857D01*
X140210683Y-72837845D01*
X141148528Y-71900000D01*
X157408542Y-71900000D01*
X157400157Y-71920194D01*
X157399844Y-72278236D01*
X157536572Y-72609143D01*
X157789525Y-72862538D01*
X158120194Y-72999843D01*
X158478236Y-73000156D01*
X158809143Y-72863428D01*
X159062538Y-72610475D01*
X159149934Y-72400000D01*
X177051472Y-72400000D01*
X177579819Y-72928347D01*
X177500157Y-73120194D01*
X177499844Y-73478236D01*
X177636572Y-73809143D01*
X177889525Y-74062538D01*
X178220194Y-74199843D01*
X178578236Y-74200156D01*
X178909143Y-74063428D01*
X179162242Y-73810770D01*
X183600000Y-78248528D01*
X183600000Y-79000000D01*
X183645672Y-79229610D01*
X183775736Y-79424264D01*
X184475736Y-80124264D01*
X184670389Y-80254328D01*
X184900000Y-80300000D01*
X185127271Y-80300000D01*
X185289525Y-80462538D01*
X185620194Y-80599843D01*
X185978236Y-80600156D01*
X186309143Y-80463428D01*
X186562538Y-80210475D01*
X186699843Y-79879806D01*
X186700156Y-79521764D01*
X186563428Y-79190857D01*
X186310475Y-78937462D01*
X185979806Y-78800157D01*
X185899913Y-78800087D01*
X185900156Y-78521754D01*
X185763428Y-78190847D01*
X185573378Y-78000465D01*
X185554328Y-77904695D01*
X185424264Y-77710041D01*
X178589223Y-70875000D01*
X201625000Y-70875000D01*
X201625000Y-109825000D01*
X158010579Y-109825000D01*
X159757342Y-108078236D01*
X161699844Y-108078236D01*
X161836572Y-108409143D01*
X162089525Y-108662538D01*
X162420194Y-108799843D01*
X162778236Y-108800156D01*
X163109143Y-108663428D01*
X163272857Y-108500000D01*
X173099979Y-108500000D01*
X173329589Y-108454328D01*
X173524243Y-108324264D01*
X175648573Y-106199934D01*
X175878236Y-106200135D01*
X176209143Y-106063407D01*
X176462538Y-105810454D01*
X176599843Y-105479785D01*
X176600156Y-105121743D01*
X176463428Y-104790836D01*
X176210475Y-104537441D01*
X175879806Y-104400136D01*
X175521764Y-104399823D01*
X175190857Y-104536551D01*
X174937462Y-104789504D01*
X174800157Y-105120173D01*
X174799955Y-105351496D01*
X172851451Y-107300000D01*
X163272729Y-107300000D01*
X163110475Y-107137462D01*
X162779806Y-107000157D01*
X162421764Y-106999844D01*
X162090857Y-107136572D01*
X161837462Y-107389525D01*
X161700157Y-107720194D01*
X161699844Y-108078236D01*
X159757342Y-108078236D01*
X163235540Y-104600038D01*
X174799962Y-104600038D01*
X175067841Y-104546754D01*
X175294937Y-104395013D01*
X175489950Y-104200000D01*
X175627057Y-104200000D01*
X175689525Y-104262577D01*
X176020194Y-104399882D01*
X176378236Y-104400195D01*
X176709143Y-104263467D01*
X176962538Y-104010514D01*
X177099843Y-103679845D01*
X177100156Y-103321803D01*
X176967044Y-102999648D01*
X177099843Y-102679832D01*
X177100156Y-102321790D01*
X176967044Y-101999635D01*
X177099843Y-101679819D01*
X177100156Y-101321777D01*
X176967044Y-100999622D01*
X177099843Y-100679806D01*
X177100156Y-100321764D01*
X176963428Y-99990857D01*
X176710475Y-99737462D01*
X176379806Y-99600157D01*
X176021764Y-99599844D01*
X175690857Y-99736572D01*
X175625578Y-99801737D01*
X175366436Y-99853284D01*
X175139340Y-100005025D01*
X173744365Y-101400000D01*
X162200005Y-101400000D01*
X162200000Y-101399999D01*
X161932121Y-101453284D01*
X161705025Y-101605025D01*
X156110050Y-107200000D01*
X145696838Y-107200000D01*
X146428856Y-106897536D01*
X146991919Y-106335455D01*
X147297022Y-105600684D01*
X147297717Y-104805086D01*
X146993896Y-104069784D01*
X146431815Y-103506721D01*
X145697044Y-103201618D01*
X144901446Y-103200923D01*
X144166144Y-103504744D01*
X143603081Y-104066825D01*
X143297978Y-104801596D01*
X143297283Y-105597194D01*
X143601104Y-106332496D01*
X144163185Y-106895559D01*
X144896362Y-107200000D01*
X114789950Y-107200000D01*
X111686004Y-104096054D01*
X125199783Y-104096054D01*
X125503604Y-104831356D01*
X126065685Y-105394419D01*
X126800456Y-105699522D01*
X127596054Y-105700217D01*
X128331356Y-105396396D01*
X128894419Y-104834315D01*
X129199522Y-104099544D01*
X129200217Y-103303946D01*
X128896396Y-102568644D01*
X128334315Y-102005581D01*
X127599544Y-101700478D01*
X126803946Y-101699783D01*
X126068644Y-102003604D01*
X125505581Y-102565685D01*
X125200478Y-103300456D01*
X125199783Y-104096054D01*
X111686004Y-104096054D01*
X109394975Y-101805025D01*
X109351782Y-101776164D01*
X109260480Y-101639520D01*
X109095090Y-101529011D01*
X108900000Y-101490205D01*
X107000000Y-101490205D01*
X106804910Y-101529011D01*
X106639520Y-101639520D01*
X106529011Y-101804910D01*
X106490205Y-102000000D01*
X106490205Y-102600000D01*
X106529011Y-102795090D01*
X106532292Y-102800000D01*
X106529011Y-102804910D01*
X106490205Y-103000000D01*
X106490205Y-103600000D01*
X106529011Y-103795090D01*
X106532292Y-103800000D01*
X106529011Y-103804910D01*
X106490205Y-104000000D01*
X106490205Y-104600000D01*
X106529011Y-104795090D01*
X106532292Y-104800000D01*
X106529011Y-104804910D01*
X106490205Y-105000000D01*
X106490205Y-105600000D01*
X106529011Y-105795090D01*
X106639520Y-105960480D01*
X106804910Y-106070989D01*
X107000000Y-106109795D01*
X108900000Y-106109795D01*
X109083370Y-106073320D01*
X112835050Y-109825000D01*
X107234187Y-109825000D01*
X107320989Y-109695090D01*
X107359795Y-109500000D01*
X107359795Y-107400000D01*
X107320989Y-107204910D01*
X107210480Y-107039520D01*
X107045090Y-106929011D01*
X106850000Y-106890205D01*
X104050000Y-106890205D01*
X103854910Y-106929011D01*
X103689520Y-107039520D01*
X103579011Y-107204910D01*
X103540205Y-107400000D01*
X103540205Y-109500000D01*
X103579011Y-109695090D01*
X103665813Y-109825000D01*
X102775000Y-109825000D01*
X102775000Y-98100000D01*
X103540205Y-98100000D01*
X103540205Y-100200000D01*
X103579011Y-100395090D01*
X103689520Y-100560480D01*
X103854910Y-100670989D01*
X104050000Y-100709795D01*
X106850000Y-100709795D01*
X107045090Y-100670989D01*
X107210480Y-100560480D01*
X107320989Y-100395090D01*
X107359795Y-100200000D01*
X107359795Y-98100000D01*
X107320989Y-97904910D01*
X107210480Y-97739520D01*
X107045090Y-97629011D01*
X106850000Y-97590205D01*
X104050000Y-97590205D01*
X103854910Y-97629011D01*
X103689520Y-97739520D01*
X103579011Y-97904910D01*
X103540205Y-98100000D01*
X102775000Y-98100000D01*
X102775000Y-92687830D01*
X132177875Y-92687830D01*
X132177875Y-95311650D01*
X132216681Y-95506740D01*
X132327190Y-95672130D01*
X132492580Y-95782639D01*
X132687670Y-95821445D01*
X135311490Y-95821445D01*
X135506580Y-95782639D01*
X135671970Y-95672130D01*
X135782479Y-95506740D01*
X135821285Y-95311650D01*
X135821285Y-94358570D01*
X140183277Y-94358570D01*
X140458542Y-95024763D01*
X140967796Y-95534907D01*
X141633508Y-95811334D01*
X142354330Y-95811963D01*
X143020523Y-95536698D01*
X143530667Y-95027444D01*
X143807094Y-94361732D01*
X143807723Y-93640910D01*
X143532458Y-92974717D01*
X143023204Y-92464573D01*
X142357492Y-92188146D01*
X141636670Y-92187517D01*
X140970477Y-92462782D01*
X140460333Y-92972036D01*
X140183906Y-93637748D01*
X140183277Y-94358570D01*
X135821285Y-94358570D01*
X135821285Y-92687830D01*
X135782479Y-92492740D01*
X135693512Y-92359590D01*
X136185317Y-92359590D01*
X136460582Y-93025783D01*
X136969836Y-93535927D01*
X137635548Y-93812354D01*
X138356370Y-93812983D01*
X139022563Y-93537718D01*
X139532707Y-93028464D01*
X139809134Y-92362752D01*
X139809763Y-91641930D01*
X139534498Y-90975737D01*
X139025244Y-90465593D01*
X138772417Y-90360610D01*
X140183277Y-90360610D01*
X140458542Y-91026803D01*
X140967796Y-91536947D01*
X141633508Y-91813374D01*
X142354330Y-91814003D01*
X143020523Y-91538738D01*
X143530667Y-91029484D01*
X143807094Y-90363772D01*
X143807723Y-89642950D01*
X143532458Y-88976757D01*
X143023204Y-88466613D01*
X142357492Y-88190186D01*
X141636670Y-88189557D01*
X140970477Y-88464822D01*
X140460333Y-88974076D01*
X140183906Y-89639788D01*
X140183277Y-90360610D01*
X138772417Y-90360610D01*
X138359532Y-90189166D01*
X137638710Y-90188537D01*
X136972517Y-90463802D01*
X136462373Y-90973056D01*
X136185946Y-91638768D01*
X136185317Y-92359590D01*
X135693512Y-92359590D01*
X135671970Y-92327350D01*
X135506580Y-92216841D01*
X135311490Y-92178035D01*
X132687670Y-92178035D01*
X132492580Y-92216841D01*
X132327190Y-92327350D01*
X132216681Y-92492740D01*
X132177875Y-92687830D01*
X102775000Y-92687830D01*
X102775000Y-91237255D01*
X132799460Y-91237255D01*
X132934026Y-91510922D01*
X133592660Y-91803815D01*
X134313243Y-91822364D01*
X134986075Y-91563746D01*
X135065134Y-91510922D01*
X135199700Y-91237255D01*
X133999580Y-90037135D01*
X132799460Y-91237255D01*
X102775000Y-91237255D01*
X102775000Y-90315443D01*
X132178996Y-90315443D01*
X132437614Y-90988275D01*
X132490438Y-91067334D01*
X132764105Y-91201900D01*
X133964225Y-90001780D01*
X134034935Y-90001780D01*
X135235055Y-91201900D01*
X135508722Y-91067334D01*
X135801615Y-90408700D01*
X135820164Y-89688117D01*
X135561546Y-89015285D01*
X135508722Y-88936226D01*
X135235055Y-88801660D01*
X134034935Y-90001780D01*
X133964225Y-90001780D01*
X132764105Y-88801660D01*
X132490438Y-88936226D01*
X132197545Y-89594860D01*
X132178996Y-90315443D01*
X102775000Y-90315443D01*
X102775000Y-88766305D01*
X132799460Y-88766305D01*
X133999580Y-89966425D01*
X135199700Y-88766305D01*
X135065134Y-88492638D01*
X134770534Y-88361630D01*
X136185317Y-88361630D01*
X136460582Y-89027823D01*
X136969836Y-89537967D01*
X137635548Y-89814394D01*
X138356370Y-89815023D01*
X139022563Y-89539758D01*
X139532707Y-89030504D01*
X139809134Y-88364792D01*
X139809763Y-87643970D01*
X139534498Y-86977777D01*
X139025244Y-86467633D01*
X138772417Y-86362650D01*
X140183277Y-86362650D01*
X140458542Y-87028843D01*
X140967796Y-87538987D01*
X141633508Y-87815414D01*
X142354330Y-87816043D01*
X143020523Y-87540778D01*
X143530667Y-87031524D01*
X143807094Y-86365812D01*
X143807723Y-85644990D01*
X143532458Y-84978797D01*
X143023204Y-84468653D01*
X142357492Y-84192226D01*
X141636670Y-84191597D01*
X140970477Y-84466862D01*
X140460333Y-84976116D01*
X140183906Y-85641828D01*
X140183277Y-86362650D01*
X138772417Y-86362650D01*
X138359532Y-86191206D01*
X137638710Y-86190577D01*
X136972517Y-86465842D01*
X136462373Y-86975096D01*
X136185946Y-87640808D01*
X136185317Y-88361630D01*
X134770534Y-88361630D01*
X134406500Y-88199745D01*
X133685917Y-88181196D01*
X133013085Y-88439814D01*
X132934026Y-88492638D01*
X132799460Y-88766305D01*
X102775000Y-88766305D01*
X102775000Y-86362650D01*
X132187357Y-86362650D01*
X132462622Y-87028843D01*
X132971876Y-87538987D01*
X133637588Y-87815414D01*
X134358410Y-87816043D01*
X135024603Y-87540778D01*
X135534747Y-87031524D01*
X135811174Y-86365812D01*
X135811803Y-85644990D01*
X135536538Y-84978797D01*
X135027284Y-84468653D01*
X134361572Y-84192226D01*
X133640750Y-84191597D01*
X132974557Y-84466862D01*
X132464413Y-84976116D01*
X132187986Y-85641828D01*
X132187357Y-86362650D01*
X102775000Y-86362650D01*
X102775000Y-80038950D01*
X151496405Y-80038950D01*
X151564051Y-80255479D01*
X152023986Y-80456771D01*
X152525942Y-80466731D01*
X152993500Y-80283843D01*
X153035949Y-80255479D01*
X153103595Y-80038950D01*
X152300000Y-79235355D01*
X151496405Y-80038950D01*
X102775000Y-80038950D01*
X102775000Y-79425942D01*
X151033269Y-79425942D01*
X151216157Y-79893500D01*
X151244521Y-79935949D01*
X151461050Y-80003595D01*
X152264645Y-79200000D01*
X152335355Y-79200000D01*
X153138950Y-80003595D01*
X153355479Y-79935949D01*
X153556771Y-79476014D01*
X153557288Y-79449926D01*
X156037781Y-79449926D01*
X156229505Y-79913932D01*
X156584201Y-80269248D01*
X157047871Y-80461780D01*
X157549926Y-80462219D01*
X158013932Y-80270495D01*
X158369248Y-79915799D01*
X158561780Y-79452129D01*
X158562219Y-78950074D01*
X158370495Y-78486068D01*
X158015799Y-78130752D01*
X157552129Y-77938220D01*
X157050074Y-77937781D01*
X156586068Y-78129505D01*
X156230752Y-78484201D01*
X156038220Y-78947871D01*
X156037781Y-79449926D01*
X153557288Y-79449926D01*
X153566731Y-78974058D01*
X153383843Y-78506500D01*
X153355479Y-78464051D01*
X153138950Y-78396405D01*
X152335355Y-79200000D01*
X152264645Y-79200000D01*
X151461050Y-78396405D01*
X151244521Y-78464051D01*
X151043229Y-78923986D01*
X151033269Y-79425942D01*
X102775000Y-79425942D01*
X102775000Y-78361050D01*
X151496405Y-78361050D01*
X152300000Y-79164645D01*
X153103595Y-78361050D01*
X153035949Y-78144521D01*
X152576014Y-77943229D01*
X152074058Y-77933269D01*
X151606500Y-78116157D01*
X151564051Y-78144521D01*
X151496405Y-78361050D01*
X102775000Y-78361050D01*
X102775000Y-76699614D01*
X125199783Y-76699614D01*
X125503604Y-77434916D01*
X126065685Y-77997979D01*
X126800456Y-78303082D01*
X127596054Y-78303777D01*
X128331356Y-77999956D01*
X128894419Y-77437875D01*
X129199522Y-76703104D01*
X129200217Y-75907506D01*
X128907251Y-75198474D01*
X143297283Y-75198474D01*
X143601104Y-75933776D01*
X144163185Y-76496839D01*
X144897956Y-76801942D01*
X145693554Y-76802637D01*
X146428856Y-76498816D01*
X146991919Y-75936735D01*
X147297022Y-75201964D01*
X147297717Y-74406366D01*
X146993896Y-73671064D01*
X146431815Y-73108001D01*
X145697044Y-72802898D01*
X144901446Y-72802203D01*
X144166144Y-73106024D01*
X143603081Y-73668105D01*
X143297978Y-74402876D01*
X143297283Y-75198474D01*
X128907251Y-75198474D01*
X128896396Y-75172204D01*
X128334315Y-74609141D01*
X127599544Y-74304038D01*
X126803946Y-74303343D01*
X126068644Y-74607164D01*
X125505581Y-75169245D01*
X125200478Y-75904016D01*
X125199783Y-76699614D01*
X102775000Y-76699614D01*
X102775000Y-70875000D01*
X136076472Y-70875000D01*
X135075736Y-71875736D01*
X135075736Y-71875736D01*
G37*
X135075736Y-71875736D02*
X134945672Y-72070390D01*
X134900000Y-72300000D01*
X134900000Y-73027271D01*
X134737462Y-73189525D01*
X134600157Y-73520194D01*
X134599844Y-73878236D01*
X134736572Y-74209143D01*
X134989525Y-74462538D01*
X135320194Y-74599843D01*
X135678236Y-74600156D01*
X136009143Y-74463428D01*
X136262538Y-74210475D01*
X136399843Y-73879806D01*
X136400156Y-73521764D01*
X136263428Y-73190857D01*
X136100000Y-73027143D01*
X136100000Y-72548528D01*
X137148539Y-71499989D01*
X139851483Y-71499989D01*
X139175736Y-72175736D01*
X139045672Y-72370390D01*
X139000000Y-72600000D01*
X139000000Y-72827271D01*
X138837462Y-72989525D01*
X138700157Y-73320194D01*
X138699844Y-73678236D01*
X138836572Y-74009143D01*
X139089525Y-74262538D01*
X139420194Y-74399843D01*
X139778236Y-74400156D01*
X140109143Y-74263428D01*
X140362538Y-74010475D01*
X140499843Y-73679806D01*
X140500156Y-73321764D01*
X140363428Y-72990857D01*
X140210683Y-72837845D01*
X141148528Y-71900000D01*
X157408542Y-71900000D01*
X157400157Y-71920194D01*
X157399844Y-72278236D01*
X157536572Y-72609143D01*
X157789525Y-72862538D01*
X158120194Y-72999843D01*
X158478236Y-73000156D01*
X158809143Y-72863428D01*
X159062538Y-72610475D01*
X159149934Y-72400000D01*
X177051472Y-72400000D01*
X177579819Y-72928347D01*
X177500157Y-73120194D01*
X177499844Y-73478236D01*
X177636572Y-73809143D01*
X177889525Y-74062538D01*
X178220194Y-74199843D01*
X178578236Y-74200156D01*
X178909143Y-74063428D01*
X179162242Y-73810770D01*
X183600000Y-78248528D01*
X183600000Y-79000000D01*
X183645672Y-79229610D01*
X183775736Y-79424264D01*
X184475736Y-80124264D01*
X184670389Y-80254328D01*
X184900000Y-80300000D01*
X185127271Y-80300000D01*
X185289525Y-80462538D01*
X185620194Y-80599843D01*
X185978236Y-80600156D01*
X186309143Y-80463428D01*
X186562538Y-80210475D01*
X186699843Y-79879806D01*
X186700156Y-79521764D01*
X186563428Y-79190857D01*
X186310475Y-78937462D01*
X185979806Y-78800157D01*
X185899913Y-78800087D01*
X185900156Y-78521754D01*
X185763428Y-78190847D01*
X185573378Y-78000465D01*
X185554328Y-77904695D01*
X185424264Y-77710041D01*
X178589223Y-70875000D01*
X201625000Y-70875000D01*
X201625000Y-109825000D01*
X158010579Y-109825000D01*
X159757342Y-108078236D01*
X161699844Y-108078236D01*
X161836572Y-108409143D01*
X162089525Y-108662538D01*
X162420194Y-108799843D01*
X162778236Y-108800156D01*
X163109143Y-108663428D01*
X163272857Y-108500000D01*
X173099979Y-108500000D01*
X173329589Y-108454328D01*
X173524243Y-108324264D01*
X175648573Y-106199934D01*
X175878236Y-106200135D01*
X176209143Y-106063407D01*
X176462538Y-105810454D01*
X176599843Y-105479785D01*
X176600156Y-105121743D01*
X176463428Y-104790836D01*
X176210475Y-104537441D01*
X175879806Y-104400136D01*
X175521764Y-104399823D01*
X175190857Y-104536551D01*
X174937462Y-104789504D01*
X174800157Y-105120173D01*
X174799955Y-105351496D01*
X172851451Y-107300000D01*
X163272729Y-107300000D01*
X163110475Y-107137462D01*
X162779806Y-107000157D01*
X162421764Y-106999844D01*
X162090857Y-107136572D01*
X161837462Y-107389525D01*
X161700157Y-107720194D01*
X161699844Y-108078236D01*
X159757342Y-108078236D01*
X163235540Y-104600038D01*
X174799962Y-104600038D01*
X175067841Y-104546754D01*
X175294937Y-104395013D01*
X175489950Y-104200000D01*
X175627057Y-104200000D01*
X175689525Y-104262577D01*
X176020194Y-104399882D01*
X176378236Y-104400195D01*
X176709143Y-104263467D01*
X176962538Y-104010514D01*
X177099843Y-103679845D01*
X177100156Y-103321803D01*
X176967044Y-102999648D01*
X177099843Y-102679832D01*
X177100156Y-102321790D01*
X176967044Y-101999635D01*
X177099843Y-101679819D01*
X177100156Y-101321777D01*
X176967044Y-100999622D01*
X177099843Y-100679806D01*
X177100156Y-100321764D01*
X176963428Y-99990857D01*
X176710475Y-99737462D01*
X176379806Y-99600157D01*
X176021764Y-99599844D01*
X175690857Y-99736572D01*
X175625578Y-99801737D01*
X175366436Y-99853284D01*
X175139340Y-100005025D01*
X173744365Y-101400000D01*
X162200005Y-101400000D01*
X162200000Y-101399999D01*
X161932121Y-101453284D01*
X161705025Y-101605025D01*
X156110050Y-107200000D01*
X145696838Y-107200000D01*
X146428856Y-106897536D01*
X146991919Y-106335455D01*
X147297022Y-105600684D01*
X147297717Y-104805086D01*
X146993896Y-104069784D01*
X146431815Y-103506721D01*
X145697044Y-103201618D01*
X144901446Y-103200923D01*
X144166144Y-103504744D01*
X143603081Y-104066825D01*
X143297978Y-104801596D01*
X143297283Y-105597194D01*
X143601104Y-106332496D01*
X144163185Y-106895559D01*
X144896362Y-107200000D01*
X114789950Y-107200000D01*
X111686004Y-104096054D01*
X125199783Y-104096054D01*
X125503604Y-104831356D01*
X126065685Y-105394419D01*
X126800456Y-105699522D01*
X127596054Y-105700217D01*
X128331356Y-105396396D01*
X128894419Y-104834315D01*
X129199522Y-104099544D01*
X129200217Y-103303946D01*
X128896396Y-102568644D01*
X128334315Y-102005581D01*
X127599544Y-101700478D01*
X126803946Y-101699783D01*
X126068644Y-102003604D01*
X125505581Y-102565685D01*
X125200478Y-103300456D01*
X125199783Y-104096054D01*
X111686004Y-104096054D01*
X109394975Y-101805025D01*
X109351782Y-101776164D01*
X109260480Y-101639520D01*
X109095090Y-101529011D01*
X108900000Y-101490205D01*
X107000000Y-101490205D01*
X106804910Y-101529011D01*
X106639520Y-101639520D01*
X106529011Y-101804910D01*
X106490205Y-102000000D01*
X106490205Y-102600000D01*
X106529011Y-102795090D01*
X106532292Y-102800000D01*
X106529011Y-102804910D01*
X106490205Y-103000000D01*
X106490205Y-103600000D01*
X106529011Y-103795090D01*
X106532292Y-103800000D01*
X106529011Y-103804910D01*
X106490205Y-104000000D01*
X106490205Y-104600000D01*
X106529011Y-104795090D01*
X106532292Y-104800000D01*
X106529011Y-104804910D01*
X106490205Y-105000000D01*
X106490205Y-105600000D01*
X106529011Y-105795090D01*
X106639520Y-105960480D01*
X106804910Y-106070989D01*
X107000000Y-106109795D01*
X108900000Y-106109795D01*
X109083370Y-106073320D01*
X112835050Y-109825000D01*
X107234187Y-109825000D01*
X107320989Y-109695090D01*
X107359795Y-109500000D01*
X107359795Y-107400000D01*
X107320989Y-107204910D01*
X107210480Y-107039520D01*
X107045090Y-106929011D01*
X106850000Y-106890205D01*
X104050000Y-106890205D01*
X103854910Y-106929011D01*
X103689520Y-107039520D01*
X103579011Y-107204910D01*
X103540205Y-107400000D01*
X103540205Y-109500000D01*
X103579011Y-109695090D01*
X103665813Y-109825000D01*
X102775000Y-109825000D01*
X102775000Y-98100000D01*
X103540205Y-98100000D01*
X103540205Y-100200000D01*
X103579011Y-100395090D01*
X103689520Y-100560480D01*
X103854910Y-100670989D01*
X104050000Y-100709795D01*
X106850000Y-100709795D01*
X107045090Y-100670989D01*
X107210480Y-100560480D01*
X107320989Y-100395090D01*
X107359795Y-100200000D01*
X107359795Y-98100000D01*
X107320989Y-97904910D01*
X107210480Y-97739520D01*
X107045090Y-97629011D01*
X106850000Y-97590205D01*
X104050000Y-97590205D01*
X103854910Y-97629011D01*
X103689520Y-97739520D01*
X103579011Y-97904910D01*
X103540205Y-98100000D01*
X102775000Y-98100000D01*
X102775000Y-92687830D01*
X132177875Y-92687830D01*
X132177875Y-95311650D01*
X132216681Y-95506740D01*
X132327190Y-95672130D01*
X132492580Y-95782639D01*
X132687670Y-95821445D01*
X135311490Y-95821445D01*
X135506580Y-95782639D01*
X135671970Y-95672130D01*
X135782479Y-95506740D01*
X135821285Y-95311650D01*
X135821285Y-94358570D01*
X140183277Y-94358570D01*
X140458542Y-95024763D01*
X140967796Y-95534907D01*
X141633508Y-95811334D01*
X142354330Y-95811963D01*
X143020523Y-95536698D01*
X143530667Y-95027444D01*
X143807094Y-94361732D01*
X143807723Y-93640910D01*
X143532458Y-92974717D01*
X143023204Y-92464573D01*
X142357492Y-92188146D01*
X141636670Y-92187517D01*
X140970477Y-92462782D01*
X140460333Y-92972036D01*
X140183906Y-93637748D01*
X140183277Y-94358570D01*
X135821285Y-94358570D01*
X135821285Y-92687830D01*
X135782479Y-92492740D01*
X135693512Y-92359590D01*
X136185317Y-92359590D01*
X136460582Y-93025783D01*
X136969836Y-93535927D01*
X137635548Y-93812354D01*
X138356370Y-93812983D01*
X139022563Y-93537718D01*
X139532707Y-93028464D01*
X139809134Y-92362752D01*
X139809763Y-91641930D01*
X139534498Y-90975737D01*
X139025244Y-90465593D01*
X138772417Y-90360610D01*
X140183277Y-90360610D01*
X140458542Y-91026803D01*
X140967796Y-91536947D01*
X141633508Y-91813374D01*
X142354330Y-91814003D01*
X143020523Y-91538738D01*
X143530667Y-91029484D01*
X143807094Y-90363772D01*
X143807723Y-89642950D01*
X143532458Y-88976757D01*
X143023204Y-88466613D01*
X142357492Y-88190186D01*
X141636670Y-88189557D01*
X140970477Y-88464822D01*
X140460333Y-88974076D01*
X140183906Y-89639788D01*
X140183277Y-90360610D01*
X138772417Y-90360610D01*
X138359532Y-90189166D01*
X137638710Y-90188537D01*
X136972517Y-90463802D01*
X136462373Y-90973056D01*
X136185946Y-91638768D01*
X136185317Y-92359590D01*
X135693512Y-92359590D01*
X135671970Y-92327350D01*
X135506580Y-92216841D01*
X135311490Y-92178035D01*
X132687670Y-92178035D01*
X132492580Y-92216841D01*
X132327190Y-92327350D01*
X132216681Y-92492740D01*
X132177875Y-92687830D01*
X102775000Y-92687830D01*
X102775000Y-91237255D01*
X132799460Y-91237255D01*
X132934026Y-91510922D01*
X133592660Y-91803815D01*
X134313243Y-91822364D01*
X134986075Y-91563746D01*
X135065134Y-91510922D01*
X135199700Y-91237255D01*
X133999580Y-90037135D01*
X132799460Y-91237255D01*
X102775000Y-91237255D01*
X102775000Y-90315443D01*
X132178996Y-90315443D01*
X132437614Y-90988275D01*
X132490438Y-91067334D01*
X132764105Y-91201900D01*
X133964225Y-90001780D01*
X134034935Y-90001780D01*
X135235055Y-91201900D01*
X135508722Y-91067334D01*
X135801615Y-90408700D01*
X135820164Y-89688117D01*
X135561546Y-89015285D01*
X135508722Y-88936226D01*
X135235055Y-88801660D01*
X134034935Y-90001780D01*
X133964225Y-90001780D01*
X132764105Y-88801660D01*
X132490438Y-88936226D01*
X132197545Y-89594860D01*
X132178996Y-90315443D01*
X102775000Y-90315443D01*
X102775000Y-88766305D01*
X132799460Y-88766305D01*
X133999580Y-89966425D01*
X135199700Y-88766305D01*
X135065134Y-88492638D01*
X134770534Y-88361630D01*
X136185317Y-88361630D01*
X136460582Y-89027823D01*
X136969836Y-89537967D01*
X137635548Y-89814394D01*
X138356370Y-89815023D01*
X139022563Y-89539758D01*
X139532707Y-89030504D01*
X139809134Y-88364792D01*
X139809763Y-87643970D01*
X139534498Y-86977777D01*
X139025244Y-86467633D01*
X138772417Y-86362650D01*
X140183277Y-86362650D01*
X140458542Y-87028843D01*
X140967796Y-87538987D01*
X141633508Y-87815414D01*
X142354330Y-87816043D01*
X143020523Y-87540778D01*
X143530667Y-87031524D01*
X143807094Y-86365812D01*
X143807723Y-85644990D01*
X143532458Y-84978797D01*
X143023204Y-84468653D01*
X142357492Y-84192226D01*
X141636670Y-84191597D01*
X140970477Y-84466862D01*
X140460333Y-84976116D01*
X140183906Y-85641828D01*
X140183277Y-86362650D01*
X138772417Y-86362650D01*
X138359532Y-86191206D01*
X137638710Y-86190577D01*
X136972517Y-86465842D01*
X136462373Y-86975096D01*
X136185946Y-87640808D01*
X136185317Y-88361630D01*
X134770534Y-88361630D01*
X134406500Y-88199745D01*
X133685917Y-88181196D01*
X133013085Y-88439814D01*
X132934026Y-88492638D01*
X132799460Y-88766305D01*
X102775000Y-88766305D01*
X102775000Y-86362650D01*
X132187357Y-86362650D01*
X132462622Y-87028843D01*
X132971876Y-87538987D01*
X133637588Y-87815414D01*
X134358410Y-87816043D01*
X135024603Y-87540778D01*
X135534747Y-87031524D01*
X135811174Y-86365812D01*
X135811803Y-85644990D01*
X135536538Y-84978797D01*
X135027284Y-84468653D01*
X134361572Y-84192226D01*
X133640750Y-84191597D01*
X132974557Y-84466862D01*
X132464413Y-84976116D01*
X132187986Y-85641828D01*
X132187357Y-86362650D01*
X102775000Y-86362650D01*
X102775000Y-80038950D01*
X151496405Y-80038950D01*
X151564051Y-80255479D01*
X152023986Y-80456771D01*
X152525942Y-80466731D01*
X152993500Y-80283843D01*
X153035949Y-80255479D01*
X153103595Y-80038950D01*
X152300000Y-79235355D01*
X151496405Y-80038950D01*
X102775000Y-80038950D01*
X102775000Y-79425942D01*
X151033269Y-79425942D01*
X151216157Y-79893500D01*
X151244521Y-79935949D01*
X151461050Y-80003595D01*
X152264645Y-79200000D01*
X152335355Y-79200000D01*
X153138950Y-80003595D01*
X153355479Y-79935949D01*
X153556771Y-79476014D01*
X153557288Y-79449926D01*
X156037781Y-79449926D01*
X156229505Y-79913932D01*
X156584201Y-80269248D01*
X157047871Y-80461780D01*
X157549926Y-80462219D01*
X158013932Y-80270495D01*
X158369248Y-79915799D01*
X158561780Y-79452129D01*
X158562219Y-78950074D01*
X158370495Y-78486068D01*
X158015799Y-78130752D01*
X157552129Y-77938220D01*
X157050074Y-77937781D01*
X156586068Y-78129505D01*
X156230752Y-78484201D01*
X156038220Y-78947871D01*
X156037781Y-79449926D01*
X153557288Y-79449926D01*
X153566731Y-78974058D01*
X153383843Y-78506500D01*
X153355479Y-78464051D01*
X153138950Y-78396405D01*
X152335355Y-79200000D01*
X152264645Y-79200000D01*
X151461050Y-78396405D01*
X151244521Y-78464051D01*
X151043229Y-78923986D01*
X151033269Y-79425942D01*
X102775000Y-79425942D01*
X102775000Y-78361050D01*
X151496405Y-78361050D01*
X152300000Y-79164645D01*
X153103595Y-78361050D01*
X153035949Y-78144521D01*
X152576014Y-77943229D01*
X152074058Y-77933269D01*
X151606500Y-78116157D01*
X151564051Y-78144521D01*
X151496405Y-78361050D01*
X102775000Y-78361050D01*
X102775000Y-76699614D01*
X125199783Y-76699614D01*
X125503604Y-77434916D01*
X126065685Y-77997979D01*
X126800456Y-78303082D01*
X127596054Y-78303777D01*
X128331356Y-77999956D01*
X128894419Y-77437875D01*
X129199522Y-76703104D01*
X129200217Y-75907506D01*
X128907251Y-75198474D01*
X143297283Y-75198474D01*
X143601104Y-75933776D01*
X144163185Y-76496839D01*
X144897956Y-76801942D01*
X145693554Y-76802637D01*
X146428856Y-76498816D01*
X146991919Y-75936735D01*
X147297022Y-75201964D01*
X147297717Y-74406366D01*
X146993896Y-73671064D01*
X146431815Y-73108001D01*
X145697044Y-72802898D01*
X144901446Y-72802203D01*
X144166144Y-73106024D01*
X143603081Y-73668105D01*
X143297978Y-74402876D01*
X143297283Y-75198474D01*
X128907251Y-75198474D01*
X128896396Y-75172204D01*
X128334315Y-74609141D01*
X127599544Y-74304038D01*
X126803946Y-74303343D01*
X126068644Y-74607164D01*
X125505581Y-75169245D01*
X125200478Y-75904016D01*
X125199783Y-76699614D01*
X102775000Y-76699614D01*
X102775000Y-70875000D01*
X136076472Y-70875000D01*
X135075736Y-71875736D01*
M02*
