M48
INCH,TZ
T1C0.016
T2C0.030
T3C0.069
T4C0.079
%
G90
G05
T1
X40709Y-31772
X40709Y-41732
X40748Y-37953
X40906Y-28307
X43701Y-40236
X43937Y-35709
X45984Y-29213
X46181Y-41929
X46220Y-38622
X48031Y-39449
X49094Y-37638
X49921Y-38898
X50157Y-32126
X50866Y-38031
X51693Y-28504
X52795Y-30748
X52953Y-40866
X53346Y-29016
X53740Y-39724
X54567Y-37323
X54764Y-30354
X54961Y-28937
X55197Y-32874
X55512Y-39134
X56299Y-40157
X56772Y-32244
X56929Y-36575
X57717Y-31654
X57913Y-33701
X59488Y-37677
X59843Y-28465
X60827Y-37402
X61260Y-40827
X62244Y-36575
X62323Y-28386
X62874Y-33307
X63031Y-39173
X63170Y-28661
X63937Y-42087
X64016Y-42480
X65197Y-29331
X65591Y-32283
X66181Y-42087
X66260Y-35197
X67441Y-35197
X67441Y-37362
X68386Y-29252
X68858Y-36890
X69016Y-30827
X69173Y-41457
X69370Y-39567
X69370Y-39961
X69370Y-40354
X69370Y-40748
X69606Y-32795
X69803Y-39291
X70000Y-33858
X70236Y-28858
X70276Y-29291
X71159Y-40958
X71220Y-41929
X71227Y-28543
X71811Y-34606
X72598Y-28307
X72598Y-41969
X72795Y-32402
X72835Y-30984
X72874Y-29961
X72914Y-35704
X73150Y-31378
X73346Y-34488
X73898Y-39882
X74173Y-31535
X74173Y-35394
X74291Y-28465
X76378Y-30236
X76535Y-32756
X76654Y-42008
X76969Y-28228
X77362Y-38346
X77638Y-40669
X77795Y-41972
X78701Y-31299
X79213Y-34567
X79291Y-39685
T2
X59961Y-31181
X61929Y-31181
T3
X52756Y-33860
X52756Y-35434
X52756Y-37008
X54330Y-34647
X54330Y-36221
X55904Y-33860
X55904Y-35434
X55904Y-37008
T4
X50079Y-30041
X50079Y-40827
X57204Y-29450
X57204Y-41418
T0
M30
