G04 #@! TF.GenerationSoftware,KiCad,Pcbnew,(2017-01-11 revision e99b79cb2)-master*
G04 #@! TF.CreationDate,2017-11-20T10:16:14+02:00*
G04 #@! TF.ProjectId,display,646973706C61792E6B696361645F7063,1*
G04 #@! TF.FileFunction,Copper,L2,Bot,Signal*
G04 #@! TF.FilePolarity,Positive*
%FSLAX46Y46*%
G04 Gerber Fmt 4.6, Leading zero omitted, Abs format (unit mm)*
G04 Created by KiCad (PCBNEW (2017-01-11 revision e99b79cb2)-master) date Mon Nov 20 10:16:14 2017*
%MOMM*%
%LPD*%
G01*
G04 APERTURE LIST*
%ADD10C,0.100000*%
%ADD11R,2.623820X2.623820*%
%ADD12C,2.623820*%
%ADD13C,2.999740*%
%ADD14C,0.800000*%
%ADD15C,0.250000*%
%ADD16C,0.200000*%
%ADD17C,0.800000*%
%ADD18C,0.600000*%
%ADD19C,0.300000*%
G04 APERTURE END LIST*
D10*
D11*
X133999580Y-93999740D03*
D12*
X133999580Y-90001780D03*
X133999580Y-86003820D03*
X137997540Y-92000760D03*
X137997540Y-88002800D03*
X141995500Y-93999740D03*
X141995500Y-90001780D03*
X141995500Y-86003820D03*
D13*
X127200000Y-103700000D03*
X127200000Y-76303560D03*
X145297500Y-74802420D03*
X145297500Y-105201140D03*
D14*
X150600000Y-90300000D03*
X164350000Y-91500000D03*
X172125000Y-97550000D03*
X175150000Y-101175000D03*
X173850000Y-105800000D03*
X148325000Y-99575000D03*
X147900000Y-105175000D03*
X141700000Y-105425000D03*
X135550000Y-104125000D03*
X170497926Y-106674990D03*
X154158593Y-106674990D03*
X172150000Y-87400000D03*
X160119982Y-91619982D03*
X157383769Y-89151306D03*
X176047168Y-88052832D03*
X178278888Y-93078888D03*
X171950000Y-82900000D03*
X161803857Y-79967488D03*
X157000000Y-77850000D03*
X169800000Y-94700000D03*
X122900000Y-96600000D03*
X129500000Y-92200000D03*
X160600000Y-75850000D03*
X153700000Y-83350000D03*
X149350000Y-78100000D03*
X153900000Y-76900000D03*
X139700000Y-81800000D03*
X159600000Y-85200000D03*
X163700000Y-85800000D03*
X170600010Y-103300402D03*
X153700000Y-103300000D03*
X151600000Y-102200000D03*
X152200000Y-93900000D03*
X162100000Y-101400000D03*
X165800000Y-74600000D03*
X157500000Y-106600000D03*
X161100000Y-73000000D03*
X171400000Y-76000000D03*
X177000000Y-72800000D03*
X176630338Y-76369662D03*
X141700000Y-73200000D03*
X135200000Y-81900000D03*
X124700000Y-76700000D03*
X138800000Y-76000000D03*
X168200000Y-93100000D03*
X134100000Y-77400000D03*
X140400000Y-98400000D03*
X123100000Y-90500000D03*
X128500000Y-96100000D03*
X131100000Y-98300000D03*
X131600000Y-102100000D03*
X130200000Y-108000000D03*
X118900000Y-107700000D03*
X118800000Y-99200000D03*
X118700000Y-88700000D03*
X115800000Y-82600000D03*
X115900000Y-92900000D03*
X115900000Y-102600000D03*
X116100000Y-109000000D03*
X99400000Y-108900000D03*
X99400000Y-95700000D03*
X99400000Y-83800000D03*
X99300000Y-71600000D03*
X112000000Y-72700000D03*
X116100000Y-72400000D03*
X132600000Y-72100000D03*
X130700000Y-76300000D03*
X129700000Y-80600000D03*
X120000000Y-82000000D03*
X120100000Y-79100000D03*
X119200000Y-80500000D03*
X120200000Y-80500000D03*
X178800000Y-96700000D03*
X178800000Y-95500000D03*
X156586666Y-90889055D03*
X173050000Y-83300000D03*
X176861800Y-90638200D03*
X178200000Y-73138200D03*
X157160000Y-87000000D03*
X170200000Y-83900000D03*
X171600000Y-93800000D03*
X134200000Y-74700000D03*
X175359948Y-77600728D03*
X139500000Y-72700000D03*
X137400000Y-75700000D03*
X174600000Y-78400000D03*
X157706468Y-90106468D03*
X153150000Y-92050000D03*
X152400000Y-103700000D03*
X170538547Y-102213169D03*
X176050000Y-107025000D03*
X176700000Y-106350000D03*
X140050000Y-99948600D03*
X140925000Y-99950000D03*
D15*
X143400000Y-83100000D02*
X141000000Y-83100000D01*
X141000000Y-83100000D02*
X139700000Y-81800000D01*
X150600000Y-90300000D02*
X143400000Y-83100000D01*
X152200000Y-93900000D02*
X152200000Y-91900000D01*
X152200000Y-91900000D02*
X150600000Y-90300000D01*
X172125000Y-97550000D02*
X170400000Y-97550000D01*
X170400000Y-97550000D02*
X164350000Y-91500000D01*
X175150000Y-101175000D02*
X175150000Y-100575000D01*
X175150000Y-100575000D02*
X172125000Y-97550000D01*
X173850000Y-105800000D02*
X175150000Y-104500000D01*
X175150000Y-104500000D02*
X175150000Y-101175000D01*
X170497926Y-106674990D02*
X172975010Y-106674990D01*
X172975010Y-106674990D02*
X173850000Y-105800000D01*
X151200001Y-104425001D02*
X153449990Y-106674990D01*
X153449990Y-106674990D02*
X154158593Y-106674990D01*
X151600000Y-102200000D02*
X151200001Y-102599999D01*
X151200001Y-102599999D02*
X151200001Y-104425001D01*
X148325000Y-99575000D02*
X150950000Y-102200000D01*
X150950000Y-102200000D02*
X151600000Y-102200000D01*
X147175000Y-107400000D02*
X147900000Y-106675000D01*
X147900000Y-106675000D02*
X147900000Y-105175000D01*
X143675000Y-107400000D02*
X147175000Y-107400000D01*
X141700000Y-105425000D02*
X143675000Y-107400000D01*
X135550000Y-104125000D02*
X136850000Y-105425000D01*
X136850000Y-105425000D02*
X141700000Y-105425000D01*
X130200000Y-108000000D02*
X131675000Y-108000000D01*
X131675000Y-108000000D02*
X135550000Y-104125000D01*
D16*
X177878889Y-93478887D02*
X178278888Y-93078888D01*
X177400001Y-93799999D02*
X177557777Y-93799999D01*
X177557777Y-93799999D02*
X177878889Y-93478887D01*
X161238172Y-79967488D02*
X161803857Y-79967488D01*
X159151803Y-79967488D02*
X161238172Y-79967488D01*
X159034315Y-79850000D02*
X159151803Y-79967488D01*
X159000000Y-79850000D02*
X159034315Y-79850000D01*
X157000000Y-77850000D02*
X159000000Y-79850000D01*
X153700000Y-83350000D02*
X157200000Y-79850000D01*
X157200000Y-79850000D02*
X159034315Y-79850000D01*
X158600000Y-77850000D02*
X157565685Y-77850000D01*
X160600000Y-75850000D02*
X158600000Y-77850000D01*
X157565685Y-77850000D02*
X157000000Y-77850000D01*
X169800000Y-94700000D02*
X176500000Y-94700000D01*
X176500000Y-94700000D02*
X177400001Y-93799999D01*
X169800000Y-94700000D02*
X168200000Y-93100000D01*
X160600000Y-75850000D02*
X161100000Y-75350000D01*
X161100000Y-75350000D02*
X161100000Y-73000000D01*
X153900000Y-76900000D02*
X150550000Y-76900000D01*
X150550000Y-76900000D02*
X149350000Y-78100000D01*
X139700000Y-81800000D02*
X135300000Y-81800000D01*
X171400000Y-76000000D02*
X167200000Y-76000000D01*
X167200000Y-76000000D02*
X165800000Y-74600000D01*
X135200000Y-81900000D02*
X134100000Y-80800000D01*
X135300000Y-81800000D02*
X135200000Y-81900000D01*
X124700000Y-76700000D02*
X122300000Y-79100000D01*
X147700000Y-98400000D02*
X152200000Y-93900000D01*
X140400000Y-98400000D02*
X147700000Y-98400000D01*
X134100000Y-77400000D02*
X131800000Y-77400000D01*
X131800000Y-77400000D02*
X130700000Y-76300000D01*
X134100000Y-80800000D02*
X134100000Y-77400000D01*
X125800000Y-90500000D02*
X133700000Y-98400000D01*
X133700000Y-98400000D02*
X140400000Y-98400000D01*
X123100000Y-90500000D02*
X125800000Y-90500000D01*
X128500000Y-96100000D02*
X123100000Y-90700000D01*
X123100000Y-90700000D02*
X123100000Y-90500000D01*
X131100000Y-98300000D02*
X128900000Y-96100000D01*
X128900000Y-96100000D02*
X128500000Y-96100000D01*
X131600000Y-102100000D02*
X131600000Y-98800000D01*
X131600000Y-98800000D02*
X131100000Y-98300000D01*
X130200000Y-108000000D02*
X131600000Y-106600000D01*
X131600000Y-106600000D02*
X131600000Y-102100000D01*
X118900000Y-107700000D02*
X129900000Y-107700000D01*
X129900000Y-107700000D02*
X130200000Y-108000000D01*
X118800000Y-99200000D02*
X118800000Y-107600000D01*
X118800000Y-107600000D02*
X118900000Y-107700000D01*
X118700000Y-88700000D02*
X118700000Y-99100000D01*
X118700000Y-99100000D02*
X118800000Y-99200000D01*
X115900000Y-92900000D02*
X115900000Y-82700000D01*
X115900000Y-82700000D02*
X115800000Y-82600000D01*
X115900000Y-102600000D02*
X115900000Y-92900000D01*
X116100000Y-109000000D02*
X116100000Y-102800000D01*
X116100000Y-102800000D02*
X115900000Y-102600000D01*
X99400000Y-108900000D02*
X116000000Y-108900000D01*
X116000000Y-108900000D02*
X116100000Y-109000000D01*
X99400000Y-95700000D02*
X99400000Y-108900000D01*
X99400000Y-83800000D02*
X99400000Y-95700000D01*
X99300000Y-71600000D02*
X99300000Y-83700000D01*
X99300000Y-83700000D02*
X99400000Y-83800000D01*
X112000000Y-72700000D02*
X110900000Y-71600000D01*
X110900000Y-71600000D02*
X99300000Y-71600000D01*
X116100000Y-72400000D02*
X112300000Y-72400000D01*
X112300000Y-72400000D02*
X112000000Y-72700000D01*
X132600000Y-72100000D02*
X116400000Y-72100000D01*
X116400000Y-72100000D02*
X116100000Y-72400000D01*
X130700000Y-76300000D02*
X132600000Y-74400000D01*
X132600000Y-74400000D02*
X132600000Y-72100000D01*
X129700000Y-80600000D02*
X129700000Y-77300000D01*
X129700000Y-77300000D02*
X130700000Y-76300000D01*
X120000000Y-82000000D02*
X121400000Y-80600000D01*
X121400000Y-80600000D02*
X129700000Y-80600000D01*
X121300000Y-79500000D02*
X121300000Y-80700000D01*
X121300000Y-80700000D02*
X120000000Y-82000000D01*
X120900000Y-79100000D02*
X121300000Y-79500000D01*
X120100000Y-79100000D02*
X120900000Y-79100000D01*
X122300000Y-79100000D02*
X120100000Y-79100000D01*
D17*
X120200000Y-80500000D02*
X119634315Y-80500000D01*
X119634315Y-80500000D02*
X117300000Y-82834315D01*
X117300000Y-82834315D02*
X117300000Y-107900000D01*
X117300000Y-107900000D02*
X118900000Y-109500000D01*
X118900000Y-109500000D02*
X175950000Y-109500000D01*
X175950000Y-109500000D02*
X178800000Y-106650000D01*
X178800000Y-106650000D02*
X178800000Y-97265685D01*
X178800000Y-97265685D02*
X178800000Y-96700000D01*
X178800000Y-96500000D02*
X178800000Y-96700000D01*
X178800000Y-96700000D02*
X178800000Y-95500000D01*
D15*
X156586666Y-88775834D02*
X156586666Y-90323370D01*
X156586666Y-90323370D02*
X156586666Y-90889055D01*
X157160000Y-87000000D02*
X157160000Y-88202500D01*
X157160000Y-88202500D02*
X156586666Y-88775834D01*
X170599999Y-84299999D02*
X173050000Y-84299999D01*
X173050000Y-84299999D02*
X175200001Y-84299999D01*
X173050000Y-83300000D02*
X173050000Y-84299999D01*
D18*
X171600000Y-93800000D02*
X172338200Y-93800000D01*
X172338200Y-93800000D02*
X175500000Y-90638200D01*
X178600000Y-83700000D02*
X178600000Y-88900000D01*
X178600000Y-88900000D02*
X176861800Y-90638200D01*
X176861800Y-90638200D02*
X175500000Y-90638200D01*
X178600000Y-74400000D02*
X178600000Y-83700000D01*
X178600000Y-71000000D02*
X178600000Y-74400000D01*
D15*
X175900000Y-83600000D02*
X178500000Y-83600000D01*
X178500000Y-83600000D02*
X178600000Y-83700000D01*
D18*
X137334315Y-71000000D02*
X178600000Y-71000000D01*
X178600000Y-74400000D02*
X178600000Y-73538200D01*
X178600000Y-73538200D02*
X178200000Y-73138200D01*
D15*
X175200001Y-84299999D02*
X175900000Y-83600000D01*
X170200000Y-83900000D02*
X170599999Y-84299999D01*
X170599999Y-84299999D02*
X170700001Y-84299999D01*
D18*
X134200000Y-74134315D02*
X137334315Y-71000000D01*
X134200000Y-74700000D02*
X134200000Y-74134315D01*
D19*
X175759947Y-77200729D02*
X175359948Y-77600728D01*
X173199989Y-71699989D02*
X175759947Y-74259947D01*
X140500011Y-71699989D02*
X173199989Y-71699989D01*
X175759947Y-74259947D02*
X175759947Y-77200729D01*
X139500000Y-72700000D02*
X140500011Y-71699989D01*
X141100000Y-72200000D02*
X137600000Y-75700000D01*
X137600000Y-75700000D02*
X137400000Y-75700000D01*
X172800000Y-72200000D02*
X141100000Y-72200000D01*
X175100000Y-74500000D02*
X172800000Y-72200000D01*
X175100000Y-76800000D02*
X175100000Y-74500000D01*
X174600000Y-77300000D02*
X175100000Y-76800000D01*
X174600000Y-78400000D02*
X174600000Y-77300000D01*
D16*
X153150000Y-92050000D02*
X156415685Y-92050000D01*
X157706468Y-90672153D02*
X157706468Y-90106468D01*
X156415685Y-92050000D02*
X157706468Y-90759217D01*
X157706468Y-90759217D02*
X157706468Y-90672153D01*
X152400000Y-103700000D02*
X152799999Y-104099999D01*
X170138548Y-102613168D02*
X170538547Y-102213169D01*
X152799999Y-104099999D02*
X168651717Y-104099999D01*
X168651717Y-104099999D02*
X170138548Y-102613168D01*
D17*
X140050000Y-99948600D02*
X144948600Y-99948600D01*
X144948600Y-99948600D02*
X153350000Y-108350000D01*
X153350000Y-108350000D02*
X174725000Y-108350000D01*
X174725000Y-108350000D02*
X176050000Y-107025000D01*
X176050000Y-107025000D02*
X176700000Y-106375000D01*
X176700000Y-106375000D02*
X176700000Y-106350000D01*
X140925000Y-99950000D02*
X140051400Y-99950000D01*
X140051400Y-99950000D02*
X140050000Y-99948600D01*
D16*
G36*
X133634315Y-73568630D02*
X133460896Y-73828168D01*
X133400000Y-74134315D01*
X133400000Y-74279744D01*
X133300157Y-74520194D01*
X133299844Y-74878236D01*
X133436572Y-75209143D01*
X133689525Y-75462538D01*
X134020194Y-75599843D01*
X134378236Y-75600156D01*
X134709143Y-75463428D01*
X134962538Y-75210475D01*
X135099843Y-74879806D01*
X135100156Y-74521764D01*
X135054476Y-74411209D01*
X137665686Y-71800000D01*
X139321386Y-71800000D01*
X138990857Y-71936572D01*
X138737462Y-72189525D01*
X138600157Y-72520194D01*
X138599844Y-72878236D01*
X138736572Y-73209143D01*
X138953905Y-73426856D01*
X137580370Y-74800391D01*
X137579806Y-74800157D01*
X137221764Y-74799844D01*
X136890857Y-74936572D01*
X136637462Y-75189525D01*
X136500157Y-75520194D01*
X136499844Y-75878236D01*
X136636572Y-76209143D01*
X136889525Y-76462538D01*
X137220194Y-76599843D01*
X137578236Y-76600156D01*
X137909143Y-76463428D01*
X138162538Y-76210475D01*
X138271731Y-75947507D01*
X141369239Y-72850000D01*
X144785769Y-72850000D01*
X144166144Y-73106024D01*
X143603081Y-73668105D01*
X143297978Y-74402876D01*
X143297283Y-75198474D01*
X143601104Y-75933776D01*
X144163185Y-76496839D01*
X144897956Y-76801942D01*
X145693554Y-76802637D01*
X146428856Y-76498816D01*
X146991919Y-75936735D01*
X147297022Y-75201964D01*
X147297717Y-74406366D01*
X146993896Y-73671064D01*
X146431815Y-73108001D01*
X145810478Y-72850000D01*
X172530762Y-72850000D01*
X174450000Y-74769239D01*
X174450000Y-76530761D01*
X174140381Y-76840381D01*
X173999478Y-77051255D01*
X173999478Y-77051256D01*
X173950000Y-77300000D01*
X173950000Y-77777183D01*
X173837462Y-77889525D01*
X173700157Y-78220194D01*
X173699844Y-78578236D01*
X173836572Y-78909143D01*
X174089525Y-79162538D01*
X174420194Y-79299843D01*
X174778236Y-79300156D01*
X175109143Y-79163428D01*
X175362538Y-78910475D01*
X175499843Y-78579806D01*
X175499912Y-78500851D01*
X175538184Y-78500884D01*
X175869091Y-78364156D01*
X176122486Y-78111203D01*
X176259791Y-77780534D01*
X176259949Y-77599911D01*
X176360469Y-77449474D01*
X176379861Y-77351983D01*
X176409947Y-77200729D01*
X176409947Y-74259947D01*
X176360469Y-74011203D01*
X176360469Y-74011202D01*
X176219566Y-73800327D01*
X174219238Y-71800000D01*
X177800000Y-71800000D01*
X177800000Y-72329675D01*
X177690857Y-72374772D01*
X177437462Y-72627725D01*
X177300157Y-72958394D01*
X177299844Y-73316436D01*
X177436572Y-73647343D01*
X177689525Y-73900738D01*
X177800000Y-73946611D01*
X177800000Y-82975000D01*
X175900000Y-82975000D01*
X175660822Y-83022575D01*
X175458058Y-83158058D01*
X174941117Y-83674999D01*
X173868792Y-83674999D01*
X173949843Y-83479806D01*
X173950156Y-83121764D01*
X173813428Y-82790857D01*
X173560475Y-82537462D01*
X173229806Y-82400157D01*
X172871764Y-82399844D01*
X172540857Y-82536572D01*
X172287462Y-82789525D01*
X172150157Y-83120194D01*
X172149844Y-83478236D01*
X172231145Y-83674999D01*
X171080833Y-83674999D01*
X170963428Y-83390857D01*
X170710475Y-83137462D01*
X170379806Y-83000157D01*
X170021764Y-82999844D01*
X169690857Y-83136572D01*
X169437462Y-83389525D01*
X169300157Y-83720194D01*
X169299844Y-84078236D01*
X169436572Y-84409143D01*
X169689525Y-84662538D01*
X170020194Y-84799843D01*
X170245008Y-84800040D01*
X170360822Y-84877424D01*
X170599999Y-84924999D01*
X175200001Y-84924999D01*
X175439178Y-84877424D01*
X175641943Y-84741941D01*
X176158884Y-84225000D01*
X177800000Y-84225000D01*
X177800000Y-88568630D01*
X176593282Y-89775348D01*
X176441168Y-89838200D01*
X175500000Y-89838200D01*
X175193853Y-89899096D01*
X174934314Y-90072515D01*
X172010769Y-92996061D01*
X171779806Y-92900157D01*
X171421764Y-92899844D01*
X171090857Y-93036572D01*
X170837462Y-93289525D01*
X170700157Y-93620194D01*
X170699844Y-93978236D01*
X170836572Y-94309143D01*
X171089525Y-94562538D01*
X171420194Y-94699843D01*
X171778236Y-94700156D01*
X172020632Y-94600000D01*
X172338200Y-94600000D01*
X172644347Y-94539104D01*
X172903885Y-94365685D01*
X175831371Y-91438200D01*
X176441544Y-91438200D01*
X176681994Y-91538043D01*
X177040036Y-91538356D01*
X177370943Y-91401628D01*
X177624338Y-91148675D01*
X177724917Y-90906453D01*
X179125000Y-89506370D01*
X179125000Y-94660446D01*
X178979806Y-94600157D01*
X178621764Y-94599844D01*
X178290857Y-94736572D01*
X178037462Y-94989525D01*
X177900157Y-95320194D01*
X177899844Y-95678236D01*
X177900000Y-95678614D01*
X177900000Y-96699787D01*
X177899844Y-96878236D01*
X177900000Y-96878614D01*
X177900000Y-106277208D01*
X177566072Y-106611136D01*
X177599843Y-106529806D01*
X177599978Y-106375109D01*
X177600000Y-106375000D01*
X177600000Y-106350000D01*
X177600156Y-106171764D01*
X177463428Y-105840857D01*
X177210475Y-105587462D01*
X177044416Y-105518509D01*
X177044415Y-105518508D01*
X177044414Y-105518508D01*
X176879806Y-105450157D01*
X176521764Y-105449844D01*
X176190857Y-105586572D01*
X175937462Y-105839525D01*
X175919553Y-105882655D01*
X175414159Y-106388049D01*
X175287462Y-106514525D01*
X175287305Y-106514903D01*
X174352208Y-107450000D01*
X153722792Y-107450000D01*
X150151028Y-103878236D01*
X151499844Y-103878236D01*
X151636572Y-104209143D01*
X151889525Y-104462538D01*
X152220194Y-104599843D01*
X152489200Y-104600078D01*
X152570389Y-104654327D01*
X152799999Y-104699999D01*
X168651717Y-104699999D01*
X168881327Y-104654327D01*
X169075981Y-104524263D01*
X170487120Y-103113124D01*
X170716783Y-103113325D01*
X171047690Y-102976597D01*
X171301085Y-102723644D01*
X171438390Y-102392975D01*
X171438703Y-102034933D01*
X171301975Y-101704026D01*
X171049022Y-101450631D01*
X170718353Y-101313326D01*
X170360311Y-101313013D01*
X170029404Y-101449741D01*
X169776009Y-101702694D01*
X169638704Y-102033363D01*
X169638502Y-102264686D01*
X168403189Y-103499999D01*
X153291163Y-103499999D01*
X153163428Y-103190857D01*
X152910475Y-102937462D01*
X152579806Y-102800157D01*
X152221764Y-102799844D01*
X151890857Y-102936572D01*
X151637462Y-103189525D01*
X151500157Y-103520194D01*
X151499844Y-103878236D01*
X150151028Y-103878236D01*
X145584996Y-99312204D01*
X145293015Y-99117108D01*
X144948600Y-99048600D01*
X140050213Y-99048600D01*
X139871764Y-99048444D01*
X139540857Y-99185172D01*
X139287462Y-99438125D01*
X139150157Y-99768794D01*
X139149844Y-100126836D01*
X139286572Y-100457743D01*
X139539525Y-100711138D01*
X139703747Y-100779329D01*
X139706985Y-100781492D01*
X139710771Y-100782245D01*
X139870194Y-100848443D01*
X140044338Y-100848595D01*
X140051400Y-100850000D01*
X140924787Y-100850000D01*
X141103236Y-100850156D01*
X141107002Y-100848600D01*
X144575808Y-100848600D01*
X152327208Y-108600000D01*
X119272792Y-108600000D01*
X118200000Y-107527208D01*
X118200000Y-104096054D01*
X125199783Y-104096054D01*
X125503604Y-104831356D01*
X126065685Y-105394419D01*
X126800456Y-105699522D01*
X127596054Y-105700217D01*
X127845388Y-105597194D01*
X143297283Y-105597194D01*
X143601104Y-106332496D01*
X144163185Y-106895559D01*
X144897956Y-107200662D01*
X145693554Y-107201357D01*
X146428856Y-106897536D01*
X146991919Y-106335455D01*
X147297022Y-105600684D01*
X147297717Y-104805086D01*
X146993896Y-104069784D01*
X146431815Y-103506721D01*
X145697044Y-103201618D01*
X144901446Y-103200923D01*
X144166144Y-103504744D01*
X143603081Y-104066825D01*
X143297978Y-104801596D01*
X143297283Y-105597194D01*
X127845388Y-105597194D01*
X128331356Y-105396396D01*
X128894419Y-104834315D01*
X129199522Y-104099544D01*
X129200217Y-103303946D01*
X128896396Y-102568644D01*
X128334315Y-102005581D01*
X127599544Y-101700478D01*
X126803946Y-101699783D01*
X126068644Y-102003604D01*
X125505581Y-102565685D01*
X125200478Y-103300456D01*
X125199783Y-104096054D01*
X118200000Y-104096054D01*
X118200000Y-92687830D01*
X132177875Y-92687830D01*
X132177875Y-95311650D01*
X132216681Y-95506740D01*
X132327190Y-95672130D01*
X132492580Y-95782639D01*
X132687670Y-95821445D01*
X135311490Y-95821445D01*
X135506580Y-95782639D01*
X135671970Y-95672130D01*
X135782479Y-95506740D01*
X135821285Y-95311650D01*
X135821285Y-94358570D01*
X140183277Y-94358570D01*
X140458542Y-95024763D01*
X140967796Y-95534907D01*
X141633508Y-95811334D01*
X142354330Y-95811963D01*
X143020523Y-95536698D01*
X143530667Y-95027444D01*
X143807094Y-94361732D01*
X143807723Y-93640910D01*
X143532458Y-92974717D01*
X143023204Y-92464573D01*
X142454040Y-92228236D01*
X152249844Y-92228236D01*
X152386572Y-92559143D01*
X152639525Y-92812538D01*
X152970194Y-92949843D01*
X153328236Y-92950156D01*
X153659143Y-92813428D01*
X153822857Y-92650000D01*
X156415685Y-92650000D01*
X156645295Y-92604328D01*
X156839949Y-92474264D01*
X158130732Y-91183481D01*
X158260796Y-90988827D01*
X158301509Y-90784148D01*
X158469006Y-90616943D01*
X158606311Y-90286274D01*
X158606624Y-89928232D01*
X158469896Y-89597325D01*
X158216943Y-89343930D01*
X157886274Y-89206625D01*
X157528232Y-89206312D01*
X157211666Y-89337114D01*
X157211666Y-89034718D01*
X157601942Y-88644442D01*
X157737425Y-88441677D01*
X157785001Y-88202500D01*
X157785000Y-88202495D01*
X157785000Y-87647773D01*
X157922538Y-87510475D01*
X158059843Y-87179806D01*
X158060156Y-86821764D01*
X157923428Y-86490857D01*
X157670475Y-86237462D01*
X157339806Y-86100157D01*
X156981764Y-86099844D01*
X156650857Y-86236572D01*
X156397462Y-86489525D01*
X156260157Y-86820194D01*
X156259844Y-87178236D01*
X156396572Y-87509143D01*
X156535000Y-87647813D01*
X156535000Y-87943616D01*
X156144724Y-88333892D01*
X156009241Y-88536657D01*
X155961666Y-88775834D01*
X155961666Y-90241282D01*
X155824128Y-90378580D01*
X155686823Y-90709249D01*
X155686510Y-91067291D01*
X155823238Y-91398198D01*
X155874950Y-91450000D01*
X153822729Y-91450000D01*
X153660475Y-91287462D01*
X153329806Y-91150157D01*
X152971764Y-91149844D01*
X152640857Y-91286572D01*
X152387462Y-91539525D01*
X152250157Y-91870194D01*
X152249844Y-92228236D01*
X142454040Y-92228236D01*
X142357492Y-92188146D01*
X141636670Y-92187517D01*
X140970477Y-92462782D01*
X140460333Y-92972036D01*
X140183906Y-93637748D01*
X140183277Y-94358570D01*
X135821285Y-94358570D01*
X135821285Y-92687830D01*
X135782479Y-92492740D01*
X135693512Y-92359590D01*
X136185317Y-92359590D01*
X136460582Y-93025783D01*
X136969836Y-93535927D01*
X137635548Y-93812354D01*
X138356370Y-93812983D01*
X139022563Y-93537718D01*
X139532707Y-93028464D01*
X139809134Y-92362752D01*
X139809763Y-91641930D01*
X139534498Y-90975737D01*
X139025244Y-90465593D01*
X138772417Y-90360610D01*
X140183277Y-90360610D01*
X140458542Y-91026803D01*
X140967796Y-91536947D01*
X141633508Y-91813374D01*
X142354330Y-91814003D01*
X143020523Y-91538738D01*
X143530667Y-91029484D01*
X143807094Y-90363772D01*
X143807723Y-89642950D01*
X143532458Y-88976757D01*
X143023204Y-88466613D01*
X142357492Y-88190186D01*
X141636670Y-88189557D01*
X140970477Y-88464822D01*
X140460333Y-88974076D01*
X140183906Y-89639788D01*
X140183277Y-90360610D01*
X138772417Y-90360610D01*
X138359532Y-90189166D01*
X137638710Y-90188537D01*
X136972517Y-90463802D01*
X136462373Y-90973056D01*
X136185946Y-91638768D01*
X136185317Y-92359590D01*
X135693512Y-92359590D01*
X135671970Y-92327350D01*
X135506580Y-92216841D01*
X135311490Y-92178035D01*
X132687670Y-92178035D01*
X132492580Y-92216841D01*
X132327190Y-92327350D01*
X132216681Y-92492740D01*
X132177875Y-92687830D01*
X118200000Y-92687830D01*
X118200000Y-91237255D01*
X132799460Y-91237255D01*
X132934026Y-91510922D01*
X133592660Y-91803815D01*
X134313243Y-91822364D01*
X134986075Y-91563746D01*
X135065134Y-91510922D01*
X135199700Y-91237255D01*
X133999580Y-90037135D01*
X132799460Y-91237255D01*
X118200000Y-91237255D01*
X118200000Y-90315443D01*
X132178996Y-90315443D01*
X132437614Y-90988275D01*
X132490438Y-91067334D01*
X132764105Y-91201900D01*
X133964225Y-90001780D01*
X134034935Y-90001780D01*
X135235055Y-91201900D01*
X135508722Y-91067334D01*
X135801615Y-90408700D01*
X135820164Y-89688117D01*
X135561546Y-89015285D01*
X135508722Y-88936226D01*
X135235055Y-88801660D01*
X134034935Y-90001780D01*
X133964225Y-90001780D01*
X132764105Y-88801660D01*
X132490438Y-88936226D01*
X132197545Y-89594860D01*
X132178996Y-90315443D01*
X118200000Y-90315443D01*
X118200000Y-88766305D01*
X132799460Y-88766305D01*
X133999580Y-89966425D01*
X135199700Y-88766305D01*
X135065134Y-88492638D01*
X134770534Y-88361630D01*
X136185317Y-88361630D01*
X136460582Y-89027823D01*
X136969836Y-89537967D01*
X137635548Y-89814394D01*
X138356370Y-89815023D01*
X139022563Y-89539758D01*
X139532707Y-89030504D01*
X139809134Y-88364792D01*
X139809763Y-87643970D01*
X139534498Y-86977777D01*
X139025244Y-86467633D01*
X138772417Y-86362650D01*
X140183277Y-86362650D01*
X140458542Y-87028843D01*
X140967796Y-87538987D01*
X141633508Y-87815414D01*
X142354330Y-87816043D01*
X143020523Y-87540778D01*
X143530667Y-87031524D01*
X143807094Y-86365812D01*
X143807723Y-85644990D01*
X143532458Y-84978797D01*
X143023204Y-84468653D01*
X142357492Y-84192226D01*
X141636670Y-84191597D01*
X140970477Y-84466862D01*
X140460333Y-84976116D01*
X140183906Y-85641828D01*
X140183277Y-86362650D01*
X138772417Y-86362650D01*
X138359532Y-86191206D01*
X137638710Y-86190577D01*
X136972517Y-86465842D01*
X136462373Y-86975096D01*
X136185946Y-87640808D01*
X136185317Y-88361630D01*
X134770534Y-88361630D01*
X134406500Y-88199745D01*
X133685917Y-88181196D01*
X133013085Y-88439814D01*
X132934026Y-88492638D01*
X132799460Y-88766305D01*
X118200000Y-88766305D01*
X118200000Y-86362650D01*
X132187357Y-86362650D01*
X132462622Y-87028843D01*
X132971876Y-87538987D01*
X133637588Y-87815414D01*
X134358410Y-87816043D01*
X135024603Y-87540778D01*
X135534747Y-87031524D01*
X135811174Y-86365812D01*
X135811803Y-85644990D01*
X135536538Y-84978797D01*
X135027284Y-84468653D01*
X134361572Y-84192226D01*
X133640750Y-84191597D01*
X132974557Y-84466862D01*
X132464413Y-84976116D01*
X132187986Y-85641828D01*
X132187357Y-86362650D01*
X118200000Y-86362650D01*
X118200000Y-83207107D01*
X120007107Y-81400000D01*
X120199787Y-81400000D01*
X120378236Y-81400156D01*
X120709143Y-81263428D01*
X120962538Y-81010475D01*
X121099843Y-80679806D01*
X121100156Y-80321764D01*
X120963428Y-79990857D01*
X120710475Y-79737462D01*
X120544416Y-79668509D01*
X120544415Y-79668508D01*
X120544414Y-79668508D01*
X120379806Y-79600157D01*
X120021764Y-79599844D01*
X120021386Y-79600000D01*
X119634315Y-79600000D01*
X119461982Y-79634279D01*
X119379806Y-79600157D01*
X119021764Y-79599844D01*
X118690857Y-79736572D01*
X118437462Y-79989525D01*
X118300157Y-80320194D01*
X118299946Y-80561577D01*
X116663604Y-82197919D01*
X116468508Y-82489900D01*
X116400000Y-82834315D01*
X116400000Y-107900000D01*
X116468508Y-108244415D01*
X116663604Y-108536396D01*
X117952208Y-109825000D01*
X98874939Y-109825000D01*
X98874939Y-76699614D01*
X125199783Y-76699614D01*
X125503604Y-77434916D01*
X126065685Y-77997979D01*
X126800456Y-78303082D01*
X127596054Y-78303777D01*
X128331356Y-77999956D01*
X128894419Y-77437875D01*
X129199522Y-76703104D01*
X129200217Y-75907506D01*
X128896396Y-75172204D01*
X128334315Y-74609141D01*
X127599544Y-74304038D01*
X126803946Y-74303343D01*
X126068644Y-74607164D01*
X125505581Y-75169245D01*
X125200478Y-75904016D01*
X125199783Y-76699614D01*
X98874939Y-76699614D01*
X98874939Y-70875000D01*
X136327944Y-70875000D01*
X133634315Y-73568630D01*
X133634315Y-73568630D01*
G37*
X133634315Y-73568630D02*
X133460896Y-73828168D01*
X133400000Y-74134315D01*
X133400000Y-74279744D01*
X133300157Y-74520194D01*
X133299844Y-74878236D01*
X133436572Y-75209143D01*
X133689525Y-75462538D01*
X134020194Y-75599843D01*
X134378236Y-75600156D01*
X134709143Y-75463428D01*
X134962538Y-75210475D01*
X135099843Y-74879806D01*
X135100156Y-74521764D01*
X135054476Y-74411209D01*
X137665686Y-71800000D01*
X139321386Y-71800000D01*
X138990857Y-71936572D01*
X138737462Y-72189525D01*
X138600157Y-72520194D01*
X138599844Y-72878236D01*
X138736572Y-73209143D01*
X138953905Y-73426856D01*
X137580370Y-74800391D01*
X137579806Y-74800157D01*
X137221764Y-74799844D01*
X136890857Y-74936572D01*
X136637462Y-75189525D01*
X136500157Y-75520194D01*
X136499844Y-75878236D01*
X136636572Y-76209143D01*
X136889525Y-76462538D01*
X137220194Y-76599843D01*
X137578236Y-76600156D01*
X137909143Y-76463428D01*
X138162538Y-76210475D01*
X138271731Y-75947507D01*
X141369239Y-72850000D01*
X144785769Y-72850000D01*
X144166144Y-73106024D01*
X143603081Y-73668105D01*
X143297978Y-74402876D01*
X143297283Y-75198474D01*
X143601104Y-75933776D01*
X144163185Y-76496839D01*
X144897956Y-76801942D01*
X145693554Y-76802637D01*
X146428856Y-76498816D01*
X146991919Y-75936735D01*
X147297022Y-75201964D01*
X147297717Y-74406366D01*
X146993896Y-73671064D01*
X146431815Y-73108001D01*
X145810478Y-72850000D01*
X172530762Y-72850000D01*
X174450000Y-74769239D01*
X174450000Y-76530761D01*
X174140381Y-76840381D01*
X173999478Y-77051255D01*
X173999478Y-77051256D01*
X173950000Y-77300000D01*
X173950000Y-77777183D01*
X173837462Y-77889525D01*
X173700157Y-78220194D01*
X173699844Y-78578236D01*
X173836572Y-78909143D01*
X174089525Y-79162538D01*
X174420194Y-79299843D01*
X174778236Y-79300156D01*
X175109143Y-79163428D01*
X175362538Y-78910475D01*
X175499843Y-78579806D01*
X175499912Y-78500851D01*
X175538184Y-78500884D01*
X175869091Y-78364156D01*
X176122486Y-78111203D01*
X176259791Y-77780534D01*
X176259949Y-77599911D01*
X176360469Y-77449474D01*
X176379861Y-77351983D01*
X176409947Y-77200729D01*
X176409947Y-74259947D01*
X176360469Y-74011203D01*
X176360469Y-74011202D01*
X176219566Y-73800327D01*
X174219238Y-71800000D01*
X177800000Y-71800000D01*
X177800000Y-72329675D01*
X177690857Y-72374772D01*
X177437462Y-72627725D01*
X177300157Y-72958394D01*
X177299844Y-73316436D01*
X177436572Y-73647343D01*
X177689525Y-73900738D01*
X177800000Y-73946611D01*
X177800000Y-82975000D01*
X175900000Y-82975000D01*
X175660822Y-83022575D01*
X175458058Y-83158058D01*
X174941117Y-83674999D01*
X173868792Y-83674999D01*
X173949843Y-83479806D01*
X173950156Y-83121764D01*
X173813428Y-82790857D01*
X173560475Y-82537462D01*
X173229806Y-82400157D01*
X172871764Y-82399844D01*
X172540857Y-82536572D01*
X172287462Y-82789525D01*
X172150157Y-83120194D01*
X172149844Y-83478236D01*
X172231145Y-83674999D01*
X171080833Y-83674999D01*
X170963428Y-83390857D01*
X170710475Y-83137462D01*
X170379806Y-83000157D01*
X170021764Y-82999844D01*
X169690857Y-83136572D01*
X169437462Y-83389525D01*
X169300157Y-83720194D01*
X169299844Y-84078236D01*
X169436572Y-84409143D01*
X169689525Y-84662538D01*
X170020194Y-84799843D01*
X170245008Y-84800040D01*
X170360822Y-84877424D01*
X170599999Y-84924999D01*
X175200001Y-84924999D01*
X175439178Y-84877424D01*
X175641943Y-84741941D01*
X176158884Y-84225000D01*
X177800000Y-84225000D01*
X177800000Y-88568630D01*
X176593282Y-89775348D01*
X176441168Y-89838200D01*
X175500000Y-89838200D01*
X175193853Y-89899096D01*
X174934314Y-90072515D01*
X172010769Y-92996061D01*
X171779806Y-92900157D01*
X171421764Y-92899844D01*
X171090857Y-93036572D01*
X170837462Y-93289525D01*
X170700157Y-93620194D01*
X170699844Y-93978236D01*
X170836572Y-94309143D01*
X171089525Y-94562538D01*
X171420194Y-94699843D01*
X171778236Y-94700156D01*
X172020632Y-94600000D01*
X172338200Y-94600000D01*
X172644347Y-94539104D01*
X172903885Y-94365685D01*
X175831371Y-91438200D01*
X176441544Y-91438200D01*
X176681994Y-91538043D01*
X177040036Y-91538356D01*
X177370943Y-91401628D01*
X177624338Y-91148675D01*
X177724917Y-90906453D01*
X179125000Y-89506370D01*
X179125000Y-94660446D01*
X178979806Y-94600157D01*
X178621764Y-94599844D01*
X178290857Y-94736572D01*
X178037462Y-94989525D01*
X177900157Y-95320194D01*
X177899844Y-95678236D01*
X177900000Y-95678614D01*
X177900000Y-96699787D01*
X177899844Y-96878236D01*
X177900000Y-96878614D01*
X177900000Y-106277208D01*
X177566072Y-106611136D01*
X177599843Y-106529806D01*
X177599978Y-106375109D01*
X177600000Y-106375000D01*
X177600000Y-106350000D01*
X177600156Y-106171764D01*
X177463428Y-105840857D01*
X177210475Y-105587462D01*
X177044416Y-105518509D01*
X177044415Y-105518508D01*
X177044414Y-105518508D01*
X176879806Y-105450157D01*
X176521764Y-105449844D01*
X176190857Y-105586572D01*
X175937462Y-105839525D01*
X175919553Y-105882655D01*
X175414159Y-106388049D01*
X175287462Y-106514525D01*
X175287305Y-106514903D01*
X174352208Y-107450000D01*
X153722792Y-107450000D01*
X150151028Y-103878236D01*
X151499844Y-103878236D01*
X151636572Y-104209143D01*
X151889525Y-104462538D01*
X152220194Y-104599843D01*
X152489200Y-104600078D01*
X152570389Y-104654327D01*
X152799999Y-104699999D01*
X168651717Y-104699999D01*
X168881327Y-104654327D01*
X169075981Y-104524263D01*
X170487120Y-103113124D01*
X170716783Y-103113325D01*
X171047690Y-102976597D01*
X171301085Y-102723644D01*
X171438390Y-102392975D01*
X171438703Y-102034933D01*
X171301975Y-101704026D01*
X171049022Y-101450631D01*
X170718353Y-101313326D01*
X170360311Y-101313013D01*
X170029404Y-101449741D01*
X169776009Y-101702694D01*
X169638704Y-102033363D01*
X169638502Y-102264686D01*
X168403189Y-103499999D01*
X153291163Y-103499999D01*
X153163428Y-103190857D01*
X152910475Y-102937462D01*
X152579806Y-102800157D01*
X152221764Y-102799844D01*
X151890857Y-102936572D01*
X151637462Y-103189525D01*
X151500157Y-103520194D01*
X151499844Y-103878236D01*
X150151028Y-103878236D01*
X145584996Y-99312204D01*
X145293015Y-99117108D01*
X144948600Y-99048600D01*
X140050213Y-99048600D01*
X139871764Y-99048444D01*
X139540857Y-99185172D01*
X139287462Y-99438125D01*
X139150157Y-99768794D01*
X139149844Y-100126836D01*
X139286572Y-100457743D01*
X139539525Y-100711138D01*
X139703747Y-100779329D01*
X139706985Y-100781492D01*
X139710771Y-100782245D01*
X139870194Y-100848443D01*
X140044338Y-100848595D01*
X140051400Y-100850000D01*
X140924787Y-100850000D01*
X141103236Y-100850156D01*
X141107002Y-100848600D01*
X144575808Y-100848600D01*
X152327208Y-108600000D01*
X119272792Y-108600000D01*
X118200000Y-107527208D01*
X118200000Y-104096054D01*
X125199783Y-104096054D01*
X125503604Y-104831356D01*
X126065685Y-105394419D01*
X126800456Y-105699522D01*
X127596054Y-105700217D01*
X127845388Y-105597194D01*
X143297283Y-105597194D01*
X143601104Y-106332496D01*
X144163185Y-106895559D01*
X144897956Y-107200662D01*
X145693554Y-107201357D01*
X146428856Y-106897536D01*
X146991919Y-106335455D01*
X147297022Y-105600684D01*
X147297717Y-104805086D01*
X146993896Y-104069784D01*
X146431815Y-103506721D01*
X145697044Y-103201618D01*
X144901446Y-103200923D01*
X144166144Y-103504744D01*
X143603081Y-104066825D01*
X143297978Y-104801596D01*
X143297283Y-105597194D01*
X127845388Y-105597194D01*
X128331356Y-105396396D01*
X128894419Y-104834315D01*
X129199522Y-104099544D01*
X129200217Y-103303946D01*
X128896396Y-102568644D01*
X128334315Y-102005581D01*
X127599544Y-101700478D01*
X126803946Y-101699783D01*
X126068644Y-102003604D01*
X125505581Y-102565685D01*
X125200478Y-103300456D01*
X125199783Y-104096054D01*
X118200000Y-104096054D01*
X118200000Y-92687830D01*
X132177875Y-92687830D01*
X132177875Y-95311650D01*
X132216681Y-95506740D01*
X132327190Y-95672130D01*
X132492580Y-95782639D01*
X132687670Y-95821445D01*
X135311490Y-95821445D01*
X135506580Y-95782639D01*
X135671970Y-95672130D01*
X135782479Y-95506740D01*
X135821285Y-95311650D01*
X135821285Y-94358570D01*
X140183277Y-94358570D01*
X140458542Y-95024763D01*
X140967796Y-95534907D01*
X141633508Y-95811334D01*
X142354330Y-95811963D01*
X143020523Y-95536698D01*
X143530667Y-95027444D01*
X143807094Y-94361732D01*
X143807723Y-93640910D01*
X143532458Y-92974717D01*
X143023204Y-92464573D01*
X142454040Y-92228236D01*
X152249844Y-92228236D01*
X152386572Y-92559143D01*
X152639525Y-92812538D01*
X152970194Y-92949843D01*
X153328236Y-92950156D01*
X153659143Y-92813428D01*
X153822857Y-92650000D01*
X156415685Y-92650000D01*
X156645295Y-92604328D01*
X156839949Y-92474264D01*
X158130732Y-91183481D01*
X158260796Y-90988827D01*
X158301509Y-90784148D01*
X158469006Y-90616943D01*
X158606311Y-90286274D01*
X158606624Y-89928232D01*
X158469896Y-89597325D01*
X158216943Y-89343930D01*
X157886274Y-89206625D01*
X157528232Y-89206312D01*
X157211666Y-89337114D01*
X157211666Y-89034718D01*
X157601942Y-88644442D01*
X157737425Y-88441677D01*
X157785001Y-88202500D01*
X157785000Y-88202495D01*
X157785000Y-87647773D01*
X157922538Y-87510475D01*
X158059843Y-87179806D01*
X158060156Y-86821764D01*
X157923428Y-86490857D01*
X157670475Y-86237462D01*
X157339806Y-86100157D01*
X156981764Y-86099844D01*
X156650857Y-86236572D01*
X156397462Y-86489525D01*
X156260157Y-86820194D01*
X156259844Y-87178236D01*
X156396572Y-87509143D01*
X156535000Y-87647813D01*
X156535000Y-87943616D01*
X156144724Y-88333892D01*
X156009241Y-88536657D01*
X155961666Y-88775834D01*
X155961666Y-90241282D01*
X155824128Y-90378580D01*
X155686823Y-90709249D01*
X155686510Y-91067291D01*
X155823238Y-91398198D01*
X155874950Y-91450000D01*
X153822729Y-91450000D01*
X153660475Y-91287462D01*
X153329806Y-91150157D01*
X152971764Y-91149844D01*
X152640857Y-91286572D01*
X152387462Y-91539525D01*
X152250157Y-91870194D01*
X152249844Y-92228236D01*
X142454040Y-92228236D01*
X142357492Y-92188146D01*
X141636670Y-92187517D01*
X140970477Y-92462782D01*
X140460333Y-92972036D01*
X140183906Y-93637748D01*
X140183277Y-94358570D01*
X135821285Y-94358570D01*
X135821285Y-92687830D01*
X135782479Y-92492740D01*
X135693512Y-92359590D01*
X136185317Y-92359590D01*
X136460582Y-93025783D01*
X136969836Y-93535927D01*
X137635548Y-93812354D01*
X138356370Y-93812983D01*
X139022563Y-93537718D01*
X139532707Y-93028464D01*
X139809134Y-92362752D01*
X139809763Y-91641930D01*
X139534498Y-90975737D01*
X139025244Y-90465593D01*
X138772417Y-90360610D01*
X140183277Y-90360610D01*
X140458542Y-91026803D01*
X140967796Y-91536947D01*
X141633508Y-91813374D01*
X142354330Y-91814003D01*
X143020523Y-91538738D01*
X143530667Y-91029484D01*
X143807094Y-90363772D01*
X143807723Y-89642950D01*
X143532458Y-88976757D01*
X143023204Y-88466613D01*
X142357492Y-88190186D01*
X141636670Y-88189557D01*
X140970477Y-88464822D01*
X140460333Y-88974076D01*
X140183906Y-89639788D01*
X140183277Y-90360610D01*
X138772417Y-90360610D01*
X138359532Y-90189166D01*
X137638710Y-90188537D01*
X136972517Y-90463802D01*
X136462373Y-90973056D01*
X136185946Y-91638768D01*
X136185317Y-92359590D01*
X135693512Y-92359590D01*
X135671970Y-92327350D01*
X135506580Y-92216841D01*
X135311490Y-92178035D01*
X132687670Y-92178035D01*
X132492580Y-92216841D01*
X132327190Y-92327350D01*
X132216681Y-92492740D01*
X132177875Y-92687830D01*
X118200000Y-92687830D01*
X118200000Y-91237255D01*
X132799460Y-91237255D01*
X132934026Y-91510922D01*
X133592660Y-91803815D01*
X134313243Y-91822364D01*
X134986075Y-91563746D01*
X135065134Y-91510922D01*
X135199700Y-91237255D01*
X133999580Y-90037135D01*
X132799460Y-91237255D01*
X118200000Y-91237255D01*
X118200000Y-90315443D01*
X132178996Y-90315443D01*
X132437614Y-90988275D01*
X132490438Y-91067334D01*
X132764105Y-91201900D01*
X133964225Y-90001780D01*
X134034935Y-90001780D01*
X135235055Y-91201900D01*
X135508722Y-91067334D01*
X135801615Y-90408700D01*
X135820164Y-89688117D01*
X135561546Y-89015285D01*
X135508722Y-88936226D01*
X135235055Y-88801660D01*
X134034935Y-90001780D01*
X133964225Y-90001780D01*
X132764105Y-88801660D01*
X132490438Y-88936226D01*
X132197545Y-89594860D01*
X132178996Y-90315443D01*
X118200000Y-90315443D01*
X118200000Y-88766305D01*
X132799460Y-88766305D01*
X133999580Y-89966425D01*
X135199700Y-88766305D01*
X135065134Y-88492638D01*
X134770534Y-88361630D01*
X136185317Y-88361630D01*
X136460582Y-89027823D01*
X136969836Y-89537967D01*
X137635548Y-89814394D01*
X138356370Y-89815023D01*
X139022563Y-89539758D01*
X139532707Y-89030504D01*
X139809134Y-88364792D01*
X139809763Y-87643970D01*
X139534498Y-86977777D01*
X139025244Y-86467633D01*
X138772417Y-86362650D01*
X140183277Y-86362650D01*
X140458542Y-87028843D01*
X140967796Y-87538987D01*
X141633508Y-87815414D01*
X142354330Y-87816043D01*
X143020523Y-87540778D01*
X143530667Y-87031524D01*
X143807094Y-86365812D01*
X143807723Y-85644990D01*
X143532458Y-84978797D01*
X143023204Y-84468653D01*
X142357492Y-84192226D01*
X141636670Y-84191597D01*
X140970477Y-84466862D01*
X140460333Y-84976116D01*
X140183906Y-85641828D01*
X140183277Y-86362650D01*
X138772417Y-86362650D01*
X138359532Y-86191206D01*
X137638710Y-86190577D01*
X136972517Y-86465842D01*
X136462373Y-86975096D01*
X136185946Y-87640808D01*
X136185317Y-88361630D01*
X134770534Y-88361630D01*
X134406500Y-88199745D01*
X133685917Y-88181196D01*
X133013085Y-88439814D01*
X132934026Y-88492638D01*
X132799460Y-88766305D01*
X118200000Y-88766305D01*
X118200000Y-86362650D01*
X132187357Y-86362650D01*
X132462622Y-87028843D01*
X132971876Y-87538987D01*
X133637588Y-87815414D01*
X134358410Y-87816043D01*
X135024603Y-87540778D01*
X135534747Y-87031524D01*
X135811174Y-86365812D01*
X135811803Y-85644990D01*
X135536538Y-84978797D01*
X135027284Y-84468653D01*
X134361572Y-84192226D01*
X133640750Y-84191597D01*
X132974557Y-84466862D01*
X132464413Y-84976116D01*
X132187986Y-85641828D01*
X132187357Y-86362650D01*
X118200000Y-86362650D01*
X118200000Y-83207107D01*
X120007107Y-81400000D01*
X120199787Y-81400000D01*
X120378236Y-81400156D01*
X120709143Y-81263428D01*
X120962538Y-81010475D01*
X121099843Y-80679806D01*
X121100156Y-80321764D01*
X120963428Y-79990857D01*
X120710475Y-79737462D01*
X120544416Y-79668509D01*
X120544415Y-79668508D01*
X120544414Y-79668508D01*
X120379806Y-79600157D01*
X120021764Y-79599844D01*
X120021386Y-79600000D01*
X119634315Y-79600000D01*
X119461982Y-79634279D01*
X119379806Y-79600157D01*
X119021764Y-79599844D01*
X118690857Y-79736572D01*
X118437462Y-79989525D01*
X118300157Y-80320194D01*
X118299946Y-80561577D01*
X116663604Y-82197919D01*
X116468508Y-82489900D01*
X116400000Y-82834315D01*
X116400000Y-107900000D01*
X116468508Y-108244415D01*
X116663604Y-108536396D01*
X117952208Y-109825000D01*
X98874939Y-109825000D01*
X98874939Y-76699614D01*
X125199783Y-76699614D01*
X125503604Y-77434916D01*
X126065685Y-77997979D01*
X126800456Y-78303082D01*
X127596054Y-78303777D01*
X128331356Y-77999956D01*
X128894419Y-77437875D01*
X129199522Y-76703104D01*
X129200217Y-75907506D01*
X128896396Y-75172204D01*
X128334315Y-74609141D01*
X127599544Y-74304038D01*
X126803946Y-74303343D01*
X126068644Y-74607164D01*
X125505581Y-75169245D01*
X125200478Y-75904016D01*
X125199783Y-76699614D01*
X98874939Y-76699614D01*
X98874939Y-70875000D01*
X136327944Y-70875000D01*
X133634315Y-73568630D01*
M02*
