M48
INCH,TZ
T1C0.016
T2C0.069
T3C0.079
%
G90
G05
T1
X39094Y-28189
X39134Y-32992
X39134Y-37677
X39134Y-42874
X44094Y-28622
X45591Y-32520
X45630Y-36575
X45630Y-40394
X45709Y-28504
X45709Y-42913
X46732Y-34921
X46772Y-39055
X46811Y-42402
X46929Y-31693
X47244Y-32283
X47283Y-31142
X47323Y-31693
X48386Y-38031
X48465Y-35630
X49094Y-30197
X50591Y-37835
X50984Y-36299
X51063Y-31732
X51260Y-42520
X51457Y-30039
X51614Y-38701
X51811Y-40197
X52205Y-28386
X52795Y-30472
X52835Y-29409
X53228Y-32244
X53366Y-40994
X54094Y-29803
X54646Y-29921
X54921Y-28622
X55000Y-32205
X55138Y-39350
X55276Y-38740
X55482Y-39350
X55787Y-28819
X55787Y-41506
X58228Y-41407
X58396Y-39203
X58799Y-30748
X59291Y-35551
X59685Y-40236
X59921Y-36969
X60000Y-40827
X60295Y-36240
X60512Y-32815
X60512Y-40669
X60591Y-30276
X60692Y-41998
X61648Y-35783
X61811Y-30650
X61874Y-34252
X61962Y-35099
X62008Y-41969
X62089Y-35475
X62835Y-33543
X63039Y-36071
X63228Y-29862
X63425Y-28740
X63702Y-31483
X63819Y-39921
X64449Y-33780
X64705Y-36024
X65276Y-29370
X66220Y-36654
X66850Y-37283
X67008Y-33031
X67125Y-41998
X67141Y-40241
X67165Y-40669
X67480Y-29921
X67559Y-36929
X67697Y-32638
X67766Y-38406
X67776Y-34409
X68130Y-32795
X68445Y-41654
X68740Y-30866
X68957Y-39833
X69039Y-30551
X69310Y-34666
X69311Y-42136
X69540Y-30067
X69567Y-41870
X69631Y-35684
X69685Y-28661
X70157Y-28795
X70189Y-36645
X70394Y-37598
X70394Y-38071
T2
X52756Y-33860
X52756Y-35434
X52756Y-37008
X54330Y-34647
X54330Y-36221
X55904Y-33860
X55904Y-35434
X55904Y-37008
T3
X50079Y-30041
X50079Y-40827
X57204Y-29450
X57204Y-41418
T0
M30
