G04 #@! TF.GenerationSoftware,KiCad,Pcbnew,(2017-01-11 revision e99b79cb2)-master*
G04 #@! TF.CreationDate,2017-11-20T10:16:14+02:00*
G04 #@! TF.ProjectId,display,646973706C61792E6B696361645F7063,1*
G04 #@! TF.FileFunction,Soldermask,Top*
G04 #@! TF.FilePolarity,Negative*
%FSLAX46Y46*%
G04 Gerber Fmt 4.6, Leading zero omitted, Abs format (unit mm)*
G04 Created by KiCad (PCBNEW (2017-01-11 revision e99b79cb2)-master) date Mon Nov 20 10:16:14 2017*
%MOMM*%
%LPD*%
G01*
G04 APERTURE LIST*
%ADD10C,0.100000*%
%ADD11R,1.900000X1.900000*%
%ADD12R,0.700000X1.600000*%
%ADD13R,1.000000X1.924000*%
%ADD14R,1.035000X1.924000*%
%ADD15R,6.300000X6.300000*%
%ADD16R,1.600000X0.700000*%
%ADD17R,1.162000X1.339800*%
%ADD18R,1.339800X1.162000*%
%ADD19R,2.299920X1.398220*%
%ADD20R,1.898600X0.798780*%
%ADD21R,1.898600X0.679400*%
%ADD22R,0.798780X1.898600*%
%ADD23R,0.679400X1.898600*%
%ADD24R,2.099260X2.797760*%
%ADD25R,1.035000X2.305000*%
%ADD26R,1.924000X1.000000*%
%ADD27R,3.999180X2.998420*%
%ADD28R,2.998420X3.999180*%
%ADD29R,2.800000X3.100000*%
%ADD30R,1.700000X1.400000*%
%ADD31R,2.300000X2.579320*%
%ADD32R,1.799540X1.697940*%
%ADD33R,1.100000X1.750000*%
%ADD34R,3.900000X3.199080*%
%ADD35R,3.023820X3.023820*%
%ADD36C,3.023820*%
%ADD37C,3.399740*%
%ADD38R,0.900000X1.600000*%
%ADD39R,3.000000X2.000000*%
%ADD40R,1.398220X4.397960*%
G04 APERTURE END LIST*
D10*
D11*
X149200000Y-108900000D03*
X174200000Y-108900000D03*
D12*
X171448266Y-105201426D03*
X170948266Y-105201426D03*
X170448266Y-105201426D03*
X169948266Y-105201426D03*
X169448266Y-105201426D03*
X168948266Y-105201426D03*
X168448266Y-105201426D03*
X167948266Y-105201426D03*
X167448266Y-105201426D03*
X166948266Y-105201426D03*
X166448266Y-105201426D03*
X165948266Y-105201426D03*
X165448266Y-105201426D03*
X164948266Y-105201426D03*
X164448266Y-105201426D03*
X163948266Y-105201426D03*
X163448266Y-105201426D03*
X162948266Y-105201426D03*
X162448266Y-105201426D03*
X161948266Y-105201426D03*
X161448266Y-105201426D03*
X160948266Y-105201426D03*
X160448266Y-105201426D03*
X159948266Y-105201426D03*
X159448266Y-105201426D03*
X158948266Y-105201426D03*
X158448266Y-105201426D03*
X157948266Y-105201426D03*
X157448266Y-105201426D03*
X156948266Y-105201426D03*
X156448266Y-105201426D03*
X155948266Y-105201426D03*
X155448266Y-105201426D03*
X154948266Y-105201426D03*
X154448266Y-105201426D03*
X153948266Y-105201426D03*
X153448266Y-105201426D03*
X152948266Y-105201426D03*
X152448266Y-105201426D03*
X151948266Y-105201426D03*
D13*
X125440000Y-98342000D03*
X124170000Y-98342000D03*
X122900000Y-98342000D03*
X121630000Y-98342000D03*
X121630000Y-92500000D03*
X122900000Y-92500000D03*
D14*
X124135000Y-92500000D03*
D13*
X125440000Y-92500000D03*
D15*
X157900000Y-97100000D03*
D12*
X161150000Y-92900000D03*
X160650000Y-92900000D03*
X160150000Y-92900000D03*
X159650000Y-92900000D03*
X159150000Y-92900000D03*
X158650000Y-92900000D03*
X158150000Y-92900000D03*
X157650000Y-92900000D03*
X157150000Y-92900000D03*
X156650000Y-92900000D03*
X156150000Y-92900000D03*
X155650000Y-92900000D03*
X155150000Y-92900000D03*
X154650000Y-92900000D03*
D16*
X153700000Y-93850000D03*
X153700000Y-94350000D03*
X153700000Y-94850000D03*
X153700000Y-95350000D03*
X153700000Y-95850000D03*
X153700000Y-96350000D03*
X153700000Y-96850000D03*
X153700000Y-97350000D03*
X153700000Y-97850000D03*
X153700000Y-98350000D03*
X153700000Y-98850000D03*
X153700000Y-99350000D03*
X153700000Y-99850000D03*
X153700000Y-100350000D03*
D12*
X154650000Y-101300000D03*
X155150000Y-101300000D03*
X155650000Y-101300000D03*
X156150000Y-101300000D03*
X156650000Y-101300000D03*
X157150000Y-101300000D03*
X157650000Y-101300000D03*
X158150000Y-101300000D03*
X158650000Y-101300000D03*
X159150000Y-101300000D03*
X159650000Y-101300000D03*
X160150000Y-101300000D03*
X160650000Y-101300000D03*
X161150000Y-101300000D03*
D16*
X162100000Y-100350000D03*
X162100000Y-99850000D03*
X162100000Y-99350000D03*
X162100000Y-98850000D03*
X162100000Y-98350000D03*
X162100000Y-97850000D03*
X162100000Y-97350000D03*
X162100000Y-96850000D03*
X162100000Y-96350000D03*
X162100000Y-95850000D03*
X162100000Y-95350000D03*
X162100000Y-94850000D03*
X162100000Y-94350000D03*
X162100000Y-93850000D03*
D17*
X136661800Y-72000000D03*
X138338200Y-72000000D03*
D18*
X152200000Y-95261800D03*
X152200000Y-96938200D03*
X155900000Y-90838200D03*
X155900000Y-89161800D03*
D17*
X166538200Y-85700000D03*
X164861800Y-85700000D03*
X175138200Y-71600000D03*
X173461800Y-71600000D03*
X171138200Y-87550000D03*
X169461800Y-87550000D03*
D18*
X178200000Y-73138200D03*
X178200000Y-71461800D03*
D17*
X161661800Y-77400000D03*
X163338200Y-77400000D03*
D19*
X138000000Y-99948600D03*
X138000000Y-96951400D03*
D18*
X154200000Y-89161800D03*
X154200000Y-90838200D03*
D17*
X173788200Y-102500000D03*
X172111800Y-102500000D03*
D20*
X178097880Y-83510000D03*
D21*
X178097880Y-82948660D03*
X178097880Y-82448280D03*
X178097880Y-81947900D03*
X178097880Y-81447520D03*
X178097880Y-80949680D03*
X178097880Y-80449300D03*
X178097880Y-79948920D03*
X178097880Y-79451080D03*
X178097880Y-78950700D03*
X178097880Y-78450320D03*
X178097880Y-77952480D03*
X178097880Y-77452100D03*
X178097880Y-76951720D03*
X178097880Y-76451340D03*
D20*
X178097880Y-75890000D03*
D22*
X176010000Y-73802120D03*
D23*
X175448660Y-73802120D03*
X174948280Y-73802120D03*
X174447900Y-73802120D03*
X173947520Y-73802120D03*
X173449680Y-73802120D03*
X172949300Y-73802120D03*
X172448920Y-73802120D03*
X171951080Y-73802120D03*
X171450700Y-73802120D03*
X170950320Y-73802120D03*
X170452480Y-73802120D03*
X169952100Y-73802120D03*
X169451720Y-73802120D03*
X168951340Y-73802120D03*
D22*
X168390000Y-73802120D03*
D20*
X166302120Y-75890000D03*
D21*
X166302120Y-76451340D03*
X166302120Y-76951720D03*
X166302120Y-77452100D03*
X166302120Y-77952480D03*
X166302120Y-78450320D03*
X166302120Y-78950700D03*
X166302120Y-79451080D03*
X166302120Y-79948920D03*
X166302120Y-80449300D03*
X166302120Y-80949680D03*
X166302120Y-81447520D03*
X166302120Y-81947900D03*
X166302120Y-82448280D03*
X166302120Y-82948660D03*
D20*
X166302120Y-83510000D03*
D22*
X168390000Y-85597880D03*
D23*
X168951340Y-85597880D03*
X169451720Y-85597880D03*
X169952100Y-85597880D03*
X170452480Y-85597880D03*
X170950320Y-85597880D03*
X171450700Y-85597880D03*
X171951080Y-85597880D03*
X172448920Y-85597880D03*
X172949300Y-85597880D03*
X173449680Y-85597880D03*
X173947520Y-85597880D03*
X174447900Y-85597880D03*
X174948280Y-85597880D03*
X175448660Y-85597880D03*
D22*
X176010000Y-85597880D03*
D17*
X164038200Y-71800000D03*
X162361800Y-71800000D03*
X159838200Y-71800000D03*
X158161800Y-71800000D03*
D24*
X163640000Y-74700000D03*
X158560000Y-74700000D03*
D25*
X157160000Y-87000000D03*
X157160000Y-81920000D03*
X158430000Y-87000000D03*
X158430000Y-81920000D03*
X159700000Y-87000000D03*
X159700000Y-81920000D03*
X160970000Y-81920000D03*
X162240000Y-87000000D03*
X162240000Y-81920000D03*
D18*
X155500000Y-83638200D03*
X155500000Y-81961800D03*
X155400000Y-85561800D03*
X155400000Y-87238200D03*
X176050000Y-90638200D03*
X176050000Y-88961800D03*
D26*
X166529700Y-89896270D03*
X166529700Y-91163730D03*
X166529700Y-92433730D03*
X166529700Y-93703730D03*
X173870300Y-93703730D03*
X173870300Y-92433730D03*
X173870300Y-91163730D03*
X173870300Y-89896270D03*
D18*
X156100000Y-74911800D03*
X156100000Y-76588200D03*
X149700000Y-76638200D03*
X149700000Y-74961800D03*
D27*
X108700000Y-85600000D03*
D28*
X108700000Y-107098560D03*
D29*
X115700000Y-76400000D03*
X122500000Y-76400000D03*
D30*
X155000000Y-78299550D03*
X155000000Y-72800450D03*
X151000000Y-72800450D03*
X151000000Y-78299550D03*
D13*
X139455000Y-79871000D03*
X138185000Y-79871000D03*
X136915000Y-79871000D03*
X135645000Y-79871000D03*
X135645000Y-74029000D03*
X136915000Y-74029000D03*
D14*
X138150000Y-74029000D03*
D13*
X139455000Y-74029000D03*
D31*
X138200000Y-103400000D03*
X133200000Y-103400000D03*
D32*
X129500000Y-94434700D03*
X129500000Y-97965300D03*
D19*
X132900000Y-96951400D03*
X132900000Y-99948600D03*
D33*
X130900000Y-80000000D03*
X132900000Y-80000000D03*
X131900000Y-77400000D03*
D34*
X129300000Y-85300000D03*
X118300000Y-85300000D03*
D35*
X133999580Y-93999740D03*
D36*
X133999580Y-90001780D03*
X133999580Y-86003820D03*
X137997540Y-92000760D03*
X137997540Y-88002800D03*
X141995500Y-93999740D03*
X141995500Y-90001780D03*
X141995500Y-86003820D03*
D37*
X127200000Y-103700000D03*
X127200000Y-76303560D03*
X145297500Y-74802420D03*
X145297500Y-105201140D03*
D17*
X124288200Y-100550000D03*
X122611800Y-100550000D03*
D18*
X127200000Y-96561800D03*
X127200000Y-98238200D03*
D17*
X131061800Y-81900000D03*
X132738200Y-81900000D03*
X173738200Y-100600000D03*
X172061800Y-100600000D03*
D32*
X176700000Y-101284700D03*
X176700000Y-104815300D03*
D38*
X173150000Y-95950000D03*
X172200000Y-95950000D03*
X171250000Y-95950000D03*
X171250000Y-98750000D03*
X173150000Y-98750000D03*
D39*
X176600000Y-94800000D03*
X176600000Y-98800000D03*
D19*
X135450000Y-96951400D03*
X135450000Y-99948600D03*
D40*
X148600000Y-81328240D03*
X148600000Y-88425000D03*
M02*
