M48
;DRILL file {KiCad (2016-07-28 BZR 6996, Git e15ad93)-product} date Wed Sep  7 11:15:38 2016
;FORMAT={-:-/ absolute / inch / decimal}
FMAT,2
INCH,TZ
T1C0.016
T2C0.030
T3C0.069
T4C0.079
%
G90
G05
M72
T1
X3.31Y-2.255
X3.3394Y-2.7705
X3.36Y-2.655
X3.3769Y-3.45
X3.3769Y-3.6375
X3.425Y-2.915
X3.44Y-2.82
X3.46Y-3.285
X3.46Y-3.3875
X3.46Y-3.545
X3.4625Y-3.7325
X3.4625Y-3.795
X3.465Y-2.98
X3.5925Y-3.4475
X3.5925Y-3.555
X3.5925Y-3.735
X3.6174Y-3.1341
X3.62Y-2.78
X3.6425Y-3.1975
X3.645Y-2.34
X3.66Y-2.595
X3.6602Y-2.7152
X3.6725Y-3.6175
X3.6751Y-3.1401
X3.69Y-2.91
X3.705Y-3.965
X3.71Y-2.75
X3.7174Y-3.4
X3.7508Y-2.7892
X3.755Y-2.985
X3.755Y-3.265
X3.755Y-3.365
X3.7553Y-3.5565
X3.7575Y-3.0975
X3.7575Y-3.14
X3.7586Y-3.0574
X3.76Y-4.36
X3.7614Y-3.5176
X3.765Y-3.6175
X3.7782Y-3.0232
X3.7826Y-3.4295
X3.785Y-2.875
X3.788Y-4.4774
X3.7941Y-2.5469
X3.8094Y-2.724
X3.8094Y-4.1856
X3.8098Y-2.5102
X3.8125Y-3.7975
X3.82Y-4.45
X3.835Y-4.69
X3.84Y-2.485
X3.855Y-3.585
X3.855Y-4.14
X3.8699Y-3.8326
X3.875Y-2.555
X3.875Y-2.97
X3.8775Y-3.495
X3.8803Y-2.7205
X3.89Y-3.34
X3.8937Y-3.7012
X3.895Y-3.2
X3.8987Y-3.6621
X3.91Y-4.41
X3.9225Y-3.6175
X3.93Y-3.08
X3.93Y-3.32
X3.93Y-3.4375
X3.93Y-4.175
X3.9326Y-3.7464
X3.935Y-3.0041
X3.94Y-2.7918
X3.9511Y-2.7167
X3.9575Y-4.055
X3.9616Y-2.7588
X3.98Y-2.56
X4.0062Y-2.7152
X4.0097Y-2.8706
X4.03Y-4.89
X4.035Y-3.0549
X4.0351Y-3.2244
X4.0417Y-2.7325
X4.0491Y-2.8689
X4.055Y-3.67
X4.06Y-4.69
X4.0739Y-3.0608
X4.0751Y-2.9887
X4.0779Y-2.5874
X4.0807Y-3.3476
X4.095Y-4.2775
X4.0967Y-2.5528
X4.1036Y-3.6535
X4.1111Y-3.5014
X4.113Y-3.7975
X4.1132Y-3.063
X4.1207Y-3.9291
X4.126Y-3.1425
X4.1293Y-2.9597
X4.1306Y-2.5286
X4.1333Y-2.5679
X4.1396Y-3.0338
X4.144Y-2.7489
X4.144Y-3.3883
X4.1459Y-3.616
X4.158Y-3.8033
X4.1586Y-3.1205
X4.1687Y-3.1952
X4.1694Y-2.5223
X4.1709Y-3.9567
X4.1778Y-2.9278
X4.1941Y-3.5845
X4.1953Y-2.4926
X4.1954Y-2.7367
X4.1994Y-3.8543
X4.2026Y-3.1654
X4.203Y-2.8975
X4.205Y-3.7875
X4.2123Y-3.9567
X4.2159Y-2.9817
X4.2164Y-3.4662
X4.2175Y-3.6164
X4.2332Y-2.7479
X4.2471Y-3.5585
X4.255Y-3.305
X4.2606Y-3.0274
X4.2673Y-2.4926
X4.2708Y-3.7498
X4.2761Y-3.5307
X4.2788Y-2.7822
X4.2819Y-3.6321
X4.285Y-3.98
X4.315Y-4.045
X4.3283Y-2.5241
X4.345Y-4.4
X4.3497Y-2.7921
X4.355Y-3.97
X4.3871Y-2.9701
X4.3992Y-2.4967
X4.3998Y-3.7436
X4.4126Y-3.3883
X4.4131Y-3.8309
X4.4153Y-3.7074
X4.4175Y-4.335
X4.4315Y-3.31
X4.4343Y-2.9141
X4.4398Y-3.1939
X4.44Y-2.6902
X4.4431Y-3.5323
X4.45Y-3.4615
X4.4576Y-3.024
X4.465Y-3.605
X4.47Y-4.75
X4.4703Y-2.9301
X4.4869Y-3.1613
X4.4945Y-3.7295
X4.525Y-3.475
X4.5284Y-2.9923
X4.53Y-3.6075
X4.5338Y-3.8467
X4.5375Y-3.3175
X4.555Y-2.565
X4.5576Y-3.5056
X4.5583Y-2.6658
X4.5727Y-3.4693
X4.582Y-3.1079
X4.5825Y-3.5361
X4.61Y-2.38
X4.6113Y-3.0733
X4.613Y-3.8975
X4.6239Y-3.5164
X4.6245Y-2.6333
X4.625Y-2.485
X4.635Y-4.0775
X4.64Y-3.67
X4.6506Y-2.6775
X4.6556Y-3.1327
X4.6709Y-3.8918
X4.6825Y-2.9624
X4.685Y-4.32
X4.6885Y-2.5062
X4.6932Y-2.4442
X4.6999Y-3.122
X4.7015Y-3.5457
X4.705Y-3.05
X4.7054Y-2.6485
X4.7076Y-2.7224
X4.7099Y-3.6622
X4.7106Y-3.8918
X4.725Y-4.535
X4.735Y-4.32
X4.7375Y-3.6075
X4.74Y-3.32
X4.7404Y-2.7005
X4.755Y-3.11
X4.7569Y-3.1493
X4.7664Y-3.2593
X4.7667Y-2.6713
X4.7677Y-3.8926
X4.7712Y-3.2202
X4.78Y-2.8898
X4.7946Y-3.1287
X4.8004Y-3.2791
X4.8057Y-2.5792
X4.8075Y-3.635
X4.8097Y-3.0517
X4.8106Y-3.8256
X4.8252Y-3.1923
X4.8331Y-3.1372
X4.8359Y-3.0812
X4.8374Y-2.6822
X4.8426Y-2.7212
X4.845Y-3.85
X4.85Y-4.0955
X4.855Y-4.32
X4.855Y-4.53
X4.87Y-4.745
X4.885Y-2.65
X4.8917Y-2.5624
X4.8979Y-2.7269
X4.9Y-4.1945
X4.905Y-3.285
X4.91Y-4.1557
X4.942Y-2.551
X4.951Y-3.884
X4.9527Y-3.0334
X4.9659Y-3.0903
X4.9779Y-2.67
X4.99Y-2.8838
X5.0085Y-2.554
X5.0198Y-2.6288
X5.021Y-3.0941
X5.025Y-3.855
X5.06Y-4.34
X5.07Y-3.47
X5.0743Y-2.6282
X5.0766Y-2.9075
X5.09Y-4.1
X5.1025Y-2.705
X5.1038Y-2.9902
X5.1051Y-2.9351
X5.1225Y-2.3575
X5.145Y-2.705
X5.15Y-3.025
X5.15Y-4.37
X5.165Y-3.32
X5.195Y-3.145
X5.2175Y-2.725
X5.2325Y-3.1075
X5.255Y-3.185
X5.2805Y-3.3558
X5.285Y-3.555
X5.285Y-4.36
X5.2856Y-3.4826
X5.295Y-3.1075
X5.31Y-2.355
X5.3155Y-3.3988
X5.32Y-3.3175
X5.32Y-4.2575
X5.3233Y-3.4374
X5.3325Y-2.605
X5.3975Y-3.585
X5.5576Y-3.1099
X5.56Y-3.29
X5.575Y-3.415
X5.59Y-2.92
X5.635Y-2.515
X5.6373Y-2.8823
X5.64Y-3.055
X5.67Y-3.1775
X5.6725Y-3.535
X5.6725Y-3.745
X5.815Y-4.085
X5.85Y-2.349
X5.955Y-4.125
X6.015Y-3.665
X6.105Y-2.515
X6.175Y-4.75
X6.245Y-2.305
X6.26Y-3.565
X6.265Y-3.82
X6.265Y-4.405
X6.325Y-4.78
X6.345Y-2.595
X6.35Y-2.73
X6.37Y-3.975
X6.375Y-2.99
X6.38Y-4.405
X6.385Y-3.615
X6.39Y-2.64
X6.4365Y-2.6885
X6.49Y-4.79
X6.515Y-2.66
X6.63Y-4.3
X6.635Y-3.695
X6.755Y-4.155
X6.875Y-3.825
X6.945Y-3.515
X7.Y-2.52
X7.025Y-2.485
X7.055Y-2.45
X7.055Y-2.515
X7.06Y-4.895
X7.08Y-3.635
T2
X4.0574Y-4.565
X4.205Y-4.4666
X4.205Y-4.6634
X4.3526Y-4.565
T3
X5.8176Y-2.8688
X5.8176Y-3.0263
X5.8176Y-3.1837
X5.8176Y-3.3411
X5.8176Y-3.4986
X5.975Y-2.9475
X5.975Y-3.105
X5.975Y-3.2624
X5.975Y-3.4199
X6.1324Y-2.8688
X6.1324Y-3.0263
X6.1324Y-3.1837
X6.1324Y-3.3411
X6.1324Y-3.4986
T4
X5.6876Y-2.4278
X5.6876Y-3.9396
X6.4001Y-2.4869
X6.4001Y-3.8805
T0
M30
