M48
INCH,TZ
T1C0.0157
T2C0.0300
T3C0.0688
T4C0.0787
%
G90
G05
T1
X40669Y-36890
X40709Y-28110
X40709Y-32126
X43543Y-35472
X43858Y-43071
X44291Y-36063
X45472Y-41693
X47244Y-31772
X47638Y-28071
X48976Y-37677
X49331Y-39882
X49409Y-33740
X50945Y-30945
X51969Y-30827
X52126Y-28110
X52677Y-29606
X52795Y-28858
X52953Y-30157
X53346Y-29016
X53425Y-32756
X54764Y-30354
X54943Y-28919
X55197Y-32874
X55512Y-29646
X56496Y-28819
X57165Y-32638
X57362Y-36496
X57913Y-33701
X58031Y-32874
X58425Y-36496
X58583Y-37638
X60669Y-33740
X61142Y-42008
X61339Y-33031
X61457Y-28858
X61457Y-39252
X61772Y-37362
X62323Y-28386
X62480Y-33504
X63110Y-29016
X63465Y-38937
X63937Y-42087
X64016Y-42480
X64134Y-34921
X64961Y-39567
X65118Y-41457
X66181Y-42087
X66339Y-31850
X66339Y-35039
X66535Y-29016
X67717Y-37323
X68307Y-39606
X69094Y-37205
X69173Y-41457
X69370Y-39567
X69370Y-39961
X69370Y-40354
X69370Y-40748
X69803Y-39291
X69961Y-34016
X70236Y-28858
X70315Y-29803
X70394Y-31693
X71159Y-40958
X71220Y-41929
X71811Y-34606
X72008Y-28031
X72008Y-31535
X72402Y-31535
X72598Y-41969
X72835Y-30984
X72914Y-35704
X73150Y-31378
X73228Y-29921
X73346Y-34488
X74213Y-35433
X74252Y-28307
X74449Y-33150
X75945Y-28071
X76378Y-30236
X76575Y-37638
X76575Y-41969
X77638Y-40669
X77992Y-30433
X79173Y-28071
X79173Y-36850
X79252Y-32126
X79291Y-42244
T2
X59961Y-31181
X61929Y-31181
T3
X52756Y-33860
X52756Y-35434
X52756Y-37008
X54330Y-34647
X54330Y-36221
X55904Y-33860
X55904Y-35434
X55904Y-37008
T4
X50079Y-30041
X50079Y-40827
X57204Y-29450
X57204Y-41418
T0
M30
