G04 #@! TF.FileFunction,Soldermask,Top*
%FSLAX46Y46*%
G04 Gerber Fmt 4.6, Leading zero omitted, Abs format (unit mm)*
G04 Created by KiCad (PCBNEW (2016-07-28 BZR 6996, Git e15ad93)-product) date Thu Sep  1 14:33:18 2016*
%MOMM*%
%LPD*%
G01*
G04 APERTURE LIST*
%ADD10C,0.100000*%
%ADD11R,2.998420X3.999180*%
%ADD12R,3.999180X2.998420*%
%ADD13R,3.023820X3.023820*%
%ADD14C,3.023820*%
%ADD15C,3.399740*%
%ADD16R,1.416000X0.755600*%
%ADD17R,0.679400X1.873200*%
%ADD18R,1.873200X0.679400*%
%ADD19R,2.800000X2.800000*%
%ADD20R,0.700000X1.600000*%
%ADD21R,1.398220X4.397960*%
%ADD22R,2.579320X2.017980*%
%ADD23R,1.799540X1.697940*%
%ADD24R,2.299920X1.398220*%
%ADD25R,1.035000X2.305000*%
%ADD26R,1.670000X2.940000*%
%ADD27R,3.399740X3.199080*%
%ADD28R,1.924000X1.035000*%
%ADD29O,1.924000X1.035000*%
%ADD30R,1.047700X1.449020*%
%ADD31R,2.099260X2.797760*%
%ADD32R,1.060400X1.339800*%
%ADD33R,1.339800X1.060400*%
%ADD34R,1.162000X1.339800*%
%ADD35R,1.339800X1.162000*%
%ADD36R,1.197560X1.197560*%
%ADD37R,3.200000X2.500000*%
%ADD38R,2.300000X1.000000*%
%ADD39R,2.299920X1.697940*%
%ADD40R,0.897840X1.098500*%
%ADD41C,1.924000*%
G04 APERTURE END LIST*
D10*
D11*
X162651440Y-112204500D03*
D12*
X184150000Y-112204500D03*
D13*
X160766760Y-88587580D03*
D14*
X164767260Y-88587580D03*
X168765220Y-88587580D03*
X172763180Y-88587580D03*
X176763680Y-88587580D03*
X162765740Y-92585540D03*
X166766240Y-92585540D03*
X170764200Y-92585540D03*
X174764700Y-92585540D03*
X160766760Y-96583500D03*
X164767260Y-96583500D03*
X168765220Y-96583500D03*
X172763180Y-96583500D03*
X176763680Y-96583500D03*
D15*
X151066500Y-81788000D03*
X186463940Y-81788000D03*
X187965080Y-99885500D03*
X149565360Y-99885500D03*
D16*
X101396800Y-96438720D03*
X101396800Y-95638620D03*
X101396800Y-94838520D03*
X101396800Y-94038420D03*
X101396800Y-93238320D03*
X101396800Y-92438220D03*
X101396800Y-91638120D03*
X101396800Y-90838020D03*
X101396800Y-90037920D03*
X101396800Y-89237820D03*
X101396800Y-88437720D03*
X101396800Y-87637620D03*
X101396800Y-86837520D03*
X101396800Y-86039960D03*
X101396800Y-85239860D03*
X101396800Y-84442300D03*
X101396800Y-83642200D03*
X101396800Y-82842100D03*
X101396800Y-82042000D03*
X101396800Y-81241900D03*
X101396800Y-80441800D03*
X101396800Y-79641700D03*
X101396800Y-78841600D03*
X101396800Y-78041500D03*
X101396800Y-77241400D03*
X101396800Y-76441300D03*
X101396800Y-75641200D03*
X89598500Y-75641200D03*
X89598500Y-76441300D03*
X89598500Y-77241400D03*
X89598500Y-78041500D03*
X89598500Y-78841600D03*
X89598500Y-79641700D03*
X89598500Y-80441800D03*
X89598500Y-81241900D03*
X89598500Y-82042000D03*
X89598500Y-82842100D03*
X89598500Y-83642200D03*
X89598500Y-84442300D03*
X89598500Y-85239860D03*
X89598500Y-86039960D03*
X89598500Y-86837520D03*
X89598500Y-87637620D03*
X89598500Y-88437720D03*
X89598500Y-89237820D03*
X89598500Y-90037920D03*
X89598500Y-90838020D03*
X89598500Y-91638120D03*
X89598500Y-92438220D03*
X89598500Y-93238320D03*
X89598500Y-94038420D03*
X89598500Y-94838520D03*
X89598500Y-95638620D03*
X89598500Y-96438720D03*
D17*
X112051577Y-100727773D03*
X112559577Y-100727773D03*
X113042177Y-100727773D03*
X113550177Y-100727773D03*
X114058177Y-100727773D03*
X114540777Y-100727773D03*
X115048777Y-100727773D03*
X115556777Y-100727773D03*
X116067317Y-100727773D03*
X116547377Y-100727773D03*
X117055377Y-100727773D03*
X117565917Y-100727773D03*
X118045977Y-100727773D03*
X118553977Y-100727773D03*
X119061977Y-100727773D03*
X119544577Y-100727773D03*
X120052577Y-100727773D03*
X120560577Y-100727773D03*
X121043177Y-100727773D03*
X121551177Y-100727773D03*
X122059177Y-100727773D03*
X122541777Y-100727773D03*
X123049777Y-100727773D03*
X123557777Y-100727773D03*
X124040377Y-100727773D03*
X124548377Y-100727773D03*
X125056377Y-100727773D03*
X125564377Y-100727773D03*
X126046977Y-100727773D03*
X126554977Y-100727773D03*
X127062977Y-100727773D03*
X127545577Y-100727773D03*
X128053577Y-100727773D03*
X128561577Y-100727773D03*
X129044177Y-100727773D03*
X129552177Y-100727773D03*
X130060177Y-100727773D03*
X130542777Y-100727773D03*
X131050777Y-100727773D03*
X131558777Y-100727773D03*
X132038837Y-100727773D03*
X132549377Y-100727773D03*
X133057377Y-100727773D03*
X133537437Y-100727773D03*
X134047977Y-100727773D03*
X134555977Y-100727773D03*
X135063977Y-100727773D03*
X135546577Y-100727773D03*
X136054577Y-100727773D03*
X136562577Y-100727773D03*
X137045177Y-100727773D03*
X137553177Y-100727773D03*
D18*
X139508977Y-98771973D03*
X139508977Y-98263973D03*
X139508977Y-97781373D03*
X139508977Y-97273373D03*
X139508977Y-96765373D03*
X139508977Y-96282773D03*
X139508977Y-95774773D03*
X139508977Y-95266773D03*
X139508977Y-94756233D03*
X139508977Y-94276173D03*
X139508977Y-93768173D03*
X139508977Y-93257633D03*
X139508977Y-92777573D03*
X139508977Y-92269573D03*
X139508977Y-91761573D03*
X139508977Y-91278973D03*
X139508977Y-90770973D03*
X139508977Y-90262973D03*
X139508977Y-89780373D03*
X139508977Y-89272373D03*
X139508977Y-88764373D03*
X139508977Y-88281773D03*
X139508977Y-87773773D03*
X139508977Y-87265773D03*
X139508977Y-86783173D03*
X139508977Y-86275173D03*
X139508977Y-85767173D03*
X139508977Y-85259173D03*
X139508977Y-84776573D03*
X139508977Y-84268573D03*
X139508977Y-83760573D03*
X139508977Y-83277973D03*
X139508977Y-82769973D03*
X139508977Y-82261973D03*
X139508977Y-81779373D03*
X139508977Y-81271373D03*
X139508977Y-80763373D03*
X139508977Y-80280773D03*
X139508977Y-79772773D03*
X139508977Y-79264773D03*
X139508977Y-78784713D03*
X139508977Y-78274173D03*
X139508977Y-77766173D03*
X139508977Y-77286113D03*
X139508977Y-76775573D03*
X139508977Y-76267573D03*
X139508977Y-75759573D03*
X139508977Y-75276973D03*
X139508977Y-74768973D03*
X139508977Y-74260973D03*
X139508977Y-73778373D03*
X139508977Y-73270373D03*
D17*
X137553177Y-71314573D03*
X137045177Y-71314573D03*
X136562577Y-71314573D03*
X136054577Y-71314573D03*
X135546577Y-71314573D03*
X135063977Y-71314573D03*
X134555977Y-71314573D03*
X134047977Y-71314573D03*
X133537437Y-71314573D03*
X133057377Y-71314573D03*
X132549377Y-71314573D03*
X132038837Y-71314573D03*
X131558777Y-71314573D03*
X131050777Y-71314573D03*
X130542777Y-71314573D03*
X130060177Y-71314573D03*
X129552177Y-71314573D03*
X129044177Y-71314573D03*
X128561577Y-71314573D03*
X128053577Y-71314573D03*
X127545577Y-71314573D03*
X127062977Y-71314573D03*
X126554977Y-71314573D03*
X126046977Y-71314573D03*
X125564377Y-71314573D03*
X125056377Y-71314573D03*
X124548377Y-71314573D03*
X124040377Y-71314573D03*
X123557777Y-71314573D03*
X123049777Y-71314573D03*
X122541777Y-71314573D03*
X122059177Y-71314573D03*
X121551177Y-71314573D03*
X121043177Y-71314573D03*
X120560577Y-71314573D03*
X120052577Y-71314573D03*
X119544577Y-71314573D03*
X119061977Y-71314573D03*
X118553977Y-71314573D03*
X118045977Y-71314573D03*
X117565917Y-71314573D03*
X117055377Y-71314573D03*
X116547377Y-71314573D03*
X116067317Y-71314573D03*
X115556777Y-71314573D03*
X115048777Y-71314573D03*
X114540777Y-71314573D03*
X114058177Y-71314573D03*
X113550177Y-71314573D03*
X113042177Y-71314573D03*
X112559577Y-71314573D03*
X112051577Y-71314573D03*
D18*
X110095777Y-73270373D03*
X110095777Y-73778373D03*
X110095777Y-74260973D03*
X110095777Y-74768973D03*
X110095777Y-75276973D03*
X110095777Y-75759573D03*
X110095777Y-76267573D03*
X110095777Y-76775573D03*
X110095777Y-77286113D03*
X110095777Y-77766173D03*
X110095777Y-78274173D03*
X110095777Y-78784713D03*
X110095777Y-79264773D03*
X110095777Y-79772773D03*
X110095777Y-80280773D03*
X110095777Y-80763373D03*
X110095777Y-81271373D03*
X110095777Y-81779373D03*
X110095777Y-82261973D03*
X110095777Y-82769973D03*
X110095777Y-83277973D03*
X110095777Y-83760573D03*
X110095777Y-84268573D03*
X110095777Y-84776573D03*
X110095777Y-85259173D03*
X110095777Y-85767173D03*
X110095777Y-86275173D03*
X110095777Y-86783173D03*
X110095777Y-87265773D03*
X110095777Y-87773773D03*
X110095777Y-88281773D03*
X110095777Y-88764373D03*
X110095777Y-89272373D03*
X110095777Y-89780373D03*
X110095777Y-90262973D03*
X110095777Y-90770973D03*
X110095777Y-91278973D03*
X110095777Y-91761573D03*
X110095777Y-92269573D03*
X110095777Y-92777573D03*
X110095777Y-93257633D03*
X110095777Y-93768173D03*
X110095777Y-94276173D03*
X110095777Y-94756233D03*
X110095777Y-95266773D03*
X110095777Y-95774773D03*
X110095777Y-96282773D03*
X110095777Y-96765373D03*
X110095777Y-97273373D03*
X110095777Y-97781373D03*
X110095777Y-98263973D03*
X110095777Y-98771973D03*
D19*
X113577000Y-64497000D03*
X89877000Y-64497000D03*
D20*
X91978734Y-67395574D03*
X92478734Y-67395574D03*
X92978734Y-67395574D03*
X93478734Y-67395574D03*
X93978734Y-67395574D03*
X94478734Y-67395574D03*
X94978734Y-67395574D03*
X95478734Y-67395574D03*
X95978734Y-67395574D03*
X96478734Y-67395574D03*
X96978734Y-67395574D03*
X97478734Y-67395574D03*
X97978734Y-67395574D03*
X98478734Y-67395574D03*
X98978734Y-67395574D03*
X99478734Y-67395574D03*
X99978734Y-67395574D03*
X100478734Y-67395574D03*
X100978734Y-67395574D03*
X101478734Y-67395574D03*
X101978734Y-67395574D03*
X102478734Y-67395574D03*
X102978734Y-67395574D03*
X103478734Y-67395574D03*
X103978734Y-67395574D03*
X104478734Y-67395574D03*
X104978734Y-67395574D03*
X105478734Y-67395574D03*
X105978734Y-67395574D03*
X106478734Y-67395574D03*
X106978734Y-67395574D03*
X107478734Y-67395574D03*
X107978734Y-67395574D03*
X108478734Y-67395574D03*
X108978734Y-67395574D03*
X109478734Y-67395574D03*
X109978734Y-67395574D03*
X110478734Y-67395574D03*
X110978734Y-67395574D03*
X111478734Y-67395574D03*
D21*
X153987500Y-73977500D03*
X153987500Y-66880740D03*
X183578500Y-73723500D03*
X183578500Y-66626740D03*
D22*
X162814000Y-82245200D03*
X162814000Y-77647800D03*
D23*
X177165000Y-80378300D03*
X177165000Y-76847700D03*
D24*
X158686500Y-81318100D03*
X158686500Y-78320900D03*
D25*
X117722642Y-112007177D03*
X117722642Y-106927177D03*
X118992642Y-112007177D03*
X118992642Y-106927177D03*
X120262642Y-112007177D03*
X120262642Y-106927177D03*
X121532642Y-106927177D03*
X122802642Y-112007177D03*
X122802642Y-106927177D03*
D26*
X94107000Y-108623100D03*
X94107000Y-103085900D03*
X96647000Y-108623100D03*
X96647000Y-103085900D03*
X99187000Y-108623100D03*
X99187000Y-103085900D03*
X101727000Y-108623100D03*
X101727000Y-103085900D03*
D27*
X173614080Y-70421500D03*
X163316920Y-70421500D03*
D28*
X151977737Y-106434077D03*
D29*
X151977737Y-107704077D03*
X151977737Y-108974077D03*
X151977737Y-110244077D03*
X157819737Y-110244077D03*
X157819737Y-108974077D03*
X157819737Y-107704077D03*
X157819737Y-106434077D03*
D28*
X174259820Y-81276923D03*
D29*
X174259820Y-80006923D03*
X174259820Y-78736923D03*
X174259820Y-77466923D03*
X168417820Y-77466923D03*
X168417820Y-78736923D03*
X168417820Y-80006923D03*
X168417820Y-81276923D03*
D30*
X147634960Y-68828920D03*
X145735040Y-68828920D03*
X146685000Y-71125080D03*
D31*
X132685932Y-105340142D03*
X137765932Y-105340142D03*
D32*
X102933500Y-85979000D03*
X104355900Y-85979000D03*
X87960200Y-92392500D03*
X86537800Y-92392500D03*
X104406700Y-94742000D03*
X102984300Y-94742000D03*
X86410800Y-87630000D03*
X87833200Y-87630000D03*
X104470200Y-96456500D03*
X103047800Y-96456500D03*
X104343200Y-90043000D03*
X102920800Y-90043000D03*
X104470200Y-74739500D03*
X103047800Y-74739500D03*
X127558800Y-59880500D03*
X128981200Y-59880500D03*
D33*
X166433500Y-80086200D03*
X166433500Y-78663800D03*
D32*
X172161200Y-83121500D03*
X170738800Y-83121500D03*
X145973800Y-67119500D03*
X147396200Y-67119500D03*
X141338300Y-80708500D03*
X142760700Y-80708500D03*
D33*
X133921500Y-69100700D03*
X133921500Y-67678300D03*
X121602500Y-102590600D03*
X121602500Y-104013000D03*
X127508000Y-69481700D03*
X127508000Y-68059300D03*
X119126000Y-102590600D03*
X119126000Y-104013000D03*
X117030500Y-69418200D03*
X117030500Y-67995800D03*
X124650500Y-102603300D03*
X124650500Y-104025700D03*
D32*
X141401800Y-95250000D03*
X142824200Y-95250000D03*
X108089700Y-77216000D03*
X106667300Y-77216000D03*
X108216700Y-81788000D03*
X106794300Y-81788000D03*
X108153200Y-85217000D03*
X106730800Y-85217000D03*
X141325600Y-82296000D03*
X142748000Y-82296000D03*
X108216700Y-93726000D03*
X106794300Y-93726000D03*
X141401800Y-89789000D03*
X142824200Y-89789000D03*
X134073900Y-108140500D03*
X132651500Y-108140500D03*
X136334500Y-108140500D03*
X137756900Y-108140500D03*
D34*
X124371100Y-59880500D03*
X126047500Y-59880500D03*
D35*
X147224100Y-91937298D03*
X147224100Y-90260898D03*
X147224100Y-95377298D03*
X147224100Y-93700898D03*
X143827500Y-68783200D03*
X143827500Y-67106800D03*
X116014500Y-106413300D03*
X116014500Y-108089700D03*
X116014500Y-110794800D03*
X116014500Y-112471200D03*
X124460000Y-106540300D03*
X124460000Y-108216700D03*
X112204500Y-105117900D03*
X112204500Y-103441500D03*
X135445500Y-67424300D03*
X135445500Y-69100700D03*
D36*
X143830757Y-72221729D03*
X143830757Y-70626609D03*
X112204500Y-108465620D03*
X112204500Y-106870500D03*
D37*
X192079000Y-74627000D03*
X192079000Y-65327000D03*
D38*
X189579000Y-71477000D03*
X189579000Y-70477000D03*
X189579000Y-69477000D03*
X189579000Y-68477000D03*
D33*
X149860000Y-109042200D03*
X149860000Y-107619800D03*
D28*
X122948700Y-62167770D03*
D29*
X122948700Y-63435230D03*
X122948700Y-64705230D03*
X122948700Y-65975230D03*
X130289300Y-65975230D03*
X130289300Y-64705230D03*
X130289300Y-63435230D03*
X130289300Y-62167770D03*
D33*
X144843500Y-111709200D03*
X144843500Y-110286800D03*
X143065500Y-111709200D03*
X143065500Y-110286800D03*
D39*
X145501360Y-107950000D03*
X145501360Y-102450900D03*
X142326360Y-102450900D03*
X142303500Y-107950000D03*
D40*
X109601000Y-103903780D03*
X108968540Y-105900220D03*
X108331000Y-103903780D03*
D41*
X106807000Y-113451000D03*
X106807000Y-118451000D03*
X110557000Y-115951000D03*
X103057000Y-115951000D03*
D40*
X89535000Y-70594220D03*
X90167460Y-68597780D03*
X90805000Y-70594220D03*
M02*
