M48
;DRILL file {KiCad (2017-01-11 revision e99b79c)-master} date Sun Jun 25 19:44:49 2017
;FORMAT={-:-/ absolute / metric / decimal}
FMAT,2
METRIC,TZ
T1C0.400
T2C0.762
T3C1.748
T4C1.999
%
G90
G05
M71
T1
X90.526Y-79.502
X90.729Y-69.088
X93.472Y-79.502
X93.472Y-83.515
X93.523Y-88.29
X93.574Y-89.916
X93.929Y-75.133
X93.98Y-68.478
X94.234Y-85.141
X94.437Y-73.201
X95.166Y-75.199
X95.218Y-74.2
X95.37Y-71.652
X95.386Y-72.652
X95.656Y-84.887
X95.764Y-79.418
X95.809Y-93.675
X96.297Y-73.254
X96.297Y-75.454
X96.338Y-71.347
X96.372Y-80.85
X96.622Y-76.911
X96.755Y-79.281
X96.926Y-84.836
X96.977Y-70.256
X97.5Y-59.2
X97.688Y-77.876
X97.688Y-89.611
X97.758Y-84.016
X98.097Y-75.447
X98.4Y-66.853
X98.603Y-72.847
X98.654Y-58.217
X98.755Y-85.75
X99.044Y-75.047
X99.193Y-76.153
X99.71Y-80.75
X99.771Y-66.497
X99.873Y-63.144
X99.908Y-77.426
X100.147Y-76.455
X100.333Y-79.286
X100.558Y-87.248
X100.951Y-77.299
X101.327Y-79.175
X101.448Y-69.993
X101.493Y-86.894
X101.549Y-60.18
X101.6Y-94.183
X101.804Y-66.344
X101.897Y-75.346
X101.905Y-62.687
X101.956Y-88.282
X102.006Y-72.746
X102.057Y-68.123
X102.44Y-76.185
X102.47Y-80.698
X102.721Y-81.666
X102.921Y-61.925
X102.972Y-99.263
X103.154Y-89.158
X103.53Y-97.028
X103.581Y-66.853
X103.835Y-61.519
X103.953Y-96.077
X104.228Y-95.116
X104.483Y-82.714
X104.751Y-66.459
X104.851Y-61.417
X104.902Y-90.83
X105.066Y-80.833
X105.116Y-84.501
X105.178Y-79.383
X105.207Y-85.901
X105.359Y-82.233
X105.409Y-71.44
X105.763Y-67.508
X106.07Y-74.676
X106.151Y-66.406
X106.181Y-72.076
X106.353Y-86.422
X106.647Y-92.651
X106.656Y-94.559
X106.74Y-80.956
X106.804Y-71.294
X106.826Y-97.841
X106.965Y-68.288
X107.122Y-100.116
X107.2Y-111.2
X107.308Y-67.349
X107.4Y-96.959
X107.531Y-79.723
X107.847Y-97.854
X107.899Y-92.151
X108.056Y-95.165
X108.148Y-89.272
X108.287Y-72.03
X108.459Y-83.215
X108.479Y-67.581
X108.538Y-91.226
X108.542Y-66.561
X108.685Y-73.002
X109.318Y-71.668
X109.888Y-67.827
X109.988Y-66.822
X110.033Y-101.092
X110.208Y-72.127
X110.99Y-66.902
X111.608Y-82.347
X111.811Y-94.742
X111.862Y-102.464
X112.032Y-67.265
X112.09Y-87.33
X112.116Y-61.2
X112.116Y-89.53
X112.349Y-66.317
X112.404Y-73.372
X112.878Y-91.745
X113.03Y-79.433
X113.127Y-63.777
X113.318Y-84.666
X113.386Y-74.388
X113.44Y-82.433
X113.656Y-72.988
X113.738Y-67.688
X113.777Y-66.288
X113.792Y-97.028
X114.175Y-85.805
X114.198Y-99.391
X114.714Y-87.33
X114.76Y-72.946
X114.8Y-110.9
X114.841Y-79.398
X114.982Y-97.554
X115.138Y-68.388
X115.3Y-105.4
X115.414Y-85.033
X115.668Y-87.029
X115.682Y-66.121
X115.693Y-67.521
X115.782Y-63.349
X115.944Y-73.162
X115.984Y-68.921
X116.187Y-74.398
X116.366Y-84.706
X116.4Y-114.8
X116.434Y-89.556
X117.043Y-98.908
X117.043Y-102.87
X117.184Y-73.369
X117.4Y-60.2
X117.424Y-84.967
X117.436Y-79.999
X117.988Y-74.625
X118.03Y-102.417
X118.137Y-69.848
X118.45Y-107.612
X118.6Y-110.5
X118.72Y-91.542
X118.817Y-69.115
X118.821Y-64.872
X118.821Y-85.395
X118.922Y-78.669
X119.036Y-72.978
X119.166Y-104.841
X119.433Y-86.946
X119.532Y-99.212
X119.786Y-65.888
X119.827Y-69.737
X119.838Y-80.971
X119.885Y-84.78
X120.Y-113.9
X120.022Y-73.147
X120.294Y-74.778
X120.555Y-69.051
X120.853Y-98.552
X120.991Y-72.902
X121.158Y-91.44
X121.256Y-86.622
X121.5Y-105.9
X121.504Y-69.368
X121.573Y-63.972
X121.869Y-96.977
X121.988Y-72.989
X122.Y-109.5
X122.309Y-73.936
X122.35Y-98.806
X122.359Y-80.5
X122.428Y-68.986
X122.631Y-89.877
X122.766Y-75.769
X122.781Y-87.677
X123.038Y-102.464
X123.2Y-108.3
X123.4Y-84.477
X123.596Y-68.58
X123.596Y-69.596
X123.698Y-96.266
X123.749Y-75.133
X124.61Y-78.213
X125.392Y-80.145
X125.476Y-62.636
X125.5Y-73.2
X125.628Y-97.79
X125.832Y-84.176
X126.035Y-96.164
X126.187Y-67.767
X126.484Y-64.775
X126.906Y-77.9
X127.314Y-64.218
X127.559Y-66.192
X127.559Y-98.603
X127.559Y-102.921
X127.758Y-62.413
X127.966Y-82.995
X128.067Y-77.9
X128.118Y-75.082
X128.118Y-88.341
X128.676Y-60.542
X128.764Y-64.059
X129.134Y-65.583
X129.656Y-77.43
X129.896Y-91.772
X130.1Y-96.6
X130.2Y-66.599
X130.3Y-68.25
X130.7Y-113.9
X130.843Y-85.635
X130.861Y-74.981
X130.861Y-77.826
X130.962Y-81.432
X131.408Y-93.275
X131.42Y-59.88
X132.639Y-77.9
X132.791Y-97.841
X132.9Y-68.55
X133.045Y-74.625
X133.926Y-77.104
X134.874Y-94.844
X134.925Y-74.828
X135.454Y-87.511
X135.513Y-88.911
X135.534Y-85.598
X135.687Y-89.967
X135.828Y-106.944
X136.347Y-73.078
X136.511Y-69.8
X136.937Y-83.78
X136.957Y-95.606
X137.008Y-76.352
X137.16Y-77.775
X137.211Y-81.686
X137.277Y-85.688
X137.528Y-87.088
X137.669Y-83.099
X137.719Y-93.777
X137.77Y-78.791
X141.224Y-86.766
X141.35Y-76.35
X142.558Y-83.668
X142.558Y-88.284
X142.558Y-93.726
X142.596Y-79.35
X143.205Y-80.162
X143.662Y-77.013
X144.3Y-82.7
X145.186Y-70.917
X145.4Y-84.6
X146.202Y-81.188
X146.4Y-68.2
X146.4Y-77.2
X147.Y-59.5
X147.2Y-85.8
X147.815Y-78.
X150.3Y-102.5
X151.1Y-84.7
X153.2Y-69.
X157.6Y-113.8
X158.9Y-95.1
X163.3Y-109.2
X167.234Y-62.992
X168.148Y-63.906
X168.3Y-70.9
X168.334Y-65.024
X168.7Y-79.3
X169.012Y-61.976
X171.7Y-87.6
X173.7Y-59.5
X174.1Y-84.1
T2
X138.4Y-60.5
X138.4Y-65.5
T3
X154.076Y-86.528
X154.076Y-90.526
X154.076Y-94.524
X158.074Y-88.527
X158.074Y-92.525
X162.072Y-86.528
X162.072Y-90.526
X162.072Y-94.524
T4
X150.774Y-75.326
X150.774Y-105.725
X168.872Y-76.827
X168.872Y-104.224
T0
M30
