G04 #@! TF.GenerationSoftware,KiCad,Pcbnew,(2017-01-11 revision e99b79cb2)-master*
G04 #@! TF.CreationDate,2017-12-19T18:36:39+02:00*
G04 #@! TF.ProjectId,display,646973706C61792E6B696361645F7063,1*
G04 #@! TF.FileFunction,Legend,Top*
G04 #@! TF.FilePolarity,Positive*
%FSLAX46Y46*%
G04 Gerber Fmt 4.6, Leading zero omitted, Abs format (unit mm)*
G04 Created by KiCad (PCBNEW (2017-01-11 revision e99b79cb2)-master) date Tue Dec 19 18:36:39 2017*
%MOMM*%
%LPD*%
G01*
G04 APERTURE LIST*
%ADD10C,0.100000*%
%ADD11C,0.300000*%
%ADD12C,0.101600*%
%ADD13C,0.203200*%
%ADD14C,0.200000*%
%ADD15C,0.010000*%
%ADD16C,0.150000*%
%ADD17C,0.198120*%
%ADD18C,0.127000*%
%ADD19C,0.099060*%
%ADD20C,0.076200*%
G04 APERTURE END LIST*
D10*
D11*
X189221428Y-95928571D02*
X189221428Y-97142857D01*
X189292857Y-97285714D01*
X189364285Y-97357142D01*
X189507142Y-97428571D01*
X189792857Y-97428571D01*
X189935714Y-97357142D01*
X190007142Y-97285714D01*
X190078571Y-97142857D01*
X190078571Y-95928571D01*
X190721428Y-97357142D02*
X190864285Y-97428571D01*
X191150000Y-97428571D01*
X191292857Y-97357142D01*
X191364285Y-97214285D01*
X191364285Y-97142857D01*
X191292857Y-97000000D01*
X191150000Y-96928571D01*
X190935714Y-96928571D01*
X190792857Y-96857142D01*
X190721428Y-96714285D01*
X190721428Y-96642857D01*
X190792857Y-96500000D01*
X190935714Y-96428571D01*
X191150000Y-96428571D01*
X191292857Y-96500000D01*
X192578571Y-97357142D02*
X192435714Y-97428571D01*
X192150000Y-97428571D01*
X192007142Y-97357142D01*
X191935714Y-97214285D01*
X191935714Y-96642857D01*
X192007142Y-96500000D01*
X192150000Y-96428571D01*
X192435714Y-96428571D01*
X192578571Y-96500000D01*
X192650000Y-96642857D01*
X192650000Y-96785714D01*
X191935714Y-96928571D01*
X193150000Y-96428571D02*
X193507142Y-97428571D01*
X193864285Y-96428571D01*
X194650000Y-97428571D02*
X194507142Y-97357142D01*
X194435714Y-97285714D01*
X194364285Y-97142857D01*
X194364285Y-96714285D01*
X194435714Y-96571428D01*
X194507142Y-96500000D01*
X194650000Y-96428571D01*
X194864285Y-96428571D01*
X195007142Y-96500000D01*
X195078571Y-96571428D01*
X195150000Y-96714285D01*
X195150000Y-97142857D01*
X195078571Y-97285714D01*
X195007142Y-97357142D01*
X194864285Y-97428571D01*
X194650000Y-97428571D01*
X196007142Y-97428571D02*
X195864285Y-97357142D01*
X195792857Y-97214285D01*
X195792857Y-95928571D01*
X196364285Y-96428571D02*
X196935714Y-96428571D01*
X196578571Y-95928571D02*
X196578571Y-97214285D01*
X196650000Y-97357142D01*
X196792857Y-97428571D01*
X196935714Y-97428571D01*
X198864285Y-95928571D02*
X199150000Y-95928571D01*
X199292857Y-96000000D01*
X199435714Y-96142857D01*
X199507142Y-96428571D01*
X199507142Y-96928571D01*
X199435714Y-97214285D01*
X199292857Y-97357142D01*
X199150000Y-97428571D01*
X198864285Y-97428571D01*
X198721428Y-97357142D01*
X198578571Y-97214285D01*
X198507142Y-96928571D01*
X198507142Y-96428571D01*
X198578571Y-96142857D01*
X198721428Y-96000000D01*
X198864285Y-95928571D01*
X200007142Y-96428571D02*
X200364285Y-97428571D01*
X200721428Y-96428571D02*
X200364285Y-97428571D01*
X200221428Y-97785714D01*
X200150000Y-97857142D01*
X200007142Y-97928571D01*
X189900000Y-98978571D02*
X189900000Y-99978571D01*
X189257142Y-98978571D02*
X189257142Y-99764285D01*
X189328571Y-99907142D01*
X189471428Y-99978571D01*
X189685714Y-99978571D01*
X189828571Y-99907142D01*
X189900000Y-99835714D01*
X190471428Y-98978571D02*
X190757142Y-99978571D01*
X191042857Y-99264285D01*
X191328571Y-99978571D01*
X191614285Y-98978571D01*
X191828571Y-100121428D02*
X192971428Y-100121428D01*
X193971428Y-99978571D02*
X193971428Y-98478571D01*
X193971428Y-99907142D02*
X193828571Y-99978571D01*
X193542857Y-99978571D01*
X193400000Y-99907142D01*
X193328571Y-99835714D01*
X193257142Y-99692857D01*
X193257142Y-99264285D01*
X193328571Y-99121428D01*
X193400000Y-99050000D01*
X193542857Y-98978571D01*
X193828571Y-98978571D01*
X193971428Y-99050000D01*
X194685714Y-99978571D02*
X194685714Y-98978571D01*
X194685714Y-98478571D02*
X194614285Y-98550000D01*
X194685714Y-98621428D01*
X194757142Y-98550000D01*
X194685714Y-98478571D01*
X194685714Y-98621428D01*
X195328571Y-99907142D02*
X195471428Y-99978571D01*
X195757142Y-99978571D01*
X195900000Y-99907142D01*
X195971428Y-99764285D01*
X195971428Y-99692857D01*
X195900000Y-99550000D01*
X195757142Y-99478571D01*
X195542857Y-99478571D01*
X195400000Y-99407142D01*
X195328571Y-99264285D01*
X195328571Y-99192857D01*
X195400000Y-99050000D01*
X195542857Y-98978571D01*
X195757142Y-98978571D01*
X195900000Y-99050000D01*
X196614285Y-98978571D02*
X196614285Y-100478571D01*
X196614285Y-99050000D02*
X196757142Y-98978571D01*
X197042857Y-98978571D01*
X197185714Y-99050000D01*
X197257142Y-99121428D01*
X197328571Y-99264285D01*
X197328571Y-99692857D01*
X197257142Y-99835714D01*
X197185714Y-99907142D01*
X197042857Y-99978571D01*
X196757142Y-99978571D01*
X196614285Y-99907142D01*
X198185714Y-99978571D02*
X198042857Y-99907142D01*
X197971428Y-99764285D01*
X197971428Y-98478571D01*
X199400000Y-99978571D02*
X199400000Y-99192857D01*
X199328571Y-99050000D01*
X199185714Y-98978571D01*
X198900000Y-98978571D01*
X198757142Y-99050000D01*
X199400000Y-99907142D02*
X199257142Y-99978571D01*
X198900000Y-99978571D01*
X198757142Y-99907142D01*
X198685714Y-99764285D01*
X198685714Y-99621428D01*
X198757142Y-99478571D01*
X198900000Y-99407142D01*
X199257142Y-99407142D01*
X199400000Y-99335714D01*
X199971428Y-98978571D02*
X200328571Y-99978571D01*
X200685714Y-98978571D02*
X200328571Y-99978571D01*
X200185714Y-100335714D01*
X200114285Y-100407142D01*
X199971428Y-100478571D01*
X192328571Y-101171428D02*
X192400000Y-101100000D01*
X192542857Y-101028571D01*
X192900000Y-101028571D01*
X193042857Y-101100000D01*
X193114285Y-101171428D01*
X193185714Y-101314285D01*
X193185714Y-101457142D01*
X193114285Y-101671428D01*
X192257142Y-102528571D01*
X193185714Y-102528571D01*
X193828571Y-102385714D02*
X193900000Y-102457142D01*
X193828571Y-102528571D01*
X193757142Y-102457142D01*
X193828571Y-102385714D01*
X193828571Y-102528571D01*
X195328571Y-102528571D02*
X194471428Y-102528571D01*
X194900000Y-102528571D02*
X194900000Y-101028571D01*
X194757142Y-101242857D01*
X194614285Y-101385714D01*
X194471428Y-101457142D01*
X195971428Y-102385714D02*
X196042857Y-102457142D01*
X195971428Y-102528571D01*
X195900000Y-102457142D01*
X195971428Y-102385714D01*
X195971428Y-102528571D01*
X196971428Y-101028571D02*
X197114285Y-101028571D01*
X197257142Y-101100000D01*
X197328571Y-101171428D01*
X197400000Y-101314285D01*
X197471428Y-101600000D01*
X197471428Y-101957142D01*
X197400000Y-102242857D01*
X197328571Y-102385714D01*
X197257142Y-102457142D01*
X197114285Y-102528571D01*
X196971428Y-102528571D01*
X196828571Y-102457142D01*
X196757142Y-102385714D01*
X196685714Y-102242857D01*
X196614285Y-101957142D01*
X196614285Y-101600000D01*
X196685714Y-101314285D01*
X196757142Y-101171428D01*
X196828571Y-101100000D01*
X196971428Y-101028571D01*
D12*
X139706447Y-77815000D02*
G75*
G03X139706447Y-77815000I-251447J0D01*
G01*
D13*
X140090000Y-76545000D02*
X140090000Y-80355000D01*
X135010000Y-76545000D02*
X140090000Y-76545000D01*
X135010000Y-80355000D02*
X135010000Y-76545000D01*
X140090000Y-80355000D02*
X135010000Y-80355000D01*
D14*
X176651734Y-111200000D02*
X176651734Y-109950000D01*
X175901734Y-111200000D02*
X176651734Y-111200000D01*
X175901734Y-112200000D02*
X175901734Y-111200000D01*
X200651734Y-111200000D02*
X200651734Y-109950000D01*
X201401734Y-111200000D02*
X200651734Y-111200000D01*
X201401734Y-112200000D02*
X201401734Y-111200000D01*
X175901734Y-112200000D02*
X201401734Y-112200000D01*
X176651734Y-105500000D02*
X176651734Y-107700000D01*
X178251734Y-105500000D02*
X176651734Y-105500000D01*
X200851734Y-105500000D02*
X200851734Y-107700000D01*
X199051734Y-105500000D02*
X200851734Y-105500000D01*
D12*
X136265447Y-101240000D02*
G75*
G03X136265447Y-101240000I-251447J0D01*
G01*
D13*
X137284000Y-101875000D02*
X133474000Y-101875000D01*
X137284000Y-96795000D02*
X137284000Y-101875000D01*
X133474000Y-96795000D02*
X137284000Y-96795000D01*
X133474000Y-101875000D02*
X133474000Y-96795000D01*
D15*
G36*
X200093339Y-87892237D02*
X200418072Y-87894036D01*
X200693984Y-87896824D01*
X200907953Y-87900428D01*
X201046857Y-87904677D01*
X201097575Y-87909398D01*
X201097599Y-87909507D01*
X201077321Y-87959800D01*
X201022221Y-88082986D01*
X200940905Y-88260106D01*
X200849766Y-88455607D01*
X200688743Y-88798504D01*
X200506057Y-89187048D01*
X200306704Y-89610652D01*
X200095680Y-90058728D01*
X199877981Y-90520689D01*
X199658605Y-90985946D01*
X199442547Y-91443913D01*
X199234804Y-91884001D01*
X199040373Y-92295624D01*
X198864248Y-92668193D01*
X198711428Y-92991122D01*
X198586908Y-93253821D01*
X198495684Y-93445705D01*
X198442941Y-93555800D01*
X198356327Y-93738576D01*
X198242679Y-93984204D01*
X198115831Y-94262513D01*
X197989613Y-94543335D01*
X197971283Y-94584500D01*
X197671985Y-95257600D01*
X188695553Y-95257600D01*
X188729919Y-95149322D01*
X188761378Y-95071188D01*
X188828845Y-94917101D01*
X188925117Y-94703059D01*
X189042988Y-94445061D01*
X189175255Y-94159104D01*
X189193172Y-94120622D01*
X189297132Y-93897243D01*
X189438053Y-93594029D01*
X189610200Y-93223337D01*
X189807841Y-92797526D01*
X190025240Y-92328953D01*
X190256663Y-91829977D01*
X190496377Y-91312956D01*
X190738646Y-90790247D01*
X190851330Y-90547063D01*
X192080600Y-87893927D01*
X193868489Y-87892763D01*
X195656379Y-87891600D01*
X195534005Y-88158300D01*
X195489767Y-88254145D01*
X195407103Y-88432679D01*
X195290396Y-88684453D01*
X195144031Y-89000015D01*
X194972392Y-89369916D01*
X194779866Y-89784704D01*
X194570835Y-90234931D01*
X194349685Y-90711145D01*
X194219978Y-90990400D01*
X193028324Y-93555800D01*
X194329046Y-93569376D01*
X194682968Y-93571592D01*
X195003111Y-93570772D01*
X195275526Y-93567182D01*
X195486264Y-93561086D01*
X195621379Y-93552750D01*
X195666473Y-93543976D01*
X195694752Y-93491667D01*
X195762021Y-93356298D01*
X195864019Y-93146744D01*
X195996487Y-92871880D01*
X196155165Y-92540580D01*
X196335793Y-92161721D01*
X196534111Y-91744175D01*
X196745859Y-91296820D01*
X196794618Y-91193600D01*
X197017620Y-90721642D01*
X197235182Y-90261783D01*
X197441923Y-89825353D01*
X197632462Y-89423684D01*
X197801421Y-89068109D01*
X197943419Y-88769959D01*
X198053076Y-88540566D01*
X198125012Y-88391262D01*
X198127134Y-88386900D01*
X198368212Y-87891600D01*
X199732906Y-87891600D01*
X200093339Y-87892237D01*
X200093339Y-87892237D01*
G37*
X200093339Y-87892237D02*
X200418072Y-87894036D01*
X200693984Y-87896824D01*
X200907953Y-87900428D01*
X201046857Y-87904677D01*
X201097575Y-87909398D01*
X201097599Y-87909507D01*
X201077321Y-87959800D01*
X201022221Y-88082986D01*
X200940905Y-88260106D01*
X200849766Y-88455607D01*
X200688743Y-88798504D01*
X200506057Y-89187048D01*
X200306704Y-89610652D01*
X200095680Y-90058728D01*
X199877981Y-90520689D01*
X199658605Y-90985946D01*
X199442547Y-91443913D01*
X199234804Y-91884001D01*
X199040373Y-92295624D01*
X198864248Y-92668193D01*
X198711428Y-92991122D01*
X198586908Y-93253821D01*
X198495684Y-93445705D01*
X198442941Y-93555800D01*
X198356327Y-93738576D01*
X198242679Y-93984204D01*
X198115831Y-94262513D01*
X197989613Y-94543335D01*
X197971283Y-94584500D01*
X197671985Y-95257600D01*
X188695553Y-95257600D01*
X188729919Y-95149322D01*
X188761378Y-95071188D01*
X188828845Y-94917101D01*
X188925117Y-94703059D01*
X189042988Y-94445061D01*
X189175255Y-94159104D01*
X189193172Y-94120622D01*
X189297132Y-93897243D01*
X189438053Y-93594029D01*
X189610200Y-93223337D01*
X189807841Y-92797526D01*
X190025240Y-92328953D01*
X190256663Y-91829977D01*
X190496377Y-91312956D01*
X190738646Y-90790247D01*
X190851330Y-90547063D01*
X192080600Y-87893927D01*
X193868489Y-87892763D01*
X195656379Y-87891600D01*
X195534005Y-88158300D01*
X195489767Y-88254145D01*
X195407103Y-88432679D01*
X195290396Y-88684453D01*
X195144031Y-89000015D01*
X194972392Y-89369916D01*
X194779866Y-89784704D01*
X194570835Y-90234931D01*
X194349685Y-90711145D01*
X194219978Y-90990400D01*
X193028324Y-93555800D01*
X194329046Y-93569376D01*
X194682968Y-93571592D01*
X195003111Y-93570772D01*
X195275526Y-93567182D01*
X195486264Y-93561086D01*
X195621379Y-93552750D01*
X195666473Y-93543976D01*
X195694752Y-93491667D01*
X195762021Y-93356298D01*
X195864019Y-93146744D01*
X195996487Y-92871880D01*
X196155165Y-92540580D01*
X196335793Y-92161721D01*
X196534111Y-91744175D01*
X196745859Y-91296820D01*
X196794618Y-91193600D01*
X197017620Y-90721642D01*
X197235182Y-90261783D01*
X197441923Y-89825353D01*
X197632462Y-89423684D01*
X197801421Y-89068109D01*
X197943419Y-88769959D01*
X198053076Y-88540566D01*
X198125012Y-88391262D01*
X198127134Y-88386900D01*
X198368212Y-87891600D01*
X199732906Y-87891600D01*
X200093339Y-87892237D01*
D16*
X186800000Y-92350000D02*
X187200000Y-92350000D01*
X187200000Y-92350000D02*
X187200000Y-92750000D01*
D14*
X138922400Y-74160400D02*
X138922400Y-72839600D01*
X136077600Y-74160400D02*
X138922400Y-74160400D01*
X136077600Y-72839600D02*
X136077600Y-74160400D01*
X138922400Y-72839600D02*
X136077600Y-72839600D01*
D10*
X137042800Y-73982600D02*
X137042800Y-73017400D01*
X137042800Y-73017400D02*
X136661800Y-73017400D01*
X136661800Y-73982600D02*
X137042800Y-73982600D01*
X137957200Y-73017400D02*
X137957200Y-73982600D01*
X137957200Y-73982600D02*
X138338200Y-73982600D01*
X138338200Y-73017400D02*
X137957200Y-73017400D01*
X137042800Y-73982600D02*
X137957200Y-73982600D01*
X138338200Y-73982600D02*
X138338200Y-73017400D01*
X137957200Y-73017400D02*
X137042800Y-73017400D01*
X136661800Y-73017400D02*
X136661800Y-73982600D01*
X176417400Y-96438200D02*
X177382600Y-96438200D01*
X176417400Y-95142800D02*
X176417400Y-96057200D01*
X177382600Y-94761800D02*
X176417400Y-94761800D01*
X177382600Y-96057200D02*
X177382600Y-95142800D01*
X176417400Y-94761800D02*
X176417400Y-95142800D01*
X177382600Y-95142800D02*
X177382600Y-94761800D01*
X176417400Y-95142800D02*
X177382600Y-95142800D01*
X177382600Y-96438200D02*
X177382600Y-96057200D01*
X176417400Y-96057200D02*
X176417400Y-96438200D01*
X177382600Y-96057200D02*
X176417400Y-96057200D01*
D14*
X176239600Y-94177600D02*
X176239600Y-97022400D01*
X176239600Y-97022400D02*
X177560400Y-97022400D01*
X177560400Y-97022400D02*
X177560400Y-94177600D01*
X177560400Y-94177600D02*
X176239600Y-94177600D01*
X182060400Y-88077600D02*
X180739600Y-88077600D01*
X182060400Y-90922400D02*
X182060400Y-88077600D01*
X180739600Y-90922400D02*
X182060400Y-90922400D01*
X180739600Y-88077600D02*
X180739600Y-90922400D01*
D10*
X181882600Y-89957200D02*
X180917400Y-89957200D01*
X180917400Y-89957200D02*
X180917400Y-90338200D01*
X181882600Y-90338200D02*
X181882600Y-89957200D01*
X180917400Y-89042800D02*
X181882600Y-89042800D01*
X181882600Y-89042800D02*
X181882600Y-88661800D01*
X180917400Y-88661800D02*
X180917400Y-89042800D01*
X181882600Y-89957200D02*
X181882600Y-89042800D01*
X181882600Y-88661800D02*
X180917400Y-88661800D01*
X180917400Y-89042800D02*
X180917400Y-89957200D01*
X180917400Y-90338200D02*
X181882600Y-90338200D01*
D14*
X178377600Y-85339600D02*
X178377600Y-86660400D01*
X181222400Y-85339600D02*
X178377600Y-85339600D01*
X181222400Y-86660400D02*
X181222400Y-85339600D01*
X178377600Y-86660400D02*
X181222400Y-86660400D01*
D10*
X180257200Y-85517400D02*
X180257200Y-86482600D01*
X180257200Y-86482600D02*
X180638200Y-86482600D01*
X180638200Y-85517400D02*
X180257200Y-85517400D01*
X179342800Y-86482600D02*
X179342800Y-85517400D01*
X179342800Y-85517400D02*
X178961800Y-85517400D01*
X178961800Y-86482600D02*
X179342800Y-86482600D01*
X180257200Y-85517400D02*
X179342800Y-85517400D01*
X178961800Y-85517400D02*
X178961800Y-86482600D01*
X179342800Y-86482600D02*
X180257200Y-86482600D01*
X180638200Y-86482600D02*
X180638200Y-85517400D01*
X187500000Y-72382600D02*
X187500000Y-71417400D01*
X186204600Y-72382600D02*
X187119000Y-72382600D01*
X185823600Y-71417400D02*
X185823600Y-72382600D01*
X187119000Y-71417400D02*
X186204600Y-71417400D01*
X185823600Y-72382600D02*
X186204600Y-72382600D01*
X186204600Y-71417400D02*
X185823600Y-71417400D01*
X186204600Y-72382600D02*
X186204600Y-71417400D01*
X187500000Y-71417400D02*
X187119000Y-71417400D01*
X187119000Y-72382600D02*
X187500000Y-72382600D01*
X187119000Y-71417400D02*
X187119000Y-72382600D01*
D14*
X185239400Y-72560400D02*
X188084200Y-72560400D01*
X188084200Y-72560400D02*
X188084200Y-71239600D01*
X188084200Y-71239600D02*
X185239400Y-71239600D01*
X185239400Y-71239600D02*
X185239400Y-72560400D01*
D10*
X183561800Y-87367400D02*
X183561800Y-88332600D01*
X184857200Y-87367400D02*
X183942800Y-87367400D01*
X185238200Y-88332600D02*
X185238200Y-87367400D01*
X183942800Y-88332600D02*
X184857200Y-88332600D01*
X185238200Y-87367400D02*
X184857200Y-87367400D01*
X184857200Y-88332600D02*
X185238200Y-88332600D01*
X184857200Y-87367400D02*
X184857200Y-88332600D01*
X183561800Y-88332600D02*
X183942800Y-88332600D01*
X183942800Y-87367400D02*
X183561800Y-87367400D01*
X183942800Y-88332600D02*
X183942800Y-87367400D01*
D14*
X185822400Y-87189600D02*
X182977600Y-87189600D01*
X182977600Y-87189600D02*
X182977600Y-88510400D01*
X182977600Y-88510400D02*
X185822400Y-88510400D01*
X185822400Y-88510400D02*
X185822400Y-87189600D01*
X192122400Y-72560400D02*
X192122400Y-71239600D01*
X189277600Y-72560400D02*
X192122400Y-72560400D01*
X189277600Y-71239600D02*
X189277600Y-72560400D01*
X192122400Y-71239600D02*
X189277600Y-71239600D01*
D10*
X190242800Y-72382600D02*
X190242800Y-71417400D01*
X190242800Y-71417400D02*
X189861800Y-71417400D01*
X189861800Y-72382600D02*
X190242800Y-72382600D01*
X191157200Y-71417400D02*
X191157200Y-72382600D01*
X191157200Y-72382600D02*
X191538200Y-72382600D01*
X191538200Y-71417400D02*
X191157200Y-71417400D01*
X190242800Y-72382600D02*
X191157200Y-72382600D01*
X191538200Y-72382600D02*
X191538200Y-71417400D01*
X191157200Y-71417400D02*
X190242800Y-71417400D01*
X189861800Y-71417400D02*
X189861800Y-72382600D01*
X178338200Y-78782600D02*
X178338200Y-77817400D01*
X177042800Y-78782600D02*
X177957200Y-78782600D01*
X176661800Y-77817400D02*
X176661800Y-78782600D01*
X177957200Y-77817400D02*
X177042800Y-77817400D01*
X176661800Y-78782600D02*
X177042800Y-78782600D01*
X177042800Y-77817400D02*
X176661800Y-77817400D01*
X177042800Y-78782600D02*
X177042800Y-77817400D01*
X178338200Y-77817400D02*
X177957200Y-77817400D01*
X177957200Y-78782600D02*
X178338200Y-78782600D01*
X177957200Y-77817400D02*
X177957200Y-78782600D01*
D14*
X176077600Y-78960400D02*
X178922400Y-78960400D01*
X178922400Y-78960400D02*
X178922400Y-77639600D01*
X178922400Y-77639600D02*
X176077600Y-77639600D01*
X176077600Y-77639600D02*
X176077600Y-78960400D01*
D10*
X179317400Y-90338200D02*
X180282600Y-90338200D01*
X179317400Y-89042800D02*
X179317400Y-89957200D01*
X180282600Y-88661800D02*
X179317400Y-88661800D01*
X180282600Y-89957200D02*
X180282600Y-89042800D01*
X179317400Y-88661800D02*
X179317400Y-89042800D01*
X180282600Y-89042800D02*
X180282600Y-88661800D01*
X179317400Y-89042800D02*
X180282600Y-89042800D01*
X180282600Y-90338200D02*
X180282600Y-89957200D01*
X179317400Y-89957200D02*
X179317400Y-90338200D01*
X180282600Y-89957200D02*
X179317400Y-89957200D01*
D14*
X179139600Y-88077600D02*
X179139600Y-90922400D01*
X179139600Y-90922400D02*
X180460400Y-90922400D01*
X180460400Y-90922400D02*
X180460400Y-88077600D01*
X180460400Y-88077600D02*
X179139600Y-88077600D01*
X171150000Y-107200000D02*
X172450000Y-107200000D01*
X171800000Y-106600000D02*
X171150000Y-107200000D01*
X172450000Y-107250000D02*
X171800000Y-106600000D01*
X171139600Y-108372400D02*
X172460400Y-108372400D01*
X171139600Y-105527600D02*
X171139600Y-108372400D01*
X172460400Y-105527600D02*
X171139600Y-105527600D01*
X172460400Y-108372400D02*
X172460400Y-105527600D01*
D10*
X171317400Y-106492800D02*
X172282600Y-106492800D01*
X172282600Y-106492800D02*
X172282600Y-106111800D01*
X171317400Y-106111800D02*
X171317400Y-106492800D01*
X172282600Y-107407200D02*
X171317400Y-107407200D01*
X171317400Y-107407200D02*
X171317400Y-107788200D01*
X172282600Y-107788200D02*
X172282600Y-107407200D01*
X171317400Y-106492800D02*
X171317400Y-107407200D01*
X171317400Y-107788200D02*
X172282600Y-107788200D01*
X172282600Y-107407200D02*
X172282600Y-106492800D01*
X172282600Y-106111800D02*
X171317400Y-106111800D01*
D17*
X181301280Y-75001280D02*
X181900720Y-75001280D01*
X181301280Y-75600720D02*
X181301280Y-75001280D01*
X190699280Y-75001280D02*
X191298720Y-75001280D01*
X190699280Y-84998720D02*
X191298720Y-84998720D01*
X181301280Y-84998720D02*
X181900720Y-84998720D01*
X191298720Y-84998720D02*
X191298720Y-84399280D01*
X191298720Y-75600720D02*
X191298720Y-75001280D01*
X181301280Y-84998720D02*
X181301280Y-84399280D01*
X190699280Y-85397500D02*
X191697500Y-85397500D01*
X191697500Y-85397500D02*
X191697500Y-84399280D01*
D14*
X174477600Y-71439600D02*
X174477600Y-72760400D01*
X177322400Y-71439600D02*
X174477600Y-71439600D01*
X177322400Y-72760400D02*
X177322400Y-71439600D01*
X174477600Y-72760400D02*
X177322400Y-72760400D01*
D10*
X176357200Y-71617400D02*
X176357200Y-72582600D01*
X176357200Y-72582600D02*
X176738200Y-72582600D01*
X176738200Y-71617400D02*
X176357200Y-71617400D01*
X175442800Y-72582600D02*
X175442800Y-71617400D01*
X175442800Y-71617400D02*
X175061800Y-71617400D01*
X175061800Y-72582600D02*
X175442800Y-72582600D01*
X176357200Y-71617400D02*
X175442800Y-71617400D01*
X175061800Y-71617400D02*
X175061800Y-72582600D01*
X175442800Y-72582600D02*
X176357200Y-72582600D01*
X176738200Y-72582600D02*
X176738200Y-71617400D01*
X170861800Y-71617400D02*
X170861800Y-72582600D01*
X172157200Y-71617400D02*
X171242800Y-71617400D01*
X172538200Y-72582600D02*
X172538200Y-71617400D01*
X171242800Y-72582600D02*
X172157200Y-72582600D01*
X172538200Y-71617400D02*
X172157200Y-71617400D01*
X172157200Y-72582600D02*
X172538200Y-72582600D01*
X172157200Y-71617400D02*
X172157200Y-72582600D01*
X170861800Y-72582600D02*
X171242800Y-72582600D01*
X171242800Y-71617400D02*
X170861800Y-71617400D01*
X171242800Y-72582600D02*
X171242800Y-71617400D01*
D14*
X173122400Y-71439600D02*
X170277600Y-71439600D01*
X170277600Y-71439600D02*
X170277600Y-72760400D01*
X170277600Y-72760400D02*
X173122400Y-72760400D01*
X173122400Y-72760400D02*
X173122400Y-71439600D01*
D18*
X176398420Y-76498600D02*
X176197760Y-76699260D01*
X176197760Y-76699260D02*
X171402240Y-76699260D01*
X171402240Y-76699260D02*
X171201580Y-76498600D01*
X171102520Y-73501400D02*
X171300640Y-73300740D01*
X171300640Y-73300740D02*
X176197760Y-73300740D01*
X176197760Y-73300740D02*
X176398420Y-73501400D01*
D10*
X168682600Y-82261800D02*
X167717400Y-82261800D01*
X168682600Y-83557200D02*
X168682600Y-82642800D01*
X167717400Y-83938200D02*
X168682600Y-83938200D01*
X167717400Y-82642800D02*
X167717400Y-83557200D01*
X168682600Y-83938200D02*
X168682600Y-83557200D01*
X167717400Y-83557200D02*
X167717400Y-83938200D01*
X168682600Y-83557200D02*
X167717400Y-83557200D01*
X167717400Y-82261800D02*
X167717400Y-82642800D01*
X168682600Y-82642800D02*
X168682600Y-82261800D01*
X167717400Y-82642800D02*
X168682600Y-82642800D01*
D14*
X168860400Y-84522400D02*
X168860400Y-81677600D01*
X168860400Y-81677600D02*
X167539600Y-81677600D01*
X167539600Y-81677600D02*
X167539600Y-84522400D01*
X167539600Y-84522400D02*
X168860400Y-84522400D01*
X167439600Y-88122400D02*
X168760400Y-88122400D01*
X167439600Y-85277600D02*
X167439600Y-88122400D01*
X168760400Y-85277600D02*
X167439600Y-85277600D01*
X168760400Y-88122400D02*
X168760400Y-85277600D01*
D10*
X167617400Y-86242800D02*
X168582600Y-86242800D01*
X168582600Y-86242800D02*
X168582600Y-85861800D01*
X167617400Y-85861800D02*
X167617400Y-86242800D01*
X168582600Y-87157200D02*
X167617400Y-87157200D01*
X167617400Y-87157200D02*
X167617400Y-87538200D01*
X168582600Y-87538200D02*
X168582600Y-87157200D01*
X167617400Y-86242800D02*
X167617400Y-87157200D01*
X167617400Y-87538200D02*
X168582600Y-87538200D01*
X168582600Y-87157200D02*
X168582600Y-86242800D01*
X168582600Y-85861800D02*
X167617400Y-85861800D01*
D14*
X194877600Y-72489600D02*
X194877600Y-73810400D01*
X197722400Y-72489600D02*
X194877600Y-72489600D01*
X197722400Y-73810400D02*
X197722400Y-72489600D01*
X194877600Y-73810400D02*
X197722400Y-73810400D01*
D10*
X196757200Y-72667400D02*
X196757200Y-73632600D01*
X196757200Y-73632600D02*
X197138200Y-73632600D01*
X197138200Y-72667400D02*
X196757200Y-72667400D01*
X195842800Y-73632600D02*
X195842800Y-72667400D01*
X195842800Y-72667400D02*
X195461800Y-72667400D01*
X195461800Y-73632600D02*
X195842800Y-73632600D01*
X196757200Y-72667400D02*
X195842800Y-72667400D01*
X195461800Y-72667400D02*
X195461800Y-73632600D01*
X195842800Y-73632600D02*
X196757200Y-73632600D01*
X197138200Y-73632600D02*
X197138200Y-72667400D01*
D13*
X195380270Y-76599700D02*
X201219730Y-76599700D01*
X201219730Y-76599700D02*
X201219730Y-81400300D01*
X201219730Y-81400300D02*
X195380270Y-81400300D01*
X195380270Y-81400300D02*
X195380270Y-76599700D01*
D12*
X196647717Y-80384300D02*
G75*
G03X196647717Y-80384300I-251447J0D01*
G01*
D10*
X167217400Y-76288200D02*
X168182600Y-76288200D01*
X167217400Y-74992800D02*
X167217400Y-75907200D01*
X168182600Y-74611800D02*
X167217400Y-74611800D01*
X168182600Y-75907200D02*
X168182600Y-74992800D01*
X167217400Y-74611800D02*
X167217400Y-74992800D01*
X168182600Y-74992800D02*
X168182600Y-74611800D01*
X167217400Y-74992800D02*
X168182600Y-74992800D01*
X168182600Y-76288200D02*
X168182600Y-75907200D01*
X167217400Y-75907200D02*
X167217400Y-76288200D01*
X168182600Y-75907200D02*
X167217400Y-75907200D01*
D14*
X167039600Y-74027600D02*
X167039600Y-76872400D01*
X167039600Y-76872400D02*
X168360400Y-76872400D01*
X168360400Y-76872400D02*
X168360400Y-74027600D01*
X168360400Y-74027600D02*
X167039600Y-74027600D01*
X161260400Y-72177600D02*
X159939600Y-72177600D01*
X161260400Y-75022400D02*
X161260400Y-72177600D01*
X159939600Y-75022400D02*
X161260400Y-75022400D01*
X159939600Y-72177600D02*
X159939600Y-75022400D01*
D10*
X161082600Y-74057200D02*
X160117400Y-74057200D01*
X160117400Y-74057200D02*
X160117400Y-74438200D01*
X161082600Y-74438200D02*
X161082600Y-74057200D01*
X160117400Y-73142800D02*
X161082600Y-73142800D01*
X161082600Y-73142800D02*
X161082600Y-72761800D01*
X160117400Y-72761800D02*
X160117400Y-73142800D01*
X161082600Y-74057200D02*
X161082600Y-73142800D01*
X161082600Y-72761800D02*
X160117400Y-72761800D01*
X160117400Y-73142800D02*
X160117400Y-74057200D01*
X160117400Y-74438200D02*
X161082600Y-74438200D01*
D13*
X103901540Y-93752160D02*
X104401920Y-94250000D01*
X105400140Y-71750680D02*
X109400640Y-71750680D01*
X114399360Y-71750680D02*
X118399860Y-71750680D01*
X105400140Y-71750680D02*
X105400140Y-76251560D01*
X118399860Y-71750680D02*
X118399860Y-76251560D01*
X119898460Y-93752160D02*
X119898460Y-77750160D01*
X119898460Y-77750160D02*
X118399860Y-76251560D01*
X103901540Y-93752160D02*
X103901540Y-77750160D01*
X103901540Y-77750160D02*
X105400140Y-76251560D01*
X104414647Y-94261294D02*
G75*
G03X111900000Y-96749360I6652233J7509374D01*
G01*
X111911524Y-96750727D02*
G75*
G03X119398080Y-94250000I679356J10422987D01*
G01*
X119407040Y-94243707D02*
G75*
G03X119898460Y-93752160I-14575860J15063527D01*
G01*
D14*
X158200000Y-103700000D02*
X150000000Y-103700000D01*
X150000000Y-108300000D02*
X158200000Y-108300000D01*
X158200000Y-108300000D02*
X158200000Y-107700000D01*
X158000000Y-108300000D02*
X158000000Y-107700000D01*
X157800000Y-107700000D02*
X157800000Y-108300000D01*
X158200000Y-103700000D02*
X158200000Y-104300000D01*
X158000000Y-104300000D02*
X158000000Y-103700000D01*
X157800000Y-103700000D02*
X157800000Y-104300000D01*
X150000000Y-103700000D02*
X150000000Y-104300000D01*
X150000000Y-108300000D02*
X150000000Y-107700000D01*
X157800000Y-107700000D02*
X158200000Y-107700000D01*
X158200000Y-104300000D02*
X157800000Y-104300000D01*
D13*
X162712500Y-78950000D02*
X162712500Y-79302570D01*
X162712500Y-79302570D02*
X166487500Y-79302570D01*
X166487500Y-79302570D02*
X166487500Y-78950000D01*
X166487500Y-76983550D02*
X166487500Y-73559630D01*
X162712500Y-76983550D02*
X162712500Y-73559630D01*
X162712500Y-71550000D02*
X162712500Y-71164410D01*
X162712500Y-71164410D02*
X166487500Y-71164410D01*
X166487500Y-71164410D02*
X166487500Y-71550000D01*
D16*
X164891548Y-72050000D02*
G75*
G03X164891548Y-72050000I-291548J0D01*
G01*
D13*
X121201780Y-97101780D02*
X121201780Y-99098220D01*
X121201780Y-99098220D02*
X122799440Y-98100000D01*
X122799440Y-98100000D02*
X121201780Y-97101780D01*
X122799440Y-97101780D02*
X122997560Y-97101780D01*
X122997560Y-97101780D02*
X122997560Y-99098220D01*
X122997560Y-99098220D02*
X123198220Y-99098220D01*
X119901300Y-99999920D02*
X124399640Y-99999920D01*
X124399640Y-99999920D02*
X124399640Y-99598600D01*
X119901300Y-99999920D02*
X119901300Y-99598600D01*
X119901300Y-96601400D02*
X119901300Y-96200080D01*
X119901300Y-96200080D02*
X124399640Y-96200080D01*
X124399640Y-96200080D02*
X124399640Y-96601400D01*
X138749580Y-105799440D02*
X138749580Y-104600560D01*
X138749580Y-104600560D02*
X137850420Y-105200000D01*
X137850420Y-105200000D02*
X138749580Y-105799440D01*
X137850420Y-105799440D02*
X137850420Y-104600560D01*
D17*
X145652200Y-90449580D02*
X148547800Y-90449580D01*
X148547800Y-90449580D02*
X148547800Y-89350420D01*
X145652200Y-90449580D02*
X145652200Y-89350420D01*
X145652200Y-89350420D02*
X148547800Y-89350420D01*
D13*
X145552260Y-95601680D02*
X149550220Y-92800060D01*
X153949500Y-92800060D02*
X157950000Y-95601680D01*
X157950000Y-99198320D02*
X153949500Y-101999940D01*
X149550220Y-101999940D02*
X145552260Y-99198320D01*
X153948513Y-92799338D02*
G75*
G03X149550220Y-92800060I-2198653J-3010622D01*
G01*
X149551207Y-102000662D02*
G75*
G03X153949500Y-101999940I2198653J3010622D01*
G01*
D19*
X148056235Y-74802420D02*
G75*
G03X148056235Y-74802420I-2758735J0D01*
G01*
X129958735Y-76303560D02*
G75*
G03X129958735Y-76303560I-2758735J0D01*
G01*
X129958735Y-103700000D02*
G75*
G03X129958735Y-103700000I-2758735J0D01*
G01*
X148056235Y-105201140D02*
G75*
G03X148056235Y-105201140I-2758735J0D01*
G01*
D14*
X130910400Y-97827600D02*
X129589600Y-97827600D01*
X130910400Y-100672400D02*
X130910400Y-97827600D01*
X129589600Y-100672400D02*
X130910400Y-100672400D01*
X129589600Y-97827600D02*
X129589600Y-100672400D01*
D10*
X130732600Y-99707200D02*
X129767400Y-99707200D01*
X129767400Y-99707200D02*
X129767400Y-100088200D01*
X130732600Y-100088200D02*
X130732600Y-99707200D01*
X129767400Y-98792800D02*
X130732600Y-98792800D01*
X130732600Y-98792800D02*
X130732600Y-98411800D01*
X129767400Y-98411800D02*
X129767400Y-98792800D01*
X130732600Y-99707200D02*
X130732600Y-98792800D01*
X130732600Y-98411800D02*
X129767400Y-98411800D01*
X129767400Y-98792800D02*
X129767400Y-99707200D01*
X129767400Y-100088200D02*
X130732600Y-100088200D01*
D14*
X135977600Y-102439600D02*
X135977600Y-103760400D01*
X138822400Y-102439600D02*
X135977600Y-102439600D01*
X138822400Y-103760400D02*
X138822400Y-102439600D01*
X135977600Y-103760400D02*
X138822400Y-103760400D01*
D10*
X137857200Y-102617400D02*
X137857200Y-103582600D01*
X137857200Y-103582600D02*
X138238200Y-103582600D01*
X138238200Y-102617400D02*
X137857200Y-102617400D01*
X136942800Y-103582600D02*
X136942800Y-102617400D01*
X136942800Y-102617400D02*
X136561800Y-102617400D01*
X136561800Y-103582600D02*
X136942800Y-103582600D01*
X137857200Y-102617400D02*
X136942800Y-102617400D01*
X136561800Y-102617400D02*
X136561800Y-103582600D01*
X136942800Y-103582600D02*
X137857200Y-103582600D01*
X138238200Y-103582600D02*
X138238200Y-102617400D01*
X146261800Y-86017400D02*
X146261800Y-86982600D01*
X147557200Y-86017400D02*
X146642800Y-86017400D01*
X147938200Y-86982600D02*
X147938200Y-86017400D01*
X146642800Y-86982600D02*
X147557200Y-86982600D01*
X147938200Y-86017400D02*
X147557200Y-86017400D01*
X147557200Y-86982600D02*
X147938200Y-86982600D01*
X147557200Y-86017400D02*
X147557200Y-86982600D01*
X146261800Y-86982600D02*
X146642800Y-86982600D01*
X146642800Y-86017400D02*
X146261800Y-86017400D01*
X146642800Y-86982600D02*
X146642800Y-86017400D01*
D14*
X148522400Y-85839600D02*
X145677600Y-85839600D01*
X145677600Y-85839600D02*
X145677600Y-87160400D01*
X145677600Y-87160400D02*
X148522400Y-87160400D01*
X148522400Y-87160400D02*
X148522400Y-85839600D01*
X168739600Y-108422400D02*
X170060400Y-108422400D01*
X168739600Y-105577600D02*
X168739600Y-108422400D01*
X170060400Y-105577600D02*
X168739600Y-105577600D01*
X170060400Y-108422400D02*
X170060400Y-105577600D01*
D10*
X168917400Y-106542800D02*
X169882600Y-106542800D01*
X169882600Y-106542800D02*
X169882600Y-106161800D01*
X168917400Y-106161800D02*
X168917400Y-106542800D01*
X169882600Y-107457200D02*
X168917400Y-107457200D01*
X168917400Y-107457200D02*
X168917400Y-107838200D01*
X169882600Y-107838200D02*
X169882600Y-107457200D01*
X168917400Y-106542800D02*
X168917400Y-107457200D01*
X168917400Y-107838200D02*
X169882600Y-107838200D01*
X169882600Y-107457200D02*
X169882600Y-106542800D01*
X169882600Y-106161800D02*
X168917400Y-106161800D01*
D13*
X171100420Y-102700560D02*
X171100420Y-103899440D01*
X171100420Y-103899440D02*
X171999580Y-103300000D01*
X171999580Y-103300000D02*
X171100420Y-102700560D01*
X171999580Y-102700560D02*
X171999580Y-103899440D01*
D14*
X166300000Y-107400000D02*
X166300000Y-106600000D01*
X164700000Y-108500000D02*
X166300000Y-108500000D01*
X164700000Y-105500000D02*
X166300000Y-105500000D01*
X167200000Y-104800000D02*
X163200000Y-104800000D01*
X167200000Y-101600000D02*
X163200000Y-101600000D01*
D17*
X109652180Y-108447820D02*
X109652180Y-100152180D01*
X109652180Y-100152180D02*
X116949600Y-100152180D01*
X116949600Y-100152180D02*
X117947820Y-101150400D01*
X117947820Y-101150400D02*
X117947820Y-107449600D01*
X117947820Y-107449600D02*
X116949600Y-108447820D01*
X116949600Y-108447820D02*
X109652180Y-108447820D01*
X163500560Y-100547820D02*
X163500560Y-92252180D01*
X163500560Y-92252180D02*
X170797980Y-92252180D01*
X170797980Y-92252180D02*
X171796200Y-93250400D01*
X171796200Y-93250400D02*
X171796200Y-99549600D01*
X171796200Y-99549600D02*
X170797980Y-100547820D01*
X170797980Y-100547820D02*
X163500560Y-100547820D01*
D14*
X151560400Y-87877600D02*
X150239600Y-87877600D01*
X151560400Y-90722400D02*
X151560400Y-87877600D01*
X150239600Y-90722400D02*
X151560400Y-90722400D01*
X150239600Y-87877600D02*
X150239600Y-90722400D01*
D10*
X151382600Y-89757200D02*
X150417400Y-89757200D01*
X150417400Y-89757200D02*
X150417400Y-90138200D01*
X151382600Y-90138200D02*
X151382600Y-89757200D01*
X150417400Y-88842800D02*
X151382600Y-88842800D01*
X151382600Y-88842800D02*
X151382600Y-88461800D01*
X150417400Y-88461800D02*
X150417400Y-88842800D01*
X151382600Y-89757200D02*
X151382600Y-88842800D01*
X151382600Y-88461800D02*
X150417400Y-88461800D01*
X150417400Y-88842800D02*
X150417400Y-89757200D01*
X150417400Y-90138200D02*
X151382600Y-90138200D01*
D14*
X160839600Y-91422400D02*
X162160400Y-91422400D01*
X160839600Y-88577600D02*
X160839600Y-91422400D01*
X162160400Y-88577600D02*
X160839600Y-88577600D01*
X162160400Y-91422400D02*
X162160400Y-88577600D01*
D10*
X161017400Y-89542800D02*
X161982600Y-89542800D01*
X161982600Y-89542800D02*
X161982600Y-89161800D01*
X161017400Y-89161800D02*
X161017400Y-89542800D01*
X161982600Y-90457200D02*
X161017400Y-90457200D01*
X161017400Y-90457200D02*
X161017400Y-90838200D01*
X161982600Y-90838200D02*
X161982600Y-90457200D01*
X161017400Y-89542800D02*
X161017400Y-90457200D01*
X161017400Y-90838200D02*
X161982600Y-90838200D01*
X161982600Y-90457200D02*
X161982600Y-89542800D01*
X161982600Y-89161800D02*
X161017400Y-89161800D01*
X161982600Y-85919579D02*
X161017400Y-85919579D01*
X161982600Y-87214979D02*
X161982600Y-86300579D01*
X161017400Y-87595979D02*
X161982600Y-87595979D01*
X161017400Y-86300579D02*
X161017400Y-87214979D01*
X161982600Y-87595979D02*
X161982600Y-87214979D01*
X161017400Y-87214979D02*
X161017400Y-87595979D01*
X161982600Y-87214979D02*
X161017400Y-87214979D01*
X161017400Y-85919579D02*
X161017400Y-86300579D01*
X161982600Y-86300579D02*
X161982600Y-85919579D01*
X161017400Y-86300579D02*
X161982600Y-86300579D01*
D14*
X162160400Y-88180179D02*
X162160400Y-85335379D01*
X162160400Y-85335379D02*
X160839600Y-85335379D01*
X160839600Y-85335379D02*
X160839600Y-88180179D01*
X160839600Y-88180179D02*
X162160400Y-88180179D01*
D12*
X157001350Y-90566127D02*
G75*
G03X157001350Y-90566127I-251447J0D01*
G01*
D13*
X158019903Y-91201127D02*
X154209903Y-91201127D01*
X158019903Y-86121127D02*
X158019903Y-91201127D01*
X154209903Y-86121127D02*
X158019903Y-86121127D01*
X154209903Y-91201127D02*
X154209903Y-86121127D01*
D14*
X161100000Y-79200000D02*
G75*
G03X161100000Y-79200000I-6300000J0D01*
G01*
D13*
X169342000Y-85776000D02*
X169342000Y-83744000D01*
X175438000Y-85776000D02*
X175438000Y-83744000D01*
D14*
X129050000Y-91150000D02*
X127450000Y-91150000D01*
X129050000Y-88550000D02*
X127450000Y-88550000D01*
X129100000Y-83400000D02*
X127500000Y-83400000D01*
X129100000Y-86000000D02*
X127500000Y-86000000D01*
X129100000Y-95750000D02*
X127500000Y-95750000D01*
X129100000Y-93150000D02*
X127500000Y-93150000D01*
D20*
X135934234Y-78118226D02*
X135934234Y-78776207D01*
X135972939Y-78853616D01*
X136011644Y-78892321D01*
X136089053Y-78931026D01*
X136243872Y-78931026D01*
X136321282Y-78892321D01*
X136359986Y-78853616D01*
X136398691Y-78776207D01*
X136398691Y-78118226D01*
X137211491Y-78931026D02*
X136747034Y-78931026D01*
X136979263Y-78931026D02*
X136979263Y-78118226D01*
X136901853Y-78234340D01*
X136824444Y-78311750D01*
X136747034Y-78350454D01*
X137714653Y-78118226D02*
X137792063Y-78118226D01*
X137869472Y-78156931D01*
X137908177Y-78195635D01*
X137946882Y-78273045D01*
X137985586Y-78427864D01*
X137985586Y-78621388D01*
X137946882Y-78776207D01*
X137908177Y-78853616D01*
X137869472Y-78892321D01*
X137792063Y-78931026D01*
X137714653Y-78931026D01*
X137637244Y-78892321D01*
X137598539Y-78853616D01*
X137559834Y-78776207D01*
X137521129Y-78621388D01*
X137521129Y-78427864D01*
X137559834Y-78273045D01*
X137598539Y-78195635D01*
X137637244Y-78156931D01*
X137714653Y-78118226D01*
X138759682Y-78931026D02*
X138295225Y-78931026D01*
X138527453Y-78931026D02*
X138527453Y-78118226D01*
X138450044Y-78234340D01*
X138372634Y-78311750D01*
X138295225Y-78350454D01*
D16*
X187366019Y-106552380D02*
X187366019Y-107266666D01*
X187318400Y-107409523D01*
X187223162Y-107504761D01*
X187080305Y-107552380D01*
X186985067Y-107552380D01*
X187746972Y-106552380D02*
X188366019Y-106552380D01*
X188032686Y-106933333D01*
X188175543Y-106933333D01*
X188270781Y-106980952D01*
X188318400Y-107028571D01*
X188366019Y-107123809D01*
X188366019Y-107361904D01*
X188318400Y-107457142D01*
X188270781Y-107504761D01*
X188175543Y-107552380D01*
X187889829Y-107552380D01*
X187794591Y-107504761D01*
X187746972Y-107457142D01*
X188985067Y-106552380D02*
X189080305Y-106552380D01*
X189175543Y-106600000D01*
X189223162Y-106647619D01*
X189270781Y-106742857D01*
X189318400Y-106933333D01*
X189318400Y-107171428D01*
X189270781Y-107361904D01*
X189223162Y-107457142D01*
X189175543Y-107504761D01*
X189080305Y-107552380D01*
X188985067Y-107552380D01*
X188889829Y-107504761D01*
X188842210Y-107457142D01*
X188794591Y-107361904D01*
X188746972Y-107171428D01*
X188746972Y-106933333D01*
X188794591Y-106742857D01*
X188842210Y-106647619D01*
X188889829Y-106600000D01*
X188985067Y-106552380D01*
X190270781Y-107552380D02*
X189699353Y-107552380D01*
X189985067Y-107552380D02*
X189985067Y-106552380D01*
X189889829Y-106695238D01*
X189794591Y-106790476D01*
X189699353Y-106838095D01*
D20*
X133561523Y-98154895D02*
X133832457Y-98967695D01*
X134103390Y-98154895D01*
X134838780Y-98967695D02*
X134567847Y-98580647D01*
X134374323Y-98967695D02*
X134374323Y-98154895D01*
X134683961Y-98154895D01*
X134761371Y-98193600D01*
X134800076Y-98232304D01*
X134838780Y-98309714D01*
X134838780Y-98425828D01*
X134800076Y-98503238D01*
X134761371Y-98541942D01*
X134683961Y-98580647D01*
X134374323Y-98580647D01*
X135148419Y-98232304D02*
X135187123Y-98193600D01*
X135264533Y-98154895D01*
X135458057Y-98154895D01*
X135535466Y-98193600D01*
X135574171Y-98232304D01*
X135612876Y-98309714D01*
X135612876Y-98387123D01*
X135574171Y-98503238D01*
X135109714Y-98967695D01*
X135612876Y-98967695D01*
X136116038Y-98154895D02*
X136193447Y-98154895D01*
X136270857Y-98193600D01*
X136309561Y-98232304D01*
X136348266Y-98309714D01*
X136386971Y-98464533D01*
X136386971Y-98658057D01*
X136348266Y-98812876D01*
X136309561Y-98890285D01*
X136270857Y-98928990D01*
X136193447Y-98967695D01*
X136116038Y-98967695D01*
X136038628Y-98928990D01*
X135999923Y-98890285D01*
X135961219Y-98812876D01*
X135922514Y-98658057D01*
X135922514Y-98464533D01*
X135961219Y-98309714D01*
X135999923Y-98232304D01*
X136038628Y-98193600D01*
X136116038Y-98154895D01*
X137161066Y-98967695D02*
X136696609Y-98967695D01*
X136928838Y-98967695D02*
X136928838Y-98154895D01*
X136851428Y-98271009D01*
X136774019Y-98348419D01*
X136696609Y-98387123D01*
D16*
X181985714Y-101752380D02*
X181985714Y-102561904D01*
X182033333Y-102657142D01*
X182080952Y-102704761D01*
X182176190Y-102752380D01*
X182366666Y-102752380D01*
X182461904Y-102704761D01*
X182509523Y-102657142D01*
X182557142Y-102561904D01*
X182557142Y-101752380D01*
X182938095Y-101752380D02*
X183557142Y-101752380D01*
X183223809Y-102133333D01*
X183366666Y-102133333D01*
X183461904Y-102180952D01*
X183509523Y-102228571D01*
X183557142Y-102323809D01*
X183557142Y-102561904D01*
X183509523Y-102657142D01*
X183461904Y-102704761D01*
X183366666Y-102752380D01*
X183080952Y-102752380D01*
X182985714Y-102704761D01*
X182938095Y-102657142D01*
X184176190Y-101752380D02*
X184271428Y-101752380D01*
X184366666Y-101800000D01*
X184414285Y-101847619D01*
X184461904Y-101942857D01*
X184509523Y-102133333D01*
X184509523Y-102371428D01*
X184461904Y-102561904D01*
X184414285Y-102657142D01*
X184366666Y-102704761D01*
X184271428Y-102752380D01*
X184176190Y-102752380D01*
X184080952Y-102704761D01*
X184033333Y-102657142D01*
X183985714Y-102561904D01*
X183938095Y-102371428D01*
X183938095Y-102133333D01*
X183985714Y-101942857D01*
X184033333Y-101847619D01*
X184080952Y-101800000D01*
X184176190Y-101752380D01*
X185461904Y-102752380D02*
X184890476Y-102752380D01*
X185176190Y-102752380D02*
X185176190Y-101752380D01*
X185080952Y-101895238D01*
X184985714Y-101990476D01*
X184890476Y-102038095D01*
D20*
X139790438Y-73115285D02*
X139751733Y-73153990D01*
X139635619Y-73192695D01*
X139558209Y-73192695D01*
X139442095Y-73153990D01*
X139364685Y-73076580D01*
X139325980Y-72999171D01*
X139287276Y-72844352D01*
X139287276Y-72728238D01*
X139325980Y-72573419D01*
X139364685Y-72496009D01*
X139442095Y-72418600D01*
X139558209Y-72379895D01*
X139635619Y-72379895D01*
X139751733Y-72418600D01*
X139790438Y-72457304D01*
X140564533Y-73192695D02*
X140100076Y-73192695D01*
X140332304Y-73192695D02*
X140332304Y-72379895D01*
X140254895Y-72496009D01*
X140177485Y-72573419D01*
X140100076Y-72612123D01*
X141067695Y-72379895D02*
X141145104Y-72379895D01*
X141222514Y-72418600D01*
X141261219Y-72457304D01*
X141299923Y-72534714D01*
X141338628Y-72689533D01*
X141338628Y-72883057D01*
X141299923Y-73037876D01*
X141261219Y-73115285D01*
X141222514Y-73153990D01*
X141145104Y-73192695D01*
X141067695Y-73192695D01*
X140990285Y-73153990D01*
X140951580Y-73115285D01*
X140912876Y-73037876D01*
X140874171Y-72883057D01*
X140874171Y-72689533D01*
X140912876Y-72534714D01*
X140951580Y-72457304D01*
X140990285Y-72418600D01*
X141067695Y-72379895D01*
X142112723Y-73192695D02*
X141648266Y-73192695D01*
X141880495Y-73192695D02*
X141880495Y-72379895D01*
X141803085Y-72496009D01*
X141725676Y-72573419D01*
X141648266Y-72612123D01*
X139767095Y-74217695D02*
X139302638Y-74217695D01*
X139534866Y-74217695D02*
X139534866Y-73404895D01*
X139457457Y-73521009D01*
X139380047Y-73598419D01*
X139302638Y-73637123D01*
X140270257Y-73404895D02*
X140347666Y-73404895D01*
X140425076Y-73443600D01*
X140463780Y-73482304D01*
X140502485Y-73559714D01*
X140541190Y-73714533D01*
X140541190Y-73908057D01*
X140502485Y-74062876D01*
X140463780Y-74140285D01*
X140425076Y-74178990D01*
X140347666Y-74217695D01*
X140270257Y-74217695D01*
X140192847Y-74178990D01*
X140154142Y-74140285D01*
X140115438Y-74062876D01*
X140076733Y-73908057D01*
X140076733Y-73714533D01*
X140115438Y-73559714D01*
X140154142Y-73482304D01*
X140192847Y-73443600D01*
X140270257Y-73404895D01*
X141044352Y-73404895D02*
X141121761Y-73404895D01*
X141199171Y-73443600D01*
X141237876Y-73482304D01*
X141276580Y-73559714D01*
X141315285Y-73714533D01*
X141315285Y-73908057D01*
X141276580Y-74062876D01*
X141237876Y-74140285D01*
X141199171Y-74178990D01*
X141121761Y-74217695D01*
X141044352Y-74217695D01*
X140966942Y-74178990D01*
X140928238Y-74140285D01*
X140889533Y-74062876D01*
X140850828Y-73908057D01*
X140850828Y-73714533D01*
X140889533Y-73559714D01*
X140928238Y-73482304D01*
X140966942Y-73443600D01*
X141044352Y-73404895D01*
X141663628Y-73675828D02*
X141663628Y-74217695D01*
X141663628Y-73753238D02*
X141702333Y-73714533D01*
X141779742Y-73675828D01*
X141895857Y-73675828D01*
X141973266Y-73714533D01*
X142011971Y-73791942D01*
X142011971Y-74217695D01*
X142669952Y-73791942D02*
X142399019Y-73791942D01*
X142399019Y-74217695D02*
X142399019Y-73404895D01*
X142786066Y-73404895D01*
X175290438Y-98090285D02*
X175251733Y-98128990D01*
X175135619Y-98167695D01*
X175058209Y-98167695D01*
X174942095Y-98128990D01*
X174864685Y-98051580D01*
X174825980Y-97974171D01*
X174787276Y-97819352D01*
X174787276Y-97703238D01*
X174825980Y-97548419D01*
X174864685Y-97471009D01*
X174942095Y-97393600D01*
X175058209Y-97354895D01*
X175135619Y-97354895D01*
X175251733Y-97393600D01*
X175290438Y-97432304D01*
X175561371Y-97354895D02*
X176064533Y-97354895D01*
X175793600Y-97664533D01*
X175909714Y-97664533D01*
X175987123Y-97703238D01*
X176025828Y-97741942D01*
X176064533Y-97819352D01*
X176064533Y-98012876D01*
X176025828Y-98090285D01*
X175987123Y-98128990D01*
X175909714Y-98167695D01*
X175677485Y-98167695D01*
X175600076Y-98128990D01*
X175561371Y-98090285D01*
X176567695Y-97354895D02*
X176645104Y-97354895D01*
X176722514Y-97393600D01*
X176761219Y-97432304D01*
X176799923Y-97509714D01*
X176838628Y-97664533D01*
X176838628Y-97858057D01*
X176799923Y-98012876D01*
X176761219Y-98090285D01*
X176722514Y-98128990D01*
X176645104Y-98167695D01*
X176567695Y-98167695D01*
X176490285Y-98128990D01*
X176451580Y-98090285D01*
X176412876Y-98012876D01*
X176374171Y-97858057D01*
X176374171Y-97664533D01*
X176412876Y-97509714D01*
X176451580Y-97432304D01*
X176490285Y-97393600D01*
X176567695Y-97354895D01*
X177612723Y-98167695D02*
X177148266Y-98167695D01*
X177380495Y-98167695D02*
X177380495Y-97354895D01*
X177303085Y-97471009D01*
X177225676Y-97548419D01*
X177148266Y-97587123D01*
X174442095Y-99267695D02*
X173977638Y-99267695D01*
X174209866Y-99267695D02*
X174209866Y-98454895D01*
X174132457Y-98571009D01*
X174055047Y-98648419D01*
X173977638Y-98687123D01*
X174945257Y-98454895D02*
X175022666Y-98454895D01*
X175100076Y-98493600D01*
X175138780Y-98532304D01*
X175177485Y-98609714D01*
X175216190Y-98764533D01*
X175216190Y-98958057D01*
X175177485Y-99112876D01*
X175138780Y-99190285D01*
X175100076Y-99228990D01*
X175022666Y-99267695D01*
X174945257Y-99267695D01*
X174867847Y-99228990D01*
X174829142Y-99190285D01*
X174790438Y-99112876D01*
X174751733Y-98958057D01*
X174751733Y-98764533D01*
X174790438Y-98609714D01*
X174829142Y-98532304D01*
X174867847Y-98493600D01*
X174945257Y-98454895D01*
X175719352Y-98454895D02*
X175796761Y-98454895D01*
X175874171Y-98493600D01*
X175912876Y-98532304D01*
X175951580Y-98609714D01*
X175990285Y-98764533D01*
X175990285Y-98958057D01*
X175951580Y-99112876D01*
X175912876Y-99190285D01*
X175874171Y-99228990D01*
X175796761Y-99267695D01*
X175719352Y-99267695D01*
X175641942Y-99228990D01*
X175603238Y-99190285D01*
X175564533Y-99112876D01*
X175525828Y-98958057D01*
X175525828Y-98764533D01*
X175564533Y-98609714D01*
X175603238Y-98532304D01*
X175641942Y-98493600D01*
X175719352Y-98454895D01*
X176338628Y-98725828D02*
X176338628Y-99267695D01*
X176338628Y-98803238D02*
X176377333Y-98764533D01*
X176454742Y-98725828D01*
X176570857Y-98725828D01*
X176648266Y-98764533D01*
X176686971Y-98841942D01*
X176686971Y-99267695D01*
X177344952Y-98841942D02*
X177074019Y-98841942D01*
X177074019Y-99267695D02*
X177074019Y-98454895D01*
X177461066Y-98454895D01*
X182790438Y-89790285D02*
X182751733Y-89828990D01*
X182635619Y-89867695D01*
X182558209Y-89867695D01*
X182442095Y-89828990D01*
X182364685Y-89751580D01*
X182325980Y-89674171D01*
X182287276Y-89519352D01*
X182287276Y-89403238D01*
X182325980Y-89248419D01*
X182364685Y-89171009D01*
X182442095Y-89093600D01*
X182558209Y-89054895D01*
X182635619Y-89054895D01*
X182751733Y-89093600D01*
X182790438Y-89132304D01*
X183061371Y-89054895D02*
X183564533Y-89054895D01*
X183293600Y-89364533D01*
X183409714Y-89364533D01*
X183487123Y-89403238D01*
X183525828Y-89441942D01*
X183564533Y-89519352D01*
X183564533Y-89712876D01*
X183525828Y-89790285D01*
X183487123Y-89828990D01*
X183409714Y-89867695D01*
X183177485Y-89867695D01*
X183100076Y-89828990D01*
X183061371Y-89790285D01*
X184067695Y-89054895D02*
X184145104Y-89054895D01*
X184222514Y-89093600D01*
X184261219Y-89132304D01*
X184299923Y-89209714D01*
X184338628Y-89364533D01*
X184338628Y-89558057D01*
X184299923Y-89712876D01*
X184261219Y-89790285D01*
X184222514Y-89828990D01*
X184145104Y-89867695D01*
X184067695Y-89867695D01*
X183990285Y-89828990D01*
X183951580Y-89790285D01*
X183912876Y-89712876D01*
X183874171Y-89558057D01*
X183874171Y-89364533D01*
X183912876Y-89209714D01*
X183951580Y-89132304D01*
X183990285Y-89093600D01*
X184067695Y-89054895D01*
X184648266Y-89132304D02*
X184686971Y-89093600D01*
X184764380Y-89054895D01*
X184957904Y-89054895D01*
X185035314Y-89093600D01*
X185074019Y-89132304D01*
X185112723Y-89209714D01*
X185112723Y-89287123D01*
X185074019Y-89403238D01*
X184609561Y-89867695D01*
X185112723Y-89867695D01*
X182842095Y-90967695D02*
X182377638Y-90967695D01*
X182609866Y-90967695D02*
X182609866Y-90154895D01*
X182532457Y-90271009D01*
X182455047Y-90348419D01*
X182377638Y-90387123D01*
X183345257Y-90154895D02*
X183422666Y-90154895D01*
X183500076Y-90193600D01*
X183538780Y-90232304D01*
X183577485Y-90309714D01*
X183616190Y-90464533D01*
X183616190Y-90658057D01*
X183577485Y-90812876D01*
X183538780Y-90890285D01*
X183500076Y-90928990D01*
X183422666Y-90967695D01*
X183345257Y-90967695D01*
X183267847Y-90928990D01*
X183229142Y-90890285D01*
X183190438Y-90812876D01*
X183151733Y-90658057D01*
X183151733Y-90464533D01*
X183190438Y-90309714D01*
X183229142Y-90232304D01*
X183267847Y-90193600D01*
X183345257Y-90154895D01*
X184119352Y-90154895D02*
X184196761Y-90154895D01*
X184274171Y-90193600D01*
X184312876Y-90232304D01*
X184351580Y-90309714D01*
X184390285Y-90464533D01*
X184390285Y-90658057D01*
X184351580Y-90812876D01*
X184312876Y-90890285D01*
X184274171Y-90928990D01*
X184196761Y-90967695D01*
X184119352Y-90967695D01*
X184041942Y-90928990D01*
X184003238Y-90890285D01*
X183964533Y-90812876D01*
X183925828Y-90658057D01*
X183925828Y-90464533D01*
X183964533Y-90309714D01*
X184003238Y-90232304D01*
X184041942Y-90193600D01*
X184119352Y-90154895D01*
X184738628Y-90425828D02*
X184738628Y-90967695D01*
X184738628Y-90503238D02*
X184777333Y-90464533D01*
X184854742Y-90425828D01*
X184970857Y-90425828D01*
X185048266Y-90464533D01*
X185086971Y-90541942D01*
X185086971Y-90967695D01*
X185744952Y-90541942D02*
X185474019Y-90541942D01*
X185474019Y-90967695D02*
X185474019Y-90154895D01*
X185861066Y-90154895D01*
X177190438Y-84990285D02*
X177151733Y-85028990D01*
X177035619Y-85067695D01*
X176958209Y-85067695D01*
X176842095Y-85028990D01*
X176764685Y-84951580D01*
X176725980Y-84874171D01*
X176687276Y-84719352D01*
X176687276Y-84603238D01*
X176725980Y-84448419D01*
X176764685Y-84371009D01*
X176842095Y-84293600D01*
X176958209Y-84254895D01*
X177035619Y-84254895D01*
X177151733Y-84293600D01*
X177190438Y-84332304D01*
X177887123Y-84525828D02*
X177887123Y-85067695D01*
X177693600Y-84216190D02*
X177500076Y-84796761D01*
X178003238Y-84796761D01*
X178467695Y-84254895D02*
X178545104Y-84254895D01*
X178622514Y-84293600D01*
X178661219Y-84332304D01*
X178699923Y-84409714D01*
X178738628Y-84564533D01*
X178738628Y-84758057D01*
X178699923Y-84912876D01*
X178661219Y-84990285D01*
X178622514Y-85028990D01*
X178545104Y-85067695D01*
X178467695Y-85067695D01*
X178390285Y-85028990D01*
X178351580Y-84990285D01*
X178312876Y-84912876D01*
X178274171Y-84758057D01*
X178274171Y-84564533D01*
X178312876Y-84409714D01*
X178351580Y-84332304D01*
X178390285Y-84293600D01*
X178467695Y-84254895D01*
X179512723Y-85067695D02*
X179048266Y-85067695D01*
X179280495Y-85067695D02*
X179280495Y-84254895D01*
X179203085Y-84371009D01*
X179125676Y-84448419D01*
X179048266Y-84487123D01*
X182690438Y-72290285D02*
X182651733Y-72328990D01*
X182535619Y-72367695D01*
X182458209Y-72367695D01*
X182342095Y-72328990D01*
X182264685Y-72251580D01*
X182225980Y-72174171D01*
X182187276Y-72019352D01*
X182187276Y-71903238D01*
X182225980Y-71748419D01*
X182264685Y-71671009D01*
X182342095Y-71593600D01*
X182458209Y-71554895D01*
X182535619Y-71554895D01*
X182651733Y-71593600D01*
X182690438Y-71632304D01*
X183387123Y-71825828D02*
X183387123Y-72367695D01*
X183193600Y-71516190D02*
X183000076Y-72096761D01*
X183503238Y-72096761D01*
X183967695Y-71554895D02*
X184045104Y-71554895D01*
X184122514Y-71593600D01*
X184161219Y-71632304D01*
X184199923Y-71709714D01*
X184238628Y-71864533D01*
X184238628Y-72058057D01*
X184199923Y-72212876D01*
X184161219Y-72290285D01*
X184122514Y-72328990D01*
X184045104Y-72367695D01*
X183967695Y-72367695D01*
X183890285Y-72328990D01*
X183851580Y-72290285D01*
X183812876Y-72212876D01*
X183774171Y-72058057D01*
X183774171Y-71864533D01*
X183812876Y-71709714D01*
X183851580Y-71632304D01*
X183890285Y-71593600D01*
X183967695Y-71554895D01*
X184548266Y-71632304D02*
X184586971Y-71593600D01*
X184664380Y-71554895D01*
X184857904Y-71554895D01*
X184935314Y-71593600D01*
X184974019Y-71632304D01*
X185012723Y-71709714D01*
X185012723Y-71787123D01*
X184974019Y-71903238D01*
X184509561Y-72367695D01*
X185012723Y-72367695D01*
X187090438Y-87990285D02*
X187051733Y-88028990D01*
X186935619Y-88067695D01*
X186858209Y-88067695D01*
X186742095Y-88028990D01*
X186664685Y-87951580D01*
X186625980Y-87874171D01*
X186587276Y-87719352D01*
X186587276Y-87603238D01*
X186625980Y-87448419D01*
X186664685Y-87371009D01*
X186742095Y-87293600D01*
X186858209Y-87254895D01*
X186935619Y-87254895D01*
X187051733Y-87293600D01*
X187090438Y-87332304D01*
X187787123Y-87525828D02*
X187787123Y-88067695D01*
X187593600Y-87216190D02*
X187400076Y-87796761D01*
X187903238Y-87796761D01*
X188367695Y-87254895D02*
X188445104Y-87254895D01*
X188522514Y-87293600D01*
X188561219Y-87332304D01*
X188599923Y-87409714D01*
X188638628Y-87564533D01*
X188638628Y-87758057D01*
X188599923Y-87912876D01*
X188561219Y-87990285D01*
X188522514Y-88028990D01*
X188445104Y-88067695D01*
X188367695Y-88067695D01*
X188290285Y-88028990D01*
X188251580Y-87990285D01*
X188212876Y-87912876D01*
X188174171Y-87758057D01*
X188174171Y-87564533D01*
X188212876Y-87409714D01*
X188251580Y-87332304D01*
X188290285Y-87293600D01*
X188367695Y-87254895D01*
X188909561Y-87254895D02*
X189412723Y-87254895D01*
X189141790Y-87564533D01*
X189257904Y-87564533D01*
X189335314Y-87603238D01*
X189374019Y-87641942D01*
X189412723Y-87719352D01*
X189412723Y-87912876D01*
X189374019Y-87990285D01*
X189335314Y-88028990D01*
X189257904Y-88067695D01*
X189025676Y-88067695D01*
X188948266Y-88028990D01*
X188909561Y-87990285D01*
X186942095Y-89167695D02*
X186477638Y-89167695D01*
X186709866Y-89167695D02*
X186709866Y-88354895D01*
X186632457Y-88471009D01*
X186555047Y-88548419D01*
X186477638Y-88587123D01*
X187445257Y-88354895D02*
X187522666Y-88354895D01*
X187600076Y-88393600D01*
X187638780Y-88432304D01*
X187677485Y-88509714D01*
X187716190Y-88664533D01*
X187716190Y-88858057D01*
X187677485Y-89012876D01*
X187638780Y-89090285D01*
X187600076Y-89128990D01*
X187522666Y-89167695D01*
X187445257Y-89167695D01*
X187367847Y-89128990D01*
X187329142Y-89090285D01*
X187290438Y-89012876D01*
X187251733Y-88858057D01*
X187251733Y-88664533D01*
X187290438Y-88509714D01*
X187329142Y-88432304D01*
X187367847Y-88393600D01*
X187445257Y-88354895D01*
X188219352Y-88354895D02*
X188296761Y-88354895D01*
X188374171Y-88393600D01*
X188412876Y-88432304D01*
X188451580Y-88509714D01*
X188490285Y-88664533D01*
X188490285Y-88858057D01*
X188451580Y-89012876D01*
X188412876Y-89090285D01*
X188374171Y-89128990D01*
X188296761Y-89167695D01*
X188219352Y-89167695D01*
X188141942Y-89128990D01*
X188103238Y-89090285D01*
X188064533Y-89012876D01*
X188025828Y-88858057D01*
X188025828Y-88664533D01*
X188064533Y-88509714D01*
X188103238Y-88432304D01*
X188141942Y-88393600D01*
X188219352Y-88354895D01*
X188838628Y-88625828D02*
X188838628Y-89167695D01*
X188838628Y-88703238D02*
X188877333Y-88664533D01*
X188954742Y-88625828D01*
X189070857Y-88625828D01*
X189148266Y-88664533D01*
X189186971Y-88741942D01*
X189186971Y-89167695D01*
X189844952Y-88741942D02*
X189574019Y-88741942D01*
X189574019Y-89167695D02*
X189574019Y-88354895D01*
X189961066Y-88354895D01*
X192890438Y-71790285D02*
X192851733Y-71828990D01*
X192735619Y-71867695D01*
X192658209Y-71867695D01*
X192542095Y-71828990D01*
X192464685Y-71751580D01*
X192425980Y-71674171D01*
X192387276Y-71519352D01*
X192387276Y-71403238D01*
X192425980Y-71248419D01*
X192464685Y-71171009D01*
X192542095Y-71093600D01*
X192658209Y-71054895D01*
X192735619Y-71054895D01*
X192851733Y-71093600D01*
X192890438Y-71132304D01*
X193587123Y-71325828D02*
X193587123Y-71867695D01*
X193393600Y-71016190D02*
X193200076Y-71596761D01*
X193703238Y-71596761D01*
X194167695Y-71054895D02*
X194245104Y-71054895D01*
X194322514Y-71093600D01*
X194361219Y-71132304D01*
X194399923Y-71209714D01*
X194438628Y-71364533D01*
X194438628Y-71558057D01*
X194399923Y-71712876D01*
X194361219Y-71790285D01*
X194322514Y-71828990D01*
X194245104Y-71867695D01*
X194167695Y-71867695D01*
X194090285Y-71828990D01*
X194051580Y-71790285D01*
X194012876Y-71712876D01*
X193974171Y-71558057D01*
X193974171Y-71364533D01*
X194012876Y-71209714D01*
X194051580Y-71132304D01*
X194090285Y-71093600D01*
X194167695Y-71054895D01*
X195135314Y-71325828D02*
X195135314Y-71867695D01*
X194941790Y-71016190D02*
X194748266Y-71596761D01*
X195251428Y-71596761D01*
X175930038Y-80165085D02*
X175891333Y-80203790D01*
X175775219Y-80242495D01*
X175697809Y-80242495D01*
X175581695Y-80203790D01*
X175504285Y-80126380D01*
X175465580Y-80048971D01*
X175426876Y-79894152D01*
X175426876Y-79778038D01*
X175465580Y-79623219D01*
X175504285Y-79545809D01*
X175581695Y-79468400D01*
X175697809Y-79429695D01*
X175775219Y-79429695D01*
X175891333Y-79468400D01*
X175930038Y-79507104D01*
X176626723Y-79700628D02*
X176626723Y-80242495D01*
X176433200Y-79390990D02*
X176239676Y-79971561D01*
X176742838Y-79971561D01*
X177207295Y-79429695D02*
X177284704Y-79429695D01*
X177362114Y-79468400D01*
X177400819Y-79507104D01*
X177439523Y-79584514D01*
X177478228Y-79739333D01*
X177478228Y-79932857D01*
X177439523Y-80087676D01*
X177400819Y-80165085D01*
X177362114Y-80203790D01*
X177284704Y-80242495D01*
X177207295Y-80242495D01*
X177129885Y-80203790D01*
X177091180Y-80165085D01*
X177052476Y-80087676D01*
X177013771Y-79932857D01*
X177013771Y-79739333D01*
X177052476Y-79584514D01*
X177091180Y-79507104D01*
X177129885Y-79468400D01*
X177207295Y-79429695D01*
X178213619Y-79429695D02*
X177826571Y-79429695D01*
X177787866Y-79816742D01*
X177826571Y-79778038D01*
X177903980Y-79739333D01*
X178097504Y-79739333D01*
X178174914Y-79778038D01*
X178213619Y-79816742D01*
X178252323Y-79894152D01*
X178252323Y-80087676D01*
X178213619Y-80165085D01*
X178174914Y-80203790D01*
X178097504Y-80242495D01*
X177903980Y-80242495D01*
X177826571Y-80203790D01*
X177787866Y-80165085D01*
X175942095Y-81267695D02*
X175477638Y-81267695D01*
X175709866Y-81267695D02*
X175709866Y-80454895D01*
X175632457Y-80571009D01*
X175555047Y-80648419D01*
X175477638Y-80687123D01*
X176445257Y-80454895D02*
X176522666Y-80454895D01*
X176600076Y-80493600D01*
X176638780Y-80532304D01*
X176677485Y-80609714D01*
X176716190Y-80764533D01*
X176716190Y-80958057D01*
X176677485Y-81112876D01*
X176638780Y-81190285D01*
X176600076Y-81228990D01*
X176522666Y-81267695D01*
X176445257Y-81267695D01*
X176367847Y-81228990D01*
X176329142Y-81190285D01*
X176290438Y-81112876D01*
X176251733Y-80958057D01*
X176251733Y-80764533D01*
X176290438Y-80609714D01*
X176329142Y-80532304D01*
X176367847Y-80493600D01*
X176445257Y-80454895D01*
X177219352Y-80454895D02*
X177296761Y-80454895D01*
X177374171Y-80493600D01*
X177412876Y-80532304D01*
X177451580Y-80609714D01*
X177490285Y-80764533D01*
X177490285Y-80958057D01*
X177451580Y-81112876D01*
X177412876Y-81190285D01*
X177374171Y-81228990D01*
X177296761Y-81267695D01*
X177219352Y-81267695D01*
X177141942Y-81228990D01*
X177103238Y-81190285D01*
X177064533Y-81112876D01*
X177025828Y-80958057D01*
X177025828Y-80764533D01*
X177064533Y-80609714D01*
X177103238Y-80532304D01*
X177141942Y-80493600D01*
X177219352Y-80454895D01*
X177838628Y-80725828D02*
X177838628Y-81267695D01*
X177838628Y-80803238D02*
X177877333Y-80764533D01*
X177954742Y-80725828D01*
X178070857Y-80725828D01*
X178148266Y-80764533D01*
X178186971Y-80841942D01*
X178186971Y-81267695D01*
X178844952Y-80841942D02*
X178574019Y-80841942D01*
X178574019Y-81267695D02*
X178574019Y-80454895D01*
X178961066Y-80454895D01*
X176790438Y-89717695D02*
X176519504Y-89330647D01*
X176325980Y-89717695D02*
X176325980Y-88904895D01*
X176635619Y-88904895D01*
X176713028Y-88943600D01*
X176751733Y-88982304D01*
X176790438Y-89059714D01*
X176790438Y-89175828D01*
X176751733Y-89253238D01*
X176713028Y-89291942D01*
X176635619Y-89330647D01*
X176325980Y-89330647D01*
X177061371Y-88904895D02*
X177564533Y-88904895D01*
X177293600Y-89214533D01*
X177409714Y-89214533D01*
X177487123Y-89253238D01*
X177525828Y-89291942D01*
X177564533Y-89369352D01*
X177564533Y-89562876D01*
X177525828Y-89640285D01*
X177487123Y-89678990D01*
X177409714Y-89717695D01*
X177177485Y-89717695D01*
X177100076Y-89678990D01*
X177061371Y-89640285D01*
X178067695Y-88904895D02*
X178145104Y-88904895D01*
X178222514Y-88943600D01*
X178261219Y-88982304D01*
X178299923Y-89059714D01*
X178338628Y-89214533D01*
X178338628Y-89408057D01*
X178299923Y-89562876D01*
X178261219Y-89640285D01*
X178222514Y-89678990D01*
X178145104Y-89717695D01*
X178067695Y-89717695D01*
X177990285Y-89678990D01*
X177951580Y-89640285D01*
X177912876Y-89562876D01*
X177874171Y-89408057D01*
X177874171Y-89214533D01*
X177912876Y-89059714D01*
X177951580Y-88982304D01*
X177990285Y-88943600D01*
X178067695Y-88904895D01*
X179112723Y-89717695D02*
X178648266Y-89717695D01*
X178880495Y-89717695D02*
X178880495Y-88904895D01*
X178803085Y-89021009D01*
X178725676Y-89098419D01*
X178648266Y-89137123D01*
X177338780Y-90817695D02*
X176874323Y-90817695D01*
X177106552Y-90817695D02*
X177106552Y-90004895D01*
X177029142Y-90121009D01*
X176951733Y-90198419D01*
X176874323Y-90237123D01*
X177841942Y-90004895D02*
X177919352Y-90004895D01*
X177996761Y-90043600D01*
X178035466Y-90082304D01*
X178074171Y-90159714D01*
X178112876Y-90314533D01*
X178112876Y-90508057D01*
X178074171Y-90662876D01*
X178035466Y-90740285D01*
X177996761Y-90778990D01*
X177919352Y-90817695D01*
X177841942Y-90817695D01*
X177764533Y-90778990D01*
X177725828Y-90740285D01*
X177687123Y-90662876D01*
X177648419Y-90508057D01*
X177648419Y-90314533D01*
X177687123Y-90159714D01*
X177725828Y-90082304D01*
X177764533Y-90043600D01*
X177841942Y-90004895D01*
X178461219Y-90817695D02*
X178461219Y-90004895D01*
X178925676Y-90817695D02*
X178577333Y-90353238D01*
X178925676Y-90004895D02*
X178461219Y-90469352D01*
X173390438Y-106467695D02*
X173119504Y-106080647D01*
X172925980Y-106467695D02*
X172925980Y-105654895D01*
X173235619Y-105654895D01*
X173313028Y-105693600D01*
X173351733Y-105732304D01*
X173390438Y-105809714D01*
X173390438Y-105925828D01*
X173351733Y-106003238D01*
X173313028Y-106041942D01*
X173235619Y-106080647D01*
X172925980Y-106080647D01*
X173661371Y-105654895D02*
X174164533Y-105654895D01*
X173893600Y-105964533D01*
X174009714Y-105964533D01*
X174087123Y-106003238D01*
X174125828Y-106041942D01*
X174164533Y-106119352D01*
X174164533Y-106312876D01*
X174125828Y-106390285D01*
X174087123Y-106428990D01*
X174009714Y-106467695D01*
X173777485Y-106467695D01*
X173700076Y-106428990D01*
X173661371Y-106390285D01*
X174667695Y-105654895D02*
X174745104Y-105654895D01*
X174822514Y-105693600D01*
X174861219Y-105732304D01*
X174899923Y-105809714D01*
X174938628Y-105964533D01*
X174938628Y-106158057D01*
X174899923Y-106312876D01*
X174861219Y-106390285D01*
X174822514Y-106428990D01*
X174745104Y-106467695D01*
X174667695Y-106467695D01*
X174590285Y-106428990D01*
X174551580Y-106390285D01*
X174512876Y-106312876D01*
X174474171Y-106158057D01*
X174474171Y-105964533D01*
X174512876Y-105809714D01*
X174551580Y-105732304D01*
X174590285Y-105693600D01*
X174667695Y-105654895D01*
X175248266Y-105732304D02*
X175286971Y-105693600D01*
X175364380Y-105654895D01*
X175557904Y-105654895D01*
X175635314Y-105693600D01*
X175674019Y-105732304D01*
X175712723Y-105809714D01*
X175712723Y-105887123D01*
X175674019Y-106003238D01*
X175209561Y-106467695D01*
X175712723Y-106467695D01*
X173371314Y-107567695D02*
X173100380Y-107180647D01*
X172906857Y-107567695D02*
X172906857Y-106754895D01*
X173216495Y-106754895D01*
X173293904Y-106793600D01*
X173332609Y-106832304D01*
X173371314Y-106909714D01*
X173371314Y-107025828D01*
X173332609Y-107103238D01*
X173293904Y-107141942D01*
X173216495Y-107180647D01*
X172906857Y-107180647D01*
X173526133Y-107645104D02*
X174145409Y-107645104D01*
X174493752Y-106754895D02*
X174571161Y-106754895D01*
X174648571Y-106793600D01*
X174687276Y-106832304D01*
X174725980Y-106909714D01*
X174764685Y-107064533D01*
X174764685Y-107258057D01*
X174725980Y-107412876D01*
X174687276Y-107490285D01*
X174648571Y-107528990D01*
X174571161Y-107567695D01*
X174493752Y-107567695D01*
X174416342Y-107528990D01*
X174377638Y-107490285D01*
X174338933Y-107412876D01*
X174300228Y-107258057D01*
X174300228Y-107064533D01*
X174338933Y-106909714D01*
X174377638Y-106832304D01*
X174416342Y-106793600D01*
X174493752Y-106754895D01*
X175113028Y-107490285D02*
X175151733Y-107528990D01*
X175113028Y-107567695D01*
X175074323Y-107528990D01*
X175113028Y-107490285D01*
X175113028Y-107567695D01*
X175422666Y-106754895D02*
X175925828Y-106754895D01*
X175654895Y-107064533D01*
X175771009Y-107064533D01*
X175848419Y-107103238D01*
X175887123Y-107141942D01*
X175925828Y-107219352D01*
X175925828Y-107412876D01*
X175887123Y-107490285D01*
X175848419Y-107528990D01*
X175771009Y-107567695D01*
X175538780Y-107567695D01*
X175461371Y-107528990D01*
X175422666Y-107490285D01*
X176196761Y-106754895D02*
X176699923Y-106754895D01*
X176428990Y-107064533D01*
X176545104Y-107064533D01*
X176622514Y-107103238D01*
X176661219Y-107141942D01*
X176699923Y-107219352D01*
X176699923Y-107412876D01*
X176661219Y-107490285D01*
X176622514Y-107528990D01*
X176545104Y-107567695D01*
X176312876Y-107567695D01*
X176235466Y-107528990D01*
X176196761Y-107490285D01*
X177203085Y-106754895D02*
X177357904Y-106754895D01*
X177435314Y-106793600D01*
X177512723Y-106871009D01*
X177551428Y-107025828D01*
X177551428Y-107296761D01*
X177512723Y-107451580D01*
X177435314Y-107528990D01*
X177357904Y-107567695D01*
X177203085Y-107567695D01*
X177125676Y-107528990D01*
X177048266Y-107451580D01*
X177009561Y-107296761D01*
X177009561Y-107025828D01*
X177048266Y-106871009D01*
X177125676Y-106793600D01*
X177203085Y-106754895D01*
X177899771Y-107567695D02*
X177899771Y-106754895D01*
X177899771Y-107141942D02*
X178364228Y-107141942D01*
X178364228Y-107567695D02*
X178364228Y-106754895D01*
X178751276Y-107567695D02*
X178751276Y-106754895D01*
X179022209Y-107335466D01*
X179293142Y-106754895D01*
X179293142Y-107567695D01*
X184806628Y-80154895D02*
X184806628Y-80812876D01*
X184845333Y-80890285D01*
X184884038Y-80928990D01*
X184961447Y-80967695D01*
X185116266Y-80967695D01*
X185193676Y-80928990D01*
X185232380Y-80890285D01*
X185271085Y-80812876D01*
X185271085Y-80154895D01*
X186006476Y-80425828D02*
X186006476Y-80967695D01*
X185812952Y-80116190D02*
X185619428Y-80696761D01*
X186122590Y-80696761D01*
X186587047Y-80154895D02*
X186664457Y-80154895D01*
X186741866Y-80193600D01*
X186780571Y-80232304D01*
X186819276Y-80309714D01*
X186857980Y-80464533D01*
X186857980Y-80658057D01*
X186819276Y-80812876D01*
X186780571Y-80890285D01*
X186741866Y-80928990D01*
X186664457Y-80967695D01*
X186587047Y-80967695D01*
X186509638Y-80928990D01*
X186470933Y-80890285D01*
X186432228Y-80812876D01*
X186393523Y-80658057D01*
X186393523Y-80464533D01*
X186432228Y-80309714D01*
X186470933Y-80232304D01*
X186509638Y-80193600D01*
X186587047Y-80154895D01*
X187632076Y-80967695D02*
X187167619Y-80967695D01*
X187399847Y-80967695D02*
X187399847Y-80154895D01*
X187322438Y-80271009D01*
X187245028Y-80348419D01*
X187167619Y-80387123D01*
X182494057Y-81967695D02*
X182107009Y-81967695D01*
X182107009Y-81154895D01*
X182764990Y-81967695D02*
X182764990Y-81154895D01*
X183074628Y-81154895D01*
X183152038Y-81193600D01*
X183190742Y-81232304D01*
X183229447Y-81309714D01*
X183229447Y-81425828D01*
X183190742Y-81503238D01*
X183152038Y-81541942D01*
X183074628Y-81580647D01*
X182764990Y-81580647D01*
X184042247Y-81890285D02*
X184003542Y-81928990D01*
X183887428Y-81967695D01*
X183810019Y-81967695D01*
X183693904Y-81928990D01*
X183616495Y-81851580D01*
X183577790Y-81774171D01*
X183539085Y-81619352D01*
X183539085Y-81503238D01*
X183577790Y-81348419D01*
X183616495Y-81271009D01*
X183693904Y-81193600D01*
X183810019Y-81154895D01*
X183887428Y-81154895D01*
X184003542Y-81193600D01*
X184042247Y-81232304D01*
X184816342Y-81967695D02*
X184351885Y-81967695D01*
X184584114Y-81967695D02*
X184584114Y-81154895D01*
X184506704Y-81271009D01*
X184429295Y-81348419D01*
X184351885Y-81387123D01*
X185551733Y-81154895D02*
X185164685Y-81154895D01*
X185125980Y-81541942D01*
X185164685Y-81503238D01*
X185242095Y-81464533D01*
X185435619Y-81464533D01*
X185513028Y-81503238D01*
X185551733Y-81541942D01*
X185590438Y-81619352D01*
X185590438Y-81812876D01*
X185551733Y-81890285D01*
X185513028Y-81928990D01*
X185435619Y-81967695D01*
X185242095Y-81967695D01*
X185164685Y-81928990D01*
X185125980Y-81890285D01*
X186287123Y-81425828D02*
X186287123Y-81967695D01*
X186093600Y-81116190D02*
X185900076Y-81696761D01*
X186403238Y-81696761D01*
X186751580Y-81967695D02*
X186906400Y-81967695D01*
X186983809Y-81928990D01*
X187022514Y-81890285D01*
X187099923Y-81774171D01*
X187138628Y-81619352D01*
X187138628Y-81309714D01*
X187099923Y-81232304D01*
X187061219Y-81193600D01*
X186983809Y-81154895D01*
X186828990Y-81154895D01*
X186751580Y-81193600D01*
X186712876Y-81232304D01*
X186674171Y-81309714D01*
X186674171Y-81503238D01*
X186712876Y-81580647D01*
X186751580Y-81619352D01*
X186828990Y-81658057D01*
X186983809Y-81658057D01*
X187061219Y-81619352D01*
X187099923Y-81580647D01*
X187138628Y-81503238D01*
X187719200Y-81154895D02*
X187719200Y-81735466D01*
X187680495Y-81851580D01*
X187603085Y-81928990D01*
X187486971Y-81967695D01*
X187409561Y-81967695D01*
X188377180Y-81541942D02*
X188493295Y-81580647D01*
X188532000Y-81619352D01*
X188570704Y-81696761D01*
X188570704Y-81812876D01*
X188532000Y-81890285D01*
X188493295Y-81928990D01*
X188415885Y-81967695D01*
X188106247Y-81967695D01*
X188106247Y-81154895D01*
X188377180Y-81154895D01*
X188454590Y-81193600D01*
X188493295Y-81232304D01*
X188532000Y-81309714D01*
X188532000Y-81387123D01*
X188493295Y-81464533D01*
X188454590Y-81503238D01*
X188377180Y-81541942D01*
X188106247Y-81541942D01*
X188919047Y-81967695D02*
X188919047Y-81154895D01*
X189112571Y-81154895D01*
X189228685Y-81193600D01*
X189306095Y-81271009D01*
X189344800Y-81348419D01*
X189383504Y-81503238D01*
X189383504Y-81619352D01*
X189344800Y-81774171D01*
X189306095Y-81851580D01*
X189228685Y-81928990D01*
X189112571Y-81967695D01*
X188919047Y-81967695D01*
X190080190Y-81154895D02*
X189925371Y-81154895D01*
X189847961Y-81193600D01*
X189809257Y-81232304D01*
X189731847Y-81348419D01*
X189693142Y-81503238D01*
X189693142Y-81812876D01*
X189731847Y-81890285D01*
X189770552Y-81928990D01*
X189847961Y-81967695D01*
X190002780Y-81967695D01*
X190080190Y-81928990D01*
X190118895Y-81890285D01*
X190157600Y-81812876D01*
X190157600Y-81619352D01*
X190118895Y-81541942D01*
X190080190Y-81503238D01*
X190002780Y-81464533D01*
X189847961Y-81464533D01*
X189770552Y-81503238D01*
X189731847Y-81541942D01*
X189693142Y-81619352D01*
X190854285Y-81425828D02*
X190854285Y-81967695D01*
X190660761Y-81116190D02*
X190467238Y-81696761D01*
X190970400Y-81696761D01*
X178290438Y-71890285D02*
X178251733Y-71928990D01*
X178135619Y-71967695D01*
X178058209Y-71967695D01*
X177942095Y-71928990D01*
X177864685Y-71851580D01*
X177825980Y-71774171D01*
X177787276Y-71619352D01*
X177787276Y-71503238D01*
X177825980Y-71348419D01*
X177864685Y-71271009D01*
X177942095Y-71193600D01*
X178058209Y-71154895D01*
X178135619Y-71154895D01*
X178251733Y-71193600D01*
X178290438Y-71232304D01*
X178987123Y-71425828D02*
X178987123Y-71967695D01*
X178793600Y-71116190D02*
X178600076Y-71696761D01*
X179103238Y-71696761D01*
X179567695Y-71154895D02*
X179645104Y-71154895D01*
X179722514Y-71193600D01*
X179761219Y-71232304D01*
X179799923Y-71309714D01*
X179838628Y-71464533D01*
X179838628Y-71658057D01*
X179799923Y-71812876D01*
X179761219Y-71890285D01*
X179722514Y-71928990D01*
X179645104Y-71967695D01*
X179567695Y-71967695D01*
X179490285Y-71928990D01*
X179451580Y-71890285D01*
X179412876Y-71812876D01*
X179374171Y-71658057D01*
X179374171Y-71464533D01*
X179412876Y-71309714D01*
X179451580Y-71232304D01*
X179490285Y-71193600D01*
X179567695Y-71154895D01*
X180535314Y-71154895D02*
X180380495Y-71154895D01*
X180303085Y-71193600D01*
X180264380Y-71232304D01*
X180186971Y-71348419D01*
X180148266Y-71503238D01*
X180148266Y-71812876D01*
X180186971Y-71890285D01*
X180225676Y-71928990D01*
X180303085Y-71967695D01*
X180457904Y-71967695D01*
X180535314Y-71928990D01*
X180574019Y-71890285D01*
X180612723Y-71812876D01*
X180612723Y-71619352D01*
X180574019Y-71541942D01*
X180535314Y-71503238D01*
X180457904Y-71464533D01*
X180303085Y-71464533D01*
X180225676Y-71503238D01*
X180186971Y-71541942D01*
X180148266Y-71619352D01*
X178229142Y-73067695D02*
X177764685Y-73067695D01*
X177996914Y-73067695D02*
X177996914Y-72254895D01*
X177919504Y-72371009D01*
X177842095Y-72448419D01*
X177764685Y-72487123D01*
X178693600Y-72603238D02*
X178616190Y-72564533D01*
X178577485Y-72525828D01*
X178538780Y-72448419D01*
X178538780Y-72409714D01*
X178577485Y-72332304D01*
X178616190Y-72293600D01*
X178693600Y-72254895D01*
X178848419Y-72254895D01*
X178925828Y-72293600D01*
X178964533Y-72332304D01*
X179003238Y-72409714D01*
X179003238Y-72448419D01*
X178964533Y-72525828D01*
X178925828Y-72564533D01*
X178848419Y-72603238D01*
X178693600Y-72603238D01*
X178616190Y-72641942D01*
X178577485Y-72680647D01*
X178538780Y-72758057D01*
X178538780Y-72912876D01*
X178577485Y-72990285D01*
X178616190Y-73028990D01*
X178693600Y-73067695D01*
X178848419Y-73067695D01*
X178925828Y-73028990D01*
X178964533Y-72990285D01*
X179003238Y-72912876D01*
X179003238Y-72758057D01*
X178964533Y-72680647D01*
X178925828Y-72641942D01*
X178848419Y-72603238D01*
X179351580Y-72525828D02*
X179351580Y-73338628D01*
X179351580Y-72564533D02*
X179428990Y-72525828D01*
X179583809Y-72525828D01*
X179661219Y-72564533D01*
X179699923Y-72603238D01*
X179738628Y-72680647D01*
X179738628Y-72912876D01*
X179699923Y-72990285D01*
X179661219Y-73028990D01*
X179583809Y-73067695D01*
X179428990Y-73067695D01*
X179351580Y-73028990D01*
X180357904Y-72641942D02*
X180086971Y-72641942D01*
X180086971Y-73067695D02*
X180086971Y-72254895D01*
X180474019Y-72254895D01*
X169690285Y-73509561D02*
X169728990Y-73548266D01*
X169767695Y-73664380D01*
X169767695Y-73741790D01*
X169728990Y-73857904D01*
X169651580Y-73935314D01*
X169574171Y-73974019D01*
X169419352Y-74012723D01*
X169303238Y-74012723D01*
X169148419Y-73974019D01*
X169071009Y-73935314D01*
X168993600Y-73857904D01*
X168954895Y-73741790D01*
X168954895Y-73664380D01*
X168993600Y-73548266D01*
X169032304Y-73509561D01*
X169225828Y-72812876D02*
X169767695Y-72812876D01*
X168916190Y-73006400D02*
X169496761Y-73199923D01*
X169496761Y-72696761D01*
X168954895Y-72232304D02*
X168954895Y-72154895D01*
X168993600Y-72077485D01*
X169032304Y-72038780D01*
X169109714Y-72000076D01*
X169264533Y-71961371D01*
X169458057Y-71961371D01*
X169612876Y-72000076D01*
X169690285Y-72038780D01*
X169728990Y-72077485D01*
X169767695Y-72154895D01*
X169767695Y-72232304D01*
X169728990Y-72309714D01*
X169690285Y-72348419D01*
X169612876Y-72387123D01*
X169458057Y-72425828D01*
X169264533Y-72425828D01*
X169109714Y-72387123D01*
X169032304Y-72348419D01*
X168993600Y-72309714D01*
X168954895Y-72232304D01*
X168954895Y-71690438D02*
X168954895Y-71148571D01*
X169767695Y-71496914D01*
X172367923Y-74554895D02*
X172909790Y-75367695D01*
X172909790Y-74554895D02*
X172367923Y-75367695D01*
X173567771Y-74825828D02*
X173567771Y-75367695D01*
X173374247Y-74516190D02*
X173180723Y-75096761D01*
X173683885Y-75096761D01*
X174148342Y-74554895D02*
X174225752Y-74554895D01*
X174303161Y-74593600D01*
X174341866Y-74632304D01*
X174380571Y-74709714D01*
X174419276Y-74864533D01*
X174419276Y-75058057D01*
X174380571Y-75212876D01*
X174341866Y-75290285D01*
X174303161Y-75328990D01*
X174225752Y-75367695D01*
X174148342Y-75367695D01*
X174070933Y-75328990D01*
X174032228Y-75290285D01*
X173993523Y-75212876D01*
X173954819Y-75058057D01*
X173954819Y-74864533D01*
X173993523Y-74709714D01*
X174032228Y-74632304D01*
X174070933Y-74593600D01*
X174148342Y-74554895D01*
X175193371Y-75367695D02*
X174728914Y-75367695D01*
X174961142Y-75367695D02*
X174961142Y-74554895D01*
X174883733Y-74671009D01*
X174806323Y-74748419D01*
X174728914Y-74787123D01*
X164890438Y-82967695D02*
X164619504Y-82580647D01*
X164425980Y-82967695D02*
X164425980Y-82154895D01*
X164735619Y-82154895D01*
X164813028Y-82193600D01*
X164851733Y-82232304D01*
X164890438Y-82309714D01*
X164890438Y-82425828D01*
X164851733Y-82503238D01*
X164813028Y-82541942D01*
X164735619Y-82580647D01*
X164425980Y-82580647D01*
X165587123Y-82425828D02*
X165587123Y-82967695D01*
X165393600Y-82116190D02*
X165200076Y-82696761D01*
X165703238Y-82696761D01*
X166167695Y-82154895D02*
X166245104Y-82154895D01*
X166322514Y-82193600D01*
X166361219Y-82232304D01*
X166399923Y-82309714D01*
X166438628Y-82464533D01*
X166438628Y-82658057D01*
X166399923Y-82812876D01*
X166361219Y-82890285D01*
X166322514Y-82928990D01*
X166245104Y-82967695D01*
X166167695Y-82967695D01*
X166090285Y-82928990D01*
X166051580Y-82890285D01*
X166012876Y-82812876D01*
X165974171Y-82658057D01*
X165974171Y-82464533D01*
X166012876Y-82309714D01*
X166051580Y-82232304D01*
X166090285Y-82193600D01*
X166167695Y-82154895D01*
X167174019Y-82154895D02*
X166786971Y-82154895D01*
X166748266Y-82541942D01*
X166786971Y-82503238D01*
X166864380Y-82464533D01*
X167057904Y-82464533D01*
X167135314Y-82503238D01*
X167174019Y-82541942D01*
X167212723Y-82619352D01*
X167212723Y-82812876D01*
X167174019Y-82890285D01*
X167135314Y-82928990D01*
X167057904Y-82967695D01*
X166864380Y-82967695D01*
X166786971Y-82928990D01*
X166748266Y-82890285D01*
X165638780Y-83967695D02*
X165174323Y-83967695D01*
X165406552Y-83967695D02*
X165406552Y-83154895D01*
X165329142Y-83271009D01*
X165251733Y-83348419D01*
X165174323Y-83387123D01*
X166141942Y-83154895D02*
X166219352Y-83154895D01*
X166296761Y-83193600D01*
X166335466Y-83232304D01*
X166374171Y-83309714D01*
X166412876Y-83464533D01*
X166412876Y-83658057D01*
X166374171Y-83812876D01*
X166335466Y-83890285D01*
X166296761Y-83928990D01*
X166219352Y-83967695D01*
X166141942Y-83967695D01*
X166064533Y-83928990D01*
X166025828Y-83890285D01*
X165987123Y-83812876D01*
X165948419Y-83658057D01*
X165948419Y-83464533D01*
X165987123Y-83309714D01*
X166025828Y-83232304D01*
X166064533Y-83193600D01*
X166141942Y-83154895D01*
X166761219Y-83967695D02*
X166761219Y-83154895D01*
X167225676Y-83967695D02*
X166877333Y-83503238D01*
X167225676Y-83154895D02*
X166761219Y-83619352D01*
X164790438Y-86267695D02*
X164519504Y-85880647D01*
X164325980Y-86267695D02*
X164325980Y-85454895D01*
X164635619Y-85454895D01*
X164713028Y-85493600D01*
X164751733Y-85532304D01*
X164790438Y-85609714D01*
X164790438Y-85725828D01*
X164751733Y-85803238D01*
X164713028Y-85841942D01*
X164635619Y-85880647D01*
X164325980Y-85880647D01*
X165487123Y-85725828D02*
X165487123Y-86267695D01*
X165293600Y-85416190D02*
X165100076Y-85996761D01*
X165603238Y-85996761D01*
X166067695Y-85454895D02*
X166145104Y-85454895D01*
X166222514Y-85493600D01*
X166261219Y-85532304D01*
X166299923Y-85609714D01*
X166338628Y-85764533D01*
X166338628Y-85958057D01*
X166299923Y-86112876D01*
X166261219Y-86190285D01*
X166222514Y-86228990D01*
X166145104Y-86267695D01*
X166067695Y-86267695D01*
X165990285Y-86228990D01*
X165951580Y-86190285D01*
X165912876Y-86112876D01*
X165874171Y-85958057D01*
X165874171Y-85764533D01*
X165912876Y-85609714D01*
X165951580Y-85532304D01*
X165990285Y-85493600D01*
X166067695Y-85454895D01*
X167035314Y-85454895D02*
X166880495Y-85454895D01*
X166803085Y-85493600D01*
X166764380Y-85532304D01*
X166686971Y-85648419D01*
X166648266Y-85803238D01*
X166648266Y-86112876D01*
X166686971Y-86190285D01*
X166725676Y-86228990D01*
X166803085Y-86267695D01*
X166957904Y-86267695D01*
X167035314Y-86228990D01*
X167074019Y-86190285D01*
X167112723Y-86112876D01*
X167112723Y-85919352D01*
X167074019Y-85841942D01*
X167035314Y-85803238D01*
X166957904Y-85764533D01*
X166803085Y-85764533D01*
X166725676Y-85803238D01*
X166686971Y-85841942D01*
X166648266Y-85919352D01*
X165638780Y-87267695D02*
X165174323Y-87267695D01*
X165406552Y-87267695D02*
X165406552Y-86454895D01*
X165329142Y-86571009D01*
X165251733Y-86648419D01*
X165174323Y-86687123D01*
X166141942Y-86454895D02*
X166219352Y-86454895D01*
X166296761Y-86493600D01*
X166335466Y-86532304D01*
X166374171Y-86609714D01*
X166412876Y-86764533D01*
X166412876Y-86958057D01*
X166374171Y-87112876D01*
X166335466Y-87190285D01*
X166296761Y-87228990D01*
X166219352Y-87267695D01*
X166141942Y-87267695D01*
X166064533Y-87228990D01*
X166025828Y-87190285D01*
X165987123Y-87112876D01*
X165948419Y-86958057D01*
X165948419Y-86764533D01*
X165987123Y-86609714D01*
X166025828Y-86532304D01*
X166064533Y-86493600D01*
X166141942Y-86454895D01*
X166761219Y-87267695D02*
X166761219Y-86454895D01*
X167225676Y-87267695D02*
X166877333Y-86803238D01*
X167225676Y-86454895D02*
X166761219Y-86919352D01*
X198590438Y-72540285D02*
X198551733Y-72578990D01*
X198435619Y-72617695D01*
X198358209Y-72617695D01*
X198242095Y-72578990D01*
X198164685Y-72501580D01*
X198125980Y-72424171D01*
X198087276Y-72269352D01*
X198087276Y-72153238D01*
X198125980Y-71998419D01*
X198164685Y-71921009D01*
X198242095Y-71843600D01*
X198358209Y-71804895D01*
X198435619Y-71804895D01*
X198551733Y-71843600D01*
X198590438Y-71882304D01*
X199325828Y-71804895D02*
X198938780Y-71804895D01*
X198900076Y-72191942D01*
X198938780Y-72153238D01*
X199016190Y-72114533D01*
X199209714Y-72114533D01*
X199287123Y-72153238D01*
X199325828Y-72191942D01*
X199364533Y-72269352D01*
X199364533Y-72462876D01*
X199325828Y-72540285D01*
X199287123Y-72578990D01*
X199209714Y-72617695D01*
X199016190Y-72617695D01*
X198938780Y-72578990D01*
X198900076Y-72540285D01*
X199867695Y-71804895D02*
X199945104Y-71804895D01*
X200022514Y-71843600D01*
X200061219Y-71882304D01*
X200099923Y-71959714D01*
X200138628Y-72114533D01*
X200138628Y-72308057D01*
X200099923Y-72462876D01*
X200061219Y-72540285D01*
X200022514Y-72578990D01*
X199945104Y-72617695D01*
X199867695Y-72617695D01*
X199790285Y-72578990D01*
X199751580Y-72540285D01*
X199712876Y-72462876D01*
X199674171Y-72308057D01*
X199674171Y-72114533D01*
X199712876Y-71959714D01*
X199751580Y-71882304D01*
X199790285Y-71843600D01*
X199867695Y-71804895D01*
X200912723Y-72617695D02*
X200448266Y-72617695D01*
X200680495Y-72617695D02*
X200680495Y-71804895D01*
X200603085Y-71921009D01*
X200525676Y-71998419D01*
X200448266Y-72037123D01*
X198642095Y-73767695D02*
X198177638Y-73767695D01*
X198409866Y-73767695D02*
X198409866Y-72954895D01*
X198332457Y-73071009D01*
X198255047Y-73148419D01*
X198177638Y-73187123D01*
X199145257Y-72954895D02*
X199222666Y-72954895D01*
X199300076Y-72993600D01*
X199338780Y-73032304D01*
X199377485Y-73109714D01*
X199416190Y-73264533D01*
X199416190Y-73458057D01*
X199377485Y-73612876D01*
X199338780Y-73690285D01*
X199300076Y-73728990D01*
X199222666Y-73767695D01*
X199145257Y-73767695D01*
X199067847Y-73728990D01*
X199029142Y-73690285D01*
X198990438Y-73612876D01*
X198951733Y-73458057D01*
X198951733Y-73264533D01*
X198990438Y-73109714D01*
X199029142Y-73032304D01*
X199067847Y-72993600D01*
X199145257Y-72954895D01*
X199919352Y-72954895D02*
X199996761Y-72954895D01*
X200074171Y-72993600D01*
X200112876Y-73032304D01*
X200151580Y-73109714D01*
X200190285Y-73264533D01*
X200190285Y-73458057D01*
X200151580Y-73612876D01*
X200112876Y-73690285D01*
X200074171Y-73728990D01*
X199996761Y-73767695D01*
X199919352Y-73767695D01*
X199841942Y-73728990D01*
X199803238Y-73690285D01*
X199764533Y-73612876D01*
X199725828Y-73458057D01*
X199725828Y-73264533D01*
X199764533Y-73109714D01*
X199803238Y-73032304D01*
X199841942Y-72993600D01*
X199919352Y-72954895D01*
X200538628Y-73225828D02*
X200538628Y-73767695D01*
X200538628Y-73303238D02*
X200577333Y-73264533D01*
X200654742Y-73225828D01*
X200770857Y-73225828D01*
X200848266Y-73264533D01*
X200886971Y-73341942D01*
X200886971Y-73767695D01*
X201544952Y-73341942D02*
X201274019Y-73341942D01*
X201274019Y-73767695D02*
X201274019Y-72954895D01*
X201661066Y-72954895D01*
X196506628Y-78654895D02*
X196506628Y-79312876D01*
X196545333Y-79390285D01*
X196584038Y-79428990D01*
X196661447Y-79467695D01*
X196816266Y-79467695D01*
X196893676Y-79428990D01*
X196932380Y-79390285D01*
X196971085Y-79312876D01*
X196971085Y-78654895D01*
X197745180Y-78654895D02*
X197358133Y-78654895D01*
X197319428Y-79041942D01*
X197358133Y-79003238D01*
X197435542Y-78964533D01*
X197629066Y-78964533D01*
X197706476Y-79003238D01*
X197745180Y-79041942D01*
X197783885Y-79119352D01*
X197783885Y-79312876D01*
X197745180Y-79390285D01*
X197706476Y-79428990D01*
X197629066Y-79467695D01*
X197435542Y-79467695D01*
X197358133Y-79428990D01*
X197319428Y-79390285D01*
X198287047Y-78654895D02*
X198364457Y-78654895D01*
X198441866Y-78693600D01*
X198480571Y-78732304D01*
X198519276Y-78809714D01*
X198557980Y-78964533D01*
X198557980Y-79158057D01*
X198519276Y-79312876D01*
X198480571Y-79390285D01*
X198441866Y-79428990D01*
X198364457Y-79467695D01*
X198287047Y-79467695D01*
X198209638Y-79428990D01*
X198170933Y-79390285D01*
X198132228Y-79312876D01*
X198093523Y-79158057D01*
X198093523Y-78964533D01*
X198132228Y-78809714D01*
X198170933Y-78732304D01*
X198209638Y-78693600D01*
X198287047Y-78654895D01*
X199332076Y-79467695D02*
X198867619Y-79467695D01*
X199099847Y-79467695D02*
X199099847Y-78654895D01*
X199022438Y-78771009D01*
X198945028Y-78848419D01*
X198867619Y-78887123D01*
X168340438Y-77790285D02*
X168301733Y-77828990D01*
X168185619Y-77867695D01*
X168108209Y-77867695D01*
X167992095Y-77828990D01*
X167914685Y-77751580D01*
X167875980Y-77674171D01*
X167837276Y-77519352D01*
X167837276Y-77403238D01*
X167875980Y-77248419D01*
X167914685Y-77171009D01*
X167992095Y-77093600D01*
X168108209Y-77054895D01*
X168185619Y-77054895D01*
X168301733Y-77093600D01*
X168340438Y-77132304D01*
X169037123Y-77325828D02*
X169037123Y-77867695D01*
X168843600Y-77016190D02*
X168650076Y-77596761D01*
X169153238Y-77596761D01*
X169617695Y-77054895D02*
X169695104Y-77054895D01*
X169772514Y-77093600D01*
X169811219Y-77132304D01*
X169849923Y-77209714D01*
X169888628Y-77364533D01*
X169888628Y-77558057D01*
X169849923Y-77712876D01*
X169811219Y-77790285D01*
X169772514Y-77828990D01*
X169695104Y-77867695D01*
X169617695Y-77867695D01*
X169540285Y-77828990D01*
X169501580Y-77790285D01*
X169462876Y-77712876D01*
X169424171Y-77558057D01*
X169424171Y-77364533D01*
X169462876Y-77209714D01*
X169501580Y-77132304D01*
X169540285Y-77093600D01*
X169617695Y-77054895D01*
X170353085Y-77403238D02*
X170275676Y-77364533D01*
X170236971Y-77325828D01*
X170198266Y-77248419D01*
X170198266Y-77209714D01*
X170236971Y-77132304D01*
X170275676Y-77093600D01*
X170353085Y-77054895D01*
X170507904Y-77054895D01*
X170585314Y-77093600D01*
X170624019Y-77132304D01*
X170662723Y-77209714D01*
X170662723Y-77248419D01*
X170624019Y-77325828D01*
X170585314Y-77364533D01*
X170507904Y-77403238D01*
X170353085Y-77403238D01*
X170275676Y-77441942D01*
X170236971Y-77480647D01*
X170198266Y-77558057D01*
X170198266Y-77712876D01*
X170236971Y-77790285D01*
X170275676Y-77828990D01*
X170353085Y-77867695D01*
X170507904Y-77867695D01*
X170585314Y-77828990D01*
X170624019Y-77790285D01*
X170662723Y-77712876D01*
X170662723Y-77558057D01*
X170624019Y-77480647D01*
X170585314Y-77441942D01*
X170507904Y-77403238D01*
X168379142Y-78767695D02*
X167914685Y-78767695D01*
X168146914Y-78767695D02*
X168146914Y-77954895D01*
X168069504Y-78071009D01*
X167992095Y-78148419D01*
X167914685Y-78187123D01*
X168843600Y-78303238D02*
X168766190Y-78264533D01*
X168727485Y-78225828D01*
X168688780Y-78148419D01*
X168688780Y-78109714D01*
X168727485Y-78032304D01*
X168766190Y-77993600D01*
X168843600Y-77954895D01*
X168998419Y-77954895D01*
X169075828Y-77993600D01*
X169114533Y-78032304D01*
X169153238Y-78109714D01*
X169153238Y-78148419D01*
X169114533Y-78225828D01*
X169075828Y-78264533D01*
X168998419Y-78303238D01*
X168843600Y-78303238D01*
X168766190Y-78341942D01*
X168727485Y-78380647D01*
X168688780Y-78458057D01*
X168688780Y-78612876D01*
X168727485Y-78690285D01*
X168766190Y-78728990D01*
X168843600Y-78767695D01*
X168998419Y-78767695D01*
X169075828Y-78728990D01*
X169114533Y-78690285D01*
X169153238Y-78612876D01*
X169153238Y-78458057D01*
X169114533Y-78380647D01*
X169075828Y-78341942D01*
X168998419Y-78303238D01*
X169501580Y-78225828D02*
X169501580Y-79038628D01*
X169501580Y-78264533D02*
X169578990Y-78225828D01*
X169733809Y-78225828D01*
X169811219Y-78264533D01*
X169849923Y-78303238D01*
X169888628Y-78380647D01*
X169888628Y-78612876D01*
X169849923Y-78690285D01*
X169811219Y-78728990D01*
X169733809Y-78767695D01*
X169578990Y-78767695D01*
X169501580Y-78728990D01*
X170507904Y-78341942D02*
X170236971Y-78341942D01*
X170236971Y-78767695D02*
X170236971Y-77954895D01*
X170624019Y-77954895D01*
X157290438Y-73090285D02*
X157251733Y-73128990D01*
X157135619Y-73167695D01*
X157058209Y-73167695D01*
X156942095Y-73128990D01*
X156864685Y-73051580D01*
X156825980Y-72974171D01*
X156787276Y-72819352D01*
X156787276Y-72703238D01*
X156825980Y-72548419D01*
X156864685Y-72471009D01*
X156942095Y-72393600D01*
X157058209Y-72354895D01*
X157135619Y-72354895D01*
X157251733Y-72393600D01*
X157290438Y-72432304D01*
X157987123Y-72625828D02*
X157987123Y-73167695D01*
X157793600Y-72316190D02*
X157600076Y-72896761D01*
X158103238Y-72896761D01*
X158567695Y-72354895D02*
X158645104Y-72354895D01*
X158722514Y-72393600D01*
X158761219Y-72432304D01*
X158799923Y-72509714D01*
X158838628Y-72664533D01*
X158838628Y-72858057D01*
X158799923Y-73012876D01*
X158761219Y-73090285D01*
X158722514Y-73128990D01*
X158645104Y-73167695D01*
X158567695Y-73167695D01*
X158490285Y-73128990D01*
X158451580Y-73090285D01*
X158412876Y-73012876D01*
X158374171Y-72858057D01*
X158374171Y-72664533D01*
X158412876Y-72509714D01*
X158451580Y-72432304D01*
X158490285Y-72393600D01*
X158567695Y-72354895D01*
X159225676Y-73167695D02*
X159380495Y-73167695D01*
X159457904Y-73128990D01*
X159496609Y-73090285D01*
X159574019Y-72974171D01*
X159612723Y-72819352D01*
X159612723Y-72509714D01*
X159574019Y-72432304D01*
X159535314Y-72393600D01*
X159457904Y-72354895D01*
X159303085Y-72354895D01*
X159225676Y-72393600D01*
X159186971Y-72432304D01*
X159148266Y-72509714D01*
X159148266Y-72703238D01*
X159186971Y-72780647D01*
X159225676Y-72819352D01*
X159303085Y-72858057D01*
X159457904Y-72858057D01*
X159535314Y-72819352D01*
X159574019Y-72780647D01*
X159612723Y-72703238D01*
X157329142Y-74367695D02*
X156864685Y-74367695D01*
X157096914Y-74367695D02*
X157096914Y-73554895D01*
X157019504Y-73671009D01*
X156942095Y-73748419D01*
X156864685Y-73787123D01*
X157793600Y-73903238D02*
X157716190Y-73864533D01*
X157677485Y-73825828D01*
X157638780Y-73748419D01*
X157638780Y-73709714D01*
X157677485Y-73632304D01*
X157716190Y-73593600D01*
X157793600Y-73554895D01*
X157948419Y-73554895D01*
X158025828Y-73593600D01*
X158064533Y-73632304D01*
X158103238Y-73709714D01*
X158103238Y-73748419D01*
X158064533Y-73825828D01*
X158025828Y-73864533D01*
X157948419Y-73903238D01*
X157793600Y-73903238D01*
X157716190Y-73941942D01*
X157677485Y-73980647D01*
X157638780Y-74058057D01*
X157638780Y-74212876D01*
X157677485Y-74290285D01*
X157716190Y-74328990D01*
X157793600Y-74367695D01*
X157948419Y-74367695D01*
X158025828Y-74328990D01*
X158064533Y-74290285D01*
X158103238Y-74212876D01*
X158103238Y-74058057D01*
X158064533Y-73980647D01*
X158025828Y-73941942D01*
X157948419Y-73903238D01*
X158451580Y-73825828D02*
X158451580Y-74638628D01*
X158451580Y-73864533D02*
X158528990Y-73825828D01*
X158683809Y-73825828D01*
X158761219Y-73864533D01*
X158799923Y-73903238D01*
X158838628Y-73980647D01*
X158838628Y-74212876D01*
X158799923Y-74290285D01*
X158761219Y-74328990D01*
X158683809Y-74367695D01*
X158528990Y-74367695D01*
X158451580Y-74328990D01*
X159457904Y-73941942D02*
X159186971Y-73941942D01*
X159186971Y-74367695D02*
X159186971Y-73554895D01*
X159574019Y-73554895D01*
D12*
X109892619Y-84160725D02*
X110074047Y-84221201D01*
X110134523Y-84281678D01*
X110195000Y-84402630D01*
X110195000Y-84584059D01*
X110134523Y-84705011D01*
X110074047Y-84765487D01*
X109953095Y-84825963D01*
X109469285Y-84825963D01*
X109469285Y-83555963D01*
X109892619Y-83555963D01*
X110013571Y-83616440D01*
X110074047Y-83676916D01*
X110134523Y-83797868D01*
X110134523Y-83918820D01*
X110074047Y-84039773D01*
X110013571Y-84100249D01*
X109892619Y-84160725D01*
X109469285Y-84160725D01*
X110557857Y-83555963D02*
X111283571Y-83555963D01*
X110920714Y-84825963D02*
X110920714Y-83555963D01*
X112251190Y-83979297D02*
X112251190Y-84825963D01*
X111948809Y-83495487D02*
X111646428Y-84402630D01*
X112432619Y-84402630D01*
X113158333Y-83555963D02*
X113279285Y-83555963D01*
X113400238Y-83616440D01*
X113460714Y-83676916D01*
X113521190Y-83797868D01*
X113581666Y-84039773D01*
X113581666Y-84342154D01*
X113521190Y-84584059D01*
X113460714Y-84705011D01*
X113400238Y-84765487D01*
X113279285Y-84825963D01*
X113158333Y-84825963D01*
X113037380Y-84765487D01*
X112976904Y-84705011D01*
X112916428Y-84584059D01*
X112855952Y-84342154D01*
X112855952Y-84039773D01*
X112916428Y-83797868D01*
X112976904Y-83676916D01*
X113037380Y-83616440D01*
X113158333Y-83555963D01*
X114791190Y-84825963D02*
X114065476Y-84825963D01*
X114428333Y-84825963D02*
X114428333Y-83555963D01*
X114307380Y-83737392D01*
X114186428Y-83858344D01*
X114065476Y-83918820D01*
D16*
X153030952Y-109532142D02*
X152983333Y-109579761D01*
X152840476Y-109627380D01*
X152745238Y-109627380D01*
X152602380Y-109579761D01*
X152507142Y-109484523D01*
X152459523Y-109389285D01*
X152411904Y-109198809D01*
X152411904Y-109055952D01*
X152459523Y-108865476D01*
X152507142Y-108770238D01*
X152602380Y-108675000D01*
X152745238Y-108627380D01*
X152840476Y-108627380D01*
X152983333Y-108675000D01*
X153030952Y-108722619D01*
X153411904Y-108722619D02*
X153459523Y-108675000D01*
X153554761Y-108627380D01*
X153792857Y-108627380D01*
X153888095Y-108675000D01*
X153935714Y-108722619D01*
X153983333Y-108817857D01*
X153983333Y-108913095D01*
X153935714Y-109055952D01*
X153364285Y-109627380D01*
X153983333Y-109627380D01*
X154602380Y-108627380D02*
X154697619Y-108627380D01*
X154792857Y-108675000D01*
X154840476Y-108722619D01*
X154888095Y-108817857D01*
X154935714Y-109008333D01*
X154935714Y-109246428D01*
X154888095Y-109436904D01*
X154840476Y-109532142D01*
X154792857Y-109579761D01*
X154697619Y-109627380D01*
X154602380Y-109627380D01*
X154507142Y-109579761D01*
X154459523Y-109532142D01*
X154411904Y-109436904D01*
X154364285Y-109246428D01*
X154364285Y-109008333D01*
X154411904Y-108817857D01*
X154459523Y-108722619D01*
X154507142Y-108675000D01*
X154602380Y-108627380D01*
X155316666Y-108722619D02*
X155364285Y-108675000D01*
X155459523Y-108627380D01*
X155697619Y-108627380D01*
X155792857Y-108675000D01*
X155840476Y-108722619D01*
X155888095Y-108817857D01*
X155888095Y-108913095D01*
X155840476Y-109055952D01*
X155269047Y-109627380D01*
X155888095Y-109627380D01*
D20*
X163092923Y-74729895D02*
X163634790Y-75542695D01*
X163634790Y-74729895D02*
X163092923Y-75542695D01*
X164292771Y-75000828D02*
X164292771Y-75542695D01*
X164099247Y-74691190D02*
X163905723Y-75271761D01*
X164408885Y-75271761D01*
X164873342Y-74729895D02*
X164950752Y-74729895D01*
X165028161Y-74768600D01*
X165066866Y-74807304D01*
X165105571Y-74884714D01*
X165144276Y-75039533D01*
X165144276Y-75233057D01*
X165105571Y-75387876D01*
X165066866Y-75465285D01*
X165028161Y-75503990D01*
X164950752Y-75542695D01*
X164873342Y-75542695D01*
X164795933Y-75503990D01*
X164757228Y-75465285D01*
X164718523Y-75387876D01*
X164679819Y-75233057D01*
X164679819Y-75039533D01*
X164718523Y-74884714D01*
X164757228Y-74807304D01*
X164795933Y-74768600D01*
X164873342Y-74729895D01*
X165453914Y-74807304D02*
X165492619Y-74768600D01*
X165570028Y-74729895D01*
X165763552Y-74729895D01*
X165840961Y-74768600D01*
X165879666Y-74807304D01*
X165918371Y-74884714D01*
X165918371Y-74962123D01*
X165879666Y-75078238D01*
X165415209Y-75542695D01*
X165918371Y-75542695D01*
X121534036Y-95861655D02*
X121534036Y-95048855D01*
X121727560Y-95048855D01*
X121843674Y-95087560D01*
X121921083Y-95164969D01*
X121959788Y-95242379D01*
X121998493Y-95397198D01*
X121998493Y-95513312D01*
X121959788Y-95668131D01*
X121921083Y-95745540D01*
X121843674Y-95822950D01*
X121727560Y-95861655D01*
X121534036Y-95861655D01*
X122772588Y-95861655D02*
X122308131Y-95861655D01*
X122540360Y-95861655D02*
X122540360Y-95048855D01*
X122462950Y-95164969D01*
X122385540Y-95242379D01*
X122308131Y-95281083D01*
X138582304Y-106250076D02*
X139395104Y-106250076D01*
X139395104Y-106443600D01*
X139356400Y-106559714D01*
X139278990Y-106637123D01*
X139201580Y-106675828D01*
X139046761Y-106714533D01*
X138930647Y-106714533D01*
X138775828Y-106675828D01*
X138698419Y-106637123D01*
X138621009Y-106559714D01*
X138582304Y-106443600D01*
X138582304Y-106250076D01*
X139317695Y-107024171D02*
X139356400Y-107062876D01*
X139395104Y-107140285D01*
X139395104Y-107333809D01*
X139356400Y-107411219D01*
X139317695Y-107449923D01*
X139240285Y-107488628D01*
X139162876Y-107488628D01*
X139046761Y-107449923D01*
X138582304Y-106985466D01*
X138582304Y-107488628D01*
X148035619Y-91154895D02*
X148306552Y-91967695D01*
X148577485Y-91154895D01*
X149312876Y-91967695D02*
X149041942Y-91580647D01*
X148848419Y-91967695D02*
X148848419Y-91154895D01*
X149158057Y-91154895D01*
X149235466Y-91193600D01*
X149274171Y-91232304D01*
X149312876Y-91309714D01*
X149312876Y-91425828D01*
X149274171Y-91503238D01*
X149235466Y-91541942D01*
X149158057Y-91580647D01*
X148848419Y-91580647D01*
X149622514Y-91232304D02*
X149661219Y-91193600D01*
X149738628Y-91154895D01*
X149932152Y-91154895D01*
X150009561Y-91193600D01*
X150048266Y-91232304D01*
X150086971Y-91309714D01*
X150086971Y-91387123D01*
X150048266Y-91503238D01*
X149583809Y-91967695D01*
X150086971Y-91967695D01*
X150690438Y-98367695D02*
X150303390Y-98367695D01*
X150303390Y-97554895D01*
X150922666Y-97632304D02*
X150961371Y-97593600D01*
X151038780Y-97554895D01*
X151232304Y-97554895D01*
X151309714Y-97593600D01*
X151348419Y-97632304D01*
X151387123Y-97709714D01*
X151387123Y-97787123D01*
X151348419Y-97903238D01*
X150883961Y-98367695D01*
X151387123Y-98367695D01*
X151890285Y-97554895D02*
X151967695Y-97554895D01*
X152045104Y-97593600D01*
X152083809Y-97632304D01*
X152122514Y-97709714D01*
X152161219Y-97864533D01*
X152161219Y-98058057D01*
X152122514Y-98212876D01*
X152083809Y-98290285D01*
X152045104Y-98328990D01*
X151967695Y-98367695D01*
X151890285Y-98367695D01*
X151812876Y-98328990D01*
X151774171Y-98290285D01*
X151735466Y-98212876D01*
X151696761Y-98058057D01*
X151696761Y-97864533D01*
X151735466Y-97709714D01*
X151774171Y-97632304D01*
X151812876Y-97593600D01*
X151890285Y-97554895D01*
X152935314Y-98367695D02*
X152470857Y-98367695D01*
X152703085Y-98367695D02*
X152703085Y-97554895D01*
X152625676Y-97671009D01*
X152548266Y-97748419D01*
X152470857Y-97787123D01*
D12*
X136167142Y-84404523D02*
X136167142Y-85311666D01*
X136106666Y-85493095D01*
X135985714Y-85614047D01*
X135804285Y-85674523D01*
X135683333Y-85674523D01*
X137437142Y-85674523D02*
X136711428Y-85674523D01*
X137074285Y-85674523D02*
X137074285Y-84404523D01*
X136953333Y-84585952D01*
X136832380Y-84706904D01*
X136711428Y-84767380D01*
X138223333Y-84404523D02*
X138344285Y-84404523D01*
X138465238Y-84465000D01*
X138525714Y-84525476D01*
X138586190Y-84646428D01*
X138646666Y-84888333D01*
X138646666Y-85190714D01*
X138586190Y-85432619D01*
X138525714Y-85553571D01*
X138465238Y-85614047D01*
X138344285Y-85674523D01*
X138223333Y-85674523D01*
X138102380Y-85614047D01*
X138041904Y-85553571D01*
X137981428Y-85432619D01*
X137920952Y-85190714D01*
X137920952Y-84888333D01*
X137981428Y-84646428D01*
X138041904Y-84525476D01*
X138102380Y-84465000D01*
X138223333Y-84404523D01*
X139856190Y-85674523D02*
X139130476Y-85674523D01*
X139493333Y-85674523D02*
X139493333Y-84404523D01*
X139372380Y-84585952D01*
X139251428Y-84706904D01*
X139130476Y-84767380D01*
D20*
X126790438Y-98490285D02*
X126751733Y-98528990D01*
X126635619Y-98567695D01*
X126558209Y-98567695D01*
X126442095Y-98528990D01*
X126364685Y-98451580D01*
X126325980Y-98374171D01*
X126287276Y-98219352D01*
X126287276Y-98103238D01*
X126325980Y-97948419D01*
X126364685Y-97871009D01*
X126442095Y-97793600D01*
X126558209Y-97754895D01*
X126635619Y-97754895D01*
X126751733Y-97793600D01*
X126790438Y-97832304D01*
X127100076Y-97832304D02*
X127138780Y-97793600D01*
X127216190Y-97754895D01*
X127409714Y-97754895D01*
X127487123Y-97793600D01*
X127525828Y-97832304D01*
X127564533Y-97909714D01*
X127564533Y-97987123D01*
X127525828Y-98103238D01*
X127061371Y-98567695D01*
X127564533Y-98567695D01*
X128067695Y-97754895D02*
X128145104Y-97754895D01*
X128222514Y-97793600D01*
X128261219Y-97832304D01*
X128299923Y-97909714D01*
X128338628Y-98064533D01*
X128338628Y-98258057D01*
X128299923Y-98412876D01*
X128261219Y-98490285D01*
X128222514Y-98528990D01*
X128145104Y-98567695D01*
X128067695Y-98567695D01*
X127990285Y-98528990D01*
X127951580Y-98490285D01*
X127912876Y-98412876D01*
X127874171Y-98258057D01*
X127874171Y-98064533D01*
X127912876Y-97909714D01*
X127951580Y-97832304D01*
X127990285Y-97793600D01*
X128067695Y-97754895D01*
X128609561Y-97754895D02*
X129112723Y-97754895D01*
X128841790Y-98064533D01*
X128957904Y-98064533D01*
X129035314Y-98103238D01*
X129074019Y-98141942D01*
X129112723Y-98219352D01*
X129112723Y-98412876D01*
X129074019Y-98490285D01*
X129035314Y-98528990D01*
X128957904Y-98567695D01*
X128725676Y-98567695D01*
X128648266Y-98528990D01*
X128609561Y-98490285D01*
X126342095Y-99667695D02*
X125877638Y-99667695D01*
X126109866Y-99667695D02*
X126109866Y-98854895D01*
X126032457Y-98971009D01*
X125955047Y-99048419D01*
X125877638Y-99087123D01*
X126845257Y-98854895D02*
X126922666Y-98854895D01*
X127000076Y-98893600D01*
X127038780Y-98932304D01*
X127077485Y-99009714D01*
X127116190Y-99164533D01*
X127116190Y-99358057D01*
X127077485Y-99512876D01*
X127038780Y-99590285D01*
X127000076Y-99628990D01*
X126922666Y-99667695D01*
X126845257Y-99667695D01*
X126767847Y-99628990D01*
X126729142Y-99590285D01*
X126690438Y-99512876D01*
X126651733Y-99358057D01*
X126651733Y-99164533D01*
X126690438Y-99009714D01*
X126729142Y-98932304D01*
X126767847Y-98893600D01*
X126845257Y-98854895D01*
X127619352Y-98854895D02*
X127696761Y-98854895D01*
X127774171Y-98893600D01*
X127812876Y-98932304D01*
X127851580Y-99009714D01*
X127890285Y-99164533D01*
X127890285Y-99358057D01*
X127851580Y-99512876D01*
X127812876Y-99590285D01*
X127774171Y-99628990D01*
X127696761Y-99667695D01*
X127619352Y-99667695D01*
X127541942Y-99628990D01*
X127503238Y-99590285D01*
X127464533Y-99512876D01*
X127425828Y-99358057D01*
X127425828Y-99164533D01*
X127464533Y-99009714D01*
X127503238Y-98932304D01*
X127541942Y-98893600D01*
X127619352Y-98854895D01*
X128238628Y-99125828D02*
X128238628Y-99667695D01*
X128238628Y-99203238D02*
X128277333Y-99164533D01*
X128354742Y-99125828D01*
X128470857Y-99125828D01*
X128548266Y-99164533D01*
X128586971Y-99241942D01*
X128586971Y-99667695D01*
X129244952Y-99241942D02*
X128974019Y-99241942D01*
X128974019Y-99667695D02*
X128974019Y-98854895D01*
X129361066Y-98854895D01*
X139790438Y-102590285D02*
X139751733Y-102628990D01*
X139635619Y-102667695D01*
X139558209Y-102667695D01*
X139442095Y-102628990D01*
X139364685Y-102551580D01*
X139325980Y-102474171D01*
X139287276Y-102319352D01*
X139287276Y-102203238D01*
X139325980Y-102048419D01*
X139364685Y-101971009D01*
X139442095Y-101893600D01*
X139558209Y-101854895D01*
X139635619Y-101854895D01*
X139751733Y-101893600D01*
X139790438Y-101932304D01*
X140100076Y-101932304D02*
X140138780Y-101893600D01*
X140216190Y-101854895D01*
X140409714Y-101854895D01*
X140487123Y-101893600D01*
X140525828Y-101932304D01*
X140564533Y-102009714D01*
X140564533Y-102087123D01*
X140525828Y-102203238D01*
X140061371Y-102667695D01*
X140564533Y-102667695D01*
X141067695Y-101854895D02*
X141145104Y-101854895D01*
X141222514Y-101893600D01*
X141261219Y-101932304D01*
X141299923Y-102009714D01*
X141338628Y-102164533D01*
X141338628Y-102358057D01*
X141299923Y-102512876D01*
X141261219Y-102590285D01*
X141222514Y-102628990D01*
X141145104Y-102667695D01*
X141067695Y-102667695D01*
X140990285Y-102628990D01*
X140951580Y-102590285D01*
X140912876Y-102512876D01*
X140874171Y-102358057D01*
X140874171Y-102164533D01*
X140912876Y-102009714D01*
X140951580Y-101932304D01*
X140990285Y-101893600D01*
X141067695Y-101854895D01*
X142035314Y-102125828D02*
X142035314Y-102667695D01*
X141841790Y-101816190D02*
X141648266Y-102396761D01*
X142151428Y-102396761D01*
X139842095Y-103867695D02*
X139377638Y-103867695D01*
X139609866Y-103867695D02*
X139609866Y-103054895D01*
X139532457Y-103171009D01*
X139455047Y-103248419D01*
X139377638Y-103287123D01*
X140345257Y-103054895D02*
X140422666Y-103054895D01*
X140500076Y-103093600D01*
X140538780Y-103132304D01*
X140577485Y-103209714D01*
X140616190Y-103364533D01*
X140616190Y-103558057D01*
X140577485Y-103712876D01*
X140538780Y-103790285D01*
X140500076Y-103828990D01*
X140422666Y-103867695D01*
X140345257Y-103867695D01*
X140267847Y-103828990D01*
X140229142Y-103790285D01*
X140190438Y-103712876D01*
X140151733Y-103558057D01*
X140151733Y-103364533D01*
X140190438Y-103209714D01*
X140229142Y-103132304D01*
X140267847Y-103093600D01*
X140345257Y-103054895D01*
X141119352Y-103054895D02*
X141196761Y-103054895D01*
X141274171Y-103093600D01*
X141312876Y-103132304D01*
X141351580Y-103209714D01*
X141390285Y-103364533D01*
X141390285Y-103558057D01*
X141351580Y-103712876D01*
X141312876Y-103790285D01*
X141274171Y-103828990D01*
X141196761Y-103867695D01*
X141119352Y-103867695D01*
X141041942Y-103828990D01*
X141003238Y-103790285D01*
X140964533Y-103712876D01*
X140925828Y-103558057D01*
X140925828Y-103364533D01*
X140964533Y-103209714D01*
X141003238Y-103132304D01*
X141041942Y-103093600D01*
X141119352Y-103054895D01*
X141738628Y-103325828D02*
X141738628Y-103867695D01*
X141738628Y-103403238D02*
X141777333Y-103364533D01*
X141854742Y-103325828D01*
X141970857Y-103325828D01*
X142048266Y-103364533D01*
X142086971Y-103441942D01*
X142086971Y-103867695D01*
X142744952Y-103441942D02*
X142474019Y-103441942D01*
X142474019Y-103867695D02*
X142474019Y-103054895D01*
X142861066Y-103054895D01*
X146090438Y-84490285D02*
X146051733Y-84528990D01*
X145935619Y-84567695D01*
X145858209Y-84567695D01*
X145742095Y-84528990D01*
X145664685Y-84451580D01*
X145625980Y-84374171D01*
X145587276Y-84219352D01*
X145587276Y-84103238D01*
X145625980Y-83948419D01*
X145664685Y-83871009D01*
X145742095Y-83793600D01*
X145858209Y-83754895D01*
X145935619Y-83754895D01*
X146051733Y-83793600D01*
X146090438Y-83832304D01*
X146400076Y-83832304D02*
X146438780Y-83793600D01*
X146516190Y-83754895D01*
X146709714Y-83754895D01*
X146787123Y-83793600D01*
X146825828Y-83832304D01*
X146864533Y-83909714D01*
X146864533Y-83987123D01*
X146825828Y-84103238D01*
X146361371Y-84567695D01*
X146864533Y-84567695D01*
X147367695Y-83754895D02*
X147445104Y-83754895D01*
X147522514Y-83793600D01*
X147561219Y-83832304D01*
X147599923Y-83909714D01*
X147638628Y-84064533D01*
X147638628Y-84258057D01*
X147599923Y-84412876D01*
X147561219Y-84490285D01*
X147522514Y-84528990D01*
X147445104Y-84567695D01*
X147367695Y-84567695D01*
X147290285Y-84528990D01*
X147251580Y-84490285D01*
X147212876Y-84412876D01*
X147174171Y-84258057D01*
X147174171Y-84064533D01*
X147212876Y-83909714D01*
X147251580Y-83832304D01*
X147290285Y-83793600D01*
X147367695Y-83754895D01*
X148374019Y-83754895D02*
X147986971Y-83754895D01*
X147948266Y-84141942D01*
X147986971Y-84103238D01*
X148064380Y-84064533D01*
X148257904Y-84064533D01*
X148335314Y-84103238D01*
X148374019Y-84141942D01*
X148412723Y-84219352D01*
X148412723Y-84412876D01*
X148374019Y-84490285D01*
X148335314Y-84528990D01*
X148257904Y-84567695D01*
X148064380Y-84567695D01*
X147986971Y-84528990D01*
X147948266Y-84490285D01*
X146042095Y-85567695D02*
X145577638Y-85567695D01*
X145809866Y-85567695D02*
X145809866Y-84754895D01*
X145732457Y-84871009D01*
X145655047Y-84948419D01*
X145577638Y-84987123D01*
X146545257Y-84754895D02*
X146622666Y-84754895D01*
X146700076Y-84793600D01*
X146738780Y-84832304D01*
X146777485Y-84909714D01*
X146816190Y-85064533D01*
X146816190Y-85258057D01*
X146777485Y-85412876D01*
X146738780Y-85490285D01*
X146700076Y-85528990D01*
X146622666Y-85567695D01*
X146545257Y-85567695D01*
X146467847Y-85528990D01*
X146429142Y-85490285D01*
X146390438Y-85412876D01*
X146351733Y-85258057D01*
X146351733Y-85064533D01*
X146390438Y-84909714D01*
X146429142Y-84832304D01*
X146467847Y-84793600D01*
X146545257Y-84754895D01*
X147319352Y-84754895D02*
X147396761Y-84754895D01*
X147474171Y-84793600D01*
X147512876Y-84832304D01*
X147551580Y-84909714D01*
X147590285Y-85064533D01*
X147590285Y-85258057D01*
X147551580Y-85412876D01*
X147512876Y-85490285D01*
X147474171Y-85528990D01*
X147396761Y-85567695D01*
X147319352Y-85567695D01*
X147241942Y-85528990D01*
X147203238Y-85490285D01*
X147164533Y-85412876D01*
X147125828Y-85258057D01*
X147125828Y-85064533D01*
X147164533Y-84909714D01*
X147203238Y-84832304D01*
X147241942Y-84793600D01*
X147319352Y-84754895D01*
X147938628Y-85025828D02*
X147938628Y-85567695D01*
X147938628Y-85103238D02*
X147977333Y-85064533D01*
X148054742Y-85025828D01*
X148170857Y-85025828D01*
X148248266Y-85064533D01*
X148286971Y-85141942D01*
X148286971Y-85567695D01*
X148944952Y-85141942D02*
X148674019Y-85141942D01*
X148674019Y-85567695D02*
X148674019Y-84754895D01*
X149061066Y-84754895D01*
X168390438Y-105190285D02*
X168351733Y-105228990D01*
X168235619Y-105267695D01*
X168158209Y-105267695D01*
X168042095Y-105228990D01*
X167964685Y-105151580D01*
X167925980Y-105074171D01*
X167887276Y-104919352D01*
X167887276Y-104803238D01*
X167925980Y-104648419D01*
X167964685Y-104571009D01*
X168042095Y-104493600D01*
X168158209Y-104454895D01*
X168235619Y-104454895D01*
X168351733Y-104493600D01*
X168390438Y-104532304D01*
X168661371Y-104454895D02*
X169164533Y-104454895D01*
X168893600Y-104764533D01*
X169009714Y-104764533D01*
X169087123Y-104803238D01*
X169125828Y-104841942D01*
X169164533Y-104919352D01*
X169164533Y-105112876D01*
X169125828Y-105190285D01*
X169087123Y-105228990D01*
X169009714Y-105267695D01*
X168777485Y-105267695D01*
X168700076Y-105228990D01*
X168661371Y-105190285D01*
X169667695Y-104454895D02*
X169745104Y-104454895D01*
X169822514Y-104493600D01*
X169861219Y-104532304D01*
X169899923Y-104609714D01*
X169938628Y-104764533D01*
X169938628Y-104958057D01*
X169899923Y-105112876D01*
X169861219Y-105190285D01*
X169822514Y-105228990D01*
X169745104Y-105267695D01*
X169667695Y-105267695D01*
X169590285Y-105228990D01*
X169551580Y-105190285D01*
X169512876Y-105112876D01*
X169474171Y-104958057D01*
X169474171Y-104764533D01*
X169512876Y-104609714D01*
X169551580Y-104532304D01*
X169590285Y-104493600D01*
X169667695Y-104454895D01*
X170209561Y-104454895D02*
X170712723Y-104454895D01*
X170441790Y-104764533D01*
X170557904Y-104764533D01*
X170635314Y-104803238D01*
X170674019Y-104841942D01*
X170712723Y-104919352D01*
X170712723Y-105112876D01*
X170674019Y-105190285D01*
X170635314Y-105228990D01*
X170557904Y-105267695D01*
X170325676Y-105267695D01*
X170248266Y-105228990D01*
X170209561Y-105190285D01*
X167942095Y-109667695D02*
X167477638Y-109667695D01*
X167709866Y-109667695D02*
X167709866Y-108854895D01*
X167632457Y-108971009D01*
X167555047Y-109048419D01*
X167477638Y-109087123D01*
X168445257Y-108854895D02*
X168522666Y-108854895D01*
X168600076Y-108893600D01*
X168638780Y-108932304D01*
X168677485Y-109009714D01*
X168716190Y-109164533D01*
X168716190Y-109358057D01*
X168677485Y-109512876D01*
X168638780Y-109590285D01*
X168600076Y-109628990D01*
X168522666Y-109667695D01*
X168445257Y-109667695D01*
X168367847Y-109628990D01*
X168329142Y-109590285D01*
X168290438Y-109512876D01*
X168251733Y-109358057D01*
X168251733Y-109164533D01*
X168290438Y-109009714D01*
X168329142Y-108932304D01*
X168367847Y-108893600D01*
X168445257Y-108854895D01*
X169219352Y-108854895D02*
X169296761Y-108854895D01*
X169374171Y-108893600D01*
X169412876Y-108932304D01*
X169451580Y-109009714D01*
X169490285Y-109164533D01*
X169490285Y-109358057D01*
X169451580Y-109512876D01*
X169412876Y-109590285D01*
X169374171Y-109628990D01*
X169296761Y-109667695D01*
X169219352Y-109667695D01*
X169141942Y-109628990D01*
X169103238Y-109590285D01*
X169064533Y-109512876D01*
X169025828Y-109358057D01*
X169025828Y-109164533D01*
X169064533Y-109009714D01*
X169103238Y-108932304D01*
X169141942Y-108893600D01*
X169219352Y-108854895D01*
X169838628Y-109125828D02*
X169838628Y-109667695D01*
X169838628Y-109203238D02*
X169877333Y-109164533D01*
X169954742Y-109125828D01*
X170070857Y-109125828D01*
X170148266Y-109164533D01*
X170186971Y-109241942D01*
X170186971Y-109667695D01*
X170844952Y-109241942D02*
X170574019Y-109241942D01*
X170574019Y-109667695D02*
X170574019Y-108854895D01*
X170961066Y-108854895D01*
X170625980Y-102167695D02*
X170625980Y-101354895D01*
X170819504Y-101354895D01*
X170935619Y-101393600D01*
X171013028Y-101471009D01*
X171051733Y-101548419D01*
X171090438Y-101703238D01*
X171090438Y-101819352D01*
X171051733Y-101974171D01*
X171013028Y-102051580D01*
X170935619Y-102128990D01*
X170819504Y-102167695D01*
X170625980Y-102167695D01*
X171361371Y-101354895D02*
X171864533Y-101354895D01*
X171593600Y-101664533D01*
X171709714Y-101664533D01*
X171787123Y-101703238D01*
X171825828Y-101741942D01*
X171864533Y-101819352D01*
X171864533Y-102012876D01*
X171825828Y-102090285D01*
X171787123Y-102128990D01*
X171709714Y-102167695D01*
X171477485Y-102167695D01*
X171400076Y-102128990D01*
X171361371Y-102090285D01*
X172367695Y-101354895D02*
X172445104Y-101354895D01*
X172522514Y-101393600D01*
X172561219Y-101432304D01*
X172599923Y-101509714D01*
X172638628Y-101664533D01*
X172638628Y-101858057D01*
X172599923Y-102012876D01*
X172561219Y-102090285D01*
X172522514Y-102128990D01*
X172445104Y-102167695D01*
X172367695Y-102167695D01*
X172290285Y-102128990D01*
X172251580Y-102090285D01*
X172212876Y-102012876D01*
X172174171Y-101858057D01*
X172174171Y-101664533D01*
X172212876Y-101509714D01*
X172251580Y-101432304D01*
X172290285Y-101393600D01*
X172367695Y-101354895D01*
X173412723Y-102167695D02*
X172948266Y-102167695D01*
X173180495Y-102167695D02*
X173180495Y-101354895D01*
X173103085Y-101471009D01*
X173025676Y-101548419D01*
X172948266Y-101587123D01*
D16*
X163535714Y-108852380D02*
X163535714Y-109661904D01*
X163583333Y-109757142D01*
X163630952Y-109804761D01*
X163726190Y-109852380D01*
X163916666Y-109852380D01*
X164011904Y-109804761D01*
X164059523Y-109757142D01*
X164107142Y-109661904D01*
X164107142Y-108852380D01*
X164488095Y-108852380D02*
X165107142Y-108852380D01*
X164773809Y-109233333D01*
X164916666Y-109233333D01*
X165011904Y-109280952D01*
X165059523Y-109328571D01*
X165107142Y-109423809D01*
X165107142Y-109661904D01*
X165059523Y-109757142D01*
X165011904Y-109804761D01*
X164916666Y-109852380D01*
X164630952Y-109852380D01*
X164535714Y-109804761D01*
X164488095Y-109757142D01*
X165726190Y-108852380D02*
X165821428Y-108852380D01*
X165916666Y-108900000D01*
X165964285Y-108947619D01*
X166011904Y-109042857D01*
X166059523Y-109233333D01*
X166059523Y-109471428D01*
X166011904Y-109661904D01*
X165964285Y-109757142D01*
X165916666Y-109804761D01*
X165821428Y-109852380D01*
X165726190Y-109852380D01*
X165630952Y-109804761D01*
X165583333Y-109757142D01*
X165535714Y-109661904D01*
X165488095Y-109471428D01*
X165488095Y-109233333D01*
X165535714Y-109042857D01*
X165583333Y-108947619D01*
X165630952Y-108900000D01*
X165726190Y-108852380D01*
X166440476Y-108947619D02*
X166488095Y-108900000D01*
X166583333Y-108852380D01*
X166821428Y-108852380D01*
X166916666Y-108900000D01*
X166964285Y-108947619D01*
X167011904Y-109042857D01*
X167011904Y-109138095D01*
X166964285Y-109280952D01*
X166392857Y-109852380D01*
X167011904Y-109852380D01*
X159380952Y-103152380D02*
X158904761Y-103152380D01*
X158904761Y-102152380D01*
X159619047Y-102152380D02*
X160238095Y-102152380D01*
X159904761Y-102533333D01*
X160047619Y-102533333D01*
X160142857Y-102580952D01*
X160190476Y-102628571D01*
X160238095Y-102723809D01*
X160238095Y-102961904D01*
X160190476Y-103057142D01*
X160142857Y-103104761D01*
X160047619Y-103152380D01*
X159761904Y-103152380D01*
X159666666Y-103104761D01*
X159619047Y-103057142D01*
X160857142Y-102152380D02*
X160952380Y-102152380D01*
X161047619Y-102200000D01*
X161095238Y-102247619D01*
X161142857Y-102342857D01*
X161190476Y-102533333D01*
X161190476Y-102771428D01*
X161142857Y-102961904D01*
X161095238Y-103057142D01*
X161047619Y-103104761D01*
X160952380Y-103152380D01*
X160857142Y-103152380D01*
X160761904Y-103104761D01*
X160714285Y-103057142D01*
X160666666Y-102961904D01*
X160619047Y-102771428D01*
X160619047Y-102533333D01*
X160666666Y-102342857D01*
X160714285Y-102247619D01*
X160761904Y-102200000D01*
X160857142Y-102152380D01*
X162142857Y-103152380D02*
X161571428Y-103152380D01*
X161857142Y-103152380D02*
X161857142Y-102152380D01*
X161761904Y-102295238D01*
X161666666Y-102390476D01*
X161571428Y-102438095D01*
D20*
X112990438Y-103090285D02*
X112951733Y-103128990D01*
X112835619Y-103167695D01*
X112758209Y-103167695D01*
X112642095Y-103128990D01*
X112564685Y-103051580D01*
X112525980Y-102974171D01*
X112487276Y-102819352D01*
X112487276Y-102703238D01*
X112525980Y-102548419D01*
X112564685Y-102471009D01*
X112642095Y-102393600D01*
X112758209Y-102354895D01*
X112835619Y-102354895D01*
X112951733Y-102393600D01*
X112990438Y-102432304D01*
X113300076Y-102432304D02*
X113338780Y-102393600D01*
X113416190Y-102354895D01*
X113609714Y-102354895D01*
X113687123Y-102393600D01*
X113725828Y-102432304D01*
X113764533Y-102509714D01*
X113764533Y-102587123D01*
X113725828Y-102703238D01*
X113261371Y-103167695D01*
X113764533Y-103167695D01*
X114267695Y-102354895D02*
X114345104Y-102354895D01*
X114422514Y-102393600D01*
X114461219Y-102432304D01*
X114499923Y-102509714D01*
X114538628Y-102664533D01*
X114538628Y-102858057D01*
X114499923Y-103012876D01*
X114461219Y-103090285D01*
X114422514Y-103128990D01*
X114345104Y-103167695D01*
X114267695Y-103167695D01*
X114190285Y-103128990D01*
X114151580Y-103090285D01*
X114112876Y-103012876D01*
X114074171Y-102858057D01*
X114074171Y-102664533D01*
X114112876Y-102509714D01*
X114151580Y-102432304D01*
X114190285Y-102393600D01*
X114267695Y-102354895D01*
X115312723Y-103167695D02*
X114848266Y-103167695D01*
X115080495Y-103167695D02*
X115080495Y-102354895D01*
X115003085Y-102471009D01*
X114925676Y-102548419D01*
X114848266Y-102587123D01*
X165290438Y-90790285D02*
X165251733Y-90828990D01*
X165135619Y-90867695D01*
X165058209Y-90867695D01*
X164942095Y-90828990D01*
X164864685Y-90751580D01*
X164825980Y-90674171D01*
X164787276Y-90519352D01*
X164787276Y-90403238D01*
X164825980Y-90248419D01*
X164864685Y-90171009D01*
X164942095Y-90093600D01*
X165058209Y-90054895D01*
X165135619Y-90054895D01*
X165251733Y-90093600D01*
X165290438Y-90132304D01*
X165561371Y-90054895D02*
X166064533Y-90054895D01*
X165793600Y-90364533D01*
X165909714Y-90364533D01*
X165987123Y-90403238D01*
X166025828Y-90441942D01*
X166064533Y-90519352D01*
X166064533Y-90712876D01*
X166025828Y-90790285D01*
X165987123Y-90828990D01*
X165909714Y-90867695D01*
X165677485Y-90867695D01*
X165600076Y-90828990D01*
X165561371Y-90790285D01*
X166567695Y-90054895D02*
X166645104Y-90054895D01*
X166722514Y-90093600D01*
X166761219Y-90132304D01*
X166799923Y-90209714D01*
X166838628Y-90364533D01*
X166838628Y-90558057D01*
X166799923Y-90712876D01*
X166761219Y-90790285D01*
X166722514Y-90828990D01*
X166645104Y-90867695D01*
X166567695Y-90867695D01*
X166490285Y-90828990D01*
X166451580Y-90790285D01*
X166412876Y-90712876D01*
X166374171Y-90558057D01*
X166374171Y-90364533D01*
X166412876Y-90209714D01*
X166451580Y-90132304D01*
X166490285Y-90093600D01*
X166567695Y-90054895D01*
X167535314Y-90325828D02*
X167535314Y-90867695D01*
X167341790Y-90016190D02*
X167148266Y-90596761D01*
X167651428Y-90596761D01*
X162045866Y-91890285D02*
X162007161Y-91928990D01*
X161891047Y-91967695D01*
X161813638Y-91967695D01*
X161697523Y-91928990D01*
X161620114Y-91851580D01*
X161581409Y-91774171D01*
X161542704Y-91619352D01*
X161542704Y-91503238D01*
X161581409Y-91348419D01*
X161620114Y-91271009D01*
X161697523Y-91193600D01*
X161813638Y-91154895D01*
X161891047Y-91154895D01*
X162007161Y-91193600D01*
X162045866Y-91232304D01*
X162355504Y-91735466D02*
X162742552Y-91735466D01*
X162278095Y-91967695D02*
X162549028Y-91154895D01*
X162819961Y-91967695D01*
X163090895Y-91967695D02*
X163090895Y-91154895D01*
X163400533Y-91154895D01*
X163477942Y-91193600D01*
X163516647Y-91232304D01*
X163555352Y-91309714D01*
X163555352Y-91425828D01*
X163516647Y-91503238D01*
X163477942Y-91541942D01*
X163400533Y-91580647D01*
X163090895Y-91580647D01*
X163710171Y-92045104D02*
X164329447Y-92045104D01*
X164522971Y-91541942D02*
X164793904Y-91541942D01*
X164910019Y-91967695D02*
X164522971Y-91967695D01*
X164522971Y-91154895D01*
X164910019Y-91154895D01*
X165258361Y-91541942D02*
X165529295Y-91541942D01*
X165645409Y-91967695D02*
X165258361Y-91967695D01*
X165258361Y-91154895D01*
X165645409Y-91154895D01*
X165993752Y-91541942D02*
X166264685Y-91541942D01*
X166380800Y-91967695D02*
X165993752Y-91967695D01*
X165993752Y-91154895D01*
X166380800Y-91154895D01*
X166729142Y-91658057D02*
X167348419Y-91658057D01*
X168006400Y-91541942D02*
X167735466Y-91541942D01*
X167735466Y-91967695D02*
X167735466Y-91154895D01*
X168122514Y-91154895D01*
X168432152Y-91967695D02*
X168432152Y-91154895D01*
X168896609Y-91967695D02*
X168548266Y-91503238D01*
X168896609Y-91154895D02*
X168432152Y-91619352D01*
X169670704Y-91967695D02*
X169206247Y-91967695D01*
X169438476Y-91967695D02*
X169438476Y-91154895D01*
X169361066Y-91271009D01*
X169283657Y-91348419D01*
X169206247Y-91387123D01*
X170019047Y-91967695D02*
X170019047Y-91154895D01*
X170019047Y-91541942D02*
X170483504Y-91541942D01*
X170483504Y-91967695D02*
X170483504Y-91154895D01*
X171218895Y-91425828D02*
X171218895Y-91967695D01*
X171025371Y-91116190D02*
X170831847Y-91696761D01*
X171335009Y-91696761D01*
X171567238Y-91154895D02*
X172109104Y-91154895D01*
X171760761Y-91967695D01*
X172573561Y-91154895D02*
X172650971Y-91154895D01*
X172728380Y-91193600D01*
X172767085Y-91232304D01*
X172805790Y-91309714D01*
X172844495Y-91464533D01*
X172844495Y-91658057D01*
X172805790Y-91812876D01*
X172767085Y-91890285D01*
X172728380Y-91928990D01*
X172650971Y-91967695D01*
X172573561Y-91967695D01*
X172496152Y-91928990D01*
X172457447Y-91890285D01*
X172418742Y-91812876D01*
X172380038Y-91658057D01*
X172380038Y-91464533D01*
X172418742Y-91309714D01*
X172457447Y-91232304D01*
X172496152Y-91193600D01*
X172573561Y-91154895D01*
X173192838Y-91967695D02*
X173192838Y-91154895D01*
X173502476Y-91154895D01*
X173579885Y-91193600D01*
X173618590Y-91232304D01*
X173657295Y-91309714D01*
X173657295Y-91425828D01*
X173618590Y-91503238D01*
X173579885Y-91541942D01*
X173502476Y-91580647D01*
X173192838Y-91580647D01*
X149190438Y-86390285D02*
X149151733Y-86428990D01*
X149035619Y-86467695D01*
X148958209Y-86467695D01*
X148842095Y-86428990D01*
X148764685Y-86351580D01*
X148725980Y-86274171D01*
X148687276Y-86119352D01*
X148687276Y-86003238D01*
X148725980Y-85848419D01*
X148764685Y-85771009D01*
X148842095Y-85693600D01*
X148958209Y-85654895D01*
X149035619Y-85654895D01*
X149151733Y-85693600D01*
X149190438Y-85732304D01*
X149887123Y-85654895D02*
X149732304Y-85654895D01*
X149654895Y-85693600D01*
X149616190Y-85732304D01*
X149538780Y-85848419D01*
X149500076Y-86003238D01*
X149500076Y-86312876D01*
X149538780Y-86390285D01*
X149577485Y-86428990D01*
X149654895Y-86467695D01*
X149809714Y-86467695D01*
X149887123Y-86428990D01*
X149925828Y-86390285D01*
X149964533Y-86312876D01*
X149964533Y-86119352D01*
X149925828Y-86041942D01*
X149887123Y-86003238D01*
X149809714Y-85964533D01*
X149654895Y-85964533D01*
X149577485Y-86003238D01*
X149538780Y-86041942D01*
X149500076Y-86119352D01*
X150467695Y-85654895D02*
X150545104Y-85654895D01*
X150622514Y-85693600D01*
X150661219Y-85732304D01*
X150699923Y-85809714D01*
X150738628Y-85964533D01*
X150738628Y-86158057D01*
X150699923Y-86312876D01*
X150661219Y-86390285D01*
X150622514Y-86428990D01*
X150545104Y-86467695D01*
X150467695Y-86467695D01*
X150390285Y-86428990D01*
X150351580Y-86390285D01*
X150312876Y-86312876D01*
X150274171Y-86158057D01*
X150274171Y-85964533D01*
X150312876Y-85809714D01*
X150351580Y-85732304D01*
X150390285Y-85693600D01*
X150467695Y-85654895D01*
X151512723Y-86467695D02*
X151048266Y-86467695D01*
X151280495Y-86467695D02*
X151280495Y-85654895D01*
X151203085Y-85771009D01*
X151125676Y-85848419D01*
X151048266Y-85887123D01*
X149242095Y-87467695D02*
X148777638Y-87467695D01*
X149009866Y-87467695D02*
X149009866Y-86654895D01*
X148932457Y-86771009D01*
X148855047Y-86848419D01*
X148777638Y-86887123D01*
X149745257Y-86654895D02*
X149822666Y-86654895D01*
X149900076Y-86693600D01*
X149938780Y-86732304D01*
X149977485Y-86809714D01*
X150016190Y-86964533D01*
X150016190Y-87158057D01*
X149977485Y-87312876D01*
X149938780Y-87390285D01*
X149900076Y-87428990D01*
X149822666Y-87467695D01*
X149745257Y-87467695D01*
X149667847Y-87428990D01*
X149629142Y-87390285D01*
X149590438Y-87312876D01*
X149551733Y-87158057D01*
X149551733Y-86964533D01*
X149590438Y-86809714D01*
X149629142Y-86732304D01*
X149667847Y-86693600D01*
X149745257Y-86654895D01*
X150519352Y-86654895D02*
X150596761Y-86654895D01*
X150674171Y-86693600D01*
X150712876Y-86732304D01*
X150751580Y-86809714D01*
X150790285Y-86964533D01*
X150790285Y-87158057D01*
X150751580Y-87312876D01*
X150712876Y-87390285D01*
X150674171Y-87428990D01*
X150596761Y-87467695D01*
X150519352Y-87467695D01*
X150441942Y-87428990D01*
X150403238Y-87390285D01*
X150364533Y-87312876D01*
X150325828Y-87158057D01*
X150325828Y-86964533D01*
X150364533Y-86809714D01*
X150403238Y-86732304D01*
X150441942Y-86693600D01*
X150519352Y-86654895D01*
X151138628Y-86925828D02*
X151138628Y-87467695D01*
X151138628Y-87003238D02*
X151177333Y-86964533D01*
X151254742Y-86925828D01*
X151370857Y-86925828D01*
X151448266Y-86964533D01*
X151486971Y-87041942D01*
X151486971Y-87467695D01*
X152144952Y-87041942D02*
X151874019Y-87041942D01*
X151874019Y-87467695D02*
X151874019Y-86654895D01*
X152261066Y-86654895D01*
X162890438Y-88967695D02*
X162619504Y-88580647D01*
X162425980Y-88967695D02*
X162425980Y-88154895D01*
X162735619Y-88154895D01*
X162813028Y-88193600D01*
X162851733Y-88232304D01*
X162890438Y-88309714D01*
X162890438Y-88425828D01*
X162851733Y-88503238D01*
X162813028Y-88541942D01*
X162735619Y-88580647D01*
X162425980Y-88580647D01*
X163587123Y-88154895D02*
X163432304Y-88154895D01*
X163354895Y-88193600D01*
X163316190Y-88232304D01*
X163238780Y-88348419D01*
X163200076Y-88503238D01*
X163200076Y-88812876D01*
X163238780Y-88890285D01*
X163277485Y-88928990D01*
X163354895Y-88967695D01*
X163509714Y-88967695D01*
X163587123Y-88928990D01*
X163625828Y-88890285D01*
X163664533Y-88812876D01*
X163664533Y-88619352D01*
X163625828Y-88541942D01*
X163587123Y-88503238D01*
X163509714Y-88464533D01*
X163354895Y-88464533D01*
X163277485Y-88503238D01*
X163238780Y-88541942D01*
X163200076Y-88619352D01*
X164167695Y-88154895D02*
X164245104Y-88154895D01*
X164322514Y-88193600D01*
X164361219Y-88232304D01*
X164399923Y-88309714D01*
X164438628Y-88464533D01*
X164438628Y-88658057D01*
X164399923Y-88812876D01*
X164361219Y-88890285D01*
X164322514Y-88928990D01*
X164245104Y-88967695D01*
X164167695Y-88967695D01*
X164090285Y-88928990D01*
X164051580Y-88890285D01*
X164012876Y-88812876D01*
X163974171Y-88658057D01*
X163974171Y-88464533D01*
X164012876Y-88309714D01*
X164051580Y-88232304D01*
X164090285Y-88193600D01*
X164167695Y-88154895D01*
X165212723Y-88967695D02*
X164748266Y-88967695D01*
X164980495Y-88967695D02*
X164980495Y-88154895D01*
X164903085Y-88271009D01*
X164825676Y-88348419D01*
X164748266Y-88387123D01*
X162938780Y-89967695D02*
X162474323Y-89967695D01*
X162706552Y-89967695D02*
X162706552Y-89154895D01*
X162629142Y-89271009D01*
X162551733Y-89348419D01*
X162474323Y-89387123D01*
X163441942Y-89154895D02*
X163519352Y-89154895D01*
X163596761Y-89193600D01*
X163635466Y-89232304D01*
X163674171Y-89309714D01*
X163712876Y-89464533D01*
X163712876Y-89658057D01*
X163674171Y-89812876D01*
X163635466Y-89890285D01*
X163596761Y-89928990D01*
X163519352Y-89967695D01*
X163441942Y-89967695D01*
X163364533Y-89928990D01*
X163325828Y-89890285D01*
X163287123Y-89812876D01*
X163248419Y-89658057D01*
X163248419Y-89464533D01*
X163287123Y-89309714D01*
X163325828Y-89232304D01*
X163364533Y-89193600D01*
X163441942Y-89154895D01*
X164061219Y-89967695D02*
X164061219Y-89154895D01*
X164525676Y-89967695D02*
X164177333Y-89503238D01*
X164525676Y-89154895D02*
X164061219Y-89619352D01*
X161090438Y-84067695D02*
X160819504Y-83680647D01*
X160625980Y-84067695D02*
X160625980Y-83254895D01*
X160935619Y-83254895D01*
X161013028Y-83293600D01*
X161051733Y-83332304D01*
X161090438Y-83409714D01*
X161090438Y-83525828D01*
X161051733Y-83603238D01*
X161013028Y-83641942D01*
X160935619Y-83680647D01*
X160625980Y-83680647D01*
X161787123Y-83254895D02*
X161632304Y-83254895D01*
X161554895Y-83293600D01*
X161516190Y-83332304D01*
X161438780Y-83448419D01*
X161400076Y-83603238D01*
X161400076Y-83912876D01*
X161438780Y-83990285D01*
X161477485Y-84028990D01*
X161554895Y-84067695D01*
X161709714Y-84067695D01*
X161787123Y-84028990D01*
X161825828Y-83990285D01*
X161864533Y-83912876D01*
X161864533Y-83719352D01*
X161825828Y-83641942D01*
X161787123Y-83603238D01*
X161709714Y-83564533D01*
X161554895Y-83564533D01*
X161477485Y-83603238D01*
X161438780Y-83641942D01*
X161400076Y-83719352D01*
X162367695Y-83254895D02*
X162445104Y-83254895D01*
X162522514Y-83293600D01*
X162561219Y-83332304D01*
X162599923Y-83409714D01*
X162638628Y-83564533D01*
X162638628Y-83758057D01*
X162599923Y-83912876D01*
X162561219Y-83990285D01*
X162522514Y-84028990D01*
X162445104Y-84067695D01*
X162367695Y-84067695D01*
X162290285Y-84028990D01*
X162251580Y-83990285D01*
X162212876Y-83912876D01*
X162174171Y-83758057D01*
X162174171Y-83564533D01*
X162212876Y-83409714D01*
X162251580Y-83332304D01*
X162290285Y-83293600D01*
X162367695Y-83254895D01*
X162948266Y-83332304D02*
X162986971Y-83293600D01*
X163064380Y-83254895D01*
X163257904Y-83254895D01*
X163335314Y-83293600D01*
X163374019Y-83332304D01*
X163412723Y-83409714D01*
X163412723Y-83487123D01*
X163374019Y-83603238D01*
X162909561Y-84067695D01*
X163412723Y-84067695D01*
X161138780Y-85067695D02*
X160674323Y-85067695D01*
X160906552Y-85067695D02*
X160906552Y-84254895D01*
X160829142Y-84371009D01*
X160751733Y-84448419D01*
X160674323Y-84487123D01*
X161641942Y-84254895D02*
X161719352Y-84254895D01*
X161796761Y-84293600D01*
X161835466Y-84332304D01*
X161874171Y-84409714D01*
X161912876Y-84564533D01*
X161912876Y-84758057D01*
X161874171Y-84912876D01*
X161835466Y-84990285D01*
X161796761Y-85028990D01*
X161719352Y-85067695D01*
X161641942Y-85067695D01*
X161564533Y-85028990D01*
X161525828Y-84990285D01*
X161487123Y-84912876D01*
X161448419Y-84758057D01*
X161448419Y-84564533D01*
X161487123Y-84409714D01*
X161525828Y-84332304D01*
X161564533Y-84293600D01*
X161641942Y-84254895D01*
X162261219Y-85067695D02*
X162261219Y-84254895D01*
X162725676Y-85067695D02*
X162377333Y-84603238D01*
X162725676Y-84254895D02*
X162261219Y-84719352D01*
X154606628Y-88054895D02*
X154606628Y-88712876D01*
X154645333Y-88790285D01*
X154684038Y-88828990D01*
X154761447Y-88867695D01*
X154916266Y-88867695D01*
X154993676Y-88828990D01*
X155032380Y-88790285D01*
X155071085Y-88712876D01*
X155071085Y-88054895D01*
X155806476Y-88054895D02*
X155651657Y-88054895D01*
X155574247Y-88093600D01*
X155535542Y-88132304D01*
X155458133Y-88248419D01*
X155419428Y-88403238D01*
X155419428Y-88712876D01*
X155458133Y-88790285D01*
X155496838Y-88828990D01*
X155574247Y-88867695D01*
X155729066Y-88867695D01*
X155806476Y-88828990D01*
X155845180Y-88790285D01*
X155883885Y-88712876D01*
X155883885Y-88519352D01*
X155845180Y-88441942D01*
X155806476Y-88403238D01*
X155729066Y-88364533D01*
X155574247Y-88364533D01*
X155496838Y-88403238D01*
X155458133Y-88441942D01*
X155419428Y-88519352D01*
X156387047Y-88054895D02*
X156464457Y-88054895D01*
X156541866Y-88093600D01*
X156580571Y-88132304D01*
X156619276Y-88209714D01*
X156657980Y-88364533D01*
X156657980Y-88558057D01*
X156619276Y-88712876D01*
X156580571Y-88790285D01*
X156541866Y-88828990D01*
X156464457Y-88867695D01*
X156387047Y-88867695D01*
X156309638Y-88828990D01*
X156270933Y-88790285D01*
X156232228Y-88712876D01*
X156193523Y-88558057D01*
X156193523Y-88364533D01*
X156232228Y-88209714D01*
X156270933Y-88132304D01*
X156309638Y-88093600D01*
X156387047Y-88054895D01*
X157432076Y-88867695D02*
X156967619Y-88867695D01*
X157199847Y-88867695D02*
X157199847Y-88054895D01*
X157122438Y-88171009D01*
X157045028Y-88248419D01*
X156967619Y-88287123D01*
D16*
X153138095Y-76652380D02*
X153804761Y-77652380D01*
X153804761Y-76652380D02*
X153138095Y-77652380D01*
X154614285Y-76652380D02*
X154423809Y-76652380D01*
X154328571Y-76700000D01*
X154280952Y-76747619D01*
X154185714Y-76890476D01*
X154138095Y-77080952D01*
X154138095Y-77461904D01*
X154185714Y-77557142D01*
X154233333Y-77604761D01*
X154328571Y-77652380D01*
X154519047Y-77652380D01*
X154614285Y-77604761D01*
X154661904Y-77557142D01*
X154709523Y-77461904D01*
X154709523Y-77223809D01*
X154661904Y-77128571D01*
X154614285Y-77080952D01*
X154519047Y-77033333D01*
X154328571Y-77033333D01*
X154233333Y-77080952D01*
X154185714Y-77128571D01*
X154138095Y-77223809D01*
X155328571Y-76652380D02*
X155423809Y-76652380D01*
X155519047Y-76700000D01*
X155566666Y-76747619D01*
X155614285Y-76842857D01*
X155661904Y-77033333D01*
X155661904Y-77271428D01*
X155614285Y-77461904D01*
X155566666Y-77557142D01*
X155519047Y-77604761D01*
X155423809Y-77652380D01*
X155328571Y-77652380D01*
X155233333Y-77604761D01*
X155185714Y-77557142D01*
X155138095Y-77461904D01*
X155090476Y-77271428D01*
X155090476Y-77033333D01*
X155138095Y-76842857D01*
X155185714Y-76747619D01*
X155233333Y-76700000D01*
X155328571Y-76652380D01*
X156614285Y-77652380D02*
X156042857Y-77652380D01*
X156328571Y-77652380D02*
X156328571Y-76652380D01*
X156233333Y-76795238D01*
X156138095Y-76890476D01*
X156042857Y-76938095D01*
D20*
X168236495Y-86821028D02*
X168817066Y-86821028D01*
X168933180Y-86859733D01*
X169010590Y-86937142D01*
X169049295Y-87053257D01*
X169049295Y-87130666D01*
X168507428Y-86085638D02*
X169049295Y-86085638D01*
X168197790Y-86279161D02*
X168778361Y-86472685D01*
X168778361Y-85969523D01*
X168236495Y-85505066D02*
X168236495Y-85427657D01*
X168275200Y-85350247D01*
X168313904Y-85311542D01*
X168391314Y-85272838D01*
X168546133Y-85234133D01*
X168739657Y-85234133D01*
X168894476Y-85272838D01*
X168971885Y-85311542D01*
X169010590Y-85350247D01*
X169049295Y-85427657D01*
X169049295Y-85505066D01*
X169010590Y-85582476D01*
X168971885Y-85621180D01*
X168894476Y-85659885D01*
X168739657Y-85698590D01*
X168546133Y-85698590D01*
X168391314Y-85659885D01*
X168313904Y-85621180D01*
X168275200Y-85582476D01*
X168236495Y-85505066D01*
X169049295Y-84460038D02*
X169049295Y-84924495D01*
X169049295Y-84692266D02*
X168236495Y-84692266D01*
X168352609Y-84769676D01*
X168430019Y-84847085D01*
X168468723Y-84924495D01*
D16*
X126964285Y-87278571D02*
X126630952Y-87278571D01*
X126630952Y-87802380D02*
X126630952Y-86802380D01*
X127107142Y-86802380D01*
X127440476Y-86897619D02*
X127488095Y-86850000D01*
X127583333Y-86802380D01*
X127821428Y-86802380D01*
X127916666Y-86850000D01*
X127964285Y-86897619D01*
X128011904Y-86992857D01*
X128011904Y-87088095D01*
X127964285Y-87230952D01*
X127392857Y-87802380D01*
X128011904Y-87802380D01*
X128630952Y-86802380D02*
X128726190Y-86802380D01*
X128821428Y-86850000D01*
X128869047Y-86897619D01*
X128916666Y-86992857D01*
X128964285Y-87183333D01*
X128964285Y-87421428D01*
X128916666Y-87611904D01*
X128869047Y-87707142D01*
X128821428Y-87754761D01*
X128726190Y-87802380D01*
X128630952Y-87802380D01*
X128535714Y-87754761D01*
X128488095Y-87707142D01*
X128440476Y-87611904D01*
X128392857Y-87421428D01*
X128392857Y-87183333D01*
X128440476Y-86992857D01*
X128488095Y-86897619D01*
X128535714Y-86850000D01*
X128630952Y-86802380D01*
X129916666Y-87802380D02*
X129345238Y-87802380D01*
X129630952Y-87802380D02*
X129630952Y-86802380D01*
X129535714Y-86945238D01*
X129440476Y-87040476D01*
X129345238Y-87088095D01*
X127014285Y-82128571D02*
X126680952Y-82128571D01*
X126680952Y-82652380D02*
X126680952Y-81652380D01*
X127157142Y-81652380D01*
X127490476Y-81747619D02*
X127538095Y-81700000D01*
X127633333Y-81652380D01*
X127871428Y-81652380D01*
X127966666Y-81700000D01*
X128014285Y-81747619D01*
X128061904Y-81842857D01*
X128061904Y-81938095D01*
X128014285Y-82080952D01*
X127442857Y-82652380D01*
X128061904Y-82652380D01*
X128680952Y-81652380D02*
X128776190Y-81652380D01*
X128871428Y-81700000D01*
X128919047Y-81747619D01*
X128966666Y-81842857D01*
X129014285Y-82033333D01*
X129014285Y-82271428D01*
X128966666Y-82461904D01*
X128919047Y-82557142D01*
X128871428Y-82604761D01*
X128776190Y-82652380D01*
X128680952Y-82652380D01*
X128585714Y-82604761D01*
X128538095Y-82557142D01*
X128490476Y-82461904D01*
X128442857Y-82271428D01*
X128442857Y-82033333D01*
X128490476Y-81842857D01*
X128538095Y-81747619D01*
X128585714Y-81700000D01*
X128680952Y-81652380D01*
X129395238Y-81747619D02*
X129442857Y-81700000D01*
X129538095Y-81652380D01*
X129776190Y-81652380D01*
X129871428Y-81700000D01*
X129919047Y-81747619D01*
X129966666Y-81842857D01*
X129966666Y-81938095D01*
X129919047Y-82080952D01*
X129347619Y-82652380D01*
X129966666Y-82652380D01*
X127014285Y-91878571D02*
X126680952Y-91878571D01*
X126680952Y-92402380D02*
X126680952Y-91402380D01*
X127157142Y-91402380D01*
X127490476Y-91497619D02*
X127538095Y-91450000D01*
X127633333Y-91402380D01*
X127871428Y-91402380D01*
X127966666Y-91450000D01*
X128014285Y-91497619D01*
X128061904Y-91592857D01*
X128061904Y-91688095D01*
X128014285Y-91830952D01*
X127442857Y-92402380D01*
X128061904Y-92402380D01*
X128680952Y-91402380D02*
X128776190Y-91402380D01*
X128871428Y-91450000D01*
X128919047Y-91497619D01*
X128966666Y-91592857D01*
X129014285Y-91783333D01*
X129014285Y-92021428D01*
X128966666Y-92211904D01*
X128919047Y-92307142D01*
X128871428Y-92354761D01*
X128776190Y-92402380D01*
X128680952Y-92402380D01*
X128585714Y-92354761D01*
X128538095Y-92307142D01*
X128490476Y-92211904D01*
X128442857Y-92021428D01*
X128442857Y-91783333D01*
X128490476Y-91592857D01*
X128538095Y-91497619D01*
X128585714Y-91450000D01*
X128680952Y-91402380D01*
X129347619Y-91402380D02*
X129966666Y-91402380D01*
X129633333Y-91783333D01*
X129776190Y-91783333D01*
X129871428Y-91830952D01*
X129919047Y-91878571D01*
X129966666Y-91973809D01*
X129966666Y-92211904D01*
X129919047Y-92307142D01*
X129871428Y-92354761D01*
X129776190Y-92402380D01*
X129490476Y-92402380D01*
X129395238Y-92354761D01*
X129347619Y-92307142D01*
M02*
