G04 #@! TF.GenerationSoftware,KiCad,Pcbnew,(5.0.0-rc2-dev-130-g0bdae22af-dirty)*
G04 #@! TF.CreationDate,2018-05-29T16:10:21+03:00*
G04 #@! TF.ProjectId,display,646973706C61792E6B696361645F7063,1*
G04 #@! TF.SameCoordinates,Original*
G04 #@! TF.FileFunction,Legend,Bot*
G04 #@! TF.FilePolarity,Positive*
%FSLAX46Y46*%
G04 Gerber Fmt 4.6, Leading zero omitted, Abs format (unit mm)*
G04 Created by KiCad (PCBNEW (5.0.0-rc2-dev-130-g0bdae22af-dirty)) date Tue May 29 16:10:21 2018*
%MOMM*%
%LPD*%
G01*
G04 APERTURE LIST*
%ADD10C,0.200000*%
%ADD11C,0.150000*%
G04 APERTURE END LIST*
D10*
X100900000Y-99450000D02*
X103650000Y-99450000D01*
X100900000Y-98500000D02*
X100900000Y-99450000D01*
X99400000Y-98500000D02*
X100900000Y-98500000D01*
X99400000Y-109100000D02*
X99400000Y-98500000D01*
X100900000Y-109100000D02*
X99400000Y-109100000D01*
X100900000Y-108150000D02*
X100900000Y-109100000D01*
X102400000Y-108150000D02*
X100900000Y-108150000D01*
X103650000Y-108150000D02*
X102400000Y-108150000D01*
X106700000Y-101550000D02*
X106700000Y-100550000D01*
X106700000Y-107050000D02*
X106700000Y-106050000D01*
D11*
X104452380Y-102364285D02*
X105166666Y-102364285D01*
X105309523Y-102316666D01*
X105404761Y-102221428D01*
X105452380Y-102078571D01*
X105452380Y-101983333D01*
X104452380Y-102745238D02*
X104452380Y-103364285D01*
X104833333Y-103030952D01*
X104833333Y-103173809D01*
X104880952Y-103269047D01*
X104928571Y-103316666D01*
X105023809Y-103364285D01*
X105261904Y-103364285D01*
X105357142Y-103316666D01*
X105404761Y-103269047D01*
X105452380Y-103173809D01*
X105452380Y-102888095D01*
X105404761Y-102792857D01*
X105357142Y-102745238D01*
X104452380Y-103983333D02*
X104452380Y-104078571D01*
X104500000Y-104173809D01*
X104547619Y-104221428D01*
X104642857Y-104269047D01*
X104833333Y-104316666D01*
X105071428Y-104316666D01*
X105261904Y-104269047D01*
X105357142Y-104221428D01*
X105404761Y-104173809D01*
X105452380Y-104078571D01*
X105452380Y-103983333D01*
X105404761Y-103888095D01*
X105357142Y-103840476D01*
X105261904Y-103792857D01*
X105071428Y-103745238D01*
X104833333Y-103745238D01*
X104642857Y-103792857D01*
X104547619Y-103840476D01*
X104500000Y-103888095D01*
X104452380Y-103983333D01*
X104547619Y-104697619D02*
X104500000Y-104745238D01*
X104452380Y-104840476D01*
X104452380Y-105078571D01*
X104500000Y-105173809D01*
X104547619Y-105221428D01*
X104642857Y-105269047D01*
X104738095Y-105269047D01*
X104880952Y-105221428D01*
X105452380Y-104650000D01*
X105452380Y-105269047D01*
M02*
