G04 #@! TF.FileFunction,Legend,Top*
%FSLAX46Y46*%
G04 Gerber Fmt 4.6, Leading zero omitted, Abs format (unit mm)*
G04 Created by KiCad (PCBNEW (2016-07-28 BZR 6996, Git e15ad93)-product) date Wed Sep  7 11:15:42 2016*
%MOMM*%
%LPD*%
G01*
G04 APERTURE LIST*
%ADD10C,0.100000*%
%ADD11C,0.203200*%
%ADD12C,0.200000*%
%ADD13C,0.152400*%
%ADD14C,0.101600*%
%ADD15C,0.198120*%
%ADD16C,0.099060*%
%ADD17C,0.254000*%
%ADD18C,0.127000*%
%ADD19C,0.076200*%
%ADD20C,0.150000*%
G04 APERTURE END LIST*
D10*
D11*
X160863280Y-74566780D02*
X160863280Y-76563220D01*
X160863280Y-76563220D02*
X162460940Y-75565000D01*
X162460940Y-75565000D02*
X160863280Y-74566780D01*
X162460940Y-74566780D02*
X162659060Y-74566780D01*
X162659060Y-74566780D02*
X162659060Y-76563220D01*
X162659060Y-76563220D02*
X162859720Y-76563220D01*
X159562800Y-77464920D02*
X164061140Y-77464920D01*
X164061140Y-77464920D02*
X164061140Y-77063600D01*
X159562800Y-77464920D02*
X159562800Y-77063600D01*
X159562800Y-74066400D02*
X159562800Y-73665080D01*
X159562800Y-73665080D02*
X164061140Y-73665080D01*
X164061140Y-73665080D02*
X164061140Y-74066400D01*
D12*
X113107000Y-115951000D02*
G75*
G03X113107000Y-115951000I-6300000J0D01*
G01*
D13*
X140499577Y-70323973D02*
X140499577Y-101718373D01*
X140499577Y-101718373D02*
X109105177Y-101718373D01*
X109105177Y-101718373D02*
X109105177Y-70323973D01*
X109105177Y-70323973D02*
X140499577Y-70323973D01*
D11*
X110756177Y-99229173D02*
X110756177Y-100067373D01*
X111594377Y-71974973D02*
X110756177Y-71974973D01*
X138848577Y-72813173D02*
X138848577Y-71974973D01*
X138848577Y-100067373D02*
X138848577Y-99229173D01*
X138848577Y-71974973D02*
X138010377Y-71974973D01*
X110756177Y-71974973D02*
X110756177Y-72813173D01*
X110756177Y-100067373D02*
X111594377Y-100067373D01*
X138010377Y-100067373D02*
X138848577Y-100067373D01*
D13*
X110756177Y-73397373D02*
X110756177Y-73143373D01*
X110756177Y-73143373D02*
X109714777Y-73143373D01*
X109714777Y-73143373D02*
X109714777Y-73397373D01*
X109714777Y-73397373D02*
X110756177Y-73397373D01*
X110756177Y-73905373D02*
X110756177Y-73625973D01*
X110756177Y-73625973D02*
X109714777Y-73625973D01*
X109714777Y-73625973D02*
X109714777Y-73905373D01*
X109714777Y-73905373D02*
X110756177Y-73905373D01*
X110756177Y-74413373D02*
X110756177Y-74133973D01*
X110756177Y-74133973D02*
X109714777Y-74133973D01*
X109714777Y-74133973D02*
X109714777Y-74413373D01*
X109714777Y-74413373D02*
X110756177Y-74413373D01*
X110756177Y-74895973D02*
X110756177Y-74641973D01*
X110756177Y-74641973D02*
X109714777Y-74641973D01*
X109714777Y-74641973D02*
X109714777Y-74895973D01*
X109714777Y-74895973D02*
X110756177Y-74895973D01*
X110756177Y-75403973D02*
X110756177Y-75124573D01*
X110756177Y-75124573D02*
X109714777Y-75124573D01*
X109714777Y-75124573D02*
X109714777Y-75403973D01*
X109714777Y-75403973D02*
X110756177Y-75403973D01*
X110756177Y-75911973D02*
X110756177Y-75635113D01*
X110756177Y-75635113D02*
X109714777Y-75635113D01*
X109714777Y-75635113D02*
X109714777Y-75911973D01*
X109714777Y-75911973D02*
X110756177Y-75911973D01*
X110756177Y-76394573D02*
X110756177Y-76140573D01*
X110756177Y-76140573D02*
X109714777Y-76140573D01*
X109714777Y-76140573D02*
X109714777Y-76394573D01*
X109714777Y-76394573D02*
X110756177Y-76394573D01*
X110756177Y-76902573D02*
X110756177Y-76648573D01*
X110756177Y-76648573D02*
X109714777Y-76648573D01*
X109714777Y-76648573D02*
X109714777Y-76902573D01*
X109714777Y-76902573D02*
X110756177Y-76902573D01*
X110756177Y-77410573D02*
X110756177Y-77131173D01*
X110756177Y-77131173D02*
X109714777Y-77131173D01*
X109714777Y-77131173D02*
X109714777Y-77410573D01*
X109714777Y-77410573D02*
X110756177Y-77410573D01*
X110756177Y-77918573D02*
X110756177Y-77639173D01*
X110756177Y-77639173D02*
X109714777Y-77639173D01*
X109714777Y-77639173D02*
X109714777Y-77918573D01*
X109714777Y-77918573D02*
X110756177Y-77918573D01*
X110756177Y-78401173D02*
X110756177Y-78147173D01*
X110756177Y-78147173D02*
X109714777Y-78147173D01*
X109714777Y-78147173D02*
X109714777Y-78401173D01*
X109714777Y-78401173D02*
X110756177Y-78401173D01*
X110756177Y-78909173D02*
X110756177Y-78629773D01*
X110756177Y-78629773D02*
X109714777Y-78629773D01*
X109714777Y-78629773D02*
X109714777Y-78909173D01*
X109714777Y-78909173D02*
X110756177Y-78909173D01*
X110756177Y-79417173D02*
X110756177Y-79137773D01*
X110756177Y-79137773D02*
X109714777Y-79137773D01*
X109714777Y-79137773D02*
X109714777Y-79417173D01*
X109714777Y-79417173D02*
X110756177Y-79417173D01*
X110756177Y-79899773D02*
X110756177Y-79645773D01*
X110756177Y-79645773D02*
X109714777Y-79645773D01*
X109714777Y-79645773D02*
X109714777Y-79899773D01*
X109714777Y-79899773D02*
X110756177Y-79899773D01*
X110756177Y-80407773D02*
X110756177Y-80128373D01*
X110756177Y-80128373D02*
X109714777Y-80128373D01*
X109714777Y-80128373D02*
X109714777Y-80407773D01*
X109714777Y-80407773D02*
X110756177Y-80407773D01*
X110756177Y-80915773D02*
X110756177Y-80636373D01*
X110756177Y-80636373D02*
X109714777Y-80636373D01*
X109714777Y-80636373D02*
X109714777Y-80915773D01*
X109714777Y-80915773D02*
X110756177Y-80915773D01*
X110756177Y-81398373D02*
X110756177Y-81144373D01*
X110756177Y-81144373D02*
X109714777Y-81144373D01*
X109714777Y-81144373D02*
X109714777Y-81398373D01*
X109714777Y-81398373D02*
X110756177Y-81398373D01*
X110756177Y-81906373D02*
X110756177Y-81629513D01*
X110756177Y-81629513D02*
X109714777Y-81629513D01*
X109714777Y-81629513D02*
X109714777Y-81906373D01*
X109714777Y-81906373D02*
X110756177Y-81906373D01*
X110756177Y-82416913D02*
X110756177Y-82134973D01*
X110756177Y-82134973D02*
X109714777Y-82134973D01*
X109714777Y-82134973D02*
X109714777Y-82416913D01*
X109714777Y-82416913D02*
X110756177Y-82416913D01*
X110756177Y-82896973D02*
X110756177Y-82642973D01*
X110756177Y-82642973D02*
X109714777Y-82642973D01*
X109714777Y-82642973D02*
X109714777Y-82896973D01*
X109714777Y-82896973D02*
X110756177Y-82896973D01*
X110756177Y-83404973D02*
X110756177Y-83125573D01*
X110756177Y-83125573D02*
X109714777Y-83125573D01*
X109714777Y-83125573D02*
X109714777Y-83404973D01*
X109714777Y-83404973D02*
X110756177Y-83404973D01*
X110756177Y-83912973D02*
X110756177Y-83633573D01*
X110756177Y-83633573D02*
X109714777Y-83633573D01*
X109714777Y-83633573D02*
X109714777Y-83912973D01*
X109714777Y-83912973D02*
X110756177Y-83912973D01*
X110756177Y-84395573D02*
X110756177Y-84141573D01*
X110756177Y-84141573D02*
X109714777Y-84141573D01*
X109714777Y-84141573D02*
X109714777Y-84395573D01*
X109714777Y-84395573D02*
X110756177Y-84395573D01*
X110756177Y-84903573D02*
X110756177Y-84624173D01*
X110756177Y-84624173D02*
X109714777Y-84624173D01*
X109714777Y-84624173D02*
X109714777Y-84903573D01*
X109714777Y-84903573D02*
X110756177Y-84903573D01*
X110756177Y-85411573D02*
X110756177Y-85132173D01*
X110756177Y-85132173D02*
X109714777Y-85132173D01*
X109714777Y-85132173D02*
X109714777Y-85411573D01*
X109714777Y-85411573D02*
X110756177Y-85411573D01*
X110756177Y-85894173D02*
X110756177Y-85640173D01*
X110756177Y-85640173D02*
X109714777Y-85640173D01*
X109714777Y-85640173D02*
X109714777Y-85894173D01*
X109714777Y-85894173D02*
X110756177Y-85894173D01*
X110756177Y-86402173D02*
X110756177Y-86148173D01*
X110756177Y-86148173D02*
X109714777Y-86148173D01*
X109714777Y-86148173D02*
X109714777Y-86402173D01*
X109714777Y-86402173D02*
X110756177Y-86402173D01*
X110756177Y-86910173D02*
X110756177Y-86630773D01*
X110756177Y-86630773D02*
X109714777Y-86630773D01*
X109714777Y-86630773D02*
X109714777Y-86910173D01*
X109714777Y-86910173D02*
X110756177Y-86910173D01*
X110756177Y-87418173D02*
X110756177Y-87138773D01*
X110756177Y-87138773D02*
X109714777Y-87138773D01*
X109714777Y-87138773D02*
X109714777Y-87418173D01*
X109714777Y-87418173D02*
X110756177Y-87418173D01*
X110756177Y-87900773D02*
X110756177Y-87646773D01*
X110756177Y-87646773D02*
X109714777Y-87646773D01*
X109714777Y-87646773D02*
X109714777Y-87900773D01*
X109714777Y-87900773D02*
X110756177Y-87900773D01*
X110756177Y-88408773D02*
X110756177Y-88129373D01*
X110756177Y-88129373D02*
X109714777Y-88129373D01*
X109714777Y-88129373D02*
X109714777Y-88408773D01*
X109714777Y-88408773D02*
X110756177Y-88408773D01*
X110756177Y-88916773D02*
X110756177Y-88637373D01*
X110756177Y-88637373D02*
X109714777Y-88637373D01*
X109714777Y-88637373D02*
X109714777Y-88916773D01*
X109714777Y-88916773D02*
X110756177Y-88916773D01*
X110756177Y-89399373D02*
X110756177Y-89145373D01*
X110756177Y-89145373D02*
X109714777Y-89145373D01*
X109714777Y-89145373D02*
X109714777Y-89399373D01*
X109714777Y-89399373D02*
X110756177Y-89399373D01*
X110756177Y-89907373D02*
X110756177Y-89625433D01*
X110756177Y-89625433D02*
X109714777Y-89625433D01*
X109714777Y-89625433D02*
X109714777Y-89907373D01*
X109714777Y-89907373D02*
X110756177Y-89907373D01*
X110756177Y-90412833D02*
X110756177Y-90135973D01*
X110756177Y-90135973D02*
X109714777Y-90135973D01*
X109714777Y-90135973D02*
X109714777Y-90412833D01*
X109714777Y-90412833D02*
X110756177Y-90412833D01*
X110756177Y-90897973D02*
X110756177Y-90643973D01*
X110756177Y-90643973D02*
X109714777Y-90643973D01*
X109714777Y-90643973D02*
X109714777Y-90897973D01*
X109714777Y-90897973D02*
X110756177Y-90897973D01*
X110756177Y-91405973D02*
X110756177Y-91126573D01*
X110756177Y-91126573D02*
X109714777Y-91126573D01*
X109714777Y-91126573D02*
X109714777Y-91405973D01*
X109714777Y-91405973D02*
X110756177Y-91405973D01*
X110756177Y-91913973D02*
X110756177Y-91634573D01*
X110756177Y-91634573D02*
X109714777Y-91634573D01*
X109714777Y-91634573D02*
X109714777Y-91913973D01*
X109714777Y-91913973D02*
X110756177Y-91913973D01*
X110756177Y-92396573D02*
X110756177Y-92142573D01*
X110756177Y-92142573D02*
X109714777Y-92142573D01*
X109714777Y-92142573D02*
X109714777Y-92396573D01*
X109714777Y-92396573D02*
X110756177Y-92396573D01*
X110756177Y-92904573D02*
X110756177Y-92625173D01*
X110756177Y-92625173D02*
X109714777Y-92625173D01*
X109714777Y-92625173D02*
X109714777Y-92904573D01*
X109714777Y-92904573D02*
X110756177Y-92904573D01*
X110756177Y-93412573D02*
X110756177Y-93133173D01*
X110756177Y-93133173D02*
X109714777Y-93133173D01*
X109714777Y-93133173D02*
X109714777Y-93412573D01*
X109714777Y-93412573D02*
X110756177Y-93412573D01*
X110756177Y-93895173D02*
X110756177Y-93641173D01*
X110756177Y-93641173D02*
X109714777Y-93641173D01*
X109714777Y-93641173D02*
X109714777Y-93895173D01*
X109714777Y-93895173D02*
X110756177Y-93895173D01*
X110756177Y-94403173D02*
X110756177Y-94123773D01*
X110756177Y-94123773D02*
X109714777Y-94123773D01*
X109714777Y-94123773D02*
X109714777Y-94403173D01*
X109714777Y-94403173D02*
X110756177Y-94403173D01*
X110756177Y-94911173D02*
X110756177Y-94631773D01*
X110756177Y-94631773D02*
X109714777Y-94631773D01*
X109714777Y-94631773D02*
X109714777Y-94911173D01*
X109714777Y-94911173D02*
X110756177Y-94911173D01*
X110756177Y-95393773D02*
X110756177Y-95139773D01*
X110756177Y-95139773D02*
X109714777Y-95139773D01*
X109714777Y-95139773D02*
X109714777Y-95393773D01*
X109714777Y-95393773D02*
X110756177Y-95393773D01*
X110756177Y-95901773D02*
X110756177Y-95647773D01*
X110756177Y-95647773D02*
X109714777Y-95647773D01*
X109714777Y-95647773D02*
X109714777Y-95901773D01*
X109714777Y-95901773D02*
X110756177Y-95901773D01*
X110756177Y-96407233D02*
X110756177Y-96130373D01*
X110756177Y-96130373D02*
X109714777Y-96130373D01*
X109714777Y-96130373D02*
X109714777Y-96407233D01*
X109714777Y-96407233D02*
X110756177Y-96407233D01*
X110756177Y-96917773D02*
X110756177Y-96638373D01*
X110756177Y-96638373D02*
X109714777Y-96638373D01*
X109714777Y-96638373D02*
X109714777Y-96917773D01*
X109714777Y-96917773D02*
X110756177Y-96917773D01*
X110756177Y-97400373D02*
X110756177Y-97146373D01*
X110756177Y-97146373D02*
X109714777Y-97146373D01*
X109714777Y-97146373D02*
X109714777Y-97400373D01*
X109714777Y-97400373D02*
X110756177Y-97400373D01*
X110756177Y-97908373D02*
X110756177Y-97628973D01*
X110756177Y-97628973D02*
X109714777Y-97628973D01*
X109714777Y-97628973D02*
X109714777Y-97908373D01*
X109714777Y-97908373D02*
X110756177Y-97908373D01*
X110756177Y-98416373D02*
X110756177Y-98136973D01*
X110756177Y-98136973D02*
X109714777Y-98136973D01*
X109714777Y-98136973D02*
X109714777Y-98416373D01*
X109714777Y-98416373D02*
X110756177Y-98416373D01*
X110756177Y-98898973D02*
X110756177Y-98644973D01*
X110756177Y-98644973D02*
X109714777Y-98644973D01*
X109714777Y-98644973D02*
X109714777Y-98898973D01*
X109714777Y-98898973D02*
X110756177Y-98898973D01*
X112178577Y-100067373D02*
X111924577Y-100067373D01*
X111924577Y-100067373D02*
X111924577Y-101108773D01*
X111924577Y-101108773D02*
X112178577Y-101108773D01*
X112178577Y-101108773D02*
X112178577Y-100067373D01*
X112686577Y-100067373D02*
X112407177Y-100067373D01*
X112407177Y-100067373D02*
X112407177Y-101108773D01*
X112407177Y-101108773D02*
X112686577Y-101108773D01*
X112686577Y-101108773D02*
X112686577Y-100067373D01*
X113194577Y-100067373D02*
X112915177Y-100067373D01*
X112915177Y-100067373D02*
X112915177Y-101108773D01*
X112915177Y-101108773D02*
X113194577Y-101108773D01*
X113194577Y-101108773D02*
X113194577Y-100067373D01*
X113677177Y-100067373D02*
X113423177Y-100067373D01*
X113423177Y-100067373D02*
X113423177Y-101108773D01*
X113423177Y-101108773D02*
X113677177Y-101108773D01*
X113677177Y-101108773D02*
X113677177Y-100067373D01*
X114185177Y-100067373D02*
X113905777Y-100067373D01*
X113905777Y-100067373D02*
X113905777Y-101108773D01*
X113905777Y-101108773D02*
X114185177Y-101108773D01*
X114185177Y-101108773D02*
X114185177Y-100067373D01*
X114693177Y-100067373D02*
X114416317Y-100067373D01*
X114416317Y-100067373D02*
X114416317Y-101108773D01*
X114416317Y-101108773D02*
X114693177Y-101108773D01*
X114693177Y-101108773D02*
X114693177Y-100067373D01*
X115175777Y-100067373D02*
X114921777Y-100067373D01*
X114921777Y-100067373D02*
X114921777Y-101108773D01*
X114921777Y-101108773D02*
X115175777Y-101108773D01*
X115175777Y-101108773D02*
X115175777Y-100067373D01*
X115683777Y-100067373D02*
X115429777Y-100067373D01*
X115429777Y-100067373D02*
X115429777Y-101108773D01*
X115429777Y-101108773D02*
X115683777Y-101108773D01*
X115683777Y-101108773D02*
X115683777Y-100067373D01*
X116191777Y-100067373D02*
X115912377Y-100067373D01*
X115912377Y-100067373D02*
X115912377Y-101108773D01*
X115912377Y-101108773D02*
X116191777Y-101108773D01*
X116191777Y-101108773D02*
X116191777Y-100067373D01*
X116699777Y-100067373D02*
X116420377Y-100067373D01*
X116420377Y-100067373D02*
X116420377Y-101108773D01*
X116420377Y-101108773D02*
X116699777Y-101108773D01*
X116699777Y-101108773D02*
X116699777Y-100067373D01*
X117182377Y-100067373D02*
X116928377Y-100067373D01*
X116928377Y-100067373D02*
X116928377Y-101108773D01*
X116928377Y-101108773D02*
X117182377Y-101108773D01*
X117182377Y-101108773D02*
X117182377Y-100067373D01*
X117690377Y-100067373D02*
X117410977Y-100067373D01*
X117410977Y-100067373D02*
X117410977Y-101108773D01*
X117410977Y-101108773D02*
X117690377Y-101108773D01*
X117690377Y-101108773D02*
X117690377Y-100067373D01*
X118198377Y-100067373D02*
X117918977Y-100067373D01*
X117918977Y-100067373D02*
X117918977Y-101108773D01*
X117918977Y-101108773D02*
X118198377Y-101108773D01*
X118198377Y-101108773D02*
X118198377Y-100067373D01*
X118680977Y-100067373D02*
X118426977Y-100067373D01*
X118426977Y-100067373D02*
X118426977Y-101108773D01*
X118426977Y-101108773D02*
X118680977Y-101108773D01*
X118680977Y-101108773D02*
X118680977Y-100067373D01*
X119188977Y-100067373D02*
X118909577Y-100067373D01*
X118909577Y-100067373D02*
X118909577Y-101108773D01*
X118909577Y-101108773D02*
X119188977Y-101108773D01*
X119188977Y-101108773D02*
X119188977Y-100067373D01*
X119696977Y-100067373D02*
X119417577Y-100067373D01*
X119417577Y-100067373D02*
X119417577Y-101108773D01*
X119417577Y-101108773D02*
X119696977Y-101108773D01*
X119696977Y-101108773D02*
X119696977Y-100067373D01*
X120179577Y-100067373D02*
X119925577Y-100067373D01*
X119925577Y-100067373D02*
X119925577Y-101108773D01*
X119925577Y-101108773D02*
X120179577Y-101108773D01*
X120179577Y-101108773D02*
X120179577Y-100067373D01*
X120687577Y-100067373D02*
X120410717Y-100067373D01*
X120410717Y-100067373D02*
X120410717Y-101108773D01*
X120410717Y-101108773D02*
X120687577Y-101108773D01*
X120687577Y-101108773D02*
X120687577Y-100067373D01*
X121198117Y-100067373D02*
X120916177Y-100067373D01*
X120916177Y-100067373D02*
X120916177Y-101108773D01*
X120916177Y-101108773D02*
X121198117Y-101108773D01*
X121198117Y-101108773D02*
X121198117Y-100067373D01*
X121678177Y-100067373D02*
X121424177Y-100067373D01*
X121424177Y-100067373D02*
X121424177Y-101108773D01*
X121424177Y-101108773D02*
X121678177Y-101108773D01*
X121678177Y-101108773D02*
X121678177Y-100067373D01*
X122186177Y-100067373D02*
X121906777Y-100067373D01*
X121906777Y-100067373D02*
X121906777Y-101108773D01*
X121906777Y-101108773D02*
X122186177Y-101108773D01*
X122186177Y-101108773D02*
X122186177Y-100067373D01*
X122694177Y-100067373D02*
X122414777Y-100067373D01*
X122414777Y-100067373D02*
X122414777Y-101108773D01*
X122414777Y-101108773D02*
X122694177Y-101108773D01*
X122694177Y-101108773D02*
X122694177Y-100067373D01*
X123176777Y-100067373D02*
X122922777Y-100067373D01*
X122922777Y-100067373D02*
X122922777Y-101108773D01*
X122922777Y-101108773D02*
X123176777Y-101108773D01*
X123176777Y-101108773D02*
X123176777Y-100067373D01*
X123684777Y-100067373D02*
X123405377Y-100067373D01*
X123405377Y-100067373D02*
X123405377Y-101108773D01*
X123405377Y-101108773D02*
X123684777Y-101108773D01*
X123684777Y-101108773D02*
X123684777Y-100067373D01*
X124192777Y-100067373D02*
X123913377Y-100067373D01*
X123913377Y-100067373D02*
X123913377Y-101108773D01*
X123913377Y-101108773D02*
X124192777Y-101108773D01*
X124192777Y-101108773D02*
X124192777Y-100067373D01*
X124675377Y-100067373D02*
X124421377Y-100067373D01*
X124421377Y-100067373D02*
X124421377Y-101108773D01*
X124421377Y-101108773D02*
X124675377Y-101108773D01*
X124675377Y-101108773D02*
X124675377Y-100067373D01*
X125183377Y-100067373D02*
X124929377Y-100067373D01*
X124929377Y-100067373D02*
X124929377Y-101108773D01*
X124929377Y-101108773D02*
X125183377Y-101108773D01*
X125183377Y-101108773D02*
X125183377Y-100067373D01*
X125691377Y-100067373D02*
X125411977Y-100067373D01*
X125411977Y-100067373D02*
X125411977Y-101108773D01*
X125411977Y-101108773D02*
X125691377Y-101108773D01*
X125691377Y-101108773D02*
X125691377Y-100067373D01*
X126199377Y-100067373D02*
X125919977Y-100067373D01*
X125919977Y-100067373D02*
X125919977Y-101108773D01*
X125919977Y-101108773D02*
X126199377Y-101108773D01*
X126199377Y-101108773D02*
X126199377Y-100067373D01*
X126681977Y-100067373D02*
X126427977Y-100067373D01*
X126427977Y-100067373D02*
X126427977Y-101108773D01*
X126427977Y-101108773D02*
X126681977Y-101108773D01*
X126681977Y-101108773D02*
X126681977Y-100067373D01*
X127189977Y-100067373D02*
X126910577Y-100067373D01*
X126910577Y-100067373D02*
X126910577Y-101108773D01*
X126910577Y-101108773D02*
X127189977Y-101108773D01*
X127189977Y-101108773D02*
X127189977Y-100067373D01*
X127697977Y-100067373D02*
X127418577Y-100067373D01*
X127418577Y-100067373D02*
X127418577Y-101108773D01*
X127418577Y-101108773D02*
X127697977Y-101108773D01*
X127697977Y-101108773D02*
X127697977Y-100067373D01*
X128180577Y-100067373D02*
X127926577Y-100067373D01*
X127926577Y-100067373D02*
X127926577Y-101108773D01*
X127926577Y-101108773D02*
X128180577Y-101108773D01*
X128180577Y-101108773D02*
X128180577Y-100067373D01*
X128688577Y-100067373D02*
X128406637Y-100067373D01*
X128406637Y-100067373D02*
X128406637Y-101108773D01*
X128406637Y-101108773D02*
X128688577Y-101108773D01*
X128688577Y-101108773D02*
X128688577Y-100067373D01*
X129194037Y-100067373D02*
X128917177Y-100067373D01*
X128917177Y-100067373D02*
X128917177Y-101108773D01*
X128917177Y-101108773D02*
X129194037Y-101108773D01*
X129194037Y-101108773D02*
X129194037Y-100067373D01*
X129679177Y-100067373D02*
X129425177Y-100067373D01*
X129425177Y-100067373D02*
X129425177Y-101108773D01*
X129425177Y-101108773D02*
X129679177Y-101108773D01*
X129679177Y-101108773D02*
X129679177Y-100067373D01*
X130187177Y-100067373D02*
X129907777Y-100067373D01*
X129907777Y-100067373D02*
X129907777Y-101108773D01*
X129907777Y-101108773D02*
X130187177Y-101108773D01*
X130187177Y-101108773D02*
X130187177Y-100067373D01*
X130695177Y-100067373D02*
X130415777Y-100067373D01*
X130415777Y-100067373D02*
X130415777Y-101108773D01*
X130415777Y-101108773D02*
X130695177Y-101108773D01*
X130695177Y-101108773D02*
X130695177Y-100067373D01*
X131177777Y-100067373D02*
X130923777Y-100067373D01*
X130923777Y-100067373D02*
X130923777Y-101108773D01*
X130923777Y-101108773D02*
X131177777Y-101108773D01*
X131177777Y-101108773D02*
X131177777Y-100067373D01*
X131685777Y-100067373D02*
X131406377Y-100067373D01*
X131406377Y-100067373D02*
X131406377Y-101108773D01*
X131406377Y-101108773D02*
X131685777Y-101108773D01*
X131685777Y-101108773D02*
X131685777Y-100067373D01*
X132193777Y-100067373D02*
X131914377Y-100067373D01*
X131914377Y-100067373D02*
X131914377Y-101108773D01*
X131914377Y-101108773D02*
X132193777Y-101108773D01*
X132193777Y-101108773D02*
X132193777Y-100067373D01*
X132676377Y-100067373D02*
X132422377Y-100067373D01*
X132422377Y-100067373D02*
X132422377Y-101108773D01*
X132422377Y-101108773D02*
X132676377Y-101108773D01*
X132676377Y-101108773D02*
X132676377Y-100067373D01*
X133184377Y-100067373D02*
X132904977Y-100067373D01*
X132904977Y-100067373D02*
X132904977Y-101108773D01*
X132904977Y-101108773D02*
X133184377Y-101108773D01*
X133184377Y-101108773D02*
X133184377Y-100067373D01*
X133692377Y-100067373D02*
X133412977Y-100067373D01*
X133412977Y-100067373D02*
X133412977Y-101108773D01*
X133412977Y-101108773D02*
X133692377Y-101108773D01*
X133692377Y-101108773D02*
X133692377Y-100067373D01*
X134174977Y-100067373D02*
X133920977Y-100067373D01*
X133920977Y-100067373D02*
X133920977Y-101108773D01*
X133920977Y-101108773D02*
X134174977Y-101108773D01*
X134174977Y-101108773D02*
X134174977Y-100067373D01*
X134682977Y-100067373D02*
X134428977Y-100067373D01*
X134428977Y-100067373D02*
X134428977Y-101108773D01*
X134428977Y-101108773D02*
X134682977Y-101108773D01*
X134682977Y-101108773D02*
X134682977Y-100067373D01*
X135188437Y-100067373D02*
X134911577Y-100067373D01*
X134911577Y-100067373D02*
X134911577Y-101108773D01*
X134911577Y-101108773D02*
X135188437Y-101108773D01*
X135188437Y-101108773D02*
X135188437Y-100067373D01*
X135698977Y-100067373D02*
X135419577Y-100067373D01*
X135419577Y-100067373D02*
X135419577Y-101108773D01*
X135419577Y-101108773D02*
X135698977Y-101108773D01*
X135698977Y-101108773D02*
X135698977Y-100067373D01*
X136181577Y-100067373D02*
X135927577Y-100067373D01*
X135927577Y-100067373D02*
X135927577Y-101108773D01*
X135927577Y-101108773D02*
X136181577Y-101108773D01*
X136181577Y-101108773D02*
X136181577Y-100067373D01*
X136689577Y-100067373D02*
X136410177Y-100067373D01*
X136410177Y-100067373D02*
X136410177Y-101108773D01*
X136410177Y-101108773D02*
X136689577Y-101108773D01*
X136689577Y-101108773D02*
X136689577Y-100067373D01*
X137197577Y-100067373D02*
X136918177Y-100067373D01*
X136918177Y-100067373D02*
X136918177Y-101108773D01*
X136918177Y-101108773D02*
X137197577Y-101108773D01*
X137197577Y-101108773D02*
X137197577Y-100067373D01*
X137680177Y-100067373D02*
X137426177Y-100067373D01*
X137426177Y-100067373D02*
X137426177Y-101108773D01*
X137426177Y-101108773D02*
X137680177Y-101108773D01*
X137680177Y-101108773D02*
X137680177Y-100067373D01*
X138848577Y-98644973D02*
X138848577Y-98898973D01*
X138848577Y-98898973D02*
X139889977Y-98898973D01*
X139889977Y-98898973D02*
X139889977Y-98644973D01*
X139889977Y-98644973D02*
X138848577Y-98644973D01*
X138848577Y-98136973D02*
X138848577Y-98416373D01*
X138848577Y-98416373D02*
X139889977Y-98416373D01*
X139889977Y-98416373D02*
X139889977Y-98136973D01*
X139889977Y-98136973D02*
X138848577Y-98136973D01*
X138848577Y-97628973D02*
X138848577Y-97908373D01*
X138848577Y-97908373D02*
X139889977Y-97908373D01*
X139889977Y-97908373D02*
X139889977Y-97628973D01*
X139889977Y-97628973D02*
X138848577Y-97628973D01*
X138848577Y-97146373D02*
X138848577Y-97400373D01*
X138848577Y-97400373D02*
X139889977Y-97400373D01*
X139889977Y-97400373D02*
X139889977Y-97146373D01*
X139889977Y-97146373D02*
X138848577Y-97146373D01*
X138848577Y-96638373D02*
X138848577Y-96917773D01*
X138848577Y-96917773D02*
X139889977Y-96917773D01*
X139889977Y-96917773D02*
X139889977Y-96638373D01*
X139889977Y-96638373D02*
X138848577Y-96638373D01*
X138848577Y-96130373D02*
X138848577Y-96407233D01*
X138848577Y-96407233D02*
X139889977Y-96407233D01*
X139889977Y-96407233D02*
X139889977Y-96130373D01*
X139889977Y-96130373D02*
X138848577Y-96130373D01*
X138848577Y-95647773D02*
X138848577Y-95901773D01*
X138848577Y-95901773D02*
X139889977Y-95901773D01*
X139889977Y-95901773D02*
X139889977Y-95647773D01*
X139889977Y-95647773D02*
X138848577Y-95647773D01*
X138848577Y-95139773D02*
X138848577Y-95393773D01*
X138848577Y-95393773D02*
X139889977Y-95393773D01*
X139889977Y-95393773D02*
X139889977Y-95139773D01*
X139889977Y-95139773D02*
X138848577Y-95139773D01*
X138848577Y-94631773D02*
X138848577Y-94911173D01*
X138848577Y-94911173D02*
X139889977Y-94911173D01*
X139889977Y-94911173D02*
X139889977Y-94631773D01*
X139889977Y-94631773D02*
X138848577Y-94631773D01*
X138848577Y-94123773D02*
X138848577Y-94403173D01*
X138848577Y-94403173D02*
X139889977Y-94403173D01*
X139889977Y-94403173D02*
X139889977Y-94123773D01*
X139889977Y-94123773D02*
X138848577Y-94123773D01*
X138848577Y-93641173D02*
X138848577Y-93895173D01*
X138848577Y-93895173D02*
X139889977Y-93895173D01*
X139889977Y-93895173D02*
X139889977Y-93641173D01*
X139889977Y-93641173D02*
X138848577Y-93641173D01*
X138848577Y-93133173D02*
X138848577Y-93412573D01*
X138848577Y-93412573D02*
X139889977Y-93412573D01*
X139889977Y-93412573D02*
X139889977Y-93133173D01*
X139889977Y-93133173D02*
X138848577Y-93133173D01*
X138848577Y-92625173D02*
X138848577Y-92904573D01*
X138848577Y-92904573D02*
X139889977Y-92904573D01*
X139889977Y-92904573D02*
X139889977Y-92625173D01*
X139889977Y-92625173D02*
X138848577Y-92625173D01*
X138848577Y-92142573D02*
X138848577Y-92396573D01*
X138848577Y-92396573D02*
X139889977Y-92396573D01*
X139889977Y-92396573D02*
X139889977Y-92142573D01*
X139889977Y-92142573D02*
X138848577Y-92142573D01*
X138848577Y-91634573D02*
X138848577Y-91913973D01*
X138848577Y-91913973D02*
X139889977Y-91913973D01*
X139889977Y-91913973D02*
X139889977Y-91634573D01*
X139889977Y-91634573D02*
X138848577Y-91634573D01*
X138848577Y-91126573D02*
X138848577Y-91405973D01*
X138848577Y-91405973D02*
X139889977Y-91405973D01*
X139889977Y-91405973D02*
X139889977Y-91126573D01*
X139889977Y-91126573D02*
X138848577Y-91126573D01*
X138848577Y-90643973D02*
X138848577Y-90897973D01*
X138848577Y-90897973D02*
X139889977Y-90897973D01*
X139889977Y-90897973D02*
X139889977Y-90643973D01*
X139889977Y-90643973D02*
X138848577Y-90643973D01*
X138848577Y-90135973D02*
X138848577Y-90412833D01*
X138848577Y-90412833D02*
X139889977Y-90412833D01*
X139889977Y-90412833D02*
X139889977Y-90135973D01*
X139889977Y-90135973D02*
X138848577Y-90135973D01*
X138848577Y-89625433D02*
X138848577Y-89907373D01*
X138848577Y-89907373D02*
X139889977Y-89907373D01*
X139889977Y-89907373D02*
X139889977Y-89625433D01*
X139889977Y-89625433D02*
X138848577Y-89625433D01*
X138848577Y-89145373D02*
X138848577Y-89399373D01*
X138848577Y-89399373D02*
X139889977Y-89399373D01*
X139889977Y-89399373D02*
X139889977Y-89145373D01*
X139889977Y-89145373D02*
X138848577Y-89145373D01*
X138848577Y-88637373D02*
X138848577Y-88916773D01*
X138848577Y-88916773D02*
X139889977Y-88916773D01*
X139889977Y-88916773D02*
X139889977Y-88637373D01*
X139889977Y-88637373D02*
X138848577Y-88637373D01*
X138848577Y-88129373D02*
X138848577Y-88408773D01*
X138848577Y-88408773D02*
X139889977Y-88408773D01*
X139889977Y-88408773D02*
X139889977Y-88129373D01*
X139889977Y-88129373D02*
X138848577Y-88129373D01*
X138848577Y-87646773D02*
X138848577Y-87900773D01*
X138848577Y-87900773D02*
X139889977Y-87900773D01*
X139889977Y-87900773D02*
X139889977Y-87646773D01*
X139889977Y-87646773D02*
X138848577Y-87646773D01*
X138848577Y-87138773D02*
X138848577Y-87418173D01*
X138848577Y-87418173D02*
X139889977Y-87418173D01*
X139889977Y-87418173D02*
X139889977Y-87138773D01*
X139889977Y-87138773D02*
X138848577Y-87138773D01*
X138848577Y-86630773D02*
X138848577Y-86910173D01*
X138848577Y-86910173D02*
X139889977Y-86910173D01*
X139889977Y-86910173D02*
X139889977Y-86630773D01*
X139889977Y-86630773D02*
X138848577Y-86630773D01*
X138848577Y-86148173D02*
X138848577Y-86402173D01*
X138848577Y-86402173D02*
X139889977Y-86402173D01*
X139889977Y-86402173D02*
X139889977Y-86148173D01*
X139889977Y-86148173D02*
X138848577Y-86148173D01*
X138848577Y-85640173D02*
X138848577Y-85894173D01*
X138848577Y-85894173D02*
X139889977Y-85894173D01*
X139889977Y-85894173D02*
X139889977Y-85640173D01*
X139889977Y-85640173D02*
X138848577Y-85640173D01*
X138848577Y-85132173D02*
X138848577Y-85411573D01*
X138848577Y-85411573D02*
X139889977Y-85411573D01*
X139889977Y-85411573D02*
X139889977Y-85132173D01*
X139889977Y-85132173D02*
X138848577Y-85132173D01*
X138848577Y-84624173D02*
X138848577Y-84903573D01*
X138848577Y-84903573D02*
X139889977Y-84903573D01*
X139889977Y-84903573D02*
X139889977Y-84624173D01*
X139889977Y-84624173D02*
X138848577Y-84624173D01*
X138848577Y-84141573D02*
X138848577Y-84395573D01*
X138848577Y-84395573D02*
X139889977Y-84395573D01*
X139889977Y-84395573D02*
X139889977Y-84141573D01*
X139889977Y-84141573D02*
X138848577Y-84141573D01*
X138848577Y-83633573D02*
X138848577Y-83912973D01*
X138848577Y-83912973D02*
X139889977Y-83912973D01*
X139889977Y-83912973D02*
X139889977Y-83633573D01*
X139889977Y-83633573D02*
X138848577Y-83633573D01*
X138848577Y-83125573D02*
X138848577Y-83404973D01*
X138848577Y-83404973D02*
X139889977Y-83404973D01*
X139889977Y-83404973D02*
X139889977Y-83125573D01*
X139889977Y-83125573D02*
X138848577Y-83125573D01*
X138848577Y-82642973D02*
X138848577Y-82896973D01*
X138848577Y-82896973D02*
X139889977Y-82896973D01*
X139889977Y-82896973D02*
X139889977Y-82642973D01*
X139889977Y-82642973D02*
X138848577Y-82642973D01*
X138848577Y-82134973D02*
X138848577Y-82416913D01*
X138848577Y-82416913D02*
X139889977Y-82416913D01*
X139889977Y-82416913D02*
X139889977Y-82134973D01*
X139889977Y-82134973D02*
X138848577Y-82134973D01*
X138848577Y-81629513D02*
X138848577Y-81906373D01*
X138848577Y-81906373D02*
X139889977Y-81906373D01*
X139889977Y-81906373D02*
X139889977Y-81629513D01*
X139889977Y-81629513D02*
X138848577Y-81629513D01*
X138848577Y-81144373D02*
X138848577Y-81398373D01*
X138848577Y-81398373D02*
X139889977Y-81398373D01*
X139889977Y-81398373D02*
X139889977Y-81144373D01*
X139889977Y-81144373D02*
X138848577Y-81144373D01*
X138848577Y-80636373D02*
X138848577Y-80915773D01*
X138848577Y-80915773D02*
X139889977Y-80915773D01*
X139889977Y-80915773D02*
X139889977Y-80636373D01*
X139889977Y-80636373D02*
X138848577Y-80636373D01*
X138848577Y-80128373D02*
X138848577Y-80407773D01*
X138848577Y-80407773D02*
X139889977Y-80407773D01*
X139889977Y-80407773D02*
X139889977Y-80128373D01*
X139889977Y-80128373D02*
X138848577Y-80128373D01*
X138848577Y-79645773D02*
X138848577Y-79899773D01*
X138848577Y-79899773D02*
X139889977Y-79899773D01*
X139889977Y-79899773D02*
X139889977Y-79645773D01*
X139889977Y-79645773D02*
X138848577Y-79645773D01*
X138848577Y-79137773D02*
X138848577Y-79417173D01*
X138848577Y-79417173D02*
X139889977Y-79417173D01*
X139889977Y-79417173D02*
X139889977Y-79137773D01*
X139889977Y-79137773D02*
X138848577Y-79137773D01*
X138848577Y-78629773D02*
X138848577Y-78909173D01*
X138848577Y-78909173D02*
X139889977Y-78909173D01*
X139889977Y-78909173D02*
X139889977Y-78629773D01*
X139889977Y-78629773D02*
X138848577Y-78629773D01*
X138848577Y-78147173D02*
X138848577Y-78401173D01*
X138848577Y-78401173D02*
X139889977Y-78401173D01*
X139889977Y-78401173D02*
X139889977Y-78147173D01*
X139889977Y-78147173D02*
X138848577Y-78147173D01*
X138848577Y-77639173D02*
X138848577Y-77918573D01*
X138848577Y-77918573D02*
X139889977Y-77918573D01*
X139889977Y-77918573D02*
X139889977Y-77639173D01*
X139889977Y-77639173D02*
X138848577Y-77639173D01*
X138848577Y-77131173D02*
X138848577Y-77410573D01*
X138848577Y-77410573D02*
X139889977Y-77410573D01*
X139889977Y-77410573D02*
X139889977Y-77131173D01*
X139889977Y-77131173D02*
X138848577Y-77131173D01*
X138848577Y-76648573D02*
X138848577Y-76902573D01*
X138848577Y-76902573D02*
X139889977Y-76902573D01*
X139889977Y-76902573D02*
X139889977Y-76648573D01*
X139889977Y-76648573D02*
X138848577Y-76648573D01*
X138848577Y-76140573D02*
X138848577Y-76394573D01*
X138848577Y-76394573D02*
X139889977Y-76394573D01*
X139889977Y-76394573D02*
X139889977Y-76140573D01*
X139889977Y-76140573D02*
X138848577Y-76140573D01*
X138848577Y-75635113D02*
X138848577Y-75911973D01*
X138848577Y-75911973D02*
X139889977Y-75911973D01*
X139889977Y-75911973D02*
X139889977Y-75635113D01*
X139889977Y-75635113D02*
X138848577Y-75635113D01*
X138848577Y-75124573D02*
X138848577Y-75403973D01*
X138848577Y-75403973D02*
X139889977Y-75403973D01*
X139889977Y-75403973D02*
X139889977Y-75124573D01*
X139889977Y-75124573D02*
X138848577Y-75124573D01*
X138848577Y-74641973D02*
X138848577Y-74895973D01*
X138848577Y-74895973D02*
X139889977Y-74895973D01*
X139889977Y-74895973D02*
X139889977Y-74641973D01*
X139889977Y-74641973D02*
X138848577Y-74641973D01*
X138848577Y-74133973D02*
X138848577Y-74413373D01*
X138848577Y-74413373D02*
X139889977Y-74413373D01*
X139889977Y-74413373D02*
X139889977Y-74133973D01*
X139889977Y-74133973D02*
X138848577Y-74133973D01*
X138848577Y-73625973D02*
X138848577Y-73905373D01*
X138848577Y-73905373D02*
X139889977Y-73905373D01*
X139889977Y-73905373D02*
X139889977Y-73625973D01*
X139889977Y-73625973D02*
X138848577Y-73625973D01*
X138848577Y-73143373D02*
X138848577Y-73397373D01*
X138848577Y-73397373D02*
X139889977Y-73397373D01*
X139889977Y-73397373D02*
X139889977Y-73143373D01*
X139889977Y-73143373D02*
X138848577Y-73143373D01*
X137426177Y-71974973D02*
X137680177Y-71974973D01*
X137680177Y-71974973D02*
X137680177Y-70933573D01*
X137680177Y-70933573D02*
X137426177Y-70933573D01*
X137426177Y-70933573D02*
X137426177Y-71974973D01*
X136918177Y-71974973D02*
X137197577Y-71974973D01*
X137197577Y-71974973D02*
X137197577Y-70933573D01*
X137197577Y-70933573D02*
X136918177Y-70933573D01*
X136918177Y-70933573D02*
X136918177Y-71974973D01*
X136410177Y-71974973D02*
X136689577Y-71974973D01*
X136689577Y-71974973D02*
X136689577Y-70933573D01*
X136689577Y-70933573D02*
X136410177Y-70933573D01*
X136410177Y-70933573D02*
X136410177Y-71974973D01*
X135927577Y-71974973D02*
X136181577Y-71974973D01*
X136181577Y-71974973D02*
X136181577Y-70933573D01*
X136181577Y-70933573D02*
X135927577Y-70933573D01*
X135927577Y-70933573D02*
X135927577Y-71974973D01*
X135419577Y-71974973D02*
X135698977Y-71974973D01*
X135698977Y-71974973D02*
X135698977Y-70933573D01*
X135698977Y-70933573D02*
X135419577Y-70933573D01*
X135419577Y-70933573D02*
X135419577Y-71974973D01*
X134911577Y-71974973D02*
X135188437Y-71974973D01*
X135188437Y-71974973D02*
X135188437Y-70933573D01*
X135188437Y-70933573D02*
X134911577Y-70933573D01*
X134911577Y-70933573D02*
X134911577Y-71974973D01*
X134428977Y-71974973D02*
X134682977Y-71974973D01*
X134682977Y-71974973D02*
X134682977Y-70933573D01*
X134682977Y-70933573D02*
X134428977Y-70933573D01*
X134428977Y-70933573D02*
X134428977Y-71974973D01*
X133920977Y-71974973D02*
X134174977Y-71974973D01*
X134174977Y-71974973D02*
X134174977Y-70933573D01*
X134174977Y-70933573D02*
X133920977Y-70933573D01*
X133920977Y-70933573D02*
X133920977Y-71974973D01*
X133412977Y-71974973D02*
X133692377Y-71974973D01*
X133692377Y-71974973D02*
X133692377Y-70933573D01*
X133692377Y-70933573D02*
X133412977Y-70933573D01*
X133412977Y-70933573D02*
X133412977Y-71974973D01*
X132904977Y-71974973D02*
X133184377Y-71974973D01*
X133184377Y-71974973D02*
X133184377Y-70933573D01*
X133184377Y-70933573D02*
X132904977Y-70933573D01*
X132904977Y-70933573D02*
X132904977Y-71974973D01*
X132422377Y-71974973D02*
X132676377Y-71974973D01*
X132676377Y-71974973D02*
X132676377Y-70933573D01*
X132676377Y-70933573D02*
X132422377Y-70933573D01*
X132422377Y-70933573D02*
X132422377Y-71974973D01*
X131914377Y-71974973D02*
X132193777Y-71974973D01*
X132193777Y-71974973D02*
X132193777Y-70933573D01*
X132193777Y-70933573D02*
X131914377Y-70933573D01*
X131914377Y-70933573D02*
X131914377Y-71974973D01*
X131406377Y-71974973D02*
X131685777Y-71974973D01*
X131685777Y-71974973D02*
X131685777Y-70933573D01*
X131685777Y-70933573D02*
X131406377Y-70933573D01*
X131406377Y-70933573D02*
X131406377Y-71974973D01*
X130923777Y-71974973D02*
X131177777Y-71974973D01*
X131177777Y-71974973D02*
X131177777Y-70933573D01*
X131177777Y-70933573D02*
X130923777Y-70933573D01*
X130923777Y-70933573D02*
X130923777Y-71974973D01*
X130415777Y-71974973D02*
X130695177Y-71974973D01*
X130695177Y-71974973D02*
X130695177Y-70933573D01*
X130695177Y-70933573D02*
X130415777Y-70933573D01*
X130415777Y-70933573D02*
X130415777Y-71974973D01*
X129907777Y-71974973D02*
X130187177Y-71974973D01*
X130187177Y-71974973D02*
X130187177Y-70933573D01*
X130187177Y-70933573D02*
X129907777Y-70933573D01*
X129907777Y-70933573D02*
X129907777Y-71974973D01*
X129425177Y-71974973D02*
X129679177Y-71974973D01*
X129679177Y-71974973D02*
X129679177Y-70933573D01*
X129679177Y-70933573D02*
X129425177Y-70933573D01*
X129425177Y-70933573D02*
X129425177Y-71974973D01*
X128917177Y-71974973D02*
X129194037Y-71974973D01*
X129194037Y-71974973D02*
X129194037Y-70933573D01*
X129194037Y-70933573D02*
X128917177Y-70933573D01*
X128917177Y-70933573D02*
X128917177Y-71974973D01*
X128406637Y-71974973D02*
X128688577Y-71974973D01*
X128688577Y-71974973D02*
X128688577Y-70933573D01*
X128688577Y-70933573D02*
X128406637Y-70933573D01*
X128406637Y-70933573D02*
X128406637Y-71974973D01*
X127926577Y-71974973D02*
X128180577Y-71974973D01*
X128180577Y-71974973D02*
X128180577Y-70933573D01*
X128180577Y-70933573D02*
X127926577Y-70933573D01*
X127926577Y-70933573D02*
X127926577Y-71974973D01*
X127418577Y-71974973D02*
X127697977Y-71974973D01*
X127697977Y-71974973D02*
X127697977Y-70933573D01*
X127697977Y-70933573D02*
X127418577Y-70933573D01*
X127418577Y-70933573D02*
X127418577Y-71974973D01*
X126910577Y-71974973D02*
X127189977Y-71974973D01*
X127189977Y-71974973D02*
X127189977Y-70933573D01*
X127189977Y-70933573D02*
X126910577Y-70933573D01*
X126910577Y-70933573D02*
X126910577Y-71974973D01*
X126427977Y-71974973D02*
X126681977Y-71974973D01*
X126681977Y-71974973D02*
X126681977Y-70933573D01*
X126681977Y-70933573D02*
X126427977Y-70933573D01*
X126427977Y-70933573D02*
X126427977Y-71974973D01*
X125919977Y-71974973D02*
X126199377Y-71974973D01*
X126199377Y-71974973D02*
X126199377Y-70933573D01*
X126199377Y-70933573D02*
X125919977Y-70933573D01*
X125919977Y-70933573D02*
X125919977Y-71974973D01*
X125411977Y-71974973D02*
X125691377Y-71974973D01*
X125691377Y-71974973D02*
X125691377Y-70933573D01*
X125691377Y-70933573D02*
X125411977Y-70933573D01*
X125411977Y-70933573D02*
X125411977Y-71974973D01*
X124929377Y-71974973D02*
X125183377Y-71974973D01*
X125183377Y-71974973D02*
X125183377Y-70933573D01*
X125183377Y-70933573D02*
X124929377Y-70933573D01*
X124929377Y-70933573D02*
X124929377Y-71974973D01*
X124421377Y-71974973D02*
X124675377Y-71974973D01*
X124675377Y-71974973D02*
X124675377Y-70933573D01*
X124675377Y-70933573D02*
X124421377Y-70933573D01*
X124421377Y-70933573D02*
X124421377Y-71974973D01*
X123913377Y-71974973D02*
X124192777Y-71974973D01*
X124192777Y-71974973D02*
X124192777Y-70933573D01*
X124192777Y-70933573D02*
X123913377Y-70933573D01*
X123913377Y-70933573D02*
X123913377Y-71974973D01*
X123405377Y-71974973D02*
X123684777Y-71974973D01*
X123684777Y-71974973D02*
X123684777Y-70933573D01*
X123684777Y-70933573D02*
X123405377Y-70933573D01*
X123405377Y-70933573D02*
X123405377Y-71974973D01*
X122922777Y-71974973D02*
X123176777Y-71974973D01*
X123176777Y-71974973D02*
X123176777Y-70933573D01*
X123176777Y-70933573D02*
X122922777Y-70933573D01*
X122922777Y-70933573D02*
X122922777Y-71974973D01*
X122414777Y-71974973D02*
X122694177Y-71974973D01*
X122694177Y-71974973D02*
X122694177Y-70933573D01*
X122694177Y-70933573D02*
X122414777Y-70933573D01*
X122414777Y-70933573D02*
X122414777Y-71974973D01*
X121906777Y-71974973D02*
X122186177Y-71974973D01*
X122186177Y-71974973D02*
X122186177Y-70933573D01*
X122186177Y-70933573D02*
X121906777Y-70933573D01*
X121906777Y-70933573D02*
X121906777Y-71974973D01*
X121424177Y-71974973D02*
X121678177Y-71974973D01*
X121678177Y-71974973D02*
X121678177Y-70933573D01*
X121678177Y-70933573D02*
X121424177Y-70933573D01*
X121424177Y-70933573D02*
X121424177Y-71974973D01*
X120916177Y-71974973D02*
X121198117Y-71974973D01*
X121198117Y-71974973D02*
X121198117Y-70933573D01*
X121198117Y-70933573D02*
X120916177Y-70933573D01*
X120916177Y-70933573D02*
X120916177Y-71974973D01*
X120410717Y-71974973D02*
X120687577Y-71974973D01*
X120687577Y-71974973D02*
X120687577Y-70933573D01*
X120687577Y-70933573D02*
X120410717Y-70933573D01*
X120410717Y-70933573D02*
X120410717Y-71974973D01*
X119925577Y-71974973D02*
X120179577Y-71974973D01*
X120179577Y-71974973D02*
X120179577Y-70933573D01*
X120179577Y-70933573D02*
X119925577Y-70933573D01*
X119925577Y-70933573D02*
X119925577Y-71974973D01*
X119417577Y-71974973D02*
X119696977Y-71974973D01*
X119696977Y-71974973D02*
X119696977Y-70933573D01*
X119696977Y-70933573D02*
X119417577Y-70933573D01*
X119417577Y-70933573D02*
X119417577Y-71974973D01*
X118909577Y-71974973D02*
X119188977Y-71974973D01*
X119188977Y-71974973D02*
X119188977Y-70933573D01*
X119188977Y-70933573D02*
X118909577Y-70933573D01*
X118909577Y-70933573D02*
X118909577Y-71974973D01*
X118426977Y-71974973D02*
X118680977Y-71974973D01*
X118680977Y-71974973D02*
X118680977Y-70933573D01*
X118680977Y-70933573D02*
X118426977Y-70933573D01*
X118426977Y-70933573D02*
X118426977Y-71974973D01*
X117918977Y-71974973D02*
X118198377Y-71974973D01*
X118198377Y-71974973D02*
X118198377Y-70933573D01*
X118198377Y-70933573D02*
X117918977Y-70933573D01*
X117918977Y-70933573D02*
X117918977Y-71974973D01*
X117410977Y-71974973D02*
X117690377Y-71974973D01*
X117690377Y-71974973D02*
X117690377Y-70933573D01*
X117690377Y-70933573D02*
X117410977Y-70933573D01*
X117410977Y-70933573D02*
X117410977Y-71974973D01*
X116928377Y-71974973D02*
X117182377Y-71974973D01*
X117182377Y-71974973D02*
X117182377Y-70933573D01*
X117182377Y-70933573D02*
X116928377Y-70933573D01*
X116928377Y-70933573D02*
X116928377Y-71974973D01*
X116420377Y-71974973D02*
X116699777Y-71974973D01*
X116699777Y-71974973D02*
X116699777Y-70933573D01*
X116699777Y-70933573D02*
X116420377Y-70933573D01*
X116420377Y-70933573D02*
X116420377Y-71974973D01*
X115912377Y-71974973D02*
X116191777Y-71974973D01*
X116191777Y-71974973D02*
X116191777Y-70933573D01*
X116191777Y-70933573D02*
X115912377Y-70933573D01*
X115912377Y-70933573D02*
X115912377Y-71974973D01*
X115429777Y-71974973D02*
X115683777Y-71974973D01*
X115683777Y-71974973D02*
X115683777Y-70933573D01*
X115683777Y-70933573D02*
X115429777Y-70933573D01*
X115429777Y-70933573D02*
X115429777Y-71974973D01*
X114921777Y-71974973D02*
X115175777Y-71974973D01*
X115175777Y-71974973D02*
X115175777Y-70933573D01*
X115175777Y-70933573D02*
X114921777Y-70933573D01*
X114921777Y-70933573D02*
X114921777Y-71974973D01*
X114416317Y-71974973D02*
X114693177Y-71974973D01*
X114693177Y-71974973D02*
X114693177Y-70933573D01*
X114693177Y-70933573D02*
X114416317Y-70933573D01*
X114416317Y-70933573D02*
X114416317Y-71974973D01*
X113905777Y-71974973D02*
X114185177Y-71974973D01*
X114185177Y-71974973D02*
X114185177Y-70933573D01*
X114185177Y-70933573D02*
X113905777Y-70933573D01*
X113905777Y-70933573D02*
X113905777Y-71974973D01*
X113423177Y-71974973D02*
X113677177Y-71974973D01*
X113677177Y-71974973D02*
X113677177Y-70933573D01*
X113677177Y-70933573D02*
X113423177Y-70933573D01*
X113423177Y-70933573D02*
X113423177Y-71974973D01*
X112915177Y-71974973D02*
X113194577Y-71974973D01*
X113194577Y-71974973D02*
X113194577Y-70933573D01*
X113194577Y-70933573D02*
X112915177Y-70933573D01*
X112915177Y-70933573D02*
X112915177Y-71974973D01*
X112407177Y-71974973D02*
X112686577Y-71974973D01*
X112686577Y-71974973D02*
X112686577Y-70933573D01*
X112686577Y-70933573D02*
X112407177Y-70933573D01*
X112407177Y-70933573D02*
X112407177Y-71974973D01*
X111924577Y-71974973D02*
X112178577Y-71974973D01*
X112178577Y-71974973D02*
X112178577Y-70933573D01*
X112178577Y-70933573D02*
X111924577Y-70933573D01*
X111924577Y-70933573D02*
X111924577Y-71974973D01*
X138848577Y-100067373D02*
X138848577Y-71974973D01*
X138848577Y-71974973D02*
X110756177Y-71974973D01*
X110756177Y-71974973D02*
X110756177Y-100067373D01*
X110756177Y-100067373D02*
X138848577Y-100067373D01*
D11*
X111086377Y-99737173D02*
X111086377Y-72305173D01*
X111086377Y-72305173D02*
X138518377Y-72305173D01*
X138518377Y-72305173D02*
X138518377Y-99737173D01*
X138518377Y-99737173D02*
X111086377Y-99737173D01*
D14*
X113369824Y-97705173D02*
G75*
G03X113369824Y-97705173I-251447J0D01*
G01*
D11*
X159896077Y-82184820D02*
X164976077Y-82184820D01*
X164976077Y-82184820D02*
X164976077Y-85994820D01*
X164976077Y-85994820D02*
X159896077Y-85994820D01*
X159896077Y-85994820D02*
X159896077Y-82184820D01*
D14*
X160782524Y-84724820D02*
G75*
G03X160782524Y-84724820I-251447J0D01*
G01*
D12*
X163682680Y-79849980D02*
X163682680Y-78503780D01*
X161183320Y-79849980D02*
X163682680Y-79849980D01*
X161183320Y-78503780D02*
X161183320Y-79849980D01*
X163677600Y-78503780D02*
X161183320Y-78503780D01*
D10*
X162052000Y-79667100D02*
X162052000Y-78701900D01*
X162052000Y-78701900D02*
X161569400Y-78701900D01*
X161569400Y-79667100D02*
X162052000Y-79667100D01*
X162814000Y-78701900D02*
X162814000Y-79667100D01*
X162814000Y-79667100D02*
X163296600Y-79667100D01*
X163296600Y-78701900D02*
X162814000Y-78701900D01*
X162052000Y-79667100D02*
X162814000Y-79667100D01*
X163296600Y-79667100D02*
X163296600Y-78701900D01*
X162814000Y-78701900D02*
X162052000Y-78701900D01*
X161569400Y-78701900D02*
X161569400Y-79667100D01*
D11*
X176956720Y-120647460D02*
X177454560Y-120147080D01*
X154955240Y-119148860D02*
X154955240Y-115148360D01*
X154955240Y-110149640D02*
X154955240Y-106149140D01*
X154955240Y-119148860D02*
X159456120Y-119148860D01*
X154955240Y-106149140D02*
X159456120Y-106149140D01*
X176956720Y-104650540D02*
X160954720Y-104650540D01*
X160954720Y-104650540D02*
X159456120Y-106149140D01*
X176956720Y-120647460D02*
X160954720Y-120647460D01*
X160954720Y-120647460D02*
X159456120Y-119148860D01*
X176956720Y-120647460D02*
X176456340Y-121147840D01*
X161455100Y-121147840D02*
X160954720Y-120647460D01*
X160954720Y-104650540D02*
X161455100Y-104150160D01*
X176456340Y-104150160D02*
X176956720Y-104650540D01*
X177465854Y-120134353D02*
G75*
G03X179953920Y-112649000I-7509374J6652233D01*
G01*
X179955287Y-112637476D02*
G75*
G03X177454560Y-105150920I-10422987J679356D01*
G01*
X177448267Y-105141960D02*
G75*
G03X176956720Y-104650540I-15063527J-14575860D01*
G01*
X161455100Y-121147840D02*
G75*
G03X176456340Y-121147840I7500620J7500620D01*
G01*
X176456340Y-104150160D02*
G75*
G03X161455100Y-104150160I-7500620J-7500620D01*
G01*
D15*
X162814000Y-56466740D02*
X140716000Y-56466740D01*
X135717280Y-61468000D02*
X135717280Y-100263960D01*
X140716000Y-105265220D02*
X162814000Y-105265220D01*
X167812720Y-100263960D02*
X167812720Y-61468000D01*
D16*
X165102156Y-63167260D02*
G75*
G03X165102156Y-63167260I-2539616J0D01*
G01*
X147004656Y-61666120D02*
G75*
G03X147004656Y-61666120I-2539616J0D01*
G01*
X147004656Y-100065840D02*
G75*
G03X147004656Y-100065840I-2539616J0D01*
G01*
X165102156Y-98564700D02*
G75*
G03X165102156Y-98564700I-2539616J0D01*
G01*
D15*
X167815260Y-61468000D02*
G75*
G03X162814000Y-56466740I-5001260J0D01*
G01*
X140716000Y-56469280D02*
G75*
G03X135717280Y-61468000I0J-4998720D01*
G01*
X135714740Y-100263960D02*
G75*
G03X140716000Y-105265220I5001260J0D01*
G01*
X162814000Y-105262680D02*
G75*
G03X167812720Y-100263960I0J4998720D01*
G01*
D12*
X113727000Y-61397000D02*
X113727000Y-62647000D01*
X114477000Y-61397000D02*
X113727000Y-61397000D01*
X114477000Y-60397000D02*
X114477000Y-61397000D01*
X89727000Y-61397000D02*
X89727000Y-62647000D01*
X88977000Y-61397000D02*
X89727000Y-61397000D01*
X88977000Y-60397000D02*
X88977000Y-61397000D01*
X114477000Y-60397000D02*
X88977000Y-60397000D01*
X113727000Y-67097000D02*
X113727000Y-66297000D01*
X112127000Y-67097000D02*
X113727000Y-67097000D01*
X89527000Y-67097000D02*
X89527000Y-66297000D01*
X91327000Y-67097000D02*
X89527000Y-67097000D01*
D11*
X117214642Y-110483177D02*
X117214642Y-108451177D01*
X123310642Y-110483177D02*
X123310642Y-108451177D01*
D12*
X104894380Y-86644480D02*
X104894380Y-85298280D01*
X102395020Y-86644480D02*
X104894380Y-86644480D01*
X102395020Y-85298280D02*
X102395020Y-86644480D01*
X104889300Y-85298280D02*
X102395020Y-85298280D01*
D10*
X103263700Y-86461600D02*
X103263700Y-85496400D01*
X103263700Y-85496400D02*
X102781100Y-85496400D01*
X102781100Y-86461600D02*
X103263700Y-86461600D01*
X104025700Y-85496400D02*
X104025700Y-86461600D01*
X104025700Y-86461600D02*
X104508300Y-86461600D01*
X104508300Y-85496400D02*
X104025700Y-85496400D01*
X103263700Y-86461600D02*
X104025700Y-86461600D01*
X104508300Y-86461600D02*
X104508300Y-85496400D01*
X104025700Y-85496400D02*
X103263700Y-85496400D01*
X102781100Y-85496400D02*
X102781100Y-86461600D01*
D12*
X85999320Y-91727020D02*
X85999320Y-93073220D01*
X88498680Y-91727020D02*
X85999320Y-91727020D01*
X88498680Y-93073220D02*
X88498680Y-91727020D01*
X86004400Y-93073220D02*
X88498680Y-93073220D01*
D10*
X87630000Y-91909900D02*
X87630000Y-92875100D01*
X87630000Y-92875100D02*
X88112600Y-92875100D01*
X88112600Y-91909900D02*
X87630000Y-91909900D01*
X86868000Y-92875100D02*
X86868000Y-91909900D01*
X86868000Y-91909900D02*
X86385400Y-91909900D01*
X86385400Y-92875100D02*
X86868000Y-92875100D01*
X87630000Y-91909900D02*
X86868000Y-91909900D01*
X86385400Y-91909900D02*
X86385400Y-92875100D01*
X86868000Y-92875100D02*
X87630000Y-92875100D01*
X88112600Y-92875100D02*
X88112600Y-91909900D01*
D12*
X102445820Y-94076520D02*
X102445820Y-95422720D01*
X104945180Y-94076520D02*
X102445820Y-94076520D01*
X104945180Y-95422720D02*
X104945180Y-94076520D01*
X102450900Y-95422720D02*
X104945180Y-95422720D01*
D10*
X104076500Y-94259400D02*
X104076500Y-95224600D01*
X104076500Y-95224600D02*
X104559100Y-95224600D01*
X104559100Y-94259400D02*
X104076500Y-94259400D01*
X103314500Y-95224600D02*
X103314500Y-94259400D01*
X103314500Y-94259400D02*
X102831900Y-94259400D01*
X102831900Y-95224600D02*
X103314500Y-95224600D01*
X104076500Y-94259400D02*
X103314500Y-94259400D01*
X102831900Y-94259400D02*
X102831900Y-95224600D01*
X103314500Y-95224600D02*
X104076500Y-95224600D01*
X104559100Y-95224600D02*
X104559100Y-94259400D01*
D12*
X88371680Y-88295480D02*
X88371680Y-86949280D01*
X85872320Y-88295480D02*
X88371680Y-88295480D01*
X85872320Y-86949280D02*
X85872320Y-88295480D01*
X88366600Y-86949280D02*
X85872320Y-86949280D01*
D10*
X86741000Y-88112600D02*
X86741000Y-87147400D01*
X86741000Y-87147400D02*
X86258400Y-87147400D01*
X86258400Y-88112600D02*
X86741000Y-88112600D01*
X87503000Y-87147400D02*
X87503000Y-88112600D01*
X87503000Y-88112600D02*
X87985600Y-88112600D01*
X87985600Y-87147400D02*
X87503000Y-87147400D01*
X86741000Y-88112600D02*
X87503000Y-88112600D01*
X87985600Y-88112600D02*
X87985600Y-87147400D01*
X87503000Y-87147400D02*
X86741000Y-87147400D01*
X86258400Y-87147400D02*
X86258400Y-88112600D01*
D12*
X102509320Y-95791020D02*
X102509320Y-97137220D01*
X105008680Y-95791020D02*
X102509320Y-95791020D01*
X105008680Y-97137220D02*
X105008680Y-95791020D01*
X102514400Y-97137220D02*
X105008680Y-97137220D01*
D10*
X104140000Y-95973900D02*
X104140000Y-96939100D01*
X104140000Y-96939100D02*
X104622600Y-96939100D01*
X104622600Y-95973900D02*
X104140000Y-95973900D01*
X103378000Y-96939100D02*
X103378000Y-95973900D01*
X103378000Y-95973900D02*
X102895400Y-95973900D01*
X102895400Y-96939100D02*
X103378000Y-96939100D01*
X104140000Y-95973900D02*
X103378000Y-95973900D01*
X102895400Y-95973900D02*
X102895400Y-96939100D01*
X103378000Y-96939100D02*
X104140000Y-96939100D01*
X104622600Y-96939100D02*
X104622600Y-95973900D01*
D12*
X102382320Y-89377520D02*
X102382320Y-90723720D01*
X104881680Y-89377520D02*
X102382320Y-89377520D01*
X104881680Y-90723720D02*
X104881680Y-89377520D01*
X102387400Y-90723720D02*
X104881680Y-90723720D01*
D10*
X104013000Y-89560400D02*
X104013000Y-90525600D01*
X104013000Y-90525600D02*
X104495600Y-90525600D01*
X104495600Y-89560400D02*
X104013000Y-89560400D01*
X103251000Y-90525600D02*
X103251000Y-89560400D01*
X103251000Y-89560400D02*
X102768400Y-89560400D01*
X102768400Y-90525600D02*
X103251000Y-90525600D01*
X104013000Y-89560400D02*
X103251000Y-89560400D01*
X102768400Y-89560400D02*
X102768400Y-90525600D01*
X103251000Y-90525600D02*
X104013000Y-90525600D01*
X104495600Y-90525600D02*
X104495600Y-89560400D01*
D12*
X102509320Y-74074020D02*
X102509320Y-75420220D01*
X105008680Y-74074020D02*
X102509320Y-74074020D01*
X105008680Y-75420220D02*
X105008680Y-74074020D01*
X102514400Y-75420220D02*
X105008680Y-75420220D01*
D10*
X104140000Y-74256900D02*
X104140000Y-75222100D01*
X104140000Y-75222100D02*
X104622600Y-75222100D01*
X104622600Y-74256900D02*
X104140000Y-74256900D01*
X103378000Y-75222100D02*
X103378000Y-74256900D01*
X103378000Y-74256900D02*
X102895400Y-74256900D01*
X102895400Y-75222100D02*
X103378000Y-75222100D01*
X104140000Y-74256900D02*
X103378000Y-74256900D01*
X102895400Y-74256900D02*
X102895400Y-75222100D01*
X103378000Y-75222100D02*
X104140000Y-75222100D01*
X104622600Y-75222100D02*
X104622600Y-74256900D01*
D12*
X129519680Y-60545980D02*
X129519680Y-59199780D01*
X127020320Y-60545980D02*
X129519680Y-60545980D01*
X127020320Y-59199780D02*
X127020320Y-60545980D01*
X129514600Y-59199780D02*
X127020320Y-59199780D01*
D10*
X127889000Y-60363100D02*
X127889000Y-59397900D01*
X127889000Y-59397900D02*
X127406400Y-59397900D01*
X127406400Y-60363100D02*
X127889000Y-60363100D01*
X128651000Y-59397900D02*
X128651000Y-60363100D01*
X128651000Y-60363100D02*
X129133600Y-60363100D01*
X129133600Y-59397900D02*
X128651000Y-59397900D01*
X127889000Y-60363100D02*
X128651000Y-60363100D01*
X129133600Y-60363100D02*
X129133600Y-59397900D01*
X128651000Y-59397900D02*
X127889000Y-59397900D01*
X127406400Y-59397900D02*
X127406400Y-60363100D01*
D12*
X159351980Y-82951320D02*
X158005780Y-82951320D01*
X159351980Y-85450680D02*
X159351980Y-82951320D01*
X158005780Y-85450680D02*
X159351980Y-85450680D01*
X158005780Y-82956400D02*
X158005780Y-85450680D01*
D10*
X159169100Y-84582000D02*
X158203900Y-84582000D01*
X158203900Y-84582000D02*
X158203900Y-85064600D01*
X159169100Y-85064600D02*
X159169100Y-84582000D01*
X158203900Y-83820000D02*
X159169100Y-83820000D01*
X159169100Y-83820000D02*
X159169100Y-83337400D01*
X158203900Y-83337400D02*
X158203900Y-83820000D01*
X159169100Y-84582000D02*
X159169100Y-83820000D01*
X159169100Y-83337400D02*
X158203900Y-83337400D01*
X158203900Y-83820000D02*
X158203900Y-84582000D01*
X158203900Y-85064600D02*
X159169100Y-85064600D01*
D12*
X142219680Y-63212980D02*
X142219680Y-61866780D01*
X139720320Y-63212980D02*
X142219680Y-63212980D01*
X139720320Y-61866780D02*
X139720320Y-63212980D01*
X142214600Y-61866780D02*
X139720320Y-61866780D01*
D10*
X140589000Y-63030100D02*
X140589000Y-62064900D01*
X140589000Y-62064900D02*
X140106400Y-62064900D01*
X140106400Y-63030100D02*
X140589000Y-63030100D01*
X141351000Y-62064900D02*
X141351000Y-63030100D01*
X141351000Y-63030100D02*
X141833600Y-63030100D01*
X141833600Y-62064900D02*
X141351000Y-62064900D01*
X140589000Y-63030100D02*
X141351000Y-63030100D01*
X141833600Y-63030100D02*
X141833600Y-62064900D01*
X141351000Y-62064900D02*
X140589000Y-62064900D01*
X140106400Y-62064900D02*
X140106400Y-63030100D01*
D12*
X143299180Y-81373980D02*
X143299180Y-80027780D01*
X140799820Y-81373980D02*
X143299180Y-81373980D01*
X140799820Y-80027780D02*
X140799820Y-81373980D01*
X143294100Y-80027780D02*
X140799820Y-80027780D01*
D10*
X141668500Y-81191100D02*
X141668500Y-80225900D01*
X141668500Y-80225900D02*
X141185900Y-80225900D01*
X141185900Y-81191100D02*
X141668500Y-81191100D01*
X142430500Y-80225900D02*
X142430500Y-81191100D01*
X142430500Y-81191100D02*
X142913100Y-81191100D01*
X142913100Y-80225900D02*
X142430500Y-80225900D01*
X141668500Y-81191100D02*
X142430500Y-81191100D01*
X142913100Y-81191100D02*
X142913100Y-80225900D01*
X142430500Y-80225900D02*
X141668500Y-80225900D01*
X141185900Y-80225900D02*
X141185900Y-81191100D01*
D12*
X134586980Y-67139820D02*
X133240780Y-67139820D01*
X134586980Y-69639180D02*
X134586980Y-67139820D01*
X133240780Y-69639180D02*
X134586980Y-69639180D01*
X133240780Y-67144900D02*
X133240780Y-69639180D01*
D10*
X134404100Y-68770500D02*
X133438900Y-68770500D01*
X133438900Y-68770500D02*
X133438900Y-69253100D01*
X134404100Y-69253100D02*
X134404100Y-68770500D01*
X133438900Y-68008500D02*
X134404100Y-68008500D01*
X134404100Y-68008500D02*
X134404100Y-67525900D01*
X133438900Y-67525900D02*
X133438900Y-68008500D01*
X134404100Y-68770500D02*
X134404100Y-68008500D01*
X134404100Y-67525900D02*
X133438900Y-67525900D01*
X133438900Y-68008500D02*
X133438900Y-68770500D01*
X133438900Y-69253100D02*
X134404100Y-69253100D01*
D12*
X120937020Y-104551480D02*
X122283220Y-104551480D01*
X120937020Y-102052120D02*
X120937020Y-104551480D01*
X122283220Y-102052120D02*
X120937020Y-102052120D01*
X122283220Y-104546400D02*
X122283220Y-102052120D01*
D10*
X121119900Y-102920800D02*
X122085100Y-102920800D01*
X122085100Y-102920800D02*
X122085100Y-102438200D01*
X121119900Y-102438200D02*
X121119900Y-102920800D01*
X122085100Y-103682800D02*
X121119900Y-103682800D01*
X121119900Y-103682800D02*
X121119900Y-104165400D01*
X122085100Y-104165400D02*
X122085100Y-103682800D01*
X121119900Y-102920800D02*
X121119900Y-103682800D01*
X121119900Y-104165400D02*
X122085100Y-104165400D01*
X122085100Y-103682800D02*
X122085100Y-102920800D01*
X122085100Y-102438200D02*
X121119900Y-102438200D01*
D12*
X128173480Y-67520820D02*
X126827280Y-67520820D01*
X128173480Y-70020180D02*
X128173480Y-67520820D01*
X126827280Y-70020180D02*
X128173480Y-70020180D01*
X126827280Y-67525900D02*
X126827280Y-70020180D01*
D10*
X127990600Y-69151500D02*
X127025400Y-69151500D01*
X127025400Y-69151500D02*
X127025400Y-69634100D01*
X127990600Y-69634100D02*
X127990600Y-69151500D01*
X127025400Y-68389500D02*
X127990600Y-68389500D01*
X127990600Y-68389500D02*
X127990600Y-67906900D01*
X127025400Y-67906900D02*
X127025400Y-68389500D01*
X127990600Y-69151500D02*
X127990600Y-68389500D01*
X127990600Y-67906900D02*
X127025400Y-67906900D01*
X127025400Y-68389500D02*
X127025400Y-69151500D01*
X127025400Y-69634100D02*
X127990600Y-69634100D01*
D12*
X118460520Y-104551480D02*
X119806720Y-104551480D01*
X118460520Y-102052120D02*
X118460520Y-104551480D01*
X119806720Y-102052120D02*
X118460520Y-102052120D01*
X119806720Y-104546400D02*
X119806720Y-102052120D01*
D10*
X118643400Y-102920800D02*
X119608600Y-102920800D01*
X119608600Y-102920800D02*
X119608600Y-102438200D01*
X118643400Y-102438200D02*
X118643400Y-102920800D01*
X119608600Y-103682800D02*
X118643400Y-103682800D01*
X118643400Y-103682800D02*
X118643400Y-104165400D01*
X119608600Y-104165400D02*
X119608600Y-103682800D01*
X118643400Y-102920800D02*
X118643400Y-103682800D01*
X118643400Y-104165400D02*
X119608600Y-104165400D01*
X119608600Y-103682800D02*
X119608600Y-102920800D01*
X119608600Y-102438200D02*
X118643400Y-102438200D01*
D12*
X117695980Y-67457320D02*
X116349780Y-67457320D01*
X117695980Y-69956680D02*
X117695980Y-67457320D01*
X116349780Y-69956680D02*
X117695980Y-69956680D01*
X116349780Y-67462400D02*
X116349780Y-69956680D01*
D10*
X117513100Y-69088000D02*
X116547900Y-69088000D01*
X116547900Y-69088000D02*
X116547900Y-69570600D01*
X117513100Y-69570600D02*
X117513100Y-69088000D01*
X116547900Y-68326000D02*
X117513100Y-68326000D01*
X117513100Y-68326000D02*
X117513100Y-67843400D01*
X116547900Y-67843400D02*
X116547900Y-68326000D01*
X117513100Y-69088000D02*
X117513100Y-68326000D01*
X117513100Y-67843400D02*
X116547900Y-67843400D01*
X116547900Y-68326000D02*
X116547900Y-69088000D01*
X116547900Y-69570600D02*
X117513100Y-69570600D01*
D12*
X123985020Y-104564180D02*
X125331220Y-104564180D01*
X123985020Y-102064820D02*
X123985020Y-104564180D01*
X125331220Y-102064820D02*
X123985020Y-102064820D01*
X125331220Y-104559100D02*
X125331220Y-102064820D01*
D10*
X124167900Y-102933500D02*
X125133100Y-102933500D01*
X125133100Y-102933500D02*
X125133100Y-102450900D01*
X124167900Y-102450900D02*
X124167900Y-102933500D01*
X125133100Y-103695500D02*
X124167900Y-103695500D01*
X124167900Y-103695500D02*
X124167900Y-104178100D01*
X125133100Y-104178100D02*
X125133100Y-103695500D01*
X124167900Y-102933500D02*
X124167900Y-103695500D01*
X124167900Y-104178100D02*
X125133100Y-104178100D01*
X125133100Y-103695500D02*
X125133100Y-102933500D01*
X125133100Y-102450900D02*
X124167900Y-102450900D01*
D12*
X143362680Y-95915480D02*
X143362680Y-94569280D01*
X140863320Y-95915480D02*
X143362680Y-95915480D01*
X140863320Y-94569280D02*
X140863320Y-95915480D01*
X143357600Y-94569280D02*
X140863320Y-94569280D01*
D10*
X141732000Y-95732600D02*
X141732000Y-94767400D01*
X141732000Y-94767400D02*
X141249400Y-94767400D01*
X141249400Y-95732600D02*
X141732000Y-95732600D01*
X142494000Y-94767400D02*
X142494000Y-95732600D01*
X142494000Y-95732600D02*
X142976600Y-95732600D01*
X142976600Y-94767400D02*
X142494000Y-94767400D01*
X141732000Y-95732600D02*
X142494000Y-95732600D01*
X142976600Y-95732600D02*
X142976600Y-94767400D01*
X142494000Y-94767400D02*
X141732000Y-94767400D01*
X141249400Y-94767400D02*
X141249400Y-95732600D01*
D12*
X106128820Y-76550520D02*
X106128820Y-77896720D01*
X108628180Y-76550520D02*
X106128820Y-76550520D01*
X108628180Y-77896720D02*
X108628180Y-76550520D01*
X106133900Y-77896720D02*
X108628180Y-77896720D01*
D10*
X107759500Y-76733400D02*
X107759500Y-77698600D01*
X107759500Y-77698600D02*
X108242100Y-77698600D01*
X108242100Y-76733400D02*
X107759500Y-76733400D01*
X106997500Y-77698600D02*
X106997500Y-76733400D01*
X106997500Y-76733400D02*
X106514900Y-76733400D01*
X106514900Y-77698600D02*
X106997500Y-77698600D01*
X107759500Y-76733400D02*
X106997500Y-76733400D01*
X106514900Y-76733400D02*
X106514900Y-77698600D01*
X106997500Y-77698600D02*
X107759500Y-77698600D01*
X108242100Y-77698600D02*
X108242100Y-76733400D01*
D12*
X106255820Y-81122520D02*
X106255820Y-82468720D01*
X108755180Y-81122520D02*
X106255820Y-81122520D01*
X108755180Y-82468720D02*
X108755180Y-81122520D01*
X106260900Y-82468720D02*
X108755180Y-82468720D01*
D10*
X107886500Y-81305400D02*
X107886500Y-82270600D01*
X107886500Y-82270600D02*
X108369100Y-82270600D01*
X108369100Y-81305400D02*
X107886500Y-81305400D01*
X107124500Y-82270600D02*
X107124500Y-81305400D01*
X107124500Y-81305400D02*
X106641900Y-81305400D01*
X106641900Y-82270600D02*
X107124500Y-82270600D01*
X107886500Y-81305400D02*
X107124500Y-81305400D01*
X106641900Y-81305400D02*
X106641900Y-82270600D01*
X107124500Y-82270600D02*
X107886500Y-82270600D01*
X108369100Y-82270600D02*
X108369100Y-81305400D01*
D12*
X106192320Y-84551520D02*
X106192320Y-85897720D01*
X108691680Y-84551520D02*
X106192320Y-84551520D01*
X108691680Y-85897720D02*
X108691680Y-84551520D01*
X106197400Y-85897720D02*
X108691680Y-85897720D01*
D10*
X107823000Y-84734400D02*
X107823000Y-85699600D01*
X107823000Y-85699600D02*
X108305600Y-85699600D01*
X108305600Y-84734400D02*
X107823000Y-84734400D01*
X107061000Y-85699600D02*
X107061000Y-84734400D01*
X107061000Y-84734400D02*
X106578400Y-84734400D01*
X106578400Y-85699600D02*
X107061000Y-85699600D01*
X107823000Y-84734400D02*
X107061000Y-84734400D01*
X106578400Y-84734400D02*
X106578400Y-85699600D01*
X107061000Y-85699600D02*
X107823000Y-85699600D01*
X108305600Y-85699600D02*
X108305600Y-84734400D01*
D12*
X143286480Y-82961480D02*
X143286480Y-81615280D01*
X140787120Y-82961480D02*
X143286480Y-82961480D01*
X140787120Y-81615280D02*
X140787120Y-82961480D01*
X143281400Y-81615280D02*
X140787120Y-81615280D01*
D10*
X141655800Y-82778600D02*
X141655800Y-81813400D01*
X141655800Y-81813400D02*
X141173200Y-81813400D01*
X141173200Y-82778600D02*
X141655800Y-82778600D01*
X142417800Y-81813400D02*
X142417800Y-82778600D01*
X142417800Y-82778600D02*
X142900400Y-82778600D01*
X142900400Y-81813400D02*
X142417800Y-81813400D01*
X141655800Y-82778600D02*
X142417800Y-82778600D01*
X142900400Y-82778600D02*
X142900400Y-81813400D01*
X142417800Y-81813400D02*
X141655800Y-81813400D01*
X141173200Y-81813400D02*
X141173200Y-82778600D01*
D12*
X106255820Y-93060520D02*
X106255820Y-94406720D01*
X108755180Y-93060520D02*
X106255820Y-93060520D01*
X108755180Y-94406720D02*
X108755180Y-93060520D01*
X106260900Y-94406720D02*
X108755180Y-94406720D01*
D10*
X107886500Y-93243400D02*
X107886500Y-94208600D01*
X107886500Y-94208600D02*
X108369100Y-94208600D01*
X108369100Y-93243400D02*
X107886500Y-93243400D01*
X107124500Y-94208600D02*
X107124500Y-93243400D01*
X107124500Y-93243400D02*
X106641900Y-93243400D01*
X106641900Y-94208600D02*
X107124500Y-94208600D01*
X107886500Y-93243400D02*
X107124500Y-93243400D01*
X106641900Y-93243400D02*
X106641900Y-94208600D01*
X107124500Y-94208600D02*
X107886500Y-94208600D01*
X108369100Y-94208600D02*
X108369100Y-93243400D01*
D12*
X143362680Y-90454480D02*
X143362680Y-89108280D01*
X140863320Y-90454480D02*
X143362680Y-90454480D01*
X140863320Y-89108280D02*
X140863320Y-90454480D01*
X143357600Y-89108280D02*
X140863320Y-89108280D01*
D10*
X141732000Y-90271600D02*
X141732000Y-89306400D01*
X141732000Y-89306400D02*
X141249400Y-89306400D01*
X141249400Y-90271600D02*
X141732000Y-90271600D01*
X142494000Y-89306400D02*
X142494000Y-90271600D01*
X142494000Y-90271600D02*
X142976600Y-90271600D01*
X142976600Y-89306400D02*
X142494000Y-89306400D01*
X141732000Y-90271600D02*
X142494000Y-90271600D01*
X142976600Y-90271600D02*
X142976600Y-89306400D01*
X142494000Y-89306400D02*
X141732000Y-89306400D01*
X141249400Y-89306400D02*
X141249400Y-90271600D01*
D12*
X132113020Y-107475020D02*
X132113020Y-108821220D01*
X134612380Y-107475020D02*
X132113020Y-107475020D01*
X134612380Y-108821220D02*
X134612380Y-107475020D01*
X132118100Y-108821220D02*
X134612380Y-108821220D01*
D10*
X133743700Y-107657900D02*
X133743700Y-108623100D01*
X133743700Y-108623100D02*
X134226300Y-108623100D01*
X134226300Y-107657900D02*
X133743700Y-107657900D01*
X132981700Y-108623100D02*
X132981700Y-107657900D01*
X132981700Y-107657900D02*
X132499100Y-107657900D01*
X132499100Y-108623100D02*
X132981700Y-108623100D01*
X133743700Y-107657900D02*
X132981700Y-107657900D01*
X132499100Y-107657900D02*
X132499100Y-108623100D01*
X132981700Y-108623100D02*
X133743700Y-108623100D01*
X134226300Y-108623100D02*
X134226300Y-107657900D01*
D12*
X138295380Y-108805980D02*
X138295380Y-107459780D01*
X135796020Y-108805980D02*
X138295380Y-108805980D01*
X135796020Y-107459780D02*
X135796020Y-108805980D01*
X138290300Y-107459780D02*
X135796020Y-107459780D01*
D10*
X136664700Y-108623100D02*
X136664700Y-107657900D01*
X136664700Y-107657900D02*
X136182100Y-107657900D01*
X136182100Y-108623100D02*
X136664700Y-108623100D01*
X137426700Y-107657900D02*
X137426700Y-108623100D01*
X137426700Y-108623100D02*
X137909300Y-108623100D01*
X137909300Y-107657900D02*
X137426700Y-107657900D01*
X136664700Y-108623100D02*
X137426700Y-108623100D01*
X137909300Y-108623100D02*
X137909300Y-107657900D01*
X137426700Y-107657900D02*
X136664700Y-107657900D01*
X136182100Y-107657900D02*
X136182100Y-108623100D01*
D12*
X126631700Y-60540900D02*
X126631700Y-59220100D01*
X123786900Y-60540900D02*
X126631700Y-60540900D01*
X123786900Y-59220100D02*
X123786900Y-60540900D01*
X126631700Y-59220100D02*
X123786900Y-59220100D01*
D10*
X124752100Y-60363100D02*
X124752100Y-59397900D01*
X124752100Y-59397900D02*
X124371100Y-59397900D01*
X124371100Y-60363100D02*
X124752100Y-60363100D01*
X125666500Y-59397900D02*
X125666500Y-60363100D01*
X125666500Y-60363100D02*
X126047500Y-60363100D01*
X126047500Y-59397900D02*
X125666500Y-59397900D01*
X124752100Y-60363100D02*
X125666500Y-60363100D01*
X126047500Y-60363100D02*
X126047500Y-59397900D01*
X125666500Y-59397900D02*
X124752100Y-59397900D01*
X124371100Y-59397900D02*
X124371100Y-60363100D01*
D12*
X155052302Y-103815500D02*
X155052302Y-102494700D01*
X152207502Y-103815500D02*
X155052302Y-103815500D01*
X152207502Y-102494700D02*
X152207502Y-103815500D01*
X155052302Y-102494700D02*
X152207502Y-102494700D01*
D10*
X153172702Y-103637700D02*
X153172702Y-102672500D01*
X153172702Y-102672500D02*
X152791702Y-102672500D01*
X152791702Y-103637700D02*
X153172702Y-103637700D01*
X154087102Y-102672500D02*
X154087102Y-103637700D01*
X154087102Y-103637700D02*
X154468102Y-103637700D01*
X154468102Y-102672500D02*
X154087102Y-102672500D01*
X153172702Y-103637700D02*
X154087102Y-103637700D01*
X154468102Y-103637700D02*
X154468102Y-102672500D01*
X154087102Y-102672500D02*
X153172702Y-102672500D01*
X152791702Y-102672500D02*
X152791702Y-103637700D01*
D12*
X151612302Y-103815500D02*
X151612302Y-102494700D01*
X148767502Y-103815500D02*
X151612302Y-103815500D01*
X148767502Y-102494700D02*
X148767502Y-103815500D01*
X151612302Y-102494700D02*
X148767502Y-102494700D01*
D10*
X149732702Y-103637700D02*
X149732702Y-102672500D01*
X149732702Y-102672500D02*
X149351702Y-102672500D01*
X149351702Y-103637700D02*
X149732702Y-103637700D01*
X150647102Y-102672500D02*
X150647102Y-103637700D01*
X150647102Y-103637700D02*
X151028102Y-103637700D01*
X151028102Y-102672500D02*
X150647102Y-102672500D01*
X149732702Y-103637700D02*
X150647102Y-103637700D01*
X151028102Y-103637700D02*
X151028102Y-102672500D01*
X150647102Y-102672500D02*
X149732702Y-102672500D01*
X149351702Y-102672500D02*
X149351702Y-103637700D01*
D12*
X138772900Y-61950600D02*
X137452100Y-61950600D01*
X138772900Y-64795400D02*
X138772900Y-61950600D01*
X137452100Y-64795400D02*
X138772900Y-64795400D01*
X137452100Y-61950600D02*
X137452100Y-64795400D01*
D10*
X138595100Y-63830200D02*
X137629900Y-63830200D01*
X137629900Y-63830200D02*
X137629900Y-64211200D01*
X138595100Y-64211200D02*
X138595100Y-63830200D01*
X137629900Y-62915800D02*
X138595100Y-62915800D01*
X138595100Y-62915800D02*
X138595100Y-62534800D01*
X137629900Y-62534800D02*
X137629900Y-62915800D01*
X138595100Y-63830200D02*
X138595100Y-62915800D01*
X138595100Y-62534800D02*
X137629900Y-62534800D01*
X137629900Y-62915800D02*
X137629900Y-63830200D01*
X137629900Y-64211200D02*
X138595100Y-64211200D01*
D12*
X115354100Y-108673900D02*
X116674900Y-108673900D01*
X115354100Y-105829100D02*
X115354100Y-108673900D01*
X116674900Y-105829100D02*
X115354100Y-105829100D01*
X116674900Y-108673900D02*
X116674900Y-105829100D01*
D10*
X115531900Y-106794300D02*
X116497100Y-106794300D01*
X116497100Y-106794300D02*
X116497100Y-106413300D01*
X115531900Y-106413300D02*
X115531900Y-106794300D01*
X116497100Y-107708700D02*
X115531900Y-107708700D01*
X115531900Y-107708700D02*
X115531900Y-108089700D01*
X116497100Y-108089700D02*
X116497100Y-107708700D01*
X115531900Y-106794300D02*
X115531900Y-107708700D01*
X115531900Y-108089700D02*
X116497100Y-108089700D01*
X116497100Y-107708700D02*
X116497100Y-106794300D01*
X116497100Y-106413300D02*
X115531900Y-106413300D01*
D12*
X115354100Y-113055400D02*
X116674900Y-113055400D01*
X115354100Y-110210600D02*
X115354100Y-113055400D01*
X116674900Y-110210600D02*
X115354100Y-110210600D01*
X116674900Y-113055400D02*
X116674900Y-110210600D01*
D10*
X115531900Y-111175800D02*
X116497100Y-111175800D01*
X116497100Y-111175800D02*
X116497100Y-110794800D01*
X115531900Y-110794800D02*
X115531900Y-111175800D01*
X116497100Y-112090200D02*
X115531900Y-112090200D01*
X115531900Y-112090200D02*
X115531900Y-112471200D01*
X116497100Y-112471200D02*
X116497100Y-112090200D01*
X115531900Y-111175800D02*
X115531900Y-112090200D01*
X115531900Y-112471200D02*
X116497100Y-112471200D01*
X116497100Y-112090200D02*
X116497100Y-111175800D01*
X116497100Y-110794800D02*
X115531900Y-110794800D01*
D12*
X123799600Y-108800900D02*
X125120400Y-108800900D01*
X123799600Y-105956100D02*
X123799600Y-108800900D01*
X125120400Y-105956100D02*
X123799600Y-105956100D01*
X125120400Y-108800900D02*
X125120400Y-105956100D01*
D10*
X123977400Y-106921300D02*
X124942600Y-106921300D01*
X124942600Y-106921300D02*
X124942600Y-106540300D01*
X123977400Y-106540300D02*
X123977400Y-106921300D01*
X124942600Y-107835700D02*
X123977400Y-107835700D01*
X123977400Y-107835700D02*
X123977400Y-108216700D01*
X124942600Y-108216700D02*
X124942600Y-107835700D01*
X123977400Y-106921300D02*
X123977400Y-107835700D01*
X123977400Y-108216700D02*
X124942600Y-108216700D01*
X124942600Y-107835700D02*
X124942600Y-106921300D01*
X124942600Y-106540300D02*
X123977400Y-106540300D01*
D12*
X112864900Y-102857300D02*
X111544100Y-102857300D01*
X112864900Y-105702100D02*
X112864900Y-102857300D01*
X111544100Y-105702100D02*
X112864900Y-105702100D01*
X111544100Y-102857300D02*
X111544100Y-105702100D01*
D10*
X112687100Y-104736900D02*
X111721900Y-104736900D01*
X111721900Y-104736900D02*
X111721900Y-105117900D01*
X112687100Y-105117900D02*
X112687100Y-104736900D01*
X111721900Y-103822500D02*
X112687100Y-103822500D01*
X112687100Y-103822500D02*
X112687100Y-103441500D01*
X111721900Y-103441500D02*
X111721900Y-103822500D01*
X112687100Y-104736900D02*
X112687100Y-103822500D01*
X112687100Y-103441500D02*
X111721900Y-103441500D01*
X111721900Y-103822500D02*
X111721900Y-104736900D01*
X111721900Y-105117900D02*
X112687100Y-105117900D01*
D12*
X134785100Y-69684900D02*
X136105900Y-69684900D01*
X134785100Y-66840100D02*
X134785100Y-69684900D01*
X136105900Y-66840100D02*
X134785100Y-66840100D01*
X136105900Y-69684900D02*
X136105900Y-66840100D01*
D10*
X134962900Y-67805300D02*
X135928100Y-67805300D01*
X135928100Y-67805300D02*
X135928100Y-67424300D01*
X134962900Y-67424300D02*
X134962900Y-67805300D01*
X135928100Y-68719700D02*
X134962900Y-68719700D01*
X134962900Y-68719700D02*
X134962900Y-69100700D01*
X135928100Y-69100700D02*
X135928100Y-68719700D01*
X134962900Y-67805300D02*
X134962900Y-68719700D01*
X134962900Y-69100700D02*
X135928100Y-69100700D01*
X135928100Y-68719700D02*
X135928100Y-67805300D01*
X135928100Y-67424300D02*
X134962900Y-67424300D01*
D12*
X138725357Y-65455169D02*
X137506157Y-65455169D01*
X138725357Y-68274569D02*
X138725357Y-65455169D01*
X137506157Y-68274569D02*
X138725357Y-68274569D01*
X137506157Y-65455169D02*
X137506157Y-68274569D01*
X112814100Y-106271060D02*
X111594900Y-106271060D01*
X112814100Y-109090460D02*
X112814100Y-106271060D01*
X111594900Y-109090460D02*
X112814100Y-109090460D01*
X111594900Y-106271060D02*
X111594900Y-109090460D01*
X179230000Y-59658000D02*
X176480000Y-59658000D01*
X179230000Y-58708000D02*
X179230000Y-59658000D01*
X180730000Y-58708000D02*
X179230000Y-58708000D01*
X180730000Y-69308000D02*
X180730000Y-58708000D01*
X179230000Y-69308000D02*
X180730000Y-69308000D01*
X179230000Y-68358000D02*
X179230000Y-69308000D01*
X177730000Y-68358000D02*
X179230000Y-68358000D01*
X176480000Y-68358000D02*
X177730000Y-68358000D01*
X173430000Y-61758000D02*
X173430000Y-60758000D01*
X173430000Y-67258000D02*
X173430000Y-66258000D01*
X149255480Y-59126120D02*
X147909280Y-59126120D01*
X149255480Y-61625480D02*
X149255480Y-59126120D01*
X147909280Y-61625480D02*
X149255480Y-61625480D01*
X147909280Y-59131200D02*
X147909280Y-61625480D01*
D10*
X149072600Y-60756800D02*
X148107400Y-60756800D01*
X148107400Y-60756800D02*
X148107400Y-61239400D01*
X149072600Y-61239400D02*
X149072600Y-60756800D01*
X148107400Y-59994800D02*
X149072600Y-59994800D01*
X149072600Y-59994800D02*
X149072600Y-59512200D01*
X148107400Y-59512200D02*
X148107400Y-59994800D01*
X149072600Y-60756800D02*
X149072600Y-59994800D01*
X149072600Y-59512200D02*
X148107400Y-59512200D01*
X148107400Y-59994800D02*
X148107400Y-60756800D01*
X148107400Y-61239400D02*
X149072600Y-61239400D01*
D12*
X126652020Y-113517680D02*
X127998220Y-113517680D01*
X126652020Y-111018320D02*
X126652020Y-113517680D01*
X127998220Y-111018320D02*
X126652020Y-111018320D01*
X127998220Y-113512600D02*
X127998220Y-111018320D01*
D10*
X126834900Y-111887000D02*
X127800100Y-111887000D01*
X127800100Y-111887000D02*
X127800100Y-111404400D01*
X126834900Y-111404400D02*
X126834900Y-111887000D01*
X127800100Y-112649000D02*
X126834900Y-112649000D01*
X126834900Y-112649000D02*
X126834900Y-113131600D01*
X127800100Y-113131600D02*
X127800100Y-112649000D01*
X126834900Y-111887000D02*
X126834900Y-112649000D01*
X126834900Y-113131600D02*
X127800100Y-113131600D01*
X127800100Y-112649000D02*
X127800100Y-111887000D01*
X127800100Y-111404400D02*
X126834900Y-111404400D01*
D12*
X128430020Y-113517680D02*
X129776220Y-113517680D01*
X128430020Y-111018320D02*
X128430020Y-113517680D01*
X129776220Y-111018320D02*
X128430020Y-111018320D01*
X129776220Y-113512600D02*
X129776220Y-111018320D01*
D10*
X128612900Y-111887000D02*
X129578100Y-111887000D01*
X129578100Y-111887000D02*
X129578100Y-111404400D01*
X128612900Y-111404400D02*
X128612900Y-111887000D01*
X129578100Y-112649000D02*
X128612900Y-112649000D01*
X128612900Y-112649000D02*
X128612900Y-113131600D01*
X129578100Y-113131600D02*
X129578100Y-112649000D01*
X128612900Y-111887000D02*
X128612900Y-112649000D01*
X128612900Y-113131600D02*
X129578100Y-113131600D01*
X129578100Y-112649000D02*
X129578100Y-111887000D01*
X129578100Y-111404400D02*
X128612900Y-111404400D01*
D15*
X177876200Y-71798180D02*
X177876200Y-80093820D01*
X177876200Y-80093820D02*
X170578780Y-80093820D01*
X170578780Y-80093820D02*
X169580560Y-79095600D01*
X169580560Y-79095600D02*
X169580560Y-72796400D01*
X169580560Y-72796400D02*
X170578780Y-71798180D01*
X170578780Y-71798180D02*
X177876200Y-71798180D01*
X177749200Y-92118180D02*
X177749200Y-100413820D01*
X177749200Y-100413820D02*
X170451780Y-100413820D01*
X170451780Y-100413820D02*
X169453560Y-99415600D01*
X169453560Y-99415600D02*
X169453560Y-93116400D01*
X169453560Y-93116400D02*
X170451780Y-92118180D01*
X170451780Y-92118180D02*
X177749200Y-92118180D01*
D11*
X163761420Y-89316560D02*
X163761420Y-90515440D01*
X163761420Y-90515440D02*
X164660580Y-89916000D01*
X164660580Y-89916000D02*
X163761420Y-89316560D01*
X164660580Y-89316560D02*
X164660580Y-90515440D01*
X161290000Y-70538340D02*
X162687000Y-70538340D01*
X161290000Y-72336660D02*
X162687000Y-72336660D01*
D17*
X92837000Y-107099100D02*
X92837000Y-104561640D01*
X102997000Y-107147360D02*
X102997000Y-104609900D01*
D11*
X167815260Y-84434680D02*
X171813220Y-81633060D01*
X176212500Y-81633060D02*
X180213000Y-84434680D01*
X180213000Y-88031320D02*
X176212500Y-90832940D01*
X171813220Y-90832940D02*
X167815260Y-88031320D01*
X176211513Y-81632338D02*
G75*
G03X171813220Y-81633060I-2198653J-3010622D01*
G01*
X171814207Y-90833662D02*
G75*
G03X176212500Y-90832940I2198653J3010622D01*
G01*
X155152737Y-58047077D02*
X155152737Y-63127077D01*
X155152737Y-63127077D02*
X151342737Y-63127077D01*
X151342737Y-63127077D02*
X151342737Y-58047077D01*
X151342737Y-58047077D02*
X155152737Y-58047077D01*
D14*
X152864184Y-58682077D02*
G75*
G03X152864184Y-58682077I-251447J0D01*
G01*
D11*
X100609400Y-74785220D02*
X100609400Y-97340420D01*
X100609400Y-97340420D02*
X90373200Y-97340420D01*
X90373200Y-97340420D02*
X90373200Y-74785220D01*
X90373200Y-74785220D02*
X100609400Y-74785220D01*
D14*
X99591376Y-95511620D02*
G75*
G03X99591376Y-95511620I-556776J0D01*
G01*
D11*
X129019300Y-61151770D02*
X129019300Y-66991230D01*
X129019300Y-66991230D02*
X124218700Y-66991230D01*
X124218700Y-66991230D02*
X124218700Y-61151770D01*
X124218700Y-61151770D02*
X129019300Y-61151770D01*
D14*
X125486147Y-62167770D02*
G75*
G03X125486147Y-62167770I-251447J0D01*
G01*
D18*
X110050580Y-104304160D02*
X107881420Y-104304160D01*
X107881420Y-104304160D02*
X107881420Y-105510000D01*
X107881420Y-105510000D02*
X110050580Y-105510000D01*
X110050580Y-105510000D02*
X110050580Y-104304160D01*
X89085420Y-70193840D02*
X91254580Y-70193840D01*
X91254580Y-70193840D02*
X91254580Y-68988000D01*
X91254580Y-68988000D02*
X89085420Y-68988000D01*
X89085420Y-68988000D02*
X89085420Y-70193840D01*
D15*
X139522200Y-65854580D02*
X142417800Y-65854580D01*
X142417800Y-65854580D02*
X142417800Y-65006220D01*
X139522200Y-65854580D02*
X139522200Y-65006220D01*
X139522200Y-65006220D02*
X142417800Y-65006220D01*
D18*
X132627512Y-103841542D02*
X132828172Y-103640882D01*
X132828172Y-103640882D02*
X137623692Y-103640882D01*
X137623692Y-103640882D02*
X137824352Y-103841542D01*
X137923412Y-106838742D02*
X137725292Y-107039402D01*
X137725292Y-107039402D02*
X132828172Y-107039402D01*
X132828172Y-107039402D02*
X132627512Y-106838742D01*
D11*
X130134640Y-114173000D02*
X130134640Y-114012980D01*
X130134640Y-114012980D02*
X126359640Y-114012980D01*
X126359640Y-114012980D02*
X126359640Y-114173000D01*
X126359640Y-116332000D02*
X126359640Y-119755920D01*
X130134640Y-116332000D02*
X130134640Y-119755920D01*
X130134640Y-121988580D02*
X130134640Y-122151140D01*
X130134640Y-122151140D02*
X126359640Y-122151140D01*
X126359640Y-122151140D02*
X126359640Y-121988580D01*
D19*
X161195536Y-73326655D02*
X161195536Y-72513855D01*
X161389060Y-72513855D01*
X161505174Y-72552560D01*
X161582583Y-72629969D01*
X161621288Y-72707379D01*
X161659993Y-72862198D01*
X161659993Y-72978312D01*
X161621288Y-73133131D01*
X161582583Y-73210540D01*
X161505174Y-73287950D01*
X161389060Y-73326655D01*
X161195536Y-73326655D01*
X162434088Y-73326655D02*
X161969631Y-73326655D01*
X162201860Y-73326655D02*
X162201860Y-72513855D01*
X162124450Y-72629969D01*
X162047040Y-72707379D01*
X161969631Y-72746083D01*
D20*
X106124476Y-115530380D02*
X106791142Y-116530380D01*
X106791142Y-115530380D02*
X106124476Y-116530380D01*
X107076857Y-115530380D02*
X107695904Y-115530380D01*
X107362571Y-115911333D01*
X107505428Y-115911333D01*
X107600666Y-115958952D01*
X107648285Y-116006571D01*
X107695904Y-116101809D01*
X107695904Y-116339904D01*
X107648285Y-116435142D01*
X107600666Y-116482761D01*
X107505428Y-116530380D01*
X107219714Y-116530380D01*
X107124476Y-116482761D01*
X107076857Y-116435142D01*
D11*
X121852024Y-85503899D02*
X121852024Y-87189975D01*
X121951205Y-87388337D01*
X122050386Y-87487518D01*
X122248748Y-87586699D01*
X122645472Y-87586699D01*
X122843834Y-87487518D01*
X122943015Y-87388337D01*
X123042196Y-87189975D01*
X123042196Y-85503899D01*
X124926634Y-86198165D02*
X124926634Y-87586699D01*
X124430729Y-85404718D02*
X123934824Y-86892432D01*
X125224177Y-86892432D01*
D19*
X162932775Y-85331420D02*
X163745575Y-85060487D01*
X162932775Y-84789554D01*
X163745575Y-84054163D02*
X163358527Y-84325097D01*
X163745575Y-84518620D02*
X162932775Y-84518620D01*
X162932775Y-84208982D01*
X162971480Y-84131573D01*
X163010184Y-84092868D01*
X163087594Y-84054163D01*
X163203708Y-84054163D01*
X163281118Y-84092868D01*
X163319822Y-84131573D01*
X163358527Y-84208982D01*
X163358527Y-84518620D01*
X163745575Y-83280068D02*
X163745575Y-83744525D01*
X163745575Y-83512297D02*
X162932775Y-83512297D01*
X163048889Y-83589706D01*
X163126299Y-83667116D01*
X163165003Y-83744525D01*
X166229695Y-87253838D02*
X166229695Y-87640885D01*
X165416895Y-87640885D01*
X166229695Y-86982904D02*
X165416895Y-86982904D01*
X165997466Y-86711971D01*
X165416895Y-86441038D01*
X166229695Y-86441038D01*
X165494304Y-86092695D02*
X165455600Y-86053990D01*
X165416895Y-85976580D01*
X165416895Y-85783057D01*
X165455600Y-85705647D01*
X165494304Y-85666942D01*
X165571714Y-85628238D01*
X165649123Y-85628238D01*
X165765238Y-85666942D01*
X166229695Y-86131400D01*
X166229695Y-85628238D01*
X165416895Y-84931552D02*
X165416895Y-85086371D01*
X165455600Y-85163780D01*
X165494304Y-85202485D01*
X165610419Y-85279895D01*
X165765238Y-85318600D01*
X166074876Y-85318600D01*
X166152285Y-85279895D01*
X166190990Y-85241190D01*
X166229695Y-85163780D01*
X166229695Y-85008961D01*
X166190990Y-84931552D01*
X166152285Y-84892847D01*
X166074876Y-84854142D01*
X165881352Y-84854142D01*
X165803942Y-84892847D01*
X165765238Y-84931552D01*
X165726533Y-85008961D01*
X165726533Y-85163780D01*
X165765238Y-85241190D01*
X165803942Y-85279895D01*
X165881352Y-85318600D01*
X165416895Y-84583209D02*
X165416895Y-84041342D01*
X166229695Y-84389685D01*
X166229695Y-83305952D02*
X166229695Y-83770409D01*
X166229695Y-83538180D02*
X165416895Y-83538180D01*
X165533009Y-83615590D01*
X165610419Y-83693000D01*
X165649123Y-83770409D01*
X166190990Y-82996314D02*
X166229695Y-82880200D01*
X166229695Y-82686676D01*
X166190990Y-82609266D01*
X166152285Y-82570561D01*
X166074876Y-82531857D01*
X165997466Y-82531857D01*
X165920057Y-82570561D01*
X165881352Y-82609266D01*
X165842647Y-82686676D01*
X165803942Y-82841495D01*
X165765238Y-82918904D01*
X165726533Y-82957609D01*
X165649123Y-82996314D01*
X165571714Y-82996314D01*
X165494304Y-82957609D01*
X165455600Y-82918904D01*
X165416895Y-82841495D01*
X165416895Y-82647971D01*
X165455600Y-82531857D01*
X165416895Y-82028695D02*
X165416895Y-81873876D01*
X165455600Y-81796466D01*
X165533009Y-81719057D01*
X165687828Y-81680352D01*
X165958761Y-81680352D01*
X166113580Y-81719057D01*
X166190990Y-81796466D01*
X166229695Y-81873876D01*
X166229695Y-82028695D01*
X166190990Y-82106104D01*
X166113580Y-82183514D01*
X165958761Y-82222219D01*
X165687828Y-82222219D01*
X165533009Y-82183514D01*
X165455600Y-82106104D01*
X165416895Y-82028695D01*
X166229695Y-81332009D02*
X165416895Y-81332009D01*
X166152285Y-80480504D02*
X166190990Y-80519209D01*
X166229695Y-80635323D01*
X166229695Y-80712733D01*
X166190990Y-80828847D01*
X166113580Y-80906257D01*
X166036171Y-80944961D01*
X165881352Y-80983666D01*
X165765238Y-80983666D01*
X165610419Y-80944961D01*
X165533009Y-80906257D01*
X165455600Y-80828847D01*
X165416895Y-80712733D01*
X165416895Y-80635323D01*
X165455600Y-80519209D01*
X165494304Y-80480504D01*
X165765238Y-80016047D02*
X165726533Y-80093457D01*
X165687828Y-80132161D01*
X165610419Y-80170866D01*
X165571714Y-80170866D01*
X165494304Y-80132161D01*
X165455600Y-80093457D01*
X165416895Y-80016047D01*
X165416895Y-79861228D01*
X165455600Y-79783819D01*
X165494304Y-79745114D01*
X165571714Y-79706409D01*
X165610419Y-79706409D01*
X165687828Y-79745114D01*
X165726533Y-79783819D01*
X165765238Y-79861228D01*
X165765238Y-80016047D01*
X165803942Y-80093457D01*
X165842647Y-80132161D01*
X165920057Y-80170866D01*
X166074876Y-80170866D01*
X166152285Y-80132161D01*
X166190990Y-80093457D01*
X166229695Y-80016047D01*
X166229695Y-79861228D01*
X166190990Y-79783819D01*
X166152285Y-79745114D01*
X166074876Y-79706409D01*
X165920057Y-79706409D01*
X165842647Y-79745114D01*
X165803942Y-79783819D01*
X165765238Y-79861228D01*
X160803045Y-79048186D02*
X160841750Y-79086891D01*
X160880455Y-79203005D01*
X160880455Y-79280415D01*
X160841750Y-79396529D01*
X160764340Y-79473939D01*
X160686931Y-79512643D01*
X160532112Y-79551348D01*
X160415998Y-79551348D01*
X160261179Y-79512643D01*
X160183769Y-79473939D01*
X160106360Y-79396529D01*
X160067655Y-79280415D01*
X160067655Y-79203005D01*
X160106360Y-79086891D01*
X160145064Y-79048186D01*
X160880455Y-78661139D02*
X160880455Y-78506320D01*
X160841750Y-78428910D01*
X160803045Y-78390205D01*
X160686931Y-78312796D01*
X160532112Y-78274091D01*
X160222474Y-78274091D01*
X160145064Y-78312796D01*
X160106360Y-78351500D01*
X160067655Y-78428910D01*
X160067655Y-78583729D01*
X160106360Y-78661139D01*
X160145064Y-78699843D01*
X160222474Y-78738548D01*
X160415998Y-78738548D01*
X160493407Y-78699843D01*
X160532112Y-78661139D01*
X160570817Y-78583729D01*
X160570817Y-78428910D01*
X160532112Y-78351500D01*
X160493407Y-78312796D01*
X160415998Y-78274091D01*
X164275104Y-77405895D02*
X164275104Y-76941438D01*
X164275104Y-77173666D02*
X165087904Y-77173666D01*
X164971790Y-77096257D01*
X164894380Y-77018847D01*
X164855676Y-76941438D01*
X165087904Y-77909057D02*
X165087904Y-77986466D01*
X165049200Y-78063876D01*
X165010495Y-78102580D01*
X164933085Y-78141285D01*
X164778266Y-78179990D01*
X164584742Y-78179990D01*
X164429923Y-78141285D01*
X164352514Y-78102580D01*
X164313809Y-78063876D01*
X164275104Y-77986466D01*
X164275104Y-77909057D01*
X164313809Y-77831647D01*
X164352514Y-77792942D01*
X164429923Y-77754238D01*
X164584742Y-77715533D01*
X164778266Y-77715533D01*
X164933085Y-77754238D01*
X165010495Y-77792942D01*
X165049200Y-77831647D01*
X165087904Y-77909057D01*
X165087904Y-78683152D02*
X165087904Y-78760561D01*
X165049200Y-78837971D01*
X165010495Y-78876676D01*
X164933085Y-78915380D01*
X164778266Y-78954085D01*
X164584742Y-78954085D01*
X164429923Y-78915380D01*
X164352514Y-78876676D01*
X164313809Y-78837971D01*
X164275104Y-78760561D01*
X164275104Y-78683152D01*
X164313809Y-78605742D01*
X164352514Y-78567038D01*
X164429923Y-78528333D01*
X164584742Y-78489628D01*
X164778266Y-78489628D01*
X164933085Y-78528333D01*
X165010495Y-78567038D01*
X165049200Y-78605742D01*
X165087904Y-78683152D01*
X164816971Y-79302428D02*
X164275104Y-79302428D01*
X164739561Y-79302428D02*
X164778266Y-79341133D01*
X164816971Y-79418542D01*
X164816971Y-79534657D01*
X164778266Y-79612066D01*
X164700857Y-79650771D01*
X164275104Y-79650771D01*
X164700857Y-80308752D02*
X164700857Y-80037819D01*
X164275104Y-80037819D02*
X165087904Y-80037819D01*
X165087904Y-80424866D01*
D14*
X168455702Y-112367785D02*
X168637131Y-112428261D01*
X168697607Y-112488738D01*
X168758083Y-112609690D01*
X168758083Y-112791119D01*
X168697607Y-112912071D01*
X168637131Y-112972547D01*
X168516179Y-113033023D01*
X168032369Y-113033023D01*
X168032369Y-111763023D01*
X168455702Y-111763023D01*
X168576655Y-111823500D01*
X168637131Y-111883976D01*
X168697607Y-112004928D01*
X168697607Y-112125880D01*
X168637131Y-112246833D01*
X168576655Y-112307309D01*
X168455702Y-112367785D01*
X168032369Y-112367785D01*
X169120940Y-111763023D02*
X169846655Y-111763023D01*
X169483798Y-113033023D02*
X169483798Y-111763023D01*
X170935226Y-113033023D02*
X170209512Y-113033023D01*
X170572369Y-113033023D02*
X170572369Y-111763023D01*
X170451417Y-111944452D01*
X170330464Y-112065404D01*
X170209512Y-112125880D01*
D18*
X163684131Y-80617060D02*
X164881560Y-80617060D01*
X165121045Y-80696888D01*
X165280702Y-80856545D01*
X165360531Y-81096031D01*
X165360531Y-81255688D01*
X165360531Y-78940660D02*
X165360531Y-79898602D01*
X165360531Y-79419631D02*
X163684131Y-79419631D01*
X163923617Y-79579288D01*
X164083274Y-79738945D01*
X164163102Y-79898602D01*
D20*
X101520666Y-59015380D02*
X101520666Y-59729666D01*
X101473047Y-59872523D01*
X101377809Y-59967761D01*
X101234952Y-60015380D01*
X101139714Y-60015380D01*
X102473047Y-59015380D02*
X101996857Y-59015380D01*
X101949238Y-59491571D01*
X101996857Y-59443952D01*
X102092095Y-59396333D01*
X102330190Y-59396333D01*
X102425428Y-59443952D01*
X102473047Y-59491571D01*
X102520666Y-59586809D01*
X102520666Y-59824904D01*
X102473047Y-59920142D01*
X102425428Y-59967761D01*
X102330190Y-60015380D01*
X102092095Y-60015380D01*
X101996857Y-59967761D01*
X101949238Y-59920142D01*
D19*
X121395066Y-109155895D02*
X121395066Y-109736466D01*
X121356361Y-109852580D01*
X121278952Y-109929990D01*
X121162838Y-109968695D01*
X121085428Y-109968695D01*
X121743409Y-109233304D02*
X121782114Y-109194600D01*
X121859523Y-109155895D01*
X122053047Y-109155895D01*
X122130457Y-109194600D01*
X122169161Y-109233304D01*
X122207866Y-109310714D01*
X122207866Y-109388123D01*
X122169161Y-109504238D01*
X121704704Y-109968695D01*
X122207866Y-109968695D01*
X102734533Y-84872285D02*
X102695828Y-84910990D01*
X102579714Y-84949695D01*
X102502304Y-84949695D01*
X102386190Y-84910990D01*
X102308780Y-84833580D01*
X102270076Y-84756171D01*
X102231371Y-84601352D01*
X102231371Y-84485238D01*
X102270076Y-84330419D01*
X102308780Y-84253009D01*
X102386190Y-84175600D01*
X102502304Y-84136895D01*
X102579714Y-84136895D01*
X102695828Y-84175600D01*
X102734533Y-84214304D01*
X103508628Y-84949695D02*
X103044171Y-84949695D01*
X103276400Y-84949695D02*
X103276400Y-84136895D01*
X103198990Y-84253009D01*
X103121580Y-84330419D01*
X103044171Y-84369123D01*
X102628095Y-87743695D02*
X102163638Y-87743695D01*
X102395866Y-87743695D02*
X102395866Y-86930895D01*
X102318457Y-87047009D01*
X102241047Y-87124419D01*
X102163638Y-87163123D01*
X103131257Y-86930895D02*
X103208666Y-86930895D01*
X103286076Y-86969600D01*
X103324780Y-87008304D01*
X103363485Y-87085714D01*
X103402190Y-87240533D01*
X103402190Y-87434057D01*
X103363485Y-87588876D01*
X103324780Y-87666285D01*
X103286076Y-87704990D01*
X103208666Y-87743695D01*
X103131257Y-87743695D01*
X103053847Y-87704990D01*
X103015142Y-87666285D01*
X102976438Y-87588876D01*
X102937733Y-87434057D01*
X102937733Y-87240533D01*
X102976438Y-87085714D01*
X103015142Y-87008304D01*
X103053847Y-86969600D01*
X103131257Y-86930895D01*
X103905352Y-86930895D02*
X103982761Y-86930895D01*
X104060171Y-86969600D01*
X104098876Y-87008304D01*
X104137580Y-87085714D01*
X104176285Y-87240533D01*
X104176285Y-87434057D01*
X104137580Y-87588876D01*
X104098876Y-87666285D01*
X104060171Y-87704990D01*
X103982761Y-87743695D01*
X103905352Y-87743695D01*
X103827942Y-87704990D01*
X103789238Y-87666285D01*
X103750533Y-87588876D01*
X103711828Y-87434057D01*
X103711828Y-87240533D01*
X103750533Y-87085714D01*
X103789238Y-87008304D01*
X103827942Y-86969600D01*
X103905352Y-86930895D01*
X104524628Y-87201828D02*
X104524628Y-87743695D01*
X104524628Y-87279238D02*
X104563333Y-87240533D01*
X104640742Y-87201828D01*
X104756857Y-87201828D01*
X104834266Y-87240533D01*
X104872971Y-87317942D01*
X104872971Y-87743695D01*
X105530952Y-87317942D02*
X105260019Y-87317942D01*
X105260019Y-87743695D02*
X105260019Y-86930895D01*
X105647066Y-86930895D01*
X86351533Y-91476285D02*
X86312828Y-91514990D01*
X86196714Y-91553695D01*
X86119304Y-91553695D01*
X86003190Y-91514990D01*
X85925780Y-91437580D01*
X85887076Y-91360171D01*
X85848371Y-91205352D01*
X85848371Y-91089238D01*
X85887076Y-90934419D01*
X85925780Y-90857009D01*
X86003190Y-90779600D01*
X86119304Y-90740895D01*
X86196714Y-90740895D01*
X86312828Y-90779600D01*
X86351533Y-90818304D01*
X86661171Y-90818304D02*
X86699876Y-90779600D01*
X86777285Y-90740895D01*
X86970809Y-90740895D01*
X87048219Y-90779600D01*
X87086923Y-90818304D01*
X87125628Y-90895714D01*
X87125628Y-90973123D01*
X87086923Y-91089238D01*
X86622466Y-91553695D01*
X87125628Y-91553695D01*
X85483095Y-94093695D02*
X85018638Y-94093695D01*
X85250866Y-94093695D02*
X85250866Y-93280895D01*
X85173457Y-93397009D01*
X85096047Y-93474419D01*
X85018638Y-93513123D01*
X85986257Y-93280895D02*
X86063666Y-93280895D01*
X86141076Y-93319600D01*
X86179780Y-93358304D01*
X86218485Y-93435714D01*
X86257190Y-93590533D01*
X86257190Y-93784057D01*
X86218485Y-93938876D01*
X86179780Y-94016285D01*
X86141076Y-94054990D01*
X86063666Y-94093695D01*
X85986257Y-94093695D01*
X85908847Y-94054990D01*
X85870142Y-94016285D01*
X85831438Y-93938876D01*
X85792733Y-93784057D01*
X85792733Y-93590533D01*
X85831438Y-93435714D01*
X85870142Y-93358304D01*
X85908847Y-93319600D01*
X85986257Y-93280895D01*
X86760352Y-93280895D02*
X86837761Y-93280895D01*
X86915171Y-93319600D01*
X86953876Y-93358304D01*
X86992580Y-93435714D01*
X87031285Y-93590533D01*
X87031285Y-93784057D01*
X86992580Y-93938876D01*
X86953876Y-94016285D01*
X86915171Y-94054990D01*
X86837761Y-94093695D01*
X86760352Y-94093695D01*
X86682942Y-94054990D01*
X86644238Y-94016285D01*
X86605533Y-93938876D01*
X86566828Y-93784057D01*
X86566828Y-93590533D01*
X86605533Y-93435714D01*
X86644238Y-93358304D01*
X86682942Y-93319600D01*
X86760352Y-93280895D01*
X87379628Y-93551828D02*
X87379628Y-94093695D01*
X87379628Y-93629238D02*
X87418333Y-93590533D01*
X87495742Y-93551828D01*
X87611857Y-93551828D01*
X87689266Y-93590533D01*
X87727971Y-93667942D01*
X87727971Y-94093695D01*
X88385952Y-93667942D02*
X88115019Y-93667942D01*
X88115019Y-94093695D02*
X88115019Y-93280895D01*
X88502066Y-93280895D01*
X102912333Y-92919005D02*
X102873628Y-92957710D01*
X102757514Y-92996415D01*
X102680104Y-92996415D01*
X102563990Y-92957710D01*
X102486580Y-92880300D01*
X102447876Y-92802891D01*
X102409171Y-92648072D01*
X102409171Y-92531958D01*
X102447876Y-92377139D01*
X102486580Y-92299729D01*
X102563990Y-92222320D01*
X102680104Y-92183615D01*
X102757514Y-92183615D01*
X102873628Y-92222320D01*
X102912333Y-92261024D01*
X103183266Y-92183615D02*
X103686428Y-92183615D01*
X103415495Y-92493253D01*
X103531609Y-92493253D01*
X103609019Y-92531958D01*
X103647723Y-92570662D01*
X103686428Y-92648072D01*
X103686428Y-92841596D01*
X103647723Y-92919005D01*
X103609019Y-92957710D01*
X103531609Y-92996415D01*
X103299380Y-92996415D01*
X103221971Y-92957710D01*
X103183266Y-92919005D01*
X102760175Y-93920975D02*
X102295718Y-93920975D01*
X102527946Y-93920975D02*
X102527946Y-93108175D01*
X102450537Y-93224289D01*
X102373127Y-93301699D01*
X102295718Y-93340403D01*
X103263337Y-93108175D02*
X103340746Y-93108175D01*
X103418156Y-93146880D01*
X103456860Y-93185584D01*
X103495565Y-93262994D01*
X103534270Y-93417813D01*
X103534270Y-93611337D01*
X103495565Y-93766156D01*
X103456860Y-93843565D01*
X103418156Y-93882270D01*
X103340746Y-93920975D01*
X103263337Y-93920975D01*
X103185927Y-93882270D01*
X103147222Y-93843565D01*
X103108518Y-93766156D01*
X103069813Y-93611337D01*
X103069813Y-93417813D01*
X103108518Y-93262994D01*
X103147222Y-93185584D01*
X103185927Y-93146880D01*
X103263337Y-93108175D01*
X104037432Y-93108175D02*
X104114841Y-93108175D01*
X104192251Y-93146880D01*
X104230956Y-93185584D01*
X104269660Y-93262994D01*
X104308365Y-93417813D01*
X104308365Y-93611337D01*
X104269660Y-93766156D01*
X104230956Y-93843565D01*
X104192251Y-93882270D01*
X104114841Y-93920975D01*
X104037432Y-93920975D01*
X103960022Y-93882270D01*
X103921318Y-93843565D01*
X103882613Y-93766156D01*
X103843908Y-93611337D01*
X103843908Y-93417813D01*
X103882613Y-93262994D01*
X103921318Y-93185584D01*
X103960022Y-93146880D01*
X104037432Y-93108175D01*
X104656708Y-93379108D02*
X104656708Y-93920975D01*
X104656708Y-93456518D02*
X104695413Y-93417813D01*
X104772822Y-93379108D01*
X104888937Y-93379108D01*
X104966346Y-93417813D01*
X105005051Y-93495222D01*
X105005051Y-93920975D01*
X105663032Y-93495222D02*
X105392099Y-93495222D01*
X105392099Y-93920975D02*
X105392099Y-93108175D01*
X105779146Y-93108175D01*
X86351533Y-86706165D02*
X86312828Y-86744870D01*
X86196714Y-86783575D01*
X86119304Y-86783575D01*
X86003190Y-86744870D01*
X85925780Y-86667460D01*
X85887076Y-86590051D01*
X85848371Y-86435232D01*
X85848371Y-86319118D01*
X85887076Y-86164299D01*
X85925780Y-86086889D01*
X86003190Y-86009480D01*
X86119304Y-85970775D01*
X86196714Y-85970775D01*
X86312828Y-86009480D01*
X86351533Y-86048184D01*
X87048219Y-86241708D02*
X87048219Y-86783575D01*
X86854695Y-85932070D02*
X86661171Y-86512641D01*
X87164333Y-86512641D01*
X85737095Y-89394695D02*
X85272638Y-89394695D01*
X85504866Y-89394695D02*
X85504866Y-88581895D01*
X85427457Y-88698009D01*
X85350047Y-88775419D01*
X85272638Y-88814123D01*
X86240257Y-88581895D02*
X86317666Y-88581895D01*
X86395076Y-88620600D01*
X86433780Y-88659304D01*
X86472485Y-88736714D01*
X86511190Y-88891533D01*
X86511190Y-89085057D01*
X86472485Y-89239876D01*
X86433780Y-89317285D01*
X86395076Y-89355990D01*
X86317666Y-89394695D01*
X86240257Y-89394695D01*
X86162847Y-89355990D01*
X86124142Y-89317285D01*
X86085438Y-89239876D01*
X86046733Y-89085057D01*
X86046733Y-88891533D01*
X86085438Y-88736714D01*
X86124142Y-88659304D01*
X86162847Y-88620600D01*
X86240257Y-88581895D01*
X87014352Y-88581895D02*
X87091761Y-88581895D01*
X87169171Y-88620600D01*
X87207876Y-88659304D01*
X87246580Y-88736714D01*
X87285285Y-88891533D01*
X87285285Y-89085057D01*
X87246580Y-89239876D01*
X87207876Y-89317285D01*
X87169171Y-89355990D01*
X87091761Y-89394695D01*
X87014352Y-89394695D01*
X86936942Y-89355990D01*
X86898238Y-89317285D01*
X86859533Y-89239876D01*
X86820828Y-89085057D01*
X86820828Y-88891533D01*
X86859533Y-88736714D01*
X86898238Y-88659304D01*
X86936942Y-88620600D01*
X87014352Y-88581895D01*
X87633628Y-88852828D02*
X87633628Y-89394695D01*
X87633628Y-88930238D02*
X87672333Y-88891533D01*
X87749742Y-88852828D01*
X87865857Y-88852828D01*
X87943266Y-88891533D01*
X87981971Y-88968942D01*
X87981971Y-89394695D01*
X88639952Y-88968942D02*
X88369019Y-88968942D01*
X88369019Y-89394695D02*
X88369019Y-88581895D01*
X88756066Y-88581895D01*
X105655533Y-96175285D02*
X105616828Y-96213990D01*
X105500714Y-96252695D01*
X105423304Y-96252695D01*
X105307190Y-96213990D01*
X105229780Y-96136580D01*
X105191076Y-96059171D01*
X105152371Y-95904352D01*
X105152371Y-95788238D01*
X105191076Y-95633419D01*
X105229780Y-95556009D01*
X105307190Y-95478600D01*
X105423304Y-95439895D01*
X105500714Y-95439895D01*
X105616828Y-95478600D01*
X105655533Y-95517304D01*
X106390923Y-95439895D02*
X106003876Y-95439895D01*
X105965171Y-95826942D01*
X106003876Y-95788238D01*
X106081285Y-95749533D01*
X106274809Y-95749533D01*
X106352219Y-95788238D01*
X106390923Y-95826942D01*
X106429628Y-95904352D01*
X106429628Y-96097876D01*
X106390923Y-96175285D01*
X106352219Y-96213990D01*
X106274809Y-96252695D01*
X106081285Y-96252695D01*
X106003876Y-96213990D01*
X105965171Y-96175285D01*
X103263095Y-98157695D02*
X102798638Y-98157695D01*
X103030866Y-98157695D02*
X103030866Y-97344895D01*
X102953457Y-97461009D01*
X102876047Y-97538419D01*
X102798638Y-97577123D01*
X103766257Y-97344895D02*
X103843666Y-97344895D01*
X103921076Y-97383600D01*
X103959780Y-97422304D01*
X103998485Y-97499714D01*
X104037190Y-97654533D01*
X104037190Y-97848057D01*
X103998485Y-98002876D01*
X103959780Y-98080285D01*
X103921076Y-98118990D01*
X103843666Y-98157695D01*
X103766257Y-98157695D01*
X103688847Y-98118990D01*
X103650142Y-98080285D01*
X103611438Y-98002876D01*
X103572733Y-97848057D01*
X103572733Y-97654533D01*
X103611438Y-97499714D01*
X103650142Y-97422304D01*
X103688847Y-97383600D01*
X103766257Y-97344895D01*
X104540352Y-97344895D02*
X104617761Y-97344895D01*
X104695171Y-97383600D01*
X104733876Y-97422304D01*
X104772580Y-97499714D01*
X104811285Y-97654533D01*
X104811285Y-97848057D01*
X104772580Y-98002876D01*
X104733876Y-98080285D01*
X104695171Y-98118990D01*
X104617761Y-98157695D01*
X104540352Y-98157695D01*
X104462942Y-98118990D01*
X104424238Y-98080285D01*
X104385533Y-98002876D01*
X104346828Y-97848057D01*
X104346828Y-97654533D01*
X104385533Y-97499714D01*
X104424238Y-97422304D01*
X104462942Y-97383600D01*
X104540352Y-97344895D01*
X105159628Y-97615828D02*
X105159628Y-98157695D01*
X105159628Y-97693238D02*
X105198333Y-97654533D01*
X105275742Y-97615828D01*
X105391857Y-97615828D01*
X105469266Y-97654533D01*
X105507971Y-97731942D01*
X105507971Y-98157695D01*
X106165952Y-97731942D02*
X105895019Y-97731942D01*
X105895019Y-98157695D02*
X105895019Y-97344895D01*
X106282066Y-97344895D01*
X102861533Y-89190285D02*
X102822828Y-89228990D01*
X102706714Y-89267695D01*
X102629304Y-89267695D01*
X102513190Y-89228990D01*
X102435780Y-89151580D01*
X102397076Y-89074171D01*
X102358371Y-88919352D01*
X102358371Y-88803238D01*
X102397076Y-88648419D01*
X102435780Y-88571009D01*
X102513190Y-88493600D01*
X102629304Y-88454895D01*
X102706714Y-88454895D01*
X102822828Y-88493600D01*
X102861533Y-88532304D01*
X103558219Y-88454895D02*
X103403400Y-88454895D01*
X103325990Y-88493600D01*
X103287285Y-88532304D01*
X103209876Y-88648419D01*
X103171171Y-88803238D01*
X103171171Y-89112876D01*
X103209876Y-89190285D01*
X103248580Y-89228990D01*
X103325990Y-89267695D01*
X103480809Y-89267695D01*
X103558219Y-89228990D01*
X103596923Y-89190285D01*
X103635628Y-89112876D01*
X103635628Y-88919352D01*
X103596923Y-88841942D01*
X103558219Y-88803238D01*
X103480809Y-88764533D01*
X103325990Y-88764533D01*
X103248580Y-88803238D01*
X103209876Y-88841942D01*
X103171171Y-88919352D01*
X103009095Y-91680695D02*
X102544638Y-91680695D01*
X102776866Y-91680695D02*
X102776866Y-90867895D01*
X102699457Y-90984009D01*
X102622047Y-91061419D01*
X102544638Y-91100123D01*
X103512257Y-90867895D02*
X103589666Y-90867895D01*
X103667076Y-90906600D01*
X103705780Y-90945304D01*
X103744485Y-91022714D01*
X103783190Y-91177533D01*
X103783190Y-91371057D01*
X103744485Y-91525876D01*
X103705780Y-91603285D01*
X103667076Y-91641990D01*
X103589666Y-91680695D01*
X103512257Y-91680695D01*
X103434847Y-91641990D01*
X103396142Y-91603285D01*
X103357438Y-91525876D01*
X103318733Y-91371057D01*
X103318733Y-91177533D01*
X103357438Y-91022714D01*
X103396142Y-90945304D01*
X103434847Y-90906600D01*
X103512257Y-90867895D01*
X104286352Y-90867895D02*
X104363761Y-90867895D01*
X104441171Y-90906600D01*
X104479876Y-90945304D01*
X104518580Y-91022714D01*
X104557285Y-91177533D01*
X104557285Y-91371057D01*
X104518580Y-91525876D01*
X104479876Y-91603285D01*
X104441171Y-91641990D01*
X104363761Y-91680695D01*
X104286352Y-91680695D01*
X104208942Y-91641990D01*
X104170238Y-91603285D01*
X104131533Y-91525876D01*
X104092828Y-91371057D01*
X104092828Y-91177533D01*
X104131533Y-91022714D01*
X104170238Y-90945304D01*
X104208942Y-90906600D01*
X104286352Y-90867895D01*
X104905628Y-91138828D02*
X104905628Y-91680695D01*
X104905628Y-91216238D02*
X104944333Y-91177533D01*
X105021742Y-91138828D01*
X105137857Y-91138828D01*
X105215266Y-91177533D01*
X105253971Y-91254942D01*
X105253971Y-91680695D01*
X105911952Y-91254942D02*
X105641019Y-91254942D01*
X105641019Y-91680695D02*
X105641019Y-90867895D01*
X106028066Y-90867895D01*
X102861533Y-72553285D02*
X102822828Y-72591990D01*
X102706714Y-72630695D01*
X102629304Y-72630695D01*
X102513190Y-72591990D01*
X102435780Y-72514580D01*
X102397076Y-72437171D01*
X102358371Y-72282352D01*
X102358371Y-72166238D01*
X102397076Y-72011419D01*
X102435780Y-71934009D01*
X102513190Y-71856600D01*
X102629304Y-71817895D01*
X102706714Y-71817895D01*
X102822828Y-71856600D01*
X102861533Y-71895304D01*
X103132466Y-71817895D02*
X103674333Y-71817895D01*
X103325990Y-72630695D01*
X102755095Y-73773695D02*
X102290638Y-73773695D01*
X102522866Y-73773695D02*
X102522866Y-72960895D01*
X102445457Y-73077009D01*
X102368047Y-73154419D01*
X102290638Y-73193123D01*
X103258257Y-72960895D02*
X103335666Y-72960895D01*
X103413076Y-72999600D01*
X103451780Y-73038304D01*
X103490485Y-73115714D01*
X103529190Y-73270533D01*
X103529190Y-73464057D01*
X103490485Y-73618876D01*
X103451780Y-73696285D01*
X103413076Y-73734990D01*
X103335666Y-73773695D01*
X103258257Y-73773695D01*
X103180847Y-73734990D01*
X103142142Y-73696285D01*
X103103438Y-73618876D01*
X103064733Y-73464057D01*
X103064733Y-73270533D01*
X103103438Y-73115714D01*
X103142142Y-73038304D01*
X103180847Y-72999600D01*
X103258257Y-72960895D01*
X104032352Y-72960895D02*
X104109761Y-72960895D01*
X104187171Y-72999600D01*
X104225876Y-73038304D01*
X104264580Y-73115714D01*
X104303285Y-73270533D01*
X104303285Y-73464057D01*
X104264580Y-73618876D01*
X104225876Y-73696285D01*
X104187171Y-73734990D01*
X104109761Y-73773695D01*
X104032352Y-73773695D01*
X103954942Y-73734990D01*
X103916238Y-73696285D01*
X103877533Y-73618876D01*
X103838828Y-73464057D01*
X103838828Y-73270533D01*
X103877533Y-73115714D01*
X103916238Y-73038304D01*
X103954942Y-72999600D01*
X104032352Y-72960895D01*
X104651628Y-73231828D02*
X104651628Y-73773695D01*
X104651628Y-73309238D02*
X104690333Y-73270533D01*
X104767742Y-73231828D01*
X104883857Y-73231828D01*
X104961266Y-73270533D01*
X104999971Y-73347942D01*
X104999971Y-73773695D01*
X105657952Y-73347942D02*
X105387019Y-73347942D01*
X105387019Y-73773695D02*
X105387019Y-72960895D01*
X105774066Y-72960895D01*
X127499533Y-57694285D02*
X127460828Y-57732990D01*
X127344714Y-57771695D01*
X127267304Y-57771695D01*
X127151190Y-57732990D01*
X127073780Y-57655580D01*
X127035076Y-57578171D01*
X126996371Y-57423352D01*
X126996371Y-57307238D01*
X127035076Y-57152419D01*
X127073780Y-57075009D01*
X127151190Y-56997600D01*
X127267304Y-56958895D01*
X127344714Y-56958895D01*
X127460828Y-56997600D01*
X127499533Y-57036304D01*
X127963990Y-57307238D02*
X127886580Y-57268533D01*
X127847876Y-57229828D01*
X127809171Y-57152419D01*
X127809171Y-57113714D01*
X127847876Y-57036304D01*
X127886580Y-56997600D01*
X127963990Y-56958895D01*
X128118809Y-56958895D01*
X128196219Y-56997600D01*
X128234923Y-57036304D01*
X128273628Y-57113714D01*
X128273628Y-57152419D01*
X128234923Y-57229828D01*
X128196219Y-57268533D01*
X128118809Y-57307238D01*
X127963990Y-57307238D01*
X127886580Y-57345942D01*
X127847876Y-57384647D01*
X127809171Y-57462057D01*
X127809171Y-57616876D01*
X127847876Y-57694285D01*
X127886580Y-57732990D01*
X127963990Y-57771695D01*
X128118809Y-57771695D01*
X128196219Y-57732990D01*
X128234923Y-57694285D01*
X128273628Y-57616876D01*
X128273628Y-57462057D01*
X128234923Y-57384647D01*
X128196219Y-57345942D01*
X128118809Y-57307238D01*
X127393095Y-58914695D02*
X126928638Y-58914695D01*
X127160866Y-58914695D02*
X127160866Y-58101895D01*
X127083457Y-58218009D01*
X127006047Y-58295419D01*
X126928638Y-58334123D01*
X127896257Y-58101895D02*
X127973666Y-58101895D01*
X128051076Y-58140600D01*
X128089780Y-58179304D01*
X128128485Y-58256714D01*
X128167190Y-58411533D01*
X128167190Y-58605057D01*
X128128485Y-58759876D01*
X128089780Y-58837285D01*
X128051076Y-58875990D01*
X127973666Y-58914695D01*
X127896257Y-58914695D01*
X127818847Y-58875990D01*
X127780142Y-58837285D01*
X127741438Y-58759876D01*
X127702733Y-58605057D01*
X127702733Y-58411533D01*
X127741438Y-58256714D01*
X127780142Y-58179304D01*
X127818847Y-58140600D01*
X127896257Y-58101895D01*
X128670352Y-58101895D02*
X128747761Y-58101895D01*
X128825171Y-58140600D01*
X128863876Y-58179304D01*
X128902580Y-58256714D01*
X128941285Y-58411533D01*
X128941285Y-58605057D01*
X128902580Y-58759876D01*
X128863876Y-58837285D01*
X128825171Y-58875990D01*
X128747761Y-58914695D01*
X128670352Y-58914695D01*
X128592942Y-58875990D01*
X128554238Y-58837285D01*
X128515533Y-58759876D01*
X128476828Y-58605057D01*
X128476828Y-58411533D01*
X128515533Y-58256714D01*
X128554238Y-58179304D01*
X128592942Y-58140600D01*
X128670352Y-58101895D01*
X129289628Y-58372828D02*
X129289628Y-58914695D01*
X129289628Y-58450238D02*
X129328333Y-58411533D01*
X129405742Y-58372828D01*
X129521857Y-58372828D01*
X129599266Y-58411533D01*
X129637971Y-58488942D01*
X129637971Y-58914695D01*
X130295952Y-58488942D02*
X130025019Y-58488942D01*
X130025019Y-58914695D02*
X130025019Y-58101895D01*
X130412066Y-58101895D01*
X157762665Y-84723514D02*
X157801370Y-84762219D01*
X157840075Y-84878333D01*
X157840075Y-84955742D01*
X157801370Y-85071857D01*
X157723960Y-85149266D01*
X157646551Y-85187971D01*
X157491732Y-85226676D01*
X157375618Y-85226676D01*
X157220799Y-85187971D01*
X157143389Y-85149266D01*
X157065980Y-85071857D01*
X157027275Y-84955742D01*
X157027275Y-84878333D01*
X157065980Y-84762219D01*
X157104684Y-84723514D01*
X157840075Y-83949419D02*
X157840075Y-84413876D01*
X157840075Y-84181647D02*
X157027275Y-84181647D01*
X157143389Y-84259057D01*
X157220799Y-84336466D01*
X157259503Y-84413876D01*
X157840075Y-83175323D02*
X157840075Y-83639780D01*
X157840075Y-83407552D02*
X157027275Y-83407552D01*
X157143389Y-83484961D01*
X157220799Y-83562371D01*
X157259503Y-83639780D01*
X156831695Y-85071857D02*
X156831695Y-85536314D01*
X156831695Y-85304085D02*
X156018895Y-85304085D01*
X156135009Y-85381495D01*
X156212419Y-85458904D01*
X156251123Y-85536314D01*
X156018895Y-84568695D02*
X156018895Y-84491285D01*
X156057600Y-84413876D01*
X156096304Y-84375171D01*
X156173714Y-84336466D01*
X156328533Y-84297761D01*
X156522057Y-84297761D01*
X156676876Y-84336466D01*
X156754285Y-84375171D01*
X156792990Y-84413876D01*
X156831695Y-84491285D01*
X156831695Y-84568695D01*
X156792990Y-84646104D01*
X156754285Y-84684809D01*
X156676876Y-84723514D01*
X156522057Y-84762219D01*
X156328533Y-84762219D01*
X156173714Y-84723514D01*
X156096304Y-84684809D01*
X156057600Y-84646104D01*
X156018895Y-84568695D01*
X156289828Y-83949419D02*
X156831695Y-83949419D01*
X156367238Y-83949419D02*
X156328533Y-83910714D01*
X156289828Y-83833304D01*
X156289828Y-83717190D01*
X156328533Y-83639780D01*
X156405942Y-83601076D01*
X156831695Y-83601076D01*
X156405942Y-82943095D02*
X156405942Y-83214028D01*
X156831695Y-83214028D02*
X156018895Y-83214028D01*
X156018895Y-82826980D01*
X140193485Y-60615285D02*
X140154780Y-60653990D01*
X140038666Y-60692695D01*
X139961257Y-60692695D01*
X139845142Y-60653990D01*
X139767733Y-60576580D01*
X139729028Y-60499171D01*
X139690323Y-60344352D01*
X139690323Y-60228238D01*
X139729028Y-60073419D01*
X139767733Y-59996009D01*
X139845142Y-59918600D01*
X139961257Y-59879895D01*
X140038666Y-59879895D01*
X140154780Y-59918600D01*
X140193485Y-59957304D01*
X140967580Y-60692695D02*
X140503123Y-60692695D01*
X140735352Y-60692695D02*
X140735352Y-59879895D01*
X140657942Y-59996009D01*
X140580533Y-60073419D01*
X140503123Y-60112123D01*
X141238514Y-59879895D02*
X141741676Y-59879895D01*
X141470742Y-60189533D01*
X141586857Y-60189533D01*
X141664266Y-60228238D01*
X141702971Y-60266942D01*
X141741676Y-60344352D01*
X141741676Y-60537876D01*
X141702971Y-60615285D01*
X141664266Y-60653990D01*
X141586857Y-60692695D01*
X141354628Y-60692695D01*
X141277219Y-60653990D01*
X141238514Y-60615285D01*
X140220095Y-61708695D02*
X139755638Y-61708695D01*
X139987866Y-61708695D02*
X139987866Y-60895895D01*
X139910457Y-61012009D01*
X139833047Y-61089419D01*
X139755638Y-61128123D01*
X140723257Y-60895895D02*
X140800666Y-60895895D01*
X140878076Y-60934600D01*
X140916780Y-60973304D01*
X140955485Y-61050714D01*
X140994190Y-61205533D01*
X140994190Y-61399057D01*
X140955485Y-61553876D01*
X140916780Y-61631285D01*
X140878076Y-61669990D01*
X140800666Y-61708695D01*
X140723257Y-61708695D01*
X140645847Y-61669990D01*
X140607142Y-61631285D01*
X140568438Y-61553876D01*
X140529733Y-61399057D01*
X140529733Y-61205533D01*
X140568438Y-61050714D01*
X140607142Y-60973304D01*
X140645847Y-60934600D01*
X140723257Y-60895895D01*
X141497352Y-60895895D02*
X141574761Y-60895895D01*
X141652171Y-60934600D01*
X141690876Y-60973304D01*
X141729580Y-61050714D01*
X141768285Y-61205533D01*
X141768285Y-61399057D01*
X141729580Y-61553876D01*
X141690876Y-61631285D01*
X141652171Y-61669990D01*
X141574761Y-61708695D01*
X141497352Y-61708695D01*
X141419942Y-61669990D01*
X141381238Y-61631285D01*
X141342533Y-61553876D01*
X141303828Y-61399057D01*
X141303828Y-61205533D01*
X141342533Y-61050714D01*
X141381238Y-60973304D01*
X141419942Y-60934600D01*
X141497352Y-60895895D01*
X142116628Y-61166828D02*
X142116628Y-61708695D01*
X142116628Y-61244238D02*
X142155333Y-61205533D01*
X142232742Y-61166828D01*
X142348857Y-61166828D01*
X142426266Y-61205533D01*
X142464971Y-61282942D01*
X142464971Y-61708695D01*
X143122952Y-61282942D02*
X142852019Y-61282942D01*
X142852019Y-61708695D02*
X142852019Y-60895895D01*
X143239066Y-60895895D01*
X142098485Y-79665285D02*
X142059780Y-79703990D01*
X141943666Y-79742695D01*
X141866257Y-79742695D01*
X141750142Y-79703990D01*
X141672733Y-79626580D01*
X141634028Y-79549171D01*
X141595323Y-79394352D01*
X141595323Y-79278238D01*
X141634028Y-79123419D01*
X141672733Y-79046009D01*
X141750142Y-78968600D01*
X141866257Y-78929895D01*
X141943666Y-78929895D01*
X142059780Y-78968600D01*
X142098485Y-79007304D01*
X142872580Y-79742695D02*
X142408123Y-79742695D01*
X142640352Y-79742695D02*
X142640352Y-78929895D01*
X142562942Y-79046009D01*
X142485533Y-79123419D01*
X142408123Y-79162123D01*
X143569266Y-79200828D02*
X143569266Y-79742695D01*
X143375742Y-78891190D02*
X143182219Y-79471761D01*
X143685380Y-79471761D01*
X145173095Y-81012695D02*
X144708638Y-81012695D01*
X144940866Y-81012695D02*
X144940866Y-80199895D01*
X144863457Y-80316009D01*
X144786047Y-80393419D01*
X144708638Y-80432123D01*
X145676257Y-80199895D02*
X145753666Y-80199895D01*
X145831076Y-80238600D01*
X145869780Y-80277304D01*
X145908485Y-80354714D01*
X145947190Y-80509533D01*
X145947190Y-80703057D01*
X145908485Y-80857876D01*
X145869780Y-80935285D01*
X145831076Y-80973990D01*
X145753666Y-81012695D01*
X145676257Y-81012695D01*
X145598847Y-80973990D01*
X145560142Y-80935285D01*
X145521438Y-80857876D01*
X145482733Y-80703057D01*
X145482733Y-80509533D01*
X145521438Y-80354714D01*
X145560142Y-80277304D01*
X145598847Y-80238600D01*
X145676257Y-80199895D01*
X146450352Y-80199895D02*
X146527761Y-80199895D01*
X146605171Y-80238600D01*
X146643876Y-80277304D01*
X146682580Y-80354714D01*
X146721285Y-80509533D01*
X146721285Y-80703057D01*
X146682580Y-80857876D01*
X146643876Y-80935285D01*
X146605171Y-80973990D01*
X146527761Y-81012695D01*
X146450352Y-81012695D01*
X146372942Y-80973990D01*
X146334238Y-80935285D01*
X146295533Y-80857876D01*
X146256828Y-80703057D01*
X146256828Y-80509533D01*
X146295533Y-80354714D01*
X146334238Y-80277304D01*
X146372942Y-80238600D01*
X146450352Y-80199895D01*
X147069628Y-80470828D02*
X147069628Y-81012695D01*
X147069628Y-80548238D02*
X147108333Y-80509533D01*
X147185742Y-80470828D01*
X147301857Y-80470828D01*
X147379266Y-80509533D01*
X147417971Y-80586942D01*
X147417971Y-81012695D01*
X148075952Y-80586942D02*
X147805019Y-80586942D01*
X147805019Y-81012695D02*
X147805019Y-80199895D01*
X148192066Y-80199895D01*
X132827485Y-65695285D02*
X132788780Y-65733990D01*
X132672666Y-65772695D01*
X132595257Y-65772695D01*
X132479142Y-65733990D01*
X132401733Y-65656580D01*
X132363028Y-65579171D01*
X132324323Y-65424352D01*
X132324323Y-65308238D01*
X132363028Y-65153419D01*
X132401733Y-65076009D01*
X132479142Y-64998600D01*
X132595257Y-64959895D01*
X132672666Y-64959895D01*
X132788780Y-64998600D01*
X132827485Y-65037304D01*
X133601580Y-65772695D02*
X133137123Y-65772695D01*
X133369352Y-65772695D02*
X133369352Y-64959895D01*
X133291942Y-65076009D01*
X133214533Y-65153419D01*
X133137123Y-65192123D01*
X134336971Y-64959895D02*
X133949923Y-64959895D01*
X133911219Y-65346942D01*
X133949923Y-65308238D01*
X134027333Y-65269533D01*
X134220857Y-65269533D01*
X134298266Y-65308238D01*
X134336971Y-65346942D01*
X134375676Y-65424352D01*
X134375676Y-65617876D01*
X134336971Y-65695285D01*
X134298266Y-65733990D01*
X134220857Y-65772695D01*
X134027333Y-65772695D01*
X133949923Y-65733990D01*
X133911219Y-65695285D01*
X131838095Y-66915695D02*
X131373638Y-66915695D01*
X131605866Y-66915695D02*
X131605866Y-66102895D01*
X131528457Y-66219009D01*
X131451047Y-66296419D01*
X131373638Y-66335123D01*
X132341257Y-66102895D02*
X132418666Y-66102895D01*
X132496076Y-66141600D01*
X132534780Y-66180304D01*
X132573485Y-66257714D01*
X132612190Y-66412533D01*
X132612190Y-66606057D01*
X132573485Y-66760876D01*
X132534780Y-66838285D01*
X132496076Y-66876990D01*
X132418666Y-66915695D01*
X132341257Y-66915695D01*
X132263847Y-66876990D01*
X132225142Y-66838285D01*
X132186438Y-66760876D01*
X132147733Y-66606057D01*
X132147733Y-66412533D01*
X132186438Y-66257714D01*
X132225142Y-66180304D01*
X132263847Y-66141600D01*
X132341257Y-66102895D01*
X133115352Y-66102895D02*
X133192761Y-66102895D01*
X133270171Y-66141600D01*
X133308876Y-66180304D01*
X133347580Y-66257714D01*
X133386285Y-66412533D01*
X133386285Y-66606057D01*
X133347580Y-66760876D01*
X133308876Y-66838285D01*
X133270171Y-66876990D01*
X133192761Y-66915695D01*
X133115352Y-66915695D01*
X133037942Y-66876990D01*
X132999238Y-66838285D01*
X132960533Y-66760876D01*
X132921828Y-66606057D01*
X132921828Y-66412533D01*
X132960533Y-66257714D01*
X132999238Y-66180304D01*
X133037942Y-66141600D01*
X133115352Y-66102895D01*
X133734628Y-66373828D02*
X133734628Y-66915695D01*
X133734628Y-66451238D02*
X133773333Y-66412533D01*
X133850742Y-66373828D01*
X133966857Y-66373828D01*
X134044266Y-66412533D01*
X134082971Y-66489942D01*
X134082971Y-66915695D01*
X134740952Y-66489942D02*
X134470019Y-66489942D01*
X134470019Y-66915695D02*
X134470019Y-66102895D01*
X134857066Y-66102895D01*
X120686285Y-103900514D02*
X120724990Y-103939219D01*
X120763695Y-104055333D01*
X120763695Y-104132742D01*
X120724990Y-104248857D01*
X120647580Y-104326266D01*
X120570171Y-104364971D01*
X120415352Y-104403676D01*
X120299238Y-104403676D01*
X120144419Y-104364971D01*
X120067009Y-104326266D01*
X119989600Y-104248857D01*
X119950895Y-104132742D01*
X119950895Y-104055333D01*
X119989600Y-103939219D01*
X120028304Y-103900514D01*
X120763695Y-103126419D02*
X120763695Y-103590876D01*
X120763695Y-103358647D02*
X119950895Y-103358647D01*
X120067009Y-103436057D01*
X120144419Y-103513466D01*
X120183123Y-103590876D01*
X119950895Y-102429733D02*
X119950895Y-102584552D01*
X119989600Y-102661961D01*
X120028304Y-102700666D01*
X120144419Y-102778076D01*
X120299238Y-102816780D01*
X120608876Y-102816780D01*
X120686285Y-102778076D01*
X120724990Y-102739371D01*
X120763695Y-102661961D01*
X120763695Y-102507142D01*
X120724990Y-102429733D01*
X120686285Y-102391028D01*
X120608876Y-102352323D01*
X120415352Y-102352323D01*
X120337942Y-102391028D01*
X120299238Y-102429733D01*
X120260533Y-102507142D01*
X120260533Y-102661961D01*
X120299238Y-102739371D01*
X120337942Y-102778076D01*
X120415352Y-102816780D01*
X119265095Y-105650695D02*
X118800638Y-105650695D01*
X119032866Y-105650695D02*
X119032866Y-104837895D01*
X118955457Y-104954009D01*
X118878047Y-105031419D01*
X118800638Y-105070123D01*
X119768257Y-104837895D02*
X119845666Y-104837895D01*
X119923076Y-104876600D01*
X119961780Y-104915304D01*
X120000485Y-104992714D01*
X120039190Y-105147533D01*
X120039190Y-105341057D01*
X120000485Y-105495876D01*
X119961780Y-105573285D01*
X119923076Y-105611990D01*
X119845666Y-105650695D01*
X119768257Y-105650695D01*
X119690847Y-105611990D01*
X119652142Y-105573285D01*
X119613438Y-105495876D01*
X119574733Y-105341057D01*
X119574733Y-105147533D01*
X119613438Y-104992714D01*
X119652142Y-104915304D01*
X119690847Y-104876600D01*
X119768257Y-104837895D01*
X120542352Y-104837895D02*
X120619761Y-104837895D01*
X120697171Y-104876600D01*
X120735876Y-104915304D01*
X120774580Y-104992714D01*
X120813285Y-105147533D01*
X120813285Y-105341057D01*
X120774580Y-105495876D01*
X120735876Y-105573285D01*
X120697171Y-105611990D01*
X120619761Y-105650695D01*
X120542352Y-105650695D01*
X120464942Y-105611990D01*
X120426238Y-105573285D01*
X120387533Y-105495876D01*
X120348828Y-105341057D01*
X120348828Y-105147533D01*
X120387533Y-104992714D01*
X120426238Y-104915304D01*
X120464942Y-104876600D01*
X120542352Y-104837895D01*
X121161628Y-105108828D02*
X121161628Y-105650695D01*
X121161628Y-105186238D02*
X121200333Y-105147533D01*
X121277742Y-105108828D01*
X121393857Y-105108828D01*
X121471266Y-105147533D01*
X121509971Y-105224942D01*
X121509971Y-105650695D01*
X122167952Y-105224942D02*
X121897019Y-105224942D01*
X121897019Y-105650695D02*
X121897019Y-104837895D01*
X122284066Y-104837895D01*
X125080485Y-68997285D02*
X125041780Y-69035990D01*
X124925666Y-69074695D01*
X124848257Y-69074695D01*
X124732142Y-69035990D01*
X124654733Y-68958580D01*
X124616028Y-68881171D01*
X124577323Y-68726352D01*
X124577323Y-68610238D01*
X124616028Y-68455419D01*
X124654733Y-68378009D01*
X124732142Y-68300600D01*
X124848257Y-68261895D01*
X124925666Y-68261895D01*
X125041780Y-68300600D01*
X125080485Y-68339304D01*
X125854580Y-69074695D02*
X125390123Y-69074695D01*
X125622352Y-69074695D02*
X125622352Y-68261895D01*
X125544942Y-68378009D01*
X125467533Y-68455419D01*
X125390123Y-68494123D01*
X126125514Y-68261895D02*
X126667380Y-68261895D01*
X126319038Y-69074695D01*
X123583095Y-70090695D02*
X123118638Y-70090695D01*
X123350866Y-70090695D02*
X123350866Y-69277895D01*
X123273457Y-69394009D01*
X123196047Y-69471419D01*
X123118638Y-69510123D01*
X124086257Y-69277895D02*
X124163666Y-69277895D01*
X124241076Y-69316600D01*
X124279780Y-69355304D01*
X124318485Y-69432714D01*
X124357190Y-69587533D01*
X124357190Y-69781057D01*
X124318485Y-69935876D01*
X124279780Y-70013285D01*
X124241076Y-70051990D01*
X124163666Y-70090695D01*
X124086257Y-70090695D01*
X124008847Y-70051990D01*
X123970142Y-70013285D01*
X123931438Y-69935876D01*
X123892733Y-69781057D01*
X123892733Y-69587533D01*
X123931438Y-69432714D01*
X123970142Y-69355304D01*
X124008847Y-69316600D01*
X124086257Y-69277895D01*
X124860352Y-69277895D02*
X124937761Y-69277895D01*
X125015171Y-69316600D01*
X125053876Y-69355304D01*
X125092580Y-69432714D01*
X125131285Y-69587533D01*
X125131285Y-69781057D01*
X125092580Y-69935876D01*
X125053876Y-70013285D01*
X125015171Y-70051990D01*
X124937761Y-70090695D01*
X124860352Y-70090695D01*
X124782942Y-70051990D01*
X124744238Y-70013285D01*
X124705533Y-69935876D01*
X124666828Y-69781057D01*
X124666828Y-69587533D01*
X124705533Y-69432714D01*
X124744238Y-69355304D01*
X124782942Y-69316600D01*
X124860352Y-69277895D01*
X125479628Y-69548828D02*
X125479628Y-70090695D01*
X125479628Y-69626238D02*
X125518333Y-69587533D01*
X125595742Y-69548828D01*
X125711857Y-69548828D01*
X125789266Y-69587533D01*
X125827971Y-69664942D01*
X125827971Y-70090695D01*
X126485952Y-69664942D02*
X126215019Y-69664942D01*
X126215019Y-70090695D02*
X126215019Y-69277895D01*
X126602066Y-69277895D01*
X116571485Y-102906285D02*
X116532780Y-102944990D01*
X116416666Y-102983695D01*
X116339257Y-102983695D01*
X116223142Y-102944990D01*
X116145733Y-102867580D01*
X116107028Y-102790171D01*
X116068323Y-102635352D01*
X116068323Y-102519238D01*
X116107028Y-102364419D01*
X116145733Y-102287009D01*
X116223142Y-102209600D01*
X116339257Y-102170895D01*
X116416666Y-102170895D01*
X116532780Y-102209600D01*
X116571485Y-102248304D01*
X117345580Y-102983695D02*
X116881123Y-102983695D01*
X117113352Y-102983695D02*
X117113352Y-102170895D01*
X117035942Y-102287009D01*
X116958533Y-102364419D01*
X116881123Y-102403123D01*
X117810038Y-102519238D02*
X117732628Y-102480533D01*
X117693923Y-102441828D01*
X117655219Y-102364419D01*
X117655219Y-102325714D01*
X117693923Y-102248304D01*
X117732628Y-102209600D01*
X117810038Y-102170895D01*
X117964857Y-102170895D01*
X118042266Y-102209600D01*
X118080971Y-102248304D01*
X118119676Y-102325714D01*
X118119676Y-102364419D01*
X118080971Y-102441828D01*
X118042266Y-102480533D01*
X117964857Y-102519238D01*
X117810038Y-102519238D01*
X117732628Y-102557942D01*
X117693923Y-102596647D01*
X117655219Y-102674057D01*
X117655219Y-102828876D01*
X117693923Y-102906285D01*
X117732628Y-102944990D01*
X117810038Y-102983695D01*
X117964857Y-102983695D01*
X118042266Y-102944990D01*
X118080971Y-102906285D01*
X118119676Y-102828876D01*
X118119676Y-102674057D01*
X118080971Y-102596647D01*
X118042266Y-102557942D01*
X117964857Y-102519238D01*
X115328095Y-104253695D02*
X114863638Y-104253695D01*
X115095866Y-104253695D02*
X115095866Y-103440895D01*
X115018457Y-103557009D01*
X114941047Y-103634419D01*
X114863638Y-103673123D01*
X115831257Y-103440895D02*
X115908666Y-103440895D01*
X115986076Y-103479600D01*
X116024780Y-103518304D01*
X116063485Y-103595714D01*
X116102190Y-103750533D01*
X116102190Y-103944057D01*
X116063485Y-104098876D01*
X116024780Y-104176285D01*
X115986076Y-104214990D01*
X115908666Y-104253695D01*
X115831257Y-104253695D01*
X115753847Y-104214990D01*
X115715142Y-104176285D01*
X115676438Y-104098876D01*
X115637733Y-103944057D01*
X115637733Y-103750533D01*
X115676438Y-103595714D01*
X115715142Y-103518304D01*
X115753847Y-103479600D01*
X115831257Y-103440895D01*
X116605352Y-103440895D02*
X116682761Y-103440895D01*
X116760171Y-103479600D01*
X116798876Y-103518304D01*
X116837580Y-103595714D01*
X116876285Y-103750533D01*
X116876285Y-103944057D01*
X116837580Y-104098876D01*
X116798876Y-104176285D01*
X116760171Y-104214990D01*
X116682761Y-104253695D01*
X116605352Y-104253695D01*
X116527942Y-104214990D01*
X116489238Y-104176285D01*
X116450533Y-104098876D01*
X116411828Y-103944057D01*
X116411828Y-103750533D01*
X116450533Y-103595714D01*
X116489238Y-103518304D01*
X116527942Y-103479600D01*
X116605352Y-103440895D01*
X117224628Y-103711828D02*
X117224628Y-104253695D01*
X117224628Y-103789238D02*
X117263333Y-103750533D01*
X117340742Y-103711828D01*
X117456857Y-103711828D01*
X117534266Y-103750533D01*
X117572971Y-103827942D01*
X117572971Y-104253695D01*
X118230952Y-103827942D02*
X117960019Y-103827942D01*
X117960019Y-104253695D02*
X117960019Y-103440895D01*
X118347066Y-103440895D01*
X114666485Y-68870285D02*
X114627780Y-68908990D01*
X114511666Y-68947695D01*
X114434257Y-68947695D01*
X114318142Y-68908990D01*
X114240733Y-68831580D01*
X114202028Y-68754171D01*
X114163323Y-68599352D01*
X114163323Y-68483238D01*
X114202028Y-68328419D01*
X114240733Y-68251009D01*
X114318142Y-68173600D01*
X114434257Y-68134895D01*
X114511666Y-68134895D01*
X114627780Y-68173600D01*
X114666485Y-68212304D01*
X115440580Y-68947695D02*
X114976123Y-68947695D01*
X115208352Y-68947695D02*
X115208352Y-68134895D01*
X115130942Y-68251009D01*
X115053533Y-68328419D01*
X114976123Y-68367123D01*
X115827628Y-68947695D02*
X115982447Y-68947695D01*
X116059857Y-68908990D01*
X116098561Y-68870285D01*
X116175971Y-68754171D01*
X116214676Y-68599352D01*
X116214676Y-68289714D01*
X116175971Y-68212304D01*
X116137266Y-68173600D01*
X116059857Y-68134895D01*
X115905038Y-68134895D01*
X115827628Y-68173600D01*
X115788923Y-68212304D01*
X115750219Y-68289714D01*
X115750219Y-68483238D01*
X115788923Y-68560647D01*
X115827628Y-68599352D01*
X115905038Y-68638057D01*
X116059857Y-68638057D01*
X116137266Y-68599352D01*
X116175971Y-68560647D01*
X116214676Y-68483238D01*
X113169095Y-69963695D02*
X112704638Y-69963695D01*
X112936866Y-69963695D02*
X112936866Y-69150895D01*
X112859457Y-69267009D01*
X112782047Y-69344419D01*
X112704638Y-69383123D01*
X113672257Y-69150895D02*
X113749666Y-69150895D01*
X113827076Y-69189600D01*
X113865780Y-69228304D01*
X113904485Y-69305714D01*
X113943190Y-69460533D01*
X113943190Y-69654057D01*
X113904485Y-69808876D01*
X113865780Y-69886285D01*
X113827076Y-69924990D01*
X113749666Y-69963695D01*
X113672257Y-69963695D01*
X113594847Y-69924990D01*
X113556142Y-69886285D01*
X113517438Y-69808876D01*
X113478733Y-69654057D01*
X113478733Y-69460533D01*
X113517438Y-69305714D01*
X113556142Y-69228304D01*
X113594847Y-69189600D01*
X113672257Y-69150895D01*
X114446352Y-69150895D02*
X114523761Y-69150895D01*
X114601171Y-69189600D01*
X114639876Y-69228304D01*
X114678580Y-69305714D01*
X114717285Y-69460533D01*
X114717285Y-69654057D01*
X114678580Y-69808876D01*
X114639876Y-69886285D01*
X114601171Y-69924990D01*
X114523761Y-69963695D01*
X114446352Y-69963695D01*
X114368942Y-69924990D01*
X114330238Y-69886285D01*
X114291533Y-69808876D01*
X114252828Y-69654057D01*
X114252828Y-69460533D01*
X114291533Y-69305714D01*
X114330238Y-69228304D01*
X114368942Y-69189600D01*
X114446352Y-69150895D01*
X115065628Y-69421828D02*
X115065628Y-69963695D01*
X115065628Y-69499238D02*
X115104333Y-69460533D01*
X115181742Y-69421828D01*
X115297857Y-69421828D01*
X115375266Y-69460533D01*
X115413971Y-69537942D01*
X115413971Y-69963695D01*
X116071952Y-69537942D02*
X115801019Y-69537942D01*
X115801019Y-69963695D02*
X115801019Y-69150895D01*
X116188066Y-69150895D01*
X126096485Y-102906285D02*
X126057780Y-102944990D01*
X125941666Y-102983695D01*
X125864257Y-102983695D01*
X125748142Y-102944990D01*
X125670733Y-102867580D01*
X125632028Y-102790171D01*
X125593323Y-102635352D01*
X125593323Y-102519238D01*
X125632028Y-102364419D01*
X125670733Y-102287009D01*
X125748142Y-102209600D01*
X125864257Y-102170895D01*
X125941666Y-102170895D01*
X126057780Y-102209600D01*
X126096485Y-102248304D01*
X126406123Y-102248304D02*
X126444828Y-102209600D01*
X126522238Y-102170895D01*
X126715761Y-102170895D01*
X126793171Y-102209600D01*
X126831876Y-102248304D01*
X126870580Y-102325714D01*
X126870580Y-102403123D01*
X126831876Y-102519238D01*
X126367419Y-102983695D01*
X126870580Y-102983695D01*
X127373742Y-102170895D02*
X127451152Y-102170895D01*
X127528561Y-102209600D01*
X127567266Y-102248304D01*
X127605971Y-102325714D01*
X127644676Y-102480533D01*
X127644676Y-102674057D01*
X127605971Y-102828876D01*
X127567266Y-102906285D01*
X127528561Y-102944990D01*
X127451152Y-102983695D01*
X127373742Y-102983695D01*
X127296333Y-102944990D01*
X127257628Y-102906285D01*
X127218923Y-102828876D01*
X127180219Y-102674057D01*
X127180219Y-102480533D01*
X127218923Y-102325714D01*
X127257628Y-102248304D01*
X127296333Y-102209600D01*
X127373742Y-102170895D01*
X125996095Y-104380695D02*
X125531638Y-104380695D01*
X125763866Y-104380695D02*
X125763866Y-103567895D01*
X125686457Y-103684009D01*
X125609047Y-103761419D01*
X125531638Y-103800123D01*
X126499257Y-103567895D02*
X126576666Y-103567895D01*
X126654076Y-103606600D01*
X126692780Y-103645304D01*
X126731485Y-103722714D01*
X126770190Y-103877533D01*
X126770190Y-104071057D01*
X126731485Y-104225876D01*
X126692780Y-104303285D01*
X126654076Y-104341990D01*
X126576666Y-104380695D01*
X126499257Y-104380695D01*
X126421847Y-104341990D01*
X126383142Y-104303285D01*
X126344438Y-104225876D01*
X126305733Y-104071057D01*
X126305733Y-103877533D01*
X126344438Y-103722714D01*
X126383142Y-103645304D01*
X126421847Y-103606600D01*
X126499257Y-103567895D01*
X127273352Y-103567895D02*
X127350761Y-103567895D01*
X127428171Y-103606600D01*
X127466876Y-103645304D01*
X127505580Y-103722714D01*
X127544285Y-103877533D01*
X127544285Y-104071057D01*
X127505580Y-104225876D01*
X127466876Y-104303285D01*
X127428171Y-104341990D01*
X127350761Y-104380695D01*
X127273352Y-104380695D01*
X127195942Y-104341990D01*
X127157238Y-104303285D01*
X127118533Y-104225876D01*
X127079828Y-104071057D01*
X127079828Y-103877533D01*
X127118533Y-103722714D01*
X127157238Y-103645304D01*
X127195942Y-103606600D01*
X127273352Y-103567895D01*
X127892628Y-103838828D02*
X127892628Y-104380695D01*
X127892628Y-103916238D02*
X127931333Y-103877533D01*
X128008742Y-103838828D01*
X128124857Y-103838828D01*
X128202266Y-103877533D01*
X128240971Y-103954942D01*
X128240971Y-104380695D01*
X128898952Y-103954942D02*
X128628019Y-103954942D01*
X128628019Y-104380695D02*
X128628019Y-103567895D01*
X129015066Y-103567895D01*
X141590485Y-96937285D02*
X141551780Y-96975990D01*
X141435666Y-97014695D01*
X141358257Y-97014695D01*
X141242142Y-96975990D01*
X141164733Y-96898580D01*
X141126028Y-96821171D01*
X141087323Y-96666352D01*
X141087323Y-96550238D01*
X141126028Y-96395419D01*
X141164733Y-96318009D01*
X141242142Y-96240600D01*
X141358257Y-96201895D01*
X141435666Y-96201895D01*
X141551780Y-96240600D01*
X141590485Y-96279304D01*
X141900123Y-96279304D02*
X141938828Y-96240600D01*
X142016238Y-96201895D01*
X142209761Y-96201895D01*
X142287171Y-96240600D01*
X142325876Y-96279304D01*
X142364580Y-96356714D01*
X142364580Y-96434123D01*
X142325876Y-96550238D01*
X141861419Y-97014695D01*
X142364580Y-97014695D01*
X143138676Y-97014695D02*
X142674219Y-97014695D01*
X142906447Y-97014695D02*
X142906447Y-96201895D01*
X142829038Y-96318009D01*
X142751628Y-96395419D01*
X142674219Y-96434123D01*
X141363095Y-98157695D02*
X140898638Y-98157695D01*
X141130866Y-98157695D02*
X141130866Y-97344895D01*
X141053457Y-97461009D01*
X140976047Y-97538419D01*
X140898638Y-97577123D01*
X141866257Y-97344895D02*
X141943666Y-97344895D01*
X142021076Y-97383600D01*
X142059780Y-97422304D01*
X142098485Y-97499714D01*
X142137190Y-97654533D01*
X142137190Y-97848057D01*
X142098485Y-98002876D01*
X142059780Y-98080285D01*
X142021076Y-98118990D01*
X141943666Y-98157695D01*
X141866257Y-98157695D01*
X141788847Y-98118990D01*
X141750142Y-98080285D01*
X141711438Y-98002876D01*
X141672733Y-97848057D01*
X141672733Y-97654533D01*
X141711438Y-97499714D01*
X141750142Y-97422304D01*
X141788847Y-97383600D01*
X141866257Y-97344895D01*
X142640352Y-97344895D02*
X142717761Y-97344895D01*
X142795171Y-97383600D01*
X142833876Y-97422304D01*
X142872580Y-97499714D01*
X142911285Y-97654533D01*
X142911285Y-97848057D01*
X142872580Y-98002876D01*
X142833876Y-98080285D01*
X142795171Y-98118990D01*
X142717761Y-98157695D01*
X142640352Y-98157695D01*
X142562942Y-98118990D01*
X142524238Y-98080285D01*
X142485533Y-98002876D01*
X142446828Y-97848057D01*
X142446828Y-97654533D01*
X142485533Y-97499714D01*
X142524238Y-97422304D01*
X142562942Y-97383600D01*
X142640352Y-97344895D01*
X143259628Y-97615828D02*
X143259628Y-98157695D01*
X143259628Y-97693238D02*
X143298333Y-97654533D01*
X143375742Y-97615828D01*
X143491857Y-97615828D01*
X143569266Y-97654533D01*
X143607971Y-97731942D01*
X143607971Y-98157695D01*
X144265952Y-97731942D02*
X143995019Y-97731942D01*
X143995019Y-98157695D02*
X143995019Y-97344895D01*
X144382066Y-97344895D01*
X106919485Y-75220285D02*
X106880780Y-75258990D01*
X106764666Y-75297695D01*
X106687257Y-75297695D01*
X106571142Y-75258990D01*
X106493733Y-75181580D01*
X106455028Y-75104171D01*
X106416323Y-74949352D01*
X106416323Y-74833238D01*
X106455028Y-74678419D01*
X106493733Y-74601009D01*
X106571142Y-74523600D01*
X106687257Y-74484895D01*
X106764666Y-74484895D01*
X106880780Y-74523600D01*
X106919485Y-74562304D01*
X107229123Y-74562304D02*
X107267828Y-74523600D01*
X107345238Y-74484895D01*
X107538761Y-74484895D01*
X107616171Y-74523600D01*
X107654876Y-74562304D01*
X107693580Y-74639714D01*
X107693580Y-74717123D01*
X107654876Y-74833238D01*
X107190419Y-75297695D01*
X107693580Y-75297695D01*
X107964514Y-74484895D02*
X108467676Y-74484895D01*
X108196742Y-74794533D01*
X108312857Y-74794533D01*
X108390266Y-74833238D01*
X108428971Y-74871942D01*
X108467676Y-74949352D01*
X108467676Y-75142876D01*
X108428971Y-75220285D01*
X108390266Y-75258990D01*
X108312857Y-75297695D01*
X108080628Y-75297695D01*
X108003219Y-75258990D01*
X107964514Y-75220285D01*
X105549095Y-76278135D02*
X105084638Y-76278135D01*
X105316866Y-76278135D02*
X105316866Y-75465335D01*
X105239457Y-75581449D01*
X105162047Y-75658859D01*
X105084638Y-75697563D01*
X106052257Y-75465335D02*
X106129666Y-75465335D01*
X106207076Y-75504040D01*
X106245780Y-75542744D01*
X106284485Y-75620154D01*
X106323190Y-75774973D01*
X106323190Y-75968497D01*
X106284485Y-76123316D01*
X106245780Y-76200725D01*
X106207076Y-76239430D01*
X106129666Y-76278135D01*
X106052257Y-76278135D01*
X105974847Y-76239430D01*
X105936142Y-76200725D01*
X105897438Y-76123316D01*
X105858733Y-75968497D01*
X105858733Y-75774973D01*
X105897438Y-75620154D01*
X105936142Y-75542744D01*
X105974847Y-75504040D01*
X106052257Y-75465335D01*
X106826352Y-75465335D02*
X106903761Y-75465335D01*
X106981171Y-75504040D01*
X107019876Y-75542744D01*
X107058580Y-75620154D01*
X107097285Y-75774973D01*
X107097285Y-75968497D01*
X107058580Y-76123316D01*
X107019876Y-76200725D01*
X106981171Y-76239430D01*
X106903761Y-76278135D01*
X106826352Y-76278135D01*
X106748942Y-76239430D01*
X106710238Y-76200725D01*
X106671533Y-76123316D01*
X106632828Y-75968497D01*
X106632828Y-75774973D01*
X106671533Y-75620154D01*
X106710238Y-75542744D01*
X106748942Y-75504040D01*
X106826352Y-75465335D01*
X107445628Y-75736268D02*
X107445628Y-76278135D01*
X107445628Y-75813678D02*
X107484333Y-75774973D01*
X107561742Y-75736268D01*
X107677857Y-75736268D01*
X107755266Y-75774973D01*
X107793971Y-75852382D01*
X107793971Y-76278135D01*
X108451952Y-75852382D02*
X108181019Y-75852382D01*
X108181019Y-76278135D02*
X108181019Y-75465335D01*
X108568066Y-75465335D01*
X104252485Y-81824285D02*
X104213780Y-81862990D01*
X104097666Y-81901695D01*
X104020257Y-81901695D01*
X103904142Y-81862990D01*
X103826733Y-81785580D01*
X103788028Y-81708171D01*
X103749323Y-81553352D01*
X103749323Y-81437238D01*
X103788028Y-81282419D01*
X103826733Y-81205009D01*
X103904142Y-81127600D01*
X104020257Y-81088895D01*
X104097666Y-81088895D01*
X104213780Y-81127600D01*
X104252485Y-81166304D01*
X104562123Y-81166304D02*
X104600828Y-81127600D01*
X104678238Y-81088895D01*
X104871761Y-81088895D01*
X104949171Y-81127600D01*
X104987876Y-81166304D01*
X105026580Y-81243714D01*
X105026580Y-81321123D01*
X104987876Y-81437238D01*
X104523419Y-81901695D01*
X105026580Y-81901695D01*
X105723266Y-81359828D02*
X105723266Y-81901695D01*
X105529742Y-81050190D02*
X105336219Y-81630761D01*
X105839380Y-81630761D01*
X103136095Y-82790695D02*
X102671638Y-82790695D01*
X102903866Y-82790695D02*
X102903866Y-81977895D01*
X102826457Y-82094009D01*
X102749047Y-82171419D01*
X102671638Y-82210123D01*
X103639257Y-81977895D02*
X103716666Y-81977895D01*
X103794076Y-82016600D01*
X103832780Y-82055304D01*
X103871485Y-82132714D01*
X103910190Y-82287533D01*
X103910190Y-82481057D01*
X103871485Y-82635876D01*
X103832780Y-82713285D01*
X103794076Y-82751990D01*
X103716666Y-82790695D01*
X103639257Y-82790695D01*
X103561847Y-82751990D01*
X103523142Y-82713285D01*
X103484438Y-82635876D01*
X103445733Y-82481057D01*
X103445733Y-82287533D01*
X103484438Y-82132714D01*
X103523142Y-82055304D01*
X103561847Y-82016600D01*
X103639257Y-81977895D01*
X104413352Y-81977895D02*
X104490761Y-81977895D01*
X104568171Y-82016600D01*
X104606876Y-82055304D01*
X104645580Y-82132714D01*
X104684285Y-82287533D01*
X104684285Y-82481057D01*
X104645580Y-82635876D01*
X104606876Y-82713285D01*
X104568171Y-82751990D01*
X104490761Y-82790695D01*
X104413352Y-82790695D01*
X104335942Y-82751990D01*
X104297238Y-82713285D01*
X104258533Y-82635876D01*
X104219828Y-82481057D01*
X104219828Y-82287533D01*
X104258533Y-82132714D01*
X104297238Y-82055304D01*
X104335942Y-82016600D01*
X104413352Y-81977895D01*
X105032628Y-82248828D02*
X105032628Y-82790695D01*
X105032628Y-82326238D02*
X105071333Y-82287533D01*
X105148742Y-82248828D01*
X105264857Y-82248828D01*
X105342266Y-82287533D01*
X105380971Y-82364942D01*
X105380971Y-82790695D01*
X106038952Y-82364942D02*
X105768019Y-82364942D01*
X105768019Y-82790695D02*
X105768019Y-81977895D01*
X106155066Y-81977895D01*
X105649485Y-84237285D02*
X105610780Y-84275990D01*
X105494666Y-84314695D01*
X105417257Y-84314695D01*
X105301142Y-84275990D01*
X105223733Y-84198580D01*
X105185028Y-84121171D01*
X105146323Y-83966352D01*
X105146323Y-83850238D01*
X105185028Y-83695419D01*
X105223733Y-83618009D01*
X105301142Y-83540600D01*
X105417257Y-83501895D01*
X105494666Y-83501895D01*
X105610780Y-83540600D01*
X105649485Y-83579304D01*
X105959123Y-83579304D02*
X105997828Y-83540600D01*
X106075238Y-83501895D01*
X106268761Y-83501895D01*
X106346171Y-83540600D01*
X106384876Y-83579304D01*
X106423580Y-83656714D01*
X106423580Y-83734123D01*
X106384876Y-83850238D01*
X105920419Y-84314695D01*
X106423580Y-84314695D01*
X107158971Y-83501895D02*
X106771923Y-83501895D01*
X106733219Y-83888942D01*
X106771923Y-83850238D01*
X106849333Y-83811533D01*
X107042857Y-83811533D01*
X107120266Y-83850238D01*
X107158971Y-83888942D01*
X107197676Y-83966352D01*
X107197676Y-84159876D01*
X107158971Y-84237285D01*
X107120266Y-84275990D01*
X107042857Y-84314695D01*
X106849333Y-84314695D01*
X106771923Y-84275990D01*
X106733219Y-84237285D01*
X106311095Y-86854695D02*
X105846638Y-86854695D01*
X106078866Y-86854695D02*
X106078866Y-86041895D01*
X106001457Y-86158009D01*
X105924047Y-86235419D01*
X105846638Y-86274123D01*
X106814257Y-86041895D02*
X106891666Y-86041895D01*
X106969076Y-86080600D01*
X107007780Y-86119304D01*
X107046485Y-86196714D01*
X107085190Y-86351533D01*
X107085190Y-86545057D01*
X107046485Y-86699876D01*
X107007780Y-86777285D01*
X106969076Y-86815990D01*
X106891666Y-86854695D01*
X106814257Y-86854695D01*
X106736847Y-86815990D01*
X106698142Y-86777285D01*
X106659438Y-86699876D01*
X106620733Y-86545057D01*
X106620733Y-86351533D01*
X106659438Y-86196714D01*
X106698142Y-86119304D01*
X106736847Y-86080600D01*
X106814257Y-86041895D01*
X107588352Y-86041895D02*
X107665761Y-86041895D01*
X107743171Y-86080600D01*
X107781876Y-86119304D01*
X107820580Y-86196714D01*
X107859285Y-86351533D01*
X107859285Y-86545057D01*
X107820580Y-86699876D01*
X107781876Y-86777285D01*
X107743171Y-86815990D01*
X107665761Y-86854695D01*
X107588352Y-86854695D01*
X107510942Y-86815990D01*
X107472238Y-86777285D01*
X107433533Y-86699876D01*
X107394828Y-86545057D01*
X107394828Y-86351533D01*
X107433533Y-86196714D01*
X107472238Y-86119304D01*
X107510942Y-86080600D01*
X107588352Y-86041895D01*
X108207628Y-86312828D02*
X108207628Y-86854695D01*
X108207628Y-86390238D02*
X108246333Y-86351533D01*
X108323742Y-86312828D01*
X108439857Y-86312828D01*
X108517266Y-86351533D01*
X108555971Y-86428942D01*
X108555971Y-86854695D01*
X109213952Y-86428942D02*
X108943019Y-86428942D01*
X108943019Y-86854695D02*
X108943019Y-86041895D01*
X109330066Y-86041895D01*
X142352485Y-83983285D02*
X142313780Y-84021990D01*
X142197666Y-84060695D01*
X142120257Y-84060695D01*
X142004142Y-84021990D01*
X141926733Y-83944580D01*
X141888028Y-83867171D01*
X141849323Y-83712352D01*
X141849323Y-83596238D01*
X141888028Y-83441419D01*
X141926733Y-83364009D01*
X142004142Y-83286600D01*
X142120257Y-83247895D01*
X142197666Y-83247895D01*
X142313780Y-83286600D01*
X142352485Y-83325304D01*
X142662123Y-83325304D02*
X142700828Y-83286600D01*
X142778238Y-83247895D01*
X142971761Y-83247895D01*
X143049171Y-83286600D01*
X143087876Y-83325304D01*
X143126580Y-83402714D01*
X143126580Y-83480123D01*
X143087876Y-83596238D01*
X142623419Y-84060695D01*
X143126580Y-84060695D01*
X143823266Y-83247895D02*
X143668447Y-83247895D01*
X143591038Y-83286600D01*
X143552333Y-83325304D01*
X143474923Y-83441419D01*
X143436219Y-83596238D01*
X143436219Y-83905876D01*
X143474923Y-83983285D01*
X143513628Y-84021990D01*
X143591038Y-84060695D01*
X143745857Y-84060695D01*
X143823266Y-84021990D01*
X143861971Y-83983285D01*
X143900676Y-83905876D01*
X143900676Y-83712352D01*
X143861971Y-83634942D01*
X143823266Y-83596238D01*
X143745857Y-83557533D01*
X143591038Y-83557533D01*
X143513628Y-83596238D01*
X143474923Y-83634942D01*
X143436219Y-83712352D01*
X145173095Y-82663695D02*
X144708638Y-82663695D01*
X144940866Y-82663695D02*
X144940866Y-81850895D01*
X144863457Y-81967009D01*
X144786047Y-82044419D01*
X144708638Y-82083123D01*
X145676257Y-81850895D02*
X145753666Y-81850895D01*
X145831076Y-81889600D01*
X145869780Y-81928304D01*
X145908485Y-82005714D01*
X145947190Y-82160533D01*
X145947190Y-82354057D01*
X145908485Y-82508876D01*
X145869780Y-82586285D01*
X145831076Y-82624990D01*
X145753666Y-82663695D01*
X145676257Y-82663695D01*
X145598847Y-82624990D01*
X145560142Y-82586285D01*
X145521438Y-82508876D01*
X145482733Y-82354057D01*
X145482733Y-82160533D01*
X145521438Y-82005714D01*
X145560142Y-81928304D01*
X145598847Y-81889600D01*
X145676257Y-81850895D01*
X146450352Y-81850895D02*
X146527761Y-81850895D01*
X146605171Y-81889600D01*
X146643876Y-81928304D01*
X146682580Y-82005714D01*
X146721285Y-82160533D01*
X146721285Y-82354057D01*
X146682580Y-82508876D01*
X146643876Y-82586285D01*
X146605171Y-82624990D01*
X146527761Y-82663695D01*
X146450352Y-82663695D01*
X146372942Y-82624990D01*
X146334238Y-82586285D01*
X146295533Y-82508876D01*
X146256828Y-82354057D01*
X146256828Y-82160533D01*
X146295533Y-82005714D01*
X146334238Y-81928304D01*
X146372942Y-81889600D01*
X146450352Y-81850895D01*
X147069628Y-82121828D02*
X147069628Y-82663695D01*
X147069628Y-82199238D02*
X147108333Y-82160533D01*
X147185742Y-82121828D01*
X147301857Y-82121828D01*
X147379266Y-82160533D01*
X147417971Y-82237942D01*
X147417971Y-82663695D01*
X148075952Y-82237942D02*
X147805019Y-82237942D01*
X147805019Y-82663695D02*
X147805019Y-81850895D01*
X148192066Y-81850895D01*
X106284485Y-92746285D02*
X106245780Y-92784990D01*
X106129666Y-92823695D01*
X106052257Y-92823695D01*
X105936142Y-92784990D01*
X105858733Y-92707580D01*
X105820028Y-92630171D01*
X105781323Y-92475352D01*
X105781323Y-92359238D01*
X105820028Y-92204419D01*
X105858733Y-92127009D01*
X105936142Y-92049600D01*
X106052257Y-92010895D01*
X106129666Y-92010895D01*
X106245780Y-92049600D01*
X106284485Y-92088304D01*
X106594123Y-92088304D02*
X106632828Y-92049600D01*
X106710238Y-92010895D01*
X106903761Y-92010895D01*
X106981171Y-92049600D01*
X107019876Y-92088304D01*
X107058580Y-92165714D01*
X107058580Y-92243123D01*
X107019876Y-92359238D01*
X106555419Y-92823695D01*
X107058580Y-92823695D01*
X107329514Y-92010895D02*
X107871380Y-92010895D01*
X107523038Y-92823695D01*
X105803095Y-95363695D02*
X105338638Y-95363695D01*
X105570866Y-95363695D02*
X105570866Y-94550895D01*
X105493457Y-94667009D01*
X105416047Y-94744419D01*
X105338638Y-94783123D01*
X106306257Y-94550895D02*
X106383666Y-94550895D01*
X106461076Y-94589600D01*
X106499780Y-94628304D01*
X106538485Y-94705714D01*
X106577190Y-94860533D01*
X106577190Y-95054057D01*
X106538485Y-95208876D01*
X106499780Y-95286285D01*
X106461076Y-95324990D01*
X106383666Y-95363695D01*
X106306257Y-95363695D01*
X106228847Y-95324990D01*
X106190142Y-95286285D01*
X106151438Y-95208876D01*
X106112733Y-95054057D01*
X106112733Y-94860533D01*
X106151438Y-94705714D01*
X106190142Y-94628304D01*
X106228847Y-94589600D01*
X106306257Y-94550895D01*
X107080352Y-94550895D02*
X107157761Y-94550895D01*
X107235171Y-94589600D01*
X107273876Y-94628304D01*
X107312580Y-94705714D01*
X107351285Y-94860533D01*
X107351285Y-95054057D01*
X107312580Y-95208876D01*
X107273876Y-95286285D01*
X107235171Y-95324990D01*
X107157761Y-95363695D01*
X107080352Y-95363695D01*
X107002942Y-95324990D01*
X106964238Y-95286285D01*
X106925533Y-95208876D01*
X106886828Y-95054057D01*
X106886828Y-94860533D01*
X106925533Y-94705714D01*
X106964238Y-94628304D01*
X107002942Y-94589600D01*
X107080352Y-94550895D01*
X107699628Y-94821828D02*
X107699628Y-95363695D01*
X107699628Y-94899238D02*
X107738333Y-94860533D01*
X107815742Y-94821828D01*
X107931857Y-94821828D01*
X108009266Y-94860533D01*
X108047971Y-94937942D01*
X108047971Y-95363695D01*
X108705952Y-94937942D02*
X108435019Y-94937942D01*
X108435019Y-95363695D02*
X108435019Y-94550895D01*
X108822066Y-94550895D01*
X141463485Y-91476285D02*
X141424780Y-91514990D01*
X141308666Y-91553695D01*
X141231257Y-91553695D01*
X141115142Y-91514990D01*
X141037733Y-91437580D01*
X140999028Y-91360171D01*
X140960323Y-91205352D01*
X140960323Y-91089238D01*
X140999028Y-90934419D01*
X141037733Y-90857009D01*
X141115142Y-90779600D01*
X141231257Y-90740895D01*
X141308666Y-90740895D01*
X141424780Y-90779600D01*
X141463485Y-90818304D01*
X141773123Y-90818304D02*
X141811828Y-90779600D01*
X141889238Y-90740895D01*
X142082761Y-90740895D01*
X142160171Y-90779600D01*
X142198876Y-90818304D01*
X142237580Y-90895714D01*
X142237580Y-90973123D01*
X142198876Y-91089238D01*
X141734419Y-91553695D01*
X142237580Y-91553695D01*
X142702038Y-91089238D02*
X142624628Y-91050533D01*
X142585923Y-91011828D01*
X142547219Y-90934419D01*
X142547219Y-90895714D01*
X142585923Y-90818304D01*
X142624628Y-90779600D01*
X142702038Y-90740895D01*
X142856857Y-90740895D01*
X142934266Y-90779600D01*
X142972971Y-90818304D01*
X143011676Y-90895714D01*
X143011676Y-90934419D01*
X142972971Y-91011828D01*
X142934266Y-91050533D01*
X142856857Y-91089238D01*
X142702038Y-91089238D01*
X142624628Y-91127942D01*
X142585923Y-91166647D01*
X142547219Y-91244057D01*
X142547219Y-91398876D01*
X142585923Y-91476285D01*
X142624628Y-91514990D01*
X142702038Y-91553695D01*
X142856857Y-91553695D01*
X142934266Y-91514990D01*
X142972971Y-91476285D01*
X143011676Y-91398876D01*
X143011676Y-91244057D01*
X142972971Y-91166647D01*
X142934266Y-91127942D01*
X142856857Y-91089238D01*
X141109095Y-92569695D02*
X140644638Y-92569695D01*
X140876866Y-92569695D02*
X140876866Y-91756895D01*
X140799457Y-91873009D01*
X140722047Y-91950419D01*
X140644638Y-91989123D01*
X141612257Y-91756895D02*
X141689666Y-91756895D01*
X141767076Y-91795600D01*
X141805780Y-91834304D01*
X141844485Y-91911714D01*
X141883190Y-92066533D01*
X141883190Y-92260057D01*
X141844485Y-92414876D01*
X141805780Y-92492285D01*
X141767076Y-92530990D01*
X141689666Y-92569695D01*
X141612257Y-92569695D01*
X141534847Y-92530990D01*
X141496142Y-92492285D01*
X141457438Y-92414876D01*
X141418733Y-92260057D01*
X141418733Y-92066533D01*
X141457438Y-91911714D01*
X141496142Y-91834304D01*
X141534847Y-91795600D01*
X141612257Y-91756895D01*
X142386352Y-91756895D02*
X142463761Y-91756895D01*
X142541171Y-91795600D01*
X142579876Y-91834304D01*
X142618580Y-91911714D01*
X142657285Y-92066533D01*
X142657285Y-92260057D01*
X142618580Y-92414876D01*
X142579876Y-92492285D01*
X142541171Y-92530990D01*
X142463761Y-92569695D01*
X142386352Y-92569695D01*
X142308942Y-92530990D01*
X142270238Y-92492285D01*
X142231533Y-92414876D01*
X142192828Y-92260057D01*
X142192828Y-92066533D01*
X142231533Y-91911714D01*
X142270238Y-91834304D01*
X142308942Y-91795600D01*
X142386352Y-91756895D01*
X143005628Y-92027828D02*
X143005628Y-92569695D01*
X143005628Y-92105238D02*
X143044333Y-92066533D01*
X143121742Y-92027828D01*
X143237857Y-92027828D01*
X143315266Y-92066533D01*
X143353971Y-92143942D01*
X143353971Y-92569695D01*
X144011952Y-92143942D02*
X143741019Y-92143942D01*
X143741019Y-92569695D02*
X143741019Y-91756895D01*
X144128066Y-91756895D01*
X132319485Y-109764285D02*
X132280780Y-109802990D01*
X132164666Y-109841695D01*
X132087257Y-109841695D01*
X131971142Y-109802990D01*
X131893733Y-109725580D01*
X131855028Y-109648171D01*
X131816323Y-109493352D01*
X131816323Y-109377238D01*
X131855028Y-109222419D01*
X131893733Y-109145009D01*
X131971142Y-109067600D01*
X132087257Y-109028895D01*
X132164666Y-109028895D01*
X132280780Y-109067600D01*
X132319485Y-109106304D01*
X132590419Y-109028895D02*
X133093580Y-109028895D01*
X132822647Y-109338533D01*
X132938761Y-109338533D01*
X133016171Y-109377238D01*
X133054876Y-109415942D01*
X133093580Y-109493352D01*
X133093580Y-109686876D01*
X133054876Y-109764285D01*
X133016171Y-109802990D01*
X132938761Y-109841695D01*
X132706533Y-109841695D01*
X132629123Y-109802990D01*
X132590419Y-109764285D01*
X133596742Y-109028895D02*
X133674152Y-109028895D01*
X133751561Y-109067600D01*
X133790266Y-109106304D01*
X133828971Y-109183714D01*
X133867676Y-109338533D01*
X133867676Y-109532057D01*
X133828971Y-109686876D01*
X133790266Y-109764285D01*
X133751561Y-109802990D01*
X133674152Y-109841695D01*
X133596742Y-109841695D01*
X133519333Y-109802990D01*
X133480628Y-109764285D01*
X133441923Y-109686876D01*
X133403219Y-109532057D01*
X133403219Y-109338533D01*
X133441923Y-109183714D01*
X133480628Y-109106304D01*
X133519333Y-109067600D01*
X133596742Y-109028895D01*
X132352142Y-110857695D02*
X131887685Y-110857695D01*
X132119914Y-110857695D02*
X132119914Y-110044895D01*
X132042504Y-110161009D01*
X131965095Y-110238419D01*
X131887685Y-110277123D01*
X132816600Y-110393238D02*
X132739190Y-110354533D01*
X132700485Y-110315828D01*
X132661780Y-110238419D01*
X132661780Y-110199714D01*
X132700485Y-110122304D01*
X132739190Y-110083600D01*
X132816600Y-110044895D01*
X132971419Y-110044895D01*
X133048828Y-110083600D01*
X133087533Y-110122304D01*
X133126238Y-110199714D01*
X133126238Y-110238419D01*
X133087533Y-110315828D01*
X133048828Y-110354533D01*
X132971419Y-110393238D01*
X132816600Y-110393238D01*
X132739190Y-110431942D01*
X132700485Y-110470647D01*
X132661780Y-110548057D01*
X132661780Y-110702876D01*
X132700485Y-110780285D01*
X132739190Y-110818990D01*
X132816600Y-110857695D01*
X132971419Y-110857695D01*
X133048828Y-110818990D01*
X133087533Y-110780285D01*
X133126238Y-110702876D01*
X133126238Y-110548057D01*
X133087533Y-110470647D01*
X133048828Y-110431942D01*
X132971419Y-110393238D01*
X133474580Y-110315828D02*
X133474580Y-111128628D01*
X133474580Y-110354533D02*
X133551990Y-110315828D01*
X133706809Y-110315828D01*
X133784219Y-110354533D01*
X133822923Y-110393238D01*
X133861628Y-110470647D01*
X133861628Y-110702876D01*
X133822923Y-110780285D01*
X133784219Y-110818990D01*
X133706809Y-110857695D01*
X133551990Y-110857695D01*
X133474580Y-110818990D01*
X134480904Y-110431942D02*
X134209971Y-110431942D01*
X134209971Y-110857695D02*
X134209971Y-110044895D01*
X134597019Y-110044895D01*
X136256485Y-109764285D02*
X136217780Y-109802990D01*
X136101666Y-109841695D01*
X136024257Y-109841695D01*
X135908142Y-109802990D01*
X135830733Y-109725580D01*
X135792028Y-109648171D01*
X135753323Y-109493352D01*
X135753323Y-109377238D01*
X135792028Y-109222419D01*
X135830733Y-109145009D01*
X135908142Y-109067600D01*
X136024257Y-109028895D01*
X136101666Y-109028895D01*
X136217780Y-109067600D01*
X136256485Y-109106304D01*
X136527419Y-109028895D02*
X137030580Y-109028895D01*
X136759647Y-109338533D01*
X136875761Y-109338533D01*
X136953171Y-109377238D01*
X136991876Y-109415942D01*
X137030580Y-109493352D01*
X137030580Y-109686876D01*
X136991876Y-109764285D01*
X136953171Y-109802990D01*
X136875761Y-109841695D01*
X136643533Y-109841695D01*
X136566123Y-109802990D01*
X136527419Y-109764285D01*
X137804676Y-109841695D02*
X137340219Y-109841695D01*
X137572447Y-109841695D02*
X137572447Y-109028895D01*
X137495038Y-109145009D01*
X137417628Y-109222419D01*
X137340219Y-109261123D01*
X136162142Y-110857695D02*
X135697685Y-110857695D01*
X135929914Y-110857695D02*
X135929914Y-110044895D01*
X135852504Y-110161009D01*
X135775095Y-110238419D01*
X135697685Y-110277123D01*
X136626600Y-110393238D02*
X136549190Y-110354533D01*
X136510485Y-110315828D01*
X136471780Y-110238419D01*
X136471780Y-110199714D01*
X136510485Y-110122304D01*
X136549190Y-110083600D01*
X136626600Y-110044895D01*
X136781419Y-110044895D01*
X136858828Y-110083600D01*
X136897533Y-110122304D01*
X136936238Y-110199714D01*
X136936238Y-110238419D01*
X136897533Y-110315828D01*
X136858828Y-110354533D01*
X136781419Y-110393238D01*
X136626600Y-110393238D01*
X136549190Y-110431942D01*
X136510485Y-110470647D01*
X136471780Y-110548057D01*
X136471780Y-110702876D01*
X136510485Y-110780285D01*
X136549190Y-110818990D01*
X136626600Y-110857695D01*
X136781419Y-110857695D01*
X136858828Y-110818990D01*
X136897533Y-110780285D01*
X136936238Y-110702876D01*
X136936238Y-110548057D01*
X136897533Y-110470647D01*
X136858828Y-110431942D01*
X136781419Y-110393238D01*
X137284580Y-110315828D02*
X137284580Y-111128628D01*
X137284580Y-110354533D02*
X137361990Y-110315828D01*
X137516809Y-110315828D01*
X137594219Y-110354533D01*
X137632923Y-110393238D01*
X137671628Y-110470647D01*
X137671628Y-110702876D01*
X137632923Y-110780285D01*
X137594219Y-110818990D01*
X137516809Y-110857695D01*
X137361990Y-110857695D01*
X137284580Y-110818990D01*
X138290904Y-110431942D02*
X138019971Y-110431942D01*
X138019971Y-110857695D02*
X138019971Y-110044895D01*
X138407019Y-110044895D01*
X124578533Y-57771695D02*
X124307600Y-57384647D01*
X124114076Y-57771695D02*
X124114076Y-56958895D01*
X124423714Y-56958895D01*
X124501123Y-56997600D01*
X124539828Y-57036304D01*
X124578533Y-57113714D01*
X124578533Y-57229828D01*
X124539828Y-57307238D01*
X124501123Y-57345942D01*
X124423714Y-57384647D01*
X124114076Y-57384647D01*
X125352628Y-57771695D02*
X124888171Y-57771695D01*
X125120400Y-57771695D02*
X125120400Y-56958895D01*
X125042990Y-57075009D01*
X124965580Y-57152419D01*
X124888171Y-57191123D01*
X124660780Y-58914695D02*
X124196323Y-58914695D01*
X124428552Y-58914695D02*
X124428552Y-58101895D01*
X124351142Y-58218009D01*
X124273733Y-58295419D01*
X124196323Y-58334123D01*
X125163942Y-58101895D02*
X125241352Y-58101895D01*
X125318761Y-58140600D01*
X125357466Y-58179304D01*
X125396171Y-58256714D01*
X125434876Y-58411533D01*
X125434876Y-58605057D01*
X125396171Y-58759876D01*
X125357466Y-58837285D01*
X125318761Y-58875990D01*
X125241352Y-58914695D01*
X125163942Y-58914695D01*
X125086533Y-58875990D01*
X125047828Y-58837285D01*
X125009123Y-58759876D01*
X124970419Y-58605057D01*
X124970419Y-58411533D01*
X125009123Y-58256714D01*
X125047828Y-58179304D01*
X125086533Y-58140600D01*
X125163942Y-58101895D01*
X125783219Y-58914695D02*
X125783219Y-58101895D01*
X126247676Y-58914695D02*
X125899333Y-58450238D01*
X126247676Y-58101895D02*
X125783219Y-58566352D01*
X154418695Y-105037466D02*
X154031647Y-105308400D01*
X154418695Y-105501923D02*
X153605895Y-105501923D01*
X153605895Y-105192285D01*
X153644600Y-105114876D01*
X153683304Y-105076171D01*
X153760714Y-105037466D01*
X153876828Y-105037466D01*
X153954238Y-105076171D01*
X153992942Y-105114876D01*
X154031647Y-105192285D01*
X154031647Y-105501923D01*
X153683304Y-104727828D02*
X153644600Y-104689123D01*
X153605895Y-104611714D01*
X153605895Y-104418190D01*
X153644600Y-104340780D01*
X153683304Y-104302076D01*
X153760714Y-104263371D01*
X153838123Y-104263371D01*
X153954238Y-104302076D01*
X154418695Y-104766533D01*
X154418695Y-104263371D01*
X153148695Y-106098219D02*
X153148695Y-106562676D01*
X153148695Y-106330447D02*
X152335895Y-106330447D01*
X152452009Y-106407857D01*
X152529419Y-106485266D01*
X152568123Y-106562676D01*
X152335895Y-105595057D02*
X152335895Y-105517647D01*
X152374600Y-105440238D01*
X152413304Y-105401533D01*
X152490714Y-105362828D01*
X152645533Y-105324123D01*
X152839057Y-105324123D01*
X152993876Y-105362828D01*
X153071285Y-105401533D01*
X153109990Y-105440238D01*
X153148695Y-105517647D01*
X153148695Y-105595057D01*
X153109990Y-105672466D01*
X153071285Y-105711171D01*
X152993876Y-105749876D01*
X152839057Y-105788580D01*
X152645533Y-105788580D01*
X152490714Y-105749876D01*
X152413304Y-105711171D01*
X152374600Y-105672466D01*
X152335895Y-105595057D01*
X153148695Y-104975780D02*
X152335895Y-104975780D01*
X153148695Y-104511323D02*
X152684238Y-104859666D01*
X152335895Y-104511323D02*
X152800352Y-104975780D01*
X150989695Y-104783466D02*
X150602647Y-105054400D01*
X150989695Y-105247923D02*
X150176895Y-105247923D01*
X150176895Y-104938285D01*
X150215600Y-104860876D01*
X150254304Y-104822171D01*
X150331714Y-104783466D01*
X150447828Y-104783466D01*
X150525238Y-104822171D01*
X150563942Y-104860876D01*
X150602647Y-104938285D01*
X150602647Y-105247923D01*
X150176895Y-104512533D02*
X150176895Y-104009371D01*
X150486533Y-104280304D01*
X150486533Y-104164190D01*
X150525238Y-104086780D01*
X150563942Y-104048076D01*
X150641352Y-104009371D01*
X150834876Y-104009371D01*
X150912285Y-104048076D01*
X150950990Y-104086780D01*
X150989695Y-104164190D01*
X150989695Y-104396419D01*
X150950990Y-104473828D01*
X150912285Y-104512533D01*
X149719695Y-104949171D02*
X149719695Y-105413628D01*
X149719695Y-105181400D02*
X148906895Y-105181400D01*
X149023009Y-105258809D01*
X149100419Y-105336219D01*
X149139123Y-105413628D01*
X149719695Y-104600828D02*
X148906895Y-104600828D01*
X149719695Y-104136371D02*
X149255238Y-104484714D01*
X148906895Y-104136371D02*
X149371352Y-104600828D01*
X136389533Y-63359695D02*
X136118600Y-62972647D01*
X135925076Y-63359695D02*
X135925076Y-62546895D01*
X136234714Y-62546895D01*
X136312123Y-62585600D01*
X136350828Y-62624304D01*
X136389533Y-62701714D01*
X136389533Y-62817828D01*
X136350828Y-62895238D01*
X136312123Y-62933942D01*
X136234714Y-62972647D01*
X135925076Y-62972647D01*
X137086219Y-62817828D02*
X137086219Y-63359695D01*
X136892695Y-62508190D02*
X136699171Y-63088761D01*
X137202333Y-63088761D01*
X135524723Y-63960828D02*
X135524723Y-64502695D01*
X135331200Y-63651190D02*
X135137676Y-64231761D01*
X135640838Y-64231761D01*
X135873066Y-63689895D02*
X136414933Y-63689895D01*
X136066590Y-64502695D01*
X136879390Y-63689895D02*
X136956800Y-63689895D01*
X137034209Y-63728600D01*
X137072914Y-63767304D01*
X137111619Y-63844714D01*
X137150323Y-63999533D01*
X137150323Y-64193057D01*
X137111619Y-64347876D01*
X137072914Y-64425285D01*
X137034209Y-64463990D01*
X136956800Y-64502695D01*
X136879390Y-64502695D01*
X136801980Y-64463990D01*
X136763276Y-64425285D01*
X136724571Y-64347876D01*
X136685866Y-64193057D01*
X136685866Y-63999533D01*
X136724571Y-63844714D01*
X136763276Y-63767304D01*
X136801980Y-63728600D01*
X136879390Y-63689895D01*
X114418533Y-107301695D02*
X114147600Y-106914647D01*
X113954076Y-107301695D02*
X113954076Y-106488895D01*
X114263714Y-106488895D01*
X114341123Y-106527600D01*
X114379828Y-106566304D01*
X114418533Y-106643714D01*
X114418533Y-106759828D01*
X114379828Y-106837238D01*
X114341123Y-106875942D01*
X114263714Y-106914647D01*
X113954076Y-106914647D01*
X115153923Y-106488895D02*
X114766876Y-106488895D01*
X114728171Y-106875942D01*
X114766876Y-106837238D01*
X114844285Y-106798533D01*
X115037809Y-106798533D01*
X115115219Y-106837238D01*
X115153923Y-106875942D01*
X115192628Y-106953352D01*
X115192628Y-107146876D01*
X115153923Y-107224285D01*
X115115219Y-107262990D01*
X115037809Y-107301695D01*
X114844285Y-107301695D01*
X114766876Y-107262990D01*
X114728171Y-107224285D01*
X113484780Y-108571695D02*
X113020323Y-108571695D01*
X113252552Y-108571695D02*
X113252552Y-107758895D01*
X113175142Y-107875009D01*
X113097733Y-107952419D01*
X113020323Y-107991123D01*
X113987942Y-107758895D02*
X114065352Y-107758895D01*
X114142761Y-107797600D01*
X114181466Y-107836304D01*
X114220171Y-107913714D01*
X114258876Y-108068533D01*
X114258876Y-108262057D01*
X114220171Y-108416876D01*
X114181466Y-108494285D01*
X114142761Y-108532990D01*
X114065352Y-108571695D01*
X113987942Y-108571695D01*
X113910533Y-108532990D01*
X113871828Y-108494285D01*
X113833123Y-108416876D01*
X113794419Y-108262057D01*
X113794419Y-108068533D01*
X113833123Y-107913714D01*
X113871828Y-107836304D01*
X113910533Y-107797600D01*
X113987942Y-107758895D01*
X114607219Y-108571695D02*
X114607219Y-107758895D01*
X115071676Y-108571695D02*
X114723333Y-108107238D01*
X115071676Y-107758895D02*
X114607219Y-108223352D01*
X114291533Y-111492695D02*
X114020600Y-111105647D01*
X113827076Y-111492695D02*
X113827076Y-110679895D01*
X114136714Y-110679895D01*
X114214123Y-110718600D01*
X114252828Y-110757304D01*
X114291533Y-110834714D01*
X114291533Y-110950828D01*
X114252828Y-111028238D01*
X114214123Y-111066942D01*
X114136714Y-111105647D01*
X113827076Y-111105647D01*
X114988219Y-110679895D02*
X114833400Y-110679895D01*
X114755990Y-110718600D01*
X114717285Y-110757304D01*
X114639876Y-110873419D01*
X114601171Y-111028238D01*
X114601171Y-111337876D01*
X114639876Y-111415285D01*
X114678580Y-111453990D01*
X114755990Y-111492695D01*
X114910809Y-111492695D01*
X114988219Y-111453990D01*
X115026923Y-111415285D01*
X115065628Y-111337876D01*
X115065628Y-111144352D01*
X115026923Y-111066942D01*
X114988219Y-111028238D01*
X114910809Y-110989533D01*
X114755990Y-110989533D01*
X114678580Y-111028238D01*
X114639876Y-111066942D01*
X114601171Y-111144352D01*
X113484780Y-112508695D02*
X113020323Y-112508695D01*
X113252552Y-112508695D02*
X113252552Y-111695895D01*
X113175142Y-111812009D01*
X113097733Y-111889419D01*
X113020323Y-111928123D01*
X113987942Y-111695895D02*
X114065352Y-111695895D01*
X114142761Y-111734600D01*
X114181466Y-111773304D01*
X114220171Y-111850714D01*
X114258876Y-112005533D01*
X114258876Y-112199057D01*
X114220171Y-112353876D01*
X114181466Y-112431285D01*
X114142761Y-112469990D01*
X114065352Y-112508695D01*
X113987942Y-112508695D01*
X113910533Y-112469990D01*
X113871828Y-112431285D01*
X113833123Y-112353876D01*
X113794419Y-112199057D01*
X113794419Y-112005533D01*
X113833123Y-111850714D01*
X113871828Y-111773304D01*
X113910533Y-111734600D01*
X113987942Y-111695895D01*
X114607219Y-112508695D02*
X114607219Y-111695895D01*
X115071676Y-112508695D02*
X114723333Y-112044238D01*
X115071676Y-111695895D02*
X114607219Y-112160352D01*
X125975533Y-107301695D02*
X125704600Y-106914647D01*
X125511076Y-107301695D02*
X125511076Y-106488895D01*
X125820714Y-106488895D01*
X125898123Y-106527600D01*
X125936828Y-106566304D01*
X125975533Y-106643714D01*
X125975533Y-106759828D01*
X125936828Y-106837238D01*
X125898123Y-106875942D01*
X125820714Y-106914647D01*
X125511076Y-106914647D01*
X126246466Y-106488895D02*
X126788333Y-106488895D01*
X126439990Y-107301695D01*
X125930780Y-108317695D02*
X125466323Y-108317695D01*
X125698552Y-108317695D02*
X125698552Y-107504895D01*
X125621142Y-107621009D01*
X125543733Y-107698419D01*
X125466323Y-107737123D01*
X126433942Y-107504895D02*
X126511352Y-107504895D01*
X126588761Y-107543600D01*
X126627466Y-107582304D01*
X126666171Y-107659714D01*
X126704876Y-107814533D01*
X126704876Y-108008057D01*
X126666171Y-108162876D01*
X126627466Y-108240285D01*
X126588761Y-108278990D01*
X126511352Y-108317695D01*
X126433942Y-108317695D01*
X126356533Y-108278990D01*
X126317828Y-108240285D01*
X126279123Y-108162876D01*
X126240419Y-108008057D01*
X126240419Y-107814533D01*
X126279123Y-107659714D01*
X126317828Y-107582304D01*
X126356533Y-107543600D01*
X126433942Y-107504895D01*
X127053219Y-108317695D02*
X127053219Y-107504895D01*
X127517676Y-108317695D02*
X127169333Y-107853238D01*
X127517676Y-107504895D02*
X127053219Y-107969352D01*
X113656533Y-104126695D02*
X113385600Y-103739647D01*
X113192076Y-104126695D02*
X113192076Y-103313895D01*
X113501714Y-103313895D01*
X113579123Y-103352600D01*
X113617828Y-103391304D01*
X113656533Y-103468714D01*
X113656533Y-103584828D01*
X113617828Y-103662238D01*
X113579123Y-103700942D01*
X113501714Y-103739647D01*
X113192076Y-103739647D01*
X114120990Y-103662238D02*
X114043580Y-103623533D01*
X114004876Y-103584828D01*
X113966171Y-103507419D01*
X113966171Y-103468714D01*
X114004876Y-103391304D01*
X114043580Y-103352600D01*
X114120990Y-103313895D01*
X114275809Y-103313895D01*
X114353219Y-103352600D01*
X114391923Y-103391304D01*
X114430628Y-103468714D01*
X114430628Y-103507419D01*
X114391923Y-103584828D01*
X114353219Y-103623533D01*
X114275809Y-103662238D01*
X114120990Y-103662238D01*
X114043580Y-103700942D01*
X114004876Y-103739647D01*
X113966171Y-103817057D01*
X113966171Y-103971876D01*
X114004876Y-104049285D01*
X114043580Y-104087990D01*
X114120990Y-104126695D01*
X114275809Y-104126695D01*
X114353219Y-104087990D01*
X114391923Y-104049285D01*
X114430628Y-103971876D01*
X114430628Y-103817057D01*
X114391923Y-103739647D01*
X114353219Y-103700942D01*
X114275809Y-103662238D01*
X113426723Y-104727828D02*
X113426723Y-105269695D01*
X113233200Y-104418190D02*
X113039676Y-104998761D01*
X113542838Y-104998761D01*
X113775066Y-104456895D02*
X114316933Y-104456895D01*
X113968590Y-105269695D01*
X114781390Y-104456895D02*
X114858800Y-104456895D01*
X114936209Y-104495600D01*
X114974914Y-104534304D01*
X115013619Y-104611714D01*
X115052323Y-104766533D01*
X115052323Y-104960057D01*
X115013619Y-105114876D01*
X114974914Y-105192285D01*
X114936209Y-105230990D01*
X114858800Y-105269695D01*
X114781390Y-105269695D01*
X114703980Y-105230990D01*
X114665276Y-105192285D01*
X114626571Y-105114876D01*
X114587866Y-104960057D01*
X114587866Y-104766533D01*
X114626571Y-104611714D01*
X114665276Y-104534304D01*
X114703980Y-104495600D01*
X114781390Y-104456895D01*
X136897533Y-67931695D02*
X136626600Y-67544647D01*
X136433076Y-67931695D02*
X136433076Y-67118895D01*
X136742714Y-67118895D01*
X136820123Y-67157600D01*
X136858828Y-67196304D01*
X136897533Y-67273714D01*
X136897533Y-67389828D01*
X136858828Y-67467238D01*
X136820123Y-67505942D01*
X136742714Y-67544647D01*
X136433076Y-67544647D01*
X137284580Y-67931695D02*
X137439400Y-67931695D01*
X137516809Y-67892990D01*
X137555514Y-67854285D01*
X137632923Y-67738171D01*
X137671628Y-67583352D01*
X137671628Y-67273714D01*
X137632923Y-67196304D01*
X137594219Y-67157600D01*
X137516809Y-67118895D01*
X137361990Y-67118895D01*
X137284580Y-67157600D01*
X137245876Y-67196304D01*
X137207171Y-67273714D01*
X137207171Y-67467238D01*
X137245876Y-67544647D01*
X137284580Y-67583352D01*
X137361990Y-67622057D01*
X137516809Y-67622057D01*
X137594219Y-67583352D01*
X137632923Y-67544647D01*
X137671628Y-67467238D01*
X136725780Y-68947695D02*
X136261323Y-68947695D01*
X136493552Y-68947695D02*
X136493552Y-68134895D01*
X136416142Y-68251009D01*
X136338733Y-68328419D01*
X136261323Y-68367123D01*
X137228942Y-68134895D02*
X137306352Y-68134895D01*
X137383761Y-68173600D01*
X137422466Y-68212304D01*
X137461171Y-68289714D01*
X137499876Y-68444533D01*
X137499876Y-68638057D01*
X137461171Y-68792876D01*
X137422466Y-68870285D01*
X137383761Y-68908990D01*
X137306352Y-68947695D01*
X137228942Y-68947695D01*
X137151533Y-68908990D01*
X137112828Y-68870285D01*
X137074123Y-68792876D01*
X137035419Y-68638057D01*
X137035419Y-68444533D01*
X137074123Y-68289714D01*
X137112828Y-68212304D01*
X137151533Y-68173600D01*
X137228942Y-68134895D01*
X137848219Y-68947695D02*
X137848219Y-68134895D01*
X138312676Y-68947695D02*
X137964333Y-68483238D01*
X138312676Y-68134895D02*
X137848219Y-68599352D01*
X135925076Y-67423695D02*
X135925076Y-66610895D01*
X136118600Y-66610895D01*
X136234714Y-66649600D01*
X136312123Y-66727009D01*
X136350828Y-66804419D01*
X136389533Y-66959238D01*
X136389533Y-67075352D01*
X136350828Y-67230171D01*
X136312123Y-67307580D01*
X136234714Y-67384990D01*
X136118600Y-67423695D01*
X135925076Y-67423695D01*
X136660466Y-66610895D02*
X137163628Y-66610895D01*
X136892695Y-66920533D01*
X137008809Y-66920533D01*
X137086219Y-66959238D01*
X137124923Y-66997942D01*
X137163628Y-67075352D01*
X137163628Y-67268876D01*
X137124923Y-67346285D01*
X137086219Y-67384990D01*
X137008809Y-67423695D01*
X136776580Y-67423695D01*
X136699171Y-67384990D01*
X136660466Y-67346285D01*
X110144076Y-108190695D02*
X110144076Y-107377895D01*
X110337600Y-107377895D01*
X110453714Y-107416600D01*
X110531123Y-107494009D01*
X110569828Y-107571419D01*
X110608533Y-107726238D01*
X110608533Y-107842352D01*
X110569828Y-107997171D01*
X110531123Y-108074580D01*
X110453714Y-108151990D01*
X110337600Y-108190695D01*
X110144076Y-108190695D01*
X111305219Y-107648828D02*
X111305219Y-108190695D01*
X111111695Y-107339190D02*
X110918171Y-107919761D01*
X111421333Y-107919761D01*
D20*
X178228666Y-57364380D02*
X178228666Y-58078666D01*
X178181047Y-58221523D01*
X178085809Y-58316761D01*
X177942952Y-58364380D01*
X177847714Y-58364380D01*
X179133428Y-57697714D02*
X179133428Y-58364380D01*
X178895333Y-57316761D02*
X178657238Y-58031047D01*
X179276285Y-58031047D01*
D19*
X147813485Y-58761085D02*
X147774780Y-58799790D01*
X147658666Y-58838495D01*
X147581257Y-58838495D01*
X147465142Y-58799790D01*
X147387733Y-58722380D01*
X147349028Y-58644971D01*
X147310323Y-58490152D01*
X147310323Y-58374038D01*
X147349028Y-58219219D01*
X147387733Y-58141809D01*
X147465142Y-58064400D01*
X147581257Y-58025695D01*
X147658666Y-58025695D01*
X147774780Y-58064400D01*
X147813485Y-58103104D01*
X148084419Y-58025695D02*
X148587580Y-58025695D01*
X148316647Y-58335333D01*
X148432761Y-58335333D01*
X148510171Y-58374038D01*
X148548876Y-58412742D01*
X148587580Y-58490152D01*
X148587580Y-58683676D01*
X148548876Y-58761085D01*
X148510171Y-58799790D01*
X148432761Y-58838495D01*
X148200533Y-58838495D01*
X148123123Y-58799790D01*
X148084419Y-58761085D01*
X148897219Y-58103104D02*
X148935923Y-58064400D01*
X149013333Y-58025695D01*
X149206857Y-58025695D01*
X149284266Y-58064400D01*
X149322971Y-58103104D01*
X149361676Y-58180514D01*
X149361676Y-58257923D01*
X149322971Y-58374038D01*
X148858514Y-58838495D01*
X149361676Y-58838495D01*
X146824095Y-62648495D02*
X146359638Y-62648495D01*
X146591866Y-62648495D02*
X146591866Y-61835695D01*
X146514457Y-61951809D01*
X146437047Y-62029219D01*
X146359638Y-62067923D01*
X147327257Y-61835695D02*
X147404666Y-61835695D01*
X147482076Y-61874400D01*
X147520780Y-61913104D01*
X147559485Y-61990514D01*
X147598190Y-62145333D01*
X147598190Y-62338857D01*
X147559485Y-62493676D01*
X147520780Y-62571085D01*
X147482076Y-62609790D01*
X147404666Y-62648495D01*
X147327257Y-62648495D01*
X147249847Y-62609790D01*
X147211142Y-62571085D01*
X147172438Y-62493676D01*
X147133733Y-62338857D01*
X147133733Y-62145333D01*
X147172438Y-61990514D01*
X147211142Y-61913104D01*
X147249847Y-61874400D01*
X147327257Y-61835695D01*
X148101352Y-61835695D02*
X148178761Y-61835695D01*
X148256171Y-61874400D01*
X148294876Y-61913104D01*
X148333580Y-61990514D01*
X148372285Y-62145333D01*
X148372285Y-62338857D01*
X148333580Y-62493676D01*
X148294876Y-62571085D01*
X148256171Y-62609790D01*
X148178761Y-62648495D01*
X148101352Y-62648495D01*
X148023942Y-62609790D01*
X147985238Y-62571085D01*
X147946533Y-62493676D01*
X147907828Y-62338857D01*
X147907828Y-62145333D01*
X147946533Y-61990514D01*
X147985238Y-61913104D01*
X148023942Y-61874400D01*
X148101352Y-61835695D01*
X148720628Y-62106628D02*
X148720628Y-62648495D01*
X148720628Y-62184038D02*
X148759333Y-62145333D01*
X148836742Y-62106628D01*
X148952857Y-62106628D01*
X149030266Y-62145333D01*
X149068971Y-62222742D01*
X149068971Y-62648495D01*
X149726952Y-62222742D02*
X149456019Y-62222742D01*
X149456019Y-62648495D02*
X149456019Y-61835695D01*
X149843066Y-61835695D01*
X126604485Y-110653285D02*
X126565780Y-110691990D01*
X126449666Y-110730695D01*
X126372257Y-110730695D01*
X126256142Y-110691990D01*
X126178733Y-110614580D01*
X126140028Y-110537171D01*
X126101323Y-110382352D01*
X126101323Y-110266238D01*
X126140028Y-110111419D01*
X126178733Y-110034009D01*
X126256142Y-109956600D01*
X126372257Y-109917895D01*
X126449666Y-109917895D01*
X126565780Y-109956600D01*
X126604485Y-109995304D01*
X126914123Y-109995304D02*
X126952828Y-109956600D01*
X127030238Y-109917895D01*
X127223761Y-109917895D01*
X127301171Y-109956600D01*
X127339876Y-109995304D01*
X127378580Y-110072714D01*
X127378580Y-110150123D01*
X127339876Y-110266238D01*
X126875419Y-110730695D01*
X127378580Y-110730695D01*
X127688219Y-109995304D02*
X127726923Y-109956600D01*
X127804333Y-109917895D01*
X127997857Y-109917895D01*
X128075266Y-109956600D01*
X128113971Y-109995304D01*
X128152676Y-110072714D01*
X128152676Y-110150123D01*
X128113971Y-110266238D01*
X127649514Y-110730695D01*
X128152676Y-110730695D01*
X125621142Y-109587695D02*
X125156685Y-109587695D01*
X125388914Y-109587695D02*
X125388914Y-108774895D01*
X125311504Y-108891009D01*
X125234095Y-108968419D01*
X125156685Y-109007123D01*
X125930780Y-108852304D02*
X125969485Y-108813600D01*
X126046895Y-108774895D01*
X126240419Y-108774895D01*
X126317828Y-108813600D01*
X126356533Y-108852304D01*
X126395238Y-108929714D01*
X126395238Y-109007123D01*
X126356533Y-109123238D01*
X125892076Y-109587695D01*
X126395238Y-109587695D01*
X126743580Y-109045828D02*
X126743580Y-109858628D01*
X126743580Y-109084533D02*
X126820990Y-109045828D01*
X126975809Y-109045828D01*
X127053219Y-109084533D01*
X127091923Y-109123238D01*
X127130628Y-109200647D01*
X127130628Y-109432876D01*
X127091923Y-109510285D01*
X127053219Y-109548990D01*
X126975809Y-109587695D01*
X126820990Y-109587695D01*
X126743580Y-109548990D01*
X127749904Y-109161942D02*
X127478971Y-109161942D01*
X127478971Y-109587695D02*
X127478971Y-108774895D01*
X127866019Y-108774895D01*
X129144485Y-110653285D02*
X129105780Y-110691990D01*
X128989666Y-110730695D01*
X128912257Y-110730695D01*
X128796142Y-110691990D01*
X128718733Y-110614580D01*
X128680028Y-110537171D01*
X128641323Y-110382352D01*
X128641323Y-110266238D01*
X128680028Y-110111419D01*
X128718733Y-110034009D01*
X128796142Y-109956600D01*
X128912257Y-109917895D01*
X128989666Y-109917895D01*
X129105780Y-109956600D01*
X129144485Y-109995304D01*
X129454123Y-109995304D02*
X129492828Y-109956600D01*
X129570238Y-109917895D01*
X129763761Y-109917895D01*
X129841171Y-109956600D01*
X129879876Y-109995304D01*
X129918580Y-110072714D01*
X129918580Y-110150123D01*
X129879876Y-110266238D01*
X129415419Y-110730695D01*
X129918580Y-110730695D01*
X130305628Y-110730695D02*
X130460447Y-110730695D01*
X130537857Y-110691990D01*
X130576561Y-110653285D01*
X130653971Y-110537171D01*
X130692676Y-110382352D01*
X130692676Y-110072714D01*
X130653971Y-109995304D01*
X130615266Y-109956600D01*
X130537857Y-109917895D01*
X130383038Y-109917895D01*
X130305628Y-109956600D01*
X130266923Y-109995304D01*
X130228219Y-110072714D01*
X130228219Y-110266238D01*
X130266923Y-110343647D01*
X130305628Y-110382352D01*
X130383038Y-110421057D01*
X130537857Y-110421057D01*
X130615266Y-110382352D01*
X130653971Y-110343647D01*
X130692676Y-110266238D01*
X129050142Y-109587695D02*
X128585685Y-109587695D01*
X128817914Y-109587695D02*
X128817914Y-108774895D01*
X128740504Y-108891009D01*
X128663095Y-108968419D01*
X128585685Y-109007123D01*
X129359780Y-108852304D02*
X129398485Y-108813600D01*
X129475895Y-108774895D01*
X129669419Y-108774895D01*
X129746828Y-108813600D01*
X129785533Y-108852304D01*
X129824238Y-108929714D01*
X129824238Y-109007123D01*
X129785533Y-109123238D01*
X129321076Y-109587695D01*
X129824238Y-109587695D01*
X130172580Y-109045828D02*
X130172580Y-109858628D01*
X130172580Y-109084533D02*
X130249990Y-109045828D01*
X130404809Y-109045828D01*
X130482219Y-109084533D01*
X130520923Y-109123238D01*
X130559628Y-109200647D01*
X130559628Y-109432876D01*
X130520923Y-109510285D01*
X130482219Y-109548990D01*
X130404809Y-109587695D01*
X130249990Y-109587695D01*
X130172580Y-109548990D01*
X131178904Y-109161942D02*
X130907971Y-109161942D01*
X130907971Y-109587695D02*
X130907971Y-108774895D01*
X131295019Y-108774895D01*
X174773045Y-76699654D02*
X174811750Y-76738359D01*
X174850455Y-76854473D01*
X174850455Y-76931882D01*
X174811750Y-77047997D01*
X174734340Y-77125406D01*
X174656931Y-77164111D01*
X174502112Y-77202816D01*
X174385998Y-77202816D01*
X174231179Y-77164111D01*
X174153769Y-77125406D01*
X174076360Y-77047997D01*
X174037655Y-76931882D01*
X174037655Y-76854473D01*
X174076360Y-76738359D01*
X174115064Y-76699654D01*
X174850455Y-75925559D02*
X174850455Y-76390016D01*
X174850455Y-76157787D02*
X174037655Y-76157787D01*
X174153769Y-76235197D01*
X174231179Y-76312606D01*
X174269883Y-76390016D01*
X174037655Y-75422397D02*
X174037655Y-75344987D01*
X174076360Y-75267578D01*
X174115064Y-75228873D01*
X174192474Y-75190168D01*
X174347293Y-75151463D01*
X174540817Y-75151463D01*
X174695636Y-75190168D01*
X174773045Y-75228873D01*
X174811750Y-75267578D01*
X174850455Y-75344987D01*
X174850455Y-75422397D01*
X174811750Y-75499806D01*
X174773045Y-75538511D01*
X174695636Y-75577216D01*
X174540817Y-75615920D01*
X174347293Y-75615920D01*
X174192474Y-75577216D01*
X174115064Y-75538511D01*
X174076360Y-75499806D01*
X174037655Y-75422397D01*
X174646045Y-97019654D02*
X174684750Y-97058359D01*
X174723455Y-97174473D01*
X174723455Y-97251882D01*
X174684750Y-97367997D01*
X174607340Y-97445406D01*
X174529931Y-97484111D01*
X174375112Y-97522816D01*
X174258998Y-97522816D01*
X174104179Y-97484111D01*
X174026769Y-97445406D01*
X173949360Y-97367997D01*
X173910655Y-97251882D01*
X173910655Y-97174473D01*
X173949360Y-97058359D01*
X173988064Y-97019654D01*
X174723455Y-96245559D02*
X174723455Y-96710016D01*
X174723455Y-96477787D02*
X173910655Y-96477787D01*
X174026769Y-96555197D01*
X174104179Y-96632606D01*
X174142883Y-96710016D01*
X173988064Y-95935920D02*
X173949360Y-95897216D01*
X173910655Y-95819806D01*
X173910655Y-95626282D01*
X173949360Y-95548873D01*
X173988064Y-95510168D01*
X174065474Y-95471463D01*
X174142883Y-95471463D01*
X174258998Y-95510168D01*
X174723455Y-95974625D01*
X174723455Y-95471463D01*
X161225895Y-90424483D02*
X160413095Y-90424483D01*
X160413095Y-90230960D01*
X160451800Y-90114845D01*
X160529209Y-90037436D01*
X160606619Y-89998731D01*
X160761438Y-89960026D01*
X160877552Y-89960026D01*
X161032371Y-89998731D01*
X161109780Y-90037436D01*
X161187190Y-90114845D01*
X161225895Y-90230960D01*
X161225895Y-90424483D01*
X160490504Y-89650388D02*
X160451800Y-89611683D01*
X160413095Y-89534274D01*
X160413095Y-89340750D01*
X160451800Y-89263340D01*
X160490504Y-89224636D01*
X160567914Y-89185931D01*
X160645323Y-89185931D01*
X160761438Y-89224636D01*
X161225895Y-89689093D01*
X161225895Y-89185931D01*
X161590566Y-73157442D02*
X161319633Y-73157442D01*
X161319633Y-73583195D02*
X161319633Y-72770395D01*
X161706680Y-72770395D01*
X162442071Y-73583195D02*
X161977614Y-73583195D01*
X162209842Y-73583195D02*
X162209842Y-72770395D01*
X162132433Y-72886509D01*
X162055023Y-72963919D01*
X161977614Y-73002623D01*
D14*
X91123346Y-104968523D02*
X91123346Y-105875666D01*
X91062870Y-106057095D01*
X90941918Y-106178047D01*
X90760489Y-106238523D01*
X90639537Y-106238523D01*
X91607156Y-104968523D02*
X92393346Y-104968523D01*
X91970013Y-105452333D01*
X92151441Y-105452333D01*
X92272394Y-105512809D01*
X92332870Y-105573285D01*
X92393346Y-105694238D01*
X92393346Y-105996619D01*
X92332870Y-106117571D01*
X92272394Y-106178047D01*
X92151441Y-106238523D01*
X91788584Y-106238523D01*
X91667632Y-106178047D01*
X91607156Y-106117571D01*
D19*
X173907873Y-84395975D02*
X173520825Y-84395975D01*
X173520825Y-83583175D01*
X174604559Y-84395975D02*
X174140101Y-84395975D01*
X174372330Y-84395975D02*
X174372330Y-83583175D01*
X174294920Y-83699289D01*
X174217511Y-83776699D01*
X174140101Y-83815403D01*
X152684963Y-56750615D02*
X152684963Y-57408596D01*
X152723668Y-57486005D01*
X152762373Y-57524710D01*
X152839782Y-57563415D01*
X152994601Y-57563415D01*
X153072011Y-57524710D01*
X153110716Y-57486005D01*
X153149420Y-57408596D01*
X153149420Y-56750615D01*
X153962220Y-57563415D02*
X153497763Y-57563415D01*
X153729992Y-57563415D02*
X153729992Y-56750615D01*
X153652582Y-56866729D01*
X153575173Y-56944139D01*
X153497763Y-56982843D01*
X148857546Y-64350295D02*
X148857546Y-63537495D01*
X149128480Y-64118066D01*
X149399413Y-63537495D01*
X149399413Y-64350295D01*
X150250918Y-64272885D02*
X150212213Y-64311590D01*
X150096099Y-64350295D01*
X150018689Y-64350295D01*
X149902575Y-64311590D01*
X149825165Y-64234180D01*
X149786460Y-64156771D01*
X149747756Y-64001952D01*
X149747756Y-63885838D01*
X149786460Y-63731019D01*
X149825165Y-63653609D01*
X149902575Y-63576200D01*
X150018689Y-63537495D01*
X150096099Y-63537495D01*
X150212213Y-63576200D01*
X150250918Y-63614904D01*
X150599260Y-64350295D02*
X150599260Y-63537495D01*
X150908899Y-63537495D01*
X150986308Y-63576200D01*
X151025013Y-63614904D01*
X151063718Y-63692314D01*
X151063718Y-63808428D01*
X151025013Y-63885838D01*
X150986308Y-63924542D01*
X150908899Y-63963247D01*
X150599260Y-63963247D01*
X151373356Y-63614904D02*
X151412060Y-63576200D01*
X151489470Y-63537495D01*
X151682994Y-63537495D01*
X151760403Y-63576200D01*
X151799108Y-63614904D01*
X151837813Y-63692314D01*
X151837813Y-63769723D01*
X151799108Y-63885838D01*
X151334651Y-64350295D01*
X151837813Y-64350295D01*
X152573203Y-63537495D02*
X152186156Y-63537495D01*
X152147451Y-63924542D01*
X152186156Y-63885838D01*
X152263565Y-63847133D01*
X152457089Y-63847133D01*
X152534499Y-63885838D01*
X152573203Y-63924542D01*
X152611908Y-64001952D01*
X152611908Y-64195476D01*
X152573203Y-64272885D01*
X152534499Y-64311590D01*
X152457089Y-64350295D01*
X152263565Y-64350295D01*
X152186156Y-64311590D01*
X152147451Y-64272885D01*
X153347299Y-63537495D02*
X152960251Y-63537495D01*
X152921546Y-63924542D01*
X152960251Y-63885838D01*
X153037660Y-63847133D01*
X153231184Y-63847133D01*
X153308594Y-63885838D01*
X153347299Y-63924542D01*
X153386003Y-64001952D01*
X153386003Y-64195476D01*
X153347299Y-64272885D01*
X153308594Y-64311590D01*
X153231184Y-64350295D01*
X153037660Y-64350295D01*
X152960251Y-64311590D01*
X152921546Y-64272885D01*
X154160099Y-64350295D02*
X153695641Y-64350295D01*
X153927870Y-64350295D02*
X153927870Y-63537495D01*
X153850460Y-63653609D01*
X153773051Y-63731019D01*
X153695641Y-63769723D01*
X154314918Y-64427704D02*
X154934194Y-64427704D01*
X155089013Y-64311590D02*
X155205127Y-64350295D01*
X155398651Y-64350295D01*
X155476060Y-64311590D01*
X155514765Y-64272885D01*
X155553470Y-64195476D01*
X155553470Y-64118066D01*
X155514765Y-64040657D01*
X155476060Y-64001952D01*
X155398651Y-63963247D01*
X155243832Y-63924542D01*
X155166422Y-63885838D01*
X155127718Y-63847133D01*
X155089013Y-63769723D01*
X155089013Y-63692314D01*
X155127718Y-63614904D01*
X155166422Y-63576200D01*
X155243832Y-63537495D01*
X155437356Y-63537495D01*
X155553470Y-63576200D01*
X156056632Y-63537495D02*
X156211451Y-63537495D01*
X156288860Y-63576200D01*
X156366270Y-63653609D01*
X156404975Y-63808428D01*
X156404975Y-64079361D01*
X156366270Y-64234180D01*
X156288860Y-64311590D01*
X156211451Y-64350295D01*
X156056632Y-64350295D01*
X155979222Y-64311590D01*
X155901813Y-64234180D01*
X155863108Y-64079361D01*
X155863108Y-63808428D01*
X155901813Y-63653609D01*
X155979222Y-63576200D01*
X156056632Y-63537495D01*
X156753318Y-64350295D02*
X156753318Y-63537495D01*
X157604822Y-64272885D02*
X157566118Y-64311590D01*
X157450003Y-64350295D01*
X157372594Y-64350295D01*
X157256480Y-64311590D01*
X157179070Y-64234180D01*
X157140365Y-64156771D01*
X157101660Y-64001952D01*
X157101660Y-63885838D01*
X157140365Y-63731019D01*
X157179070Y-63653609D01*
X157256480Y-63576200D01*
X157372594Y-63537495D01*
X157450003Y-63537495D01*
X157566118Y-63576200D01*
X157604822Y-63614904D01*
X158069280Y-63885838D02*
X157991870Y-63847133D01*
X157953165Y-63808428D01*
X157914460Y-63731019D01*
X157914460Y-63692314D01*
X157953165Y-63614904D01*
X157991870Y-63576200D01*
X158069280Y-63537495D01*
X158224099Y-63537495D01*
X158301508Y-63576200D01*
X158340213Y-63614904D01*
X158378918Y-63692314D01*
X158378918Y-63731019D01*
X158340213Y-63808428D01*
X158301508Y-63847133D01*
X158224099Y-63885838D01*
X158069280Y-63885838D01*
X157991870Y-63924542D01*
X157953165Y-63963247D01*
X157914460Y-64040657D01*
X157914460Y-64195476D01*
X157953165Y-64272885D01*
X157991870Y-64311590D01*
X158069280Y-64350295D01*
X158224099Y-64350295D01*
X158301508Y-64311590D01*
X158340213Y-64272885D01*
X158378918Y-64195476D01*
X158378918Y-64040657D01*
X158340213Y-63963247D01*
X158301508Y-63924542D01*
X158224099Y-63885838D01*
X94971083Y-73687335D02*
X94971083Y-74345316D01*
X95009788Y-74422725D01*
X95048493Y-74461430D01*
X95125902Y-74500135D01*
X95280721Y-74500135D01*
X95358131Y-74461430D01*
X95396836Y-74422725D01*
X95435540Y-74345316D01*
X95435540Y-73687335D01*
X95783883Y-73764744D02*
X95822588Y-73726040D01*
X95899998Y-73687335D01*
X96093521Y-73687335D01*
X96170931Y-73726040D01*
X96209636Y-73764744D01*
X96248340Y-73842154D01*
X96248340Y-73919563D01*
X96209636Y-74035678D01*
X95745179Y-74500135D01*
X96248340Y-74500135D01*
X126012423Y-63218725D02*
X126012423Y-63876706D01*
X126051128Y-63954115D01*
X126089833Y-63992820D01*
X126167242Y-64031525D01*
X126322061Y-64031525D01*
X126399471Y-63992820D01*
X126438176Y-63954115D01*
X126476880Y-63876706D01*
X126476880Y-63218725D01*
X126786519Y-63218725D02*
X127289680Y-63218725D01*
X127018747Y-63528363D01*
X127134861Y-63528363D01*
X127212271Y-63567068D01*
X127250976Y-63605772D01*
X127289680Y-63683182D01*
X127289680Y-63876706D01*
X127250976Y-63954115D01*
X127212271Y-63992820D01*
X127134861Y-64031525D01*
X126902633Y-64031525D01*
X126825223Y-63992820D01*
X126786519Y-63954115D01*
X108146723Y-106456895D02*
X108146723Y-107114876D01*
X108185428Y-107192285D01*
X108224133Y-107230990D01*
X108301542Y-107269695D01*
X108456361Y-107269695D01*
X108533771Y-107230990D01*
X108572476Y-107192285D01*
X108611180Y-107114876D01*
X108611180Y-106456895D01*
X109385276Y-106456895D02*
X108998228Y-106456895D01*
X108959523Y-106843942D01*
X108998228Y-106805238D01*
X109075638Y-106766533D01*
X109269161Y-106766533D01*
X109346571Y-106805238D01*
X109385276Y-106843942D01*
X109423980Y-106921352D01*
X109423980Y-107114876D01*
X109385276Y-107192285D01*
X109346571Y-107230990D01*
X109269161Y-107269695D01*
X109075638Y-107269695D01*
X108998228Y-107230990D01*
X108959523Y-107192285D01*
X89750723Y-67150895D02*
X89750723Y-67808876D01*
X89789428Y-67886285D01*
X89828133Y-67924990D01*
X89905542Y-67963695D01*
X90060361Y-67963695D01*
X90137771Y-67924990D01*
X90176476Y-67886285D01*
X90215180Y-67808876D01*
X90215180Y-67150895D01*
X90950571Y-67150895D02*
X90795752Y-67150895D01*
X90718342Y-67189600D01*
X90679638Y-67228304D01*
X90602228Y-67344419D01*
X90563523Y-67499238D01*
X90563523Y-67808876D01*
X90602228Y-67886285D01*
X90640933Y-67924990D01*
X90718342Y-67963695D01*
X90873161Y-67963695D01*
X90950571Y-67924990D01*
X90989276Y-67886285D01*
X91027980Y-67808876D01*
X91027980Y-67615352D01*
X90989276Y-67537942D01*
X90950571Y-67499238D01*
X90873161Y-67460533D01*
X90718342Y-67460533D01*
X90640933Y-67499238D01*
X90602228Y-67537942D01*
X90563523Y-67615352D01*
X137175119Y-66115595D02*
X137446052Y-66928395D01*
X137716985Y-66115595D01*
X138452376Y-66928395D02*
X138181442Y-66541347D01*
X137987919Y-66928395D02*
X137987919Y-66115595D01*
X138297557Y-66115595D01*
X138374966Y-66154300D01*
X138413671Y-66193004D01*
X138452376Y-66270414D01*
X138452376Y-66386528D01*
X138413671Y-66463938D01*
X138374966Y-66502642D01*
X138297557Y-66541347D01*
X137987919Y-66541347D01*
X138762014Y-66193004D02*
X138800719Y-66154300D01*
X138878128Y-66115595D01*
X139071652Y-66115595D01*
X139149061Y-66154300D01*
X139187766Y-66193004D01*
X139226471Y-66270414D01*
X139226471Y-66347823D01*
X139187766Y-66463938D01*
X138723309Y-66928395D01*
X139226471Y-66928395D01*
X133126480Y-65828575D02*
X132855546Y-65441527D01*
X132662022Y-65828575D02*
X132662022Y-65015775D01*
X132971660Y-65015775D01*
X133049070Y-65054480D01*
X133087775Y-65093184D01*
X133126480Y-65170594D01*
X133126480Y-65286708D01*
X133087775Y-65364118D01*
X133049070Y-65402822D01*
X132971660Y-65441527D01*
X132662022Y-65441527D01*
X133474822Y-65402822D02*
X133745756Y-65402822D01*
X133861870Y-65828575D02*
X133474822Y-65828575D01*
X133474822Y-65015775D01*
X133861870Y-65015775D01*
X134635965Y-65054480D02*
X134558556Y-65015775D01*
X134442441Y-65015775D01*
X134326327Y-65054480D01*
X134248918Y-65131889D01*
X134210213Y-65209299D01*
X134171508Y-65364118D01*
X134171508Y-65480232D01*
X134210213Y-65635051D01*
X134248918Y-65712460D01*
X134326327Y-65789870D01*
X134442441Y-65828575D01*
X134519851Y-65828575D01*
X134635965Y-65789870D01*
X134674670Y-65751165D01*
X134674670Y-65480232D01*
X134519851Y-65480232D01*
X134829489Y-65905984D02*
X135448765Y-65905984D01*
X135642289Y-65828575D02*
X135642289Y-65015775D01*
X135913222Y-65596346D01*
X136184156Y-65015775D01*
X136184156Y-65828575D01*
X137035660Y-65751165D02*
X136996956Y-65789870D01*
X136880841Y-65828575D01*
X136803432Y-65828575D01*
X136687318Y-65789870D01*
X136609908Y-65712460D01*
X136571203Y-65635051D01*
X136532499Y-65480232D01*
X136532499Y-65364118D01*
X136571203Y-65209299D01*
X136609908Y-65131889D01*
X136687318Y-65054480D01*
X136803432Y-65015775D01*
X136880841Y-65015775D01*
X136996956Y-65054480D01*
X137035660Y-65093184D01*
X137384003Y-65828575D02*
X137384003Y-65015775D01*
X137693641Y-65015775D01*
X137771051Y-65054480D01*
X137809756Y-65093184D01*
X137848460Y-65170594D01*
X137848460Y-65286708D01*
X137809756Y-65364118D01*
X137771051Y-65402822D01*
X137693641Y-65441527D01*
X137384003Y-65441527D01*
X138622556Y-65828575D02*
X138158099Y-65828575D01*
X138390327Y-65828575D02*
X138390327Y-65015775D01*
X138312918Y-65131889D01*
X138235508Y-65209299D01*
X138158099Y-65248003D01*
X138893489Y-65015775D02*
X139435356Y-65015775D01*
X139087013Y-65828575D01*
X139899813Y-65015775D02*
X139977222Y-65015775D01*
X140054632Y-65054480D01*
X140093337Y-65093184D01*
X140132041Y-65170594D01*
X140170746Y-65325413D01*
X140170746Y-65518937D01*
X140132041Y-65673756D01*
X140093337Y-65751165D01*
X140054632Y-65789870D01*
X139977222Y-65828575D01*
X139899813Y-65828575D01*
X139822403Y-65789870D01*
X139783699Y-65751165D01*
X139744994Y-65673756D01*
X139706289Y-65518937D01*
X139706289Y-65325413D01*
X139744994Y-65170594D01*
X139783699Y-65093184D01*
X139822403Y-65054480D01*
X139899813Y-65015775D01*
X140673908Y-65015775D02*
X140751318Y-65015775D01*
X140828727Y-65054480D01*
X140867432Y-65093184D01*
X140906137Y-65170594D01*
X140944841Y-65325413D01*
X140944841Y-65518937D01*
X140906137Y-65673756D01*
X140867432Y-65751165D01*
X140828727Y-65789870D01*
X140751318Y-65828575D01*
X140673908Y-65828575D01*
X140596499Y-65789870D01*
X140557794Y-65751165D01*
X140519089Y-65673756D01*
X140480384Y-65518937D01*
X140480384Y-65325413D01*
X140519089Y-65170594D01*
X140557794Y-65093184D01*
X140596499Y-65054480D01*
X140673908Y-65015775D01*
X134830699Y-105051255D02*
X135372565Y-105864055D01*
X135372565Y-105051255D02*
X134830699Y-105864055D01*
X136107956Y-105864055D02*
X135643499Y-105864055D01*
X135875727Y-105864055D02*
X135875727Y-105051255D01*
X135798318Y-105167369D01*
X135720908Y-105244779D01*
X135643499Y-105283483D01*
X125526195Y-119075320D02*
X126338995Y-118533454D01*
X125526195Y-118533454D02*
X126338995Y-119075320D01*
X125603604Y-118262520D02*
X125564900Y-118223816D01*
X125526195Y-118146406D01*
X125526195Y-117952882D01*
X125564900Y-117875473D01*
X125603604Y-117836768D01*
X125681014Y-117798063D01*
X125758423Y-117798063D01*
X125874538Y-117836768D01*
X126338995Y-118301225D01*
X126338995Y-117798063D01*
M02*
