G04 #@! TF.GenerationSoftware,KiCad,Pcbnew,(2017-01-11 revision e99b79c)-master*
G04 #@! TF.CreationDate,2017-06-25T19:43:28+03:00*
G04 #@! TF.ProjectId,display,646973706C61792E6B696361645F7063,rev?*
G04 #@! TF.FileFunction,Soldermask,Top*
G04 #@! TF.FilePolarity,Negative*
%FSLAX46Y46*%
G04 Gerber Fmt 4.6, Leading zero omitted, Abs format (unit mm)*
G04 Created by KiCad (PCBNEW (2017-01-11 revision e99b79c)-master) date Sun Jun 25 19:43:28 2017*
%MOMM*%
%LPD*%
G01*
G04 APERTURE LIST*
%ADD10C,0.100000*%
%ADD11R,3.199080X3.399740*%
%ADD12R,0.679400X1.873200*%
%ADD13R,1.873200X0.679400*%
%ADD14R,1.416000X0.755600*%
%ADD15R,1.060400X1.339800*%
%ADD16R,1.924000X1.035000*%
%ADD17O,1.924000X1.035000*%
%ADD18R,2.017980X2.579320*%
%ADD19R,1.035000X1.924000*%
%ADD20O,1.035000X1.924000*%
%ADD21R,3.999180X2.998420*%
%ADD22R,2.998420X3.999180*%
%ADD23R,1.035000X2.305000*%
%ADD24R,1.339800X1.060400*%
%ADD25R,1.162000X1.339800*%
%ADD26R,1.339800X1.162000*%
%ADD27R,3.200000X2.500000*%
%ADD28R,2.300000X1.000000*%
%ADD29R,1.799540X1.697940*%
%ADD30R,1.398220X2.299920*%
%ADD31R,1.047700X1.449020*%
%ADD32R,2.099260X2.797760*%
%ADD33R,3.023820X3.023820*%
%ADD34C,3.023820*%
%ADD35C,3.399740*%
%ADD36C,1.924000*%
%ADD37R,1.900000X1.900000*%
%ADD38R,0.700000X1.600000*%
%ADD39R,1.400000X1.700000*%
%ADD40R,2.200000X3.100000*%
%ADD41R,0.897840X1.098500*%
%ADD42R,1.200000X0.900000*%
%ADD43R,2.400000X3.200000*%
G04 APERTURE END LIST*
D10*
D11*
X157600000Y-70248580D03*
X157600000Y-59951420D03*
D12*
X112051577Y-100727773D03*
X112559577Y-100727773D03*
X113042177Y-100727773D03*
X113550177Y-100727773D03*
X114058177Y-100727773D03*
X114540777Y-100727773D03*
X115048777Y-100727773D03*
X115556777Y-100727773D03*
X116067317Y-100727773D03*
X116547377Y-100727773D03*
X117055377Y-100727773D03*
X117565917Y-100727773D03*
X118045977Y-100727773D03*
X118553977Y-100727773D03*
X119061977Y-100727773D03*
X119544577Y-100727773D03*
X120052577Y-100727773D03*
X120560577Y-100727773D03*
X121043177Y-100727773D03*
X121551177Y-100727773D03*
X122059177Y-100727773D03*
X122541777Y-100727773D03*
X123049777Y-100727773D03*
X123557777Y-100727773D03*
X124040377Y-100727773D03*
X124548377Y-100727773D03*
X125056377Y-100727773D03*
X125564377Y-100727773D03*
X126046977Y-100727773D03*
X126554977Y-100727773D03*
X127062977Y-100727773D03*
X127545577Y-100727773D03*
X128053577Y-100727773D03*
X128561577Y-100727773D03*
X129044177Y-100727773D03*
X129552177Y-100727773D03*
X130060177Y-100727773D03*
X130542777Y-100727773D03*
X131050777Y-100727773D03*
X131558777Y-100727773D03*
X132038837Y-100727773D03*
X132549377Y-100727773D03*
X133057377Y-100727773D03*
X133537437Y-100727773D03*
X134047977Y-100727773D03*
X134555977Y-100727773D03*
X135063977Y-100727773D03*
X135546577Y-100727773D03*
X136054577Y-100727773D03*
X136562577Y-100727773D03*
X137045177Y-100727773D03*
X137553177Y-100727773D03*
D13*
X139508977Y-98771973D03*
X139508977Y-98263973D03*
X139508977Y-97781373D03*
X139508977Y-97273373D03*
X139508977Y-96765373D03*
X139508977Y-96282773D03*
X139508977Y-95774773D03*
X139508977Y-95266773D03*
X139508977Y-94756233D03*
X139508977Y-94276173D03*
X139508977Y-93768173D03*
X139508977Y-93257633D03*
X139508977Y-92777573D03*
X139508977Y-92269573D03*
X139508977Y-91761573D03*
X139508977Y-91278973D03*
X139508977Y-90770973D03*
X139508977Y-90262973D03*
X139508977Y-89780373D03*
X139508977Y-89272373D03*
X139508977Y-88764373D03*
X139508977Y-88281773D03*
X139508977Y-87773773D03*
X139508977Y-87265773D03*
X139508977Y-86783173D03*
X139508977Y-86275173D03*
X139508977Y-85767173D03*
X139508977Y-85259173D03*
X139508977Y-84776573D03*
X139508977Y-84268573D03*
X139508977Y-83760573D03*
X139508977Y-83277973D03*
X139508977Y-82769973D03*
X139508977Y-82261973D03*
X139508977Y-81779373D03*
X139508977Y-81271373D03*
X139508977Y-80763373D03*
X139508977Y-80280773D03*
X139508977Y-79772773D03*
X139508977Y-79264773D03*
X139508977Y-78784713D03*
X139508977Y-78274173D03*
X139508977Y-77766173D03*
X139508977Y-77286113D03*
X139508977Y-76775573D03*
X139508977Y-76267573D03*
X139508977Y-75759573D03*
X139508977Y-75276973D03*
X139508977Y-74768973D03*
X139508977Y-74260973D03*
X139508977Y-73778373D03*
X139508977Y-73270373D03*
D12*
X137553177Y-71314573D03*
X137045177Y-71314573D03*
X136562577Y-71314573D03*
X136054577Y-71314573D03*
X135546577Y-71314573D03*
X135063977Y-71314573D03*
X134555977Y-71314573D03*
X134047977Y-71314573D03*
X133537437Y-71314573D03*
X133057377Y-71314573D03*
X132549377Y-71314573D03*
X132038837Y-71314573D03*
X131558777Y-71314573D03*
X131050777Y-71314573D03*
X130542777Y-71314573D03*
X130060177Y-71314573D03*
X129552177Y-71314573D03*
X129044177Y-71314573D03*
X128561577Y-71314573D03*
X128053577Y-71314573D03*
X127545577Y-71314573D03*
X127062977Y-71314573D03*
X126554977Y-71314573D03*
X126046977Y-71314573D03*
X125564377Y-71314573D03*
X125056377Y-71314573D03*
X124548377Y-71314573D03*
X124040377Y-71314573D03*
X123557777Y-71314573D03*
X123049777Y-71314573D03*
X122541777Y-71314573D03*
X122059177Y-71314573D03*
X121551177Y-71314573D03*
X121043177Y-71314573D03*
X120560577Y-71314573D03*
X120052577Y-71314573D03*
X119544577Y-71314573D03*
X119061977Y-71314573D03*
X118553977Y-71314573D03*
X118045977Y-71314573D03*
X117565917Y-71314573D03*
X117055377Y-71314573D03*
X116547377Y-71314573D03*
X116067317Y-71314573D03*
X115556777Y-71314573D03*
X115048777Y-71314573D03*
X114540777Y-71314573D03*
X114058177Y-71314573D03*
X113550177Y-71314573D03*
X113042177Y-71314573D03*
X112559577Y-71314573D03*
X112051577Y-71314573D03*
D13*
X110095777Y-73270373D03*
X110095777Y-73778373D03*
X110095777Y-74260973D03*
X110095777Y-74768973D03*
X110095777Y-75276973D03*
X110095777Y-75759573D03*
X110095777Y-76267573D03*
X110095777Y-76775573D03*
X110095777Y-77286113D03*
X110095777Y-77766173D03*
X110095777Y-78274173D03*
X110095777Y-78784713D03*
X110095777Y-79264773D03*
X110095777Y-79772773D03*
X110095777Y-80280773D03*
X110095777Y-80763373D03*
X110095777Y-81271373D03*
X110095777Y-81779373D03*
X110095777Y-82261973D03*
X110095777Y-82769973D03*
X110095777Y-83277973D03*
X110095777Y-83760573D03*
X110095777Y-84268573D03*
X110095777Y-84776573D03*
X110095777Y-85259173D03*
X110095777Y-85767173D03*
X110095777Y-86275173D03*
X110095777Y-86783173D03*
X110095777Y-87265773D03*
X110095777Y-87773773D03*
X110095777Y-88281773D03*
X110095777Y-88764373D03*
X110095777Y-89272373D03*
X110095777Y-89780373D03*
X110095777Y-90262973D03*
X110095777Y-90770973D03*
X110095777Y-91278973D03*
X110095777Y-91761573D03*
X110095777Y-92269573D03*
X110095777Y-92777573D03*
X110095777Y-93257633D03*
X110095777Y-93768173D03*
X110095777Y-94276173D03*
X110095777Y-94756233D03*
X110095777Y-95266773D03*
X110095777Y-95774773D03*
X110095777Y-96282773D03*
X110095777Y-96765373D03*
X110095777Y-97273373D03*
X110095777Y-97781373D03*
X110095777Y-98263973D03*
X110095777Y-98771973D03*
D14*
X103873300Y-89898220D03*
X103873300Y-89098120D03*
X103873300Y-88298020D03*
X103873300Y-87497920D03*
X103873300Y-86697820D03*
X103873300Y-85897720D03*
X103873300Y-85097620D03*
X103873300Y-84297520D03*
X103873300Y-83497420D03*
X103873300Y-82697320D03*
X103873300Y-81897220D03*
X103873300Y-81097120D03*
X103873300Y-80297020D03*
X103873300Y-79499460D03*
X103873300Y-78699360D03*
X103873300Y-77901800D03*
X103873300Y-77101700D03*
X103873300Y-76301600D03*
X103873300Y-75501500D03*
X103873300Y-74701400D03*
X103873300Y-73901300D03*
X103873300Y-73101200D03*
X103873300Y-72301100D03*
X103873300Y-71501000D03*
X103873300Y-70700900D03*
X103873300Y-69900800D03*
X103873300Y-69100700D03*
X92075000Y-69100700D03*
X92075000Y-69900800D03*
X92075000Y-70700900D03*
X92075000Y-71501000D03*
X92075000Y-72301100D03*
X92075000Y-73101200D03*
X92075000Y-73901300D03*
X92075000Y-74701400D03*
X92075000Y-75501500D03*
X92075000Y-76301600D03*
X92075000Y-77101700D03*
X92075000Y-77901800D03*
X92075000Y-78699360D03*
X92075000Y-79499460D03*
X92075000Y-80297020D03*
X92075000Y-81097120D03*
X92075000Y-81897220D03*
X92075000Y-82697320D03*
X92075000Y-83497420D03*
X92075000Y-84297520D03*
X92075000Y-85097620D03*
X92075000Y-85897720D03*
X92075000Y-86697820D03*
X92075000Y-87497920D03*
X92075000Y-88298020D03*
X92075000Y-89098120D03*
X92075000Y-89898220D03*
D15*
X107645200Y-81788000D03*
X106222800Y-81788000D03*
X107518200Y-76758800D03*
X106095800Y-76758800D03*
X106108500Y-79375000D03*
X107530900Y-79375000D03*
D16*
X122999500Y-60542170D03*
D17*
X122999500Y-61809630D03*
X122999500Y-63079630D03*
X122999500Y-64349630D03*
X130340100Y-64349630D03*
X130340100Y-63079630D03*
X130340100Y-61809630D03*
X130340100Y-60542170D03*
D18*
X166636700Y-84550000D03*
X171234100Y-84550000D03*
D19*
X167504977Y-95522320D03*
D20*
X168774977Y-95522320D03*
X170044977Y-95522320D03*
X171314977Y-95522320D03*
X171314977Y-89680320D03*
X170044977Y-89680320D03*
X168774977Y-89680320D03*
X167504977Y-89680320D03*
D15*
X168695700Y-87696000D03*
X170118100Y-87696000D03*
D21*
X98552000Y-115173760D03*
D22*
X98552000Y-93675200D03*
D23*
X111775442Y-112977177D03*
X111775442Y-107897177D03*
X113045442Y-112977177D03*
X113045442Y-107897177D03*
X114315442Y-112977177D03*
X114315442Y-107897177D03*
X115585442Y-107897177D03*
X116855442Y-112977177D03*
X116855442Y-107897177D03*
D24*
X90360500Y-85902800D03*
X90360500Y-87325200D03*
D15*
X107581700Y-88138000D03*
X106159300Y-88138000D03*
D24*
X90424000Y-82499200D03*
X90424000Y-81076800D03*
D15*
X107645200Y-89852500D03*
X106222800Y-89852500D03*
X107518200Y-83439000D03*
X106095800Y-83439000D03*
D24*
X105562400Y-70764400D03*
X105562400Y-69342000D03*
D15*
X127609600Y-58254900D03*
X129032000Y-58254900D03*
D24*
X165660400Y-93423700D03*
X165660400Y-92001300D03*
D15*
X142544800Y-70916800D03*
X143967200Y-70916800D03*
D24*
X141325600Y-80772000D03*
X141325600Y-79349600D03*
D15*
X134111200Y-69100000D03*
X132688800Y-69100000D03*
D24*
X121602500Y-102590600D03*
X121602500Y-104013000D03*
D15*
X127558800Y-66192400D03*
X126136400Y-66192400D03*
D24*
X119126000Y-102590600D03*
X119126000Y-104013000D03*
X117030500Y-69418200D03*
X117030500Y-67995800D03*
X124650500Y-102603300D03*
X124650500Y-104025700D03*
X141376400Y-95199200D03*
X141376400Y-93776800D03*
D15*
X107581700Y-85217000D03*
X106159300Y-85217000D03*
D24*
X141376400Y-82245200D03*
X141376400Y-83667600D03*
X107899200Y-93573600D03*
X107899200Y-92151200D03*
X141427200Y-89712800D03*
X141427200Y-88290400D03*
D15*
X134672300Y-106931300D03*
X133249900Y-106931300D03*
X136932900Y-106931300D03*
X138355300Y-106931300D03*
D25*
X124421900Y-58254900D03*
X126098300Y-58254900D03*
D26*
X110067300Y-107383300D03*
X110067300Y-109059700D03*
X110067300Y-111764800D03*
X110067300Y-113441200D03*
X118450000Y-107611800D03*
X118450000Y-109288200D03*
D27*
X167212400Y-68150000D03*
X167212400Y-58850000D03*
D28*
X164712400Y-65000000D03*
X164712400Y-64000000D03*
X164712400Y-63000000D03*
X164712400Y-62000000D03*
D24*
X145986100Y-82334100D03*
X145986100Y-80911700D03*
D15*
X123288800Y-106400000D03*
X124711200Y-106400000D03*
X123188800Y-112700000D03*
X124611200Y-112700000D03*
D29*
X163900000Y-105715300D03*
X163900000Y-102184700D03*
D30*
X160501400Y-83100000D03*
X163498600Y-83100000D03*
D16*
X147722837Y-79929177D03*
D17*
X147722837Y-81199177D03*
X147722837Y-82469177D03*
X147722837Y-83739177D03*
X153564837Y-83739177D03*
X153564837Y-82469177D03*
X153564837Y-81199177D03*
X153564837Y-79929177D03*
D31*
X144256760Y-72715120D03*
X142356840Y-72715120D03*
X143306800Y-75011280D03*
D32*
X133284332Y-104130942D03*
X138364332Y-104130942D03*
D33*
X162072320Y-86527640D03*
D34*
X162072320Y-90525600D03*
X162072320Y-94523560D03*
X158074360Y-88526620D03*
X158074360Y-92524580D03*
X154076400Y-86527640D03*
X154076400Y-90525600D03*
X154076400Y-94523560D03*
D35*
X168871900Y-76827380D03*
X168871900Y-104223820D03*
X150774400Y-105724960D03*
X150774400Y-75326240D03*
D36*
X138400000Y-60500000D03*
X138400000Y-65500000D03*
D37*
X120399200Y-61182400D03*
X95399200Y-61182400D03*
D38*
X98150934Y-64880974D03*
X98650934Y-64880974D03*
X99150934Y-64880974D03*
X99650934Y-64880974D03*
X100150934Y-64880974D03*
X100650934Y-64880974D03*
X101150934Y-64880974D03*
X101650934Y-64880974D03*
X102150934Y-64880974D03*
X102650934Y-64880974D03*
X103150934Y-64880974D03*
X103650934Y-64880974D03*
X104150934Y-64880974D03*
X104650934Y-64880974D03*
X105150934Y-64880974D03*
X105650934Y-64880974D03*
X106150934Y-64880974D03*
X106650934Y-64880974D03*
X107150934Y-64880974D03*
X107650934Y-64880974D03*
X108150934Y-64880974D03*
X108650934Y-64880974D03*
X109150934Y-64880974D03*
X109650934Y-64880974D03*
X110150934Y-64880974D03*
X110650934Y-64880974D03*
X111150934Y-64880974D03*
X111650934Y-64880974D03*
X112150934Y-64880974D03*
X112650934Y-64880974D03*
X113150934Y-64880974D03*
X113650934Y-64880974D03*
X114150934Y-64880974D03*
X114650934Y-64880974D03*
X115150934Y-64880974D03*
X115650934Y-64880974D03*
X116150934Y-64880974D03*
X116650934Y-64880974D03*
X117150934Y-64880974D03*
X117650934Y-64880974D03*
D39*
X126699550Y-107550000D03*
X121200450Y-107550000D03*
X121200450Y-111550000D03*
X126699550Y-111550000D03*
D40*
X157950000Y-77250000D03*
X163750000Y-77250000D03*
X172000000Y-110500000D03*
X166200000Y-110500000D03*
D25*
X148061800Y-65550000D03*
X149738200Y-65550000D03*
D29*
X149100000Y-59634700D03*
X149100000Y-63165300D03*
D41*
X144000000Y-69200000D03*
X144632460Y-67203560D03*
X145270000Y-69200000D03*
D42*
X147559312Y-67223968D03*
X147559312Y-68173968D03*
X147559312Y-69123968D03*
X149959312Y-69123968D03*
X149959312Y-67223968D03*
D26*
X151800000Y-67300000D03*
X151800000Y-68976400D03*
D25*
X149438200Y-71500000D03*
X147761800Y-71500000D03*
D30*
X163500000Y-80200000D03*
X160502800Y-80200000D03*
D43*
X167450000Y-99050000D03*
X171250000Y-99050000D03*
M02*
