G04 #@! TF.FileFunction,Copper,L2,Bot,Signal*
%FSLAX46Y46*%
G04 Gerber Fmt 4.6, Leading zero omitted, Abs format (unit mm)*
G04 Created by KiCad (PCBNEW (2016-07-28 BZR 6996, Git e15ad93)-product) date Mon Oct 17 19:01:38 2016*
%MOMM*%
%LPD*%
G01*
G04 APERTURE LIST*
%ADD10C,0.100000*%
%ADD11R,2.623820X2.623820*%
%ADD12C,2.623820*%
%ADD13C,2.999740*%
%ADD14C,1.524000*%
%ADD15C,0.800000*%
%ADD16C,0.200000*%
%ADD17C,0.250000*%
%ADD18C,1.400000*%
%ADD19C,0.400000*%
%ADD20C,0.600000*%
G04 APERTURE END LIST*
D10*
D11*
X162072320Y-86527640D03*
D12*
X162072320Y-90525600D03*
X162072320Y-94523560D03*
X158074360Y-88526620D03*
X158074360Y-92524580D03*
X154076400Y-86527640D03*
X154076400Y-90525600D03*
X154076400Y-94523560D03*
D13*
X168871900Y-76827380D03*
X168871900Y-104223820D03*
X150774400Y-105724960D03*
X150774400Y-75326240D03*
D14*
X140665200Y-61061600D03*
X140665200Y-66061600D03*
D15*
X117435663Y-79998922D03*
X115413637Y-85032819D03*
X125392175Y-80144819D03*
X127966414Y-82995281D03*
X170992800Y-101346000D03*
X119433379Y-86946144D03*
X130842971Y-85635248D03*
X96469200Y-58826400D03*
X88900000Y-58877200D03*
X88747600Y-73863200D03*
X89001600Y-87782400D03*
X89103200Y-101092000D03*
X89357200Y-115366800D03*
X105410000Y-113842800D03*
X144526000Y-60299600D03*
X151638000Y-59994800D03*
X171399200Y-60401200D03*
X171602400Y-75946000D03*
X164642800Y-73710800D03*
X114198400Y-109728000D03*
X118508852Y-108521499D03*
X132943600Y-111252000D03*
X136499600Y-113893600D03*
X146710400Y-113334800D03*
X166166800Y-105918000D03*
X160426400Y-113131600D03*
X154787600Y-108508800D03*
X159766000Y-96570800D03*
X152298400Y-102920800D03*
X154076400Y-83312000D03*
X163830000Y-78435200D03*
X154330400Y-71120000D03*
X151739600Y-70358000D03*
X147218400Y-75031600D03*
X150571200Y-85242400D03*
X141325600Y-76403200D03*
X144729200Y-78384400D03*
X130403600Y-68173600D03*
X126187200Y-67767200D03*
X117195600Y-59791600D03*
X101549200Y-59690000D03*
X111607600Y-82346800D03*
X112348821Y-66316624D03*
X105409185Y-71439903D03*
X106070400Y-74676000D03*
X108287201Y-72029518D03*
X105359388Y-82232531D03*
X102057200Y-68122800D03*
X103581200Y-66852800D03*
X115682432Y-66121141D03*
X115984260Y-68921165D03*
X113385600Y-74388404D03*
X106740109Y-80955593D03*
X107530900Y-79723444D03*
X93980000Y-68478400D03*
X98097384Y-75447245D03*
X96297372Y-75453634D03*
X96297372Y-73253600D03*
X98602800Y-72847200D03*
X101447600Y-69993155D03*
X102006400Y-72745600D03*
X99908293Y-77425944D03*
X114714074Y-87356262D03*
X113317562Y-84666354D03*
X113030000Y-79432710D03*
X113440271Y-82432766D03*
X112115600Y-89529679D03*
X112090429Y-87329646D03*
X116187043Y-74397994D03*
X114841221Y-79398104D03*
X117987657Y-74625200D03*
X125831600Y-84175600D03*
X122631200Y-89876665D03*
X122781062Y-87676632D03*
X119838418Y-80971082D03*
X120294400Y-74777600D03*
X99709937Y-80749629D03*
X102469677Y-80697707D03*
X93929200Y-75133200D03*
X96621600Y-76911200D03*
X108147617Y-89272373D03*
X104902000Y-90830400D03*
X102971600Y-99263200D03*
X107121532Y-100116495D03*
X98755200Y-85750400D03*
X97688400Y-89611200D03*
X117043200Y-98907600D03*
X135534400Y-85598000D03*
X133045200Y-74625200D03*
X130860800Y-77825600D03*
X130860800Y-74980800D03*
X128117600Y-75082400D03*
X123748800Y-75133200D03*
X128066800Y-77927200D03*
X132638800Y-77927200D03*
X130962400Y-81432400D03*
X116433600Y-89408000D03*
X112877600Y-91744800D03*
X135686800Y-89966800D03*
X129895600Y-91771632D03*
X128117600Y-88341200D03*
X126034800Y-96164400D03*
X123698000Y-96266000D03*
X118821200Y-85394800D03*
X121158000Y-91440000D03*
X118719600Y-91541600D03*
X113792000Y-97028000D03*
X114198422Y-99391172D03*
X110032800Y-101092000D03*
X115671600Y-104444800D03*
X112572800Y-103733600D03*
X101600000Y-94183200D03*
X142557590Y-83667600D03*
X142557590Y-88284202D03*
X142557590Y-93726000D03*
X172172390Y-110519297D03*
X119165610Y-104840674D03*
X119786400Y-65887600D03*
X112115600Y-61061600D03*
X115782445Y-63349343D03*
X108458917Y-83215189D03*
X123596400Y-69596000D03*
X101492633Y-86893897D03*
X137668799Y-83099301D03*
X137527912Y-87088421D03*
X106352759Y-86421990D03*
X111810800Y-94742000D03*
X95808800Y-93675200D03*
X122349767Y-98806000D03*
X126483616Y-64774608D03*
X121573070Y-63971590D03*
X99872800Y-63144400D03*
X98399600Y-66852800D03*
X94792800Y-66497200D03*
X90728800Y-69088000D03*
X93472000Y-79502000D03*
X90525600Y-79502000D03*
X93472000Y-83515200D03*
X93573600Y-89916000D03*
X93522800Y-88290400D03*
X107899200Y-92151200D03*
X132268717Y-103544210D03*
X112725200Y-113588800D03*
X113944400Y-105968800D03*
X123037600Y-102463600D03*
X129741726Y-103052244D03*
X127558800Y-102920800D03*
X127558800Y-98602800D03*
X123596400Y-110693200D03*
X124612400Y-105054400D03*
X121615200Y-105054400D03*
X145186400Y-70916800D03*
X131064000Y-59516810D03*
X133045200Y-69342000D03*
X135534400Y-67919600D03*
X158445200Y-62687200D03*
X150063200Y-66344800D03*
X136144000Y-112166400D03*
X141478000Y-110744000D03*
X137718800Y-93776800D03*
X137769600Y-78790800D03*
X141224000Y-86766400D03*
X142595600Y-79349600D03*
X146507200Y-81889600D03*
X142716209Y-99974400D03*
X148640800Y-98958400D03*
X148386800Y-67462400D03*
X171450000Y-88646000D03*
X170129200Y-92405200D03*
X164896800Y-85039200D03*
X98653600Y-58216800D03*
X172212000Y-79654400D03*
X171500800Y-80924400D03*
X143662400Y-77012800D03*
X143205200Y-80162400D03*
X118821200Y-64871600D03*
X128764420Y-64058800D03*
X99771200Y-66497200D03*
X127558800Y-66192400D03*
X130200400Y-66598800D03*
X128676400Y-60542170D03*
X129504009Y-104023591D03*
X126643517Y-105056324D03*
X103154118Y-89158082D03*
X106647007Y-92650925D03*
X108055653Y-95165424D03*
X101956118Y-88282203D03*
X107833090Y-97917856D03*
X100557535Y-87248318D03*
X105206684Y-85901150D03*
X115659909Y-87031577D03*
X105115694Y-84501138D03*
X116365777Y-84706288D03*
X117424360Y-84967157D03*
X104482663Y-82713547D03*
X119894025Y-84771160D03*
X102721466Y-81665502D03*
X105065512Y-80832519D03*
X121491343Y-86386911D03*
X114174682Y-85805487D03*
X101326632Y-79175032D03*
X102440397Y-76185261D03*
X137210800Y-81686400D03*
X101896837Y-75345644D03*
X137160000Y-77774800D03*
X135513182Y-88910830D03*
X105178288Y-79382507D03*
X95165954Y-75198800D03*
X118921705Y-78669319D03*
X124609986Y-78213234D03*
X95217943Y-74200140D03*
X126906226Y-78100041D03*
X94437200Y-73201290D03*
X95386364Y-72652319D03*
X129656196Y-77430390D03*
X95369826Y-71652443D03*
X133925965Y-77103701D03*
X96337693Y-71347175D03*
X136347200Y-73078363D03*
X134924800Y-74828400D03*
X96977200Y-70256400D03*
X99043822Y-75047234D03*
X137007600Y-76352400D03*
X99193255Y-76152842D03*
X136936582Y-83780390D03*
X100146607Y-76454743D03*
X137277128Y-85688410D03*
X135454278Y-87510819D03*
X100950953Y-77299241D03*
X122765567Y-75768884D03*
X106180847Y-72075955D03*
X108685153Y-73001984D03*
X106804342Y-71294113D03*
X134874000Y-94843600D03*
X97688400Y-77876400D03*
X96754963Y-79280522D03*
X136956800Y-95605600D03*
X108537908Y-91225610D03*
X96372389Y-80850243D03*
X97758245Y-84016209D03*
X106655642Y-94559471D03*
X107422830Y-97005874D03*
X96926400Y-84836000D03*
X106825784Y-97840670D03*
X95656400Y-84886800D03*
X111861600Y-102463600D03*
X94234000Y-85140800D03*
X114981507Y-97553579D03*
X104228233Y-95115897D03*
X103952806Y-96077231D03*
X121869200Y-96977200D03*
X125628400Y-97790000D03*
X103530400Y-97028000D03*
X148844000Y-91186000D03*
X137617200Y-91135200D03*
X168333621Y-65024000D03*
X118030341Y-102417273D03*
X168148000Y-63906400D03*
X119532400Y-99212400D03*
X167233600Y-62992000D03*
X120853200Y-98552000D03*
X169011600Y-61976000D03*
X117043200Y-102870000D03*
X113080800Y-63652400D03*
X113737736Y-67688172D03*
X113776719Y-66288160D03*
X119827156Y-69737067D03*
X115137865Y-68387991D03*
X118137031Y-69848358D03*
X115692747Y-67521153D03*
X118816710Y-69114832D03*
X127757783Y-62412653D03*
X129133600Y-65582800D03*
X127314408Y-64218004D03*
X125476000Y-62636400D03*
X127851500Y-82001894D03*
X114962630Y-82398988D03*
X131775200Y-66548000D03*
X131927600Y-73355200D03*
X112313879Y-85129610D03*
X90322400Y-75996800D03*
X104851200Y-61417200D03*
X123596400Y-68580000D03*
X109317638Y-71667860D03*
X101803978Y-66344054D03*
X120555093Y-69051405D03*
X101904800Y-62687200D03*
X121503663Y-69368009D03*
X102920800Y-61925200D03*
X122428000Y-68986400D03*
X103835200Y-61518800D03*
X108478870Y-67580963D03*
X117183565Y-73369409D03*
X110208477Y-72127022D03*
X104750891Y-66459183D03*
X112404103Y-73371696D03*
X105763355Y-67507753D03*
X113655847Y-72988393D03*
X106150902Y-66406042D03*
X106964564Y-68288262D03*
X114759868Y-72946132D03*
X107308462Y-67349242D03*
X115944255Y-73162012D03*
X112032252Y-67265206D03*
X121987508Y-72989313D03*
X108542413Y-66560568D03*
X122309164Y-73936182D03*
X109888351Y-67826553D03*
X119036059Y-72978300D03*
X109988168Y-66821882D03*
X120021726Y-73147073D03*
X110989973Y-66902207D03*
X120991297Y-72902213D03*
X131408410Y-93274662D03*
X100332745Y-79285541D03*
X95764449Y-79418020D03*
X132791200Y-97840800D03*
D16*
X115142048Y-79698931D02*
X116569987Y-79698931D01*
X117636308Y-80199567D02*
X117435663Y-79998922D01*
X119838418Y-80971082D02*
X119066903Y-80199567D01*
X114841221Y-79398104D02*
X115142048Y-79698931D01*
X116569987Y-79698931D02*
X116869978Y-79998922D01*
X116869978Y-79998922D02*
X117435663Y-79998922D01*
X119066903Y-80199567D02*
X117636308Y-80199567D01*
X115813636Y-85432818D02*
X115413637Y-85032819D01*
X117326962Y-86946144D02*
X115813636Y-85432818D01*
X119433379Y-86946144D02*
X117326962Y-86946144D01*
X120664681Y-80144819D02*
X124826490Y-80144819D01*
X124826490Y-80144819D02*
X125392175Y-80144819D01*
X119838418Y-80971082D02*
X120664681Y-80144819D01*
X166166800Y-102920800D02*
X167741600Y-101346000D01*
X167741600Y-101346000D02*
X170992800Y-101346000D01*
X166166800Y-105918000D02*
X166166800Y-102920800D01*
X119433379Y-86380459D02*
X119433379Y-86946144D01*
X119433379Y-86006979D02*
X119433379Y-86380459D01*
X118821200Y-85394800D02*
X119433379Y-86006979D01*
X130823552Y-85635248D02*
X130842971Y-85635248D01*
X128117600Y-88341200D02*
X130823552Y-85635248D01*
X88900000Y-58877200D02*
X96418400Y-58877200D01*
X96418400Y-58877200D02*
X96469200Y-58826400D01*
X89001600Y-87782400D02*
X89001600Y-74117200D01*
X89001600Y-74117200D02*
X88747600Y-73863200D01*
X89357200Y-115366800D02*
X89357200Y-101346000D01*
X89357200Y-101346000D02*
X89103200Y-101092000D01*
X112725200Y-113588800D02*
X105664000Y-113588800D01*
X105664000Y-113588800D02*
X105410000Y-113842800D01*
X151638000Y-59994800D02*
X144830800Y-59994800D01*
X144830800Y-59994800D02*
X144526000Y-60299600D01*
X171602400Y-75946000D02*
X171602400Y-60604400D01*
X171602400Y-60604400D02*
X171399200Y-60401200D01*
X163830000Y-78435200D02*
X163830000Y-74523600D01*
X163830000Y-74523600D02*
X164642800Y-73710800D01*
X119165610Y-104840674D02*
X119165610Y-107864741D01*
X119165610Y-107864741D02*
X118508852Y-108521499D01*
X132943600Y-111252000D02*
X132384800Y-110693200D01*
X132384800Y-110693200D02*
X123596400Y-110693200D01*
X136499600Y-113893600D02*
X135585200Y-113893600D01*
X135585200Y-113893600D02*
X132943600Y-111252000D01*
X166166800Y-105918000D02*
X154127200Y-105918000D01*
X154127200Y-105918000D02*
X146710400Y-113334800D01*
X160426400Y-113131600D02*
X166166800Y-107391200D01*
X166166800Y-107391200D02*
X166166800Y-105918000D01*
X154787600Y-108508800D02*
X155803600Y-108508800D01*
X155803600Y-108508800D02*
X160426400Y-113131600D01*
X159766000Y-96570800D02*
X154787600Y-101549200D01*
X154787600Y-101549200D02*
X154787600Y-108508800D01*
X148640800Y-98958400D02*
X152298400Y-102616000D01*
X152298400Y-102616000D02*
X152298400Y-102920800D01*
X163830000Y-78435200D02*
X158953200Y-78435200D01*
X158953200Y-78435200D02*
X154076400Y-83312000D01*
X151739600Y-70358000D02*
X153568400Y-70358000D01*
X153568400Y-70358000D02*
X154330400Y-71120000D01*
X146507200Y-81889600D02*
X147218400Y-81889600D01*
X147218400Y-81889600D02*
X150571200Y-85242400D01*
X110744000Y-73152000D02*
X109871171Y-73152000D01*
X112732253Y-66948637D02*
X112348821Y-66565205D01*
X103962437Y-69993155D02*
X105009186Y-71039904D01*
X106260772Y-70588316D02*
X105809184Y-71039904D01*
X107134549Y-70588316D02*
X106260772Y-70588316D01*
X108287201Y-72029518D02*
X107887202Y-71629519D01*
X101447600Y-69993155D02*
X103962437Y-69993155D01*
X115817424Y-69088001D02*
X114123719Y-69088001D01*
X115984260Y-68921165D02*
X115817424Y-69088001D01*
X114123719Y-69088001D02*
X112732253Y-67696535D01*
X109021154Y-72301983D02*
X108559666Y-72301983D01*
X109871171Y-73152000D02*
X109021154Y-72301983D01*
X107887202Y-71340969D02*
X107134549Y-70588316D01*
X106121200Y-74726800D02*
X106070400Y-74676000D01*
X112348821Y-66565205D02*
X112348821Y-66316624D01*
X112318800Y-74726800D02*
X110744000Y-73152000D01*
X105009186Y-71039904D02*
X105409185Y-71439903D01*
X105809184Y-71039904D02*
X105409185Y-71439903D01*
X108559666Y-72301983D02*
X108287201Y-72029518D01*
X107887202Y-71629519D02*
X107887202Y-71340969D01*
X112732253Y-67696535D02*
X112732253Y-66948637D01*
X106121200Y-74879200D02*
X106121200Y-74726800D01*
X106121200Y-74879200D02*
X106273600Y-74726800D01*
X102006400Y-81483199D02*
X102057199Y-81432400D01*
X104852107Y-83380105D02*
X104818664Y-83413548D01*
X108458917Y-83215189D02*
X107893232Y-83215189D01*
X107893232Y-83215189D02*
X107728316Y-83380105D01*
X102057199Y-81432400D02*
X102057199Y-81110185D01*
X102057199Y-81110185D02*
X102069678Y-81097706D01*
X104818664Y-83413548D02*
X103479548Y-83413548D01*
X107728316Y-83380105D02*
X104852107Y-83380105D01*
X102006400Y-81940400D02*
X102006400Y-81483199D01*
X102069678Y-81097706D02*
X102469677Y-80697707D01*
X103479548Y-83413548D02*
X102006400Y-81940400D01*
X104952798Y-74879200D02*
X106121200Y-74879200D01*
X103612321Y-73538723D02*
X104952798Y-74879200D01*
X102006400Y-72745600D02*
X102572085Y-72745600D01*
X102572085Y-72745600D02*
X103130886Y-73304401D01*
X103130886Y-73304401D02*
X103378000Y-73304401D01*
X103378000Y-73304401D02*
X103612321Y-73538723D01*
X112318800Y-74726800D02*
X112657196Y-74388404D01*
X112657196Y-74388404D02*
X112819915Y-74388404D01*
X112819915Y-74388404D02*
X113385600Y-74388404D01*
X107305794Y-80955593D02*
X106740109Y-80955593D01*
X110133776Y-81126976D02*
X107477177Y-81126976D01*
X107477177Y-81126976D02*
X107305794Y-80955593D01*
X111032378Y-81793144D02*
X110799944Y-81793144D01*
X111432377Y-82193143D02*
X111032378Y-81793144D01*
X110799944Y-81793144D02*
X110133776Y-81126976D01*
X93929200Y-75133200D02*
X94694802Y-75898802D01*
X95922038Y-75453634D02*
X96297372Y-75453634D01*
X100058562Y-78028800D02*
X98097384Y-76067622D01*
X96297372Y-73222228D02*
X96297372Y-73253600D01*
X94694802Y-75898802D02*
X95476870Y-75898802D01*
X98097384Y-76067622D02*
X98097384Y-76012930D01*
X98097384Y-75447245D02*
X96303761Y-75447245D01*
X100126800Y-78028800D02*
X100058562Y-78028800D01*
X96303761Y-75447245D02*
X96297372Y-75453634D01*
X98097384Y-76012930D02*
X98097384Y-75447245D01*
X95476870Y-75898802D02*
X95922038Y-75453634D01*
X96672400Y-72847200D02*
X96297372Y-73222228D01*
X98602800Y-72847200D02*
X96672400Y-72847200D01*
X101440715Y-72745600D02*
X98704400Y-72745600D01*
X98704400Y-72745600D02*
X98602800Y-72847200D01*
X102006400Y-72745600D02*
X101440715Y-72745600D01*
X101607991Y-78084633D02*
X101808233Y-78084633D01*
X100126800Y-78028800D02*
X101552158Y-78028800D01*
X101808233Y-78084633D02*
X102469677Y-78746077D01*
X102469677Y-78746077D02*
X102469677Y-80132022D01*
X102469677Y-80132022D02*
X102469677Y-80697707D01*
X101552158Y-78028800D02*
X101607991Y-78084633D01*
X100126800Y-78028800D02*
X100308292Y-77847308D01*
X100308292Y-77847308D02*
X100308292Y-77825943D01*
X100308292Y-77825943D02*
X99908293Y-77425944D01*
X108458917Y-83215189D02*
X109529589Y-83215189D01*
X109529589Y-83215189D02*
X110744000Y-84429600D01*
X113080808Y-84429600D02*
X113317562Y-84666354D01*
X110744000Y-84429600D02*
X113080808Y-84429600D01*
X113064606Y-79398104D02*
X113030000Y-79432710D01*
X114841221Y-79398104D02*
X113064606Y-79398104D01*
X113200648Y-82193143D02*
X113440271Y-82432766D01*
X111432377Y-82193143D02*
X113200648Y-82193143D01*
X108458917Y-83215189D02*
X109024602Y-83215189D01*
X117987657Y-74625200D02*
X116414249Y-74625200D01*
X115824000Y-73863191D02*
X115787044Y-73900147D01*
X116414249Y-74625200D02*
X116187043Y-74397994D01*
X115787044Y-73997995D02*
X116187043Y-74397994D01*
X115787044Y-73900147D02*
X115787044Y-73997995D01*
X114655600Y-73863191D02*
X115824000Y-73863191D01*
X113182409Y-73863191D02*
X114655600Y-73863191D01*
X112318800Y-74726800D02*
X113182409Y-73863191D01*
X116535209Y-74574400D02*
X119583200Y-74574400D01*
X119583200Y-74574400D02*
X121911380Y-74574400D01*
X119583200Y-74574400D02*
X120091200Y-74574400D01*
X120091200Y-74574400D02*
X120294400Y-74777600D01*
X123251783Y-74636183D02*
X123348801Y-74733201D01*
X123348801Y-74733201D02*
X123748800Y-75133200D01*
X115824000Y-73863191D02*
X116535209Y-74574400D01*
X121973163Y-74636183D02*
X123251783Y-74636183D01*
X121911380Y-74574400D02*
X121973163Y-74636183D01*
X98942430Y-80349630D02*
X99309938Y-80349630D01*
X96621600Y-76911200D02*
X96621600Y-78028800D01*
X99309938Y-80349630D02*
X99709937Y-80749629D01*
X96621600Y-78028800D02*
X98942430Y-80349630D01*
X100349136Y-85750400D02*
X99618800Y-85750400D01*
X97688400Y-82956400D02*
X94030800Y-82956400D01*
X99618800Y-85750400D02*
X98552000Y-84683600D01*
X98552000Y-84683600D02*
X98552000Y-83820000D01*
X98552000Y-83820000D02*
X97688400Y-82956400D01*
X94030800Y-82956400D02*
X93472000Y-83515200D01*
X98755200Y-85750400D02*
X100349136Y-85750400D01*
X100349136Y-85750400D02*
X101492633Y-86893897D01*
X104502001Y-89516001D02*
X102279896Y-87293896D01*
X102279896Y-87293896D02*
X101892632Y-87293896D01*
X101892632Y-87293896D02*
X101492633Y-86893897D01*
X104502001Y-90430401D02*
X104502001Y-89516001D01*
X104902000Y-90830400D02*
X104502001Y-90430401D01*
X105460800Y-91541600D02*
X104902000Y-90982800D01*
X104902000Y-90982800D02*
X104902000Y-90830400D01*
X106619700Y-91541600D02*
X105460800Y-91541600D01*
X107899200Y-92151200D02*
X107229300Y-92151200D01*
X107229300Y-92151200D02*
X106619700Y-91541600D01*
X107899200Y-92151200D02*
X107759500Y-92151200D01*
X107759500Y-92151200D02*
X107353100Y-91744800D01*
X113473099Y-100116495D02*
X107687217Y-100116495D01*
X107687217Y-100116495D02*
X107121532Y-100116495D01*
X114198422Y-99391172D02*
X113473099Y-100116495D01*
X95561685Y-89763600D02*
X97536000Y-89763600D01*
X97536000Y-89763600D02*
X97688400Y-89611200D01*
X93522800Y-88290400D02*
X94088485Y-88290400D01*
X94088485Y-88290400D02*
X95561685Y-89763600D01*
X116890800Y-98755200D02*
X117043200Y-98907600D01*
X115671600Y-104444800D02*
X115671600Y-99720400D01*
X128117600Y-75082400D02*
X130759200Y-75082400D01*
X130759200Y-75082400D02*
X130860800Y-74980800D01*
X123748800Y-75133200D02*
X128066800Y-75133200D01*
X128066800Y-75133200D02*
X128117600Y-75082400D01*
X131869915Y-78130400D02*
X128270000Y-78130400D01*
X128270000Y-78130400D02*
X128066800Y-77927200D01*
X132073115Y-77927200D02*
X131869915Y-78130400D01*
X132638800Y-77927200D02*
X132073115Y-77927200D01*
X129895600Y-91205947D02*
X129895600Y-91771632D01*
X129895600Y-90119200D02*
X129895600Y-91205947D01*
X128117600Y-88341200D02*
X129895600Y-90119200D01*
X123698000Y-96266000D02*
X125933200Y-96266000D01*
X125933200Y-96266000D02*
X126034800Y-96164400D01*
X118719600Y-91541600D02*
X121056400Y-91541600D01*
X121056400Y-91541600D02*
X121158000Y-91440000D01*
X112782885Y-100990400D02*
X110134400Y-100990400D01*
X110134400Y-100990400D02*
X110032800Y-101092000D01*
X115671600Y-104444800D02*
X115671600Y-103879115D01*
X115671600Y-103879115D02*
X112782885Y-100990400D01*
X102057200Y-99110800D02*
X106680000Y-103733600D01*
X106680000Y-103733600D02*
X112572800Y-103733600D01*
X102057200Y-94640400D02*
X102057200Y-99110800D01*
D17*
X101600000Y-94183200D02*
X102057200Y-94640400D01*
D18*
X173075600Y-58216800D02*
X132842000Y-58216800D01*
X132842000Y-58216800D02*
X98653600Y-58216800D01*
X173482000Y-58623200D02*
X173075600Y-58216800D01*
X173482000Y-78384400D02*
X173482000Y-58623200D01*
X172212000Y-79654400D02*
X173482000Y-78384400D01*
X171500800Y-80924400D02*
X171500800Y-80365600D01*
X171500800Y-80365600D02*
X172212000Y-79654400D01*
D19*
X143205200Y-80162400D02*
X143662400Y-79705200D01*
X143662400Y-79705200D02*
X143662400Y-77012800D01*
D20*
X101004798Y-65263602D02*
X100171199Y-66097201D01*
X100171199Y-66097201D02*
X99771200Y-66497200D01*
X101004798Y-62255198D02*
X101004798Y-65263602D01*
X103315996Y-59944000D02*
X101004798Y-62255198D01*
X115366800Y-59944000D02*
X103315996Y-59944000D01*
X119481600Y-64058800D02*
X115366800Y-59944000D01*
X118821200Y-64871600D02*
X119481600Y-64211200D01*
X119481600Y-64211200D02*
X119481600Y-64058800D01*
X120294400Y-64871600D02*
X119481600Y-64058800D01*
X127558800Y-66192400D02*
X126628600Y-66192400D01*
X126628600Y-66192400D02*
X125307800Y-64871600D01*
X125307800Y-64871600D02*
X120294400Y-64871600D01*
D19*
X128676400Y-63970780D02*
X128764420Y-64058800D01*
X128676400Y-60542170D02*
X128676400Y-63970780D01*
D20*
X130200400Y-66598800D02*
X127965200Y-66598800D01*
X127965200Y-66598800D02*
X127558800Y-66192400D01*
D17*
X127043516Y-104656325D02*
X126643517Y-105056324D01*
X127676250Y-104023591D02*
X127043516Y-104656325D01*
X129504009Y-104023591D02*
X127676250Y-104023591D01*
D16*
X104883902Y-91530402D02*
X104565998Y-91530402D01*
X103154118Y-89723767D02*
X103154118Y-89158082D01*
X104565998Y-91530402D02*
X103154118Y-90118522D01*
X106647007Y-92650925D02*
X106004425Y-92650925D01*
X106004425Y-92650925D02*
X104883902Y-91530402D01*
X103154118Y-90118522D02*
X103154118Y-89723767D01*
X101956118Y-89486222D02*
X104811518Y-92341622D01*
X104811518Y-92341622D02*
X104824622Y-92341622D01*
X104824622Y-92341622D02*
X105897678Y-93414678D01*
X105897678Y-93414678D02*
X107112551Y-93414678D01*
X101956118Y-88282203D02*
X101956118Y-89486222D01*
X107112551Y-93414678D02*
X108055653Y-94357780D01*
X108055653Y-94357780D02*
X108055653Y-94599739D01*
X108055653Y-94599739D02*
X108055653Y-95165424D01*
X107702900Y-96113600D02*
X108233089Y-96643789D01*
X100557535Y-87248318D02*
X100557535Y-88653339D01*
X100557535Y-88653339D02*
X105763666Y-93859470D01*
X105763666Y-93859470D02*
X106991643Y-93859470D01*
X106991643Y-93859470D02*
X107355643Y-94223470D01*
X107355643Y-94223470D02*
X107355643Y-95766343D01*
X107355643Y-95766343D02*
X107702900Y-96113600D01*
X108233089Y-97517857D02*
X107833090Y-97917856D01*
X108233089Y-96643789D02*
X108233089Y-97517857D01*
X110176249Y-86629636D02*
X109267944Y-85721331D01*
X105772369Y-85901150D02*
X105206684Y-85901150D01*
X109267944Y-85721331D02*
X105952188Y-85721331D01*
X115257968Y-86629636D02*
X110176249Y-86629636D01*
X115659909Y-87031577D02*
X115257968Y-86629636D01*
X105952188Y-85721331D02*
X105772369Y-85901150D01*
X113144267Y-85829614D02*
X110507627Y-85829614D01*
X116365777Y-84706288D02*
X116109574Y-84706288D01*
X115736095Y-84332809D02*
X114641072Y-84332809D01*
X105681379Y-84501138D02*
X105115694Y-84501138D01*
X114641072Y-84332809D02*
X113144267Y-85829614D01*
X116109574Y-84706288D02*
X115736095Y-84332809D01*
X110507627Y-85829614D02*
X109179151Y-84501138D01*
X109179151Y-84501138D02*
X105681379Y-84501138D01*
X117424360Y-84967157D02*
X117061973Y-84604770D01*
X105695389Y-82932532D02*
X104701648Y-82932532D01*
X117061973Y-84604770D02*
X117061973Y-84180505D01*
X117061973Y-84180505D02*
X116814266Y-83932798D01*
X109587018Y-82515188D02*
X106112733Y-82515188D01*
X116814266Y-83932798D02*
X111004628Y-83932798D01*
X111004628Y-83932798D02*
X109587018Y-82515188D01*
X106112733Y-82515188D02*
X105695389Y-82932532D01*
X104701648Y-82932532D02*
X104482663Y-82713547D01*
X103420132Y-81532521D02*
X103287151Y-81665502D01*
X103287151Y-81665502D02*
X102721466Y-81665502D01*
X116979953Y-83532787D02*
X111170317Y-83532787D01*
X119028341Y-84471161D02*
X117918327Y-84471161D01*
X117918327Y-84471161D02*
X116979953Y-83532787D01*
X119328340Y-84771160D02*
X119028341Y-84471161D01*
X119894025Y-84771160D02*
X119328340Y-84771160D01*
X111170317Y-83532787D02*
X109693135Y-82055605D01*
X106238419Y-82055605D02*
X105715335Y-81532521D01*
X105715335Y-81532521D02*
X103420132Y-81532521D01*
X109693135Y-82055605D02*
X106238419Y-82055605D01*
X111336006Y-83132776D02*
X109858824Y-81655594D01*
X109858824Y-81655594D02*
X106404108Y-81655594D01*
X117145643Y-83132777D02*
X111336006Y-83132776D01*
X121491343Y-85212259D02*
X120350234Y-84071150D01*
X120350234Y-84071150D02*
X118084016Y-84071150D01*
X118084016Y-84071150D02*
X117145643Y-83132777D01*
X106404108Y-81655594D02*
X105581033Y-80832519D01*
X121491343Y-86386911D02*
X121491343Y-85212259D01*
X105581033Y-80832519D02*
X105065512Y-80832519D01*
X101206378Y-82627378D02*
X103780140Y-85201140D01*
X101257178Y-79244486D02*
X101257178Y-81101022D01*
X103780140Y-85201140D02*
X109313453Y-85201140D01*
X101257178Y-81101022D02*
X101206378Y-81151822D01*
X110341938Y-86229625D02*
X113750544Y-86229625D01*
X101326632Y-79175032D02*
X101257178Y-79244486D01*
X113750544Y-86229625D02*
X113774683Y-86205486D01*
X101206378Y-81151822D02*
X101206378Y-82627378D01*
X109313453Y-85201140D02*
X110341938Y-86229625D01*
X113774683Y-86205486D02*
X114174682Y-85805487D01*
X112649934Y-80132720D02*
X111644132Y-79126918D01*
X106070695Y-77482464D02*
X103737600Y-77482464D01*
X110496220Y-79126918D02*
X109192702Y-77823401D01*
X111644132Y-79126918D02*
X110496220Y-79126918D01*
X106411632Y-77823401D02*
X106070695Y-77482464D01*
X116248540Y-80098942D02*
X113963872Y-80098942D01*
X119502416Y-81671084D02*
X118530264Y-80698932D01*
X103737600Y-77482464D02*
X102840396Y-76585260D01*
X137210800Y-81686400D02*
X135161416Y-79637016D01*
X113963872Y-80098942D02*
X113930094Y-80132720D01*
X116848530Y-80698932D02*
X116248540Y-80098942D01*
X124014414Y-81671084D02*
X119502416Y-81671084D01*
X124616354Y-81069144D02*
X124014414Y-81671084D01*
X125531486Y-81069144D02*
X124616354Y-81069144D01*
X126963614Y-79637016D02*
X125531486Y-81069144D01*
X109192702Y-77823401D02*
X106411632Y-77823401D01*
X102840396Y-76585260D02*
X102440397Y-76185261D01*
X113930094Y-80132720D02*
X112649934Y-80132720D01*
X135161416Y-79637016D02*
X126963614Y-79637016D01*
X118530264Y-80698932D02*
X116848530Y-80698932D01*
X102462522Y-75345644D02*
X101896837Y-75345644D01*
X102590744Y-75345644D02*
X102462522Y-75345644D01*
X109358392Y-77423390D02*
X106577321Y-77423390D01*
X106577321Y-77423390D02*
X106236384Y-77082453D01*
X117739118Y-79298920D02*
X115776907Y-79298920D01*
X119909878Y-79422422D02*
X119532744Y-79799556D01*
X106236384Y-77082453D02*
X104327553Y-77082453D01*
X110661909Y-78726907D02*
X109358392Y-77423390D01*
X118239754Y-79799556D02*
X117739118Y-79298920D01*
X114475284Y-78726907D02*
X110661909Y-78726907D01*
X114504088Y-78698103D02*
X114475284Y-78726907D01*
X104327553Y-77082453D02*
X102590744Y-75345644D01*
X115176090Y-78698103D02*
X114504088Y-78698103D01*
X115776907Y-79298920D02*
X115176090Y-78698103D01*
X126556089Y-79237005D02*
X126370672Y-79422422D01*
X137160000Y-77774800D02*
X135697795Y-79237005D01*
X119532744Y-79799556D02*
X118239754Y-79799556D01*
X126370672Y-79422422D02*
X119909878Y-79422422D01*
X135697795Y-79237005D02*
X126556089Y-79237005D01*
X124680788Y-83271128D02*
X118415394Y-83271128D01*
X117443242Y-82298976D02*
X116185774Y-82298976D01*
X127562381Y-81301049D02*
X126194242Y-82669188D01*
X107866901Y-80423445D02*
X107194899Y-80423445D01*
X107194899Y-80423445D02*
X106878895Y-80107441D01*
X115585784Y-81698986D02*
X114626628Y-81698986D01*
X128550657Y-81665049D02*
X128186657Y-81301049D01*
X105903222Y-80107441D02*
X105178288Y-79382507D01*
X110956163Y-80726965D02*
X108170421Y-80726965D01*
X125282728Y-82669188D02*
X124680788Y-83271128D01*
X111961962Y-81732764D02*
X110956163Y-80726965D01*
X126194242Y-82669188D02*
X125282728Y-82669188D01*
X135513182Y-88910830D02*
X128550657Y-81948305D01*
X128550657Y-81948305D02*
X128550657Y-81665049D01*
X128186657Y-81301049D02*
X127562381Y-81301049D01*
X118415394Y-83271128D02*
X117443242Y-82298976D01*
X116185774Y-82298976D02*
X115585784Y-81698986D01*
X114626628Y-81698986D02*
X114592850Y-81732764D01*
X114592850Y-81732764D02*
X111961962Y-81732764D01*
X108170421Y-80726965D02*
X107866901Y-80423445D01*
X106878895Y-80107441D02*
X105903222Y-80107441D01*
X106908699Y-76623368D02*
X106567762Y-76282431D01*
X118921705Y-78669319D02*
X118356020Y-78669319D01*
X118185599Y-78498898D02*
X116108285Y-78498898D01*
X96964752Y-74753624D02*
X95695977Y-74753624D01*
X99371781Y-74245623D02*
X99270180Y-74347224D01*
X95695977Y-74753624D02*
X95250801Y-75198800D01*
X114143906Y-77926885D02*
X110993287Y-77926885D01*
X95250801Y-75198800D02*
X95165954Y-75198800D01*
X97371152Y-74347224D02*
X96964752Y-74753624D01*
X118356020Y-78669319D02*
X118185599Y-78498898D01*
X115507468Y-77898081D02*
X114172710Y-77898081D01*
X102375008Y-74245623D02*
X99371781Y-74245623D01*
X102880933Y-74504433D02*
X102633818Y-74504433D01*
X99270180Y-74347224D02*
X97371152Y-74347224D01*
X109689770Y-76623368D02*
X106908699Y-76623368D01*
X102633818Y-74504433D02*
X102375008Y-74245623D01*
X106567762Y-76282431D02*
X104658931Y-76282431D01*
X116108285Y-78498898D02*
X115507468Y-77898081D01*
X110993287Y-77926885D02*
X109689770Y-76623368D01*
X114172710Y-77898081D02*
X114143906Y-77926885D01*
X104658931Y-76282431D02*
X102880933Y-74504433D01*
X119911596Y-78613233D02*
X124209987Y-78613233D01*
X116139479Y-77964392D02*
X119262755Y-77964392D01*
X96799063Y-74353613D02*
X97205463Y-73947213D01*
X109855459Y-76223357D02*
X111158976Y-77526874D01*
X99104491Y-73947213D02*
X99206092Y-73845612D01*
X114007021Y-77498070D02*
X115673157Y-77498070D01*
X102799507Y-74104422D02*
X103046622Y-74104422D01*
X124209987Y-78613233D02*
X124609986Y-78213234D01*
X111158976Y-77526874D02*
X113978217Y-77526874D01*
X119262755Y-77964392D02*
X119911596Y-78613233D01*
X95371416Y-74353613D02*
X96799063Y-74353613D01*
X113978217Y-77526874D02*
X114007021Y-77498070D01*
X95217943Y-74200140D02*
X95371416Y-74353613D01*
X97205463Y-73947213D02*
X99104491Y-73947213D01*
X104824620Y-75882420D02*
X106733451Y-75882420D01*
X107074388Y-76223357D02*
X109855459Y-76223357D01*
X99206092Y-73845612D02*
X102540697Y-73845612D01*
X103046622Y-74104422D02*
X104824620Y-75882420D01*
X115673157Y-77498070D02*
X116139479Y-77964392D01*
X106733451Y-75882420D02*
X107074388Y-76223357D01*
X102540697Y-73845612D02*
X102799507Y-74104422D01*
X110021148Y-75823346D02*
X111324665Y-77126863D01*
X115838846Y-77098059D02*
X116305168Y-77564381D01*
X102965196Y-73704411D02*
X103212311Y-73704411D01*
X96590974Y-73953602D02*
X96997374Y-73547202D01*
X102706386Y-73445601D02*
X102965196Y-73704411D01*
X119995881Y-78131818D02*
X123655398Y-78131818D01*
X98938802Y-73547202D02*
X99040403Y-73445601D01*
X113812528Y-77126863D02*
X113841332Y-77098059D01*
X111324665Y-77126863D02*
X113812528Y-77126863D01*
X94437200Y-73201290D02*
X94588239Y-73352329D01*
X95961370Y-73953602D02*
X96590974Y-73953602D01*
X96997374Y-73547202D02*
X98938802Y-73547202D01*
X99040403Y-73445601D02*
X102706386Y-73445601D01*
X107240077Y-75823346D02*
X110021148Y-75823346D01*
X103212311Y-73704411D02*
X104990309Y-75482409D01*
X104990309Y-75482409D02*
X106899140Y-75482409D01*
X106899140Y-75482409D02*
X107240077Y-75823346D01*
X116305168Y-77564381D02*
X119428444Y-77564381D01*
X119428444Y-77564381D02*
X119995881Y-78131818D01*
X124273984Y-77513232D02*
X124945988Y-77513232D01*
X113841332Y-77098059D02*
X115838846Y-77098059D01*
X125532797Y-78100041D02*
X126340541Y-78100041D01*
X126340541Y-78100041D02*
X126906226Y-78100041D01*
X94588239Y-73352329D02*
X95360097Y-73352329D01*
X124945988Y-77513232D02*
X125532797Y-78100041D01*
X95360097Y-73352329D02*
X95961370Y-73953602D01*
X123655398Y-78131818D02*
X124273984Y-77513232D01*
X95591494Y-72447189D02*
X95386364Y-72652319D01*
X129032000Y-77371879D02*
X128879600Y-77219479D01*
X113646839Y-76726852D02*
X111490354Y-76726852D01*
X124108295Y-77113221D02*
X123489709Y-77731807D01*
X116470857Y-77164370D02*
X116004535Y-76698048D01*
X111490354Y-76726852D02*
X110186837Y-75423335D01*
X119594133Y-77164370D02*
X116470857Y-77164370D01*
X97217911Y-72447189D02*
X95591494Y-72447189D01*
X110186837Y-75423335D02*
X107853739Y-75423335D01*
X128879600Y-77219479D02*
X125217935Y-77219479D01*
X125217935Y-77219479D02*
X125111677Y-77113221D01*
X113675643Y-76698048D02*
X113646839Y-76726852D01*
X123489709Y-77731807D02*
X120161570Y-77731807D01*
X125111677Y-77113221D02*
X124108295Y-77113221D01*
X116004535Y-76698048D02*
X113675643Y-76698048D01*
X107853739Y-75423335D02*
X106406402Y-73975998D01*
X106406402Y-73975998D02*
X104920098Y-73975998D01*
X102837299Y-71893199D02*
X97771901Y-71893199D01*
X97771901Y-71893199D02*
X97217911Y-72447189D01*
X120161570Y-77731807D02*
X119594133Y-77164370D01*
X104920098Y-73975998D02*
X102837299Y-71893199D01*
X129090511Y-77430390D02*
X129032000Y-77371879D01*
X129032000Y-77371879D02*
X128863917Y-77203796D01*
X129656196Y-77430390D02*
X129090511Y-77430390D01*
X116636546Y-76764359D02*
X116170224Y-76298037D01*
X113481150Y-76326841D02*
X111656043Y-76326841D01*
X97606212Y-71493188D02*
X97052222Y-72047178D01*
X123952114Y-76703702D02*
X123324020Y-77331796D01*
X97052222Y-72047178D02*
X95764561Y-72047178D01*
X133925965Y-77103701D02*
X133525966Y-76703702D01*
X106572091Y-73575987D02*
X105085787Y-73575987D01*
X119759822Y-76764359D02*
X116636546Y-76764359D01*
X95764561Y-72047178D02*
X95369826Y-71652443D01*
X108019428Y-75023324D02*
X106572091Y-73575987D01*
X113509954Y-76298037D02*
X113481150Y-76326841D01*
X120327259Y-77331796D02*
X119759822Y-76764359D01*
X110352526Y-75023324D02*
X108019428Y-75023324D01*
X105085787Y-73575987D02*
X103002988Y-71493188D01*
X111656043Y-76326841D02*
X110352526Y-75023324D01*
X133525966Y-76703702D02*
X123952114Y-76703702D01*
X116170224Y-76298037D02*
X113509954Y-76298037D01*
X103002988Y-71493188D02*
X97606212Y-71493188D01*
X123324020Y-77331796D02*
X120327259Y-77331796D01*
X106737780Y-73175976D02*
X108185117Y-74623313D01*
X134638200Y-76239500D02*
X136347200Y-74530500D01*
X123850616Y-76239500D02*
X134638200Y-76239500D01*
X96903378Y-71347175D02*
X97157376Y-71093177D01*
X123158331Y-76931785D02*
X123850616Y-76239500D01*
X96337693Y-71347175D02*
X96903378Y-71347175D01*
X97157376Y-71093177D02*
X103168677Y-71093177D01*
X103168677Y-71093177D02*
X105251476Y-73175976D01*
X113315461Y-75926830D02*
X113344265Y-75898026D01*
X105251476Y-73175976D02*
X106737780Y-73175976D01*
X111821732Y-75926830D02*
X113315461Y-75926830D01*
X113344265Y-75898026D02*
X116335913Y-75898026D01*
X116335913Y-75898026D02*
X116802235Y-76364348D01*
X119925511Y-76364348D02*
X120492948Y-76931785D01*
X136347200Y-74530500D02*
X136347200Y-73644048D01*
X136347200Y-73644048D02*
X136347200Y-73078363D01*
X116802235Y-76364348D02*
X119925511Y-76364348D01*
X108185117Y-74623313D02*
X110518215Y-74623313D01*
X120492948Y-76931785D02*
X123158331Y-76931785D01*
X110518215Y-74623313D02*
X111821732Y-75926830D01*
X120658637Y-76531774D02*
X122992642Y-76531774D01*
X134524801Y-75228399D02*
X134924800Y-74828400D01*
X116967924Y-75964337D02*
X120091200Y-75964337D01*
X133913711Y-75839489D02*
X134524801Y-75228399D01*
X105417165Y-72775965D02*
X106903469Y-72775965D01*
X110683904Y-74223302D02*
X111987421Y-75526819D01*
X123684927Y-75839489D02*
X133913711Y-75839489D01*
X113101605Y-75498015D02*
X116501602Y-75498015D01*
X120091200Y-75964337D02*
X120658637Y-76531774D01*
X96977200Y-70256400D02*
X97413966Y-70693166D01*
X97413966Y-70693166D02*
X103334366Y-70693166D01*
X111987421Y-75526819D02*
X113072801Y-75526819D01*
X113072801Y-75526819D02*
X113101605Y-75498015D01*
X116501602Y-75498015D02*
X116967924Y-75964337D01*
X106903469Y-72775965D02*
X108350806Y-74223302D01*
X108350806Y-74223302D02*
X110683904Y-74223302D01*
X122992642Y-76531774D02*
X123684927Y-75839489D01*
X103334366Y-70693166D02*
X105417165Y-72775965D01*
X100011107Y-74645634D02*
X102209319Y-74645634D01*
X109524081Y-77023379D02*
X110827598Y-78326896D01*
X117904807Y-78898909D02*
X118405443Y-79399545D01*
X102468129Y-74904444D02*
X102715244Y-74904444D01*
X115942596Y-78898909D02*
X117904807Y-78898909D01*
X134523006Y-78836994D02*
X126390400Y-78836994D01*
X102209319Y-74645634D02*
X102468129Y-74904444D01*
X104493242Y-76682442D02*
X106402073Y-76682442D01*
X102715244Y-74904444D02*
X104493242Y-76682442D01*
X106743010Y-77023379D02*
X109524081Y-77023379D01*
X99043822Y-75047234D02*
X99609507Y-75047234D01*
X99609507Y-75047234D02*
X100011107Y-74645634D01*
X106402073Y-76682442D02*
X106743010Y-77023379D01*
X110827598Y-78326896D02*
X114309595Y-78326896D01*
X114309595Y-78326896D02*
X114338399Y-78298092D01*
X114338399Y-78298092D02*
X115341779Y-78298092D01*
X115341779Y-78298092D02*
X115942596Y-78898909D01*
X118405443Y-79399545D02*
X119367055Y-79399545D01*
X119367055Y-79399545D02*
X119744189Y-79022411D01*
X119744189Y-79022411D02*
X126204983Y-79022411D01*
X126204983Y-79022411D02*
X126390400Y-78836994D01*
X137007600Y-76352400D02*
X134523006Y-78836994D01*
X110330531Y-79526929D02*
X109027013Y-78223412D01*
X116082851Y-80498953D02*
X114129561Y-80498953D01*
X101006257Y-75752843D02*
X99593254Y-75752843D01*
X124782043Y-81469155D02*
X124180103Y-82071095D01*
X116682841Y-81098943D02*
X116082851Y-80498953D01*
X99593254Y-75752843D02*
X99193255Y-76152842D01*
X102305300Y-76884600D02*
X102138014Y-76884600D01*
X103303175Y-77882475D02*
X102305300Y-76884600D01*
X106245943Y-78223412D02*
X105905006Y-77882475D01*
X109027013Y-78223412D02*
X106245943Y-78223412D01*
X111463290Y-79526929D02*
X110330531Y-79526929D01*
X114095783Y-80532731D02*
X112469092Y-80532731D01*
X119336727Y-82071095D02*
X118364575Y-81098943D01*
X124180103Y-82071095D02*
X119336727Y-82071095D01*
X102138014Y-76884600D02*
X101006257Y-75752843D01*
X125697175Y-81469155D02*
X124782043Y-81469155D01*
X127129303Y-80037027D02*
X125697175Y-81469155D01*
X133193219Y-80037027D02*
X127129303Y-80037027D01*
X112469092Y-80532731D02*
X111463290Y-79526929D01*
X114129561Y-80498953D02*
X114095783Y-80532731D01*
X136936582Y-83780390D02*
X133193219Y-80037027D01*
X105905006Y-77882475D02*
X103303175Y-77882475D01*
X118364575Y-81098943D02*
X116682841Y-81098943D01*
X137277128Y-85688410D02*
X132025756Y-80437038D01*
X106080254Y-78623423D02*
X105739317Y-78282486D01*
X119171038Y-82471106D02*
X118198886Y-81498954D01*
X108861324Y-78623423D02*
X106080254Y-78623423D01*
X124345792Y-82471106D02*
X119171038Y-82471106D01*
X115917162Y-80898964D02*
X114295250Y-80898964D01*
X102139611Y-77284611D02*
X101939369Y-77284611D01*
X103137486Y-78282486D02*
X102139611Y-77284611D01*
X110164844Y-79926943D02*
X108861324Y-78623423D01*
X125862864Y-81869166D02*
X124947732Y-81869166D01*
X111287541Y-79926943D02*
X110164844Y-79926943D01*
X112293340Y-80932742D02*
X111287541Y-79926943D01*
X114261472Y-80932742D02*
X112293340Y-80932742D01*
X114295250Y-80898964D02*
X114261472Y-80932742D01*
X116517152Y-81498954D02*
X115917162Y-80898964D01*
X105739317Y-78282486D02*
X103137486Y-78282486D01*
X101939369Y-77284611D02*
X101109501Y-76454743D01*
X118198886Y-81498954D02*
X116517152Y-81498954D01*
X100712292Y-76454743D02*
X100146607Y-76454743D01*
X124947732Y-81869166D02*
X124345792Y-82471106D01*
X101109501Y-76454743D02*
X100712292Y-76454743D01*
X132025756Y-80437038D02*
X127294992Y-80437038D01*
X127294992Y-80437038D02*
X125862864Y-81869166D01*
X114427161Y-81332753D02*
X114460939Y-81298975D01*
X124511481Y-82871117D02*
X125113421Y-82269177D01*
X118033197Y-81898965D02*
X119005349Y-82871117D01*
X101973922Y-77684622D02*
X102971797Y-78682497D01*
X127396692Y-80901038D02*
X128844497Y-80901038D01*
X119005349Y-82871117D02*
X124511481Y-82871117D01*
X125113421Y-82269177D02*
X126028553Y-82269177D01*
X114460939Y-81298975D02*
X115751473Y-81298975D01*
X126028553Y-82269177D02*
X127396692Y-80901038D01*
X112127651Y-81332753D02*
X114427161Y-81332753D01*
X111121852Y-80326954D02*
X112127651Y-81332753D01*
X109999155Y-80326954D02*
X111121852Y-80326954D01*
X108695635Y-79023434D02*
X109999155Y-80326954D01*
X105914565Y-79023434D02*
X108695635Y-79023434D01*
X101773680Y-77684622D02*
X101973922Y-77684622D01*
X101388299Y-77299241D02*
X101773680Y-77684622D01*
X100950953Y-77299241D02*
X101388299Y-77299241D01*
X135054279Y-87110820D02*
X135454278Y-87510819D01*
X115751473Y-81298975D02*
X116351463Y-81898965D01*
X102971797Y-78682497D02*
X105573628Y-78682497D01*
X128844497Y-80901038D02*
X135054279Y-87110820D01*
X105573628Y-78682497D02*
X105914565Y-79023434D01*
X116351463Y-81898965D02*
X118033197Y-81898965D01*
X110849593Y-73823291D02*
X112153110Y-75126808D01*
X122199882Y-75768884D02*
X122765567Y-75768884D01*
X116667291Y-75098004D02*
X117046889Y-75477602D01*
X108516495Y-73823291D02*
X110849593Y-73823291D01*
X112513294Y-75098004D02*
X116667291Y-75098004D01*
X106180847Y-72075955D02*
X106769159Y-72075955D01*
X106769159Y-72075955D02*
X108516495Y-73823291D01*
X112153110Y-75126808D02*
X112484490Y-75126808D01*
X112484490Y-75126808D02*
X112513294Y-75098004D01*
X117046889Y-75477602D02*
X121908600Y-75477602D01*
X121908600Y-75477602D02*
X122199882Y-75768884D01*
X107204341Y-71694112D02*
X106804342Y-71294113D01*
X107204341Y-71945437D02*
X107204341Y-71694112D01*
X108260888Y-73001984D02*
X107204341Y-71945437D01*
X108685153Y-73001984D02*
X108260888Y-73001984D01*
X99797543Y-79985543D02*
X100363228Y-79985543D01*
X119754018Y-88277256D02*
X120253406Y-88776644D01*
X105417411Y-87979211D02*
X111138292Y-87979211D01*
X97688400Y-77876400D02*
X99797543Y-79985543D01*
X111588739Y-88429658D02*
X114185768Y-88429658D01*
X111138292Y-87979211D02*
X111588739Y-88429658D01*
X124424444Y-88776644D02*
X130491400Y-94843600D01*
X120253406Y-88776644D02*
X124424444Y-88776644D01*
X134308315Y-94843600D02*
X134874000Y-94843600D01*
X130491400Y-94843600D02*
X134308315Y-94843600D01*
X115394782Y-88277256D02*
X119754018Y-88277256D01*
X115215764Y-88456274D02*
X115394782Y-88277256D01*
X114212384Y-88456274D02*
X115215764Y-88456274D01*
X114185768Y-88429658D02*
X114212384Y-88456274D01*
X100363228Y-79985543D02*
X100457156Y-80079471D01*
X100457156Y-80079471D02*
X100457156Y-80769644D01*
X100457156Y-80769644D02*
X100406356Y-80820444D01*
X100406356Y-80820444D02*
X100406356Y-82968156D01*
X100406356Y-82968156D02*
X105417411Y-87979211D01*
X96754963Y-79280522D02*
X99904745Y-82430304D01*
X99904745Y-82430304D02*
X99904745Y-83032245D01*
X99904745Y-83032245D02*
X105251722Y-88379222D01*
X105251722Y-88379222D02*
X110972603Y-88379222D01*
X110972603Y-88379222D02*
X111423050Y-88829669D01*
X114046695Y-88856285D02*
X115381453Y-88856285D01*
X111423050Y-88829669D02*
X114020079Y-88829669D01*
X130687700Y-95605600D02*
X136956800Y-95605600D01*
X114020079Y-88829669D02*
X114046695Y-88856285D01*
X115381453Y-88856285D02*
X115560471Y-88677267D01*
X120087717Y-89176655D02*
X124258755Y-89176655D01*
X115560471Y-88677267D02*
X119588329Y-88677267D01*
X119588329Y-88677267D02*
X120087717Y-89176655D01*
X124258755Y-89176655D02*
X130687700Y-95605600D01*
X96372389Y-80850243D02*
X96772388Y-81250242D01*
X107972223Y-91225610D02*
X108537908Y-91225610D01*
X96772388Y-81250242D02*
X96852742Y-81250242D01*
X107888202Y-91141589D02*
X107972223Y-91225610D01*
X96852742Y-81250242D02*
X106744089Y-91141589D01*
X106744089Y-91141589D02*
X107888202Y-91141589D01*
X97758245Y-84581894D02*
X97758245Y-84016209D01*
X97758245Y-86432502D02*
X97758245Y-84581894D01*
X105885214Y-94559471D02*
X97758245Y-86432502D01*
X106655642Y-94559471D02*
X105885214Y-94559471D01*
X96926400Y-84836000D02*
X96926400Y-86394500D01*
X96926400Y-86394500D02*
X104073555Y-93541655D01*
X104073555Y-93541655D02*
X104291251Y-93541655D01*
X104291251Y-93541655D02*
X107022831Y-96273235D01*
X107022831Y-96273235D02*
X107022831Y-96605875D01*
X107022831Y-96605875D02*
X107422830Y-97005874D01*
X103907866Y-93941666D02*
X104043966Y-93941666D01*
X104043966Y-93941666D02*
X106282550Y-96180250D01*
X106425785Y-97440671D02*
X106825784Y-97840670D01*
X95656400Y-84886800D02*
X95656400Y-85690200D01*
X95656400Y-85690200D02*
X103907866Y-93941666D01*
X106282550Y-96180250D02*
X106282550Y-97297436D01*
X106282550Y-97297436D02*
X106425785Y-97440671D01*
X102819200Y-97840800D02*
X107442000Y-102463600D01*
X107442000Y-102463600D02*
X111861600Y-102463600D01*
X102819200Y-93726000D02*
X102819200Y-97840800D01*
X94234000Y-85140800D02*
X102819200Y-93726000D01*
X114222094Y-97747307D02*
X114415822Y-97553579D01*
X105867882Y-97875560D02*
X106545938Y-98553616D01*
X104228233Y-95115897D02*
X105867882Y-96755546D01*
X107497088Y-98617858D02*
X108168492Y-98617858D01*
X105867882Y-96755546D02*
X105867882Y-97875560D01*
X107432846Y-98553616D02*
X107497088Y-98617858D01*
X114415822Y-97553579D02*
X114981507Y-97553579D01*
X108168492Y-98617858D02*
X109039043Y-97747307D01*
X109039043Y-97747307D02*
X114222094Y-97747307D01*
X106545938Y-98553616D02*
X107432846Y-98553616D01*
X104387599Y-96512024D02*
X104387599Y-96960977D01*
X107331399Y-99017869D02*
X108334781Y-99017869D01*
X117246400Y-96977200D02*
X121303515Y-96977200D01*
X121303515Y-96977200D02*
X121869200Y-96977200D01*
X103952806Y-96077231D02*
X104387599Y-96512024D01*
X108334781Y-99017869D02*
X109099061Y-98253589D01*
X109099061Y-98253589D02*
X115970011Y-98253589D01*
X106391411Y-98964789D02*
X107278319Y-98964789D01*
X104387599Y-96960977D02*
X106391411Y-98964789D01*
X115970011Y-98253589D02*
X117246400Y-96977200D01*
X107278319Y-98964789D02*
X107331399Y-99017869D01*
X117036300Y-97790000D02*
X125062715Y-97790000D01*
X107165710Y-99417880D02*
X108500470Y-99417880D01*
X103530400Y-97028000D02*
X105867200Y-99364800D01*
X108500470Y-99417880D02*
X109264750Y-98653600D01*
X116172700Y-98653600D02*
X117036300Y-97790000D01*
X125062715Y-97790000D02*
X125628400Y-97790000D01*
X109264750Y-98653600D02*
X116172700Y-98653600D01*
X107112630Y-99364800D02*
X107165710Y-99417880D01*
X105867200Y-99364800D02*
X107112630Y-99364800D01*
X137617200Y-91135200D02*
X148793200Y-91135200D01*
X148793200Y-91135200D02*
X148844000Y-91186000D01*
X118030341Y-102417273D02*
X118030341Y-102986659D01*
X118030341Y-102986659D02*
X117008828Y-104008172D01*
X171348400Y-116027200D02*
X173685200Y-113690400D01*
X173685200Y-113690400D02*
X173685200Y-86461600D01*
X168333621Y-65589685D02*
X168333621Y-65024000D01*
X166672018Y-68006974D02*
X168333621Y-66345371D01*
X173685200Y-86461600D02*
X166672018Y-79448418D01*
X117008828Y-113662928D02*
X119373100Y-116027200D01*
X119373100Y-116027200D02*
X171348400Y-116027200D01*
X166672018Y-79448418D02*
X166672018Y-68006974D01*
X117008828Y-104008172D02*
X117008828Y-113662928D01*
X168333621Y-66345371D02*
X168333621Y-65589685D01*
X173278800Y-113334800D02*
X173278800Y-86657900D01*
X167748001Y-64306399D02*
X168148000Y-63906400D01*
X170992800Y-115620800D02*
X173278800Y-113334800D01*
X167633611Y-64420789D02*
X167748001Y-64306399D01*
X119532400Y-102050300D02*
X117408839Y-104173861D01*
X117408839Y-104173861D02*
X117408839Y-113497239D01*
X117408839Y-113497239D02*
X119532400Y-115620800D01*
X166272007Y-67841285D02*
X167633611Y-66479681D01*
X167633611Y-66479681D02*
X167633611Y-64420789D01*
X173278800Y-86657900D02*
X166272007Y-79651107D01*
X119532400Y-115620800D02*
X170992800Y-115620800D01*
X166272007Y-79651107D02*
X166272007Y-67841285D01*
X119532400Y-99212400D02*
X119532400Y-102050300D01*
X119532400Y-99212400D02*
X119932399Y-99612399D01*
X166833601Y-63391999D02*
X167233600Y-62992000D01*
X172872400Y-86817200D02*
X165871996Y-79816796D01*
X170789600Y-115214400D02*
X172872400Y-113131600D01*
X119735600Y-115214400D02*
X170789600Y-115214400D01*
X117808850Y-113287650D02*
X119735600Y-115214400D01*
X117808850Y-104339550D02*
X117808850Y-113287650D01*
X165871996Y-79816796D02*
X165871996Y-64353604D01*
X120853200Y-98552000D02*
X120853200Y-101295200D01*
X172872400Y-113131600D02*
X172872400Y-86817200D01*
X120853200Y-101295200D02*
X117808850Y-104339550D01*
X165871996Y-64353604D02*
X166833601Y-63391999D01*
X116643201Y-103269999D02*
X117043200Y-102870000D01*
X116608817Y-103304383D02*
X116643201Y-103269999D01*
X119264600Y-116484400D02*
X116608817Y-113828617D01*
X174142400Y-86309200D02*
X174142400Y-113944400D01*
X116608817Y-113828617D02*
X116608817Y-103304383D01*
X174142400Y-113944400D02*
X171602400Y-116484400D01*
X167072029Y-79238829D02*
X174142400Y-86309200D01*
X167072029Y-68182771D02*
X167072029Y-79238829D01*
X169411599Y-65843201D02*
X167072029Y-68182771D01*
X169011600Y-61976000D02*
X169411599Y-62375999D01*
X169411599Y-62375999D02*
X169411599Y-65843201D01*
X171602400Y-116484400D02*
X119264600Y-116484400D01*
X113163953Y-63784529D02*
X113163953Y-63735553D01*
X113163953Y-63735553D02*
X113080800Y-63652400D01*
X113163953Y-63784529D02*
X113163953Y-64350214D01*
X113337737Y-66925847D02*
X113337737Y-67288173D01*
X113048822Y-64465345D02*
X113048822Y-66636932D01*
X113163953Y-64350214D02*
X113048822Y-64465345D01*
X113048822Y-66636932D02*
X113337737Y-66925847D01*
X113337737Y-67288173D02*
X113737736Y-67688172D01*
X116051650Y-66821151D02*
X114309710Y-66821151D01*
X114176718Y-66688159D02*
X113776719Y-66288160D01*
X119195522Y-68414823D02*
X117645322Y-68414823D01*
X119827156Y-69737067D02*
X119827156Y-69046457D01*
X119827156Y-69046457D02*
X119195522Y-68414823D01*
X117645322Y-68414823D02*
X116051650Y-66821151D01*
X114309710Y-66821151D02*
X114176718Y-66688159D01*
X116320262Y-68221163D02*
X115304693Y-68221163D01*
X118137031Y-69848358D02*
X117737032Y-69448359D01*
X115304693Y-68221163D02*
X115137865Y-68387991D01*
X117737032Y-69448359D02*
X117547458Y-69448359D01*
X117547458Y-69448359D02*
X116320262Y-68221163D01*
X117479633Y-68814834D02*
X116185952Y-67521153D01*
X116185952Y-67521153D02*
X115692747Y-67521153D01*
X118816710Y-69114832D02*
X118251025Y-69114832D01*
X117951027Y-68814834D02*
X117479633Y-68814834D01*
X118251025Y-69114832D02*
X117951027Y-68814834D01*
D17*
X127757783Y-62978338D02*
X127757783Y-62412653D01*
X129133600Y-65582800D02*
X128039410Y-64488610D01*
X128039410Y-63259965D02*
X127757783Y-62978338D01*
X128039410Y-64488610D02*
X128039410Y-63259965D01*
D16*
X127057604Y-64218004D02*
X127314408Y-64218004D01*
X125476000Y-62636400D02*
X127057604Y-64218004D01*
X125448417Y-83069199D02*
X124846477Y-83671139D01*
X115528315Y-82398988D02*
X114962630Y-82398988D01*
X127851500Y-82001894D02*
X126784195Y-83069199D01*
X115862093Y-82732766D02*
X115528315Y-82398988D01*
X117311332Y-82732766D02*
X115862093Y-82732766D01*
X124846477Y-83671139D02*
X118249705Y-83671139D01*
X118249705Y-83671139D02*
X117311332Y-82732766D01*
X126784195Y-83069199D02*
X125448417Y-83069199D01*
X131927600Y-73355200D02*
X131927600Y-66700400D01*
X131927600Y-66700400D02*
X131775200Y-66548000D01*
X90322400Y-75996800D02*
X90722399Y-76396799D01*
X101442302Y-78484644D02*
X101642544Y-78484644D01*
X102958259Y-83813559D02*
X104984353Y-83813559D01*
X105617216Y-83780116D02*
X105930278Y-84093178D01*
X101657188Y-81266711D02*
X101606389Y-81317510D01*
X105930278Y-84093178D02*
X109841878Y-84093178D01*
X105017796Y-83780116D02*
X105617216Y-83780116D01*
X102057200Y-79502000D02*
X101657189Y-79902011D01*
X95569659Y-76396799D02*
X95772847Y-76193611D01*
X101386469Y-78428811D02*
X101442302Y-78484644D01*
X90722399Y-76396799D02*
X95569659Y-76396799D01*
X102057200Y-78899300D02*
X102057200Y-79502000D01*
X101606389Y-81317510D02*
X101606389Y-82461689D01*
X104984353Y-83813559D02*
X105017796Y-83780116D01*
X101606389Y-82461689D02*
X102958259Y-83813559D01*
X111748194Y-85129610D02*
X112313879Y-85129610D01*
X109841878Y-84093178D02*
X110878310Y-85129610D01*
X95772847Y-76193611D02*
X97657673Y-76193611D01*
X99892873Y-78428811D02*
X101386469Y-78428811D01*
X101642544Y-78484644D02*
X102057200Y-78899300D01*
X97657673Y-76193611D02*
X99892873Y-78428811D01*
X101657189Y-79902011D02*
X101657188Y-81266711D01*
X110878310Y-85129610D02*
X111748194Y-85129610D01*
X116515500Y-64221107D02*
X115600277Y-64221107D01*
X105877296Y-61884496D02*
X105416885Y-61424085D01*
X114015469Y-61752365D02*
X112247731Y-61752365D01*
X115082435Y-62819331D02*
X114015469Y-61752365D01*
X112115600Y-61884496D02*
X105877296Y-61884496D01*
X112247731Y-61752365D02*
X112115600Y-61884496D01*
X115082435Y-63703265D02*
X115082435Y-62819331D01*
X115600277Y-64221107D02*
X115082435Y-63703265D01*
X119096393Y-66802000D02*
X116515500Y-64221107D01*
X121818400Y-66802000D02*
X119096393Y-66802000D01*
X123596400Y-68580000D02*
X121818400Y-66802000D01*
X105416885Y-61424085D02*
X105416885Y-61417200D01*
X105416885Y-61417200D02*
X104851200Y-61417200D01*
X105648229Y-70188305D02*
X107300238Y-70188305D01*
X108966200Y-71667860D02*
X109317638Y-71667860D01*
X108634441Y-71336101D02*
X108966200Y-71667860D01*
X108448034Y-71336101D02*
X108634441Y-71336101D01*
X101803978Y-66344054D02*
X105648229Y-70188305D01*
X107300238Y-70188305D02*
X108448034Y-71336101D01*
X113882402Y-63417998D02*
X113416802Y-62952398D01*
X105380229Y-63084529D02*
X105248098Y-62952398D01*
X102470485Y-62687200D02*
X101904800Y-62687200D01*
X102735683Y-62952398D02*
X102470485Y-62687200D01*
X105248098Y-62952398D02*
X102735683Y-62952398D01*
X112612667Y-63084529D02*
X105380229Y-63084529D01*
X112744798Y-62952398D02*
X112612667Y-63084529D01*
X113882402Y-64200332D02*
X113882402Y-63417998D01*
X115103210Y-65421140D02*
X113882402Y-64200332D01*
X116018433Y-65421140D02*
X115103210Y-65421140D01*
X118612105Y-68014812D02*
X116018433Y-65421140D01*
X113416802Y-62952398D02*
X112744798Y-62952398D01*
X119518500Y-68014812D02*
X118612105Y-68014812D01*
X120555093Y-69051405D02*
X119518500Y-68014812D01*
X113684091Y-62552387D02*
X114282413Y-63150709D01*
X114282413Y-64034643D02*
X115268899Y-65021129D01*
X102920800Y-61925200D02*
X103517622Y-62522022D01*
X118777794Y-67614801D02*
X120316140Y-67614801D01*
X105383422Y-62522022D02*
X105545918Y-62684518D01*
X116184122Y-65021129D02*
X118777794Y-67614801D01*
X105545918Y-62684518D02*
X112446978Y-62684518D01*
X103517622Y-62522022D02*
X105383422Y-62522022D01*
X115268899Y-65021129D02*
X116184122Y-65021129D01*
X114282413Y-63150709D02*
X114282413Y-64034643D01*
X112579109Y-62552387D02*
X113684091Y-62552387D01*
X112446978Y-62684518D02*
X112579109Y-62552387D01*
X121503663Y-68802324D02*
X121503663Y-69368009D01*
X120316140Y-67614801D02*
X121503663Y-68802324D01*
X120656390Y-67214790D02*
X122028001Y-68586401D01*
X104438411Y-62122011D02*
X105549111Y-62122011D01*
X122028001Y-68586401D02*
X122428000Y-68986400D01*
X103835200Y-61518800D02*
X104438411Y-62122011D01*
X116349811Y-64621118D02*
X118943483Y-67214790D01*
X114682424Y-63868954D02*
X115434588Y-64621118D01*
X115434588Y-64621118D02*
X116349811Y-64621118D01*
X118943483Y-67214790D02*
X120656390Y-67214790D01*
X114682424Y-62985020D02*
X114682424Y-63868954D01*
X112281289Y-62284507D02*
X112413420Y-62152376D01*
X105711607Y-62284507D02*
X112281289Y-62284507D01*
X113849780Y-62152376D02*
X114682424Y-62985020D01*
X105549111Y-62122011D02*
X105711607Y-62284507D01*
X112413420Y-62152376D02*
X113849780Y-62152376D01*
X108478870Y-67972737D02*
X108478870Y-67580963D01*
X110482085Y-68967803D02*
X109697675Y-68967803D01*
X111378064Y-69814264D02*
X111328546Y-69814264D01*
X114819813Y-71621222D02*
X114686658Y-71488067D01*
X116001063Y-71621222D02*
X114819813Y-71621222D01*
X113051867Y-71488067D02*
X111378064Y-69814264D01*
X111328546Y-69814264D02*
X110482085Y-68967803D01*
X117183565Y-73369409D02*
X117183565Y-72803724D01*
X109665907Y-68936035D02*
X109442168Y-68936035D01*
X109442168Y-68936035D02*
X108478870Y-67972737D01*
X117183565Y-72803724D02*
X116001063Y-71621222D01*
X114686658Y-71488067D02*
X113051867Y-71488067D01*
X109697675Y-68967803D02*
X109665907Y-68936035D01*
X108613723Y-70936090D02*
X108837462Y-70936090D01*
X107465927Y-69788294D02*
X108613723Y-70936090D01*
X108869230Y-70967858D02*
X109614998Y-70967858D01*
X109614998Y-70967858D02*
X110208477Y-71561337D01*
X106225694Y-69788294D02*
X107465927Y-69788294D01*
X104750891Y-68313491D02*
X106225694Y-69788294D01*
X110208477Y-71561337D02*
X110208477Y-72127022D01*
X104750891Y-66459183D02*
X104750891Y-68313491D01*
X108837462Y-70936090D02*
X108869230Y-70967858D01*
X105763355Y-68760255D02*
X106391383Y-69388283D01*
X108779412Y-70536079D02*
X109003151Y-70536079D01*
X107631616Y-69388283D02*
X108779412Y-70536079D01*
X109003151Y-70536079D02*
X109034919Y-70567847D01*
X109034919Y-70567847D02*
X109819329Y-70567847D01*
X109819329Y-70567847D02*
X112004104Y-72752622D01*
X112004104Y-72752622D02*
X112004104Y-72971697D01*
X112004104Y-72971697D02*
X112404103Y-73371696D01*
X106391383Y-69388283D02*
X107631616Y-69388283D01*
X105763355Y-67507753D02*
X105763355Y-68760255D01*
X113090162Y-72988393D02*
X113655847Y-72988393D01*
X106240468Y-68020604D02*
X106240468Y-68671668D01*
X106240468Y-68671668D02*
X106557072Y-68988272D01*
X106557072Y-68988272D02*
X107797305Y-68988272D01*
X106550901Y-66806041D02*
X106550901Y-67710171D01*
X110893705Y-71027005D02*
X112554800Y-72688100D01*
X106550901Y-67710171D02*
X106240468Y-68020604D01*
X106150902Y-66406042D02*
X106550901Y-66806041D01*
X109200608Y-70167836D02*
X109985018Y-70167836D01*
X109168840Y-70136068D02*
X109200608Y-70167836D01*
X109985018Y-70167836D02*
X110844187Y-71027005D01*
X112554800Y-72688100D02*
X112789869Y-72688100D01*
X108945101Y-70136068D02*
X109168840Y-70136068D01*
X107797305Y-68988272D02*
X108945101Y-70136068D01*
X110844187Y-71027005D02*
X110893705Y-71027005D01*
X112789869Y-72688100D02*
X113090162Y-72988393D01*
X107598018Y-68288262D02*
X107530249Y-68288262D01*
X107968789Y-68594056D02*
X107903812Y-68594056D01*
X109366297Y-69767825D02*
X109334529Y-69736057D01*
X107903812Y-68594056D02*
X107598018Y-68288262D01*
X109110790Y-69736057D02*
X107968789Y-68594056D01*
X109334529Y-69736057D02*
X109110790Y-69736057D01*
X112720489Y-72288089D02*
X111046686Y-70614286D01*
X114101825Y-72288089D02*
X112720489Y-72288089D01*
X111046686Y-70614286D02*
X110997168Y-70614286D01*
X110150707Y-69767825D02*
X109366297Y-69767825D01*
X110997168Y-70614286D02*
X110150707Y-69767825D01*
X107530249Y-68288262D02*
X106964564Y-68288262D01*
X114759868Y-72946132D02*
X114101825Y-72288089D01*
X109531986Y-69367814D02*
X109500218Y-69336046D01*
X107708461Y-67833005D02*
X107708461Y-67749241D01*
X109276479Y-69336046D02*
X108134478Y-68194045D01*
X111162857Y-70214275D02*
X110316396Y-69367814D01*
X111212375Y-70214275D02*
X111162857Y-70214275D01*
X114520969Y-71888078D02*
X112886178Y-71888078D01*
X112886178Y-71888078D02*
X111212375Y-70214275D01*
X110316396Y-69367814D02*
X109531986Y-69367814D01*
X114654124Y-72021233D02*
X114520969Y-71888078D01*
X109500218Y-69336046D02*
X109276479Y-69336046D01*
X108134478Y-68194045D02*
X108069501Y-68194045D01*
X115944255Y-73162012D02*
X115944255Y-72596327D01*
X108069501Y-68194045D02*
X107708461Y-67833005D01*
X115369161Y-72021233D02*
X114654124Y-72021233D01*
X107708461Y-67749241D02*
X107308462Y-67349242D01*
X115944255Y-72596327D02*
X115369161Y-72021233D01*
X112032252Y-67639952D02*
X112032252Y-67265206D01*
X115515103Y-69488012D02*
X113880312Y-69488012D01*
X117801030Y-70548359D02*
X116873838Y-69621167D01*
X115648258Y-69621167D02*
X115515103Y-69488012D01*
X116873838Y-69621167D02*
X115648258Y-69621167D01*
X120112239Y-70548359D02*
X117801030Y-70548359D01*
X113880312Y-69488012D02*
X112032252Y-67639952D01*
X121987508Y-72989313D02*
X121987508Y-72423628D01*
X121987508Y-72423628D02*
X120112239Y-70548359D01*
X113217556Y-71088056D02*
X111543753Y-69414253D01*
X109178880Y-68107047D02*
X109178880Y-67197035D01*
X118926053Y-73936182D02*
X116211082Y-71221211D01*
X109178880Y-67197035D02*
X108942412Y-66960567D01*
X111543753Y-69414253D02*
X111494235Y-69414253D01*
X114852347Y-71088056D02*
X113217556Y-71088056D01*
X114985502Y-71221211D02*
X114852347Y-71088056D01*
X122309164Y-73936182D02*
X118926053Y-73936182D01*
X109607857Y-68536024D02*
X109178880Y-68107047D01*
X109863364Y-68567792D02*
X109831596Y-68536024D01*
X111494235Y-69414253D02*
X110647774Y-68567792D01*
X108942412Y-66960567D02*
X108542413Y-66560568D01*
X116211082Y-71221211D02*
X114985502Y-71221211D01*
X110647774Y-68567792D02*
X109863364Y-68567792D01*
X109831596Y-68536024D02*
X109607857Y-68536024D01*
X111659924Y-69014242D02*
X110813463Y-68167781D01*
X113383245Y-70688045D02*
X111709442Y-69014242D01*
X119036059Y-72978300D02*
X118636060Y-72578301D01*
X111709442Y-69014242D02*
X111659924Y-69014242D01*
X116376771Y-70821200D02*
X115151191Y-70821200D01*
X118133872Y-72578301D02*
X116376771Y-70821200D01*
X110229579Y-68167781D02*
X109888351Y-67826553D01*
X115018036Y-70688045D02*
X113383245Y-70688045D01*
X115151191Y-70821200D02*
X115018036Y-70688045D01*
X110813463Y-68167781D02*
X110229579Y-68167781D01*
X118636060Y-72578301D02*
X118133872Y-72578301D01*
X109988168Y-66890366D02*
X109988168Y-66821882D01*
X111825613Y-68614231D02*
X110979152Y-67767770D01*
X113548934Y-70288034D02*
X111875131Y-68614231D01*
X110979152Y-67767770D02*
X110865572Y-67767770D01*
X115183725Y-70288034D02*
X113548934Y-70288034D01*
X120021726Y-72581388D02*
X118788719Y-71348381D01*
X111875131Y-68614231D02*
X111825613Y-68614231D01*
X118788719Y-71348381D02*
X117469652Y-71348381D01*
X117469652Y-71348381D02*
X116542460Y-70421189D01*
X115316880Y-70421189D02*
X115183725Y-70288034D01*
X110865572Y-67767770D02*
X109988168Y-66890366D01*
X116542460Y-70421189D02*
X115316880Y-70421189D01*
X120021726Y-73147073D02*
X120021726Y-72581388D01*
X119037454Y-70948370D02*
X117635341Y-70948370D01*
X111881992Y-68104910D02*
X110989973Y-67212891D01*
X117635341Y-70948370D02*
X116708149Y-70021178D01*
X120991297Y-72902213D02*
X119037454Y-70948370D01*
X116708149Y-70021178D02*
X115482569Y-70021178D01*
X111931510Y-68104910D02*
X111881992Y-68104910D01*
X110989973Y-67212891D02*
X110989973Y-66902207D01*
X115482569Y-70021178D02*
X115349414Y-69888023D01*
X113714623Y-69888023D02*
X111931510Y-68104910D01*
X115349414Y-69888023D02*
X113714623Y-69888023D01*
X124590133Y-88376633D02*
X129488162Y-93274662D01*
X115229093Y-87877245D02*
X119919707Y-87877245D01*
X119919707Y-87877245D02*
X120419095Y-88376633D01*
X120419095Y-88376633D02*
X124590133Y-88376633D01*
X114378073Y-88056263D02*
X115050075Y-88056263D01*
X115050075Y-88056263D02*
X115229093Y-87877245D01*
X114351457Y-88029647D02*
X114378073Y-88056263D01*
X129488162Y-93274662D02*
X130842725Y-93274662D01*
X130842725Y-93274662D02*
X131408410Y-93274662D01*
X100806367Y-82802467D02*
X105583100Y-87579200D01*
X105583100Y-87579200D02*
X111303981Y-87579200D01*
X111303981Y-87579200D02*
X111754428Y-88029647D01*
X111754428Y-88029647D02*
X114351457Y-88029647D01*
X100806367Y-80986133D02*
X100806367Y-82802467D01*
X100857167Y-80935333D02*
X100806367Y-80986133D01*
X100857167Y-79809963D02*
X100857167Y-80935333D01*
X100332745Y-79285541D02*
X100857167Y-79809963D01*
X95764449Y-79418020D02*
X96326953Y-79980524D01*
X96326953Y-79980524D02*
X96516284Y-79980524D01*
X96516284Y-79980524D02*
X99504734Y-82968974D01*
X99504734Y-82968974D02*
X99504734Y-83336534D01*
X106693800Y-90525600D02*
X122294934Y-90525600D01*
X99504734Y-83336534D02*
X106693800Y-90525600D01*
X122294934Y-90525600D02*
X129610134Y-97840800D01*
X129610134Y-97840800D02*
X132791200Y-97840800D01*
G36*
X97544945Y-57757580D02*
X97453600Y-58216800D01*
X97544945Y-58676020D01*
X97805072Y-59065328D01*
X98194380Y-59325455D01*
X98653600Y-59416800D01*
X102711825Y-59416800D01*
X100439113Y-61689513D01*
X100265694Y-61949051D01*
X100204798Y-62255198D01*
X100204798Y-64932232D01*
X99502682Y-65634348D01*
X99262057Y-65733772D01*
X99008662Y-65986725D01*
X98871357Y-66317394D01*
X98871044Y-66675436D01*
X99007772Y-67006343D01*
X99260725Y-67259738D01*
X99591394Y-67397043D01*
X99949436Y-67397356D01*
X100280343Y-67260628D01*
X100533738Y-67007675D01*
X100634317Y-66765453D01*
X100903845Y-66495925D01*
X100903822Y-66522290D01*
X101040550Y-66853197D01*
X101293503Y-67106592D01*
X101624172Y-67243897D01*
X101855495Y-67244099D01*
X105223965Y-70612569D01*
X105418619Y-70742633D01*
X105648229Y-70788305D01*
X106039866Y-70788305D01*
X105904499Y-71114307D01*
X105904410Y-71216375D01*
X105671704Y-71312527D01*
X105418309Y-71565480D01*
X105311774Y-71822046D01*
X103758630Y-70268902D01*
X103563976Y-70138838D01*
X103334366Y-70093166D01*
X97877343Y-70093166D01*
X97877356Y-70078164D01*
X97740628Y-69747257D01*
X97487675Y-69493862D01*
X97157006Y-69356557D01*
X96798964Y-69356244D01*
X96468057Y-69492972D01*
X96214662Y-69745925D01*
X96077357Y-70076594D01*
X96077044Y-70434636D01*
X96093433Y-70474300D01*
X95828550Y-70583747D01*
X95627155Y-70784790D01*
X95549632Y-70752600D01*
X95191590Y-70752287D01*
X94860683Y-70889015D01*
X94607288Y-71141968D01*
X94469983Y-71472637D01*
X94469670Y-71830679D01*
X94606398Y-72161586D01*
X94612917Y-72168116D01*
X94557575Y-72301395D01*
X94258964Y-72301134D01*
X93928057Y-72437862D01*
X93674662Y-72690815D01*
X93537357Y-73021484D01*
X93537044Y-73379526D01*
X93673772Y-73710433D01*
X93926725Y-73963828D01*
X94257394Y-74101133D01*
X94318029Y-74101186D01*
X94317787Y-74378376D01*
X94433462Y-74658331D01*
X94403416Y-74688325D01*
X94266111Y-75018994D01*
X94265798Y-75377036D01*
X94402526Y-75707943D01*
X94491227Y-75796799D01*
X91213563Y-75796799D01*
X91085828Y-75487657D01*
X90832875Y-75234262D01*
X90502206Y-75096957D01*
X90144164Y-75096644D01*
X89813257Y-75233372D01*
X89559862Y-75486325D01*
X89422557Y-75816994D01*
X89422244Y-76175036D01*
X89558972Y-76505943D01*
X89811925Y-76759338D01*
X90142594Y-76896643D01*
X90411600Y-76896878D01*
X90492789Y-76951127D01*
X90722399Y-76996799D01*
X95569659Y-76996799D01*
X95799269Y-76951127D01*
X95993923Y-76821063D01*
X96021375Y-76793611D01*
X97409145Y-76793611D01*
X97591849Y-76976315D01*
X97510164Y-76976244D01*
X97179257Y-77112972D01*
X96925862Y-77365925D01*
X96788557Y-77696594D01*
X96788244Y-78054636D01*
X96922958Y-78380669D01*
X96576727Y-78380366D01*
X96245820Y-78517094D01*
X96156465Y-78606294D01*
X95944255Y-78518177D01*
X95586213Y-78517864D01*
X95255306Y-78654592D01*
X95001911Y-78907545D01*
X94864606Y-79238214D01*
X94864293Y-79596256D01*
X95001021Y-79927163D01*
X95253974Y-80180558D01*
X95584643Y-80317863D01*
X95631753Y-80317904D01*
X95609851Y-80339768D01*
X95472546Y-80670437D01*
X95472233Y-81028479D01*
X95608961Y-81359386D01*
X95861914Y-81612781D01*
X96192583Y-81750086D01*
X96461589Y-81750321D01*
X96542778Y-81804570D01*
X96562456Y-81808484D01*
X97870279Y-83116307D01*
X97580009Y-83116053D01*
X97249102Y-83252781D01*
X96995707Y-83505734D01*
X96858402Y-83836403D01*
X96858315Y-83935940D01*
X96748164Y-83935844D01*
X96417257Y-84072572D01*
X96266002Y-84223563D01*
X96166875Y-84124262D01*
X95836206Y-83986957D01*
X95478164Y-83986644D01*
X95147257Y-84123372D01*
X94893862Y-84376325D01*
X94849409Y-84483380D01*
X94744475Y-84378262D01*
X94413806Y-84240957D01*
X94055764Y-84240644D01*
X93724857Y-84377372D01*
X93471462Y-84630325D01*
X93334157Y-84960994D01*
X93333844Y-85319036D01*
X93470572Y-85649943D01*
X93723525Y-85903338D01*
X94054194Y-86040643D01*
X94285517Y-86040845D01*
X102219200Y-93974528D01*
X102219200Y-97840800D01*
X102264872Y-98070410D01*
X102394936Y-98265064D01*
X107017736Y-102887864D01*
X107212389Y-103017928D01*
X107442000Y-103063600D01*
X111188871Y-103063600D01*
X111351125Y-103226138D01*
X111681794Y-103363443D01*
X112039836Y-103363756D01*
X112370743Y-103227028D01*
X112624138Y-102974075D01*
X112761443Y-102643406D01*
X112761756Y-102285364D01*
X112625028Y-101954457D01*
X112372075Y-101701062D01*
X112041406Y-101563757D01*
X111683364Y-101563444D01*
X111352457Y-101700172D01*
X111188743Y-101863600D01*
X107690528Y-101863600D01*
X105772988Y-99946060D01*
X105867200Y-99964800D01*
X106925012Y-99964800D01*
X106936099Y-99972208D01*
X107165710Y-100017880D01*
X108500470Y-100017880D01*
X108730080Y-99972208D01*
X108924734Y-99842144D01*
X109513278Y-99253600D01*
X116172700Y-99253600D01*
X116402310Y-99207928D01*
X116596964Y-99077864D01*
X117284828Y-98390000D01*
X119165980Y-98390000D01*
X119023257Y-98448972D01*
X118769862Y-98701925D01*
X118632557Y-99032594D01*
X118632244Y-99390636D01*
X118768972Y-99721543D01*
X118932400Y-99885257D01*
X118932400Y-101801772D01*
X118803205Y-101930967D01*
X118793769Y-101908130D01*
X118540816Y-101654735D01*
X118210147Y-101517430D01*
X117852105Y-101517117D01*
X117521198Y-101653845D01*
X117267803Y-101906798D01*
X117238775Y-101976705D01*
X117223006Y-101970157D01*
X116864964Y-101969844D01*
X116534057Y-102106572D01*
X116280662Y-102359525D01*
X116143357Y-102690194D01*
X116143137Y-102942103D01*
X116054489Y-103074773D01*
X116008817Y-103304383D01*
X116008817Y-113828617D01*
X116054489Y-114058227D01*
X116184553Y-114252881D01*
X118552272Y-116620600D01*
X88332000Y-116620600D01*
X88332000Y-57471000D01*
X97736431Y-57471000D01*
X97544945Y-57757580D01*
X97544945Y-57757580D01*
G37*
X97544945Y-57757580D02*
X97453600Y-58216800D01*
X97544945Y-58676020D01*
X97805072Y-59065328D01*
X98194380Y-59325455D01*
X98653600Y-59416800D01*
X102711825Y-59416800D01*
X100439113Y-61689513D01*
X100265694Y-61949051D01*
X100204798Y-62255198D01*
X100204798Y-64932232D01*
X99502682Y-65634348D01*
X99262057Y-65733772D01*
X99008662Y-65986725D01*
X98871357Y-66317394D01*
X98871044Y-66675436D01*
X99007772Y-67006343D01*
X99260725Y-67259738D01*
X99591394Y-67397043D01*
X99949436Y-67397356D01*
X100280343Y-67260628D01*
X100533738Y-67007675D01*
X100634317Y-66765453D01*
X100903845Y-66495925D01*
X100903822Y-66522290D01*
X101040550Y-66853197D01*
X101293503Y-67106592D01*
X101624172Y-67243897D01*
X101855495Y-67244099D01*
X105223965Y-70612569D01*
X105418619Y-70742633D01*
X105648229Y-70788305D01*
X106039866Y-70788305D01*
X105904499Y-71114307D01*
X105904410Y-71216375D01*
X105671704Y-71312527D01*
X105418309Y-71565480D01*
X105311774Y-71822046D01*
X103758630Y-70268902D01*
X103563976Y-70138838D01*
X103334366Y-70093166D01*
X97877343Y-70093166D01*
X97877356Y-70078164D01*
X97740628Y-69747257D01*
X97487675Y-69493862D01*
X97157006Y-69356557D01*
X96798964Y-69356244D01*
X96468057Y-69492972D01*
X96214662Y-69745925D01*
X96077357Y-70076594D01*
X96077044Y-70434636D01*
X96093433Y-70474300D01*
X95828550Y-70583747D01*
X95627155Y-70784790D01*
X95549632Y-70752600D01*
X95191590Y-70752287D01*
X94860683Y-70889015D01*
X94607288Y-71141968D01*
X94469983Y-71472637D01*
X94469670Y-71830679D01*
X94606398Y-72161586D01*
X94612917Y-72168116D01*
X94557575Y-72301395D01*
X94258964Y-72301134D01*
X93928057Y-72437862D01*
X93674662Y-72690815D01*
X93537357Y-73021484D01*
X93537044Y-73379526D01*
X93673772Y-73710433D01*
X93926725Y-73963828D01*
X94257394Y-74101133D01*
X94318029Y-74101186D01*
X94317787Y-74378376D01*
X94433462Y-74658331D01*
X94403416Y-74688325D01*
X94266111Y-75018994D01*
X94265798Y-75377036D01*
X94402526Y-75707943D01*
X94491227Y-75796799D01*
X91213563Y-75796799D01*
X91085828Y-75487657D01*
X90832875Y-75234262D01*
X90502206Y-75096957D01*
X90144164Y-75096644D01*
X89813257Y-75233372D01*
X89559862Y-75486325D01*
X89422557Y-75816994D01*
X89422244Y-76175036D01*
X89558972Y-76505943D01*
X89811925Y-76759338D01*
X90142594Y-76896643D01*
X90411600Y-76896878D01*
X90492789Y-76951127D01*
X90722399Y-76996799D01*
X95569659Y-76996799D01*
X95799269Y-76951127D01*
X95993923Y-76821063D01*
X96021375Y-76793611D01*
X97409145Y-76793611D01*
X97591849Y-76976315D01*
X97510164Y-76976244D01*
X97179257Y-77112972D01*
X96925862Y-77365925D01*
X96788557Y-77696594D01*
X96788244Y-78054636D01*
X96922958Y-78380669D01*
X96576727Y-78380366D01*
X96245820Y-78517094D01*
X96156465Y-78606294D01*
X95944255Y-78518177D01*
X95586213Y-78517864D01*
X95255306Y-78654592D01*
X95001911Y-78907545D01*
X94864606Y-79238214D01*
X94864293Y-79596256D01*
X95001021Y-79927163D01*
X95253974Y-80180558D01*
X95584643Y-80317863D01*
X95631753Y-80317904D01*
X95609851Y-80339768D01*
X95472546Y-80670437D01*
X95472233Y-81028479D01*
X95608961Y-81359386D01*
X95861914Y-81612781D01*
X96192583Y-81750086D01*
X96461589Y-81750321D01*
X96542778Y-81804570D01*
X96562456Y-81808484D01*
X97870279Y-83116307D01*
X97580009Y-83116053D01*
X97249102Y-83252781D01*
X96995707Y-83505734D01*
X96858402Y-83836403D01*
X96858315Y-83935940D01*
X96748164Y-83935844D01*
X96417257Y-84072572D01*
X96266002Y-84223563D01*
X96166875Y-84124262D01*
X95836206Y-83986957D01*
X95478164Y-83986644D01*
X95147257Y-84123372D01*
X94893862Y-84376325D01*
X94849409Y-84483380D01*
X94744475Y-84378262D01*
X94413806Y-84240957D01*
X94055764Y-84240644D01*
X93724857Y-84377372D01*
X93471462Y-84630325D01*
X93334157Y-84960994D01*
X93333844Y-85319036D01*
X93470572Y-85649943D01*
X93723525Y-85903338D01*
X94054194Y-86040643D01*
X94285517Y-86040845D01*
X102219200Y-93974528D01*
X102219200Y-97840800D01*
X102264872Y-98070410D01*
X102394936Y-98265064D01*
X107017736Y-102887864D01*
X107212389Y-103017928D01*
X107442000Y-103063600D01*
X111188871Y-103063600D01*
X111351125Y-103226138D01*
X111681794Y-103363443D01*
X112039836Y-103363756D01*
X112370743Y-103227028D01*
X112624138Y-102974075D01*
X112761443Y-102643406D01*
X112761756Y-102285364D01*
X112625028Y-101954457D01*
X112372075Y-101701062D01*
X112041406Y-101563757D01*
X111683364Y-101563444D01*
X111352457Y-101700172D01*
X111188743Y-101863600D01*
X107690528Y-101863600D01*
X105772988Y-99946060D01*
X105867200Y-99964800D01*
X106925012Y-99964800D01*
X106936099Y-99972208D01*
X107165710Y-100017880D01*
X108500470Y-100017880D01*
X108730080Y-99972208D01*
X108924734Y-99842144D01*
X109513278Y-99253600D01*
X116172700Y-99253600D01*
X116402310Y-99207928D01*
X116596964Y-99077864D01*
X117284828Y-98390000D01*
X119165980Y-98390000D01*
X119023257Y-98448972D01*
X118769862Y-98701925D01*
X118632557Y-99032594D01*
X118632244Y-99390636D01*
X118768972Y-99721543D01*
X118932400Y-99885257D01*
X118932400Y-101801772D01*
X118803205Y-101930967D01*
X118793769Y-101908130D01*
X118540816Y-101654735D01*
X118210147Y-101517430D01*
X117852105Y-101517117D01*
X117521198Y-101653845D01*
X117267803Y-101906798D01*
X117238775Y-101976705D01*
X117223006Y-101970157D01*
X116864964Y-101969844D01*
X116534057Y-102106572D01*
X116280662Y-102359525D01*
X116143357Y-102690194D01*
X116143137Y-102942103D01*
X116054489Y-103074773D01*
X116008817Y-103304383D01*
X116008817Y-113828617D01*
X116054489Y-114058227D01*
X116184553Y-114252881D01*
X118552272Y-116620600D01*
X88332000Y-116620600D01*
X88332000Y-57471000D01*
X97736431Y-57471000D01*
X97544945Y-57757580D01*
G36*
X172282000Y-77887344D02*
X170652272Y-79517072D01*
X170392145Y-79906380D01*
X170300800Y-80365600D01*
X170300800Y-80924400D01*
X170392145Y-81383620D01*
X170652272Y-81772928D01*
X171041580Y-82033055D01*
X171500800Y-82124400D01*
X171960020Y-82033055D01*
X172349328Y-81772928D01*
X172609455Y-81383620D01*
X172700800Y-80924400D01*
X172700800Y-80862656D01*
X174330528Y-79232928D01*
X174494500Y-78987526D01*
X174494500Y-85812772D01*
X167672029Y-78990301D01*
X167672029Y-78456128D01*
X167737585Y-78521799D01*
X168472356Y-78826902D01*
X169267954Y-78827597D01*
X170003256Y-78523776D01*
X170566319Y-77961695D01*
X170871422Y-77226924D01*
X170872117Y-76431326D01*
X170568296Y-75696024D01*
X170006215Y-75132961D01*
X169271444Y-74827858D01*
X168475846Y-74827163D01*
X167740544Y-75130984D01*
X167672029Y-75199380D01*
X167672029Y-68431299D01*
X169835863Y-66267465D01*
X169965927Y-66072811D01*
X170011599Y-65843201D01*
X170011599Y-62375999D01*
X169965927Y-62146389D01*
X169911522Y-62064967D01*
X169911756Y-61797764D01*
X169775028Y-61466857D01*
X169522075Y-61213462D01*
X169191406Y-61076157D01*
X168833364Y-61075844D01*
X168502457Y-61212572D01*
X168249062Y-61465525D01*
X168111757Y-61796194D01*
X168111444Y-62154236D01*
X168248172Y-62485143D01*
X168501125Y-62738538D01*
X168811599Y-62867457D01*
X168811599Y-63297254D01*
X168658475Y-63143862D01*
X168327806Y-63006557D01*
X168133588Y-63006387D01*
X168133756Y-62813764D01*
X167997028Y-62482857D01*
X167744075Y-62229462D01*
X167413406Y-62092157D01*
X167055364Y-62091844D01*
X166724457Y-62228572D01*
X166471062Y-62481525D01*
X166333757Y-62812194D01*
X166333555Y-63043517D01*
X165447732Y-63929340D01*
X165317668Y-64123994D01*
X165271996Y-64353604D01*
X165271996Y-79816796D01*
X165317668Y-80046406D01*
X165447732Y-80241060D01*
X172272400Y-87065728D01*
X172272400Y-112883072D01*
X170541072Y-114614400D01*
X119984128Y-114614400D01*
X118408850Y-113039122D01*
X118408850Y-106121014D01*
X148774183Y-106121014D01*
X149078004Y-106856316D01*
X149640085Y-107419379D01*
X150374856Y-107724482D01*
X151170454Y-107725177D01*
X151905756Y-107421356D01*
X152468819Y-106859275D01*
X152773922Y-106124504D01*
X152774617Y-105328906D01*
X152481651Y-104619874D01*
X166871683Y-104619874D01*
X167175504Y-105355176D01*
X167737585Y-105918239D01*
X168472356Y-106223342D01*
X169267954Y-106224037D01*
X170003256Y-105920216D01*
X170566319Y-105358135D01*
X170871422Y-104623364D01*
X170872117Y-103827766D01*
X170568296Y-103092464D01*
X170006215Y-102529401D01*
X169271444Y-102224298D01*
X168475846Y-102223603D01*
X167740544Y-102527424D01*
X167177481Y-103089505D01*
X166872378Y-103824276D01*
X166871683Y-104619874D01*
X152481651Y-104619874D01*
X152470796Y-104593604D01*
X151908715Y-104030541D01*
X151173944Y-103725438D01*
X150378346Y-103724743D01*
X149643044Y-104028564D01*
X149079981Y-104590645D01*
X148774878Y-105325416D01*
X148774183Y-106121014D01*
X118408850Y-106121014D01*
X118408850Y-105234560D01*
X125743361Y-105234560D01*
X125880089Y-105565467D01*
X126133042Y-105818862D01*
X126463711Y-105956167D01*
X126821753Y-105956480D01*
X127152660Y-105819752D01*
X127406055Y-105566799D01*
X127543360Y-105236130D01*
X127543531Y-105040194D01*
X127935134Y-104648591D01*
X128856236Y-104648591D01*
X128993534Y-104786129D01*
X129324203Y-104923434D01*
X129682245Y-104923747D01*
X130013152Y-104787019D01*
X130266547Y-104534066D01*
X130403852Y-104203397D01*
X130404165Y-103845355D01*
X130267437Y-103514448D01*
X130014484Y-103261053D01*
X129683815Y-103123748D01*
X129325773Y-103123435D01*
X128994866Y-103260163D01*
X128856196Y-103398591D01*
X127676250Y-103398591D01*
X127437073Y-103446166D01*
X127234308Y-103581649D01*
X126659619Y-104156338D01*
X126465281Y-104156168D01*
X126134374Y-104292896D01*
X125880979Y-104545849D01*
X125743674Y-104876518D01*
X125743361Y-105234560D01*
X118408850Y-105234560D01*
X118408850Y-104588078D01*
X121277464Y-101719464D01*
X121407528Y-101524810D01*
X121453200Y-101295200D01*
X121453200Y-99224729D01*
X121615738Y-99062475D01*
X121753043Y-98731806D01*
X121753342Y-98390000D01*
X124955671Y-98390000D01*
X125117925Y-98552538D01*
X125448594Y-98689843D01*
X125806636Y-98690156D01*
X126137543Y-98553428D01*
X126390938Y-98300475D01*
X126528243Y-97969806D01*
X126528556Y-97611764D01*
X126391828Y-97280857D01*
X126138875Y-97027462D01*
X125808206Y-96890157D01*
X125450164Y-96889844D01*
X125119257Y-97026572D01*
X124955543Y-97190000D01*
X122755343Y-97190000D01*
X122769043Y-97157006D01*
X122769356Y-96798964D01*
X122632628Y-96468057D01*
X122379675Y-96214662D01*
X122049006Y-96077357D01*
X121690964Y-96077044D01*
X121360057Y-96213772D01*
X121196343Y-96377200D01*
X117246400Y-96377200D01*
X117016790Y-96422872D01*
X116822136Y-96552936D01*
X115881560Y-97493512D01*
X115881663Y-97375343D01*
X115744935Y-97044436D01*
X115491982Y-96791041D01*
X115161313Y-96653736D01*
X114803271Y-96653423D01*
X114472364Y-96790151D01*
X114281982Y-96980201D01*
X114186212Y-96999251D01*
X113991558Y-97129315D01*
X113973566Y-97147307D01*
X109039043Y-97147307D01*
X108833089Y-97188274D01*
X108833089Y-96643789D01*
X108787417Y-96414178D01*
X108657353Y-96219525D01*
X108424606Y-95986778D01*
X108564796Y-95928852D01*
X108818191Y-95675899D01*
X108955496Y-95345230D01*
X108955809Y-94987188D01*
X108819081Y-94656281D01*
X108655653Y-94492567D01*
X108655653Y-94357780D01*
X108609981Y-94128170D01*
X108479917Y-93933516D01*
X107536815Y-92990414D01*
X107492766Y-92960981D01*
X107546850Y-92830731D01*
X107547163Y-92472689D01*
X107410435Y-92141782D01*
X107157482Y-91888387D01*
X106826813Y-91751082D01*
X106468771Y-91750769D01*
X106137864Y-91887497D01*
X106113673Y-91911645D01*
X105308166Y-91106138D01*
X105113512Y-90976074D01*
X104883902Y-90930402D01*
X104814526Y-90930402D01*
X103754118Y-89869994D01*
X103754118Y-89830811D01*
X103916656Y-89668557D01*
X104053961Y-89337888D01*
X104053994Y-89300022D01*
X106319825Y-91565853D01*
X106514479Y-91695917D01*
X106744089Y-91741589D01*
X107685220Y-91741589D01*
X107742613Y-91779938D01*
X107838657Y-91799042D01*
X108027433Y-91988148D01*
X108358102Y-92125453D01*
X108716144Y-92125766D01*
X109047051Y-91989038D01*
X109300446Y-91736085D01*
X109437751Y-91405416D01*
X109437996Y-91125600D01*
X122046406Y-91125600D01*
X129185870Y-98265064D01*
X129380524Y-98395128D01*
X129610134Y-98440800D01*
X132118471Y-98440800D01*
X132280725Y-98603338D01*
X132611394Y-98740643D01*
X132969436Y-98740956D01*
X133300343Y-98604228D01*
X133553738Y-98351275D01*
X133691043Y-98020606D01*
X133691356Y-97662564D01*
X133554628Y-97331657D01*
X133301675Y-97078262D01*
X132971006Y-96940957D01*
X132612964Y-96940644D01*
X132282057Y-97077372D01*
X132118343Y-97240800D01*
X129858662Y-97240800D01*
X122719198Y-90101336D01*
X122524544Y-89971272D01*
X122294934Y-89925600D01*
X106942328Y-89925600D01*
X105995950Y-88979222D01*
X110724075Y-88979222D01*
X110998786Y-89253933D01*
X111193440Y-89383997D01*
X111423050Y-89429669D01*
X113912887Y-89429669D01*
X114046695Y-89456285D01*
X115381453Y-89456285D01*
X115611063Y-89410613D01*
X115805717Y-89280549D01*
X115808999Y-89277267D01*
X119339801Y-89277267D01*
X119663453Y-89600919D01*
X119858107Y-89730983D01*
X120087717Y-89776655D01*
X124010227Y-89776655D01*
X130263436Y-96029864D01*
X130458090Y-96159928D01*
X130687700Y-96205600D01*
X136284071Y-96205600D01*
X136446325Y-96368138D01*
X136776994Y-96505443D01*
X137135036Y-96505756D01*
X137465943Y-96369028D01*
X137719338Y-96116075D01*
X137856643Y-95785406D01*
X137856956Y-95427364D01*
X137720228Y-95096457D01*
X137506535Y-94882390D01*
X152264177Y-94882390D01*
X152539442Y-95548583D01*
X153048696Y-96058727D01*
X153714408Y-96335154D01*
X154435230Y-96335783D01*
X155101423Y-96060518D01*
X155611567Y-95551264D01*
X155887994Y-94885552D01*
X155887996Y-94882390D01*
X160260097Y-94882390D01*
X160535362Y-95548583D01*
X161044616Y-96058727D01*
X161710328Y-96335154D01*
X162431150Y-96335783D01*
X163097343Y-96060518D01*
X163607487Y-95551264D01*
X163883914Y-94885552D01*
X163884543Y-94164730D01*
X163609278Y-93498537D01*
X163100024Y-92988393D01*
X162434312Y-92711966D01*
X161713490Y-92711337D01*
X161047297Y-92986602D01*
X160537153Y-93495856D01*
X160260726Y-94161568D01*
X160260097Y-94882390D01*
X155887996Y-94882390D01*
X155888623Y-94164730D01*
X155613358Y-93498537D01*
X155104104Y-92988393D01*
X154851277Y-92883410D01*
X156262137Y-92883410D01*
X156537402Y-93549603D01*
X157046656Y-94059747D01*
X157712368Y-94336174D01*
X158433190Y-94336803D01*
X159099383Y-94061538D01*
X159609527Y-93552284D01*
X159885954Y-92886572D01*
X159886583Y-92165750D01*
X159719375Y-91761075D01*
X160872200Y-91761075D01*
X161006766Y-92034742D01*
X161665400Y-92327635D01*
X162385983Y-92346184D01*
X163058815Y-92087566D01*
X163137874Y-92034742D01*
X163272440Y-91761075D01*
X162072320Y-90560955D01*
X160872200Y-91761075D01*
X159719375Y-91761075D01*
X159611318Y-91499557D01*
X159102064Y-90989413D01*
X158740462Y-90839263D01*
X160251736Y-90839263D01*
X160510354Y-91512095D01*
X160563178Y-91591154D01*
X160836845Y-91725720D01*
X162036965Y-90525600D01*
X162107675Y-90525600D01*
X163307795Y-91725720D01*
X163581462Y-91591154D01*
X163874355Y-90932520D01*
X163892904Y-90211937D01*
X163634286Y-89539105D01*
X163581462Y-89460046D01*
X163307795Y-89325480D01*
X162107675Y-90525600D01*
X162036965Y-90525600D01*
X160836845Y-89325480D01*
X160563178Y-89460046D01*
X160270285Y-90118680D01*
X160251736Y-90839263D01*
X158740462Y-90839263D01*
X158436352Y-90712986D01*
X157715530Y-90712357D01*
X157049337Y-90987622D01*
X156539193Y-91496876D01*
X156262766Y-92162588D01*
X156262137Y-92883410D01*
X154851277Y-92883410D01*
X154438392Y-92711966D01*
X153717570Y-92711337D01*
X153051377Y-92986602D01*
X152541233Y-93495856D01*
X152264806Y-94161568D01*
X152264177Y-94882390D01*
X137506535Y-94882390D01*
X137467275Y-94843062D01*
X137136606Y-94705757D01*
X136778564Y-94705444D01*
X136447657Y-94842172D01*
X136283943Y-95005600D01*
X135773859Y-95005600D01*
X135774156Y-94665364D01*
X135637428Y-94334457D01*
X135384475Y-94081062D01*
X135053806Y-93943757D01*
X134695764Y-93943444D01*
X134364857Y-94080172D01*
X134201143Y-94243600D01*
X130739928Y-94243600D01*
X130370990Y-93874662D01*
X130735681Y-93874662D01*
X130897935Y-94037200D01*
X131228604Y-94174505D01*
X131586646Y-94174818D01*
X131917553Y-94038090D01*
X132170948Y-93785137D01*
X132308253Y-93454468D01*
X132308566Y-93096426D01*
X132171838Y-92765519D01*
X131918885Y-92512124D01*
X131588216Y-92374819D01*
X131230174Y-92374506D01*
X130899267Y-92511234D01*
X130735553Y-92674662D01*
X129736690Y-92674662D01*
X128375464Y-91313436D01*
X136717044Y-91313436D01*
X136853772Y-91644343D01*
X137106725Y-91897738D01*
X137437394Y-92035043D01*
X137795436Y-92035356D01*
X138126343Y-91898628D01*
X138290057Y-91735200D01*
X148120559Y-91735200D01*
X148333525Y-91948538D01*
X148664194Y-92085843D01*
X149022236Y-92086156D01*
X149353143Y-91949428D01*
X149606538Y-91696475D01*
X149743843Y-91365806D01*
X149744156Y-91007764D01*
X149693196Y-90884430D01*
X152264177Y-90884430D01*
X152539442Y-91550623D01*
X153048696Y-92060767D01*
X153714408Y-92337194D01*
X154435230Y-92337823D01*
X155101423Y-92062558D01*
X155611567Y-91553304D01*
X155887994Y-90887592D01*
X155888623Y-90166770D01*
X155613358Y-89500577D01*
X155104104Y-88990433D01*
X154851277Y-88885450D01*
X156262137Y-88885450D01*
X156537402Y-89551643D01*
X157046656Y-90061787D01*
X157712368Y-90338214D01*
X158433190Y-90338843D01*
X159099383Y-90063578D01*
X159609527Y-89554324D01*
X159719231Y-89290125D01*
X160872200Y-89290125D01*
X162072320Y-90490245D01*
X163272440Y-89290125D01*
X163137874Y-89016458D01*
X162479240Y-88723565D01*
X161758657Y-88705016D01*
X161085825Y-88963634D01*
X161006766Y-89016458D01*
X160872200Y-89290125D01*
X159719231Y-89290125D01*
X159885954Y-88888612D01*
X159886583Y-88167790D01*
X159611318Y-87501597D01*
X159102064Y-86991453D01*
X158436352Y-86715026D01*
X157715530Y-86714397D01*
X157049337Y-86989662D01*
X156539193Y-87498916D01*
X156262766Y-88164628D01*
X156262137Y-88885450D01*
X154851277Y-88885450D01*
X154438392Y-88714006D01*
X153717570Y-88713377D01*
X153051377Y-88988642D01*
X152541233Y-89497896D01*
X152264806Y-90163608D01*
X152264177Y-90884430D01*
X149693196Y-90884430D01*
X149607428Y-90676857D01*
X149354475Y-90423462D01*
X149023806Y-90286157D01*
X148665764Y-90285844D01*
X148334857Y-90422572D01*
X148222032Y-90535200D01*
X138289929Y-90535200D01*
X138127675Y-90372662D01*
X137797006Y-90235357D01*
X137438964Y-90235044D01*
X137108057Y-90371772D01*
X136854662Y-90624725D01*
X136717357Y-90955394D01*
X136717044Y-91313436D01*
X128375464Y-91313436D01*
X125014397Y-87952369D01*
X124819743Y-87822305D01*
X124590133Y-87776633D01*
X120667623Y-87776633D01*
X120343971Y-87452981D01*
X120149317Y-87322917D01*
X119919707Y-87277245D01*
X116532404Y-87277245D01*
X116559752Y-87211383D01*
X116560065Y-86853341D01*
X116423337Y-86522434D01*
X116170384Y-86269039D01*
X115839715Y-86131734D01*
X115571675Y-86131500D01*
X115487578Y-86075308D01*
X115257968Y-86029636D01*
X115056112Y-86029636D01*
X115074525Y-85985293D01*
X115074838Y-85627251D01*
X114938110Y-85296344D01*
X114732267Y-85090142D01*
X114889600Y-84932809D01*
X115485572Y-84932809D01*
X115602349Y-85215431D01*
X115855302Y-85468826D01*
X116185971Y-85606131D01*
X116544013Y-85606444D01*
X116718768Y-85534237D01*
X116913885Y-85729695D01*
X117244554Y-85867000D01*
X117602596Y-85867313D01*
X117933503Y-85730585D01*
X118186898Y-85477632D01*
X118324203Y-85146963D01*
X118324269Y-85071161D01*
X118779813Y-85071161D01*
X118904076Y-85195424D01*
X119098730Y-85325488D01*
X119194774Y-85344592D01*
X119383550Y-85533698D01*
X119714219Y-85671003D01*
X120072261Y-85671316D01*
X120403168Y-85534588D01*
X120656563Y-85281635D01*
X120672884Y-85242328D01*
X120891343Y-85460787D01*
X120891343Y-85714182D01*
X120728805Y-85876436D01*
X120591500Y-86207105D01*
X120591187Y-86565147D01*
X120727915Y-86896054D01*
X120980868Y-87149449D01*
X121311537Y-87286754D01*
X121669579Y-87287067D01*
X122000486Y-87150339D01*
X122253881Y-86897386D01*
X122391186Y-86566717D01*
X122391499Y-86208675D01*
X122254771Y-85877768D01*
X122091343Y-85714054D01*
X122091343Y-85212259D01*
X122045671Y-84982649D01*
X121915607Y-84787995D01*
X121398751Y-84271139D01*
X124846477Y-84271139D01*
X125076087Y-84225467D01*
X125270741Y-84095403D01*
X125696945Y-83669199D01*
X126784195Y-83669199D01*
X127013805Y-83623527D01*
X127208459Y-83493463D01*
X127800073Y-82901849D01*
X128029736Y-82902050D01*
X128360643Y-82765322D01*
X128439964Y-82686140D01*
X134613227Y-88859403D01*
X134613026Y-89089066D01*
X134749754Y-89419973D01*
X135002707Y-89673368D01*
X135333376Y-89810673D01*
X135691418Y-89810986D01*
X136022325Y-89674258D01*
X136275720Y-89421305D01*
X136413025Y-89090636D01*
X136413338Y-88732594D01*
X136276610Y-88401687D01*
X136056569Y-88181261D01*
X136216816Y-88021294D01*
X136354121Y-87690625D01*
X136354434Y-87332583D01*
X136217706Y-87001676D01*
X136102701Y-86886470D01*
X152264177Y-86886470D01*
X152539442Y-87552663D01*
X153048696Y-88062807D01*
X153714408Y-88339234D01*
X154435230Y-88339863D01*
X155101423Y-88064598D01*
X155611567Y-87555344D01*
X155887994Y-86889632D01*
X155888623Y-86168810D01*
X155613358Y-85502617D01*
X155326972Y-85215730D01*
X160250615Y-85215730D01*
X160250615Y-87839550D01*
X160289421Y-88034640D01*
X160399930Y-88200030D01*
X160565320Y-88310539D01*
X160760410Y-88349345D01*
X163384230Y-88349345D01*
X163579320Y-88310539D01*
X163744710Y-88200030D01*
X163855219Y-88034640D01*
X163894025Y-87839550D01*
X163894025Y-85215730D01*
X163855219Y-85020640D01*
X163744710Y-84855250D01*
X163579320Y-84744741D01*
X163384230Y-84705935D01*
X160760410Y-84705935D01*
X160565320Y-84744741D01*
X160399930Y-84855250D01*
X160289421Y-85020640D01*
X160250615Y-85215730D01*
X155326972Y-85215730D01*
X155104104Y-84992473D01*
X154438392Y-84716046D01*
X153717570Y-84715417D01*
X153051377Y-84990682D01*
X152541233Y-85499936D01*
X152264806Y-86165648D01*
X152264177Y-86886470D01*
X136102701Y-86886470D01*
X135964753Y-86748281D01*
X135634084Y-86610976D01*
X135402761Y-86610774D01*
X129829025Y-81037038D01*
X131777228Y-81037038D01*
X136377173Y-85636983D01*
X136376972Y-85866646D01*
X136513700Y-86197553D01*
X136766653Y-86450948D01*
X137097322Y-86588253D01*
X137455364Y-86588566D01*
X137786271Y-86451838D01*
X138039666Y-86198885D01*
X138176971Y-85868216D01*
X138177284Y-85510174D01*
X138040556Y-85179267D01*
X137787603Y-84925872D01*
X137456934Y-84788567D01*
X137225611Y-84788365D01*
X137116922Y-84679676D01*
X137445725Y-84543818D01*
X137699120Y-84290865D01*
X137836425Y-83960196D01*
X137836738Y-83602154D01*
X137700010Y-83271247D01*
X137447057Y-83017852D01*
X137116388Y-82880547D01*
X136885065Y-82880345D01*
X134241736Y-80237016D01*
X134912888Y-80237016D01*
X136310845Y-81634973D01*
X136310644Y-81864636D01*
X136447372Y-82195543D01*
X136700325Y-82448938D01*
X137030994Y-82586243D01*
X137389036Y-82586556D01*
X137719943Y-82449828D01*
X137973338Y-82196875D01*
X138110643Y-81866206D01*
X138110956Y-81508164D01*
X137974228Y-81177257D01*
X137721275Y-80923862D01*
X137390606Y-80786557D01*
X137159283Y-80786355D01*
X136713564Y-80340636D01*
X142305044Y-80340636D01*
X142441772Y-80671543D01*
X142694725Y-80924938D01*
X143025394Y-81062243D01*
X143383436Y-81062556D01*
X143714343Y-80925828D01*
X143967738Y-80672875D01*
X144105043Y-80342206D01*
X144105121Y-80252428D01*
X144157372Y-80200177D01*
X144157375Y-80200175D01*
X144309116Y-79973078D01*
X144362400Y-79705200D01*
X144362400Y-77585704D01*
X144424938Y-77523275D01*
X144562243Y-77192606D01*
X144562556Y-76834564D01*
X144425828Y-76503657D01*
X144172875Y-76250262D01*
X143842206Y-76112957D01*
X143484164Y-76112644D01*
X143153257Y-76249372D01*
X142899862Y-76502325D01*
X142762557Y-76832994D01*
X142762244Y-77191036D01*
X142898972Y-77521943D01*
X142962400Y-77585482D01*
X142962400Y-79288921D01*
X142696057Y-79398972D01*
X142442662Y-79651925D01*
X142305357Y-79982594D01*
X142305044Y-80340636D01*
X136713564Y-80340636D01*
X136069390Y-79696462D01*
X136122059Y-79661269D01*
X137108573Y-78674755D01*
X137338236Y-78674956D01*
X137669143Y-78538228D01*
X137922538Y-78285275D01*
X138059843Y-77954606D01*
X138060156Y-77596564D01*
X137923428Y-77265657D01*
X137670475Y-77012262D01*
X137635174Y-76997604D01*
X137770138Y-76862875D01*
X137907443Y-76532206D01*
X137907756Y-76174164D01*
X137771028Y-75843257D01*
X137650276Y-75722294D01*
X148774183Y-75722294D01*
X149078004Y-76457596D01*
X149640085Y-77020659D01*
X150374856Y-77325762D01*
X151170454Y-77326457D01*
X151905756Y-77022636D01*
X152468819Y-76460555D01*
X152773922Y-75725784D01*
X152774617Y-74930186D01*
X152470796Y-74194884D01*
X151908715Y-73631821D01*
X151173944Y-73326718D01*
X150378346Y-73326023D01*
X149643044Y-73629844D01*
X149079981Y-74191925D01*
X148774878Y-74926696D01*
X148774183Y-75722294D01*
X137650276Y-75722294D01*
X137518075Y-75589862D01*
X137187406Y-75452557D01*
X136829364Y-75452244D01*
X136498457Y-75588972D01*
X136245062Y-75841925D01*
X136107757Y-76172594D01*
X136107555Y-76403917D01*
X134274478Y-78236994D01*
X130060845Y-78236994D01*
X130165339Y-78193818D01*
X130418734Y-77940865D01*
X130556039Y-77610196D01*
X130556307Y-77303702D01*
X133034802Y-77303702D01*
X133162537Y-77612844D01*
X133415490Y-77866239D01*
X133746159Y-78003544D01*
X134104201Y-78003857D01*
X134435108Y-77867129D01*
X134688503Y-77614176D01*
X134825808Y-77283507D01*
X134826121Y-76925465D01*
X134779027Y-76811488D01*
X134867810Y-76793828D01*
X135062464Y-76663764D01*
X136771464Y-74954764D01*
X136901528Y-74760110D01*
X136947200Y-74530500D01*
X136947200Y-73751092D01*
X137109738Y-73588838D01*
X137247043Y-73258169D01*
X137247356Y-72900127D01*
X137110628Y-72569220D01*
X136857675Y-72315825D01*
X136527006Y-72178520D01*
X136168964Y-72178207D01*
X135838057Y-72314935D01*
X135584662Y-72567888D01*
X135447357Y-72898557D01*
X135447044Y-73256599D01*
X135583772Y-73587506D01*
X135747200Y-73751220D01*
X135747200Y-74281972D01*
X135694569Y-74334603D01*
X135688228Y-74319257D01*
X135435275Y-74065862D01*
X135104606Y-73928557D01*
X134746564Y-73928244D01*
X134415657Y-74064972D01*
X134162262Y-74317925D01*
X134024957Y-74648594D01*
X134024755Y-74879917D01*
X133665183Y-75239489D01*
X123684927Y-75239489D01*
X123533105Y-75269688D01*
X123528995Y-75259741D01*
X123276042Y-75006346D01*
X122945373Y-74869041D01*
X122587331Y-74868728D01*
X122259377Y-75004236D01*
X122138210Y-74923274D01*
X121908600Y-74877602D01*
X117295417Y-74877602D01*
X117091555Y-74673740D01*
X116896901Y-74543676D01*
X116667291Y-74498004D01*
X112513294Y-74498004D01*
X112396138Y-74521308D01*
X112091033Y-74216203D01*
X112224297Y-74271539D01*
X112582339Y-74271852D01*
X112913246Y-74135124D01*
X113166641Y-73882171D01*
X113209994Y-73777764D01*
X113476041Y-73888236D01*
X113834083Y-73888549D01*
X114164990Y-73751821D01*
X114228841Y-73688082D01*
X114249393Y-73708670D01*
X114580062Y-73845975D01*
X114938104Y-73846288D01*
X115233721Y-73724142D01*
X115433780Y-73924550D01*
X115764449Y-74061855D01*
X116122491Y-74062168D01*
X116453398Y-73925440D01*
X116460182Y-73918667D01*
X116673090Y-74131947D01*
X117003759Y-74269252D01*
X117361801Y-74269565D01*
X117692708Y-74132837D01*
X117946103Y-73879884D01*
X117968145Y-73826802D01*
X118501789Y-74360446D01*
X118696443Y-74490510D01*
X118926053Y-74536182D01*
X121636435Y-74536182D01*
X121798689Y-74698720D01*
X122129358Y-74836025D01*
X122487400Y-74836338D01*
X122818307Y-74699610D01*
X123071702Y-74446657D01*
X123209007Y-74115988D01*
X123209320Y-73757946D01*
X123072592Y-73427039D01*
X122866133Y-73220219D01*
X122887351Y-73169119D01*
X122887664Y-72811077D01*
X122750936Y-72480170D01*
X122560886Y-72289788D01*
X122541836Y-72194018D01*
X122411772Y-71999364D01*
X120610307Y-70197899D01*
X120712603Y-69951543D01*
X120733329Y-69951561D01*
X120790806Y-69927812D01*
X120993188Y-70130547D01*
X121323857Y-70267852D01*
X121681899Y-70268165D01*
X122012806Y-70131437D01*
X122258419Y-69886252D01*
X122606236Y-69886556D01*
X122937143Y-69749828D01*
X123190538Y-69496875D01*
X123229815Y-69402286D01*
X123416594Y-69479843D01*
X123774636Y-69480156D01*
X124105543Y-69343428D01*
X124358938Y-69090475D01*
X124496243Y-68759806D01*
X124496556Y-68401764D01*
X124359828Y-68070857D01*
X124106875Y-67817462D01*
X123776206Y-67680157D01*
X123544883Y-67679955D01*
X122242664Y-66377736D01*
X122048010Y-66247672D01*
X121818400Y-66202000D01*
X119344921Y-66202000D01*
X118914603Y-65771682D01*
X118999436Y-65771756D01*
X119330343Y-65635028D01*
X119583738Y-65382075D01*
X119610076Y-65318647D01*
X119728715Y-65437286D01*
X119968278Y-65597357D01*
X119988253Y-65610704D01*
X120294400Y-65671600D01*
X124976430Y-65671600D01*
X126062914Y-66758085D01*
X126301897Y-66917769D01*
X126322453Y-66931504D01*
X126628600Y-66992400D01*
X127138544Y-66992400D01*
X127290545Y-67055516D01*
X127399514Y-67164485D01*
X127644151Y-67327947D01*
X127659053Y-67337904D01*
X127965200Y-67398800D01*
X129780144Y-67398800D01*
X130020594Y-67498643D01*
X130378636Y-67498956D01*
X130709543Y-67362228D01*
X130962938Y-67109275D01*
X130998212Y-67024325D01*
X131011772Y-67057143D01*
X131264725Y-67310538D01*
X131327600Y-67336646D01*
X131327600Y-72682471D01*
X131165062Y-72844725D01*
X131027757Y-73175394D01*
X131027444Y-73533436D01*
X131164172Y-73864343D01*
X131417125Y-74117738D01*
X131747794Y-74255043D01*
X132105836Y-74255356D01*
X132436743Y-74118628D01*
X132690138Y-73865675D01*
X132827443Y-73535006D01*
X132827756Y-73176964D01*
X132691028Y-72846057D01*
X132527600Y-72682343D01*
X132527600Y-67068595D01*
X132537738Y-67058475D01*
X132603313Y-66900550D01*
X139861605Y-66900550D01*
X139929251Y-67117079D01*
X140389186Y-67318371D01*
X140891142Y-67328331D01*
X141358700Y-67145443D01*
X141401149Y-67117079D01*
X141468795Y-66900550D01*
X140665200Y-66096955D01*
X139861605Y-66900550D01*
X132603313Y-66900550D01*
X132675043Y-66727806D01*
X132675356Y-66369764D01*
X132641383Y-66287542D01*
X139398469Y-66287542D01*
X139581357Y-66755100D01*
X139609721Y-66797549D01*
X139826250Y-66865195D01*
X140629845Y-66061600D01*
X140700555Y-66061600D01*
X141504150Y-66865195D01*
X141720679Y-66797549D01*
X141921971Y-66337614D01*
X141931931Y-65835658D01*
X141749043Y-65368100D01*
X141720679Y-65325651D01*
X141504150Y-65258005D01*
X140700555Y-66061600D01*
X140629845Y-66061600D01*
X139826250Y-65258005D01*
X139609721Y-65325651D01*
X139408429Y-65785586D01*
X139398469Y-66287542D01*
X132641383Y-66287542D01*
X132538628Y-66038857D01*
X132285675Y-65785462D01*
X131955006Y-65648157D01*
X131596964Y-65647844D01*
X131266057Y-65784572D01*
X131012662Y-66037525D01*
X130977388Y-66122475D01*
X130963828Y-66089657D01*
X130710875Y-65836262D01*
X130380206Y-65698957D01*
X130033499Y-65698654D01*
X130033756Y-65404564D01*
X129958591Y-65222650D01*
X139861605Y-65222650D01*
X140665200Y-66026245D01*
X141468795Y-65222650D01*
X141401149Y-65006121D01*
X140941214Y-64804829D01*
X140439258Y-64794869D01*
X139971700Y-64977757D01*
X139929251Y-65006121D01*
X139861605Y-65222650D01*
X129958591Y-65222650D01*
X129897028Y-65073657D01*
X129644075Y-64820262D01*
X129383797Y-64712186D01*
X129526958Y-64569275D01*
X129664263Y-64238606D01*
X129664576Y-63880564D01*
X129527848Y-63549657D01*
X129376400Y-63397944D01*
X129376400Y-61311526D01*
X139402981Y-61311526D01*
X139594705Y-61775532D01*
X139949401Y-62130848D01*
X140413071Y-62323380D01*
X140915126Y-62323819D01*
X141379132Y-62132095D01*
X141734448Y-61777399D01*
X141926980Y-61313729D01*
X141927419Y-60811674D01*
X141735695Y-60347668D01*
X141380999Y-59992352D01*
X140917329Y-59799820D01*
X140415274Y-59799381D01*
X139951268Y-59991105D01*
X139595952Y-60345801D01*
X139403420Y-60809471D01*
X139402981Y-61311526D01*
X129376400Y-61311526D01*
X129376400Y-61115074D01*
X129438938Y-61052645D01*
X129576243Y-60721976D01*
X129576556Y-60363934D01*
X129439828Y-60033027D01*
X129186875Y-59779632D01*
X128856206Y-59642327D01*
X128498164Y-59642014D01*
X128167257Y-59778742D01*
X127913862Y-60031695D01*
X127776557Y-60362364D01*
X127776244Y-60720406D01*
X127912972Y-61051313D01*
X127976400Y-61114852D01*
X127976400Y-61528926D01*
X127937589Y-61512810D01*
X127579547Y-61512497D01*
X127248640Y-61649225D01*
X126995245Y-61902178D01*
X126857940Y-62232847D01*
X126857627Y-62590889D01*
X126994355Y-62921796D01*
X127153184Y-63080903D01*
X127180358Y-63217515D01*
X127247463Y-63317945D01*
X127136172Y-63317848D01*
X127044043Y-63355915D01*
X126375955Y-62687827D01*
X126376156Y-62458164D01*
X126239428Y-62127257D01*
X125986475Y-61873862D01*
X125655806Y-61736557D01*
X125297764Y-61736244D01*
X124966857Y-61872972D01*
X124713462Y-62125925D01*
X124576157Y-62456594D01*
X124575844Y-62814636D01*
X124712572Y-63145543D01*
X124965525Y-63398938D01*
X125296194Y-63536243D01*
X125527517Y-63536445D01*
X126433221Y-64442149D01*
X126550980Y-64727147D01*
X126803933Y-64980542D01*
X127134602Y-65117847D01*
X127492644Y-65118160D01*
X127699574Y-65032658D01*
X128233614Y-65566697D01*
X128233590Y-65594464D01*
X128069275Y-65429862D01*
X127738606Y-65292557D01*
X127380564Y-65292244D01*
X127138168Y-65392400D01*
X126959971Y-65392400D01*
X125873485Y-64305915D01*
X125613947Y-64132496D01*
X125588976Y-64127529D01*
X125307800Y-64071600D01*
X120625771Y-64071600D01*
X120047285Y-63493115D01*
X115970970Y-59416800D01*
X172282000Y-59416800D01*
X172282000Y-77887344D01*
X172282000Y-77887344D01*
G37*
X172282000Y-77887344D02*
X170652272Y-79517072D01*
X170392145Y-79906380D01*
X170300800Y-80365600D01*
X170300800Y-80924400D01*
X170392145Y-81383620D01*
X170652272Y-81772928D01*
X171041580Y-82033055D01*
X171500800Y-82124400D01*
X171960020Y-82033055D01*
X172349328Y-81772928D01*
X172609455Y-81383620D01*
X172700800Y-80924400D01*
X172700800Y-80862656D01*
X174330528Y-79232928D01*
X174494500Y-78987526D01*
X174494500Y-85812772D01*
X167672029Y-78990301D01*
X167672029Y-78456128D01*
X167737585Y-78521799D01*
X168472356Y-78826902D01*
X169267954Y-78827597D01*
X170003256Y-78523776D01*
X170566319Y-77961695D01*
X170871422Y-77226924D01*
X170872117Y-76431326D01*
X170568296Y-75696024D01*
X170006215Y-75132961D01*
X169271444Y-74827858D01*
X168475846Y-74827163D01*
X167740544Y-75130984D01*
X167672029Y-75199380D01*
X167672029Y-68431299D01*
X169835863Y-66267465D01*
X169965927Y-66072811D01*
X170011599Y-65843201D01*
X170011599Y-62375999D01*
X169965927Y-62146389D01*
X169911522Y-62064967D01*
X169911756Y-61797764D01*
X169775028Y-61466857D01*
X169522075Y-61213462D01*
X169191406Y-61076157D01*
X168833364Y-61075844D01*
X168502457Y-61212572D01*
X168249062Y-61465525D01*
X168111757Y-61796194D01*
X168111444Y-62154236D01*
X168248172Y-62485143D01*
X168501125Y-62738538D01*
X168811599Y-62867457D01*
X168811599Y-63297254D01*
X168658475Y-63143862D01*
X168327806Y-63006557D01*
X168133588Y-63006387D01*
X168133756Y-62813764D01*
X167997028Y-62482857D01*
X167744075Y-62229462D01*
X167413406Y-62092157D01*
X167055364Y-62091844D01*
X166724457Y-62228572D01*
X166471062Y-62481525D01*
X166333757Y-62812194D01*
X166333555Y-63043517D01*
X165447732Y-63929340D01*
X165317668Y-64123994D01*
X165271996Y-64353604D01*
X165271996Y-79816796D01*
X165317668Y-80046406D01*
X165447732Y-80241060D01*
X172272400Y-87065728D01*
X172272400Y-112883072D01*
X170541072Y-114614400D01*
X119984128Y-114614400D01*
X118408850Y-113039122D01*
X118408850Y-106121014D01*
X148774183Y-106121014D01*
X149078004Y-106856316D01*
X149640085Y-107419379D01*
X150374856Y-107724482D01*
X151170454Y-107725177D01*
X151905756Y-107421356D01*
X152468819Y-106859275D01*
X152773922Y-106124504D01*
X152774617Y-105328906D01*
X152481651Y-104619874D01*
X166871683Y-104619874D01*
X167175504Y-105355176D01*
X167737585Y-105918239D01*
X168472356Y-106223342D01*
X169267954Y-106224037D01*
X170003256Y-105920216D01*
X170566319Y-105358135D01*
X170871422Y-104623364D01*
X170872117Y-103827766D01*
X170568296Y-103092464D01*
X170006215Y-102529401D01*
X169271444Y-102224298D01*
X168475846Y-102223603D01*
X167740544Y-102527424D01*
X167177481Y-103089505D01*
X166872378Y-103824276D01*
X166871683Y-104619874D01*
X152481651Y-104619874D01*
X152470796Y-104593604D01*
X151908715Y-104030541D01*
X151173944Y-103725438D01*
X150378346Y-103724743D01*
X149643044Y-104028564D01*
X149079981Y-104590645D01*
X148774878Y-105325416D01*
X148774183Y-106121014D01*
X118408850Y-106121014D01*
X118408850Y-105234560D01*
X125743361Y-105234560D01*
X125880089Y-105565467D01*
X126133042Y-105818862D01*
X126463711Y-105956167D01*
X126821753Y-105956480D01*
X127152660Y-105819752D01*
X127406055Y-105566799D01*
X127543360Y-105236130D01*
X127543531Y-105040194D01*
X127935134Y-104648591D01*
X128856236Y-104648591D01*
X128993534Y-104786129D01*
X129324203Y-104923434D01*
X129682245Y-104923747D01*
X130013152Y-104787019D01*
X130266547Y-104534066D01*
X130403852Y-104203397D01*
X130404165Y-103845355D01*
X130267437Y-103514448D01*
X130014484Y-103261053D01*
X129683815Y-103123748D01*
X129325773Y-103123435D01*
X128994866Y-103260163D01*
X128856196Y-103398591D01*
X127676250Y-103398591D01*
X127437073Y-103446166D01*
X127234308Y-103581649D01*
X126659619Y-104156338D01*
X126465281Y-104156168D01*
X126134374Y-104292896D01*
X125880979Y-104545849D01*
X125743674Y-104876518D01*
X125743361Y-105234560D01*
X118408850Y-105234560D01*
X118408850Y-104588078D01*
X121277464Y-101719464D01*
X121407528Y-101524810D01*
X121453200Y-101295200D01*
X121453200Y-99224729D01*
X121615738Y-99062475D01*
X121753043Y-98731806D01*
X121753342Y-98390000D01*
X124955671Y-98390000D01*
X125117925Y-98552538D01*
X125448594Y-98689843D01*
X125806636Y-98690156D01*
X126137543Y-98553428D01*
X126390938Y-98300475D01*
X126528243Y-97969806D01*
X126528556Y-97611764D01*
X126391828Y-97280857D01*
X126138875Y-97027462D01*
X125808206Y-96890157D01*
X125450164Y-96889844D01*
X125119257Y-97026572D01*
X124955543Y-97190000D01*
X122755343Y-97190000D01*
X122769043Y-97157006D01*
X122769356Y-96798964D01*
X122632628Y-96468057D01*
X122379675Y-96214662D01*
X122049006Y-96077357D01*
X121690964Y-96077044D01*
X121360057Y-96213772D01*
X121196343Y-96377200D01*
X117246400Y-96377200D01*
X117016790Y-96422872D01*
X116822136Y-96552936D01*
X115881560Y-97493512D01*
X115881663Y-97375343D01*
X115744935Y-97044436D01*
X115491982Y-96791041D01*
X115161313Y-96653736D01*
X114803271Y-96653423D01*
X114472364Y-96790151D01*
X114281982Y-96980201D01*
X114186212Y-96999251D01*
X113991558Y-97129315D01*
X113973566Y-97147307D01*
X109039043Y-97147307D01*
X108833089Y-97188274D01*
X108833089Y-96643789D01*
X108787417Y-96414178D01*
X108657353Y-96219525D01*
X108424606Y-95986778D01*
X108564796Y-95928852D01*
X108818191Y-95675899D01*
X108955496Y-95345230D01*
X108955809Y-94987188D01*
X108819081Y-94656281D01*
X108655653Y-94492567D01*
X108655653Y-94357780D01*
X108609981Y-94128170D01*
X108479917Y-93933516D01*
X107536815Y-92990414D01*
X107492766Y-92960981D01*
X107546850Y-92830731D01*
X107547163Y-92472689D01*
X107410435Y-92141782D01*
X107157482Y-91888387D01*
X106826813Y-91751082D01*
X106468771Y-91750769D01*
X106137864Y-91887497D01*
X106113673Y-91911645D01*
X105308166Y-91106138D01*
X105113512Y-90976074D01*
X104883902Y-90930402D01*
X104814526Y-90930402D01*
X103754118Y-89869994D01*
X103754118Y-89830811D01*
X103916656Y-89668557D01*
X104053961Y-89337888D01*
X104053994Y-89300022D01*
X106319825Y-91565853D01*
X106514479Y-91695917D01*
X106744089Y-91741589D01*
X107685220Y-91741589D01*
X107742613Y-91779938D01*
X107838657Y-91799042D01*
X108027433Y-91988148D01*
X108358102Y-92125453D01*
X108716144Y-92125766D01*
X109047051Y-91989038D01*
X109300446Y-91736085D01*
X109437751Y-91405416D01*
X109437996Y-91125600D01*
X122046406Y-91125600D01*
X129185870Y-98265064D01*
X129380524Y-98395128D01*
X129610134Y-98440800D01*
X132118471Y-98440800D01*
X132280725Y-98603338D01*
X132611394Y-98740643D01*
X132969436Y-98740956D01*
X133300343Y-98604228D01*
X133553738Y-98351275D01*
X133691043Y-98020606D01*
X133691356Y-97662564D01*
X133554628Y-97331657D01*
X133301675Y-97078262D01*
X132971006Y-96940957D01*
X132612964Y-96940644D01*
X132282057Y-97077372D01*
X132118343Y-97240800D01*
X129858662Y-97240800D01*
X122719198Y-90101336D01*
X122524544Y-89971272D01*
X122294934Y-89925600D01*
X106942328Y-89925600D01*
X105995950Y-88979222D01*
X110724075Y-88979222D01*
X110998786Y-89253933D01*
X111193440Y-89383997D01*
X111423050Y-89429669D01*
X113912887Y-89429669D01*
X114046695Y-89456285D01*
X115381453Y-89456285D01*
X115611063Y-89410613D01*
X115805717Y-89280549D01*
X115808999Y-89277267D01*
X119339801Y-89277267D01*
X119663453Y-89600919D01*
X119858107Y-89730983D01*
X120087717Y-89776655D01*
X124010227Y-89776655D01*
X130263436Y-96029864D01*
X130458090Y-96159928D01*
X130687700Y-96205600D01*
X136284071Y-96205600D01*
X136446325Y-96368138D01*
X136776994Y-96505443D01*
X137135036Y-96505756D01*
X137465943Y-96369028D01*
X137719338Y-96116075D01*
X137856643Y-95785406D01*
X137856956Y-95427364D01*
X137720228Y-95096457D01*
X137506535Y-94882390D01*
X152264177Y-94882390D01*
X152539442Y-95548583D01*
X153048696Y-96058727D01*
X153714408Y-96335154D01*
X154435230Y-96335783D01*
X155101423Y-96060518D01*
X155611567Y-95551264D01*
X155887994Y-94885552D01*
X155887996Y-94882390D01*
X160260097Y-94882390D01*
X160535362Y-95548583D01*
X161044616Y-96058727D01*
X161710328Y-96335154D01*
X162431150Y-96335783D01*
X163097343Y-96060518D01*
X163607487Y-95551264D01*
X163883914Y-94885552D01*
X163884543Y-94164730D01*
X163609278Y-93498537D01*
X163100024Y-92988393D01*
X162434312Y-92711966D01*
X161713490Y-92711337D01*
X161047297Y-92986602D01*
X160537153Y-93495856D01*
X160260726Y-94161568D01*
X160260097Y-94882390D01*
X155887996Y-94882390D01*
X155888623Y-94164730D01*
X155613358Y-93498537D01*
X155104104Y-92988393D01*
X154851277Y-92883410D01*
X156262137Y-92883410D01*
X156537402Y-93549603D01*
X157046656Y-94059747D01*
X157712368Y-94336174D01*
X158433190Y-94336803D01*
X159099383Y-94061538D01*
X159609527Y-93552284D01*
X159885954Y-92886572D01*
X159886583Y-92165750D01*
X159719375Y-91761075D01*
X160872200Y-91761075D01*
X161006766Y-92034742D01*
X161665400Y-92327635D01*
X162385983Y-92346184D01*
X163058815Y-92087566D01*
X163137874Y-92034742D01*
X163272440Y-91761075D01*
X162072320Y-90560955D01*
X160872200Y-91761075D01*
X159719375Y-91761075D01*
X159611318Y-91499557D01*
X159102064Y-90989413D01*
X158740462Y-90839263D01*
X160251736Y-90839263D01*
X160510354Y-91512095D01*
X160563178Y-91591154D01*
X160836845Y-91725720D01*
X162036965Y-90525600D01*
X162107675Y-90525600D01*
X163307795Y-91725720D01*
X163581462Y-91591154D01*
X163874355Y-90932520D01*
X163892904Y-90211937D01*
X163634286Y-89539105D01*
X163581462Y-89460046D01*
X163307795Y-89325480D01*
X162107675Y-90525600D01*
X162036965Y-90525600D01*
X160836845Y-89325480D01*
X160563178Y-89460046D01*
X160270285Y-90118680D01*
X160251736Y-90839263D01*
X158740462Y-90839263D01*
X158436352Y-90712986D01*
X157715530Y-90712357D01*
X157049337Y-90987622D01*
X156539193Y-91496876D01*
X156262766Y-92162588D01*
X156262137Y-92883410D01*
X154851277Y-92883410D01*
X154438392Y-92711966D01*
X153717570Y-92711337D01*
X153051377Y-92986602D01*
X152541233Y-93495856D01*
X152264806Y-94161568D01*
X152264177Y-94882390D01*
X137506535Y-94882390D01*
X137467275Y-94843062D01*
X137136606Y-94705757D01*
X136778564Y-94705444D01*
X136447657Y-94842172D01*
X136283943Y-95005600D01*
X135773859Y-95005600D01*
X135774156Y-94665364D01*
X135637428Y-94334457D01*
X135384475Y-94081062D01*
X135053806Y-93943757D01*
X134695764Y-93943444D01*
X134364857Y-94080172D01*
X134201143Y-94243600D01*
X130739928Y-94243600D01*
X130370990Y-93874662D01*
X130735681Y-93874662D01*
X130897935Y-94037200D01*
X131228604Y-94174505D01*
X131586646Y-94174818D01*
X131917553Y-94038090D01*
X132170948Y-93785137D01*
X132308253Y-93454468D01*
X132308566Y-93096426D01*
X132171838Y-92765519D01*
X131918885Y-92512124D01*
X131588216Y-92374819D01*
X131230174Y-92374506D01*
X130899267Y-92511234D01*
X130735553Y-92674662D01*
X129736690Y-92674662D01*
X128375464Y-91313436D01*
X136717044Y-91313436D01*
X136853772Y-91644343D01*
X137106725Y-91897738D01*
X137437394Y-92035043D01*
X137795436Y-92035356D01*
X138126343Y-91898628D01*
X138290057Y-91735200D01*
X148120559Y-91735200D01*
X148333525Y-91948538D01*
X148664194Y-92085843D01*
X149022236Y-92086156D01*
X149353143Y-91949428D01*
X149606538Y-91696475D01*
X149743843Y-91365806D01*
X149744156Y-91007764D01*
X149693196Y-90884430D01*
X152264177Y-90884430D01*
X152539442Y-91550623D01*
X153048696Y-92060767D01*
X153714408Y-92337194D01*
X154435230Y-92337823D01*
X155101423Y-92062558D01*
X155611567Y-91553304D01*
X155887994Y-90887592D01*
X155888623Y-90166770D01*
X155613358Y-89500577D01*
X155104104Y-88990433D01*
X154851277Y-88885450D01*
X156262137Y-88885450D01*
X156537402Y-89551643D01*
X157046656Y-90061787D01*
X157712368Y-90338214D01*
X158433190Y-90338843D01*
X159099383Y-90063578D01*
X159609527Y-89554324D01*
X159719231Y-89290125D01*
X160872200Y-89290125D01*
X162072320Y-90490245D01*
X163272440Y-89290125D01*
X163137874Y-89016458D01*
X162479240Y-88723565D01*
X161758657Y-88705016D01*
X161085825Y-88963634D01*
X161006766Y-89016458D01*
X160872200Y-89290125D01*
X159719231Y-89290125D01*
X159885954Y-88888612D01*
X159886583Y-88167790D01*
X159611318Y-87501597D01*
X159102064Y-86991453D01*
X158436352Y-86715026D01*
X157715530Y-86714397D01*
X157049337Y-86989662D01*
X156539193Y-87498916D01*
X156262766Y-88164628D01*
X156262137Y-88885450D01*
X154851277Y-88885450D01*
X154438392Y-88714006D01*
X153717570Y-88713377D01*
X153051377Y-88988642D01*
X152541233Y-89497896D01*
X152264806Y-90163608D01*
X152264177Y-90884430D01*
X149693196Y-90884430D01*
X149607428Y-90676857D01*
X149354475Y-90423462D01*
X149023806Y-90286157D01*
X148665764Y-90285844D01*
X148334857Y-90422572D01*
X148222032Y-90535200D01*
X138289929Y-90535200D01*
X138127675Y-90372662D01*
X137797006Y-90235357D01*
X137438964Y-90235044D01*
X137108057Y-90371772D01*
X136854662Y-90624725D01*
X136717357Y-90955394D01*
X136717044Y-91313436D01*
X128375464Y-91313436D01*
X125014397Y-87952369D01*
X124819743Y-87822305D01*
X124590133Y-87776633D01*
X120667623Y-87776633D01*
X120343971Y-87452981D01*
X120149317Y-87322917D01*
X119919707Y-87277245D01*
X116532404Y-87277245D01*
X116559752Y-87211383D01*
X116560065Y-86853341D01*
X116423337Y-86522434D01*
X116170384Y-86269039D01*
X115839715Y-86131734D01*
X115571675Y-86131500D01*
X115487578Y-86075308D01*
X115257968Y-86029636D01*
X115056112Y-86029636D01*
X115074525Y-85985293D01*
X115074838Y-85627251D01*
X114938110Y-85296344D01*
X114732267Y-85090142D01*
X114889600Y-84932809D01*
X115485572Y-84932809D01*
X115602349Y-85215431D01*
X115855302Y-85468826D01*
X116185971Y-85606131D01*
X116544013Y-85606444D01*
X116718768Y-85534237D01*
X116913885Y-85729695D01*
X117244554Y-85867000D01*
X117602596Y-85867313D01*
X117933503Y-85730585D01*
X118186898Y-85477632D01*
X118324203Y-85146963D01*
X118324269Y-85071161D01*
X118779813Y-85071161D01*
X118904076Y-85195424D01*
X119098730Y-85325488D01*
X119194774Y-85344592D01*
X119383550Y-85533698D01*
X119714219Y-85671003D01*
X120072261Y-85671316D01*
X120403168Y-85534588D01*
X120656563Y-85281635D01*
X120672884Y-85242328D01*
X120891343Y-85460787D01*
X120891343Y-85714182D01*
X120728805Y-85876436D01*
X120591500Y-86207105D01*
X120591187Y-86565147D01*
X120727915Y-86896054D01*
X120980868Y-87149449D01*
X121311537Y-87286754D01*
X121669579Y-87287067D01*
X122000486Y-87150339D01*
X122253881Y-86897386D01*
X122391186Y-86566717D01*
X122391499Y-86208675D01*
X122254771Y-85877768D01*
X122091343Y-85714054D01*
X122091343Y-85212259D01*
X122045671Y-84982649D01*
X121915607Y-84787995D01*
X121398751Y-84271139D01*
X124846477Y-84271139D01*
X125076087Y-84225467D01*
X125270741Y-84095403D01*
X125696945Y-83669199D01*
X126784195Y-83669199D01*
X127013805Y-83623527D01*
X127208459Y-83493463D01*
X127800073Y-82901849D01*
X128029736Y-82902050D01*
X128360643Y-82765322D01*
X128439964Y-82686140D01*
X134613227Y-88859403D01*
X134613026Y-89089066D01*
X134749754Y-89419973D01*
X135002707Y-89673368D01*
X135333376Y-89810673D01*
X135691418Y-89810986D01*
X136022325Y-89674258D01*
X136275720Y-89421305D01*
X136413025Y-89090636D01*
X136413338Y-88732594D01*
X136276610Y-88401687D01*
X136056569Y-88181261D01*
X136216816Y-88021294D01*
X136354121Y-87690625D01*
X136354434Y-87332583D01*
X136217706Y-87001676D01*
X136102701Y-86886470D01*
X152264177Y-86886470D01*
X152539442Y-87552663D01*
X153048696Y-88062807D01*
X153714408Y-88339234D01*
X154435230Y-88339863D01*
X155101423Y-88064598D01*
X155611567Y-87555344D01*
X155887994Y-86889632D01*
X155888623Y-86168810D01*
X155613358Y-85502617D01*
X155326972Y-85215730D01*
X160250615Y-85215730D01*
X160250615Y-87839550D01*
X160289421Y-88034640D01*
X160399930Y-88200030D01*
X160565320Y-88310539D01*
X160760410Y-88349345D01*
X163384230Y-88349345D01*
X163579320Y-88310539D01*
X163744710Y-88200030D01*
X163855219Y-88034640D01*
X163894025Y-87839550D01*
X163894025Y-85215730D01*
X163855219Y-85020640D01*
X163744710Y-84855250D01*
X163579320Y-84744741D01*
X163384230Y-84705935D01*
X160760410Y-84705935D01*
X160565320Y-84744741D01*
X160399930Y-84855250D01*
X160289421Y-85020640D01*
X160250615Y-85215730D01*
X155326972Y-85215730D01*
X155104104Y-84992473D01*
X154438392Y-84716046D01*
X153717570Y-84715417D01*
X153051377Y-84990682D01*
X152541233Y-85499936D01*
X152264806Y-86165648D01*
X152264177Y-86886470D01*
X136102701Y-86886470D01*
X135964753Y-86748281D01*
X135634084Y-86610976D01*
X135402761Y-86610774D01*
X129829025Y-81037038D01*
X131777228Y-81037038D01*
X136377173Y-85636983D01*
X136376972Y-85866646D01*
X136513700Y-86197553D01*
X136766653Y-86450948D01*
X137097322Y-86588253D01*
X137455364Y-86588566D01*
X137786271Y-86451838D01*
X138039666Y-86198885D01*
X138176971Y-85868216D01*
X138177284Y-85510174D01*
X138040556Y-85179267D01*
X137787603Y-84925872D01*
X137456934Y-84788567D01*
X137225611Y-84788365D01*
X137116922Y-84679676D01*
X137445725Y-84543818D01*
X137699120Y-84290865D01*
X137836425Y-83960196D01*
X137836738Y-83602154D01*
X137700010Y-83271247D01*
X137447057Y-83017852D01*
X137116388Y-82880547D01*
X136885065Y-82880345D01*
X134241736Y-80237016D01*
X134912888Y-80237016D01*
X136310845Y-81634973D01*
X136310644Y-81864636D01*
X136447372Y-82195543D01*
X136700325Y-82448938D01*
X137030994Y-82586243D01*
X137389036Y-82586556D01*
X137719943Y-82449828D01*
X137973338Y-82196875D01*
X138110643Y-81866206D01*
X138110956Y-81508164D01*
X137974228Y-81177257D01*
X137721275Y-80923862D01*
X137390606Y-80786557D01*
X137159283Y-80786355D01*
X136713564Y-80340636D01*
X142305044Y-80340636D01*
X142441772Y-80671543D01*
X142694725Y-80924938D01*
X143025394Y-81062243D01*
X143383436Y-81062556D01*
X143714343Y-80925828D01*
X143967738Y-80672875D01*
X144105043Y-80342206D01*
X144105121Y-80252428D01*
X144157372Y-80200177D01*
X144157375Y-80200175D01*
X144309116Y-79973078D01*
X144362400Y-79705200D01*
X144362400Y-77585704D01*
X144424938Y-77523275D01*
X144562243Y-77192606D01*
X144562556Y-76834564D01*
X144425828Y-76503657D01*
X144172875Y-76250262D01*
X143842206Y-76112957D01*
X143484164Y-76112644D01*
X143153257Y-76249372D01*
X142899862Y-76502325D01*
X142762557Y-76832994D01*
X142762244Y-77191036D01*
X142898972Y-77521943D01*
X142962400Y-77585482D01*
X142962400Y-79288921D01*
X142696057Y-79398972D01*
X142442662Y-79651925D01*
X142305357Y-79982594D01*
X142305044Y-80340636D01*
X136713564Y-80340636D01*
X136069390Y-79696462D01*
X136122059Y-79661269D01*
X137108573Y-78674755D01*
X137338236Y-78674956D01*
X137669143Y-78538228D01*
X137922538Y-78285275D01*
X138059843Y-77954606D01*
X138060156Y-77596564D01*
X137923428Y-77265657D01*
X137670475Y-77012262D01*
X137635174Y-76997604D01*
X137770138Y-76862875D01*
X137907443Y-76532206D01*
X137907756Y-76174164D01*
X137771028Y-75843257D01*
X137650276Y-75722294D01*
X148774183Y-75722294D01*
X149078004Y-76457596D01*
X149640085Y-77020659D01*
X150374856Y-77325762D01*
X151170454Y-77326457D01*
X151905756Y-77022636D01*
X152468819Y-76460555D01*
X152773922Y-75725784D01*
X152774617Y-74930186D01*
X152470796Y-74194884D01*
X151908715Y-73631821D01*
X151173944Y-73326718D01*
X150378346Y-73326023D01*
X149643044Y-73629844D01*
X149079981Y-74191925D01*
X148774878Y-74926696D01*
X148774183Y-75722294D01*
X137650276Y-75722294D01*
X137518075Y-75589862D01*
X137187406Y-75452557D01*
X136829364Y-75452244D01*
X136498457Y-75588972D01*
X136245062Y-75841925D01*
X136107757Y-76172594D01*
X136107555Y-76403917D01*
X134274478Y-78236994D01*
X130060845Y-78236994D01*
X130165339Y-78193818D01*
X130418734Y-77940865D01*
X130556039Y-77610196D01*
X130556307Y-77303702D01*
X133034802Y-77303702D01*
X133162537Y-77612844D01*
X133415490Y-77866239D01*
X133746159Y-78003544D01*
X134104201Y-78003857D01*
X134435108Y-77867129D01*
X134688503Y-77614176D01*
X134825808Y-77283507D01*
X134826121Y-76925465D01*
X134779027Y-76811488D01*
X134867810Y-76793828D01*
X135062464Y-76663764D01*
X136771464Y-74954764D01*
X136901528Y-74760110D01*
X136947200Y-74530500D01*
X136947200Y-73751092D01*
X137109738Y-73588838D01*
X137247043Y-73258169D01*
X137247356Y-72900127D01*
X137110628Y-72569220D01*
X136857675Y-72315825D01*
X136527006Y-72178520D01*
X136168964Y-72178207D01*
X135838057Y-72314935D01*
X135584662Y-72567888D01*
X135447357Y-72898557D01*
X135447044Y-73256599D01*
X135583772Y-73587506D01*
X135747200Y-73751220D01*
X135747200Y-74281972D01*
X135694569Y-74334603D01*
X135688228Y-74319257D01*
X135435275Y-74065862D01*
X135104606Y-73928557D01*
X134746564Y-73928244D01*
X134415657Y-74064972D01*
X134162262Y-74317925D01*
X134024957Y-74648594D01*
X134024755Y-74879917D01*
X133665183Y-75239489D01*
X123684927Y-75239489D01*
X123533105Y-75269688D01*
X123528995Y-75259741D01*
X123276042Y-75006346D01*
X122945373Y-74869041D01*
X122587331Y-74868728D01*
X122259377Y-75004236D01*
X122138210Y-74923274D01*
X121908600Y-74877602D01*
X117295417Y-74877602D01*
X117091555Y-74673740D01*
X116896901Y-74543676D01*
X116667291Y-74498004D01*
X112513294Y-74498004D01*
X112396138Y-74521308D01*
X112091033Y-74216203D01*
X112224297Y-74271539D01*
X112582339Y-74271852D01*
X112913246Y-74135124D01*
X113166641Y-73882171D01*
X113209994Y-73777764D01*
X113476041Y-73888236D01*
X113834083Y-73888549D01*
X114164990Y-73751821D01*
X114228841Y-73688082D01*
X114249393Y-73708670D01*
X114580062Y-73845975D01*
X114938104Y-73846288D01*
X115233721Y-73724142D01*
X115433780Y-73924550D01*
X115764449Y-74061855D01*
X116122491Y-74062168D01*
X116453398Y-73925440D01*
X116460182Y-73918667D01*
X116673090Y-74131947D01*
X117003759Y-74269252D01*
X117361801Y-74269565D01*
X117692708Y-74132837D01*
X117946103Y-73879884D01*
X117968145Y-73826802D01*
X118501789Y-74360446D01*
X118696443Y-74490510D01*
X118926053Y-74536182D01*
X121636435Y-74536182D01*
X121798689Y-74698720D01*
X122129358Y-74836025D01*
X122487400Y-74836338D01*
X122818307Y-74699610D01*
X123071702Y-74446657D01*
X123209007Y-74115988D01*
X123209320Y-73757946D01*
X123072592Y-73427039D01*
X122866133Y-73220219D01*
X122887351Y-73169119D01*
X122887664Y-72811077D01*
X122750936Y-72480170D01*
X122560886Y-72289788D01*
X122541836Y-72194018D01*
X122411772Y-71999364D01*
X120610307Y-70197899D01*
X120712603Y-69951543D01*
X120733329Y-69951561D01*
X120790806Y-69927812D01*
X120993188Y-70130547D01*
X121323857Y-70267852D01*
X121681899Y-70268165D01*
X122012806Y-70131437D01*
X122258419Y-69886252D01*
X122606236Y-69886556D01*
X122937143Y-69749828D01*
X123190538Y-69496875D01*
X123229815Y-69402286D01*
X123416594Y-69479843D01*
X123774636Y-69480156D01*
X124105543Y-69343428D01*
X124358938Y-69090475D01*
X124496243Y-68759806D01*
X124496556Y-68401764D01*
X124359828Y-68070857D01*
X124106875Y-67817462D01*
X123776206Y-67680157D01*
X123544883Y-67679955D01*
X122242664Y-66377736D01*
X122048010Y-66247672D01*
X121818400Y-66202000D01*
X119344921Y-66202000D01*
X118914603Y-65771682D01*
X118999436Y-65771756D01*
X119330343Y-65635028D01*
X119583738Y-65382075D01*
X119610076Y-65318647D01*
X119728715Y-65437286D01*
X119968278Y-65597357D01*
X119988253Y-65610704D01*
X120294400Y-65671600D01*
X124976430Y-65671600D01*
X126062914Y-66758085D01*
X126301897Y-66917769D01*
X126322453Y-66931504D01*
X126628600Y-66992400D01*
X127138544Y-66992400D01*
X127290545Y-67055516D01*
X127399514Y-67164485D01*
X127644151Y-67327947D01*
X127659053Y-67337904D01*
X127965200Y-67398800D01*
X129780144Y-67398800D01*
X130020594Y-67498643D01*
X130378636Y-67498956D01*
X130709543Y-67362228D01*
X130962938Y-67109275D01*
X130998212Y-67024325D01*
X131011772Y-67057143D01*
X131264725Y-67310538D01*
X131327600Y-67336646D01*
X131327600Y-72682471D01*
X131165062Y-72844725D01*
X131027757Y-73175394D01*
X131027444Y-73533436D01*
X131164172Y-73864343D01*
X131417125Y-74117738D01*
X131747794Y-74255043D01*
X132105836Y-74255356D01*
X132436743Y-74118628D01*
X132690138Y-73865675D01*
X132827443Y-73535006D01*
X132827756Y-73176964D01*
X132691028Y-72846057D01*
X132527600Y-72682343D01*
X132527600Y-67068595D01*
X132537738Y-67058475D01*
X132603313Y-66900550D01*
X139861605Y-66900550D01*
X139929251Y-67117079D01*
X140389186Y-67318371D01*
X140891142Y-67328331D01*
X141358700Y-67145443D01*
X141401149Y-67117079D01*
X141468795Y-66900550D01*
X140665200Y-66096955D01*
X139861605Y-66900550D01*
X132603313Y-66900550D01*
X132675043Y-66727806D01*
X132675356Y-66369764D01*
X132641383Y-66287542D01*
X139398469Y-66287542D01*
X139581357Y-66755100D01*
X139609721Y-66797549D01*
X139826250Y-66865195D01*
X140629845Y-66061600D01*
X140700555Y-66061600D01*
X141504150Y-66865195D01*
X141720679Y-66797549D01*
X141921971Y-66337614D01*
X141931931Y-65835658D01*
X141749043Y-65368100D01*
X141720679Y-65325651D01*
X141504150Y-65258005D01*
X140700555Y-66061600D01*
X140629845Y-66061600D01*
X139826250Y-65258005D01*
X139609721Y-65325651D01*
X139408429Y-65785586D01*
X139398469Y-66287542D01*
X132641383Y-66287542D01*
X132538628Y-66038857D01*
X132285675Y-65785462D01*
X131955006Y-65648157D01*
X131596964Y-65647844D01*
X131266057Y-65784572D01*
X131012662Y-66037525D01*
X130977388Y-66122475D01*
X130963828Y-66089657D01*
X130710875Y-65836262D01*
X130380206Y-65698957D01*
X130033499Y-65698654D01*
X130033756Y-65404564D01*
X129958591Y-65222650D01*
X139861605Y-65222650D01*
X140665200Y-66026245D01*
X141468795Y-65222650D01*
X141401149Y-65006121D01*
X140941214Y-64804829D01*
X140439258Y-64794869D01*
X139971700Y-64977757D01*
X139929251Y-65006121D01*
X139861605Y-65222650D01*
X129958591Y-65222650D01*
X129897028Y-65073657D01*
X129644075Y-64820262D01*
X129383797Y-64712186D01*
X129526958Y-64569275D01*
X129664263Y-64238606D01*
X129664576Y-63880564D01*
X129527848Y-63549657D01*
X129376400Y-63397944D01*
X129376400Y-61311526D01*
X139402981Y-61311526D01*
X139594705Y-61775532D01*
X139949401Y-62130848D01*
X140413071Y-62323380D01*
X140915126Y-62323819D01*
X141379132Y-62132095D01*
X141734448Y-61777399D01*
X141926980Y-61313729D01*
X141927419Y-60811674D01*
X141735695Y-60347668D01*
X141380999Y-59992352D01*
X140917329Y-59799820D01*
X140415274Y-59799381D01*
X139951268Y-59991105D01*
X139595952Y-60345801D01*
X139403420Y-60809471D01*
X139402981Y-61311526D01*
X129376400Y-61311526D01*
X129376400Y-61115074D01*
X129438938Y-61052645D01*
X129576243Y-60721976D01*
X129576556Y-60363934D01*
X129439828Y-60033027D01*
X129186875Y-59779632D01*
X128856206Y-59642327D01*
X128498164Y-59642014D01*
X128167257Y-59778742D01*
X127913862Y-60031695D01*
X127776557Y-60362364D01*
X127776244Y-60720406D01*
X127912972Y-61051313D01*
X127976400Y-61114852D01*
X127976400Y-61528926D01*
X127937589Y-61512810D01*
X127579547Y-61512497D01*
X127248640Y-61649225D01*
X126995245Y-61902178D01*
X126857940Y-62232847D01*
X126857627Y-62590889D01*
X126994355Y-62921796D01*
X127153184Y-63080903D01*
X127180358Y-63217515D01*
X127247463Y-63317945D01*
X127136172Y-63317848D01*
X127044043Y-63355915D01*
X126375955Y-62687827D01*
X126376156Y-62458164D01*
X126239428Y-62127257D01*
X125986475Y-61873862D01*
X125655806Y-61736557D01*
X125297764Y-61736244D01*
X124966857Y-61872972D01*
X124713462Y-62125925D01*
X124576157Y-62456594D01*
X124575844Y-62814636D01*
X124712572Y-63145543D01*
X124965525Y-63398938D01*
X125296194Y-63536243D01*
X125527517Y-63536445D01*
X126433221Y-64442149D01*
X126550980Y-64727147D01*
X126803933Y-64980542D01*
X127134602Y-65117847D01*
X127492644Y-65118160D01*
X127699574Y-65032658D01*
X128233614Y-65566697D01*
X128233590Y-65594464D01*
X128069275Y-65429862D01*
X127738606Y-65292557D01*
X127380564Y-65292244D01*
X127138168Y-65392400D01*
X126959971Y-65392400D01*
X125873485Y-64305915D01*
X125613947Y-64132496D01*
X125588976Y-64127529D01*
X125307800Y-64071600D01*
X120625771Y-64071600D01*
X120047285Y-63493115D01*
X115970970Y-59416800D01*
X172282000Y-59416800D01*
X172282000Y-77887344D01*
G36*
X102136622Y-87382650D02*
X102135924Y-87382360D01*
X101777882Y-87382047D01*
X101446975Y-87518775D01*
X101400453Y-87565216D01*
X101457378Y-87428124D01*
X101457691Y-87070082D01*
X101320963Y-86739175D01*
X101068010Y-86485780D01*
X100737341Y-86348475D01*
X100379299Y-86348162D01*
X100048392Y-86484890D01*
X99794997Y-86737843D01*
X99657692Y-87068512D01*
X99657379Y-87426554D01*
X99697201Y-87522930D01*
X98358245Y-86183974D01*
X98358245Y-84688938D01*
X98520783Y-84526684D01*
X98658088Y-84196015D01*
X98658343Y-83904371D01*
X102136622Y-87382650D01*
X102136622Y-87382650D01*
G37*
X102136622Y-87382650D02*
X102135924Y-87382360D01*
X101777882Y-87382047D01*
X101446975Y-87518775D01*
X101400453Y-87565216D01*
X101457378Y-87428124D01*
X101457691Y-87070082D01*
X101320963Y-86739175D01*
X101068010Y-86485780D01*
X100737341Y-86348475D01*
X100379299Y-86348162D01*
X100048392Y-86484890D01*
X99794997Y-86737843D01*
X99657692Y-87068512D01*
X99657379Y-87426554D01*
X99697201Y-87522930D01*
X98358245Y-86183974D01*
X98358245Y-84688938D01*
X98520783Y-84526684D01*
X98658088Y-84196015D01*
X98658343Y-83904371D01*
X102136622Y-87382650D01*
G36*
X114848242Y-87423973D02*
X114804829Y-87452981D01*
X114801547Y-87456263D01*
X114485265Y-87456263D01*
X114351457Y-87429647D01*
X112002956Y-87429647D01*
X111802945Y-87229636D01*
X114767944Y-87229636D01*
X114848242Y-87423973D01*
X114848242Y-87423973D01*
G37*
X114848242Y-87423973D02*
X114804829Y-87452981D01*
X114801547Y-87456263D01*
X114485265Y-87456263D01*
X114351457Y-87429647D01*
X112002956Y-87429647D01*
X111802945Y-87229636D01*
X114767944Y-87229636D01*
X114848242Y-87423973D01*
G36*
X109677285Y-86979200D02*
X105831628Y-86979200D01*
X105575138Y-86722710D01*
X105715827Y-86664578D01*
X105906209Y-86474528D01*
X106001979Y-86455478D01*
X106196633Y-86325414D01*
X106200716Y-86321331D01*
X109019416Y-86321331D01*
X109677285Y-86979200D01*
X109677285Y-86979200D01*
G37*
X109677285Y-86979200D02*
X105831628Y-86979200D01*
X105575138Y-86722710D01*
X105715827Y-86664578D01*
X105906209Y-86474528D01*
X106001979Y-86455478D01*
X106196633Y-86325414D01*
X106200716Y-86321331D01*
X109019416Y-86321331D01*
X109677285Y-86979200D01*
G36*
X113202323Y-84923030D02*
X113077307Y-84620467D01*
X112989791Y-84532798D01*
X113592555Y-84532798D01*
X113202323Y-84923030D01*
X113202323Y-84923030D01*
G37*
X113202323Y-84923030D02*
X113077307Y-84620467D01*
X112989791Y-84532798D01*
X113592555Y-84532798D01*
X113202323Y-84923030D01*
G36*
X109716480Y-83493178D02*
X106178806Y-83493178D01*
X106073358Y-83387730D01*
X106119653Y-83356796D01*
X106361261Y-83115188D01*
X109338490Y-83115188D01*
X109716480Y-83493178D01*
X109716480Y-83493178D01*
G37*
X109716480Y-83493178D02*
X106178806Y-83493178D01*
X106073358Y-83387730D01*
X106119653Y-83356796D01*
X106361261Y-83115188D01*
X109338490Y-83115188D01*
X109716480Y-83493178D01*
G36*
X111537698Y-82157028D02*
X111732352Y-82287092D01*
X111961962Y-82332764D01*
X114062688Y-82332764D01*
X114062513Y-82532776D01*
X111584534Y-82532776D01*
X110378723Y-81326965D01*
X110707635Y-81326965D01*
X111537698Y-82157028D01*
X111537698Y-82157028D01*
G37*
X111537698Y-82157028D02*
X111732352Y-82287092D01*
X111961962Y-82332764D01*
X114062688Y-82332764D01*
X114062513Y-82532776D01*
X111584534Y-82532776D01*
X110378723Y-81326965D01*
X110707635Y-81326965D01*
X111537698Y-82157028D01*
G36*
X105556840Y-82222554D02*
X105446861Y-82332532D01*
X105299032Y-82332532D01*
X105246091Y-82204404D01*
X105174333Y-82132521D01*
X105466807Y-82132521D01*
X105556840Y-82222554D01*
X105556840Y-82222554D01*
G37*
X105556840Y-82222554D02*
X105446861Y-82332532D01*
X105299032Y-82332532D01*
X105246091Y-82204404D01*
X105174333Y-82132521D01*
X105466807Y-82132521D01*
X105556840Y-82222554D01*
G36*
X97739917Y-78776445D02*
X99373279Y-80409807D01*
X99567933Y-80539871D01*
X99797543Y-80585543D01*
X99855563Y-80585543D01*
X99852028Y-80590834D01*
X99806356Y-80820444D01*
X99806356Y-81483387D01*
X97654918Y-79331949D01*
X97655119Y-79102286D01*
X97520405Y-78776253D01*
X97739917Y-78776445D01*
X97739917Y-78776445D01*
G37*
X97739917Y-78776445D02*
X99373279Y-80409807D01*
X99567933Y-80539871D01*
X99797543Y-80585543D01*
X99855563Y-80585543D01*
X99852028Y-80590834D01*
X99806356Y-80820444D01*
X99806356Y-81483387D01*
X97654918Y-79331949D01*
X97655119Y-79102286D01*
X97520405Y-78776253D01*
X97739917Y-78776445D01*
G36*
X125282958Y-80469144D02*
X124616354Y-80469144D01*
X124386744Y-80514816D01*
X124192090Y-80644880D01*
X123765886Y-81071084D01*
X119750944Y-81071084D01*
X119079416Y-80399556D01*
X119532744Y-80399556D01*
X119762354Y-80353884D01*
X119957008Y-80223820D01*
X120158406Y-80022422D01*
X125729680Y-80022422D01*
X125282958Y-80469144D01*
X125282958Y-80469144D01*
G37*
X125282958Y-80469144D02*
X124616354Y-80469144D01*
X124386744Y-80514816D01*
X124192090Y-80644880D01*
X123765886Y-81071084D01*
X119750944Y-81071084D01*
X119079416Y-80399556D01*
X119532744Y-80399556D01*
X119762354Y-80353884D01*
X119957008Y-80223820D01*
X120158406Y-80022422D01*
X125729680Y-80022422D01*
X125282958Y-80469144D01*
G36*
X106770635Y-80847709D02*
X106965289Y-80977773D01*
X107194899Y-81023445D01*
X107618373Y-81023445D01*
X107650522Y-81055594D01*
X106652636Y-81055594D01*
X106304483Y-80707441D01*
X106630367Y-80707441D01*
X106770635Y-80847709D01*
X106770635Y-80847709D01*
G37*
X106770635Y-80847709D02*
X106965289Y-80977773D01*
X107194899Y-81023445D01*
X107618373Y-81023445D01*
X107650522Y-81055594D01*
X106652636Y-81055594D01*
X106304483Y-80707441D01*
X106630367Y-80707441D01*
X106770635Y-80847709D01*
G36*
X102742186Y-79236825D02*
X102971797Y-79282497D01*
X104278375Y-79282497D01*
X104278132Y-79560743D01*
X104414860Y-79891650D01*
X104581589Y-80058670D01*
X104556369Y-80069091D01*
X104302974Y-80322044D01*
X104165669Y-80652713D01*
X104165424Y-80932521D01*
X103420132Y-80932521D01*
X103287736Y-80958856D01*
X103231941Y-80902964D01*
X102901272Y-80765659D01*
X102543230Y-80765346D01*
X102257188Y-80883536D01*
X102257189Y-80150539D01*
X102481464Y-79926264D01*
X102611528Y-79731610D01*
X102657200Y-79502000D01*
X102657200Y-79180039D01*
X102742186Y-79236825D01*
X102742186Y-79236825D01*
G37*
X102742186Y-79236825D02*
X102971797Y-79282497D01*
X104278375Y-79282497D01*
X104278132Y-79560743D01*
X104414860Y-79891650D01*
X104581589Y-80058670D01*
X104556369Y-80069091D01*
X104302974Y-80322044D01*
X104165669Y-80652713D01*
X104165424Y-80932521D01*
X103420132Y-80932521D01*
X103287736Y-80958856D01*
X103231941Y-80902964D01*
X102901272Y-80765659D01*
X102543230Y-80765346D01*
X102257188Y-80883536D01*
X102257189Y-80150539D01*
X102481464Y-79926264D01*
X102611528Y-79731610D01*
X102657200Y-79502000D01*
X102657200Y-79180039D01*
X102742186Y-79236825D01*
G36*
X108950638Y-80126965D02*
X108418949Y-80126965D01*
X108291165Y-79999181D01*
X108096511Y-79869117D01*
X107866901Y-79823445D01*
X107443427Y-79823445D01*
X107303159Y-79683177D01*
X107213748Y-79623434D01*
X108447107Y-79623434D01*
X108950638Y-80126965D01*
X108950638Y-80126965D01*
G37*
X108950638Y-80126965D02*
X108418949Y-80126965D01*
X108291165Y-79999181D01*
X108096511Y-79869117D01*
X107866901Y-79823445D01*
X107443427Y-79823445D01*
X107303159Y-79683177D01*
X107213748Y-79623434D01*
X108447107Y-79623434D01*
X108950638Y-80126965D01*
G36*
X117690602Y-80098932D02*
X117097058Y-80098932D01*
X116897046Y-79898920D01*
X117490590Y-79898920D01*
X117690602Y-80098932D01*
X117690602Y-80098932D01*
G37*
X117690602Y-80098932D02*
X117097058Y-80098932D01*
X116897046Y-79898920D01*
X117490590Y-79898920D01*
X117690602Y-80098932D01*
G36*
X115128401Y-79498942D02*
X113963872Y-79498942D01*
X113794057Y-79532720D01*
X112898462Y-79532720D01*
X112692649Y-79326907D01*
X114475284Y-79326907D01*
X114620092Y-79298103D01*
X114927562Y-79298103D01*
X115128401Y-79498942D01*
X115128401Y-79498942D01*
G37*
X115128401Y-79498942D02*
X113963872Y-79498942D01*
X113794057Y-79532720D01*
X112898462Y-79532720D01*
X112692649Y-79326907D01*
X114475284Y-79326907D01*
X114620092Y-79298103D01*
X114927562Y-79298103D01*
X115128401Y-79498942D01*
G36*
X128666247Y-77854654D02*
X128860901Y-77984718D01*
X128956945Y-78003822D01*
X129145721Y-78192928D01*
X129251844Y-78236994D01*
X127806106Y-78236994D01*
X127806382Y-77921805D01*
X127764102Y-77819479D01*
X128631072Y-77819479D01*
X128666247Y-77854654D01*
X128666247Y-77854654D01*
G37*
X128666247Y-77854654D02*
X128860901Y-77984718D01*
X128956945Y-78003822D01*
X129145721Y-78192928D01*
X129251844Y-78236994D01*
X127806106Y-78236994D01*
X127806382Y-77921805D01*
X127764102Y-77819479D01*
X128631072Y-77819479D01*
X128666247Y-77854654D01*
G36*
X99636132Y-77217281D02*
X99966801Y-77354586D01*
X100050904Y-77354660D01*
X100050797Y-77477477D01*
X100187525Y-77808384D01*
X100207916Y-77828811D01*
X100141401Y-77828811D01*
X99365583Y-77052993D01*
X99371491Y-77052998D01*
X99442745Y-77023556D01*
X99636132Y-77217281D01*
X99636132Y-77217281D01*
G37*
X99636132Y-77217281D02*
X99966801Y-77354586D01*
X100050904Y-77354660D01*
X100050797Y-77477477D01*
X100187525Y-77808384D01*
X100207916Y-77828811D01*
X100141401Y-77828811D01*
X99365583Y-77052993D01*
X99371491Y-77052998D01*
X99442745Y-77023556D01*
X99636132Y-77217281D01*
G36*
X98143666Y-75225470D02*
X98280394Y-75556377D01*
X98411774Y-75687987D01*
X98293412Y-75973036D01*
X98293405Y-75980815D01*
X98081937Y-75769347D01*
X97887283Y-75639283D01*
X97657673Y-75593611D01*
X95976520Y-75593611D01*
X96065797Y-75378606D01*
X96065819Y-75353624D01*
X96964752Y-75353624D01*
X97194362Y-75307952D01*
X97389016Y-75177888D01*
X97619680Y-74947224D01*
X98143909Y-74947224D01*
X98143666Y-75225470D01*
X98143666Y-75225470D01*
G37*
X98143666Y-75225470D02*
X98280394Y-75556377D01*
X98411774Y-75687987D01*
X98293412Y-75973036D01*
X98293405Y-75980815D01*
X98081937Y-75769347D01*
X97887283Y-75639283D01*
X97657673Y-75593611D01*
X95976520Y-75593611D01*
X96065797Y-75378606D01*
X96065819Y-75353624D01*
X96964752Y-75353624D01*
X97194362Y-75307952D01*
X97389016Y-75177888D01*
X97619680Y-74947224D01*
X98143909Y-74947224D01*
X98143666Y-75225470D01*
G36*
X106464285Y-74882409D02*
X105238837Y-74882409D01*
X104932426Y-74575998D01*
X106157874Y-74575998D01*
X106464285Y-74882409D01*
X106464285Y-74882409D01*
G37*
X106464285Y-74882409D02*
X105238837Y-74882409D01*
X104932426Y-74575998D01*
X106157874Y-74575998D01*
X106464285Y-74882409D01*
G36*
X111411417Y-73008463D02*
X111449776Y-73201307D01*
X111504181Y-73282729D01*
X111503947Y-73549932D01*
X111559704Y-73684874D01*
X111273857Y-73399027D01*
X111079203Y-73268963D01*
X110849593Y-73223291D01*
X109567763Y-73223291D01*
X109584996Y-73181790D01*
X109585309Y-72823748D01*
X109552119Y-72743422D01*
X109698002Y-72889560D01*
X110028671Y-73026865D01*
X110386713Y-73027178D01*
X110717620Y-72890450D01*
X110971015Y-72637497D01*
X110991388Y-72588434D01*
X111411417Y-73008463D01*
X111411417Y-73008463D01*
G37*
X111411417Y-73008463D02*
X111449776Y-73201307D01*
X111504181Y-73282729D01*
X111503947Y-73549932D01*
X111559704Y-73684874D01*
X111273857Y-73399027D01*
X111079203Y-73268963D01*
X110849593Y-73223291D01*
X109567763Y-73223291D01*
X109584996Y-73181790D01*
X109585309Y-72823748D01*
X109552119Y-72743422D01*
X109698002Y-72889560D01*
X110028671Y-73026865D01*
X110386713Y-73027178D01*
X110717620Y-72890450D01*
X110971015Y-72637497D01*
X110991388Y-72588434D01*
X111411417Y-73008463D01*
G36*
X96573110Y-73122938D02*
X96342446Y-73353602D01*
X96209898Y-73353602D01*
X96083939Y-73227643D01*
X96148902Y-73162794D01*
X96196905Y-73047189D01*
X96686475Y-73047189D01*
X96573110Y-73122938D01*
X96573110Y-73122938D01*
G37*
X96573110Y-73122938D02*
X96342446Y-73353602D01*
X96209898Y-73353602D01*
X96083939Y-73227643D01*
X96148902Y-73162794D01*
X96196905Y-73047189D01*
X96686475Y-73047189D01*
X96573110Y-73122938D01*
G36*
X103089239Y-72993667D02*
X102935996Y-72891273D01*
X102706386Y-72845601D01*
X99040403Y-72845601D01*
X98810793Y-72891273D01*
X98727090Y-72947202D01*
X97528809Y-72947202D01*
X97642175Y-72871453D01*
X98020429Y-72493199D01*
X102588771Y-72493199D01*
X103089239Y-72993667D01*
X103089239Y-72993667D01*
G37*
X103089239Y-72993667D02*
X102935996Y-72891273D01*
X102706386Y-72845601D01*
X99040403Y-72845601D01*
X98810793Y-72891273D01*
X98727090Y-72947202D01*
X97528809Y-72947202D01*
X97642175Y-72871453D01*
X98020429Y-72493199D01*
X102588771Y-72493199D01*
X103089239Y-72993667D01*
G36*
X108023770Y-71760365D02*
X108218424Y-71890429D01*
X108370488Y-71920676D01*
X108503086Y-72053274D01*
X108523154Y-72101842D01*
X108506917Y-72101828D01*
X108296290Y-72188858D01*
X107804341Y-71696909D01*
X107804341Y-71694112D01*
X107766307Y-71502902D01*
X108023770Y-71760365D01*
X108023770Y-71760365D01*
G37*
X108023770Y-71760365D02*
X108218424Y-71890429D01*
X108370488Y-71920676D01*
X108503086Y-72053274D01*
X108523154Y-72101842D01*
X108506917Y-72101828D01*
X108296290Y-72188858D01*
X107804341Y-71696909D01*
X107804341Y-71694112D01*
X107766307Y-71502902D01*
X108023770Y-71760365D01*
G36*
X116271738Y-69021167D02*
X115875640Y-69021167D01*
X115816843Y-68981880D01*
X115900403Y-68898466D01*
X115932502Y-68821163D01*
X116071734Y-68821163D01*
X116271738Y-69021167D01*
X116271738Y-69021167D01*
G37*
X116271738Y-69021167D02*
X115875640Y-69021167D01*
X115816843Y-68981880D01*
X115900403Y-68898466D01*
X115932502Y-68821163D01*
X116071734Y-68821163D01*
X116271738Y-69021167D01*
G36*
X102506073Y-63506726D02*
X102735683Y-63552398D01*
X105021224Y-63552398D01*
X105150618Y-63638857D01*
X105380229Y-63684529D01*
X112180772Y-63684529D01*
X112180644Y-63830636D01*
X112317372Y-64161543D01*
X112477371Y-64321821D01*
X112448822Y-64465345D01*
X112448822Y-66463675D01*
X112212058Y-66365363D01*
X111854016Y-66365050D01*
X111758187Y-66404646D01*
X111753401Y-66393064D01*
X111500448Y-66139669D01*
X111169779Y-66002364D01*
X110811737Y-66002051D01*
X110549581Y-66110371D01*
X110498643Y-66059344D01*
X110167974Y-65922039D01*
X109809932Y-65921726D01*
X109479025Y-66058454D01*
X109358471Y-66178798D01*
X109305841Y-66051425D01*
X109052888Y-65798030D01*
X108722219Y-65660725D01*
X108364177Y-65660412D01*
X108033270Y-65797140D01*
X107779875Y-66050093D01*
X107642570Y-66380762D01*
X107642454Y-66513422D01*
X107488268Y-66449399D01*
X107130226Y-66449086D01*
X107050836Y-66481889D01*
X107051058Y-66227806D01*
X106914330Y-65896899D01*
X106661377Y-65643504D01*
X106330708Y-65506199D01*
X105972666Y-65505886D01*
X105641759Y-65642614D01*
X105424215Y-65859779D01*
X105261366Y-65696645D01*
X104930697Y-65559340D01*
X104572655Y-65559027D01*
X104241748Y-65695755D01*
X103988353Y-65948708D01*
X103851048Y-66279377D01*
X103850735Y-66637419D01*
X103987463Y-66968326D01*
X104150891Y-67132040D01*
X104150891Y-67842439D01*
X102703933Y-66395481D01*
X102704134Y-66165818D01*
X102567406Y-65834911D01*
X102314453Y-65581516D01*
X101983784Y-65444211D01*
X101768910Y-65444023D01*
X101804798Y-65263602D01*
X101804798Y-63587113D01*
X102083036Y-63587356D01*
X102413943Y-63450628D01*
X102417220Y-63447356D01*
X102506073Y-63506726D01*
X102506073Y-63506726D01*
G37*
X102506073Y-63506726D02*
X102735683Y-63552398D01*
X105021224Y-63552398D01*
X105150618Y-63638857D01*
X105380229Y-63684529D01*
X112180772Y-63684529D01*
X112180644Y-63830636D01*
X112317372Y-64161543D01*
X112477371Y-64321821D01*
X112448822Y-64465345D01*
X112448822Y-66463675D01*
X112212058Y-66365363D01*
X111854016Y-66365050D01*
X111758187Y-66404646D01*
X111753401Y-66393064D01*
X111500448Y-66139669D01*
X111169779Y-66002364D01*
X110811737Y-66002051D01*
X110549581Y-66110371D01*
X110498643Y-66059344D01*
X110167974Y-65922039D01*
X109809932Y-65921726D01*
X109479025Y-66058454D01*
X109358471Y-66178798D01*
X109305841Y-66051425D01*
X109052888Y-65798030D01*
X108722219Y-65660725D01*
X108364177Y-65660412D01*
X108033270Y-65797140D01*
X107779875Y-66050093D01*
X107642570Y-66380762D01*
X107642454Y-66513422D01*
X107488268Y-66449399D01*
X107130226Y-66449086D01*
X107050836Y-66481889D01*
X107051058Y-66227806D01*
X106914330Y-65896899D01*
X106661377Y-65643504D01*
X106330708Y-65506199D01*
X105972666Y-65505886D01*
X105641759Y-65642614D01*
X105424215Y-65859779D01*
X105261366Y-65696645D01*
X104930697Y-65559340D01*
X104572655Y-65559027D01*
X104241748Y-65695755D01*
X103988353Y-65948708D01*
X103851048Y-66279377D01*
X103850735Y-66637419D01*
X103987463Y-66968326D01*
X104150891Y-67132040D01*
X104150891Y-67842439D01*
X102703933Y-66395481D01*
X102704134Y-66165818D01*
X102567406Y-65834911D01*
X102314453Y-65581516D01*
X101983784Y-65444211D01*
X101768910Y-65444023D01*
X101804798Y-65263602D01*
X101804798Y-63587113D01*
X102083036Y-63587356D01*
X102413943Y-63450628D01*
X102417220Y-63447356D01*
X102506073Y-63506726D01*
G36*
X114678946Y-65845404D02*
X114873600Y-65975468D01*
X115103210Y-66021140D01*
X115769905Y-66021140D01*
X115969916Y-66221151D01*
X114676778Y-66221151D01*
X114676875Y-66109924D01*
X114540147Y-65779017D01*
X114287194Y-65525622D01*
X113956525Y-65388317D01*
X113648822Y-65388048D01*
X113648822Y-64815280D01*
X114678946Y-65845404D01*
X114678946Y-65845404D01*
G37*
X114678946Y-65845404D02*
X114873600Y-65975468D01*
X115103210Y-66021140D01*
X115769905Y-66021140D01*
X115969916Y-66221151D01*
X114676778Y-66221151D01*
X114676875Y-66109924D01*
X114540147Y-65779017D01*
X114287194Y-65525622D01*
X113956525Y-65388317D01*
X113648822Y-65388048D01*
X113648822Y-64815280D01*
X114678946Y-65845404D01*
G36*
X118374005Y-64082575D02*
X118312057Y-64108172D01*
X118058662Y-64361125D01*
X117921357Y-64691794D01*
X117921281Y-64778360D01*
X116939764Y-63796843D01*
X116745110Y-63666779D01*
X116515500Y-63621107D01*
X115848805Y-63621107D01*
X115682435Y-63454737D01*
X115682435Y-62819331D01*
X115636763Y-62589721D01*
X115506699Y-62395067D01*
X114439733Y-61328101D01*
X114245079Y-61198037D01*
X114015469Y-61152365D01*
X112247731Y-61152365D01*
X112018120Y-61198037D01*
X111888726Y-61284496D01*
X106125824Y-61284496D01*
X105855013Y-61013685D01*
X105841149Y-60992936D01*
X105646495Y-60862872D01*
X105550451Y-60843768D01*
X105450857Y-60744000D01*
X115035430Y-60744000D01*
X118374005Y-64082575D01*
X118374005Y-64082575D01*
G37*
X118374005Y-64082575D02*
X118312057Y-64108172D01*
X118058662Y-64361125D01*
X117921357Y-64691794D01*
X117921281Y-64778360D01*
X116939764Y-63796843D01*
X116745110Y-63666779D01*
X116515500Y-63621107D01*
X115848805Y-63621107D01*
X115682435Y-63454737D01*
X115682435Y-62819331D01*
X115636763Y-62589721D01*
X115506699Y-62395067D01*
X114439733Y-61328101D01*
X114245079Y-61198037D01*
X114015469Y-61152365D01*
X112247731Y-61152365D01*
X112018120Y-61198037D01*
X111888726Y-61284496D01*
X106125824Y-61284496D01*
X105855013Y-61013685D01*
X105841149Y-60992936D01*
X105646495Y-60862872D01*
X105550451Y-60843768D01*
X105450857Y-60744000D01*
X115035430Y-60744000D01*
X118374005Y-64082575D01*
M02*
