G04 #@! TF.FileFunction,Soldermask,Top*
%FSLAX46Y46*%
G04 Gerber Fmt 4.6, Leading zero omitted, Abs format (unit mm)*
G04 Created by KiCad (PCBNEW (2016-07-28 BZR 6996, Git e15ad93)-product) date Mon Oct 17 19:01:38 2016*
%MOMM*%
%LPD*%
G01*
G04 APERTURE LIST*
%ADD10C,0.100000*%
%ADD11R,0.679400X1.873200*%
%ADD12R,1.873200X0.679400*%
%ADD13R,1.416000X0.755600*%
%ADD14R,1.060400X1.339800*%
%ADD15R,1.924000X1.035000*%
%ADD16O,1.924000X1.035000*%
%ADD17R,2.017980X2.579320*%
%ADD18R,1.035000X1.924000*%
%ADD19O,1.035000X1.924000*%
%ADD20R,3.999180X2.998420*%
%ADD21R,2.998420X3.999180*%
%ADD22R,2.800000X2.800000*%
%ADD23R,0.700000X1.600000*%
%ADD24R,1.035000X2.305000*%
%ADD25R,1.339800X1.060400*%
%ADD26R,1.162000X1.339800*%
%ADD27R,1.339800X1.162000*%
%ADD28R,1.197560X1.197560*%
%ADD29R,3.200000X2.500000*%
%ADD30R,2.300000X1.000000*%
%ADD31R,1.398220X4.397960*%
%ADD32R,1.697940X1.799540*%
%ADD33R,1.398220X2.299920*%
%ADD34R,2.940000X1.670000*%
%ADD35R,3.399740X3.199080*%
%ADD36R,0.897840X1.098500*%
%ADD37R,1.047700X1.449020*%
%ADD38R,2.099260X2.797760*%
%ADD39R,2.299920X1.697940*%
%ADD40R,3.023820X3.023820*%
%ADD41C,3.023820*%
%ADD42C,3.399740*%
%ADD43C,1.924000*%
G04 APERTURE END LIST*
D10*
D11*
X112051577Y-100727773D03*
X112559577Y-100727773D03*
X113042177Y-100727773D03*
X113550177Y-100727773D03*
X114058177Y-100727773D03*
X114540777Y-100727773D03*
X115048777Y-100727773D03*
X115556777Y-100727773D03*
X116067317Y-100727773D03*
X116547377Y-100727773D03*
X117055377Y-100727773D03*
X117565917Y-100727773D03*
X118045977Y-100727773D03*
X118553977Y-100727773D03*
X119061977Y-100727773D03*
X119544577Y-100727773D03*
X120052577Y-100727773D03*
X120560577Y-100727773D03*
X121043177Y-100727773D03*
X121551177Y-100727773D03*
X122059177Y-100727773D03*
X122541777Y-100727773D03*
X123049777Y-100727773D03*
X123557777Y-100727773D03*
X124040377Y-100727773D03*
X124548377Y-100727773D03*
X125056377Y-100727773D03*
X125564377Y-100727773D03*
X126046977Y-100727773D03*
X126554977Y-100727773D03*
X127062977Y-100727773D03*
X127545577Y-100727773D03*
X128053577Y-100727773D03*
X128561577Y-100727773D03*
X129044177Y-100727773D03*
X129552177Y-100727773D03*
X130060177Y-100727773D03*
X130542777Y-100727773D03*
X131050777Y-100727773D03*
X131558777Y-100727773D03*
X132038837Y-100727773D03*
X132549377Y-100727773D03*
X133057377Y-100727773D03*
X133537437Y-100727773D03*
X134047977Y-100727773D03*
X134555977Y-100727773D03*
X135063977Y-100727773D03*
X135546577Y-100727773D03*
X136054577Y-100727773D03*
X136562577Y-100727773D03*
X137045177Y-100727773D03*
X137553177Y-100727773D03*
D12*
X139508977Y-98771973D03*
X139508977Y-98263973D03*
X139508977Y-97781373D03*
X139508977Y-97273373D03*
X139508977Y-96765373D03*
X139508977Y-96282773D03*
X139508977Y-95774773D03*
X139508977Y-95266773D03*
X139508977Y-94756233D03*
X139508977Y-94276173D03*
X139508977Y-93768173D03*
X139508977Y-93257633D03*
X139508977Y-92777573D03*
X139508977Y-92269573D03*
X139508977Y-91761573D03*
X139508977Y-91278973D03*
X139508977Y-90770973D03*
X139508977Y-90262973D03*
X139508977Y-89780373D03*
X139508977Y-89272373D03*
X139508977Y-88764373D03*
X139508977Y-88281773D03*
X139508977Y-87773773D03*
X139508977Y-87265773D03*
X139508977Y-86783173D03*
X139508977Y-86275173D03*
X139508977Y-85767173D03*
X139508977Y-85259173D03*
X139508977Y-84776573D03*
X139508977Y-84268573D03*
X139508977Y-83760573D03*
X139508977Y-83277973D03*
X139508977Y-82769973D03*
X139508977Y-82261973D03*
X139508977Y-81779373D03*
X139508977Y-81271373D03*
X139508977Y-80763373D03*
X139508977Y-80280773D03*
X139508977Y-79772773D03*
X139508977Y-79264773D03*
X139508977Y-78784713D03*
X139508977Y-78274173D03*
X139508977Y-77766173D03*
X139508977Y-77286113D03*
X139508977Y-76775573D03*
X139508977Y-76267573D03*
X139508977Y-75759573D03*
X139508977Y-75276973D03*
X139508977Y-74768973D03*
X139508977Y-74260973D03*
X139508977Y-73778373D03*
X139508977Y-73270373D03*
D11*
X137553177Y-71314573D03*
X137045177Y-71314573D03*
X136562577Y-71314573D03*
X136054577Y-71314573D03*
X135546577Y-71314573D03*
X135063977Y-71314573D03*
X134555977Y-71314573D03*
X134047977Y-71314573D03*
X133537437Y-71314573D03*
X133057377Y-71314573D03*
X132549377Y-71314573D03*
X132038837Y-71314573D03*
X131558777Y-71314573D03*
X131050777Y-71314573D03*
X130542777Y-71314573D03*
X130060177Y-71314573D03*
X129552177Y-71314573D03*
X129044177Y-71314573D03*
X128561577Y-71314573D03*
X128053577Y-71314573D03*
X127545577Y-71314573D03*
X127062977Y-71314573D03*
X126554977Y-71314573D03*
X126046977Y-71314573D03*
X125564377Y-71314573D03*
X125056377Y-71314573D03*
X124548377Y-71314573D03*
X124040377Y-71314573D03*
X123557777Y-71314573D03*
X123049777Y-71314573D03*
X122541777Y-71314573D03*
X122059177Y-71314573D03*
X121551177Y-71314573D03*
X121043177Y-71314573D03*
X120560577Y-71314573D03*
X120052577Y-71314573D03*
X119544577Y-71314573D03*
X119061977Y-71314573D03*
X118553977Y-71314573D03*
X118045977Y-71314573D03*
X117565917Y-71314573D03*
X117055377Y-71314573D03*
X116547377Y-71314573D03*
X116067317Y-71314573D03*
X115556777Y-71314573D03*
X115048777Y-71314573D03*
X114540777Y-71314573D03*
X114058177Y-71314573D03*
X113550177Y-71314573D03*
X113042177Y-71314573D03*
X112559577Y-71314573D03*
X112051577Y-71314573D03*
D12*
X110095777Y-73270373D03*
X110095777Y-73778373D03*
X110095777Y-74260973D03*
X110095777Y-74768973D03*
X110095777Y-75276973D03*
X110095777Y-75759573D03*
X110095777Y-76267573D03*
X110095777Y-76775573D03*
X110095777Y-77286113D03*
X110095777Y-77766173D03*
X110095777Y-78274173D03*
X110095777Y-78784713D03*
X110095777Y-79264773D03*
X110095777Y-79772773D03*
X110095777Y-80280773D03*
X110095777Y-80763373D03*
X110095777Y-81271373D03*
X110095777Y-81779373D03*
X110095777Y-82261973D03*
X110095777Y-82769973D03*
X110095777Y-83277973D03*
X110095777Y-83760573D03*
X110095777Y-84268573D03*
X110095777Y-84776573D03*
X110095777Y-85259173D03*
X110095777Y-85767173D03*
X110095777Y-86275173D03*
X110095777Y-86783173D03*
X110095777Y-87265773D03*
X110095777Y-87773773D03*
X110095777Y-88281773D03*
X110095777Y-88764373D03*
X110095777Y-89272373D03*
X110095777Y-89780373D03*
X110095777Y-90262973D03*
X110095777Y-90770973D03*
X110095777Y-91278973D03*
X110095777Y-91761573D03*
X110095777Y-92269573D03*
X110095777Y-92777573D03*
X110095777Y-93257633D03*
X110095777Y-93768173D03*
X110095777Y-94276173D03*
X110095777Y-94756233D03*
X110095777Y-95266773D03*
X110095777Y-95774773D03*
X110095777Y-96282773D03*
X110095777Y-96765373D03*
X110095777Y-97273373D03*
X110095777Y-97781373D03*
X110095777Y-98263973D03*
X110095777Y-98771973D03*
D13*
X103873300Y-89898220D03*
X103873300Y-89098120D03*
X103873300Y-88298020D03*
X103873300Y-87497920D03*
X103873300Y-86697820D03*
X103873300Y-85897720D03*
X103873300Y-85097620D03*
X103873300Y-84297520D03*
X103873300Y-83497420D03*
X103873300Y-82697320D03*
X103873300Y-81897220D03*
X103873300Y-81097120D03*
X103873300Y-80297020D03*
X103873300Y-79499460D03*
X103873300Y-78699360D03*
X103873300Y-77901800D03*
X103873300Y-77101700D03*
X103873300Y-76301600D03*
X103873300Y-75501500D03*
X103873300Y-74701400D03*
X103873300Y-73901300D03*
X103873300Y-73101200D03*
X103873300Y-72301100D03*
X103873300Y-71501000D03*
X103873300Y-70700900D03*
X103873300Y-69900800D03*
X103873300Y-69100700D03*
X92075000Y-69100700D03*
X92075000Y-69900800D03*
X92075000Y-70700900D03*
X92075000Y-71501000D03*
X92075000Y-72301100D03*
X92075000Y-73101200D03*
X92075000Y-73901300D03*
X92075000Y-74701400D03*
X92075000Y-75501500D03*
X92075000Y-76301600D03*
X92075000Y-77101700D03*
X92075000Y-77901800D03*
X92075000Y-78699360D03*
X92075000Y-79499460D03*
X92075000Y-80297020D03*
X92075000Y-81097120D03*
X92075000Y-81897220D03*
X92075000Y-82697320D03*
X92075000Y-83497420D03*
X92075000Y-84297520D03*
X92075000Y-85097620D03*
X92075000Y-85897720D03*
X92075000Y-86697820D03*
X92075000Y-87497920D03*
X92075000Y-88298020D03*
X92075000Y-89098120D03*
X92075000Y-89898220D03*
D14*
X107645200Y-81788000D03*
X106222800Y-81788000D03*
X107518200Y-76758800D03*
X106095800Y-76758800D03*
X106108500Y-79375000D03*
X107530900Y-79375000D03*
D15*
X122999500Y-60542170D03*
D16*
X122999500Y-61809630D03*
X122999500Y-63079630D03*
X122999500Y-64349630D03*
X130340100Y-64349630D03*
X130340100Y-63079630D03*
X130340100Y-61809630D03*
X130340100Y-60542170D03*
D17*
X166636700Y-85026500D03*
X171234100Y-85026500D03*
D18*
X167604977Y-96472320D03*
D19*
X168874977Y-96472320D03*
X170144977Y-96472320D03*
X171414977Y-96472320D03*
X171414977Y-90630320D03*
X170144977Y-90630320D03*
X168874977Y-90630320D03*
X167604977Y-90630320D03*
D14*
X168795700Y-88646000D03*
X170218100Y-88646000D03*
D20*
X98552000Y-115173760D03*
D21*
X98552000Y-93675200D03*
D22*
X119749200Y-61982400D03*
X96049200Y-61982400D03*
D23*
X98150934Y-64880974D03*
X98650934Y-64880974D03*
X99150934Y-64880974D03*
X99650934Y-64880974D03*
X100150934Y-64880974D03*
X100650934Y-64880974D03*
X101150934Y-64880974D03*
X101650934Y-64880974D03*
X102150934Y-64880974D03*
X102650934Y-64880974D03*
X103150934Y-64880974D03*
X103650934Y-64880974D03*
X104150934Y-64880974D03*
X104650934Y-64880974D03*
X105150934Y-64880974D03*
X105650934Y-64880974D03*
X106150934Y-64880974D03*
X106650934Y-64880974D03*
X107150934Y-64880974D03*
X107650934Y-64880974D03*
X108150934Y-64880974D03*
X108650934Y-64880974D03*
X109150934Y-64880974D03*
X109650934Y-64880974D03*
X110150934Y-64880974D03*
X110650934Y-64880974D03*
X111150934Y-64880974D03*
X111650934Y-64880974D03*
X112150934Y-64880974D03*
X112650934Y-64880974D03*
X113150934Y-64880974D03*
X113650934Y-64880974D03*
X114150934Y-64880974D03*
X114650934Y-64880974D03*
X115150934Y-64880974D03*
X115650934Y-64880974D03*
X116150934Y-64880974D03*
X116650934Y-64880974D03*
X117150934Y-64880974D03*
X117650934Y-64880974D03*
D24*
X121075442Y-113277177D03*
X121075442Y-108197177D03*
X122345442Y-113277177D03*
X122345442Y-108197177D03*
X123615442Y-113277177D03*
X123615442Y-108197177D03*
X124885442Y-108197177D03*
X126155442Y-113277177D03*
X126155442Y-108197177D03*
D25*
X90360500Y-85902800D03*
X90360500Y-87325200D03*
D14*
X107581700Y-88138000D03*
X106159300Y-88138000D03*
D25*
X90424000Y-82499200D03*
X90424000Y-81076800D03*
D14*
X107645200Y-89852500D03*
X106222800Y-89852500D03*
X107518200Y-83439000D03*
X106095800Y-83439000D03*
D25*
X105562400Y-70764400D03*
X105562400Y-69342000D03*
D14*
X127609600Y-58254900D03*
X129032000Y-58254900D03*
D25*
X165760400Y-94373700D03*
X165760400Y-92951300D03*
D14*
X142544800Y-70916800D03*
X143967200Y-70916800D03*
D25*
X141325600Y-80772000D03*
X141325600Y-79349600D03*
D14*
X134112000Y-69291200D03*
X135534400Y-69291200D03*
D25*
X121602500Y-102590600D03*
X121602500Y-104013000D03*
D14*
X127558800Y-66192400D03*
X126136400Y-66192400D03*
D25*
X119126000Y-102590600D03*
X119126000Y-104013000D03*
X117030500Y-69418200D03*
X117030500Y-67995800D03*
X124650500Y-102603300D03*
X124650500Y-104025700D03*
X141376400Y-95199200D03*
X141376400Y-93776800D03*
D14*
X107581700Y-85217000D03*
X106159300Y-85217000D03*
D25*
X141376400Y-82245200D03*
X141376400Y-83667600D03*
X107899200Y-93573600D03*
X107899200Y-92151200D03*
X141427200Y-89712800D03*
X141427200Y-88290400D03*
D14*
X140322300Y-110731300D03*
X138899900Y-110731300D03*
X142582900Y-110731300D03*
X144005300Y-110731300D03*
D26*
X124421900Y-58254900D03*
X126098300Y-58254900D03*
X152042402Y-68611100D03*
X153718802Y-68611100D03*
X148602402Y-68611100D03*
X150278802Y-68611100D03*
D27*
X150063200Y-61747400D03*
X150063200Y-60071000D03*
X119367300Y-107683300D03*
X119367300Y-109359700D03*
X119367300Y-112064800D03*
X119367300Y-113741200D03*
X127812800Y-107810300D03*
X127812800Y-109486700D03*
X136156700Y-107467400D03*
X136156700Y-105791000D03*
D28*
X150066457Y-65185929D03*
X150066457Y-63590809D03*
X136156700Y-110815120D03*
X136156700Y-109220000D03*
D29*
X167212400Y-68150000D03*
X167212400Y-58850000D03*
D30*
X164712400Y-65000000D03*
X164712400Y-64000000D03*
X164712400Y-63000000D03*
X164712400Y-62000000D03*
D25*
X142786100Y-101384100D03*
X142786100Y-99961700D03*
X130759200Y-104254300D03*
X130759200Y-105676700D03*
X132842000Y-104254300D03*
X132842000Y-105676700D03*
D31*
X158445200Y-59654440D03*
X158445200Y-66751200D03*
X146558000Y-84996020D03*
X146558000Y-92092780D03*
D32*
X172300900Y-112420400D03*
X168770300Y-112420400D03*
D33*
X167563800Y-80899000D03*
X170561000Y-80899000D03*
D34*
X110566200Y-105968800D03*
X116103400Y-105968800D03*
X110566200Y-108508800D03*
X116103400Y-108508800D03*
X110566200Y-111048800D03*
X116103400Y-111048800D03*
X110566200Y-113588800D03*
X116103400Y-113588800D03*
D35*
X165168580Y-111506000D03*
X154871420Y-111506000D03*
D15*
X144522837Y-98979177D03*
D16*
X144522837Y-100249177D03*
X144522837Y-101519177D03*
X144522837Y-102789177D03*
X150364837Y-102789177D03*
X150364837Y-101519177D03*
X150364837Y-100249177D03*
X150364837Y-98979177D03*
D36*
X92430600Y-66479420D03*
X93063060Y-64482980D03*
X93700600Y-66479420D03*
D37*
X144256760Y-72715120D03*
X142356840Y-72715120D03*
X143306800Y-75011280D03*
D38*
X138934332Y-107930942D03*
X144014332Y-107930942D03*
D39*
X130266440Y-108013500D03*
X130266440Y-113512600D03*
X133441440Y-113512600D03*
X133464300Y-108013500D03*
D40*
X162072320Y-86527640D03*
D41*
X162072320Y-90525600D03*
X162072320Y-94523560D03*
X158074360Y-88526620D03*
X158074360Y-92524580D03*
X154076400Y-86527640D03*
X154076400Y-90525600D03*
X154076400Y-94523560D03*
D42*
X168871900Y-76827380D03*
X168871900Y-104223820D03*
X150774400Y-105724960D03*
X150774400Y-75326240D03*
D43*
X140665200Y-61061600D03*
X140665200Y-66061600D03*
M02*
